<?xml version="1.0" encoding="utf-8" standalone="no"?>
<!DOCTYPE svg PUBLIC "-//W3C//DTD SVG 1.1//EN"
  "http://www.w3.org/Graphics/SVG/1.1/DTD/svg11.dtd">
<svg xmlns:xlink="http://www.w3.org/1999/xlink" width="75.6pt" height="82.8pt" viewBox="0 0 75.6 82.8" xmlns="http://www.w3.org/2000/svg" version="1.1">
 <metadata>
  <rdf:RDF xmlns:dc="http://purl.org/dc/elements/1.1/" xmlns:cc="http://creativecommons.org/ns#" xmlns:rdf="http://www.w3.org/1999/02/22-rdf-syntax-ns#">
   <cc:Work>
    <dc:type rdf:resource="http://purl.org/dc/dcmitype/StillImage"/>
    <dc:date>2025-09-11T02:26:45.209348</dc:date>
    <dc:format>image/svg+xml</dc:format>
    <dc:creator>
     <cc:Agent>
      <dc:title>Matplotlib v3.10.3, https://matplotlib.org/</dc:title>
     </cc:Agent>
    </dc:creator>
   </cc:Work>
  </rdf:RDF>
 </metadata>
 <defs>
  <style type="text/css">*{stroke-linejoin: round; stroke-linecap: butt}</style>
 </defs>
 <g id="figure_1">
  <g id="patch_1">
   <path d="M 0 82.8 
L 75.6 82.8 
L 75.6 0 
L 0 0 
L 0 82.8 
z
" style="fill: none"/>
  </g>
  <g id="axes_1">
   <g id="patch_2">
    <path d="M 12.44775 31.661 
L 71.040375 31.661 
L 71.040375 3.726 
L 12.44775 3.726 
L 12.44775 31.661 
z
" style="fill: none"/>
   </g>
   <g id="FillBetweenPolyCollection_1">
    <path d="M -16.848096 8.74367 
L -16.848096 15.231645 
L -16.554404 15.291722 
L -16.260711 15.203608 
L -15.967018 15.161016 
L -15.673325 15.156311 
L -15.379633 15.213478 
L -15.08594 15.247207 
L -14.792247 15.290628 
L -14.498555 15.342597 
L -14.204862 15.431977 
L -13.911169 15.53235 
L -13.617477 15.63642 
L -13.323784 15.736577 
L -13.030091 15.85294 
L -12.736399 15.980357 
L -12.442706 16.111085 
L -12.149013 16.23933 
L -11.85532 16.368514 
L -11.561628 16.502852 
L -11.267935 16.644914 
L -10.974242 16.78556 
L -10.68055 16.923349 
L -10.386857 17.061655 
L -10.093164 17.202231 
L -9.799472 17.347432 
L -9.505779 17.4909 
L -9.212086 17.632833 
L -8.918393 17.773177 
L -8.624701 17.91756 
L -8.331008 18.060159 
L -8.037315 18.204711 
L -7.743623 18.346824 
L -7.44993 18.489848 
L -7.156237 18.632654 
L -6.862545 18.776182 
L -6.568852 18.917303 
L -6.275159 19.059262 
L -5.981467 19.201277 
L -5.687774 19.343462 
L -5.394081 19.48404 
L -5.100388 19.621999 
L -4.806696 19.759727 
L -4.513003 19.897739 
L -4.21931 20.035562 
L -3.925618 20.170017 
L -3.631925 20.302458 
L -3.338232 20.432077 
L -3.04454 20.562692 
L -2.750847 20.691756 
L -2.457154 20.818012 
L -2.163462 20.940408 
L -1.869769 21.061093 
L -1.576076 21.181008 
L -1.282383 21.300008 
L -0.988691 21.415079 
L -0.694998 21.526572 
L -0.401305 21.636305 
L -0.107613 21.746029 
L 0.18608 21.853266 
L 0.479773 21.956917 
L 0.773465 22.057045 
L 1.067158 22.156508 
L 1.360851 22.254993 
L 1.654543 22.351183 
L 1.948236 22.443178 
L 2.241929 22.533829 
L 2.535622 22.630457 
L 2.829314 22.735149 
L 3.123007 22.846102 
L 3.4167 22.956682 
L 3.710392 23.062492 
L 4.004085 23.156315 
L 4.297778 23.236868 
L 4.59147 23.303972 
L 4.885163 23.367142 
L 5.178856 23.428603 
L 5.472549 23.490039 
L 5.766241 23.549824 
L 6.059934 23.610094 
L 6.353627 23.668608 
L 6.647319 23.726504 
L 6.941012 23.782737 
L 7.234705 23.838703 
L 7.528397 23.893867 
L 7.82209 23.947971 
L 8.115783 24.000391 
L 8.409475 24.051951 
L 8.703168 24.103034 
L 8.996861 24.15344 
L 9.290554 24.202564 
L 9.584246 24.250638 
L 9.877939 24.297886 
L 10.171632 24.345478 
L 10.465324 24.392283 
L 10.759017 24.4394 
L 11.05271 24.492502 
L 11.346402 24.558146 
L 11.640095 24.637705 
L 11.933788 24.729966 
L 12.22748 24.827662 
L 12.521173 24.923607 
L 12.814866 25.00911 
L 13.108559 25.07831 
L 13.402251 25.127783 
L 13.695944 25.168191 
L 13.989637 25.199955 
L 14.283329 25.219513 
L 14.577022 25.2338 
L 14.870715 25.247492 
L 15.164407 25.262744 
L 15.4581 25.276509 
L 15.751793 25.291623 
L 16.045486 25.304842 
L 16.339178 25.319564 
L 16.632871 25.333205 
L 16.926564 25.348319 
L 17.220256 25.362065 
L 17.513949 25.376613 
L 17.807642 25.390918 
L 18.101334 25.405829 
L 18.395027 25.421045 
L 18.68872 25.436285 
L 18.982412 25.451613 
L 19.276105 25.467176 
L 19.569798 25.485871 
L 19.863491 25.509491 
L 20.157183 25.542094 
L 20.450876 25.58448 
L 20.744569 25.635726 
L 21.038261 25.691333 
L 21.331954 25.74638 
L 21.625647 25.796414 
L 21.919339 25.837902 
L 22.213032 25.870916 
L 22.506725 25.900812 
L 22.800417 25.929067 
L 23.09411 25.951872 
L 23.387803 25.966472 
L 23.681496 25.972655 
L 23.975188 25.972055 
L 24.268881 25.965095 
L 24.562574 25.952124 
L 24.856266 25.936575 
L 25.149959 25.920804 
L 25.443652 25.903225 
L 25.737344 25.883473 
L 26.031037 25.861416 
L 26.32473 25.835858 
L 26.618422 25.805946 
L 26.912115 25.77154 
L 27.205808 25.731012 
L 27.499501 25.683929 
L 27.793193 25.629206 
L 28.086886 25.566192 
L 28.380579 25.493255 
L 28.674271 25.409695 
L 28.967964 25.313882 
L 29.261657 25.205326 
L 29.555349 25.082402 
L 29.849042 24.943829 
L 30.142735 24.787865 
L 30.436428 24.613807 
L 30.73012 24.420414 
L 31.023813 24.207132 
L 31.317506 23.972718 
L 31.611198 23.71693 
L 31.904891 23.439665 
L 32.198584 23.141611 
L 32.492276 22.82272 
L 32.785969 22.484152 
L 33.079662 22.127513 
L 33.373354 21.777874 
L 33.667047 21.455248 
L 33.96074 21.134327 
L 34.254433 20.761864 
L 34.548125 20.330802 
L 34.841818 19.884746 
L 35.135511 19.447599 
L 35.429203 19.020598 
L 35.722896 18.609224 
L 36.016589 18.214365 
L 36.310281 17.840604 
L 36.603974 17.488803 
L 36.897667 17.162529 
L 37.191359 16.861441 
L 37.485052 16.586612 
L 37.778745 16.336558 
L 38.072438 16.11217 
L 38.36613 15.9115 
L 38.659823 15.733851 
L 38.953516 15.575822 
L 39.247208 15.43635 
L 39.540901 15.314274 
L 39.834594 15.210194 
L 40.128286 15.122077 
L 40.421979 15.048718 
L 40.715672 14.986912 
L 41.009365 14.935603 
L 41.303057 14.90114 
L 41.59675 14.886908 
L 41.890443 14.88945 
L 42.184135 14.90158 
L 42.477828 14.916252 
L 42.771521 14.936908 
L 43.065213 14.970582 
L 43.358906 15.016206 
L 43.652599 15.074278 
L 43.946291 15.144965 
L 44.239984 15.22765 
L 44.533677 15.321737 
L 44.82737 15.425574 
L 45.121062 15.537974 
L 45.414755 15.657307 
L 45.708448 15.782839 
L 46.00214 15.912723 
L 46.295833 16.046956 
L 46.589526 16.184057 
L 46.883218 16.323927 
L 47.176911 16.465336 
L 47.470604 16.608813 
L 47.764296 16.752807 
L 48.057989 16.898846 
L 48.351682 17.041757 
L 48.645375 17.19259 
L 48.939067 17.372166 
L 49.23276 17.571995 
L 49.526453 17.753516 
L 49.820145 17.892908 
L 50.113838 18.021427 
L 50.407531 18.153401 
L 50.701223 18.286158 
L 50.994916 18.420713 
L 51.288609 18.55534 
L 51.582301 18.691411 
L 51.875994 18.827466 
L 52.169687 18.965171 
L 52.46338 19.102539 
L 52.757072 19.239973 
L 53.050765 19.376768 
L 53.344458 19.514196 
L 53.63815 19.650525 
L 53.931843 19.787135 
L 54.225536 19.921939 
L 54.519228 20.056265 
L 54.812921 20.188928 
L 55.106614 20.321234 
L 55.400307 20.450716 
L 55.693999 20.579715 
L 55.987692 20.705823 
L 56.281385 20.831256 
L 56.575077 20.953878 
L 56.86877 21.074914 
L 57.162463 21.193253 
L 57.456155 21.310244 
L 57.749848 21.424471 
L 58.043541 21.537114 
L 58.337233 21.646945 
L 58.630926 21.754473 
L 58.924619 21.859152 
L 59.218312 21.961336 
L 59.512004 22.059737 
L 59.805697 22.158929 
L 60.09939 22.260888 
L 60.393082 22.368557 
L 60.686775 22.480006 
L 60.980468 22.592894 
L 61.27416 22.702143 
L 61.567853 22.804541 
L 61.861546 22.895114 
L 62.155238 22.974911 
L 62.448931 23.049597 
L 62.742624 23.124529 
L 63.036317 23.198246 
L 63.330009 23.27098 
L 63.623702 23.342473 
L 63.917395 23.413213 
L 64.211087 23.482376 
L 64.50478 23.550901 
L 64.798473 23.617635 
L 65.092165 23.683464 
L 65.385858 23.74697 
L 65.679551 23.809761 
L 65.973244 23.869872 
L 66.266936 23.929419 
L 66.560629 23.986285 
L 66.854322 24.041769 
L 67.148014 24.095209 
L 67.441707 24.146899 
L 67.7354 24.197012 
L 68.029092 24.245113 
L 68.322785 24.291668 
L 68.616478 24.336618 
L 68.91017 24.379979 
L 69.203863 24.423529 
L 69.497556 24.469169 
L 69.791249 24.519235 
L 70.084941 24.569307 
L 70.378634 24.616563 
L 70.672327 24.657397 
L 70.966019 24.695207 
L 71.259712 24.729709 
L 71.553405 24.7641 
L 71.847097 24.797616 
L 72.14079 24.83085 
L 72.434483 24.863239 
L 72.728175 24.895404 
L 73.021868 24.926601 
L 73.315561 24.957748 
L 73.609254 24.987798 
L 73.902946 25.017801 
L 74.196639 25.04672 
L 74.490332 25.075221 
L 74.784024 25.102914 
L 75.077717 25.130232 
L 75.37141 25.157239 
L 75.665102 25.183404 
L 75.958795 25.209642 
L 76.252488 25.234909 
L 76.54618 25.260261 
L 76.839873 25.285276 
L 77.133566 25.309653 
L 77.427259 25.33381 
L 77.720951 25.357477 
L 78.014644 25.384993 
L 78.308337 25.415845 
L 78.602029 25.447654 
L 78.895722 25.473499 
L 79.189415 25.493145 
L 79.483107 25.512652 
L 79.7768 25.531269 
L 80.070493 25.549885 
L 80.364186 25.567761 
L 80.657878 25.585981 
L 80.951571 25.603752 
L 81.245264 25.620964 
L 81.538956 25.637298 
L 81.832649 25.653274 
L 82.126342 25.668389 
L 82.420034 25.682356 
L 82.713727 25.694854 
L 83.00742 25.705707 
L 83.301112 25.714545 
L 83.594805 25.721263 
L 83.888498 25.725411 
L 84.182191 25.726546 
L 84.475883 25.72415 
L 84.769576 25.717349 
L 85.063269 25.706145 
L 85.356961 25.689414 
L 85.650654 25.666803 
L 85.944347 25.637021 
L 86.238039 25.599755 
L 86.531732 25.554044 
L 86.825425 25.499445 
L 87.119117 25.43394 
L 87.41281 25.357274 
L 87.706503 25.267812 
L 88.000196 25.164684 
L 88.293888 25.045939 
L 88.587581 24.911323 
L 88.881274 24.759278 
L 89.174966 24.588574 
L 89.468659 24.397285 
L 89.762352 24.18478 
L 90.056044 23.951674 
L 90.349737 23.697258 
L 90.64343 23.420103 
L 90.937123 23.119827 
L 91.230815 22.798964 
L 91.524508 22.459382 
L 91.818201 22.101258 
L 92.111893 21.724551 
L 92.405586 21.330758 
L 92.699279 20.927832 
L 92.992971 20.516723 
L 93.286664 20.102012 
L 93.580357 19.682908 
L 93.874049 19.267485 
L 94.167742 18.861891 
L 94.461435 18.474136 
L 94.755128 18.099469 
L 95.04882 17.741158 
L 95.342513 17.404808 
L 95.636206 17.097435 
L 95.929898 16.815055 
L 96.223591 16.560616 
L 96.517284 16.333409 
L 96.810976 16.140571 
L 97.104669 15.959485 
L 97.398362 15.791005 
L 97.692054 15.647446 
L 97.985747 15.553116 
L 98.27944 15.47373 
L 98.573133 15.372748 
L 98.866825 15.278904 
L 99.160518 15.267878 
L 99.454211 15.340183 
L 99.747903 15.363393 
L 100.041596 15.239101 
L 100.335289 15.057459 
L 100.335289 8.959212 
L 100.335289 8.959212 
L 100.041596 8.855602 
L 99.747903 8.887825 
L 99.454211 9.133592 
L 99.160518 9.483794 
L 98.866825 9.795373 
L 98.573133 10.069188 
L 98.27944 10.384325 
L 97.985747 10.770044 
L 97.692054 11.180359 
L 97.398362 11.578459 
L 97.104669 11.988449 
L 96.810976 12.42381 
L 96.517284 12.87974 
L 96.223591 13.328879 
L 95.929898 13.77247 
L 95.636206 14.211907 
L 95.342513 14.647626 
L 95.04882 15.070327 
L 94.755128 15.480328 
L 94.461435 15.880363 
L 94.167742 16.272009 
L 93.874049 16.649465 
L 93.580357 17.015518 
L 93.286664 17.371756 
L 92.992971 17.722061 
L 92.699279 18.064818 
L 92.405586 18.401553 
L 92.111893 18.730276 
L 91.818201 19.05333 
L 91.524508 19.370548 
L 91.230815 19.680936 
L 90.937123 19.98317 
L 90.64343 20.276292 
L 90.349737 20.560644 
L 90.056044 20.835616 
L 89.762352 21.100119 
L 89.468659 21.35327 
L 89.174966 21.594959 
L 88.881274 21.824935 
L 88.587581 22.042616 
L 88.293888 22.247943 
L 88.000196 22.44081 
L 87.706503 22.621427 
L 87.41281 22.789658 
L 87.119117 22.945779 
L 86.825425 23.090317 
L 86.531732 23.223678 
L 86.238039 23.346249 
L 85.944347 23.45814 
L 85.650654 23.560223 
L 85.356961 23.652889 
L 85.063269 23.736736 
L 84.769576 23.811989 
L 84.475883 23.879324 
L 84.182191 23.939062 
L 83.888498 23.992074 
L 83.594805 24.038227 
L 83.301112 24.078449 
L 83.00742 24.112621 
L 82.713727 24.141955 
L 82.420034 24.166048 
L 82.126342 24.185649 
L 81.832649 24.200578 
L 81.538956 24.21171 
L 81.245264 24.219063 
L 80.951571 24.223213 
L 80.657878 24.223621 
L 80.364186 24.221309 
L 80.070493 24.215656 
L 79.7768 24.207854 
L 79.483107 24.196715 
L 79.189415 24.183637 
L 78.895722 24.168619 
L 78.602029 24.158336 
L 78.308337 24.151993 
L 78.014644 24.142348 
L 77.720951 24.12734 
L 77.427259 24.106391 
L 77.133566 24.083626 
L 76.839873 24.059165 
L 76.54618 24.033237 
L 76.252488 24.006318 
L 75.958795 23.977306 
L 75.665102 23.947967 
L 75.37141 23.91665 
L 75.077717 23.88493 
L 74.784024 23.851388 
L 74.490332 23.816946 
L 74.196639 23.781484 
L 73.902946 23.745084 
L 73.609254 23.708089 
L 73.315561 23.669584 
L 73.021868 23.630222 
L 72.728175 23.589417 
L 72.434483 23.547786 
L 72.14079 23.504949 
L 71.847097 23.46098 
L 71.553405 23.41549 
L 71.259712 23.368941 
L 70.966019 23.321071 
L 70.672327 23.27455 
L 70.378634 23.229378 
L 70.084941 23.188913 
L 69.791249 23.150003 
L 69.497556 23.109323 
L 69.203863 23.062056 
L 68.91017 23.009947 
L 68.616478 22.955151 
L 68.322785 22.899702 
L 68.029092 22.843788 
L 67.7354 22.786865 
L 67.441707 22.729597 
L 67.148014 22.671525 
L 66.854322 22.61319 
L 66.560629 22.554316 
L 66.266936 22.494391 
L 65.973244 22.434372 
L 65.679551 22.372524 
L 65.385858 22.310535 
L 65.092165 22.246809 
L 64.798473 22.182371 
L 64.50478 22.116278 
L 64.211087 22.048871 
L 63.917395 21.979239 
L 63.623702 21.907972 
L 63.330009 21.834707 
L 63.036317 21.759293 
L 62.742624 21.681821 
L 62.448931 21.602089 
L 62.155238 21.518849 
L 61.861546 21.437437 
L 61.567853 21.363959 
L 61.27416 21.299226 
L 60.980468 21.23835 
L 60.686775 21.177708 
L 60.393082 21.112175 
L 60.09939 21.03883 
L 59.805697 20.95592 
L 59.512004 20.866018 
L 59.218312 20.770979 
L 58.924619 20.674618 
L 58.630926 20.576227 
L 58.337233 20.476147 
L 58.043541 20.374046 
L 57.749848 20.270181 
L 57.456155 20.163486 
L 57.162463 20.054776 
L 56.86877 19.942855 
L 56.575077 19.828647 
L 56.281385 19.711198 
L 55.987692 19.591548 
L 55.693999 19.467835 
L 55.400307 19.341591 
L 55.106614 19.210617 
L 54.812921 19.076871 
L 54.519228 18.938408 
L 54.225536 18.79611 
L 53.931843 18.648648 
L 53.63815 18.496899 
L 53.344458 18.339286 
L 53.050765 18.176914 
L 52.757072 18.008074 
L 52.46338 17.833506 
L 52.169687 17.652655 
L 51.875994 17.465963 
L 51.582301 17.271556 
L 51.288609 17.07046 
L 50.994916 16.861318 
L 50.701223 16.645483 
L 50.407531 16.421396 
L 50.113838 16.189709 
L 49.820145 15.947676 
L 49.526453 15.709855 
L 49.23276 15.509072 
L 48.939067 15.320922 
L 48.645375 15.106399 
L 48.351682 14.855983 
L 48.057989 14.589843 
L 47.764296 14.319502 
L 47.470604 14.041307 
L 47.176911 13.756717 
L 46.883218 13.465067 
L 46.589526 13.167142 
L 46.295833 12.862892 
L 46.00214 12.553161 
L 45.708448 12.238394 
L 45.414755 11.920276 
L 45.121062 11.600381 
L 44.82737 11.281819 
L 44.533677 10.968449 
L 44.239984 10.665031 
L 43.946291 10.377529 
L 43.652599 10.11265 
L 43.358906 9.877233 
L 43.065213 9.676597 
L 42.771521 9.515229 
L 42.477828 9.394316 
L 42.184135 9.323355 
L 41.890443 9.307292 
L 41.59675 9.33969 
L 41.303057 9.413088 
L 41.009365 9.523176 
L 40.715672 9.671134 
L 40.421979 9.86113 
L 40.128286 10.091055 
L 39.834594 10.35687 
L 39.540901 10.655375 
L 39.247208 10.982384 
L 38.953516 11.335232 
L 38.659823 11.710187 
L 38.36613 12.103401 
L 38.072438 12.509037 
L 37.778745 12.922998 
L 37.485052 13.340358 
L 37.191359 13.758313 
L 36.897667 14.172196 
L 36.603974 14.579541 
L 36.310281 14.976891 
L 36.016589 15.364062 
L 35.722896 15.738727 
L 35.429203 16.101686 
L 35.135511 16.450899 
L 34.841818 16.788383 
L 34.548125 17.112129 
L 34.254433 17.443057 
L 33.96074 17.823617 
L 33.667047 18.243363 
L 33.373354 18.644612 
L 33.079662 18.997386 
L 32.785969 19.317302 
L 32.492276 19.62759 
L 32.198584 19.929757 
L 31.904891 20.22322 
L 31.611198 20.507104 
L 31.317506 20.780857 
L 31.023813 21.043748 
L 30.73012 21.295216 
L 30.436428 21.534637 
L 30.142735 21.761767 
L 29.849042 21.976227 
L 29.555349 22.177739 
L 29.261657 22.366131 
L 28.967964 22.541498 
L 28.674271 22.703866 
L 28.380579 22.853565 
L 28.086886 22.990725 
L 27.793193 23.115933 
L 27.499501 23.229616 
L 27.205808 23.332183 
L 26.912115 23.423888 
L 26.618422 23.505291 
L 26.32473 23.576205 
L 26.031037 23.637428 
L 25.737344 23.689499 
L 25.443652 23.732161 
L 25.149959 23.766517 
L 24.856266 23.792917 
L 24.562574 23.810665 
L 24.268881 23.822686 
L 23.975188 23.833755 
L 23.681496 23.844673 
L 23.387803 23.856596 
L 23.09411 23.87154 
L 22.800417 23.890125 
L 22.506725 23.909956 
L 22.213032 23.927663 
L 21.919339 23.944894 
L 21.625647 23.967759 
L 21.331954 23.996462 
L 21.038261 24.027488 
L 20.744569 24.05625 
L 20.450876 24.078223 
L 20.157183 24.088584 
L 19.863491 24.086849 
L 19.569798 24.073249 
L 19.276105 24.05195 
L 18.982412 24.024551 
L 18.68872 23.994572 
L 18.395027 23.962154 
L 18.101334 23.92818 
L 17.807642 23.892019 
L 17.513949 23.853604 
L 17.220256 23.813549 
L 16.926564 23.77106 
L 16.632871 23.72822 
L 16.339178 23.682613 
L 16.045486 23.636456 
L 15.751793 23.587019 
L 15.4581 23.537676 
L 15.164407 23.485429 
L 14.870715 23.433395 
L 14.577022 23.378282 
L 14.283329 23.321776 
L 13.989637 23.268899 
L 13.695944 23.227086 
L 13.402251 23.192772 
L 13.108559 23.166033 
L 12.814866 23.157843 
L 12.521173 23.164555 
L 12.22748 23.180679 
L 11.933788 23.196912 
L 11.640095 23.205758 
L 11.346402 23.19961 
L 11.05271 23.177295 
L 10.759017 23.139913 
L 10.465324 23.094125 
L 10.171632 23.04515 
L 9.877939 22.99462 
L 9.584246 22.941572 
L 9.290554 22.887221 
L 8.996861 22.831486 
L 8.703168 22.774885 
L 8.409475 22.716117 
L 8.115783 22.655633 
L 7.82209 22.593344 
L 7.528397 22.530477 
L 7.234705 22.465862 
L 6.941012 22.399681 
L 6.647319 22.330778 
L 6.353627 22.260688 
L 6.059934 22.188503 
L 5.766241 22.115406 
L 5.472549 22.039172 
L 5.178856 21.961094 
L 4.885163 21.879803 
L 4.59147 21.797389 
L 4.297778 21.716305 
L 4.004085 21.645579 
L 3.710392 21.585005 
L 3.4167 21.533618 
L 3.123007 21.484315 
L 2.829314 21.432297 
L 2.535622 21.370033 
L 2.241929 21.295686 
L 1.948236 21.211599 
L 1.654543 21.124518 
L 1.360851 21.03726 
L 1.067158 20.948345 
L 0.773465 20.856232 
L 0.479773 20.760967 
L 0.18608 20.665013 
L -0.107613 20.568532 
L -0.401305 20.470051 
L -0.694998 20.367252 
L -0.988691 20.261462 
L -1.282383 20.15497 
L -1.576076 20.047713 
L -1.869769 19.936801 
L -2.163462 19.821601 
L -2.457154 19.703189 
L -2.750847 19.583497 
L -3.04454 19.461876 
L -3.338232 19.336395 
L -3.631925 19.20485 
L -3.925618 19.070678 
L -4.21931 18.932914 
L -4.513003 18.792771 
L -4.806696 18.647386 
L -5.100388 18.496331 
L -5.394081 18.339484 
L -5.687774 18.179067 
L -5.981467 18.013692 
L -6.275159 17.842778 
L -6.568852 17.665871 
L -6.862545 17.481768 
L -7.156237 17.292566 
L -7.44993 17.096401 
L -7.743623 16.894639 
L -8.037315 16.686034 
L -8.331008 16.47207 
L -8.624701 16.248092 
L -8.918393 16.01988 
L -9.212086 15.78194 
L -9.505779 15.538933 
L -9.799472 15.289128 
L -10.093164 15.03298 
L -10.386857 14.766107 
L -10.68055 14.492036 
L -10.974242 14.211424 
L -11.267935 13.925499 
L -11.561628 13.633402 
L -11.85532 13.328274 
L -12.149013 13.015747 
L -12.442706 12.69905 
L -12.736399 12.379014 
L -13.030091 12.052734 
L -13.323784 11.717284 
L -13.617477 11.371624 
L -13.911169 11.038187 
L -14.204862 10.71136 
L -14.498555 10.392192 
L -14.792247 10.064933 
L -15.08594 9.765979 
L -15.379633 9.495286 
L -15.673325 9.294852 
L -15.967018 9.085288 
L -16.260711 8.897722 
L -16.554404 8.719913 
L -16.848096 8.74367 
z
" clip-path="url(#pc13bf87bdf)" style="fill: #b33b24; fill-opacity: 0.2; stroke: #b33b24; stroke-opacity: 0.2"/>
   </g>
   <g id="FillBetweenPolyCollection_2">
    <path d="M -16.848096 14.569161 
L -16.848096 22.506381 
L -16.554404 23.151122 
L -16.260711 22.756804 
L -15.967018 22.433338 
L -15.673325 22.647448 
L -15.379633 22.971551 
L -15.08594 23.007088 
L -14.792247 22.9031 
L -14.498555 22.941924 
L -14.204862 23.09963 
L -13.911169 23.193162 
L -13.617477 23.196099 
L -13.323784 23.218725 
L -13.030091 23.303645 
L -12.736399 23.388715 
L -12.442706 23.426443 
L -12.149013 23.453032 
L -11.85532 23.512421 
L -11.561628 23.587373 
L -11.267935 23.635782 
L -10.974242 23.663537 
L -10.68055 23.709652 
L -10.386857 23.776022 
L -10.093164 23.827261 
L -9.799472 23.857243 
L -9.505779 23.895605 
L -9.212086 23.954136 
L -8.918393 24.004702 
L -8.624701 24.035389 
L -8.331008 24.069187 
L -8.037315 24.119806 
L -7.743623 24.168105 
L -7.44993 24.201479 
L -7.156237 24.234505 
L -6.862545 24.276199 
L -6.568852 24.315879 
L -6.275159 24.350754 
L -5.981467 24.39004 
L -5.687774 24.428866 
L -5.394081 24.456786 
L -5.100388 24.484474 
L -4.806696 24.527262 
L -4.513003 24.571135 
L -4.21931 24.596169 
L -3.925618 24.61483 
L -3.631925 24.650444 
L -3.338232 24.695431 
L -3.04454 24.726314 
L -2.750847 24.744856 
L -2.457154 24.770686 
L -2.163462 24.807698 
L -1.869769 24.842188 
L -1.576076 24.866989 
L -1.282383 24.889121 
L -0.988691 24.916707 
L -0.694998 24.948703 
L -0.401305 24.977967 
L -0.107613 25.001544 
L 0.18608 25.024487 
L 0.479773 25.051956 
L 0.773465 25.08078 
L 1.067158 25.105912 
L 1.360851 25.128993 
L 1.654543 25.154113 
L 1.948236 25.179928 
L 2.241929 25.20362 
L 2.535622 25.227483 
L 2.829314 25.253335 
L 3.123007 25.277755 
L 3.4167 25.298773 
L 3.710392 25.320914 
L 4.004085 25.347054 
L 4.297778 25.372252 
L 4.59147 25.392814 
L 4.885163 25.412907 
L 5.178856 25.436837 
L 5.472549 25.461582 
L 5.766241 25.483112 
L 6.059934 25.503108 
L 6.353627 25.524573 
L 6.647319 25.546668 
L 6.941012 25.567633 
L 7.234705 25.587647 
L 7.528397 25.607272 
L 7.82209 25.626257 
L 8.115783 25.644842 
L 8.409475 25.663252 
L 8.703168 25.680689 
L 8.996861 25.696738 
L 9.290554 25.712203 
L 9.584246 25.727317 
L 9.877939 25.741398 
L 10.171632 25.753794 
L 10.465324 25.764785 
L 10.759017 25.7746 
L 11.05271 25.7831 
L 11.346402 25.790079 
L 11.640095 25.795033 
L 11.933788 25.797799 
L 12.22748 25.798665 
L 12.521173 25.797853 
L 12.814866 25.795196 
L 13.108559 25.78995 
L 13.402251 25.781677 
L 13.695944 25.770603 
L 13.989637 25.757177 
L 14.283329 25.741395 
L 14.577022 25.722029 
L 14.870715 25.698474 
L 15.164407 25.671602 
L 15.4581 25.642 
L 15.751793 25.608912 
L 16.045486 25.570519 
L 16.339178 25.526252 
L 16.632871 25.477571 
L 16.926564 25.425248 
L 17.220256 25.368908 
L 17.513949 25.3066 
L 17.807642 25.23715 
L 18.101334 25.162832 
L 18.395027 25.084807 
L 18.68872 25.003548 
L 18.982412 24.916507 
L 19.276105 24.816204 
L 19.569798 24.709853 
L 19.863491 24.613225 
L 20.157183 24.514997 
L 20.450876 24.393471 
L 20.744569 24.250145 
L 21.038261 24.094997 
L 21.331954 23.93057 
L 21.625647 23.755545 
L 21.919339 23.566359 
L 22.213032 23.36295 
L 22.506725 23.149182 
L 22.800417 22.924689 
L 23.09411 22.687919 
L 23.387803 22.44001 
L 23.681496 22.182902 
L 23.975188 21.918914 
L 24.268881 21.64708 
L 24.562574 21.362993 
L 24.856266 21.064331 
L 25.149959 20.753481 
L 25.443652 20.434628 
L 25.737344 20.109658 
L 26.031037 19.778562 
L 26.32473 19.443466 
L 26.618422 19.111606 
L 26.912115 18.794525 
L 27.205808 18.505935 
L 27.499501 18.251728 
L 27.793193 18.021448 
L 28.086886 17.803819 
L 28.380579 17.599702 
L 28.674271 17.410786 
L 28.967964 17.234443 
L 29.261657 17.071752 
L 29.555349 16.928179 
L 29.849042 16.807119 
L 30.142735 16.707626 
L 30.436428 16.628094 
L 30.73012 16.568719 
L 31.023813 16.529739 
L 31.317506 16.510095 
L 31.611198 16.5077 
L 31.904891 16.520472 
L 32.198584 16.547466 
L 32.492276 16.587941 
L 32.785969 16.640133 
L 33.079662 16.702716 
L 33.373354 16.775528 
L 33.667047 16.858389 
L 33.96074 16.950573 
L 34.254433 17.050932 
L 34.548125 17.157719 
L 34.841818 17.269659 
L 35.135511 17.387371 
L 35.429203 17.511532 
L 35.722896 17.640456 
L 36.016589 17.77181 
L 36.310281 17.905257 
L 36.603974 18.04134 
L 36.897667 18.179155 
L 37.191359 18.317334 
L 37.485052 18.455666 
L 37.778745 18.594314 
L 38.072438 18.732755 
L 38.36613 18.870394 
L 38.659823 19.007111 
L 38.953516 19.142871 
L 39.247208 19.27746 
L 39.540901 19.410532 
L 39.834594 19.54187 
L 40.128286 19.671635 
L 40.421979 19.800081 
L 40.715672 19.926729 
L 41.009365 20.050947 
L 41.303057 20.173285 
L 41.59675 20.294417 
L 41.890443 20.413843 
L 42.184135 20.530627 
L 42.477828 20.645453 
L 42.771521 20.758979 
L 43.065213 20.870833 
L 43.358906 20.980445 
L 43.652599 21.088155 
L 43.946291 21.194249 
L 44.239984 21.298566 
L 44.533677 21.401112 
L 44.82737 21.50192 
L 45.121062 21.600963 
L 45.414755 21.698303 
L 45.708448 21.793987 
L 46.00214 21.887872 
L 46.295833 21.980225 
L 46.589526 22.071307 
L 46.883218 22.160543 
L 47.176911 22.247589 
L 47.470604 22.333482 
L 47.764296 22.418794 
L 48.057989 22.50217 
L 48.351682 22.582935 
L 48.645375 22.662563 
L 48.939067 22.741976 
L 49.23276 22.819977 
L 49.526453 22.895515 
L 49.820145 22.969455 
L 50.113838 23.042735 
L 50.407531 23.115246 
L 50.701223 23.186307 
L 50.994916 23.255512 
L 51.288609 23.323213 
L 51.582301 23.390187 
L 51.875994 23.45652 
L 52.169687 23.521457 
L 52.46338 23.584644 
L 52.757072 23.646671 
L 53.050765 23.707941 
L 53.344458 23.768318 
L 53.63815 23.827548 
L 53.931843 23.885382 
L 54.225536 23.941948 
L 54.519228 23.997857 
L 54.812921 24.053173 
L 55.106614 24.107201 
L 55.400307 24.159681 
L 55.693999 24.211545 
L 55.987692 24.262914 
L 56.281385 24.313124 
L 56.575077 24.362055 
L 56.86877 24.410241 
L 57.162463 24.457684 
L 57.456155 24.504142 
L 57.749848 24.549737 
L 58.043541 24.59457 
L 58.337233 24.638498 
L 58.630926 24.681628 
L 58.924619 24.724008 
L 59.218312 24.765431 
L 59.512004 24.806322 
L 59.805697 24.846886 
L 60.09939 24.886325 
L 60.393082 24.924227 
L 60.686775 24.961917 
L 60.980468 25.000148 
L 61.27416 25.037279 
L 61.567853 25.072344 
L 61.861546 25.106873 
L 62.155238 25.14213 
L 62.448931 25.177043 
L 62.742624 25.210312 
L 63.036317 25.242506 
L 63.330009 25.274653 
L 63.623702 25.306786 
L 63.917395 25.338399 
L 64.211087 25.369029 
L 64.50478 25.398616 
L 64.798473 25.427679 
L 65.092165 25.456663 
L 65.385858 25.485202 
L 65.679551 25.512529 
L 65.973244 25.538496 
L 66.266936 25.563844 
L 66.560629 25.588856 
L 66.854322 25.613174 
L 67.148014 25.63607 
L 67.441707 25.657542 
L 67.7354 25.678226 
L 68.029092 25.698258 
L 68.322785 25.717234 
L 68.616478 25.73473 
L 68.91017 25.750562 
L 69.203863 25.764712 
L 69.497556 25.777519 
L 69.791249 25.789317 
L 70.084941 25.799421 
L 70.378634 25.80658 
L 70.672327 25.811171 
L 70.966019 25.814513 
L 71.259712 25.816542 
L 71.553405 25.815929 
L 71.847097 25.811971 
L 72.14079 25.805153 
L 72.434483 25.795953 
L 72.728175 25.784584 
L 73.021868 25.770697 
L 73.315561 25.752631 
L 73.609254 25.729904 
L 73.902946 25.704493 
L 74.196639 25.677383 
L 74.490332 25.646307 
L 74.784024 25.608416 
L 75.077717 25.564814 
L 75.37141 25.517947 
L 75.665102 25.467313 
L 75.958795 25.411398 
L 76.252488 25.349236 
L 76.54618 25.280802 
L 76.839873 25.20783 
L 77.133566 25.131091 
L 77.427259 25.051465 
L 77.720951 24.96616 
L 78.014644 24.868211 
L 78.308337 24.765282 
L 78.602029 24.671443 
L 78.895722 24.576086 
L 79.189415 24.462064 
L 79.483107 24.331916 
L 79.7768 24.192282 
L 80.070493 24.043944 
L 80.364186 23.887022 
L 80.657878 23.719744 
L 80.951571 23.540036 
L 81.245264 23.348533 
L 81.538956 23.1469 
L 81.832649 22.933388 
L 82.126342 22.703444 
L 82.420034 22.460781 
L 82.713727 22.214755 
L 83.00742 21.966004 
L 83.301112 21.70242 
L 83.594805 21.424007 
L 83.888498 21.149959 
L 84.182191 20.877207 
L 84.475883 20.588201 
L 84.769576 20.278702 
L 85.063269 19.95269 
L 85.356961 19.625335 
L 85.650654 19.319716 
L 85.944347 19.057159 
L 86.238039 18.839581 
L 86.531732 18.636659 
L 86.825425 18.422684 
L 87.119117 18.216942 
L 87.41281 18.042183 
L 87.706503 17.873525 
L 88.000196 17.688412 
L 88.293888 17.511298 
L 88.587581 17.366776 
L 88.881274 17.247113 
L 89.174966 17.139938 
L 89.468659 17.051826 
L 89.762352 16.991536 
L 90.056044 16.953067 
L 90.349737 16.930124 
L 90.64343 16.925008 
L 90.937123 16.937475 
L 91.230815 16.96173 
L 91.524508 16.998671 
L 91.818201 17.053436 
L 92.111893 17.121078 
L 92.405586 17.192259 
L 92.699279 17.270678 
L 92.992971 17.365685 
L 93.286664 17.470497 
L 93.580357 17.572702 
L 93.874049 17.67599 
L 94.167742 17.79626 
L 94.461435 17.928182 
L 94.755128 18.05266 
L 95.04882 18.170292 
L 95.342513 18.302339 
L 95.636206 18.451156 
L 95.929898 18.58946 
L 96.223591 18.706519 
L 96.517284 18.83518 
L 96.810976 18.994336 
L 97.104669 19.148697 
L 97.398362 19.251585 
L 97.692054 19.347526 
L 97.985747 19.517389 
L 98.27944 19.731205 
L 98.573133 19.829076 
L 98.866825 19.802587 
L 99.160518 19.921878 
L 99.454211 20.347464 
L 99.747903 20.696195 
L 100.041596 20.230234 
L 100.335289 20.736684 
L 100.335289 16.312627 
L 100.335289 16.312627 
L 100.041596 16.813602 
L 99.747903 16.152479 
L 99.454211 16.115332 
L 99.160518 16.12223 
L 98.866825 15.889704 
L 98.573133 15.540784 
L 98.27944 15.279672 
L 97.985747 15.097763 
L 97.692054 14.873538 
L 97.398362 14.589996 
L 97.104669 14.30916 
L 96.810976 14.060755 
L 96.517284 13.806269 
L 96.223591 13.524989 
L 95.929898 13.235934 
L 95.636206 12.962075 
L 95.342513 12.691593 
L 95.04882 12.406618 
L 94.755128 12.114494 
L 94.461435 11.832858 
L 94.167742 11.561542 
L 93.874049 11.287938 
L 93.580357 11.011357 
L 93.286664 10.74662 
L 92.992971 10.498801 
L 92.699279 10.262602 
L 92.405586 10.036381 
L 92.111893 9.828286 
L 91.818201 9.641771 
L 91.524508 9.473292 
L 91.230815 9.323639 
L 90.937123 9.198434 
L 90.64343 9.098683 
L 90.349737 9.02176 
L 90.056044 8.969177 
L 89.762352 8.943092 
L 89.468659 8.94025 
L 89.174966 8.958268 
L 88.881274 9.002924 
L 88.587581 9.075569 
L 88.293888 9.1662 
L 88.000196 9.272665 
L 87.706503 9.417613 
L 87.41281 9.619265 
L 87.119117 9.85537 
L 86.825425 10.106059 
L 86.531732 10.393831 
L 86.238039 10.730681 
L 85.944347 11.082173 
L 85.650654 11.410197 
L 85.356961 11.709021 
L 85.063269 11.993483 
L 84.769576 12.283569 
L 84.475883 12.59551 
L 84.182191 12.936208 
L 83.888498 13.300465 
L 83.594805 13.662682 
L 83.301112 14.009764 
L 83.00742 14.356703 
L 82.713727 14.704541 
L 82.420034 15.041352 
L 82.126342 15.365709 
L 81.832649 15.686076 
L 81.538956 16.006884 
L 81.245264 16.323389 
L 80.951571 16.632702 
L 80.657878 16.936337 
L 80.364186 17.235439 
L 80.070493 17.527234 
L 79.7768 17.808722 
L 79.483107 18.081576 
L 79.189415 18.351431 
L 78.895722 18.628957 
L 78.602029 18.91581 
L 78.308337 19.189981 
L 78.014644 19.435847 
L 77.720951 19.665238 
L 77.427259 19.887303 
L 77.133566 20.099064 
L 76.839873 20.300866 
L 76.54618 20.493707 
L 76.252488 20.676884 
L 75.958795 20.851384 
L 75.665102 21.01751 
L 75.37141 21.175733 
L 75.077717 21.326596 
L 74.784024 21.470095 
L 74.490332 21.606872 
L 74.196639 21.737487 
L 73.902946 21.861842 
L 73.609254 21.980077 
L 73.315561 22.092209 
L 73.021868 22.198679 
L 72.728175 22.299797 
L 72.434483 22.395512 
L 72.14079 22.485986 
L 71.847097 22.571401 
L 71.553405 22.65201 
L 71.259712 22.728028 
L 70.966019 22.799463 
L 70.672327 22.866522 
L 70.378634 22.929408 
L 70.084941 22.988287 
L 69.791249 23.043252 
L 69.497556 23.094296 
L 69.203863 23.141663 
L 68.91017 23.185538 
L 68.616478 23.225953 
L 68.322785 23.262955 
L 68.029092 23.2967 
L 67.7354 23.327425 
L 67.441707 23.355193 
L 67.148014 23.379913 
L 66.854322 23.401749 
L 66.560629 23.420945 
L 66.266936 23.437524 
L 65.973244 23.451493 
L 65.679551 23.462753 
L 65.385858 23.471634 
L 65.092165 23.478262 
L 64.798473 23.482616 
L 64.50478 23.484624 
L 64.211087 23.484353 
L 63.917395 23.48196 
L 63.623702 23.477559 
L 63.330009 23.471169 
L 63.036317 23.462737 
L 62.742624 23.452116 
L 62.448931 23.439534 
L 62.155238 23.425322 
L 61.861546 23.40931 
L 61.567853 23.391178 
L 61.27416 23.371157 
L 60.980468 23.349716 
L 60.686775 23.326716 
L 60.393082 23.301645 
L 60.09939 23.27478 
L 59.805697 23.246571 
L 59.512004 23.21683 
L 59.218312 23.185215 
L 58.924619 23.151829 
L 58.630926 23.116998 
L 58.337233 23.08061 
L 58.043541 23.042555 
L 57.749848 23.002847 
L 57.456155 22.961477 
L 57.162463 22.918487 
L 56.86877 22.873845 
L 56.575077 22.827513 
L 56.281385 22.779488 
L 55.987692 22.729844 
L 55.693999 22.6784 
L 55.400307 22.624998 
L 55.106614 22.569746 
L 54.812921 22.513021 
L 54.519228 22.454455 
L 54.225536 22.393697 
L 53.931843 22.330826 
L 53.63815 22.266189 
L 53.344458 22.199758 
L 53.050765 22.131256 
L 52.757072 22.060486 
L 52.46338 21.987399 
L 52.169687 21.912164 
L 51.875994 21.835036 
L 51.582301 21.755732 
L 51.288609 21.673818 
L 50.994916 21.58924 
L 50.701223 21.502363 
L 50.407531 21.413377 
L 50.113838 21.321993 
L 49.820145 21.22767 
L 49.526453 21.130281 
L 49.23276 21.030353 
L 48.939067 20.928354 
L 48.645375 20.823491 
L 48.351682 20.714988 
L 48.057989 20.603327 
L 47.764296 20.489323 
L 47.470604 20.372506 
L 47.176911 20.251968 
L 46.883218 20.127918 
L 46.589526 20.000871 
L 46.295833 19.870542 
L 46.00214 19.736543 
L 45.708448 19.59898 
L 45.414755 19.457902 
L 45.121062 19.312942 
L 44.82737 19.163978 
L 44.533677 19.011167 
L 44.239984 18.854577 
L 43.946291 18.693856 
L 43.652599 18.528634 
L 43.358906 18.358838 
L 43.065213 18.184857 
L 42.771521 18.006766 
L 42.477828 17.823832 
L 42.184135 17.635661 
L 41.890443 17.44269 
L 41.59675 17.245464 
L 41.303057 17.043311 
L 41.009365 16.835719 
L 40.715672 16.62288 
L 40.421979 16.405226 
L 40.128286 16.182552 
L 39.834594 15.954475 
L 39.540901 15.720981 
L 39.247208 15.482271 
L 38.953516 15.238431 
L 38.659823 14.989364 
L 38.36613 14.735302 
L 38.072438 14.476791 
L 37.778745 14.214177 
L 37.485052 13.94753 
L 37.191359 13.677425 
L 36.897667 13.405167 
L 36.603974 13.131789 
L 36.310281 12.857541 
L 36.016589 12.583188 
L 35.722896 12.310877 
L 35.429203 12.042525 
L 35.135511 11.778601 
L 34.841818 11.519798 
L 34.548125 11.268776 
L 34.254433 11.028915 
L 33.96074 10.802738 
L 33.667047 10.592165 
L 33.373354 10.398408 
L 33.079662 10.222199 
L 32.785969 10.065602 
L 32.492276 9.932203 
L 32.198584 9.824318 
L 31.904891 9.742044 
L 31.611198 9.685363 
L 31.317506 9.654652 
L 31.023813 9.649961 
L 30.73012 9.671073 
L 30.436428 9.717636 
L 30.142735 9.789421 
L 29.849042 9.885532 
L 29.555349 10.003424 
L 29.261657 10.141575 
L 28.967964 10.302783 
L 28.674271 10.491881 
L 28.380579 10.70994 
L 28.086886 10.954818 
L 27.793193 11.227727 
L 27.499501 11.526543 
L 27.205808 11.833886 
L 26.912115 12.130385 
L 26.618422 12.412327 
L 26.32473 12.686583 
L 26.031037 12.962192 
L 25.737344 13.245953 
L 25.443652 13.538636 
L 25.149959 13.837314 
L 24.856266 14.140531 
L 24.562574 14.449586 
L 24.268881 14.764385 
L 23.975188 15.079836 
L 23.681496 15.388887 
L 23.387803 15.689805 
L 23.09411 15.98592 
L 22.800417 16.278805 
L 22.506725 16.566681 
L 22.213032 16.845895 
L 21.919339 17.117147 
L 21.625647 17.385813 
L 21.331954 17.651093 
L 21.038261 17.908353 
L 20.744569 18.158209 
L 20.450876 18.40792 
L 20.157183 18.671556 
L 19.863491 18.950573 
L 19.569798 19.218472 
L 19.276105 19.457535 
L 18.982412 19.680399 
L 18.68872 19.896389 
L 18.395027 20.102838 
L 18.101334 20.300477 
L 17.807642 20.489597 
L 17.513949 20.669298 
L 17.220256 20.840847 
L 16.926564 21.004239 
L 16.632871 21.159507 
L 16.339178 21.307197 
L 16.045486 21.447634 
L 15.751793 21.581642 
L 15.4581 21.709225 
L 15.164407 21.83017 
L 14.870715 21.94478 
L 14.577022 22.053395 
L 14.283329 22.156698 
L 13.989637 22.254792 
L 13.695944 22.347021 
L 13.402251 22.433399 
L 13.108559 22.514833 
L 12.814866 22.592238 
L 12.521173 22.665046 
L 12.22748 22.732325 
L 11.933788 22.794831 
L 11.640095 22.853555 
L 11.346402 22.908371 
L 11.05271 22.958943 
L 10.759017 23.005529 
L 10.465324 23.048113 
L 10.171632 23.086268 
L 9.877939 23.120967 
L 9.584246 23.153339 
L 9.290554 23.182059 
L 8.996861 23.205874 
L 8.703168 23.226226 
L 8.409475 23.245009 
L 8.115783 23.261014 
L 7.82209 23.272647 
L 7.528397 23.280814 
L 7.234705 23.286618 
L 6.941012 23.289743 
L 6.647319 23.290447 
L 6.353627 23.288786 
L 6.059934 23.283088 
L 5.766241 23.27313 
L 5.472549 23.262495 
L 5.178856 23.252342 
L 4.885163 23.237763 
L 4.59147 23.216217 
L 4.297778 23.193312 
L 4.004085 23.173139 
L 3.710392 23.150673 
L 3.4167 23.120682 
L 3.123007 23.0874 
L 2.829314 23.055972 
L 2.535622 23.023233 
L 2.241929 22.985044 
L 1.948236 22.944402 
L 1.654543 22.904299 
L 1.360851 22.860575 
L 1.067158 22.811299 
L 0.773465 22.762233 
L 0.479773 22.715636 
L 0.18608 22.66446 
L -0.107613 22.604572 
L -0.401305 22.543172 
L -0.694998 22.486755 
L -0.988691 22.430849 
L -1.282383 22.366246 
L -1.576076 22.292154 
L -1.869769 22.218935 
L -2.163462 22.155077 
L -2.457154 22.091425 
L -2.750847 22.010727 
L -3.04454 21.917782 
L -3.338232 21.837316 
L -3.631925 21.771684 
L -3.925618 21.691402 
L -4.21931 21.586503 
L -4.513003 21.486004 
L -4.806696 21.405866 
L -5.100388 21.321561 
L -5.394081 21.215148 
L -5.687774 21.104819 
L -5.981467 21.004205 
L -6.275159 20.901318 
L -6.568852 20.789814 
L -6.862545 20.679632 
L -7.156237 20.567536 
L -7.44993 20.441751 
L -7.743623 20.312994 
L -8.037315 20.19749 
L -8.331008 20.080277 
L -8.624701 19.939655 
L -8.918393 19.791376 
L -9.212086 19.661182 
L -9.505779 19.535206 
L -9.799472 19.382406 
L -10.093164 19.21641 
L -10.386857 19.069651 
L -10.68055 18.93332 
L -10.974242 18.768446 
L -11.267935 18.58019 
L -11.561628 18.412352 
L -11.85532 18.26717 
L -12.149013 18.095289 
L -12.442706 17.88192 
L -12.736399 17.680527 
L -13.030091 17.527569 
L -13.323784 17.363608 
L -13.617477 17.120496 
L -13.911169 16.853364 
L -14.204862 16.687384 
L -14.498555 16.585559 
L -14.792247 16.336091 
L -15.08594 15.916723 
L -15.379633 15.656688 
L -15.673325 15.724373 
L -15.967018 15.653008 
L -16.260711 14.948387 
L -16.554404 14.157409 
L -16.848096 14.569161 
z
" clip-path="url(#pc13bf87bdf)" style="fill: #492c6d; fill-opacity: 0.2; stroke: #492c6d; stroke-opacity: 0.2"/>
   </g>
   <g id="matplotlib.axis_1">
    <g id="xtick_1">
     <g id="line2d_1">
      <defs>
       <path id="m4853e4797b" d="M 0 0 
L 0 1.7 
" style="stroke: #000000; stroke-width: 0.25"/>
      </defs>
      <g>
       <use xlink:href="#m4853e4797b" x="12.44775" y="33.661" style="stroke: #000000; stroke-width: 0.25"/>
      </g>
     </g>
     <g id="text_1">
      <!-- $-\pi$ -->
      <g transform="translate(8.12775 41.155688)">
       <text>
        <tspan x="0" y="-0.71875" style="font-size: 6px; font-family: 'DejaVu Sans'">−</tspan>
        <tspan x="5.027344" y="-0.71875" style="font-style: oblique; font-size: 6px; font-family: 'DejaVu Sans'">π</tspan>
       </text>
      </g>
     </g>
    </g>
    <g id="xtick_2">
     <g id="line2d_2">
      <g>
       <use xlink:href="#m4853e4797b" x="27.095906" y="33.661" style="stroke: #000000; stroke-width: 0.25"/>
      </g>
     </g>
    </g>
    <g id="xtick_3">
     <g id="line2d_3">
      <g>
       <use xlink:href="#m4853e4797b" x="41.744063" y="33.661" style="stroke: #000000; stroke-width: 0.25"/>
      </g>
     </g>
     <g id="text_2">
      <text style="font-size: 6px; font-family: 'Arial'; text-anchor: middle" x="41.744063" y="41.155688" transform="rotate(-0 41.744063 41.155688)">0</text>
     </g>
    </g>
    <g id="xtick_4">
     <g id="line2d_4">
      <g>
       <use xlink:href="#m4853e4797b" x="56.392219" y="33.661" style="stroke: #000000; stroke-width: 0.25"/>
      </g>
     </g>
    </g>
    <g id="xtick_5">
     <g id="line2d_5">
      <g>
       <use xlink:href="#m4853e4797b" x="71.040375" y="33.661" style="stroke: #000000; stroke-width: 0.25"/>
      </g>
     </g>
     <g id="text_3">
      <!-- $\pi$ -->
      <g transform="translate(69.210375 41.155688)">
       <text>
        <tspan x="0" y="-0.71875" style="font-style: oblique; font-size: 6px; font-family: 'DejaVu Sans'">π</tspan>
       </text>
      </g>
     </g>
    </g>
    <g id="text_4">
     <text style="font-size: 8px; font-family: 'Arial'; text-anchor: middle" x="41.744063" y="49.574438" transform="rotate(-0 41.744063 49.574438)">phase</text>
    </g>
   </g>
   <g id="matplotlib.axis_2">
    <g id="ytick_1">
     <g id="line2d_6">
      <defs>
       <path id="m0bbf67312f" d="M 0 0 
L -1.7 0 
" style="stroke: #000000; stroke-width: 0.25"/>
      </defs>
      <g>
       <use xlink:href="#m0bbf67312f" x="10.44775" y="26.074" style="stroke: #000000; stroke-width: 0.25"/>
      </g>
     </g>
     <g id="text_5">
      <text style="font-size: 6px; font-family: 'Arial'; text-anchor: end" x="7.24775" y="28.221344" transform="rotate(-0 7.24775 28.221344)">0</text>
     </g>
    </g>
    <g id="ytick_2">
     <g id="line2d_7">
      <g>
       <use xlink:href="#m0bbf67312f" x="10.44775" y="9.313" style="stroke: #000000; stroke-width: 0.25"/>
      </g>
     </g>
     <g id="text_6">
      <text style="font-size: 6px; font-family: 'Arial'; text-anchor: end" x="7.24775" y="11.460344" transform="rotate(-0 7.24775 11.460344)">3</text>
     </g>
    </g>
   </g>
   <g id="LineCollection_1">
    <path d="M 41.743596 37.248 
L 41.743596 3.726 
" clip-path="url(#pc13bf87bdf)" style="fill: none; stroke-dasharray: 0.75,1.2375; stroke-dashoffset: 0; stroke: #b33b24; stroke-width: 0.75"/>
   </g>
   <g id="line2d_8">
    <path d="M -1 20.834005 
L 1.948236 21.827388 
L 5.472549 22.764606 
L 9.290554 23.544892 
L 13.402251 24.160277 
L 18.395027 24.6916 
L 22.213032 24.89929 
L 24.856266 24.864746 
L 26.618422 24.655619 
L 28.086886 24.278458 
L 29.261657 23.785728 
L 30.436428 23.074222 
L 31.611198 22.112017 
L 33.079662 20.562449 
L 35.135511 17.949249 
L 37.778745 14.629778 
L 38.953516 13.455527 
L 40.128286 12.606566 
L 41.009365 12.229389 
L 41.890443 12.098371 
L 42.771521 12.226069 
L 43.652599 12.593464 
L 44.82737 13.353697 
L 50.113838 17.105568 
L 52.757072 18.624024 
L 55.400307 19.896153 
L 58.337233 21.061546 
L 61.27416 22.000685 
L 64.798473 22.900003 
L 68.616478 23.645884 
L 73.021868 24.278411 
L 76.6 24.651417 
L 76.6 24.651417 
" clip-path="url(#pc13bf87bdf)" style="fill: none; stroke: #b33b24; stroke-width: 0.75; stroke-linecap: square"/>
   </g>
   <g id="line2d_9">
    <path d="M -1 23.672003 
L 2.535622 24.125358 
L 6.353627 24.40668 
L 9.584246 24.440328 
L 12.22748 24.265495 
L 14.577022 23.887712 
L 16.632871 23.318539 
L 18.395027 22.593823 
L 19.863491 21.781899 
L 21.919339 20.341753 
L 23.681496 18.785894 
L 26.32473 16.065025 
L 28.086886 14.379318 
L 29.261657 13.606664 
L 30.142735 13.248524 
L 31.023813 13.08985 
L 31.904891 13.131258 
L 33.079662 13.462458 
L 34.254433 14.039924 
L 36.310281 15.381399 
L 40.128286 17.927094 
L 42.771521 19.382872 
L 45.414755 20.578102 
L 48.351682 21.648962 
L 51.582301 22.572959 
L 55.106614 23.338473 
L 58.924619 23.937919 
L 63.036317 24.352622 
L 66.854322 24.507462 
L 69.791249 24.416284 
L 72.14079 24.145569 
L 74.196639 23.707435 
L 75.958795 23.131391 
L 76.6 22.862899 
L 76.6 22.862899 
" clip-path="url(#pc13bf87bdf)" style="fill: none; stroke: #492c6d; stroke-width: 0.75; stroke-linecap: square"/>
   </g>
   <g id="patch_3">
    <path d="M 10.44775 31.661 
L 10.44775 3.726 
" style="fill: none; stroke: #000000; stroke-width: 0.25; stroke-linejoin: miter; stroke-linecap: square"/>
   </g>
   <g id="patch_4">
    <path d="M 12.44775 33.661 
L 71.040375 33.661 
" style="fill: none; stroke: #000000; stroke-width: 0.25; stroke-linejoin: miter; stroke-linecap: square"/>
   </g>
  </g>
  <g id="axes_2">
   <g id="patch_5">
    <path d="M 12.44775 67.9765 
L 71.040375 67.9765 
L 71.040375 40.0415 
L 12.44775 40.0415 
L 12.44775 67.9765 
z
" style="fill: none"/>
   </g>
   <g id="FillBetweenPolyCollection_3">
    <path d="M -16.848096 45.05917 
L -16.848096 51.547145 
L -16.554404 51.607222 
L -16.260711 51.519108 
L -15.967018 51.476516 
L -15.673325 51.471811 
L -15.379633 51.528978 
L -15.08594 51.562707 
L -14.792247 51.606128 
L -14.498555 51.658097 
L -14.204862 51.747477 
L -13.911169 51.84785 
L -13.617477 51.95192 
L -13.323784 52.052077 
L -13.030091 52.16844 
L -12.736399 52.295857 
L -12.442706 52.426585 
L -12.149013 52.55483 
L -11.85532 52.684014 
L -11.561628 52.818352 
L -11.267935 52.960414 
L -10.974242 53.10106 
L -10.68055 53.238849 
L -10.386857 53.377155 
L -10.093164 53.517731 
L -9.799472 53.662932 
L -9.505779 53.8064 
L -9.212086 53.948333 
L -8.918393 54.088677 
L -8.624701 54.23306 
L -8.331008 54.375659 
L -8.037315 54.520211 
L -7.743623 54.662324 
L -7.44993 54.805348 
L -7.156237 54.948154 
L -6.862545 55.091682 
L -6.568852 55.232803 
L -6.275159 55.374762 
L -5.981467 55.516777 
L -5.687774 55.658962 
L -5.394081 55.79954 
L -5.100388 55.937499 
L -4.806696 56.075227 
L -4.513003 56.213239 
L -4.21931 56.351062 
L -3.925618 56.485517 
L -3.631925 56.617958 
L -3.338232 56.747577 
L -3.04454 56.878192 
L -2.750847 57.007256 
L -2.457154 57.133512 
L -2.163462 57.255908 
L -1.869769 57.376593 
L -1.576076 57.496508 
L -1.282383 57.615508 
L -0.988691 57.730579 
L -0.694998 57.842072 
L -0.401305 57.951805 
L -0.107613 58.061529 
L 0.18608 58.168766 
L 0.479773 58.272417 
L 0.773465 58.372545 
L 1.067158 58.472008 
L 1.360851 58.570493 
L 1.654543 58.666683 
L 1.948236 58.758678 
L 2.241929 58.849329 
L 2.535622 58.945957 
L 2.829314 59.050649 
L 3.123007 59.161602 
L 3.4167 59.272182 
L 3.710392 59.377992 
L 4.004085 59.471815 
L 4.297778 59.552368 
L 4.59147 59.619472 
L 4.885163 59.682642 
L 5.178856 59.744103 
L 5.472549 59.805539 
L 5.766241 59.865324 
L 6.059934 59.925594 
L 6.353627 59.984108 
L 6.647319 60.042004 
L 6.941012 60.098237 
L 7.234705 60.154203 
L 7.528397 60.209367 
L 7.82209 60.263471 
L 8.115783 60.315891 
L 8.409475 60.367451 
L 8.703168 60.418534 
L 8.996861 60.46894 
L 9.290554 60.518064 
L 9.584246 60.566138 
L 9.877939 60.613386 
L 10.171632 60.660978 
L 10.465324 60.707783 
L 10.759017 60.7549 
L 11.05271 60.808002 
L 11.346402 60.873646 
L 11.640095 60.953205 
L 11.933788 61.045466 
L 12.22748 61.143162 
L 12.521173 61.239107 
L 12.814866 61.32461 
L 13.108559 61.39381 
L 13.402251 61.443283 
L 13.695944 61.483691 
L 13.989637 61.515455 
L 14.283329 61.535013 
L 14.577022 61.5493 
L 14.870715 61.562992 
L 15.164407 61.578244 
L 15.4581 61.592009 
L 15.751793 61.607123 
L 16.045486 61.620342 
L 16.339178 61.635064 
L 16.632871 61.648705 
L 16.926564 61.663819 
L 17.220256 61.677565 
L 17.513949 61.692113 
L 17.807642 61.706418 
L 18.101334 61.721329 
L 18.395027 61.736545 
L 18.68872 61.751785 
L 18.982412 61.767113 
L 19.276105 61.782676 
L 19.569798 61.801371 
L 19.863491 61.824991 
L 20.157183 61.857594 
L 20.450876 61.89998 
L 20.744569 61.951226 
L 21.038261 62.006833 
L 21.331954 62.06188 
L 21.625647 62.111914 
L 21.919339 62.153402 
L 22.213032 62.186416 
L 22.506725 62.216312 
L 22.800417 62.244567 
L 23.09411 62.267372 
L 23.387803 62.281972 
L 23.681496 62.288155 
L 23.975188 62.287555 
L 24.268881 62.280595 
L 24.562574 62.267624 
L 24.856266 62.252075 
L 25.149959 62.236304 
L 25.443652 62.218725 
L 25.737344 62.198973 
L 26.031037 62.176916 
L 26.32473 62.151358 
L 26.618422 62.121446 
L 26.912115 62.08704 
L 27.205808 62.046512 
L 27.499501 61.999429 
L 27.793193 61.944706 
L 28.086886 61.881692 
L 28.380579 61.808755 
L 28.674271 61.725195 
L 28.967964 61.629382 
L 29.261657 61.520826 
L 29.555349 61.397902 
L 29.849042 61.259329 
L 30.142735 61.103365 
L 30.436428 60.929307 
L 30.73012 60.735914 
L 31.023813 60.522632 
L 31.317506 60.288218 
L 31.611198 60.03243 
L 31.904891 59.755165 
L 32.198584 59.457111 
L 32.492276 59.13822 
L 32.785969 58.799652 
L 33.079662 58.443013 
L 33.373354 58.093374 
L 33.667047 57.770748 
L 33.96074 57.449827 
L 34.254433 57.077364 
L 34.548125 56.646302 
L 34.841818 56.200246 
L 35.135511 55.763099 
L 35.429203 55.336098 
L 35.722896 54.924724 
L 36.016589 54.529865 
L 36.310281 54.156104 
L 36.603974 53.804303 
L 36.897667 53.478029 
L 37.191359 53.176941 
L 37.485052 52.902112 
L 37.778745 52.652058 
L 38.072438 52.42767 
L 38.36613 52.227 
L 38.659823 52.049351 
L 38.953516 51.891322 
L 39.247208 51.75185 
L 39.540901 51.629774 
L 39.834594 51.525694 
L 40.128286 51.437577 
L 40.421979 51.364218 
L 40.715672 51.302412 
L 41.009365 51.251103 
L 41.303057 51.21664 
L 41.59675 51.202408 
L 41.890443 51.20495 
L 42.184135 51.21708 
L 42.477828 51.231752 
L 42.771521 51.252408 
L 43.065213 51.286082 
L 43.358906 51.331706 
L 43.652599 51.389778 
L 43.946291 51.460465 
L 44.239984 51.54315 
L 44.533677 51.637237 
L 44.82737 51.741074 
L 45.121062 51.853474 
L 45.414755 51.972807 
L 45.708448 52.098339 
L 46.00214 52.228223 
L 46.295833 52.362456 
L 46.589526 52.499557 
L 46.883218 52.639427 
L 47.176911 52.780836 
L 47.470604 52.924313 
L 47.764296 53.068307 
L 48.057989 53.214346 
L 48.351682 53.357257 
L 48.645375 53.50809 
L 48.939067 53.687666 
L 49.23276 53.887495 
L 49.526453 54.069016 
L 49.820145 54.208408 
L 50.113838 54.336927 
L 50.407531 54.468901 
L 50.701223 54.601658 
L 50.994916 54.736213 
L 51.288609 54.87084 
L 51.582301 55.006911 
L 51.875994 55.142966 
L 52.169687 55.280671 
L 52.46338 55.418039 
L 52.757072 55.555473 
L 53.050765 55.692268 
L 53.344458 55.829696 
L 53.63815 55.966025 
L 53.931843 56.102635 
L 54.225536 56.237439 
L 54.519228 56.371765 
L 54.812921 56.504428 
L 55.106614 56.636734 
L 55.400307 56.766216 
L 55.693999 56.895215 
L 55.987692 57.021323 
L 56.281385 57.146756 
L 56.575077 57.269378 
L 56.86877 57.390414 
L 57.162463 57.508753 
L 57.456155 57.625744 
L 57.749848 57.739971 
L 58.043541 57.852614 
L 58.337233 57.962445 
L 58.630926 58.069973 
L 58.924619 58.174652 
L 59.218312 58.276836 
L 59.512004 58.375237 
L 59.805697 58.474429 
L 60.09939 58.576388 
L 60.393082 58.684057 
L 60.686775 58.795506 
L 60.980468 58.908394 
L 61.27416 59.017643 
L 61.567853 59.120041 
L 61.861546 59.210614 
L 62.155238 59.290411 
L 62.448931 59.365097 
L 62.742624 59.440029 
L 63.036317 59.513746 
L 63.330009 59.58648 
L 63.623702 59.657973 
L 63.917395 59.728713 
L 64.211087 59.797876 
L 64.50478 59.866401 
L 64.798473 59.933135 
L 65.092165 59.998964 
L 65.385858 60.06247 
L 65.679551 60.125261 
L 65.973244 60.185372 
L 66.266936 60.244919 
L 66.560629 60.301785 
L 66.854322 60.357269 
L 67.148014 60.410709 
L 67.441707 60.462399 
L 67.7354 60.512512 
L 68.029092 60.560613 
L 68.322785 60.607168 
L 68.616478 60.652118 
L 68.91017 60.695479 
L 69.203863 60.739029 
L 69.497556 60.784669 
L 69.791249 60.834735 
L 70.084941 60.884807 
L 70.378634 60.932063 
L 70.672327 60.972897 
L 70.966019 61.010707 
L 71.259712 61.045209 
L 71.553405 61.0796 
L 71.847097 61.113116 
L 72.14079 61.14635 
L 72.434483 61.178739 
L 72.728175 61.210904 
L 73.021868 61.242101 
L 73.315561 61.273248 
L 73.609254 61.303298 
L 73.902946 61.333301 
L 74.196639 61.36222 
L 74.490332 61.390721 
L 74.784024 61.418414 
L 75.077717 61.445732 
L 75.37141 61.472739 
L 75.665102 61.498904 
L 75.958795 61.525142 
L 76.252488 61.550409 
L 76.54618 61.575761 
L 76.839873 61.600776 
L 77.133566 61.625153 
L 77.427259 61.64931 
L 77.720951 61.672977 
L 78.014644 61.700493 
L 78.308337 61.731345 
L 78.602029 61.763154 
L 78.895722 61.788999 
L 79.189415 61.808645 
L 79.483107 61.828152 
L 79.7768 61.846769 
L 80.070493 61.865385 
L 80.364186 61.883261 
L 80.657878 61.901481 
L 80.951571 61.919252 
L 81.245264 61.936464 
L 81.538956 61.952798 
L 81.832649 61.968774 
L 82.126342 61.983889 
L 82.420034 61.997856 
L 82.713727 62.010354 
L 83.00742 62.021207 
L 83.301112 62.030045 
L 83.594805 62.036763 
L 83.888498 62.040911 
L 84.182191 62.042046 
L 84.475883 62.03965 
L 84.769576 62.032849 
L 85.063269 62.021645 
L 85.356961 62.004914 
L 85.650654 61.982303 
L 85.944347 61.952521 
L 86.238039 61.915255 
L 86.531732 61.869544 
L 86.825425 61.814945 
L 87.119117 61.74944 
L 87.41281 61.672774 
L 87.706503 61.583312 
L 88.000196 61.480184 
L 88.293888 61.361439 
L 88.587581 61.226823 
L 88.881274 61.074778 
L 89.174966 60.904074 
L 89.468659 60.712785 
L 89.762352 60.50028 
L 90.056044 60.267174 
L 90.349737 60.012758 
L 90.64343 59.735603 
L 90.937123 59.435327 
L 91.230815 59.114464 
L 91.524508 58.774882 
L 91.818201 58.416758 
L 92.111893 58.040051 
L 92.405586 57.646258 
L 92.699279 57.243332 
L 92.992971 56.832223 
L 93.286664 56.417512 
L 93.580357 55.998408 
L 93.874049 55.582985 
L 94.167742 55.177391 
L 94.461435 54.789636 
L 94.755128 54.414969 
L 95.04882 54.056658 
L 95.342513 53.720308 
L 95.636206 53.412935 
L 95.929898 53.130555 
L 96.223591 52.876116 
L 96.517284 52.648909 
L 96.810976 52.456071 
L 97.104669 52.274985 
L 97.398362 52.106505 
L 97.692054 51.962946 
L 97.985747 51.868616 
L 98.27944 51.78923 
L 98.573133 51.688248 
L 98.866825 51.594404 
L 99.160518 51.583378 
L 99.454211 51.655683 
L 99.747903 51.678893 
L 100.041596 51.554601 
L 100.335289 51.372959 
L 100.335289 45.274712 
L 100.335289 45.274712 
L 100.041596 45.171102 
L 99.747903 45.203325 
L 99.454211 45.449092 
L 99.160518 45.799294 
L 98.866825 46.110873 
L 98.573133 46.384688 
L 98.27944 46.699825 
L 97.985747 47.085544 
L 97.692054 47.495859 
L 97.398362 47.893959 
L 97.104669 48.303949 
L 96.810976 48.73931 
L 96.517284 49.19524 
L 96.223591 49.644379 
L 95.929898 50.08797 
L 95.636206 50.527407 
L 95.342513 50.963126 
L 95.04882 51.385827 
L 94.755128 51.795828 
L 94.461435 52.195863 
L 94.167742 52.587509 
L 93.874049 52.964965 
L 93.580357 53.331018 
L 93.286664 53.687256 
L 92.992971 54.037561 
L 92.699279 54.380318 
L 92.405586 54.717053 
L 92.111893 55.045776 
L 91.818201 55.36883 
L 91.524508 55.686048 
L 91.230815 55.996436 
L 90.937123 56.29867 
L 90.64343 56.591792 
L 90.349737 56.876144 
L 90.056044 57.151116 
L 89.762352 57.415619 
L 89.468659 57.66877 
L 89.174966 57.910459 
L 88.881274 58.140435 
L 88.587581 58.358116 
L 88.293888 58.563443 
L 88.000196 58.75631 
L 87.706503 58.936927 
L 87.41281 59.105158 
L 87.119117 59.261279 
L 86.825425 59.405817 
L 86.531732 59.539178 
L 86.238039 59.661749 
L 85.944347 59.77364 
L 85.650654 59.875723 
L 85.356961 59.968389 
L 85.063269 60.052236 
L 84.769576 60.127489 
L 84.475883 60.194824 
L 84.182191 60.254562 
L 83.888498 60.307574 
L 83.594805 60.353727 
L 83.301112 60.393949 
L 83.00742 60.428121 
L 82.713727 60.457455 
L 82.420034 60.481548 
L 82.126342 60.501149 
L 81.832649 60.516078 
L 81.538956 60.52721 
L 81.245264 60.534563 
L 80.951571 60.538713 
L 80.657878 60.539121 
L 80.364186 60.536809 
L 80.070493 60.531156 
L 79.7768 60.523354 
L 79.483107 60.512215 
L 79.189415 60.499137 
L 78.895722 60.484119 
L 78.602029 60.473836 
L 78.308337 60.467493 
L 78.014644 60.457848 
L 77.720951 60.44284 
L 77.427259 60.421891 
L 77.133566 60.399126 
L 76.839873 60.374665 
L 76.54618 60.348737 
L 76.252488 60.321818 
L 75.958795 60.292806 
L 75.665102 60.263467 
L 75.37141 60.23215 
L 75.077717 60.20043 
L 74.784024 60.166888 
L 74.490332 60.132446 
L 74.196639 60.096984 
L 73.902946 60.060584 
L 73.609254 60.023589 
L 73.315561 59.985084 
L 73.021868 59.945722 
L 72.728175 59.904917 
L 72.434483 59.863286 
L 72.14079 59.820449 
L 71.847097 59.77648 
L 71.553405 59.73099 
L 71.259712 59.684441 
L 70.966019 59.636571 
L 70.672327 59.59005 
L 70.378634 59.544878 
L 70.084941 59.504413 
L 69.791249 59.465503 
L 69.497556 59.424823 
L 69.203863 59.377556 
L 68.91017 59.325447 
L 68.616478 59.270651 
L 68.322785 59.215202 
L 68.029092 59.159288 
L 67.7354 59.102365 
L 67.441707 59.045097 
L 67.148014 58.987025 
L 66.854322 58.92869 
L 66.560629 58.869816 
L 66.266936 58.809891 
L 65.973244 58.749872 
L 65.679551 58.688024 
L 65.385858 58.626035 
L 65.092165 58.562309 
L 64.798473 58.497871 
L 64.50478 58.431778 
L 64.211087 58.364371 
L 63.917395 58.294739 
L 63.623702 58.223472 
L 63.330009 58.150207 
L 63.036317 58.074793 
L 62.742624 57.997321 
L 62.448931 57.917589 
L 62.155238 57.834349 
L 61.861546 57.752937 
L 61.567853 57.679459 
L 61.27416 57.614726 
L 60.980468 57.55385 
L 60.686775 57.493208 
L 60.393082 57.427675 
L 60.09939 57.35433 
L 59.805697 57.27142 
L 59.512004 57.181518 
L 59.218312 57.086479 
L 58.924619 56.990118 
L 58.630926 56.891727 
L 58.337233 56.791647 
L 58.043541 56.689546 
L 57.749848 56.585681 
L 57.456155 56.478986 
L 57.162463 56.370276 
L 56.86877 56.258355 
L 56.575077 56.144147 
L 56.281385 56.026698 
L 55.987692 55.907048 
L 55.693999 55.783335 
L 55.400307 55.657091 
L 55.106614 55.526117 
L 54.812921 55.392371 
L 54.519228 55.253908 
L 54.225536 55.11161 
L 53.931843 54.964148 
L 53.63815 54.812399 
L 53.344458 54.654786 
L 53.050765 54.492414 
L 52.757072 54.323574 
L 52.46338 54.149006 
L 52.169687 53.968155 
L 51.875994 53.781463 
L 51.582301 53.587056 
L 51.288609 53.38596 
L 50.994916 53.176818 
L 50.701223 52.960983 
L 50.407531 52.736896 
L 50.113838 52.505209 
L 49.820145 52.263176 
L 49.526453 52.025355 
L 49.23276 51.824572 
L 48.939067 51.636422 
L 48.645375 51.421899 
L 48.351682 51.171483 
L 48.057989 50.905343 
L 47.764296 50.635002 
L 47.470604 50.356807 
L 47.176911 50.072217 
L 46.883218 49.780567 
L 46.589526 49.482642 
L 46.295833 49.178392 
L 46.00214 48.868661 
L 45.708448 48.553894 
L 45.414755 48.235776 
L 45.121062 47.915881 
L 44.82737 47.597319 
L 44.533677 47.283949 
L 44.239984 46.980531 
L 43.946291 46.693029 
L 43.652599 46.42815 
L 43.358906 46.192733 
L 43.065213 45.992097 
L 42.771521 45.830729 
L 42.477828 45.709816 
L 42.184135 45.638855 
L 41.890443 45.622792 
L 41.59675 45.65519 
L 41.303057 45.728588 
L 41.009365 45.838676 
L 40.715672 45.986634 
L 40.421979 46.17663 
L 40.128286 46.406555 
L 39.834594 46.67237 
L 39.540901 46.970875 
L 39.247208 47.297884 
L 38.953516 47.650732 
L 38.659823 48.025687 
L 38.36613 48.418901 
L 38.072438 48.824537 
L 37.778745 49.238498 
L 37.485052 49.655858 
L 37.191359 50.073813 
L 36.897667 50.487696 
L 36.603974 50.895041 
L 36.310281 51.292391 
L 36.016589 51.679562 
L 35.722896 52.054227 
L 35.429203 52.417186 
L 35.135511 52.766399 
L 34.841818 53.103883 
L 34.548125 53.427629 
L 34.254433 53.758557 
L 33.96074 54.139117 
L 33.667047 54.558863 
L 33.373354 54.960112 
L 33.079662 55.312886 
L 32.785969 55.632802 
L 32.492276 55.94309 
L 32.198584 56.245257 
L 31.904891 56.53872 
L 31.611198 56.822604 
L 31.317506 57.096357 
L 31.023813 57.359248 
L 30.73012 57.610716 
L 30.436428 57.850137 
L 30.142735 58.077267 
L 29.849042 58.291727 
L 29.555349 58.493239 
L 29.261657 58.681631 
L 28.967964 58.856998 
L 28.674271 59.019366 
L 28.380579 59.169065 
L 28.086886 59.306225 
L 27.793193 59.431433 
L 27.499501 59.545116 
L 27.205808 59.647683 
L 26.912115 59.739388 
L 26.618422 59.820791 
L 26.32473 59.891705 
L 26.031037 59.952928 
L 25.737344 60.004999 
L 25.443652 60.047661 
L 25.149959 60.082017 
L 24.856266 60.108417 
L 24.562574 60.126165 
L 24.268881 60.138186 
L 23.975188 60.149255 
L 23.681496 60.160173 
L 23.387803 60.172096 
L 23.09411 60.18704 
L 22.800417 60.205625 
L 22.506725 60.225456 
L 22.213032 60.243163 
L 21.919339 60.260394 
L 21.625647 60.283259 
L 21.331954 60.311962 
L 21.038261 60.342988 
L 20.744569 60.37175 
L 20.450876 60.393723 
L 20.157183 60.404084 
L 19.863491 60.402349 
L 19.569798 60.388749 
L 19.276105 60.36745 
L 18.982412 60.340051 
L 18.68872 60.310072 
L 18.395027 60.277654 
L 18.101334 60.24368 
L 17.807642 60.207519 
L 17.513949 60.169104 
L 17.220256 60.129049 
L 16.926564 60.08656 
L 16.632871 60.04372 
L 16.339178 59.998113 
L 16.045486 59.951956 
L 15.751793 59.902519 
L 15.4581 59.853176 
L 15.164407 59.800929 
L 14.870715 59.748895 
L 14.577022 59.693782 
L 14.283329 59.637276 
L 13.989637 59.584399 
L 13.695944 59.542586 
L 13.402251 59.508272 
L 13.108559 59.481533 
L 12.814866 59.473343 
L 12.521173 59.480055 
L 12.22748 59.496179 
L 11.933788 59.512412 
L 11.640095 59.521258 
L 11.346402 59.51511 
L 11.05271 59.492795 
L 10.759017 59.455413 
L 10.465324 59.409625 
L 10.171632 59.36065 
L 9.877939 59.31012 
L 9.584246 59.257072 
L 9.290554 59.202721 
L 8.996861 59.146986 
L 8.703168 59.090385 
L 8.409475 59.031617 
L 8.115783 58.971133 
L 7.82209 58.908844 
L 7.528397 58.845977 
L 7.234705 58.781362 
L 6.941012 58.715181 
L 6.647319 58.646278 
L 6.353627 58.576188 
L 6.059934 58.504003 
L 5.766241 58.430906 
L 5.472549 58.354672 
L 5.178856 58.276594 
L 4.885163 58.195303 
L 4.59147 58.112889 
L 4.297778 58.031805 
L 4.004085 57.961079 
L 3.710392 57.900505 
L 3.4167 57.849118 
L 3.123007 57.799815 
L 2.829314 57.747797 
L 2.535622 57.685533 
L 2.241929 57.611186 
L 1.948236 57.527099 
L 1.654543 57.440018 
L 1.360851 57.35276 
L 1.067158 57.263845 
L 0.773465 57.171732 
L 0.479773 57.076467 
L 0.18608 56.980513 
L -0.107613 56.884032 
L -0.401305 56.785551 
L -0.694998 56.682752 
L -0.988691 56.576962 
L -1.282383 56.47047 
L -1.576076 56.363213 
L -1.869769 56.252301 
L -2.163462 56.137101 
L -2.457154 56.018689 
L -2.750847 55.898997 
L -3.04454 55.777376 
L -3.338232 55.651895 
L -3.631925 55.52035 
L -3.925618 55.386178 
L -4.21931 55.248414 
L -4.513003 55.108271 
L -4.806696 54.962886 
L -5.100388 54.811831 
L -5.394081 54.654984 
L -5.687774 54.494567 
L -5.981467 54.329192 
L -6.275159 54.158278 
L -6.568852 53.981371 
L -6.862545 53.797268 
L -7.156237 53.608066 
L -7.44993 53.411901 
L -7.743623 53.210139 
L -8.037315 53.001534 
L -8.331008 52.78757 
L -8.624701 52.563592 
L -8.918393 52.33538 
L -9.212086 52.09744 
L -9.505779 51.854433 
L -9.799472 51.604628 
L -10.093164 51.34848 
L -10.386857 51.081607 
L -10.68055 50.807536 
L -10.974242 50.526924 
L -11.267935 50.240999 
L -11.561628 49.948902 
L -11.85532 49.643774 
L -12.149013 49.331247 
L -12.442706 49.01455 
L -12.736399 48.694514 
L -13.030091 48.368234 
L -13.323784 48.032784 
L -13.617477 47.687124 
L -13.911169 47.353687 
L -14.204862 47.02686 
L -14.498555 46.707692 
L -14.792247 46.380433 
L -15.08594 46.081479 
L -15.379633 45.810786 
L -15.673325 45.610352 
L -15.967018 45.400788 
L -16.260711 45.213222 
L -16.554404 45.035413 
L -16.848096 45.05917 
z
" clip-path="url(#pdf1e4fe0b2)" style="fill: #b33b24; fill-opacity: 0.2; stroke: #b33b24; stroke-opacity: 0.2"/>
   </g>
   <g id="FillBetweenPolyCollection_4">
    <path d="M -16.848096 50.868925 
L -16.848096 61.883231 
L -16.554404 62.585505 
L -16.260711 61.960789 
L -15.967018 61.484856 
L -15.673325 61.623182 
L -15.379633 61.891321 
L -15.08594 61.822781 
L -14.792247 61.603068 
L -14.498555 61.55091 
L -14.204862 61.624571 
L -13.911169 61.632293 
L -13.617477 61.564188 
L -13.323784 61.518914 
L -13.030091 61.518768 
L -12.736399 61.514833 
L -12.442706 61.490069 
L -12.149013 61.465732 
L -11.85532 61.450985 
L -11.561628 61.436849 
L -11.267935 61.424145 
L -10.974242 61.417173 
L -10.68055 61.411101 
L -10.386857 61.399916 
L -10.093164 61.386181 
L -9.799472 61.378107 
L -9.505779 61.373091 
L -9.212086 61.364851 
L -8.918393 61.356606 
L -8.624701 61.353785 
L -8.331008 61.355304 
L -8.037315 61.354015 
L -7.743623 61.346837 
L -7.44993 61.341967 
L -7.156237 61.344666 
L -6.862545 61.35035 
L -6.568852 61.353305 
L -6.275159 61.355344 
L -5.981467 61.361349 
L -5.687774 61.380353 
L -5.394081 61.397257 
L -5.100388 61.412149 
L -4.806696 61.425036 
L -4.513003 61.429856 
L -4.21931 61.438024 
L -3.925618 61.451736 
L -3.631925 61.461086 
L -3.338232 61.463516 
L -3.04454 61.468568 
L -2.750847 61.478493 
L -2.457154 61.487627 
L -2.163462 61.493876 
L -1.869769 61.502224 
L -1.576076 61.514178 
L -1.282383 61.52557 
L -0.988691 61.535313 
L -0.694998 61.546576 
L -0.401305 61.559628 
L -0.107613 61.571028 
L 0.18608 61.579633 
L 0.479773 61.590681 
L 0.773465 61.607428 
L 1.067158 61.620056 
L 1.360851 61.627469 
L 1.654543 61.645341 
L 1.948236 61.660082 
L 2.241929 61.665899 
L 2.535622 61.677972 
L 2.829314 61.696712 
L 3.123007 61.712425 
L 3.4167 61.721407 
L 3.710392 61.731432 
L 4.004085 61.746347 
L 4.297778 61.763125 
L 4.59147 61.779219 
L 4.885163 61.79521 
L 5.178856 61.811394 
L 5.472549 61.82648 
L 5.766241 61.839412 
L 6.059934 61.852007 
L 6.353627 61.863128 
L 6.647319 61.869773 
L 6.941012 61.873952 
L 7.234705 61.879611 
L 7.528397 61.886125 
L 7.82209 61.892913 
L 8.115783 61.904175 
L 8.409475 61.920088 
L 8.703168 61.936399 
L 8.996861 61.950975 
L 9.290554 61.964242 
L 9.584246 61.976714 
L 9.877939 61.987802 
L 10.171632 61.996189 
L 10.465324 62.002291 
L 10.759017 62.009452 
L 11.05271 62.020231 
L 11.346402 62.031285 
L 11.640095 62.039937 
L 11.933788 62.046963 
L 12.22748 62.054635 
L 12.521173 62.064021 
L 12.814866 62.073175 
L 13.108559 62.080563 
L 13.402251 62.087305 
L 13.695944 62.094166 
L 13.989637 62.101617 
L 14.283329 62.109109 
L 14.577022 62.114278 
L 14.870715 62.118106 
L 15.164407 62.123355 
L 15.4581 62.129318 
L 15.751793 62.134026 
L 16.045486 62.137145 
L 16.339178 62.139412 
L 16.632871 62.14186 
L 16.926564 62.145387 
L 17.220256 62.149674 
L 17.513949 62.152569 
L 17.807642 62.152179 
L 18.101334 62.149446 
L 18.395027 62.146483 
L 18.68872 62.144308 
L 18.982412 62.142815 
L 19.276105 62.141127 
L 19.569798 62.139757 
L 19.863491 62.139011 
L 20.157183 62.138222 
L 20.450876 62.137015 
L 20.744569 62.135546 
L 21.038261 62.134146 
L 21.331954 62.131991 
L 21.625647 62.12783 
L 21.919339 62.120891 
L 22.213032 62.111094 
L 22.506725 62.099126 
L 22.800417 62.087307 
L 23.09411 62.07614 
L 23.387803 62.063677 
L 23.681496 62.050119 
L 23.975188 62.03679 
L 24.268881 62.023462 
L 24.562574 62.010021 
L 24.856266 61.997588 
L 25.149959 61.986668 
L 25.443652 61.975334 
L 25.737344 61.962355 
L 26.031037 61.949706 
L 26.32473 61.939614 
L 26.618422 61.931442 
L 26.912115 61.924649 
L 27.205808 61.918273 
L 27.499501 61.910614 
L 27.793193 61.900373 
L 28.086886 61.888052 
L 28.380579 61.875849 
L 28.674271 61.865538 
L 28.967964 61.855251 
L 29.261657 61.843069 
L 29.555349 61.830096 
L 29.849042 61.817455 
L 30.142735 61.803737 
L 30.436428 61.787563 
L 30.73012 61.769916 
L 31.023813 61.752833 
L 31.317506 61.738162 
L 31.611198 61.72502 
L 31.904891 61.710871 
L 32.198584 61.69453 
L 32.492276 61.677008 
L 32.785969 61.659695 
L 33.079662 61.642303 
L 33.373354 61.624437 
L 33.667047 61.607754 
L 33.96074 61.593772 
L 34.254433 61.5817 
L 34.548125 61.570707 
L 34.841818 61.560135 
L 35.135511 61.549713 
L 35.429203 61.540508 
L 35.722896 61.533341 
L 36.016589 61.527462 
L 36.310281 61.522269 
L 36.603974 61.518496 
L 36.897667 61.516809 
L 37.191359 61.516276 
L 37.485052 61.515138 
L 37.778745 61.512016 
L 38.072438 61.507619 
L 38.36613 61.503574 
L 38.659823 61.498914 
L 38.953516 61.493642 
L 39.247208 61.489458 
L 39.540901 61.486223 
L 39.834594 61.482405 
L 40.128286 61.477678 
L 40.421979 61.472767 
L 40.715672 61.469219 
L 41.009365 61.468242 
L 41.303057 61.468776 
L 41.59675 61.465923 
L 41.890443 61.465431 
L 42.184135 61.474329 
L 42.477828 61.480159 
L 42.771521 61.476511 
L 43.065213 61.47204 
L 43.358906 61.470467 
L 43.652599 61.469895 
L 43.946291 61.465986 
L 44.239984 61.460256 
L 44.533677 61.462535 
L 44.82737 61.47336 
L 45.121062 61.481142 
L 45.414755 61.482209 
L 45.708448 61.482695 
L 46.00214 61.486627 
L 46.295833 61.493896 
L 46.589526 61.498957 
L 46.883218 61.503059 
L 47.176911 61.521621 
L 47.470604 61.541777 
L 47.764296 61.554671 
L 48.057989 61.567202 
L 48.351682 61.576404 
L 48.645375 61.580022 
L 48.939067 61.580508 
L 49.23276 61.584331 
L 49.526453 61.591379 
L 49.820145 61.598145 
L 50.113838 61.602677 
L 50.407531 61.606144 
L 50.701223 61.609849 
L 50.994916 61.613279 
L 51.288609 61.616036 
L 51.582301 61.623089 
L 51.875994 61.636731 
L 52.169687 61.648949 
L 52.46338 61.656429 
L 52.757072 61.675229 
L 53.050765 61.697416 
L 53.344458 61.708459 
L 53.63815 61.71816 
L 53.931843 61.733386 
L 54.225536 61.742936 
L 54.519228 61.748198 
L 54.812921 61.762814 
L 55.106614 61.780322 
L 55.400307 61.788737 
L 55.693999 61.789653 
L 55.987692 61.791671 
L 56.281385 61.796887 
L 56.575077 61.803372 
L 56.86877 61.809209 
L 57.162463 61.815411 
L 57.456155 61.822278 
L 57.749848 61.8285 
L 58.043541 61.83431 
L 58.337233 61.838955 
L 58.630926 61.840503 
L 58.924619 61.845687 
L 59.218312 61.857667 
L 59.512004 61.864066 
L 59.805697 61.862279 
L 60.09939 61.867961 
L 60.393082 61.872094 
L 60.686775 61.866983 
L 60.980468 61.862131 
L 61.27416 61.860704 
L 61.567853 61.862682 
L 61.861546 61.866309 
L 62.155238 61.86959 
L 62.448931 61.871904 
L 62.742624 61.874879 
L 63.036317 61.878686 
L 63.330009 61.883025 
L 63.623702 61.887243 
L 63.917395 61.890414 
L 64.211087 61.892258 
L 64.50478 61.89485 
L 64.798473 61.897215 
L 65.092165 61.896446 
L 65.385858 61.8932 
L 65.679551 61.888654 
L 65.973244 61.88297 
L 66.266936 61.877093 
L 66.560629 61.873417 
L 66.854322 61.874585 
L 67.148014 61.879943 
L 67.441707 61.886778 
L 67.7354 61.894266 
L 68.029092 61.900827 
L 68.322785 61.903725 
L 68.616478 61.901869 
L 68.91017 61.898288 
L 69.203863 61.897185 
L 69.497556 61.898503 
L 69.791249 61.898086 
L 70.084941 61.895004 
L 70.378634 61.893493 
L 70.672327 61.896092 
L 70.966019 61.8995 
L 71.259712 61.899836 
L 71.553405 61.898728 
L 71.847097 61.899039 
L 72.14079 61.90044 
L 72.434483 61.900802 
L 72.728175 61.899008 
L 73.021868 61.896345 
L 73.315561 61.894418 
L 73.609254 61.893135 
L 73.902946 61.89192 
L 74.196639 61.890148 
L 74.490332 61.888364 
L 74.784024 61.887838 
L 75.077717 61.887782 
L 75.37141 61.886389 
L 75.665102 61.884588 
L 75.958795 61.884265 
L 76.252488 61.884263 
L 76.54618 61.882344 
L 76.839873 61.877847 
L 77.133566 61.873554 
L 77.427259 61.872349 
L 77.720951 61.872455 
L 78.014644 61.871152 
L 78.308337 61.868198 
L 78.602029 61.865539 
L 78.895722 61.865046 
L 79.189415 61.86635 
L 79.483107 61.86728 
L 79.7768 61.86524 
L 80.070493 61.861398 
L 80.364186 61.859357 
L 80.657878 61.858308 
L 80.951571 61.853623 
L 81.245264 61.845121 
L 81.538956 61.837068 
L 81.832649 61.830821 
L 82.126342 61.824024 
L 82.420034 61.814528 
L 82.713727 61.804059 
L 83.00742 61.794787 
L 83.301112 61.785482 
L 83.594805 61.775105 
L 83.888498 61.766229 
L 84.182191 61.76105 
L 84.475883 61.758256 
L 84.769576 61.755776 
L 85.063269 61.75508 
L 85.356961 61.757754 
L 85.650654 61.760122 
L 85.944347 61.758525 
L 86.238039 61.754437 
L 86.531732 61.751987 
L 86.825425 61.751231 
L 87.119117 61.749013 
L 87.41281 61.744844 
L 87.706503 61.740402 
L 88.000196 61.737993 
L 88.293888 61.737063 
L 88.587581 61.734205 
L 88.881274 61.727462 
L 89.174966 61.719246 
L 89.468659 61.71226 
L 89.762352 61.705417 
L 90.056044 61.697478 
L 90.349737 61.690521 
L 90.64343 61.686093 
L 90.937123 61.681249 
L 91.230815 61.674162 
L 91.524508 61.66681 
L 91.818201 61.660183 
L 92.111893 61.653491 
L 92.405586 61.647228 
L 92.699279 61.644412 
L 92.992971 61.644942 
L 93.286664 61.644572 
L 93.580357 61.641494 
L 93.874049 61.641169 
L 94.167742 61.650991 
L 94.461435 61.675006 
L 94.755128 61.707627 
L 95.04882 61.737955 
L 95.342513 61.767055 
L 95.636206 61.80468 
L 95.929898 61.850309 
L 96.223591 61.894074 
L 96.517284 61.933355 
L 96.810976 61.98769 
L 97.104669 62.041857 
L 97.398362 62.023733 
L 97.692054 61.942168 
L 97.985747 61.952315 
L 98.27944 62.086595 
L 98.573133 62.079306 
L 98.866825 61.811628 
L 99.160518 61.731394 
L 99.454211 62.251627 
L 99.747903 62.697174 
L 100.041596 61.698233 
L 100.335289 60.520045 
L 100.335289 52.355445 
L 100.335289 52.355445 
L 100.041596 51.331809 
L 99.747903 50.433001 
L 99.454211 50.895999 
L 99.160518 51.402002 
L 98.866825 51.331655 
L 98.573133 51.105798 
L 98.27944 51.139776 
L 97.985747 51.292273 
L 97.692054 51.306172 
L 97.398362 51.240011 
L 97.104669 51.256434 
L 96.810976 51.346633 
L 96.517284 51.424938 
L 96.223591 51.485888 
L 95.929898 51.565065 
L 95.636206 51.657263 
L 95.342513 51.736461 
L 95.04882 51.797576 
L 94.755128 51.860247 
L 94.461435 51.930685 
L 94.167742 51.993234 
L 93.874049 52.036715 
L 93.580357 52.065182 
L 93.286664 52.089789 
L 92.992971 52.116769 
L 92.699279 52.144335 
L 92.405586 52.168748 
L 92.111893 52.188965 
L 91.818201 52.206819 
L 91.524508 52.223656 
L 91.230815 52.240173 
L 90.937123 52.256641 
L 90.64343 52.27338 
L 90.349737 52.289928 
L 90.056044 52.305299 
L 89.762352 52.318548 
L 89.468659 52.329912 
L 89.174966 52.341102 
L 88.881274 52.353355 
L 88.587581 52.367886 
L 88.293888 52.384439 
L 88.000196 52.402238 
L 87.706503 52.419886 
L 87.41281 52.43575 
L 87.119117 52.449928 
L 86.825425 52.464234 
L 86.531732 52.479943 
L 86.238039 52.495101 
L 85.944347 52.508014 
L 85.650654 52.520797 
L 85.356961 52.536566 
L 85.063269 52.554569 
L 84.769576 52.570857 
L 84.475883 52.584191 
L 84.182191 52.594766 
L 83.888498 52.602234 
L 83.594805 52.606367 
L 83.301112 52.60801 
L 83.00742 52.608653 
L 82.713727 52.608168 
L 82.420034 52.606619 
L 82.126342 52.606152 
L 81.832649 52.60653 
L 81.538956 52.604414 
L 81.245264 52.597979 
L 80.951571 52.58851 
L 80.657878 52.579193 
L 80.364186 52.57011 
L 80.070493 52.558323 
L 79.7768 52.544402 
L 79.483107 52.531547 
L 79.189415 52.520604 
L 78.895722 52.50995 
L 78.602029 52.498395 
L 78.308337 52.484796 
L 78.014644 52.469607 
L 77.720951 52.453878 
L 77.427259 52.438154 
L 77.133566 52.4211 
L 76.839873 52.401516 
L 76.54618 52.381469 
L 76.252488 52.362345 
L 75.958795 52.343252 
L 75.665102 52.324153 
L 75.37141 52.305852 
L 75.077717 52.289363 
L 74.784024 52.273308 
L 74.490332 52.255975 
L 74.196639 52.238474 
L 73.902946 52.222002 
L 73.609254 52.204621 
L 73.315561 52.184627 
L 73.021868 52.163275 
L 72.728175 52.14277 
L 72.434483 52.123732 
L 72.14079 52.104656 
L 71.847097 52.084352 
L 71.553405 52.063849 
L 71.259712 52.04361 
L 70.966019 52.023914 
L 70.672327 52.005297 
L 70.378634 51.986427 
L 70.084941 51.965492 
L 69.791249 51.942342 
L 69.497556 51.917827 
L 69.203863 51.891415 
L 68.91017 51.861558 
L 68.616478 51.829818 
L 68.322785 51.80019 
L 68.029092 51.776501 
L 67.7354 51.7598 
L 67.441707 51.74865 
L 67.148014 51.740348 
L 66.854322 51.731924 
L 66.560629 51.718627 
L 66.266936 51.6986 
L 65.973244 51.674075 
L 65.679551 51.646795 
L 65.385858 51.61632 
L 65.092165 51.583621 
L 64.798473 51.553831 
L 64.50478 51.530511 
L 64.211087 51.50971 
L 63.917395 51.48874 
L 63.623702 51.469862 
L 63.330009 51.453333 
L 63.036317 51.437944 
L 62.742624 51.423725 
L 62.448931 51.410904 
L 62.155238 51.398705 
L 61.861546 51.387837 
L 61.567853 51.378948 
L 61.27416 51.370725 
L 60.980468 51.359307 
L 60.686775 51.341942 
L 60.393082 51.322789 
L 60.09939 51.314471 
L 59.805697 51.309031 
L 59.512004 51.293897 
L 59.218312 51.284481 
L 58.924619 51.282601 
L 58.630926 51.278094 
L 58.337233 51.269512 
L 58.043541 51.259529 
L 57.749848 51.248784 
L 57.456155 51.240872 
L 57.162463 51.236048 
L 56.86877 51.232041 
L 56.575077 51.231432 
L 56.281385 51.236932 
L 55.987692 51.24244 
L 55.693999 51.241569 
L 55.400307 51.238795 
L 55.106614 51.248374 
L 54.812921 51.272666 
L 54.519228 51.295555 
L 54.225536 51.307546 
L 53.931843 51.322279 
L 53.63815 51.340733 
L 53.344458 51.351523 
L 53.050765 51.364504 
L 52.757072 51.392988 
L 52.46338 51.421246 
L 52.169687 51.437679 
L 51.875994 51.457876 
L 51.582301 51.481604 
L 51.288609 51.501549 
L 50.994916 51.516917 
L 50.701223 51.530163 
L 50.407531 51.541954 
L 50.113838 51.553706 
L 49.820145 51.567369 
L 49.526453 51.58433 
L 49.23276 51.602887 
L 48.939067 51.618241 
L 48.645375 51.628641 
L 48.351682 51.640974 
L 48.057989 51.659495 
L 47.764296 51.683004 
L 47.470604 51.709263 
L 47.176911 51.745204 
L 46.883218 51.778894 
L 46.589526 51.792378 
L 46.295833 51.800343 
L 46.00214 51.809045 
L 45.708448 51.81658 
L 45.414755 51.820536 
L 45.121062 51.82241 
L 44.82737 51.830682 
L 44.533677 51.845008 
L 44.239984 51.852467 
L 43.946291 51.849405 
L 43.652599 51.844034 
L 43.358906 51.839265 
L 43.065213 51.831439 
L 42.771521 51.818163 
L 42.477828 51.803875 
L 42.184135 51.799482 
L 41.890443 51.799785 
L 41.59675 51.791848 
L 41.303057 51.782023 
L 41.009365 51.776202 
L 40.715672 51.769593 
L 40.421979 51.761159 
L 40.128286 51.751642 
L 39.834594 51.741466 
L 39.540901 51.73143 
L 39.247208 51.724224 
L 38.953516 51.720642 
L 38.659823 51.718904 
L 38.36613 51.717837 
L 38.072438 51.717092 
L 37.778745 51.71738 
L 37.485052 51.72142 
L 37.191359 51.729619 
L 36.897667 51.73998 
L 36.603974 51.75046 
L 36.310281 51.760203 
L 36.016589 51.769714 
L 35.722896 51.779541 
L 35.429203 51.789122 
L 35.135511 51.797537 
L 34.841818 51.804408 
L 34.548125 51.810195 
L 34.254433 51.815864 
L 33.96074 51.821859 
L 33.667047 51.826875 
L 33.373354 51.829356 
L 33.079662 51.829999 
L 32.785969 51.830132 
L 32.492276 51.830231 
L 32.198584 51.831151 
L 31.904891 51.833456 
L 31.611198 51.83685 
L 31.317506 51.840856 
L 31.023813 51.844853 
L 30.73012 51.848154 
L 30.436428 51.85158 
L 30.142735 51.856199 
L 29.849042 51.862786 
L 29.555349 51.870061 
L 29.261657 51.876751 
L 28.967964 51.883689 
L 28.674271 51.892009 
L 28.380579 51.900573 
L 28.086886 51.907633 
L 27.793193 51.913845 
L 27.499501 51.921161 
L 27.205808 51.931707 
L 26.912115 51.945505 
L 26.618422 51.959893 
L 26.32473 51.972384 
L 26.031037 51.981949 
L 25.737344 51.988202 
L 25.443652 51.992853 
L 25.149959 51.997451 
L 24.856266 52.001846 
L 24.562574 52.005803 
L 24.268881 52.009555 
L 23.975188 52.012686 
L 23.681496 52.014221 
L 23.387803 52.013921 
L 23.09411 52.012241 
L 22.800417 52.007882 
L 22.506725 51.99862 
L 22.213032 51.986306 
L 21.919339 51.97384 
L 21.625647 51.961576 
L 21.331954 51.950138 
L 21.038261 51.941739 
L 20.744569 51.93692 
L 20.450876 51.933379 
L 20.157183 51.929475 
L 19.863491 51.925693 
L 19.569798 51.921807 
L 19.276105 51.915548 
L 18.982412 51.906372 
L 18.68872 51.896349 
L 18.395027 51.885952 
L 18.101334 51.874801 
L 17.807642 51.863444 
L 17.513949 51.85396 
L 17.220256 51.847603 
L 16.926564 51.84291 
L 16.632871 51.83769 
L 16.339178 51.83139 
L 16.045486 51.825104 
L 15.751793 51.820424 
L 15.4581 51.817967 
L 15.164407 51.817017 
L 14.870715 51.816344 
L 14.577022 51.816822 
L 14.283329 51.821157 
L 13.989637 51.828394 
L 13.695944 51.834502 
L 13.402251 51.83955 
L 13.108559 51.84452 
L 12.814866 51.848399 
L 12.521173 51.851069 
L 12.22748 51.853361 
L 11.933788 51.855601 
L 11.640095 51.857116 
L 11.346402 51.857422 
L 11.05271 51.858396 
L 10.759017 51.859609 
L 10.465324 51.856458 
L 10.171632 51.848633 
L 9.877939 51.840172 
L 9.584246 51.835537 
L 9.290554 51.836397 
L 8.996861 51.841179 
L 8.703168 51.84778 
L 8.409475 51.856166 
L 8.115783 51.865971 
L 7.82209 51.873401 
L 7.528397 51.875838 
L 7.234705 51.874297 
L 6.941012 51.867602 
L 6.647319 51.856055 
L 6.353627 51.844735 
L 6.059934 51.837036 
L 5.766241 51.831108 
L 5.472549 51.826654 
L 5.178856 51.825951 
L 4.885163 51.827487 
L 4.59147 51.829394 
L 4.297778 51.832201 
L 4.004085 51.837547 
L 3.710392 51.842614 
L 3.4167 51.842572 
L 3.123007 51.840874 
L 2.829314 51.847467 
L 2.535622 51.859814 
L 2.241929 51.867311 
L 1.948236 51.868815 
L 1.654543 51.877804 
L 1.360851 51.887154 
L 1.067158 51.883761 
L 0.773465 51.885709 
L 0.479773 51.892886 
L 0.18608 51.893975 
L -0.107613 51.891694 
L -0.401305 51.892327 
L -0.694998 51.894157 
L -0.988691 51.892319 
L -1.282383 51.888023 
L -1.576076 51.887551 
L -1.869769 51.891044 
L -2.163462 51.892227 
L -2.457154 51.89021 
L -2.750847 51.891107 
L -3.04454 51.894811 
L -3.338232 51.894716 
L -3.631925 51.891194 
L -3.925618 51.894939 
L -4.21931 51.90599 
L -4.513003 51.912723 
L -4.806696 51.912414 
L -5.100388 51.916698 
L -5.394081 51.925587 
L -5.687774 51.941692 
L -5.981467 51.960408 
L -6.275159 51.961098 
L -6.568852 51.954779 
L -6.862545 51.95222 
L -7.156237 51.955586 
L -7.44993 51.955921 
L -7.743623 51.947194 
L -8.037315 51.935542 
L -8.331008 51.929548 
L -8.624701 51.926249 
L -8.918393 51.918131 
L -9.212086 51.902939 
L -9.505779 51.885383 
L -9.799472 51.871509 
L -10.093164 51.856252 
L -10.386857 51.832667 
L -10.68055 51.807862 
L -10.974242 51.790199 
L -11.267935 51.776603 
L -11.561628 51.754972 
L -11.85532 51.720259 
L -12.149013 51.678912 
L -12.442706 51.635138 
L -12.736399 51.598155 
L -13.030091 51.575335 
L -13.323784 51.54407 
L -13.617477 51.468344 
L -13.911169 51.385296 
L -14.204862 51.386388 
L -14.498555 51.440799 
L -14.792247 51.350342 
L -15.08594 51.090926 
L -15.379633 51.003858 
L -15.673325 51.266687 
L -15.967018 51.375926 
L -16.260711 50.83096 
L -16.554404 50.145133 
L -16.848096 50.868925 
z
" clip-path="url(#pdf1e4fe0b2)" style="fill: #ffa28d; fill-opacity: 0.2; stroke: #ffa28d; stroke-opacity: 0.2"/>
   </g>
   <g id="matplotlib.axis_3">
    <g id="xtick_6">
     <g id="line2d_10">
      <g>
       <use xlink:href="#m4853e4797b" x="12.44775" y="69.9765" style="stroke: #000000; stroke-width: 0.25"/>
      </g>
     </g>
     <g id="text_7">
      <!-- $-\pi$ -->
      <g transform="translate(8.12775 77.471188)">
       <text>
        <tspan x="0" y="-0.71875" style="font-size: 6px; font-family: 'DejaVu Sans'">−</tspan>
        <tspan x="5.027344" y="-0.71875" style="font-style: oblique; font-size: 6px; font-family: 'DejaVu Sans'">π</tspan>
       </text>
      </g>
     </g>
    </g>
    <g id="xtick_7">
     <g id="line2d_11">
      <g>
       <use xlink:href="#m4853e4797b" x="27.095906" y="69.9765" style="stroke: #000000; stroke-width: 0.25"/>
      </g>
     </g>
    </g>
    <g id="xtick_8">
     <g id="line2d_12">
      <g>
       <use xlink:href="#m4853e4797b" x="41.744063" y="69.9765" style="stroke: #000000; stroke-width: 0.25"/>
      </g>
     </g>
     <g id="text_8">
      <text style="font-size: 6px; font-family: 'Arial'; text-anchor: middle" x="41.744063" y="77.471188" transform="rotate(-0 41.744063 77.471188)">0</text>
     </g>
    </g>
    <g id="xtick_9">
     <g id="line2d_13">
      <g>
       <use xlink:href="#m4853e4797b" x="56.392219" y="69.9765" style="stroke: #000000; stroke-width: 0.25"/>
      </g>
     </g>
    </g>
    <g id="xtick_10">
     <g id="line2d_14">
      <g>
       <use xlink:href="#m4853e4797b" x="71.040375" y="69.9765" style="stroke: #000000; stroke-width: 0.25"/>
      </g>
     </g>
     <g id="text_9">
      <!-- $\pi$ -->
      <g transform="translate(69.210375 77.471188)">
       <text>
        <tspan x="0" y="-0.71875" style="font-style: oblique; font-size: 6px; font-family: 'DejaVu Sans'">π</tspan>
       </text>
      </g>
     </g>
    </g>
    <g id="text_10">
     <text style="font-size: 8px; font-family: 'Arial'; text-anchor: middle" x="41.744063" y="85.889938" transform="rotate(-0 41.744063 85.889938)">phase</text>
    </g>
   </g>
   <g id="matplotlib.axis_4">
    <g id="ytick_3">
     <g id="line2d_15">
      <g>
       <use xlink:href="#m0bbf67312f" x="10.44775" y="62.3895" style="stroke: #000000; stroke-width: 0.25"/>
      </g>
     </g>
     <g id="text_11">
      <text style="font-size: 6px; font-family: 'Arial'; text-anchor: end" x="7.24775" y="64.536844" transform="rotate(-0 7.24775 64.536844)">0</text>
     </g>
    </g>
    <g id="ytick_4">
     <g id="line2d_16">
      <g>
       <use xlink:href="#m0bbf67312f" x="10.44775" y="45.6285" style="stroke: #000000; stroke-width: 0.25"/>
      </g>
     </g>
     <g id="text_12">
      <text style="font-size: 6px; font-family: 'Arial'; text-anchor: end" x="7.24775" y="47.775844" transform="rotate(-0 7.24775 47.775844)">3</text>
     </g>
    </g>
    <g id="text_13">
     <text style="font-size: 8px; font-family: 'Arial'; text-anchor: middle" x="0.821188" y="54.009" transform="rotate(-90 0.821188 54.009)">normalized rate</text>
    </g>
   </g>
   <g id="LineCollection_2">
    <path d="M 41.743596 73.5635 
L 41.743596 40.0415 
" clip-path="url(#pdf1e4fe0b2)" style="fill: none; stroke-dasharray: 0.75,1.2375; stroke-dashoffset: 0; stroke: #b33b24; stroke-width: 0.75"/>
   </g>
   <g id="line2d_17">
    <path d="M -1 57.149505 
L 1.948236 58.142888 
L 5.472549 59.080106 
L 9.290554 59.860392 
L 13.402251 60.475777 
L 18.395027 61.0071 
L 22.213032 61.21479 
L 24.856266 61.180246 
L 26.618422 60.971119 
L 28.086886 60.593958 
L 29.261657 60.101228 
L 30.436428 59.389722 
L 31.611198 58.427517 
L 33.079662 56.877949 
L 35.135511 54.264749 
L 37.778745 50.945278 
L 38.953516 49.771027 
L 40.128286 48.922066 
L 41.009365 48.544889 
L 41.890443 48.413871 
L 42.771521 48.541569 
L 43.652599 48.908964 
L 44.82737 49.669197 
L 50.113838 53.421068 
L 52.757072 54.939524 
L 55.400307 56.211653 
L 58.337233 57.377046 
L 61.27416 58.316185 
L 64.798473 59.215503 
L 68.616478 59.961384 
L 73.021868 60.593911 
L 76.6 60.966917 
L 76.6 60.966917 
" clip-path="url(#pdf1e4fe0b2)" style="fill: none; stroke: #b33b24; stroke-width: 0.75; stroke-linecap: square"/>
   </g>
   <g id="line2d_18">
    <path d="M -1 56.713545 
L 13.989637 56.965005 
L 28.967964 56.86947 
L 40.128286 56.61466 
L 49.820145 56.582757 
L 58.337233 56.554233 
L 67.7354 56.827033 
L 76.6 57.133331 
L 76.6 57.133331 
" clip-path="url(#pdf1e4fe0b2)" style="fill: none; stroke: #ffa28d; stroke-width: 0.75; stroke-linecap: square"/>
   </g>
   <g id="patch_6">
    <path d="M 10.44775 67.9765 
L 10.44775 40.0415 
" style="fill: none; stroke: #000000; stroke-width: 0.25; stroke-linejoin: miter; stroke-linecap: square"/>
   </g>
   <g id="patch_7">
    <path d="M 12.44775 69.9765 
L 71.040375 69.9765 
" style="fill: none; stroke: #000000; stroke-width: 0.25; stroke-linejoin: miter; stroke-linecap: square"/>
   </g>
  </g>
 </g>
 <defs>
  <clipPath id="pc13bf87bdf">
   <rect x="12.44775" y="3.726" width="58.592625" height="27.935"/>
  </clipPath>
  <clipPath id="pdf1e4fe0b2">
   <rect x="12.44775" y="40.0415" width="58.592625" height="27.935"/>
  </clipPath>
 </defs>
</svg>
