<?xml version="1.0" encoding="utf-8" standalone="no"?>
<!DOCTYPE svg PUBLIC "-//W3C//DTD SVG 1.1//EN"
  "http://www.w3.org/Graphics/SVG/1.1/DTD/svg11.dtd">
<svg xmlns:xlink="http://www.w3.org/1999/xlink" width="43.2pt" height="41.04pt" viewBox="0 0 43.2 41.04" xmlns="http://www.w3.org/2000/svg" version="1.1">
 <metadata>
  <rdf:RDF xmlns:dc="http://purl.org/dc/elements/1.1/" xmlns:cc="http://creativecommons.org/ns#" xmlns:rdf="http://www.w3.org/1999/02/22-rdf-syntax-ns#">
   <cc:Work>
    <dc:type rdf:resource="http://purl.org/dc/dcmitype/StillImage"/>
    <dc:date>2025-09-04T17:39:58.538556</dc:date>
    <dc:format>image/svg+xml</dc:format>
    <dc:creator>
     <cc:Agent>
      <dc:title>Matplotlib v3.10.3, https://matplotlib.org/</dc:title>
     </cc:Agent>
    </dc:creator>
   </cc:Work>
  </rdf:RDF>
 </metadata>
 <defs>
  <style type="text/css">*{stroke-linejoin: round; stroke-linecap: butt}</style>
 </defs>
 <g id="figure_1">
  <g id="patch_1">
   <path d="M 0 41.04 
L 43.2 41.04 
L 43.2 0 
L 0 0 
L 0 41.04 
z
" style="fill: none"/>
  </g>
  <g id="axes_1">
   <g id="patch_2">
    <path d="M 5.4 36.5256 
L 38.88 36.5256 
L 38.88 4.9248 
L 5.4 4.9248 
L 5.4 36.5256 
z
" style="fill: none"/>
   </g>
   <g id="patch_3">
    <path d="M 7.4925 36.5256 
L 9.585 36.5256 
L 9.585 35.669745 
L 7.4925 35.669745 
z
" clip-path="url(#p01de55a678)" style="fill: #267655"/>
   </g>
   <g id="patch_4">
    <path d="M 9.585 36.5256 
L 11.6775 36.5256 
L 11.6775 35.60391 
L 9.585 35.60391 
z
" clip-path="url(#p01de55a678)" style="fill: #267655"/>
   </g>
   <g id="patch_5">
    <path d="M 11.6775 36.5256 
L 13.77 36.5256 
L 13.77 35.933085 
L 11.6775 35.933085 
z
" clip-path="url(#p01de55a678)" style="fill: #267655"/>
   </g>
   <g id="patch_6">
    <path d="M 13.77 36.5256 
L 15.8625 36.5256 
L 15.8625 35.2089 
L 13.77 35.2089 
z
" clip-path="url(#p01de55a678)" style="fill: #267655"/>
   </g>
   <g id="patch_7">
    <path d="M 15.8625 36.5256 
L 17.955 36.5256 
L 17.955 35.538075 
L 15.8625 35.538075 
z
" clip-path="url(#p01de55a678)" style="fill: #267655"/>
   </g>
   <g id="patch_8">
    <path d="M 17.955 36.5256 
L 20.0475 36.5256 
L 20.0475 35.011395 
L 17.955 35.011395 
z
" clip-path="url(#p01de55a678)" style="fill: #267655"/>
   </g>
   <g id="patch_9">
    <path d="M 20.0475 36.5256 
L 22.14 36.5256 
L 22.14 29.349585 
L 20.0475 29.349585 
z
" clip-path="url(#p01de55a678)" style="fill: #267655"/>
   </g>
   <g id="patch_10">
    <path d="M 22.14 36.5256 
L 24.2325 36.5256 
L 24.2325 24.477795 
L 22.14 24.477795 
z
" clip-path="url(#p01de55a678)" style="fill: #267655"/>
   </g>
   <g id="patch_11">
    <path d="M 24.2325 36.5256 
L 26.325 36.5256 
L 26.325 33.8922 
L 24.2325 33.8922 
z
" clip-path="url(#p01de55a678)" style="fill: #267655"/>
   </g>
   <g id="patch_12">
    <path d="M 26.325 36.5256 
L 28.4175 36.5256 
L 28.4175 33.8922 
L 26.325 33.8922 
z
" clip-path="url(#p01de55a678)" style="fill: #267655"/>
   </g>
   <g id="patch_13">
    <path d="M 28.4175 36.5256 
L 30.51 36.5256 
L 30.51 35.011395 
L 28.4175 35.011395 
z
" clip-path="url(#p01de55a678)" style="fill: #267655"/>
   </g>
   <g id="patch_14">
    <path d="M 30.51 36.5256 
L 32.6025 36.5256 
L 32.6025 34.353045 
L 30.51 34.353045 
z
" clip-path="url(#p01de55a678)" style="fill: #267655"/>
   </g>
   <g id="patch_15">
    <path d="M 32.6025 36.5256 
L 34.695 36.5256 
L 34.695 33.49719 
L 32.6025 33.49719 
z
" clip-path="url(#p01de55a678)" style="fill: #267655"/>
   </g>
   <g id="patch_16">
    <path d="M 34.695 36.5256 
L 36.7875 36.5256 
L 36.7875 33.694695 
L 34.695 33.694695 
z
" clip-path="url(#p01de55a678)" style="fill: #267655"/>
   </g>
   <g id="patch_17">
    <path d="M 36.7875 36.5256 
L 38.88 36.5256 
L 38.88 34.28721 
L 36.7875 34.28721 
z
" clip-path="url(#p01de55a678)" style="fill: #267655"/>
   </g>
   <g id="patch_18">
    <path d="M 38.88 36.5256 
L 40.9725 36.5256 
L 40.9725 34.879725 
L 38.88 34.879725 
z
" clip-path="url(#p01de55a678)" style="fill: #267655"/>
   </g>
   <g id="patch_19">
    <path d="M 40.9725 36.5256 
L 43.065 36.5256 
L 43.065 35.73558 
L 40.9725 35.73558 
z
" clip-path="url(#p01de55a678)" style="fill: #267655"/>
   </g>
   <g id="patch_20">
    <path d="M 43.065 36.5256 
L 45.1575 36.5256 
L 45.1575 35.86725 
L 43.065 35.86725 
z
" clip-path="url(#p01de55a678)" style="fill: #267655"/>
   </g>
   <g id="patch_21">
    <path d="M 45.1575 36.5256 
L 47.25 36.5256 
L 47.25 35.274735 
L 45.1575 35.274735 
z
" clip-path="url(#p01de55a678)" style="fill: #267655"/>
   </g>
   <g id="patch_22">
    <path d="M 47.25 36.5256 
L 49.3425 36.5256 
L 49.3425 35.99892 
L 47.25 35.99892 
z
" clip-path="url(#p01de55a678)" style="fill: #267655"/>
   </g>
   <g id="patch_23">
    <path d="M 49.3425 36.5256 
L 51.435 36.5256 
L 51.435 35.538075 
L 49.3425 35.538075 
z
" clip-path="url(#p01de55a678)" style="fill: #267655"/>
   </g>
   <g id="patch_24">
    <path d="M 51.435 36.5256 
L 53.5275 36.5256 
L 53.5275 35.801415 
L 51.435 35.801415 
z
" clip-path="url(#p01de55a678)" style="fill: #267655"/>
   </g>
   <g id="patch_25">
    <path d="M 53.5275 36.5256 
L 55.62 36.5256 
L 55.62 36.196425 
L 53.5275 36.196425 
z
" clip-path="url(#p01de55a678)" style="fill: #267655"/>
   </g>
   <g id="patch_26">
    <path d="M 55.62 36.5256 
L 57.7125 36.5256 
L 57.7125 36.196425 
L 55.62 36.196425 
z
" clip-path="url(#p01de55a678)" style="fill: #267655"/>
   </g>
   <g id="patch_27">
    <path d="M 57.7125 36.5256 
L 59.805 36.5256 
L 59.805 35.538075 
L 57.7125 35.538075 
z
" clip-path="url(#p01de55a678)" style="fill: #267655"/>
   </g>
   <g id="patch_28">
    <path d="M 59.805 36.5256 
L 61.8975 36.5256 
L 61.8975 35.669745 
L 59.805 35.669745 
z
" clip-path="url(#p01de55a678)" style="fill: #267655"/>
   </g>
   <g id="patch_29">
    <path d="M 61.8975 36.5256 
L 63.99 36.5256 
L 63.99 35.669745 
L 61.8975 35.669745 
z
" clip-path="url(#p01de55a678)" style="fill: #267655"/>
   </g>
   <g id="patch_30">
    <path d="M 63.99 36.5256 
L 66.0825 36.5256 
L 66.0825 35.47224 
L 63.99 35.47224 
z
" clip-path="url(#p01de55a678)" style="fill: #267655"/>
   </g>
   <g id="patch_31">
    <path d="M 66.0825 36.5256 
L 68.175 36.5256 
L 68.175 35.933085 
L 66.0825 35.933085 
z
" clip-path="url(#p01de55a678)" style="fill: #267655"/>
   </g>
   <g id="patch_32">
    <path d="M 68.175 36.5256 
L 70.2675 36.5256 
L 70.2675 35.274735 
L 68.175 35.274735 
z
" clip-path="url(#p01de55a678)" style="fill: #267655"/>
   </g>
   <g id="patch_33">
    <path d="M 70.2675 36.5256 
L 72.36 36.5256 
L 72.36 35.99892 
L 70.2675 35.99892 
z
" clip-path="url(#p01de55a678)" style="fill: #267655"/>
   </g>
   <g id="patch_34">
    <path d="M 72.36 36.5256 
L 74.4525 36.5256 
L 74.4525 35.933085 
L 72.36 35.933085 
z
" clip-path="url(#p01de55a678)" style="fill: #267655"/>
   </g>
   <g id="patch_35">
    <path d="M 74.4525 36.5256 
L 76.545 36.5256 
L 76.545 35.933085 
L 74.4525 35.933085 
z
" clip-path="url(#p01de55a678)" style="fill: #267655"/>
   </g>
   <g id="patch_36">
    <path d="M 76.545 36.5256 
L 78.6375 36.5256 
L 78.6375 35.86725 
L 76.545 35.86725 
z
" clip-path="url(#p01de55a678)" style="fill: #267655"/>
   </g>
   <g id="patch_37">
    <path d="M 78.6375 36.5256 
L 80.73 36.5256 
L 80.73 36.328095 
L 78.6375 36.328095 
z
" clip-path="url(#p01de55a678)" style="fill: #267655"/>
   </g>
   <g id="patch_38">
    <path d="M 80.73 36.5256 
L 82.8225 36.5256 
L 82.8225 36.196425 
L 80.73 36.196425 
z
" clip-path="url(#p01de55a678)" style="fill: #267655"/>
   </g>
   <g id="patch_39">
    <path d="M 82.8225 36.5256 
L 84.915 36.5256 
L 84.915 35.86725 
L 82.8225 35.86725 
z
" clip-path="url(#p01de55a678)" style="fill: #267655"/>
   </g>
   <g id="patch_40">
    <path d="M 84.915 36.5256 
L 87.0075 36.5256 
L 87.0075 36.26226 
L 84.915 36.26226 
z
" clip-path="url(#p01de55a678)" style="fill: #267655"/>
   </g>
   <g id="patch_41">
    <path d="M 87.0075 36.5256 
L 89.1 36.5256 
L 89.1 36.39393 
L 87.0075 36.39393 
z
" clip-path="url(#p01de55a678)" style="fill: #267655"/>
   </g>
   <g id="patch_42">
    <path d="M 89.1 36.5256 
L 91.1925 36.5256 
L 91.1925 36.459765 
L 89.1 36.459765 
z
" clip-path="url(#p01de55a678)" style="fill: #267655"/>
   </g>
   <g id="patch_43">
    <path d="M 91.1925 36.5256 
L 93.285 36.5256 
L 93.285 36.26226 
L 91.1925 36.26226 
z
" clip-path="url(#p01de55a678)" style="fill: #267655"/>
   </g>
   <g id="patch_44">
    <path d="M 93.285 36.5256 
L 95.3775 36.5256 
L 95.3775 36.39393 
L 93.285 36.39393 
z
" clip-path="url(#p01de55a678)" style="fill: #267655"/>
   </g>
   <g id="patch_45">
    <path d="M 95.3775 36.5256 
L 97.47 36.5256 
L 97.47 36.39393 
L 95.3775 36.39393 
z
" clip-path="url(#p01de55a678)" style="fill: #267655"/>
   </g>
   <g id="patch_46">
    <path d="M 97.47 36.5256 
L 99.5625 36.5256 
L 99.5625 36.39393 
L 97.47 36.39393 
z
" clip-path="url(#p01de55a678)" style="fill: #267655"/>
   </g>
   <g id="patch_47">
    <path d="M 99.5625 36.5256 
L 101.655 36.5256 
L 101.655 36.328095 
L 99.5625 36.328095 
z
" clip-path="url(#p01de55a678)" style="fill: #267655"/>
   </g>
   <g id="patch_48">
    <path d="M 101.655 36.5256 
L 103.7475 36.5256 
L 103.7475 36.5256 
L 101.655 36.5256 
z
" clip-path="url(#p01de55a678)" style="fill: #267655"/>
   </g>
   <g id="patch_49">
    <path d="M 103.7475 36.5256 
L 105.84 36.5256 
L 105.84 36.39393 
L 103.7475 36.39393 
z
" clip-path="url(#p01de55a678)" style="fill: #267655"/>
   </g>
   <g id="patch_50">
    <path d="M 105.84 36.5256 
L 107.9325 36.5256 
L 107.9325 36.5256 
L 105.84 36.5256 
z
" clip-path="url(#p01de55a678)" style="fill: #267655"/>
   </g>
   <g id="patch_51">
    <path d="M 107.9325 36.5256 
L 110.025 36.5256 
L 110.025 36.5256 
L 107.9325 36.5256 
z
" clip-path="url(#p01de55a678)" style="fill: #267655"/>
   </g>
   <g id="patch_52">
    <path d="M 110.025 36.5256 
L 112.1175 36.5256 
L 112.1175 36.5256 
L 110.025 36.5256 
z
" clip-path="url(#p01de55a678)" style="fill: #267655"/>
   </g>
   <g id="patch_53">
    <path d="M 112.1175 36.5256 
L 114.21 36.5256 
L 114.21 36.5256 
L 112.1175 36.5256 
z
" clip-path="url(#p01de55a678)" style="fill: #267655"/>
   </g>
   <g id="patch_54">
    <path d="M 114.21 36.5256 
L 116.3025 36.5256 
L 116.3025 36.5256 
L 114.21 36.5256 
z
" clip-path="url(#p01de55a678)" style="fill: #267655"/>
   </g>
   <g id="patch_55">
    <path d="M 116.3025 36.5256 
L 118.395 36.5256 
L 118.395 36.5256 
L 116.3025 36.5256 
z
" clip-path="url(#p01de55a678)" style="fill: #267655"/>
   </g>
   <g id="patch_56">
    <path d="M 118.395 36.5256 
L 120.4875 36.5256 
L 120.4875 36.459765 
L 118.395 36.459765 
z
" clip-path="url(#p01de55a678)" style="fill: #267655"/>
   </g>
   <g id="patch_57">
    <path d="M 120.4875 36.5256 
L 122.58 36.5256 
L 122.58 36.5256 
L 120.4875 36.5256 
z
" clip-path="url(#p01de55a678)" style="fill: #267655"/>
   </g>
   <g id="patch_58">
    <path d="M 122.58 36.5256 
L 124.6725 36.5256 
L 124.6725 36.39393 
L 122.58 36.39393 
z
" clip-path="url(#p01de55a678)" style="fill: #267655"/>
   </g>
   <g id="patch_59">
    <path d="M 124.6725 36.5256 
L 126.765 36.5256 
L 126.765 36.39393 
L 124.6725 36.39393 
z
" clip-path="url(#p01de55a678)" style="fill: #267655"/>
   </g>
   <g id="patch_60">
    <path d="M 126.765 36.5256 
L 128.8575 36.5256 
L 128.8575 36.459765 
L 126.765 36.459765 
z
" clip-path="url(#p01de55a678)" style="fill: #267655"/>
   </g>
   <g id="patch_61">
    <path d="M 128.8575 36.5256 
L 130.95 36.5256 
L 130.95 36.39393 
L 128.8575 36.39393 
z
" clip-path="url(#p01de55a678)" style="fill: #267655"/>
   </g>
   <g id="patch_62">
    <path d="M 130.95 36.5256 
L 133.0425 36.5256 
L 133.0425 36.328095 
L 130.95 36.328095 
z
" clip-path="url(#p01de55a678)" style="fill: #267655"/>
   </g>
   <g id="patch_63">
    <path d="M 133.0425 36.5256 
L 135.135 36.5256 
L 135.135 36.5256 
L 133.0425 36.5256 
z
" clip-path="url(#p01de55a678)" style="fill: #267655"/>
   </g>
   <g id="patch_64">
    <path d="M 135.135 36.5256 
L 137.2275 36.5256 
L 137.2275 36.39393 
L 135.135 36.39393 
z
" clip-path="url(#p01de55a678)" style="fill: #267655"/>
   </g>
   <g id="patch_65">
    <path d="M 137.2275 36.5256 
L 139.32 36.5256 
L 139.32 36.328095 
L 137.2275 36.328095 
z
" clip-path="url(#p01de55a678)" style="fill: #267655"/>
   </g>
   <g id="patch_66">
    <path d="M 139.32 36.5256 
L 141.4125 36.5256 
L 141.4125 36.39393 
L 139.32 36.39393 
z
" clip-path="url(#p01de55a678)" style="fill: #267655"/>
   </g>
   <g id="patch_67">
    <path d="M 141.4125 36.5256 
L 143.505 36.5256 
L 143.505 36.459765 
L 141.4125 36.459765 
z
" clip-path="url(#p01de55a678)" style="fill: #267655"/>
   </g>
   <g id="patch_68">
    <path d="M 143.505 36.5256 
L 145.5975 36.5256 
L 145.5975 36.459765 
L 143.505 36.459765 
z
" clip-path="url(#p01de55a678)" style="fill: #267655"/>
   </g>
   <g id="patch_69">
    <path d="M 145.5975 36.5256 
L 147.69 36.5256 
L 147.69 36.39393 
L 145.5975 36.39393 
z
" clip-path="url(#p01de55a678)" style="fill: #267655"/>
   </g>
   <g id="patch_70">
    <path d="M 147.69 36.5256 
L 149.7825 36.5256 
L 149.7825 36.5256 
L 147.69 36.5256 
z
" clip-path="url(#p01de55a678)" style="fill: #267655"/>
   </g>
   <g id="patch_71">
    <path d="M 149.7825 36.5256 
L 151.875 36.5256 
L 151.875 36.459765 
L 149.7825 36.459765 
z
" clip-path="url(#p01de55a678)" style="fill: #267655"/>
   </g>
   <g id="patch_72">
    <path d="M 151.875 36.5256 
L 153.9675 36.5256 
L 153.9675 36.459765 
L 151.875 36.459765 
z
" clip-path="url(#p01de55a678)" style="fill: #267655"/>
   </g>
   <g id="patch_73">
    <path d="M 153.9675 36.5256 
L 156.06 36.5256 
L 156.06 36.459765 
L 153.9675 36.459765 
z
" clip-path="url(#p01de55a678)" style="fill: #267655"/>
   </g>
   <g id="patch_74">
    <path d="M 156.06 36.5256 
L 158.1525 36.5256 
L 158.1525 36.39393 
L 156.06 36.39393 
z
" clip-path="url(#p01de55a678)" style="fill: #267655"/>
   </g>
   <g id="patch_75">
    <path d="M 158.1525 36.5256 
L 160.245 36.5256 
L 160.245 36.459765 
L 158.1525 36.459765 
z
" clip-path="url(#p01de55a678)" style="fill: #267655"/>
   </g>
   <g id="patch_76">
    <path d="M 160.245 36.5256 
L 162.3375 36.5256 
L 162.3375 36.39393 
L 160.245 36.39393 
z
" clip-path="url(#p01de55a678)" style="fill: #267655"/>
   </g>
   <g id="patch_77">
    <path d="M 162.3375 36.5256 
L 164.43 36.5256 
L 164.43 36.328095 
L 162.3375 36.328095 
z
" clip-path="url(#p01de55a678)" style="fill: #267655"/>
   </g>
   <g id="patch_78">
    <path d="M 164.43 36.5256 
L 166.5225 36.5256 
L 166.5225 36.459765 
L 164.43 36.459765 
z
" clip-path="url(#p01de55a678)" style="fill: #267655"/>
   </g>
   <g id="patch_79">
    <path d="M 166.5225 36.5256 
L 168.615 36.5256 
L 168.615 36.39393 
L 166.5225 36.39393 
z
" clip-path="url(#p01de55a678)" style="fill: #267655"/>
   </g>
   <g id="patch_80">
    <path d="M 168.615 36.5256 
L 170.7075 36.5256 
L 170.7075 36.26226 
L 168.615 36.26226 
z
" clip-path="url(#p01de55a678)" style="fill: #267655"/>
   </g>
   <g id="patch_81">
    <path d="M 170.7075 36.5256 
L 172.8 36.5256 
L 172.8 36.328095 
L 170.7075 36.328095 
z
" clip-path="url(#p01de55a678)" style="fill: #267655"/>
   </g>
   <g id="patch_82">
    <path d="M 172.8 36.5256 
L 174.8925 36.5256 
L 174.8925 36.26226 
L 172.8 36.26226 
z
" clip-path="url(#p01de55a678)" style="fill: #267655"/>
   </g>
   <g id="patch_83">
    <path d="M 174.8925 36.5256 
L 176.985 36.5256 
L 176.985 36.196425 
L 174.8925 36.196425 
z
" clip-path="url(#p01de55a678)" style="fill: #267655"/>
   </g>
   <g id="patch_84">
    <path d="M 176.985 36.5256 
L 179.0775 36.5256 
L 179.0775 36.26226 
L 176.985 36.26226 
z
" clip-path="url(#p01de55a678)" style="fill: #267655"/>
   </g>
   <g id="patch_85">
    <path d="M 179.0775 36.5256 
L 181.17 36.5256 
L 181.17 35.99892 
L 179.0775 35.99892 
z
" clip-path="url(#p01de55a678)" style="fill: #267655"/>
   </g>
   <g id="patch_86">
    <path d="M 181.17 36.5256 
L 183.2625 36.5256 
L 183.2625 36.328095 
L 181.17 36.328095 
z
" clip-path="url(#p01de55a678)" style="fill: #267655"/>
   </g>
   <g id="patch_87">
    <path d="M 183.2625 36.5256 
L 185.355 36.5256 
L 185.355 36.459765 
L 183.2625 36.459765 
z
" clip-path="url(#p01de55a678)" style="fill: #267655"/>
   </g>
   <g id="patch_88">
    <path d="M 185.355 36.5256 
L 187.4475 36.5256 
L 187.4475 36.328095 
L 185.355 36.328095 
z
" clip-path="url(#p01de55a678)" style="fill: #267655"/>
   </g>
   <g id="patch_89">
    <path d="M 187.4475 36.5256 
L 189.54 36.5256 
L 189.54 36.328095 
L 187.4475 36.328095 
z
" clip-path="url(#p01de55a678)" style="fill: #267655"/>
   </g>
   <g id="patch_90">
    <path d="M 189.54 36.5256 
L 191.6325 36.5256 
L 191.6325 36.459765 
L 189.54 36.459765 
z
" clip-path="url(#p01de55a678)" style="fill: #267655"/>
   </g>
   <g id="patch_91">
    <path d="M 191.6325 36.5256 
L 193.725 36.5256 
L 193.725 36.328095 
L 191.6325 36.328095 
z
" clip-path="url(#p01de55a678)" style="fill: #267655"/>
   </g>
   <g id="patch_92">
    <path d="M 193.725 36.5256 
L 195.8175 36.5256 
L 195.8175 36.39393 
L 193.725 36.39393 
z
" clip-path="url(#p01de55a678)" style="fill: #267655"/>
   </g>
   <g id="patch_93">
    <path d="M 195.8175 36.5256 
L 197.91 36.5256 
L 197.91 36.39393 
L 195.8175 36.39393 
z
" clip-path="url(#p01de55a678)" style="fill: #267655"/>
   </g>
   <g id="patch_94">
    <path d="M 197.91 36.5256 
L 200.0025 36.5256 
L 200.0025 36.459765 
L 197.91 36.459765 
z
" clip-path="url(#p01de55a678)" style="fill: #267655"/>
   </g>
   <g id="patch_95">
    <path d="M 200.0025 36.5256 
L 202.095 36.5256 
L 202.095 36.39393 
L 200.0025 36.39393 
z
" clip-path="url(#p01de55a678)" style="fill: #267655"/>
   </g>
   <g id="patch_96">
    <path d="M 202.095 36.5256 
L 204.1875 36.5256 
L 204.1875 36.459765 
L 202.095 36.459765 
z
" clip-path="url(#p01de55a678)" style="fill: #267655"/>
   </g>
   <g id="patch_97">
    <path d="M 204.1875 36.5256 
L 206.28 36.5256 
L 206.28 36.39393 
L 204.1875 36.39393 
z
" clip-path="url(#p01de55a678)" style="fill: #267655"/>
   </g>
   <g id="patch_98">
    <path d="M 206.28 36.5256 
L 208.3725 36.5256 
L 208.3725 36.5256 
L 206.28 36.5256 
z
" clip-path="url(#p01de55a678)" style="fill: #267655"/>
   </g>
   <g id="patch_99">
    <path d="M 208.3725 36.5256 
L 210.465 36.5256 
L 210.465 36.459765 
L 208.3725 36.459765 
z
" clip-path="url(#p01de55a678)" style="fill: #267655"/>
   </g>
   <g id="patch_100">
    <path d="M 210.465 36.5256 
L 212.5575 36.5256 
L 212.5575 36.196425 
L 210.465 36.196425 
z
" clip-path="url(#p01de55a678)" style="fill: #267655"/>
   </g>
   <g id="patch_101">
    <path d="M 212.5575 36.5256 
L 214.65 36.5256 
L 214.65 36.328095 
L 212.5575 36.328095 
z
" clip-path="url(#p01de55a678)" style="fill: #267655"/>
   </g>
   <g id="patch_102">
    <path d="M 214.65 36.5256 
L 216.7425 36.5256 
L 216.7425 36.459765 
L 214.65 36.459765 
z
" clip-path="url(#p01de55a678)" style="fill: #267655"/>
   </g>
   <g id="patch_103">
    <path d="M 216.7425 36.5256 
L 218.835 36.5256 
L 218.835 36.459765 
L 216.7425 36.459765 
z
" clip-path="url(#p01de55a678)" style="fill: #267655"/>
   </g>
   <g id="patch_104">
    <path d="M 218.835 36.5256 
L 220.9275 36.5256 
L 220.9275 36.459765 
L 218.835 36.459765 
z
" clip-path="url(#p01de55a678)" style="fill: #267655"/>
   </g>
   <g id="patch_105">
    <path d="M 220.9275 36.5256 
L 223.02 36.5256 
L 223.02 36.5256 
L 220.9275 36.5256 
z
" clip-path="url(#p01de55a678)" style="fill: #267655"/>
   </g>
   <g id="patch_106">
    <path d="M 223.02 36.5256 
L 225.1125 36.5256 
L 225.1125 36.459765 
L 223.02 36.459765 
z
" clip-path="url(#p01de55a678)" style="fill: #267655"/>
   </g>
   <g id="patch_107">
    <path d="M 225.1125 36.5256 
L 227.205 36.5256 
L 227.205 36.39393 
L 225.1125 36.39393 
z
" clip-path="url(#p01de55a678)" style="fill: #267655"/>
   </g>
   <g id="patch_108">
    <path d="M 227.205 36.5256 
L 229.2975 36.5256 
L 229.2975 36.5256 
L 227.205 36.5256 
z
" clip-path="url(#p01de55a678)" style="fill: #267655"/>
   </g>
   <g id="patch_109">
    <path d="M 229.2975 36.5256 
L 231.39 36.5256 
L 231.39 36.5256 
L 229.2975 36.5256 
z
" clip-path="url(#p01de55a678)" style="fill: #267655"/>
   </g>
   <g id="patch_110">
    <path d="M 231.39 36.5256 
L 233.4825 36.5256 
L 233.4825 36.459765 
L 231.39 36.459765 
z
" clip-path="url(#p01de55a678)" style="fill: #267655"/>
   </g>
   <g id="patch_111">
    <path d="M 233.4825 36.5256 
L 235.575 36.5256 
L 235.575 36.459765 
L 233.4825 36.459765 
z
" clip-path="url(#p01de55a678)" style="fill: #267655"/>
   </g>
   <g id="patch_112">
    <path d="M 235.575 36.5256 
L 237.6675 36.5256 
L 237.6675 36.5256 
L 235.575 36.5256 
z
" clip-path="url(#p01de55a678)" style="fill: #267655"/>
   </g>
   <g id="patch_113">
    <path d="M 237.6675 36.5256 
L 239.76 36.5256 
L 239.76 36.5256 
L 237.6675 36.5256 
z
" clip-path="url(#p01de55a678)" style="fill: #267655"/>
   </g>
   <g id="patch_114">
    <path d="M 239.76 36.5256 
L 241.8525 36.5256 
L 241.8525 36.5256 
L 239.76 36.5256 
z
" clip-path="url(#p01de55a678)" style="fill: #267655"/>
   </g>
   <g id="patch_115">
    <path d="M 241.8525 36.5256 
L 243.945 36.5256 
L 243.945 36.5256 
L 241.8525 36.5256 
z
" clip-path="url(#p01de55a678)" style="fill: #267655"/>
   </g>
   <g id="patch_116">
    <path d="M 243.945 36.5256 
L 246.0375 36.5256 
L 246.0375 36.5256 
L 243.945 36.5256 
z
" clip-path="url(#p01de55a678)" style="fill: #267655"/>
   </g>
   <g id="patch_117">
    <path d="M 246.0375 36.5256 
L 248.13 36.5256 
L 248.13 36.5256 
L 246.0375 36.5256 
z
" clip-path="url(#p01de55a678)" style="fill: #267655"/>
   </g>
   <g id="patch_118">
    <path d="M 248.13 36.5256 
L 250.2225 36.5256 
L 250.2225 36.459765 
L 248.13 36.459765 
z
" clip-path="url(#p01de55a678)" style="fill: #267655"/>
   </g>
   <g id="patch_119">
    <path d="M 250.2225 36.5256 
L 252.315 36.5256 
L 252.315 36.5256 
L 250.2225 36.5256 
z
" clip-path="url(#p01de55a678)" style="fill: #267655"/>
   </g>
   <g id="patch_120">
    <path d="M 252.315 36.5256 
L 254.4075 36.5256 
L 254.4075 36.5256 
L 252.315 36.5256 
z
" clip-path="url(#p01de55a678)" style="fill: #267655"/>
   </g>
   <g id="patch_121">
    <path d="M 254.4075 36.5256 
L 256.5 36.5256 
L 256.5 36.5256 
L 254.4075 36.5256 
z
" clip-path="url(#p01de55a678)" style="fill: #267655"/>
   </g>
   <g id="patch_122">
    <path d="M 256.5 36.5256 
L 258.5925 36.5256 
L 258.5925 36.5256 
L 256.5 36.5256 
z
" clip-path="url(#p01de55a678)" style="fill: #267655"/>
   </g>
   <g id="patch_123">
    <path d="M 258.5925 36.5256 
L 260.685 36.5256 
L 260.685 36.5256 
L 258.5925 36.5256 
z
" clip-path="url(#p01de55a678)" style="fill: #267655"/>
   </g>
   <g id="patch_124">
    <path d="M 260.685 36.5256 
L 262.7775 36.5256 
L 262.7775 36.39393 
L 260.685 36.39393 
z
" clip-path="url(#p01de55a678)" style="fill: #267655"/>
   </g>
   <g id="matplotlib.axis_1">
    <g id="xtick_1">
     <g id="line2d_1">
      <defs>
       <path id="mf59f7db958" d="M 0 0 
L 0 1.7 
" style="stroke: #000000; stroke-width: 0.25"/>
      </defs>
      <g>
       <use xlink:href="#mf59f7db958" x="6.44625" y="37.5256" style="stroke: #000000; stroke-width: 0.25"/>
      </g>
     </g>
     <g id="text_1">
      <text style="font-size: 6px; font-family: 'Arial'; text-anchor: middle" x="6.44625" y="45.020288" transform="rotate(-0 6.44625 45.020288)">0</text>
     </g>
    </g>
    <g id="xtick_2">
     <g id="line2d_2">
      <g>
       <use xlink:href="#mf59f7db958" x="16.90875" y="37.5256" style="stroke: #000000; stroke-width: 0.25"/>
      </g>
     </g>
     <g id="text_2">
      <text style="font-size: 6px; font-family: 'Arial'; text-anchor: middle" x="16.90875" y="45.020288" transform="rotate(-0 16.90875 45.020288)">5</text>
     </g>
    </g>
    <g id="xtick_3">
     <g id="line2d_3">
      <g>
       <use xlink:href="#mf59f7db958" x="27.37125" y="37.5256" style="stroke: #000000; stroke-width: 0.25"/>
      </g>
     </g>
     <g id="text_3">
      <text style="font-size: 6px; font-family: 'Arial'; text-anchor: middle" x="27.37125" y="45.020288" transform="rotate(-0 27.37125 45.020288)">10</text>
     </g>
    </g>
    <g id="xtick_4">
     <g id="line2d_4">
      <g>
       <use xlink:href="#mf59f7db958" x="37.83375" y="37.5256" style="stroke: #000000; stroke-width: 0.25"/>
      </g>
     </g>
     <g id="text_4">
      <text style="font-size: 6px; font-family: 'Arial'; text-anchor: middle" x="37.83375" y="45.020288" transform="rotate(-0 37.83375 45.020288)">15</text>
     </g>
    </g>
    <g id="text_5">
     <text style="font-size: 8px; font-family: 'Arial'; text-anchor: middle" x="22.14" y="53.439037" transform="rotate(-0 22.14 53.439037)"># MNs active</text>
    </g>
   </g>
   <g id="matplotlib.axis_2">
    <g id="ytick_1">
     <g id="line2d_5">
      <defs>
       <path id="mbb784c175b" d="M 0 0 
L -1.7 0 
" style="stroke: #000000; stroke-width: 0.25"/>
      </defs>
      <g>
       <use xlink:href="#mbb784c175b" x="4.4" y="36.5256" style="stroke: #000000; stroke-width: 0.25"/>
      </g>
     </g>
     <g id="text_6">
      <text style="font-size: 6px; font-family: 'Arial'; text-anchor: end" x="1.2" y="38.672944" transform="rotate(-0 1.2 38.672944)">0</text>
     </g>
    </g>
    <g id="ytick_2">
     <g id="line2d_6">
      <g>
       <use xlink:href="#mbb784c175b" x="4.4" y="20.06685" style="stroke: #000000; stroke-width: 0.25"/>
      </g>
     </g>
     <g id="text_7">
      <text style="font-size: 6px; font-family: 'Arial'; text-anchor: end" x="1.2" y="22.214194" transform="rotate(-0 1.2 22.214194)">250</text>
     </g>
    </g>
    <g id="text_8">
     <text style="font-size: 8px; font-family: 'Arial'; text-anchor: middle" x="-11.899688" y="20.7252" transform="rotate(-90 -11.899688 20.7252)"># replicates</text>
    </g>
   </g>
   <g id="patch_125">
    <path d="M 4.4 36.5256 
L 4.4 4.9248 
" style="fill: none; stroke: #000000; stroke-width: 0.25; stroke-linejoin: miter; stroke-linecap: square"/>
   </g>
   <g id="patch_126">
    <path d="M 5.4 37.5256 
L 38.88 37.5256 
" style="fill: none; stroke: #000000; stroke-width: 0.25; stroke-linejoin: miter; stroke-linecap: square"/>
   </g>
  </g>
 </g>
 <defs>
  <clipPath id="p01de55a678">
   <rect x="5.4" y="4.9248" width="33.48" height="31.6008"/>
  </clipPath>
 </defs>
</svg>
