<?xml version="1.0" encoding="utf-8" standalone="no"?>
<!DOCTYPE svg PUBLIC "-//W3C//DTD SVG 1.1//EN"
  "http://www.w3.org/Graphics/SVG/1.1/DTD/svg11.dtd">
<svg xmlns:xlink="http://www.w3.org/1999/xlink" width="60.48pt" height="102.672pt" viewBox="0 0 60.48 102.672" xmlns="http://www.w3.org/2000/svg" version="1.1">
 <metadata>
  <rdf:RDF xmlns:dc="http://purl.org/dc/elements/1.1/" xmlns:cc="http://creativecommons.org/ns#" xmlns:rdf="http://www.w3.org/1999/02/22-rdf-syntax-ns#">
   <cc:Work>
    <dc:type rdf:resource="http://purl.org/dc/dcmitype/StillImage"/>
    <dc:date>2026-04-08T23:45:13.607177</dc:date>
    <dc:format>image/svg+xml</dc:format>
    <dc:creator>
     <cc:Agent>
      <dc:title>Matplotlib v3.10.7, https://matplotlib.org/</dc:title>
     </cc:Agent>
    </dc:creator>
   </cc:Work>
  </rdf:RDF>
 </metadata>
 <defs>
  <style type="text/css">*{stroke-linejoin: round; stroke-linecap: butt}</style>
 </defs>
 <g id="figure_1">
  <g id="patch_1">
   <path d="M 0 102.672 
L 60.48 102.672 
L 60.48 0 
L 0 0 
L 0 102.672 
z
" style="fill: none"/>
  </g>
  <g id="axes_1">
   <g id="patch_2">
    <path d="M 7.56 91.37808 
L 54.432 91.37808 
L 54.432 12.32064 
L 7.56 12.32064 
L 7.56 91.37808 
z
" style="fill: none"/>
   </g>
   <g id="FillBetweenPolyCollection_1">
    <path d="M 12.267482 82.810985 
L 12.226918 82.810985 
L 12.228857 82.13526 
L 12.233632 81.459534 
L 12.238991 80.783809 
L 12.243138 80.108083 
L 12.245556 79.432358 
L 12.246656 78.756632 
L 12.247053 78.080907 
L 12.247167 77.405181 
L 12.247194 76.729456 
L 12.247199 76.05373 
L 12.2472 75.378005 
L 12.2472 74.702279 
L 12.2472 74.026554 
L 12.2472 73.350828 
L 12.2472 72.675103 
L 12.247198 71.999377 
L 12.247189 71.323652 
L 12.247141 70.647926 
L 12.246939 69.972201 
L 12.246255 69.296475 
L 12.244356 68.62075 
L 12.240069 67.945024 
L 12.232226 67.269299 
L 12.220722 66.593573 
L 12.20757 65.917848 
L 12.196774 65.242122 
L 12.192512 64.566397 
L 12.196637 63.890671 
L 12.20743 63.214946 
L 12.220693 62.53922 
L 12.232303 61.863495 
L 12.240175 61.187769 
L 12.244425 60.512044 
L 12.246229 59.836318 
L 12.246619 59.160593 
L 12.245734 58.484867 
L 12.242239 57.809142 
L 12.232548 57.133416 
L 12.210182 56.457691 
L 12.165976 55.781965 
L 12.089077 55.10624 
L 11.967388 54.430514 
L 11.786584 53.754789 
L 11.529436 53.079063 
L 11.178417 52.403337 
L 10.722619 51.727612 
L 10.167962 51.051886 
L 9.548895 50.376161 
L 8.935761 49.700435 
L 8.42559 49.02471 
L 8.109077 48.348984 
L 8.02872 47.673259 
L 8.160077 46.997533 
L 8.432722 46.321808 
L 8.771872 45.646082 
L 9.127485 44.970357 
L 9.477889 44.294631 
L 9.818591 43.618906 
L 10.149589 42.94318 
L 10.466863 42.267455 
L 10.760855 41.591729 
L 11.022451 40.916004 
L 11.250286 40.240278 
L 11.450267 39.564553 
L 11.626621 38.888827 
L 11.77477 38.213102 
L 11.885279 37.537376 
L 11.955156 36.861651 
L 11.994129 36.185925 
L 12.019613 35.5102 
L 12.046114 34.834474 
L 12.078513 34.158749 
L 12.112916 33.483023 
L 12.142438 32.807298 
L 12.163009 32.131572 
L 12.175299 31.455847 
L 12.18231 30.780121 
L 12.186115 30.104396 
L 12.187237 29.42867 
L 12.186062 28.752945 
L 12.183523 28.077219 
L 12.180344 27.401494 
L 12.176517 26.725768 
L 12.172028 26.050043 
L 12.167955 25.374317 
L 12.166445 24.698592 
L 12.169342 24.022866 
L 12.176913 23.347141 
L 12.187969 22.671415 
L 12.200877 21.99569 
L 12.214071 21.319964 
L 12.225938 20.644239 
L 12.234917 19.968513 
L 12.239983 19.292788 
L 12.240912 18.617062 
L 12.23825 17.941337 
L 12.233428 17.265611 
L 12.228811 16.589886 
L 12.226909 15.91416 
L 12.267491 15.91416 
L 12.267491 15.91416 
L 12.265589 16.589886 
L 12.260972 17.265611 
L 12.25615 17.941337 
L 12.253488 18.617062 
L 12.254417 19.292788 
L 12.259483 19.968513 
L 12.268462 20.644239 
L 12.280329 21.319964 
L 12.293523 21.99569 
L 12.306431 22.671415 
L 12.317487 23.347141 
L 12.325058 24.022866 
L 12.327955 24.698592 
L 12.326445 25.374317 
L 12.322372 26.050043 
L 12.317883 26.725768 
L 12.314056 27.401494 
L 12.310877 28.077219 
L 12.308338 28.752945 
L 12.307163 29.42867 
L 12.308285 30.104396 
L 12.31209 30.780121 
L 12.319101 31.455847 
L 12.331391 32.131572 
L 12.351962 32.807298 
L 12.381484 33.483023 
L 12.415887 34.158749 
L 12.448286 34.834474 
L 12.474787 35.5102 
L 12.500271 36.185925 
L 12.539244 36.861651 
L 12.609121 37.537376 
L 12.71963 38.213102 
L 12.867779 38.888827 
L 13.044133 39.564553 
L 13.244114 40.240278 
L 13.471949 40.916004 
L 13.733545 41.591729 
L 14.027537 42.267455 
L 14.344811 42.94318 
L 14.675809 43.618906 
L 15.016511 44.294631 
L 15.366915 44.970357 
L 15.722528 45.646082 
L 16.061678 46.321808 
L 16.334323 46.997533 
L 16.46568 47.673259 
L 16.385323 48.348984 
L 16.06881 49.02471 
L 15.558639 49.700435 
L 14.945505 50.376161 
L 14.326438 51.051886 
L 13.771781 51.727612 
L 13.315983 52.403337 
L 12.964964 53.079063 
L 12.707816 53.754789 
L 12.527012 54.430514 
L 12.405323 55.10624 
L 12.328424 55.781965 
L 12.284218 56.457691 
L 12.261852 57.133416 
L 12.252161 57.809142 
L 12.248666 58.484867 
L 12.247781 59.160593 
L 12.248171 59.836318 
L 12.249975 60.512044 
L 12.254225 61.187769 
L 12.262097 61.863495 
L 12.273707 62.53922 
L 12.28697 63.214946 
L 12.297763 63.890671 
L 12.301888 64.566397 
L 12.297626 65.242122 
L 12.28683 65.917848 
L 12.273678 66.593573 
L 12.262174 67.269299 
L 12.254331 67.945024 
L 12.250044 68.62075 
L 12.248145 69.296475 
L 12.247461 69.972201 
L 12.247259 70.647926 
L 12.247211 71.323652 
L 12.247202 71.999377 
L 12.2472 72.675103 
L 12.2472 73.350828 
L 12.2472 74.026554 
L 12.2472 74.702279 
L 12.2472 75.378005 
L 12.247201 76.05373 
L 12.247206 76.729456 
L 12.247233 77.405181 
L 12.247347 78.080907 
L 12.247744 78.756632 
L 12.248844 79.432358 
L 12.251262 80.108083 
L 12.255409 80.783809 
L 12.260768 81.459534 
L 12.265543 82.13526 
L 12.267482 82.810985 
z
" clip-path="url(#pd2b4a99a70)" style="fill: #267655; fill-opacity: 0.5"/>
   </g>
   <g id="FillBetweenPolyCollection_2">
    <path d="M 21.767685 86.909057 
L 21.475515 86.909057 
L 21.463542 86.237894 
L 21.461407 85.56673 
L 21.468113 84.895567 
L 21.481239 84.224403 
L 21.4981 83.55324 
L 21.516588 82.882076 
L 21.53535 82.210913 
L 21.553468 81.539749 
L 21.570075 80.868586 
L 21.584247 80.197422 
L 21.595182 79.526258 
L 21.602494 78.855095 
L 21.606402 78.183931 
L 21.607702 77.512768 
L 21.607543 76.841604 
L 21.607104 76.170441 
L 21.607274 75.499277 
L 21.608457 74.828114 
L 21.610559 74.15695 
L 21.613155 73.485787 
L 21.61573 72.814623 
L 21.617894 72.14346 
L 21.619471 71.472296 
L 21.62047 70.801133 
L 21.620999 70.129969 
L 21.621167 69.458805 
L 21.621017 68.787642 
L 21.62051 68.116478 
L 21.61954 67.445315 
L 21.617998 66.774151 
L 21.615866 66.102988 
L 21.613312 65.431824 
L 21.610726 64.760661 
L 21.608644 64.089497 
L 21.607555 63.418334 
L 21.60767 62.74717 
L 21.608749 62.076007 
L 21.610065 61.404843 
L 21.610469 60.733679 
L 21.608501 60.062516 
L 21.602458 59.391352 
L 21.590429 58.720189 
L 21.570311 58.049025 
L 21.539762 57.377862 
L 21.495998 56.706698 
L 21.435314 56.035535 
L 21.352383 55.364371 
L 21.239708 54.693208 
L 21.087801 54.022044 
L 20.886586 53.350881 
L 20.628007 52.679717 
L 20.309063 52.008554 
L 19.934128 51.33739 
L 19.515752 50.666226 
L 19.074086 49.995063 
L 18.635718 49.323899 
L 18.232368 48.652736 
L 17.898864 47.981572 
L 17.669246 47.310409 
L 17.570747 46.639245 
L 17.61725 45.968082 
L 17.805021 45.296918 
L 18.112899 44.625755 
L 18.507012 43.954591 
L 18.948069 43.283428 
L 19.398553 42.612264 
L 19.827854 41.941101 
L 20.214684 41.269937 
L 20.547138 40.598773 
L 20.821221 39.92761 
L 21.038743 39.256446 
L 21.205256 38.585283 
L 21.328391 37.914119 
L 21.416638 37.242956 
L 21.478363 36.571792 
L 21.520985 35.900629 
L 21.550356 35.229465 
L 21.570571 34.558302 
L 21.584248 33.887138 
L 21.593123 33.215975 
L 21.598602 32.544811 
L 21.602016 31.873647 
L 21.604551 31.202484 
L 21.607028 30.53132 
L 21.609769 29.860157 
L 21.612666 29.188993 
L 21.615393 28.51783 
L 21.617638 27.846666 
L 21.61923 27.175503 
L 21.620143 26.504339 
L 21.620413 25.833176 
L 21.620064 25.162012 
L 21.619072 24.490849 
L 21.617413 23.819685 
L 21.615155 23.148522 
L 21.612553 22.477358 
L 21.610065 21.806194 
L 21.608254 21.135031 
L 21.607589 20.463867 
L 21.635611 20.463867 
L 21.635611 20.463867 
L 21.634946 21.135031 
L 21.633135 21.806194 
L 21.630647 22.477358 
L 21.628045 23.148522 
L 21.625787 23.819685 
L 21.624128 24.490849 
L 21.623136 25.162012 
L 21.622787 25.833176 
L 21.623057 26.504339 
L 21.62397 27.175503 
L 21.625562 27.846666 
L 21.627807 28.51783 
L 21.630534 29.188993 
L 21.633431 29.860157 
L 21.636172 30.53132 
L 21.638649 31.202484 
L 21.641184 31.873647 
L 21.644598 32.544811 
L 21.650077 33.215975 
L 21.658952 33.887138 
L 21.672629 34.558302 
L 21.692844 35.229465 
L 21.722215 35.900629 
L 21.764837 36.571792 
L 21.826562 37.242956 
L 21.914809 37.914119 
L 22.037944 38.585283 
L 22.204457 39.256446 
L 22.421979 39.92761 
L 22.696062 40.598773 
L 23.028516 41.269937 
L 23.415346 41.941101 
L 23.844647 42.612264 
L 24.295131 43.283428 
L 24.736188 43.954591 
L 25.130301 44.625755 
L 25.438179 45.296918 
L 25.62595 45.968082 
L 25.672453 46.639245 
L 25.573954 47.310409 
L 25.344336 47.981572 
L 25.010832 48.652736 
L 24.607482 49.323899 
L 24.169114 49.995063 
L 23.727448 50.666226 
L 23.309072 51.33739 
L 22.934137 52.008554 
L 22.615193 52.679717 
L 22.356614 53.350881 
L 22.155399 54.022044 
L 22.003492 54.693208 
L 21.890817 55.364371 
L 21.807886 56.035535 
L 21.747202 56.706698 
L 21.703438 57.377862 
L 21.672889 58.049025 
L 21.652771 58.720189 
L 21.640742 59.391352 
L 21.634699 60.062516 
L 21.632731 60.733679 
L 21.633135 61.404843 
L 21.634451 62.076007 
L 21.63553 62.74717 
L 21.635645 63.418334 
L 21.634556 64.089497 
L 21.632474 64.760661 
L 21.629888 65.431824 
L 21.627334 66.102988 
L 21.625202 66.774151 
L 21.62366 67.445315 
L 21.62269 68.116478 
L 21.622183 68.787642 
L 21.622033 69.458805 
L 21.622201 70.129969 
L 21.62273 70.801133 
L 21.623729 71.472296 
L 21.625306 72.14346 
L 21.62747 72.814623 
L 21.630045 73.485787 
L 21.632641 74.15695 
L 21.634743 74.828114 
L 21.635926 75.499277 
L 21.636096 76.170441 
L 21.635657 76.841604 
L 21.635498 77.512768 
L 21.636798 78.183931 
L 21.640706 78.855095 
L 21.648018 79.526258 
L 21.658953 80.197422 
L 21.673125 80.868586 
L 21.689732 81.539749 
L 21.70785 82.210913 
L 21.726612 82.882076 
L 21.7451 83.55324 
L 21.761961 84.224403 
L 21.775087 84.895567 
L 21.781793 85.56673 
L 21.779658 86.237894 
L 21.767685 86.909057 
z
" clip-path="url(#pd2b4a99a70)" style="fill: #267655; fill-opacity: 0.5"/>
   </g>
   <g id="FillBetweenPolyCollection_3">
    <path d="M 31.443152 87.504164 
L 30.548848 87.504164 
L 30.523196 86.974742 
L 30.503288 86.44532 
L 30.489848 85.915899 
L 30.483328 85.386477 
L 30.483877 84.857055 
L 30.491345 84.327634 
L 30.505293 83.798212 
L 30.525037 83.268791 
L 30.549698 82.739369 
L 30.578265 82.209947 
L 30.609659 81.680526 
L 30.642802 81.151104 
L 30.676666 80.621683 
L 30.710325 80.092261 
L 30.742986 79.562839 
L 30.774009 79.033418 
L 30.802914 78.503996 
L 30.829379 77.974574 
L 30.853226 77.445153 
L 30.874401 76.915731 
L 30.892957 76.38631 
L 30.909022 75.856888 
L 30.922783 75.327466 
L 30.934459 74.798045 
L 30.944285 74.268623 
L 30.952496 73.739201 
L 30.959315 73.20978 
L 30.964944 72.680358 
L 30.969559 72.150937 
L 30.973307 71.621515 
L 30.976307 71.092093 
L 30.978648 70.562672 
L 30.980396 70.03325 
L 30.981591 69.503828 
L 30.982257 68.974407 
L 30.982397 68.444985 
L 30.982001 67.915564 
L 30.981046 67.386142 
L 30.979494 66.85672 
L 30.977291 66.327299 
L 30.974369 65.797877 
L 30.970634 65.268455 
L 30.965967 64.739034 
L 30.960213 64.209612 
L 30.953171 63.680191 
L 30.944589 63.150769 
L 30.934149 62.621347 
L 30.92146 62.091926 
L 30.906045 61.562504 
L 30.887337 61.033083 
L 30.864676 60.503661 
L 30.837308 59.974239 
L 30.804396 59.444818 
L 30.765039 58.915396 
L 30.718295 58.385974 
L 30.663226 57.856553 
L 30.598942 57.327131 
L 30.524666 56.79771 
L 30.439797 56.268288 
L 30.343987 55.738866 
L 30.23721 55.209445 
L 30.119835 54.680023 
L 29.992684 54.150601 
L 29.857067 53.62118 
L 29.714806 53.091758 
L 29.568223 52.562337 
L 29.420097 52.032915 
L 29.27359 51.503493 
L 29.132143 50.974072 
L 28.99934 50.44465 
L 28.878756 49.915228 
L 28.773791 49.385807 
L 28.687507 48.856385 
L 28.622469 48.326964 
L 28.580619 47.797542 
L 28.56317 47.26812 
L 28.570554 46.738699 
L 28.602403 46.209277 
L 28.657578 45.679856 
L 28.734245 45.150434 
L 28.829975 44.621012 
L 28.941886 44.091591 
L 29.066781 43.562169 
L 29.20131 43.032747 
L 29.342116 42.503326 
L 29.485966 41.973904 
L 29.629865 41.444483 
L 29.771146 40.915061 
L 29.907527 40.385639 
L 30.037148 39.856218 
L 30.15858 39.326796 
L 30.270813 38.797374 
L 30.373229 38.267953 
L 30.465561 37.738531 
L 30.547846 37.20911 
L 30.620369 36.679688 
L 30.683611 36.150266 
L 30.7382 35.620845 
L 30.784857 35.091423 
L 31.207143 35.091423 
L 31.207143 35.091423 
L 31.2538 35.620845 
L 31.308389 36.150266 
L 31.371631 36.679688 
L 31.444154 37.20911 
L 31.526439 37.738531 
L 31.618771 38.267953 
L 31.721187 38.797374 
L 31.83342 39.326796 
L 31.954852 39.856218 
L 32.084473 40.385639 
L 32.220854 40.915061 
L 32.362135 41.444483 
L 32.506034 41.973904 
L 32.649884 42.503326 
L 32.79069 43.032747 
L 32.925219 43.562169 
L 33.050114 44.091591 
L 33.162025 44.621012 
L 33.257755 45.150434 
L 33.334422 45.679856 
L 33.389597 46.209277 
L 33.421446 46.738699 
L 33.42883 47.26812 
L 33.411381 47.797542 
L 33.369531 48.326964 
L 33.304493 48.856385 
L 33.218209 49.385807 
L 33.113244 49.915228 
L 32.99266 50.44465 
L 32.859857 50.974072 
L 32.71841 51.503493 
L 32.571903 52.032915 
L 32.423777 52.562337 
L 32.277194 53.091758 
L 32.134933 53.62118 
L 31.999316 54.150601 
L 31.872165 54.680023 
L 31.75479 55.209445 
L 31.648013 55.738866 
L 31.552203 56.268288 
L 31.467334 56.79771 
L 31.393058 57.327131 
L 31.328774 57.856553 
L 31.273705 58.385974 
L 31.226961 58.915396 
L 31.187604 59.444818 
L 31.154692 59.974239 
L 31.127324 60.503661 
L 31.104663 61.033083 
L 31.085955 61.562504 
L 31.07054 62.091926 
L 31.057851 62.621347 
L 31.047411 63.150769 
L 31.038829 63.680191 
L 31.031787 64.209612 
L 31.026033 64.739034 
L 31.021366 65.268455 
L 31.017631 65.797877 
L 31.014709 66.327299 
L 31.012506 66.85672 
L 31.010954 67.386142 
L 31.009999 67.915564 
L 31.009603 68.444985 
L 31.009743 68.974407 
L 31.010409 69.503828 
L 31.011604 70.03325 
L 31.013352 70.562672 
L 31.015693 71.092093 
L 31.018693 71.621515 
L 31.022441 72.150937 
L 31.027056 72.680358 
L 31.032685 73.20978 
L 31.039504 73.739201 
L 31.047715 74.268623 
L 31.057541 74.798045 
L 31.069217 75.327466 
L 31.082978 75.856888 
L 31.099043 76.38631 
L 31.117599 76.915731 
L 31.138774 77.445153 
L 31.162621 77.974574 
L 31.189086 78.503996 
L 31.217991 79.033418 
L 31.249014 79.562839 
L 31.281675 80.092261 
L 31.315334 80.621683 
L 31.349198 81.151104 
L 31.382341 81.680526 
L 31.413735 82.209947 
L 31.442302 82.739369 
L 31.466963 83.268791 
L 31.486707 83.798212 
L 31.500655 84.327634 
L 31.508123 84.857055 
L 31.508672 85.386477 
L 31.502152 85.915899 
L 31.488712 86.44532 
L 31.468804 86.974742 
L 31.443152 87.504164 
z
" clip-path="url(#pd2b4a99a70)" style="fill: #267655; fill-opacity: 0.5"/>
   </g>
   <g id="FillBetweenPolyCollection_4">
    <path d="M 41.287812 87.78456 
L 39.452988 87.78456 
L 39.41064 87.293867 
L 39.373912 86.803174 
L 39.34349 86.312481 
L 39.319932 85.821787 
L 39.303643 85.331094 
L 39.294864 84.840401 
L 39.293673 84.349708 
L 39.299977 83.859015 
L 39.313523 83.368322 
L 39.333914 82.877628 
L 39.36062 82.386935 
L 39.393001 81.896242 
L 39.430334 81.405549 
L 39.471834 80.914856 
L 39.516683 80.424163 
L 39.564049 79.933469 
L 39.613114 79.442776 
L 39.663093 78.952083 
L 39.71325 78.46139 
L 39.762912 77.970697 
L 39.81148 77.480004 
L 39.858435 76.989311 
L 39.903342 76.498617 
L 39.945851 76.007924 
L 39.985693 75.517231 
L 40.022678 75.026538 
L 40.056688 74.535845 
L 40.08767 74.045152 
L 40.115625 73.554458 
L 40.140608 73.063765 
L 40.162709 72.573072 
L 40.182052 72.082379 
L 40.198785 71.591686 
L 40.213071 71.100993 
L 40.225083 70.610299 
L 40.234995 70.119606 
L 40.242979 69.628913 
L 40.249196 69.13822 
L 40.253793 68.647527 
L 40.256899 68.156834 
L 40.258617 67.66614 
L 40.259023 67.175447 
L 40.258164 66.684754 
L 40.256049 66.194061 
L 40.252655 65.703368 
L 40.247917 65.212675 
L 40.241736 64.721982 
L 40.233973 64.231288 
L 40.224453 63.740595 
L 40.212971 63.249902 
L 40.199294 62.759209 
L 40.18317 62.268516 
L 40.164333 61.777823 
L 40.14252 61.287129 
L 40.117472 60.796436 
L 40.088956 60.305743 
L 40.056775 59.81505 
L 40.020778 59.324357 
L 39.980881 58.833664 
L 39.937074 58.34297 
L 39.889433 57.852277 
L 39.838133 57.361584 
L 39.783454 56.870891 
L 39.725781 56.380198 
L 39.665609 55.889505 
L 39.603538 55.398812 
L 39.540266 54.908118 
L 39.476576 54.417425 
L 39.413321 53.926732 
L 39.351409 53.436039 
L 39.291774 52.945346 
L 39.23536 52.454653 
L 39.183092 51.963959 
L 39.135851 51.473266 
L 39.09445 50.982573 
L 39.059612 50.49188 
L 39.031949 50.001187 
L 39.011945 49.510494 
L 38.999944 49.0198 
L 38.996141 48.529107 
L 39.000578 48.038414 
L 39.013148 47.547721 
L 39.033595 47.057028 
L 39.061528 46.566335 
L 39.096436 46.075642 
L 39.1377 45.584948 
L 39.184613 45.094255 
L 39.236404 44.603562 
L 39.292251 44.112869 
L 39.351313 43.622176 
L 39.412738 43.131483 
L 39.475693 42.640789 
L 39.539372 42.150096 
L 39.603017 41.659403 
L 39.665928 41.16871 
L 39.727473 40.678017 
L 39.787098 40.187324 
L 39.844327 39.69663 
L 39.898768 39.205937 
L 40.842032 39.205937 
L 40.842032 39.205937 
L 40.896473 39.69663 
L 40.953702 40.187324 
L 41.013327 40.678017 
L 41.074872 41.16871 
L 41.137783 41.659403 
L 41.201428 42.150096 
L 41.265107 42.640789 
L 41.328062 43.131483 
L 41.389487 43.622176 
L 41.448549 44.112869 
L 41.504396 44.603562 
L 41.556187 45.094255 
L 41.6031 45.584948 
L 41.644364 46.075642 
L 41.679272 46.566335 
L 41.707205 47.057028 
L 41.727652 47.547721 
L 41.740222 48.038414 
L 41.744659 48.529107 
L 41.740856 49.0198 
L 41.728855 49.510494 
L 41.708851 50.001187 
L 41.681188 50.49188 
L 41.64635 50.982573 
L 41.604949 51.473266 
L 41.557708 51.963959 
L 41.50544 52.454653 
L 41.449026 52.945346 
L 41.389391 53.436039 
L 41.327479 53.926732 
L 41.264224 54.417425 
L 41.200534 54.908118 
L 41.137262 55.398812 
L 41.075191 55.889505 
L 41.015019 56.380198 
L 40.957346 56.870891 
L 40.902667 57.361584 
L 40.851367 57.852277 
L 40.803726 58.34297 
L 40.759919 58.833664 
L 40.720022 59.324357 
L 40.684025 59.81505 
L 40.651844 60.305743 
L 40.623328 60.796436 
L 40.59828 61.287129 
L 40.576467 61.777823 
L 40.55763 62.268516 
L 40.541506 62.759209 
L 40.527829 63.249902 
L 40.516347 63.740595 
L 40.506827 64.231288 
L 40.499064 64.721982 
L 40.492883 65.212675 
L 40.488145 65.703368 
L 40.484751 66.194061 
L 40.482636 66.684754 
L 40.481777 67.175447 
L 40.482183 67.66614 
L 40.483901 68.156834 
L 40.487007 68.647527 
L 40.491604 69.13822 
L 40.497821 69.628913 
L 40.505805 70.119606 
L 40.515717 70.610299 
L 40.527729 71.100993 
L 40.542015 71.591686 
L 40.558748 72.082379 
L 40.578091 72.573072 
L 40.600192 73.063765 
L 40.625175 73.554458 
L 40.65313 74.045152 
L 40.684112 74.535845 
L 40.718122 75.026538 
L 40.755107 75.517231 
L 40.794949 76.007924 
L 40.837458 76.498617 
L 40.882365 76.989311 
L 40.92932 77.480004 
L 40.977888 77.970697 
L 41.02755 78.46139 
L 41.077707 78.952083 
L 41.127686 79.442776 
L 41.176751 79.933469 
L 41.224117 80.424163 
L 41.268966 80.914856 
L 41.310466 81.405549 
L 41.347799 81.896242 
L 41.38018 82.386935 
L 41.406886 82.877628 
L 41.427277 83.368322 
L 41.440823 83.859015 
L 41.447127 84.349708 
L 41.445936 84.840401 
L 41.437157 85.331094 
L 41.420868 85.821787 
L 41.39731 86.312481 
L 41.366888 86.803174 
L 41.33016 87.293867 
L 41.287812 87.78456 
z
" clip-path="url(#pd2b4a99a70)" style="fill: #267655; fill-opacity: 0.5"/>
   </g>
   <g id="FillBetweenPolyCollection_5">
    <path d="M 51.231837 87.737412 
L 48.257763 87.737412 
L 48.183757 87.256409 
L 48.119537 86.775407 
L 48.066365 86.294404 
L 48.02525 85.813401 
L 47.996912 85.332398 
L 47.981767 84.851396 
L 47.979915 84.370393 
L 47.991153 83.88939 
L 48.014989 83.408387 
L 48.050668 82.927385 
L 48.097214 82.446382 
L 48.153469 81.965379 
L 48.218135 81.484376 
L 48.289825 81.003374 
L 48.367107 80.522371 
L 48.448543 80.041368 
L 48.53273 79.560365 
L 48.618333 79.079363 
L 48.70411 78.59836 
L 48.788931 78.117357 
L 48.871799 77.636354 
L 48.951851 77.155352 
L 49.02837 76.674349 
L 49.100779 76.193346 
L 49.168639 75.712343 
L 49.231639 75.231341 
L 49.289589 74.750338 
L 49.342408 74.269335 
L 49.390107 73.788332 
L 49.432781 73.30733 
L 49.470589 72.826327 
L 49.503743 72.345324 
L 49.532496 71.864322 
L 49.557126 71.383319 
L 49.577927 70.902316 
L 49.595195 70.421313 
L 49.609226 69.940311 
L 49.620298 69.459308 
L 49.628675 68.978305 
L 49.634593 68.497302 
L 49.638264 68.0163 
L 49.63987 67.535297 
L 49.639561 67.054294 
L 49.637458 66.573291 
L 49.63365 66.092289 
L 49.628203 65.611286 
L 49.621153 65.130283 
L 49.612516 64.64928 
L 49.602289 64.168278 
L 49.590454 63.687275 
L 49.576981 63.206272 
L 49.561832 62.725269 
L 49.544968 62.244267 
L 49.526349 61.763264 
L 49.505942 61.282261 
L 49.483725 60.801258 
L 49.459692 60.320256 
L 49.433856 59.839253 
L 49.40626 59.35825 
L 49.376974 58.877247 
L 49.346109 58.396245 
L 49.313818 57.915242 
L 49.280297 57.434239 
L 49.245794 56.953236 
L 49.210607 56.472234 
L 49.175086 55.991231 
L 49.139629 55.510228 
L 49.104681 55.029225 
L 49.070724 54.548223 
L 49.038269 54.06722 
L 49.007845 53.586217 
L 48.979985 53.105214 
L 48.955214 52.624212 
L 48.934028 52.143209 
L 48.916882 51.662206 
L 48.904171 51.181203 
L 48.896219 50.700201 
L 48.893262 50.219198 
L 48.895445 49.738195 
L 48.902807 49.257193 
L 48.915283 48.77619 
L 48.932704 48.295187 
L 48.954802 47.814184 
L 48.981216 47.333182 
L 49.011504 46.852179 
L 49.045159 46.371176 
L 49.081621 45.890173 
L 49.120299 45.409171 
L 49.160584 44.928168 
L 49.201868 44.447165 
L 49.243563 43.966162 
L 49.285112 43.48516 
L 49.326 43.004157 
L 49.365771 42.523154 
L 49.40403 42.042151 
L 49.440446 41.561149 
L 49.47476 41.080146 
L 49.50678 40.599143 
L 49.536379 40.11814 
L 49.953221 40.11814 
L 49.953221 40.11814 
L 49.98282 40.599143 
L 50.01484 41.080146 
L 50.049154 41.561149 
L 50.08557 42.042151 
L 50.123829 42.523154 
L 50.1636 43.004157 
L 50.204488 43.48516 
L 50.246037 43.966162 
L 50.287732 44.447165 
L 50.329016 44.928168 
L 50.369301 45.409171 
L 50.407979 45.890173 
L 50.444441 46.371176 
L 50.478096 46.852179 
L 50.508384 47.333182 
L 50.534798 47.814184 
L 50.556896 48.295187 
L 50.574317 48.77619 
L 50.586793 49.257193 
L 50.594155 49.738195 
L 50.596338 50.219198 
L 50.593381 50.700201 
L 50.585429 51.181203 
L 50.572718 51.662206 
L 50.555572 52.143209 
L 50.534386 52.624212 
L 50.509615 53.105214 
L 50.481755 53.586217 
L 50.451331 54.06722 
L 50.418876 54.548223 
L 50.384919 55.029225 
L 50.349971 55.510228 
L 50.314514 55.991231 
L 50.278993 56.472234 
L 50.243806 56.953236 
L 50.209303 57.434239 
L 50.175782 57.915242 
L 50.143491 58.396245 
L 50.112626 58.877247 
L 50.08334 59.35825 
L 50.055744 59.839253 
L 50.029908 60.320256 
L 50.005875 60.801258 
L 49.983658 61.282261 
L 49.963251 61.763264 
L 49.944632 62.244267 
L 49.927768 62.725269 
L 49.912619 63.206272 
L 49.899146 63.687275 
L 49.887311 64.168278 
L 49.877084 64.64928 
L 49.868447 65.130283 
L 49.861397 65.611286 
L 49.85595 66.092289 
L 49.852142 66.573291 
L 49.850039 67.054294 
L 49.84973 67.535297 
L 49.851336 68.0163 
L 49.855007 68.497302 
L 49.860925 68.978305 
L 49.869302 69.459308 
L 49.880374 69.940311 
L 49.894405 70.421313 
L 49.911673 70.902316 
L 49.932474 71.383319 
L 49.957104 71.864322 
L 49.985857 72.345324 
L 50.019011 72.826327 
L 50.056819 73.30733 
L 50.099493 73.788332 
L 50.147192 74.269335 
L 50.200011 74.750338 
L 50.257961 75.231341 
L 50.320961 75.712343 
L 50.388821 76.193346 
L 50.46123 76.674349 
L 50.537749 77.155352 
L 50.617801 77.636354 
L 50.700669 78.117357 
L 50.78549 78.59836 
L 50.871267 79.079363 
L 50.95687 79.560365 
L 51.041057 80.041368 
L 51.122493 80.522371 
L 51.199775 81.003374 
L 51.271465 81.484376 
L 51.336131 81.965379 
L 51.392386 82.446382 
L 51.438932 82.927385 
L 51.474611 83.408387 
L 51.498447 83.88939 
L 51.509685 84.370393 
L 51.507833 84.851396 
L 51.492688 85.332398 
L 51.46435 85.813401 
L 51.423235 86.294404 
L 51.370063 86.775407 
L 51.305843 87.256409 
L 51.231837 87.737412 
z
" clip-path="url(#pd2b4a99a70)" style="fill: #267655; fill-opacity: 0.5"/>
   </g>
   <g id="matplotlib.axis_1">
    <g id="xtick_1">
     <g id="line2d_1">
      <defs>
       <path id="m009c55c0b0" d="M 0 0 
L 0 1.7 
" style="stroke: #000000; stroke-width: 0.25"/>
      </defs>
      <g>
       <use xlink:href="#m009c55c0b0" x="12.2472" y="93.37808" style="stroke: #000000; stroke-width: 0.25"/>
      </g>
     </g>
     <g id="text_1">
      <text style="font-size: 6px; font-family: 'Arial'" transform="translate(10.984683 104.333495) rotate(-45)">65</text>
     </g>
    </g>
    <g id="xtick_2">
     <g id="line2d_2">
      <g>
       <use xlink:href="#m009c55c0b0" x="21.6216" y="93.37808" style="stroke: #000000; stroke-width: 0.25"/>
      </g>
     </g>
     <g id="text_2">
      <text style="font-size: 6px; font-family: 'Arial'" transform="translate(20.359083 104.333495) rotate(-45)">75</text>
     </g>
    </g>
    <g id="xtick_3">
     <g id="line2d_3">
      <g>
       <use xlink:href="#m009c55c0b0" x="30.996" y="93.37808" style="stroke: #000000; stroke-width: 0.25"/>
      </g>
     </g>
     <g id="text_3">
      <text style="font-size: 6px; font-family: 'Arial'" transform="translate(29.733483 104.333495) rotate(-45)">85</text>
     </g>
    </g>
    <g id="xtick_4">
     <g id="line2d_4">
      <g>
       <use xlink:href="#m009c55c0b0" x="40.3704" y="93.37808" style="stroke: #000000; stroke-width: 0.25"/>
      </g>
     </g>
     <g id="text_4">
      <text style="font-size: 6px; font-family: 'Arial'" transform="translate(39.107883 104.333495) rotate(-45)">95</text>
     </g>
    </g>
    <g id="xtick_5">
     <g id="line2d_5">
      <g>
       <use xlink:href="#m009c55c0b0" x="49.7448" y="93.37808" style="stroke: #000000; stroke-width: 0.25"/>
      </g>
     </g>
     <g id="text_5">
      <text style="font-size: 6px; font-family: 'Arial'" transform="translate(47.30263 106.692801) rotate(-45)">105</text>
     </g>
    </g>
    <g id="text_6">
     <text style="font-size: 8px; font-family: 'Arial'; text-anchor: middle" x="30.996" y="114.859775" transform="rotate(-0 30.996 114.859775)">|input to DNb08|</text>
    </g>
   </g>
   <g id="matplotlib.axis_2">
    <g id="ytick_1">
     <g id="line2d_6">
      <defs>
       <path id="m50553a2e99" d="M 0 0 
L -1.7 0 
" style="stroke: #000000; stroke-width: 0.25"/>
      </defs>
      <g>
       <use xlink:href="#m50553a2e99" x="5.56" y="90.226055" style="stroke: #000000; stroke-width: 0.25"/>
      </g>
     </g>
     <g id="text_7">
      <text style="font-size: 6px; font-family: 'Arial'; text-anchor: end" x="2.36" y="92.373399" transform="rotate(-0 2.36 92.373399)">0</text>
     </g>
    </g>
    <g id="ytick_2">
     <g id="line2d_7">
      <g>
       <use xlink:href="#m50553a2e99" x="5.56" y="73.134319" style="stroke: #000000; stroke-width: 0.25"/>
      </g>
     </g>
     <g id="text_8">
      <text style="font-size: 6px; font-family: 'Arial'; text-anchor: end" x="2.36" y="75.281663" transform="rotate(-0 2.36 75.281663)">5</text>
     </g>
    </g>
    <g id="ytick_3">
     <g id="line2d_8">
      <g>
       <use xlink:href="#m50553a2e99" x="5.56" y="56.042583" style="stroke: #000000; stroke-width: 0.25"/>
      </g>
     </g>
     <g id="text_9">
      <text style="font-size: 6px; font-family: 'Arial'; text-anchor: end" x="2.36" y="58.189927" transform="rotate(-0 2.36 58.189927)">10</text>
     </g>
    </g>
    <g id="ytick_4">
     <g id="line2d_9">
      <g>
       <use xlink:href="#m50553a2e99" x="5.56" y="38.950847" style="stroke: #000000; stroke-width: 0.25"/>
      </g>
     </g>
     <g id="text_10">
      <text style="font-size: 6px; font-family: 'Arial'; text-anchor: end" x="2.36" y="41.09819" transform="rotate(-0 2.36 41.09819)">15</text>
     </g>
    </g>
    <g id="ytick_5">
     <g id="line2d_10">
      <g>
       <use xlink:href="#m50553a2e99" x="5.56" y="21.85911" style="stroke: #000000; stroke-width: 0.25"/>
      </g>
     </g>
     <g id="text_11">
      <text style="font-size: 6px; font-family: 'Arial'; text-anchor: end" x="2.36" y="24.006454" transform="rotate(-0 2.36 24.006454)">20</text>
     </g>
    </g>
    <g id="text_12">
     <text style="font-size: 8px; font-family: 'Arial'" transform="translate(-16.075375 75.63811) rotate(-90)">motor neuron</text>
     <text style="font-size: 8px; font-family: 'Arial'" transform="translate(-7.496875 78.07811) rotate(-90)">frequency (Hz)</text>
    </g>
   </g>
   <g id="patch_3">
    <path d="M 11.30976 49.041141 
L 13.18464 49.041141 
L 13.18464 44.032172 
L 11.30976 44.032172 
L 11.30976 49.041141 
z
" clip-path="url(#pd2b4a99a70)" style="fill: #267655; opacity: 0.5; stroke: #2f2f2f; stroke-width: 0.75; stroke-linejoin: miter"/>
   </g>
   <g id="line2d_11">
    <path d="M 12.2472 49.041141 
L 12.2472 54.243452 
" clip-path="url(#pd2b4a99a70)" style="fill: none; stroke: #2f2f2f; stroke-width: 0.75"/>
   </g>
   <g id="line2d_12">
    <path d="M 12.2472 44.032172 
L 12.2472 36.81438 
" clip-path="url(#pd2b4a99a70)" style="fill: none; stroke: #2f2f2f; stroke-width: 0.75"/>
   </g>
   <g id="line2d_13">
    <path d="M 11.77848 54.243452 
L 12.71592 54.243452 
" clip-path="url(#pd2b4a99a70)" style="fill: none; stroke: #2f2f2f; stroke-width: 0.75; stroke-linecap: square"/>
   </g>
   <g id="line2d_14">
    <path d="M 11.77848 36.81438 
L 12.71592 36.81438 
" clip-path="url(#pd2b4a99a70)" style="fill: none; stroke: #2f2f2f; stroke-width: 0.75; stroke-linecap: square"/>
   </g>
   <g id="patch_4">
    <path d="M 20.68416 49.041141 
L 22.55904 49.041141 
L 22.55904 44.648093 
L 20.68416 44.648093 
L 20.68416 49.041141 
z
" clip-path="url(#pd2b4a99a70)" style="fill: #267655; opacity: 0.5; stroke: #2f2f2f; stroke-width: 0.75; stroke-linejoin: miter"/>
   </g>
   <g id="line2d_15">
    <path d="M 21.6216 49.041141 
L 21.6216 54.98536 
" clip-path="url(#pd2b4a99a70)" style="fill: none; stroke: #2f2f2f; stroke-width: 0.75"/>
   </g>
   <g id="line2d_16">
    <path d="M 21.6216 44.648093 
L 21.6216 38.432912 
" clip-path="url(#pd2b4a99a70)" style="fill: none; stroke: #2f2f2f; stroke-width: 0.75"/>
   </g>
   <g id="line2d_17">
    <path d="M 21.15288 54.98536 
L 22.09032 54.98536 
" clip-path="url(#pd2b4a99a70)" style="fill: none; stroke: #2f2f2f; stroke-width: 0.75; stroke-linecap: square"/>
   </g>
   <g id="line2d_18">
    <path d="M 21.15288 38.432912 
L 22.09032 38.432912 
" clip-path="url(#pd2b4a99a70)" style="fill: none; stroke: #2f2f2f; stroke-width: 0.75; stroke-linecap: square"/>
   </g>
   <g id="patch_5">
    <path d="M 30.05856 51.356804 
L 31.93344 51.356804 
L 31.93344 45.247798 
L 30.05856 45.247798 
L 30.05856 51.356804 
z
" clip-path="url(#pd2b4a99a70)" style="fill: #267655; opacity: 0.5; stroke: #2f2f2f; stroke-width: 0.75; stroke-linejoin: miter"/>
   </g>
   <g id="line2d_19">
    <path d="M 30.996 51.356804 
L 30.996 58.874085 
" clip-path="url(#pd2b4a99a70)" style="fill: none; stroke: #2f2f2f; stroke-width: 0.75"/>
   </g>
   <g id="line2d_20">
    <path d="M 30.996 45.247798 
L 30.996 37.499136 
" clip-path="url(#pd2b4a99a70)" style="fill: none; stroke: #2f2f2f; stroke-width: 0.75"/>
   </g>
   <g id="line2d_21">
    <path d="M 30.52728 58.874085 
L 31.46472 58.874085 
" clip-path="url(#pd2b4a99a70)" style="fill: none; stroke: #2f2f2f; stroke-width: 0.75; stroke-linecap: square"/>
   </g>
   <g id="line2d_22">
    <path d="M 30.52728 37.499136 
L 31.46472 37.499136 
" clip-path="url(#pd2b4a99a70)" style="fill: none; stroke: #2f2f2f; stroke-width: 0.75; stroke-linecap: square"/>
   </g>
   <g id="patch_6">
    <path d="M 39.43296 83.783645 
L 41.30784 83.783645 
L 41.30784 48.024237 
L 39.43296 48.024237 
L 39.43296 83.783645 
z
" clip-path="url(#pd2b4a99a70)" style="fill: #267655; opacity: 0.5; stroke: #2f2f2f; stroke-width: 0.75; stroke-linejoin: miter"/>
   </g>
   <g id="line2d_23">
    <path d="M 40.3704 83.783645 
L 40.3704 87.78456 
" clip-path="url(#pd2b4a99a70)" style="fill: none; stroke: #2f2f2f; stroke-width: 0.75"/>
   </g>
   <g id="line2d_24">
    <path d="M 40.3704 48.024237 
L 40.3704 39.205937 
" clip-path="url(#pd2b4a99a70)" style="fill: none; stroke: #2f2f2f; stroke-width: 0.75"/>
   </g>
   <g id="line2d_25">
    <path d="M 39.90168 87.78456 
L 40.83912 87.78456 
" clip-path="url(#pd2b4a99a70)" style="fill: none; stroke: #2f2f2f; stroke-width: 0.75; stroke-linecap: square"/>
   </g>
   <g id="line2d_26">
    <path d="M 39.90168 39.205937 
L 40.83912 39.205937 
" clip-path="url(#pd2b4a99a70)" style="fill: none; stroke: #2f2f2f; stroke-width: 0.75; stroke-linecap: square"/>
   </g>
   <g id="patch_7">
    <path d="M 48.80736 85.87757 
L 50.68224 85.87757 
L 50.68224 52.540004 
L 48.80736 52.540004 
L 48.80736 85.87757 
z
" clip-path="url(#pd2b4a99a70)" style="fill: #267655; opacity: 0.5; stroke: #2f2f2f; stroke-width: 0.75; stroke-linejoin: miter"/>
   </g>
   <g id="line2d_27">
    <path d="M 49.7448 85.87757 
L 49.7448 87.737412 
" clip-path="url(#pd2b4a99a70)" style="fill: none; stroke: #2f2f2f; stroke-width: 0.75"/>
   </g>
   <g id="line2d_28">
    <path d="M 49.7448 52.540004 
L 49.7448 40.11814 
" clip-path="url(#pd2b4a99a70)" style="fill: none; stroke: #2f2f2f; stroke-width: 0.75"/>
   </g>
   <g id="line2d_29">
    <path d="M 49.27608 87.737412 
L 50.21352 87.737412 
" clip-path="url(#pd2b4a99a70)" style="fill: none; stroke: #2f2f2f; stroke-width: 0.75; stroke-linecap: square"/>
   </g>
   <g id="line2d_30">
    <path d="M 49.27608 40.11814 
L 50.21352 40.11814 
" clip-path="url(#pd2b4a99a70)" style="fill: none; stroke: #2f2f2f; stroke-width: 0.75; stroke-linecap: square"/>
   </g>
   <g id="line2d_31">
    <path d="M 11.30976 46.955836 
L 13.18464 46.955836 
" clip-path="url(#pd2b4a99a70)" style="fill: none; stroke: #2f2f2f; stroke-width: 0.75"/>
   </g>
   <g id="line2d_32">
    <path d="M 20.68416 46.40109 
L 22.55904 46.40109 
" clip-path="url(#pd2b4a99a70)" style="fill: none; stroke: #2f2f2f; stroke-width: 0.75"/>
   </g>
   <g id="line2d_33">
    <path d="M 30.05856 48.024234 
L 31.93344 48.024234 
" clip-path="url(#pd2b4a99a70)" style="fill: none; stroke: #2f2f2f; stroke-width: 0.75"/>
   </g>
   <g id="line2d_34">
    <path d="M 39.43296 52.848577 
L 41.30784 52.848577 
" clip-path="url(#pd2b4a99a70)" style="fill: none; stroke: #2f2f2f; stroke-width: 0.75"/>
   </g>
   <g id="line2d_35">
    <path d="M 48.80736 81.537443 
L 50.68224 81.537443 
" clip-path="url(#pd2b4a99a70)" style="fill: none; stroke: #2f2f2f; stroke-width: 0.75"/>
   </g>
   <g id="patch_8">
    <path d="M 5.56 91.37808 
L 5.56 12.32064 
" style="fill: none; stroke: #000000; stroke-width: 0.25; stroke-linejoin: miter; stroke-linecap: square"/>
   </g>
   <g id="patch_9">
    <path d="M 7.56 93.37808 
L 54.432 93.37808 
" style="fill: none; stroke: #000000; stroke-width: 0.25; stroke-linejoin: miter; stroke-linecap: square"/>
   </g>
  </g>
 </g>
 <defs>
  <clipPath id="pd2b4a99a70">
   <rect x="7.56" y="12.32064" width="46.872" height="79.05744"/>
  </clipPath>
 </defs>
</svg>
