<?xml version="1.0" encoding="utf-8" standalone="no"?>
<!DOCTYPE svg PUBLIC "-//W3C//DTD SVG 1.1//EN"
  "http://www.w3.org/Graphics/SVG/1.1/DTD/svg11.dtd">
<svg xmlns:xlink="http://www.w3.org/1999/xlink" width="117.072pt" height="66.204pt" viewBox="0 0 117.072 66.204" xmlns="http://www.w3.org/2000/svg" version="1.1">
 <metadata>
  <rdf:RDF xmlns:dc="http://purl.org/dc/elements/1.1/" xmlns:cc="http://creativecommons.org/ns#" xmlns:rdf="http://www.w3.org/1999/02/22-rdf-syntax-ns#">
   <cc:Work>
    <dc:type rdf:resource="http://purl.org/dc/dcmitype/StillImage"/>
    <dc:date>2025-09-07T15:09:05.775736</dc:date>
    <dc:format>image/svg+xml</dc:format>
    <dc:creator>
     <cc:Agent>
      <dc:title>Matplotlib v3.10.3, https://matplotlib.org/</dc:title>
     </cc:Agent>
    </dc:creator>
   </cc:Work>
  </rdf:RDF>
 </metadata>
 <defs>
  <style type="text/css">*{stroke-linejoin: round; stroke-linecap: butt}</style>
 </defs>
 <g id="figure_1">
  <g id="patch_1">
   <path d="M 0 66.204 
L 117.072 66.204 
L 117.072 0 
L 0 0 
L 0 66.204 
z
" style="fill: none"/>
  </g>
  <g id="axes_1">
   <g id="patch_2">
    <path d="M 14.634 58.92156 
L 105.3648 58.92156 
L 105.3648 7.94448 
L 14.634 7.94448 
L 14.634 58.92156 
z
" style="fill: none"/>
   </g>
   <g id="matplotlib.axis_1">
    <g id="xtick_1">
     <g id="line2d_1">
      <defs>
       <path id="mb916f8b4ed" d="M 0 0 
L 0 1.7 
" style="stroke: #000000; stroke-width: 0.25"/>
      </defs>
      <g>
       <use xlink:href="#mb916f8b4ed" x="18.758127" y="58.92156" style="stroke: #000000; stroke-width: 0.25"/>
      </g>
     </g>
     <g id="text_1">
      <text style="font-size: 6px; font-family: 'Arial'; text-anchor: middle" x="18.758127" y="66.416247" transform="rotate(-0 18.758127 66.416247)">0.0</text>
     </g>
    </g>
    <g id="xtick_2">
     <g id="line2d_2">
      <g>
       <use xlink:href="#mb916f8b4ed" x="46.178893" y="58.92156" style="stroke: #000000; stroke-width: 0.25"/>
      </g>
     </g>
     <g id="text_2">
      <text style="font-size: 6px; font-family: 'Arial'; text-anchor: middle" x="46.178893" y="66.416247" transform="rotate(-0 46.178893 66.416247)">0.25</text>
     </g>
    </g>
    <g id="xtick_3">
     <g id="line2d_3">
      <g>
       <use xlink:href="#mb916f8b4ed" x="73.599659" y="58.92156" style="stroke: #000000; stroke-width: 0.25"/>
      </g>
     </g>
     <g id="text_3">
      <text style="font-size: 6px; font-family: 'Arial'; text-anchor: middle" x="73.599659" y="66.416247" transform="rotate(-0 73.599659 66.416247)">0.5</text>
     </g>
    </g>
    <g id="xtick_4">
     <g id="line2d_4">
      <g>
       <use xlink:href="#mb916f8b4ed" x="101.020426" y="58.92156" style="stroke: #000000; stroke-width: 0.25"/>
      </g>
     </g>
     <g id="text_4">
      <text style="font-size: 6px; font-family: 'Arial'; text-anchor: middle" x="101.020426" y="66.416247" transform="rotate(-0 101.020426 66.416247)">0.75</text>
     </g>
    </g>
    <g id="text_5">
     <text style="font-size: 8px; font-family: 'Arial'; text-anchor: middle" x="59.9994" y="74.932497" transform="rotate(-0 59.9994 74.932497)">time (s)</text>
    </g>
   </g>
   <g id="matplotlib.axis_2">
    <g id="ytick_1">
     <g id="line2d_5">
      <defs>
       <path id="m0b1d5e67eb" d="M 0 0 
L -1.7 0 
" style="stroke: #000000; stroke-width: 0.25"/>
      </defs>
      <g>
       <use xlink:href="#m0b1d5e67eb" x="14.634" y="56.60442" style="stroke: #000000; stroke-width: 0.25"/>
      </g>
     </g>
     <g id="text_6">
      <text style="font-size: 6px; font-family: 'Arial'; text-anchor: end" x="11.434" y="58.751764" transform="rotate(-0 11.434 58.751764)">0</text>
     </g>
    </g>
    <g id="ytick_2">
     <g id="line2d_6">
      <g>
       <use xlink:href="#m0b1d5e67eb" x="14.634" y="41.289435" style="stroke: #000000; stroke-width: 0.25"/>
      </g>
     </g>
     <g id="text_7">
      <text style="font-size: 6px; font-family: 'Arial'; text-anchor: end" x="11.434" y="43.436779" transform="rotate(-0 11.434 43.436779)">5</text>
     </g>
    </g>
    <g id="text_8">
     <text style="font-size: 8px; font-family: 'Arial'; text-anchor: middle" x="4.913687" y="33.43302" transform="rotate(-90 4.913687 33.43302)">firing rate (Hz)</text>
    </g>
   </g>
   <g id="line2d_7">
    <path d="M 18.758127 15.253961 
L 25.806035 15.218177 
L 26.026282 14.925918 
L 26.466776 13.796451 
L 27.017394 12.462457 
L 27.237641 12.240839 
L 27.457888 12.267053 
L 29.329989 13.87998 
L 30.431224 14.390083 
L 31.862831 14.781394 
L 33.734931 15.039245 
L 34.065302 14.996577 
L 34.285549 14.638663 
L 34.726043 13.220649 
L 35.386785 10.995234 
L 35.717155 10.541015 
L 35.937402 10.574829 
L 36.267773 11.058847 
L 37.148762 12.359821 
L 38.02975 13.257332 
L 39.020862 13.938974 
L 40.122098 14.427175 
L 41.553704 14.801684 
L 42.765063 14.920777 
L 42.98531 14.578444 
L 43.425804 13.153072 
L 44.086546 10.821531 
L 44.416916 10.29844 
L 44.637164 10.292546 
L 44.857411 10.543471 
L 45.848523 12.141904 
L 46.729511 13.106995 
L 47.720623 13.839964 
L 48.821859 14.364923 
L 50.143341 14.744529 
L 51.464824 14.938692 
L 51.685071 14.672156 
L 52.015442 13.749795 
L 53.006554 10.518505 
L 53.226801 10.322989 
L 53.447048 10.399838 
L 53.777419 10.926948 
L 54.548284 12.127033 
L 55.429272 13.096736 
L 56.420384 13.833207 
L 57.52162 14.360676 
L 58.843103 14.742096 
L 60.164585 14.95354 
L 60.384832 14.746019 
L 60.715203 13.88794 
L 61.706315 10.587887 
L 61.926562 10.343329 
L 62.146809 10.372844 
L 62.47718 10.856683 
L 63.248045 12.077923 
L 64.129033 13.06286 
L 65.120145 13.810896 
L 66.221381 14.346646 
L 67.542864 14.734054 
L 68.864346 14.955369 
L 69.084594 14.804342 
L 69.414964 14.011605 
L 70.5162 10.477551 
L 70.736447 10.323761 
L 70.956694 10.440342 
L 71.507312 11.368379 
L 72.3883 12.573353 
L 73.269289 13.404652 
L 74.260401 14.035999 
L 75.47176 14.522902 
L 77.01349 14.872182 
L 77.674231 14.942081 
L 77.894478 14.679716 
L 78.224849 13.762677 
L 79.215961 10.532456 
L 79.436208 10.334458 
L 79.656455 10.409907 
L 79.986826 10.930342 
L 80.757691 12.129504 
L 81.638679 13.098451 
L 82.629791 13.834332 
L 83.731027 14.361383 
L 85.05251 14.742502 
L 86.373992 14.95297 
L 86.594239 14.740995 
L 86.92461 13.878455 
L 87.915722 10.585363 
L 88.135969 10.344232 
L 88.356216 10.377307 
L 88.686587 10.86457 
L 89.457452 12.082018 
L 90.33844 13.065688 
L 91.329552 13.812759 
L 92.430788 14.347818 
L 93.752271 14.734729 
L 95.073753 14.95595 
L 95.294001 14.805458 
L 95.624371 14.013486 
L 96.725607 10.477726 
L 96.945854 10.32308 
L 97.166101 10.438712 
L 97.716719 11.368241 
L 98.597707 12.573266 
L 99.478696 13.404594 
L 100.469808 14.035961 
L 101.240673 14.373772 
L 101.240673 14.373772 
" clip-path="url(#pdcd8a65a48)" style="fill: none; stroke: #b33b24; stroke-width: 0.75; stroke-linecap: square"/>
   </g>
   <g id="line2d_8">
    <path d="M 18.758127 29.037447 
L 25.585788 28.934443 
L 25.806035 28.178001 
L 26.136406 25.923074 
L 26.907271 20.086912 
L 27.017394 19.883696 
L 27.127518 19.966889 
L 28.338877 23.677687 
L 29.109742 25.219322 
L 29.880607 26.317525 
L 30.761595 27.191495 
L 31.752707 27.843894 
L 32.853943 28.302221 
L 34.065302 28.606006 
L 34.175425 28.568213 
L 34.395673 27.883238 
L 34.726043 25.66647 
L 35.276661 21.955236 
L 35.386785 21.71858 
L 35.496908 21.759619 
L 36.598144 24.527725 
L 37.369009 25.824858 
L 38.249997 26.857131 
L 39.130986 27.557716 
L 40.232221 28.125935 
L 41.553704 28.527814 
L 42.875187 28.712539 
L 43.095434 28.058028 
L 43.425804 25.797954 
L 43.976422 21.80241 
L 44.196669 21.450549 
L 45.628276 24.956584 
L 46.399141 26.130367 
L 47.280129 27.064474 
L 48.271241 27.761767 
L 49.372477 28.25163 
L 50.804083 28.618871 
L 51.574948 28.735776 
L 51.685071 28.607169 
L 51.905318 27.72641 
L 52.345813 24.330311 
L 52.786307 21.597959 
L 52.89643 21.438289 
L 53.006554 21.579153 
L 53.997666 24.198295 
L 54.768531 25.590179 
L 55.649519 26.697864 
L 56.530508 27.449624 
L 57.52162 28.010794 
L 58.732979 28.434941 
L 60.274709 28.733825 
L 60.384832 28.678482 
L 60.60508 27.938202 
L 60.93545 25.600897 
L 61.486068 21.721963 
L 61.596192 21.465505 
L 61.706315 21.493144 
L 62.917674 24.579776 
L 63.688539 25.861944 
L 64.569528 26.882299 
L 65.450516 27.574799 
L 66.551752 28.136457 
L 67.873234 28.533697 
L 69.084594 28.723744 
L 69.304841 28.129744 
L 69.635211 25.93465 
L 70.185829 21.900778 
L 70.406076 21.48673 
L 70.736447 22.38451 
L 71.507312 24.298091 
L 72.278177 25.661273 
L 73.159165 26.746112 
L 74.040154 27.482367 
L 75.031266 28.031966 
L 76.242625 28.447367 
L 77.784355 28.73466 
L 77.894478 28.611565 
L 78.114725 27.743826 
L 78.55522 24.365274 
L 78.995714 21.628643 
L 79.105837 21.464526 
L 79.215961 21.595772 
L 80.096949 23.977045 
L 80.867814 25.432562 
L 81.638679 26.469437 
L 82.519668 27.294598 
L 83.51078 27.910553 
L 84.722139 28.376116 
L 86.263869 28.701842 
L 86.594239 28.678844 
L 86.814487 27.930031 
L 87.144857 25.586385 
L 87.695475 21.727288 
L 87.805599 21.478889 
L 87.915722 21.512354 
L 88.906834 24.152618 
L 89.677699 25.557647 
L 90.558688 26.675777 
L 91.439676 27.434636 
L 92.430788 28.001105 
L 93.642147 28.429253 
L 95.183877 28.728806 
L 95.294001 28.720671 
L 95.514248 28.124989 
L 95.844618 25.925694 
L 96.395236 21.883734 
L 96.615483 21.462575 
L 96.945854 22.380006 
L 97.716719 24.294881 
L 98.487584 25.658983 
L 99.368572 26.744561 
L 100.249561 27.481312 
L 101.240673 28.031282 
L 101.240673 28.031282 
" clip-path="url(#pdcd8a65a48)" style="fill: none; stroke: #6359ac; stroke-width: 0.75; stroke-linecap: square"/>
   </g>
   <g id="line2d_9">
    <path d="M 18.758127 42.820934 
L 26.026282 42.768605 
L 26.246529 42.428393 
L 26.797147 40.828306 
L 27.237641 39.871678 
L 27.457888 39.832407 
L 29.550236 41.631287 
L 30.651472 42.094126 
L 32.083078 42.437913 
L 34.065302 42.663156 
L 34.285549 42.594887 
L 34.505796 42.212645 
L 34.94629 40.789779 
L 35.496908 39.094703 
L 35.717155 38.871483 
L 35.937402 39.024515 
L 36.818391 40.259119 
L 37.699379 41.093713 
L 38.690491 41.712395 
L 39.901851 42.176241 
L 41.44358 42.497522 
L 42.98531 42.612843 
L 43.205557 42.286375 
L 43.646052 40.925472 
L 44.196669 39.209479 
L 44.416916 38.957753 
L 44.637164 39.083575 
L 45.518152 40.297603 
L 46.399141 41.119655 
L 47.390253 41.729048 
L 48.601612 42.185926 
L 50.143341 42.50238 
L 51.685071 42.649164 
L 51.905318 42.398373 
L 52.235689 41.507178 
L 53.006554 39.142883 
L 53.226801 39.000048 
L 53.447048 39.225474 
L 54.217913 40.275337 
L 55.098902 41.104639 
L 56.090014 41.719408 
L 57.301373 42.180321 
L 58.843103 42.499569 
L 60.384832 42.6598 
L 60.60508 42.467436 
L 60.93545 41.635647 
L 61.706315 39.202606 
L 61.926562 38.991628 
L 62.146809 39.161827 
L 63.027798 40.352407 
L 63.908786 41.156607 
L 64.899898 41.752763 
L 66.111258 42.199718 
L 67.652987 42.509299 
L 69.194717 42.632661 
L 69.414964 42.333212 
L 69.745335 41.395071 
L 70.406076 39.279533 
L 70.626323 39.007809 
L 70.846571 39.11296 
L 71.837683 40.435207 
L 72.718671 41.212429 
L 73.709783 41.78859 
L 74.921142 42.220555 
L 76.462872 42.519752 
L 77.894478 42.649608 
L 78.114725 42.402132 
L 78.445096 41.514702 
L 79.215961 39.147369 
L 79.436208 38.999657 
L 79.656455 39.220162 
L 80.42732 40.27156 
L 81.308309 41.102098 
L 82.299421 41.71778 
L 83.51078 42.179371 
L 85.05251 42.499094 
L 86.594239 42.659619 
L 86.814487 42.462926 
L 87.144857 41.627195 
L 87.915722 39.201692 
L 88.135969 38.995612 
L 88.356216 39.165223 
L 89.237205 40.354582 
L 90.118193 41.158067 
L 91.109305 41.753702 
L 92.320664 42.200264 
L 93.862394 42.509573 
L 95.404124 42.631759 
L 95.624371 42.332372 
L 95.954742 41.393862 
L 96.615483 39.276162 
L 96.83573 39.002884 
L 97.055977 39.105346 
L 98.04709 40.429384 
L 98.928078 41.208506 
L 99.91919 41.786072 
L 101.130549 42.219089 
L 101.240673 42.248025 
L 101.240673 42.248025 
" clip-path="url(#pdcd8a65a48)" style="fill: none; stroke: #db5079; stroke-width: 0.75; stroke-linecap: square"/>
   </g>
   <g id="line2d_10">
    <path d="M 18.758127 56.60442 
L 34.175425 56.538607 
L 34.395673 56.268311 
L 34.726043 55.459175 
L 35.496908 53.270805 
L 35.717155 53.037306 
L 35.937402 53.080035 
L 37.919626 55.266109 
L 38.910739 55.787989 
L 40.122098 56.158162 
L 41.773951 56.4086 
L 42.875187 56.411243 
L 43.205557 55.944321 
L 43.646052 54.661105 
L 44.196669 53.122428 
L 44.416916 52.85775 
L 44.637164 52.872098 
L 44.967534 53.35349 
L 45.738399 54.390429 
L 46.619388 55.177543 
L 47.6105 55.733959 
L 48.821859 56.12863 
L 50.363589 56.383856 
L 51.574948 56.447052 
L 51.795195 56.2478 
L 52.125566 55.568728 
L 53.006554 53.140737 
L 53.226801 52.960796 
L 53.447048 53.064046 
L 54.768531 54.75158 
L 55.649519 55.410296 
L 56.640631 55.875949 
L 57.962114 56.227517 
L 59.724091 56.44787 
L 60.384832 56.408172 
L 60.715203 55.940741 
L 61.155697 54.674962 
L 61.706315 53.209528 
L 61.926562 52.982293 
L 62.146809 53.03092 
L 63.798663 55.015046 
L 64.679651 55.580096 
L 65.780887 56.012925 
L 67.212493 56.31474 
L 68.97447 56.47665 
L 69.194717 56.342456 
L 69.525088 55.772182 
L 70.626323 52.995729 
L 70.846571 52.997821 
L 71.176941 53.452843 
L 71.947806 54.458626 
L 72.828795 55.221494 
L 73.819907 55.760771 
L 75.031266 56.143286 
L 76.683119 56.402072 
L 77.784355 56.451533 
L 78.004602 56.254194 
L 78.334973 55.578505 
L 79.326085 53.026035 
L 79.546332 52.982179 
L 79.766579 53.221497 
L 80.537444 54.301009 
L 81.418432 55.119909 
L 82.409544 55.698801 
L 83.51078 56.08147 
L 85.05251 56.361994 
L 86.484116 56.46554 
L 86.704363 56.296968 
L 87.034734 55.6692 
L 88.025846 53.055786 
L 88.246093 52.968405 
L 88.46634 53.166316 
L 89.237205 54.260934 
L 90.00807 55.008828 
L 90.889058 55.57609 
L 91.990294 56.01061 
L 93.4219 56.313606 
L 95.183877 56.476892 
L 95.404124 56.344665 
L 95.734495 55.777352 
L 96.83573 53.00041 
L 97.055977 53.001493 
L 97.386348 53.461099 
L 98.157213 54.46397 
L 99.038202 55.224938 
L 100.029314 55.762873 
L 101.240673 56.144433 
L 101.240673 56.144433 
" clip-path="url(#pdcd8a65a48)" style="fill: none; stroke: #fb9d3a; stroke-width: 0.75; stroke-linecap: square"/>
   </g>
   <g id="LineCollection_1">
    <path d="M 14.634 56.60442 
L 14.634 41.289435 
" clip-path="url(#pdcd8a65a48)" style="fill: none; stroke: #000000; stroke-width: 1.5"/>
   </g>
   <g id="patch_3">
    <path d="M 14.634 58.92156 
L 105.3648 58.92156 
" style="fill: none; stroke: #000000; stroke-width: 0.25; stroke-linejoin: miter; stroke-linecap: square"/>
   </g>
   <g id="legend_1">
    <g id="patch_4">
     <path d="M 110.2648 53.82073 
L 118.072 53.82073 
Q 272.045737 53.82073 272.045737 52.42073 
Q 272.045737 11.44448 270.645737 11.44448 
M 118.072 11.44448 
L 110.2648 11.44448 
Q 108.8648 11.44448 108.8648 12.84448 
L 108.8648 52.42073 
Q 108.8648 53.82073 110.2648 53.82073 
L 110.2648 53.82073 
" style="fill: none; opacity: 0.8"/>
    </g>
    <g id="line2d_11">
     <path d="M 111.6648 16.890261 
L 118.072 16.890261 
" style="fill: none; stroke: #b33b24; stroke-width: 0.75; stroke-linecap: square"/>
    </g>
    <g id="text_9">
     <text style="font-size: 7px; font-family: 'Arial'; text-anchor: start" x="131.2648" y="19.340261" transform="rotate(-0 131.2648 19.340261)">R Tergopleural/Pleural promotor MN (12628)</text>
    </g>
    <g id="line2d_12">
     <path d="M 111.6648 26.959324 
L 118.072 26.959324 
" style="fill: none; stroke: #6359ac; stroke-width: 0.75; stroke-linecap: square"/>
    </g>
    <g id="text_10">
     <text style="font-size: 7px; font-family: 'Arial'; text-anchor: start" x="131.2648" y="29.409324" transform="rotate(-0 131.2648 29.409324)">R Tr flexor MN (18440)</text>
    </g>
    <g id="line2d_13">
     <path d="M 111.6648 37.028386 
L 118.072 37.028386 
" style="fill: none; stroke: #db5079; stroke-width: 0.75; stroke-linecap: square"/>
    </g>
    <g id="text_11">
     <text style="font-size: 7px; font-family: 'Arial'; text-anchor: start" x="131.2648" y="39.478386" transform="rotate(-0 131.2648 39.478386)">R Fe reductor MN (11226)</text>
    </g>
    <g id="line2d_14">
     <path d="M 111.6648 47.097449 
L 118.072 47.097449 
" style="fill: none; stroke: #fb9d3a; stroke-width: 0.75; stroke-linecap: square"/>
    </g>
    <g id="text_12">
     <text style="font-size: 7px; font-family: 'Arial'; text-anchor: start" x="131.2648" y="49.547449" transform="rotate(-0 131.2648 49.547449)">R Ti extensor MN (11706)</text>
    </g>
   </g>
  </g>
 </g>
 <defs>
  <clipPath id="pdcd8a65a48">
   <rect x="14.634" y="7.94448" width="90.7308" height="50.97708"/>
  </clipPath>
 </defs>
</svg>
