<?xml version="1.0" encoding="utf-8" standalone="no"?>
<!DOCTYPE svg PUBLIC "-//W3C//DTD SVG 1.1//EN"
  "http://www.w3.org/Graphics/SVG/1.1/DTD/svg11.dtd">
<svg xmlns:xlink="http://www.w3.org/1999/xlink" width="117.072pt" height="47.52pt" viewBox="0 0 117.072 47.52" xmlns="http://www.w3.org/2000/svg" version="1.1">
 <metadata>
  <rdf:RDF xmlns:dc="http://purl.org/dc/elements/1.1/" xmlns:cc="http://creativecommons.org/ns#" xmlns:rdf="http://www.w3.org/1999/02/22-rdf-syntax-ns#">
   <cc:Work>
    <dc:type rdf:resource="http://purl.org/dc/dcmitype/StillImage"/>
    <dc:date>2025-09-04T00:56:23.263860</dc:date>
    <dc:format>image/svg+xml</dc:format>
    <dc:creator>
     <cc:Agent>
      <dc:title>Matplotlib v3.10.3, https://matplotlib.org/</dc:title>
     </cc:Agent>
    </dc:creator>
   </cc:Work>
  </rdf:RDF>
 </metadata>
 <defs>
  <style type="text/css">*{stroke-linejoin: round; stroke-linecap: butt}</style>
 </defs>
 <g id="figure_1">
  <g id="patch_1">
   <path d="M 0 47.52 
L 117.072 47.52 
L 117.072 0 
L 0 0 
L 0 47.52 
z
" style="fill: none"/>
  </g>
  <g id="axes_1">
   <g id="patch_2">
    <path d="M 14.634 42.2928 
L 105.3648 42.2928 
L 105.3648 5.7024 
L 14.634 5.7024 
L 14.634 42.2928 
z
" style="fill: none"/>
   </g>
   <g id="matplotlib.axis_1">
    <g id="xtick_1">
     <g id="line2d_1">
      <defs>
       <path id="mf39de56ef2" d="M 0 0 
L 0 1.7 
" style="stroke: #000000; stroke-width: 0.25"/>
      </defs>
      <g>
       <use xlink:href="#mf39de56ef2" x="18.758127" y="42.2928" style="stroke: #000000; stroke-width: 0.25"/>
      </g>
     </g>
     <g id="text_1">
      <text style="font-size: 6px; font-family: 'Arial'; text-anchor: middle" x="18.758127" y="49.787488" transform="rotate(-0 18.758127 49.787488)">0.0</text>
     </g>
    </g>
    <g id="xtick_2">
     <g id="line2d_2">
      <g>
       <use xlink:href="#mf39de56ef2" x="46.178893" y="42.2928" style="stroke: #000000; stroke-width: 0.25"/>
      </g>
     </g>
     <g id="text_2">
      <text style="font-size: 6px; font-family: 'Arial'; text-anchor: middle" x="46.178893" y="49.787488" transform="rotate(-0 46.178893 49.787488)">0.25</text>
     </g>
    </g>
    <g id="xtick_3">
     <g id="line2d_3">
      <g>
       <use xlink:href="#mf39de56ef2" x="73.599659" y="42.2928" style="stroke: #000000; stroke-width: 0.25"/>
      </g>
     </g>
     <g id="text_3">
      <text style="font-size: 6px; font-family: 'Arial'; text-anchor: middle" x="73.599659" y="49.787488" transform="rotate(-0 73.599659 49.787488)">0.5</text>
     </g>
    </g>
    <g id="xtick_4">
     <g id="line2d_4">
      <g>
       <use xlink:href="#mf39de56ef2" x="101.020426" y="42.2928" style="stroke: #000000; stroke-width: 0.25"/>
      </g>
     </g>
     <g id="text_4">
      <text style="font-size: 6px; font-family: 'Arial'; text-anchor: middle" x="101.020426" y="49.787488" transform="rotate(-0 101.020426 49.787488)">0.75</text>
     </g>
    </g>
    <g id="text_5">
     <text style="font-size: 8px; font-family: 'Arial'; text-anchor: middle" x="59.9994" y="58.303738" transform="rotate(-0 59.9994 58.303738)">Time (s)</text>
    </g>
   </g>
   <g id="matplotlib.axis_2">
    <g id="ytick_1">
     <g id="line2d_5">
      <defs>
       <path id="m76c2bc5669" d="M 0 0 
L -1.7 0 
" style="stroke: #000000; stroke-width: 0.25"/>
      </defs>
      <g>
       <use xlink:href="#m76c2bc5669" x="14.634" y="40.6296" style="stroke: #000000; stroke-width: 0.25"/>
      </g>
     </g>
     <g id="text_6">
      <text style="font-size: 6px; font-family: 'Arial'; text-anchor: end" x="11.434" y="42.776944" transform="rotate(-0 11.434 42.776944)">0</text>
     </g>
    </g>
    <g id="ytick_2">
     <g id="line2d_6">
      <g>
       <use xlink:href="#m76c2bc5669" x="14.634" y="33.55493" style="stroke: #000000; stroke-width: 0.25"/>
      </g>
     </g>
     <g id="text_7">
      <text style="font-size: 6px; font-family: 'Arial'; text-anchor: end" x="11.434" y="35.702274" transform="rotate(-0 11.434 35.702274)">10</text>
     </g>
    </g>
    <g id="text_8">
     <text style="font-size: 8px; font-family: 'Arial'; text-anchor: middle" x="1.577125" y="23.9976" transform="rotate(-90 1.577125 23.9976)">firing rate (Hz)</text>
    </g>
   </g>
   <g id="line2d_7">
    <path d="M 18.758127 19.40559 
L 20.960598 19.405583 
L 21.62134 15.965433 
L 22.282081 13.508227 
L 23.052946 11.51384 
L 23.823811 10.166977 
L 24.594676 9.257429 
L 25.475664 8.573508 
L 26.466776 8.094781 
L 27.678136 7.759054 
L 29.440112 7.526015 
L 32.413449 7.400889 
L 40.782839 7.366107 
L 101.240673 7.365619 
L 101.240673 7.365619 
" clip-path="url(#pb2ae707d71)" style="fill: none; stroke: #51bbad; stroke-width: 0.75; stroke-linecap: square"/>
   </g>
   <g id="line2d_8">
    <path d="M 18.758127 26.48026 
L 22.832699 26.378437 
L 23.383317 25.988735 
L 24.264305 25.039404 
L 25.916159 23.168039 
L 26.136406 23.163312 
L 26.356653 23.370894 
L 27.127518 24.318765 
L 28.008506 25.053746 
L 28.999618 25.586464 
L 30.210977 25.975505 
L 31.422337 26.168217 
L 31.862831 26.018975 
L 32.523572 25.543785 
L 33.845055 24.23249 
L 35.056414 23.111804 
L 35.276661 23.113425 
L 35.496908 23.302739 
L 36.377897 24.381623 
L 37.258885 25.095231 
L 38.249997 25.612458 
L 39.461356 25.990185 
L 41.11321 26.255392 
L 41.553704 26.18053 
L 42.104322 25.844091 
L 43.095434 24.917709 
L 44.967534 23.107633 
L 45.187781 23.12643 
L 45.518152 23.498999 
L 46.289017 24.407823 
L 47.170005 25.112522 
L 48.161117 25.623291 
L 49.372477 25.996303 
L 51.02433 26.258231 
L 51.464824 26.198908 
L 52.015442 25.874074 
L 53.006554 24.955075 
L 54.878655 23.121311 
L 55.098902 23.112621 
L 55.319149 23.291549 
L 56.200137 24.373177 
L 57.081126 25.089657 
L 58.072238 25.608965 
L 59.283597 25.988212 
L 60.93545 26.254519 
L 61.375944 26.212086 
L 61.926562 25.901759 
L 62.807551 25.104163 
L 64.899898 23.100672 
L 65.120145 23.149161 
L 65.450516 23.552145 
L 66.221381 24.444765 
L 67.10237 25.136902 
L 68.093482 25.638566 
L 69.304841 26.004929 
L 70.956694 26.262078 
L 71.397188 26.184398 
L 71.947806 25.845467 
L 72.938918 24.917168 
L 74.811019 23.109014 
L 75.031266 23.128332 
L 75.361636 23.501413 
L 76.132501 24.409506 
L 77.01349 25.113629 
L 78.004602 25.623987 
L 79.215961 25.996694 
L 80.867814 26.258412 
L 81.308309 26.198848 
L 81.858926 25.873815 
L 82.850038 24.954659 
L 84.722139 23.121255 
L 84.942386 23.112763 
L 85.162633 23.291875 
L 86.043622 24.373423 
L 86.92461 25.08982 
L 87.915722 25.609068 
L 89.127081 25.988271 
L 90.778935 26.254546 
L 91.219429 26.211873 
L 91.770047 25.901297 
L 92.651035 25.10356 
L 94.743383 23.10059 
L 94.96363 23.149582 
L 95.294001 23.553003 
L 96.064865 24.445359 
L 96.945854 25.137294 
L 97.936966 25.638813 
L 99.148325 26.005067 
L 100.800178 26.262206 
L 101.240673 26.184309 
L 101.240673 26.184309 
" clip-path="url(#pb2ae707d71)" style="fill: none; stroke: #d84a2e; stroke-width: 0.75; stroke-linecap: square"/>
   </g>
   <g id="line2d_9">
    <path d="M 18.758127 33.55493 
L 24.264305 33.448001 
L 24.594676 33.057469 
L 25.03517 32.150102 
L 25.585788 30.453769 
L 26.5769 26.947678 
L 26.907271 26.643439 
L 27.127518 26.771309 
L 27.457888 27.434743 
L 28.449 30.131669 
L 29.109742 31.247364 
L 29.880607 32.098397 
L 30.651472 32.635568 
L 31.642584 33.046118 
L 32.853943 33.308023 
L 33.184313 33.249486 
L 33.514684 32.935572 
L 33.955178 32.18082 
L 34.505796 30.797272 
L 35.166538 28.41165 
L 35.717155 26.582919 
L 36.047526 26.070101 
L 36.267773 26.015191 
L 36.48802 26.205903 
L 36.818391 26.954432 
L 37.809503 29.868074 
L 38.470244 31.069676 
L 39.241109 31.986244 
L 40.011974 32.564775 
L 41.003086 33.00694 
L 42.214445 33.289012 
L 42.98531 33.342315 
L 43.315681 33.090419 
L 43.756175 32.399619 
L 44.306793 31.080791 
L 44.857411 29.20161 
L 45.628276 26.513437 
L 45.958646 26.020937 
L 46.178893 25.978634 
L 46.399141 26.181772 
L 46.729511 26.948408 
L 47.6105 29.618189 
L 48.271241 30.901233 
L 49.042106 31.879919 
L 49.812971 32.497666 
L 50.693959 32.930043 
L 51.905318 33.251697 
L 52.89643 33.357499 
L 53.226801 33.131992 
L 53.667295 32.470855 
L 54.217913 31.183241 
L 54.768531 29.343771 
L 55.539396 26.597793 
L 55.869767 26.051512 
L 56.090014 25.970177 
L 56.310261 26.132575 
L 56.640631 26.840226 
L 57.741867 30.028886 
L 58.402608 31.178084 
L 59.173473 32.054668 
L 59.944338 32.607967 
L 60.93545 33.030843 
L 62.256933 33.31679 
L 62.917674 33.329881 
L 63.248045 33.048661 
L 63.688539 32.326208 
L 64.239157 30.974755 
L 64.789775 29.05616 
L 65.56064 26.435053 
L 65.89101 25.998334 
L 66.111258 25.996764 
L 66.331505 26.242154 
L 66.661875 27.069726 
L 67.43274 29.444465 
L 68.093482 30.784131 
L 68.754223 31.687179 
L 69.525088 32.376008 
L 70.406076 32.858137 
L 71.507312 33.193831 
L 72.718671 33.37175 
L 73.049042 33.203803 
L 73.489536 32.606274 
L 74.040154 31.381736 
L 74.590772 29.624164 
L 75.47176 26.513371 
L 75.802131 26.021898 
L 76.022378 25.98051 
L 76.242625 26.184564 
L 76.572996 26.952884 
L 77.453984 29.621226 
L 78.114725 30.903279 
L 78.88559 31.88121 
L 79.656455 32.498482 
L 80.537444 32.930525 
L 81.748803 33.25193 
L 82.739915 33.357522 
L 83.070286 33.131798 
L 83.51078 32.47036 
L 84.061398 31.182505 
L 84.612015 29.342778 
L 85.38288 26.597506 
L 85.713251 26.051594 
L 85.933498 25.97055 
L 86.153745 26.133322 
L 86.484116 26.84156 
L 87.585351 30.02975 
L 88.246093 31.17867 
L 89.016958 32.055035 
L 89.787823 32.608201 
L 90.778935 33.030971 
L 92.100417 33.316849 
L 92.761159 33.329587 
L 93.091529 33.04807 
L 93.532024 32.325145 
L 94.082641 30.973139 
L 94.633259 29.053843 
L 95.294001 26.687206 
L 95.624371 26.087578 
L 95.844618 25.967473 
L 96.064865 26.089168 
L 96.395236 26.736781 
L 97.606595 30.181222 
L 98.267337 31.280775 
L 99.038202 32.119483 
L 99.91919 32.706522 
L 100.910302 33.085387 
L 101.240673 33.169422 
L 101.240673 33.169422 
" clip-path="url(#pb2ae707d71)" style="fill: none; stroke: #ff9985; stroke-width: 0.75; stroke-linecap: square"/>
   </g>
   <g id="line2d_10">
    <path d="M 18.758127 40.6296 
L 25.806035 40.587851 
L 26.136406 40.211284 
L 26.5769 39.199555 
L 27.457888 36.964465 
L 27.788259 36.61956 
L 28.11863 36.594679 
L 28.449 36.800421 
L 28.999618 37.471623 
L 29.770483 38.430462 
L 30.651472 39.175345 
L 31.642584 39.716376 
L 32.853943 40.112457 
L 34.505796 40.391457 
L 34.94629 40.343499 
L 35.276661 39.913444 
L 35.717155 38.790475 
L 36.928514 35.16142 
L 37.258885 34.86117 
L 37.589256 34.909356 
L 38.02975 35.343708 
L 38.690491 36.453464 
L 39.461356 37.721071 
L 40.232221 38.604188 
L 41.11321 39.290228 
L 42.104322 39.788519 
L 43.315681 40.15331 
L 44.637164 40.370693 
L 44.857411 40.282548 
L 45.187781 39.821281 
L 45.628276 38.658673 
L 46.839635 34.993982 
L 47.170005 34.700293 
L 47.500376 34.757272 
L 47.94087 35.204946 
L 48.601612 36.335163 
L 49.372477 37.638045 
L 50.143341 38.546375 
L 51.02433 39.251994 
L 52.015442 39.764511 
L 53.226801 40.139715 
L 54.658407 40.357298 
L 54.878655 40.210903 
L 55.209025 39.662282 
L 55.649519 38.415974 
L 56.750755 35.04955 
L 57.081126 34.710598 
L 57.411496 34.735064 
L 57.741867 35.017385 
L 58.292485 35.851799 
L 59.503844 37.884803 
L 60.384832 38.814511 
L 61.265821 39.429309 
L 62.367057 39.913834 
L 63.688539 40.244695 
L 64.679651 40.328036 
L 65.010022 39.954149 
L 65.450516 38.882272 
L 66.771999 34.937183 
L 67.10237 34.689483 
L 67.43274 34.779453 
L 67.873234 35.255904 
L 68.533976 36.40731 
L 69.304841 37.689308 
L 70.075706 38.582075 
L 70.956694 39.275605 
L 71.947806 39.779335 
L 73.159165 40.148109 
L 74.480648 40.367768 
L 74.700895 40.27917 
L 75.031266 39.8171 
L 75.47176 38.653631 
L 76.683119 34.990572 
L 77.01349 34.698225 
L 77.34386 34.75627 
L 77.784355 35.20487 
L 78.445096 36.33573 
L 79.215961 37.638442 
L 79.986826 38.546655 
L 80.867814 39.252178 
L 81.858926 39.764625 
L 83.070286 40.13978 
L 84.501892 40.357254 
L 84.722139 40.210657 
L 85.05251 39.661867 
L 85.493004 38.415446 
L 86.594239 35.049881 
L 86.92461 34.711369 
L 87.254981 34.73618 
L 87.585351 35.018632 
L 88.135969 35.853228 
L 89.347328 37.885737 
L 90.228317 38.815129 
L 91.109305 39.429716 
L 92.210541 39.914077 
L 93.532024 40.244826 
L 94.523136 40.327739 
L 94.853506 39.953108 
L 95.294001 38.880434 
L 96.615483 34.936284 
L 96.945854 34.689304 
L 97.276225 34.779776 
L 97.716719 35.256564 
L 98.37746 36.408245 
L 99.148325 37.689912 
L 99.91919 38.582495 
L 100.800178 39.275883 
L 101.240673 39.528763 
L 101.240673 39.528763 
" clip-path="url(#pb2ae707d71)" style="fill: none; stroke: #026b85; stroke-width: 0.75; stroke-linecap: square"/>
   </g>
   <g id="LineCollection_1">
    <path d="M 14.634 40.6296 
L 14.634 33.55493 
" clip-path="url(#pb2ae707d71)" style="fill: none; stroke: #000000; stroke-width: 0.25"/>
   </g>
   <g id="patch_3">
    <path d="M 14.634 42.2928 
L 105.3648 42.2928 
" style="fill: none; stroke: #000000; stroke-width: 0.25; stroke-linejoin: miter; stroke-linecap: square"/>
   </g>
   <g id="legend_1">
    <g id="patch_4">
     <path d="M 196.47855 51.57865 
Q 197.87855 51.57865 197.87855 50.17865 
Q 197.87855 9.2024 196.47855 9.2024 
M 118.072 9.2024 
L 110.2648 9.2024 
Q 108.8648 9.2024 108.8648 10.6024 
L 108.8648 48.52 
Q 108.8648 51.57865 110.2648 51.57865 
" style="fill: none; opacity: 0.8"/>
    </g>
    <g id="line2d_11">
     <path d="M 111.6648 14.648181 
L 118.072 14.648181 
" style="fill: none; stroke: #51bbad; stroke-width: 0.75; stroke-linecap: square"/>
    </g>
    <g id="text_9">
     <text style="font-size: 7px; font-family: 'Arial'; text-anchor: start" x="131.2648" y="17.098181" transform="rotate(-0 131.2648 17.098181)">L DNg100 (10093)</text>
    </g>
    <g id="line2d_12">
     <path d="M 111.6648 24.717244 
L 118.072 24.717244 
" style="fill: none; stroke: #d84a2e; stroke-width: 0.75; stroke-linecap: square"/>
    </g>
    <g id="text_10">
     <text style="font-size: 7px; font-family: 'Arial'; text-anchor: start" x="131.2648" y="27.167244" transform="rotate(-0 131.2648 27.167244)">L IN17A001 (10707)</text>
    </g>
    <g id="line2d_13">
     <path d="M 111.6648 34.786306 
L 118.072 34.786306 
" style="fill: none; stroke: #ff9985; stroke-width: 0.75; stroke-linecap: square"/>
    </g>
    <g id="text_11">
     <text style="font-size: 7px; font-family: 'Arial'; text-anchor: start" x="131.2648" y="37.236306" transform="rotate(-0 131.2648 37.236306)">L INXXX466 (11751)</text>
    </g>
    <g id="line2d_14">
     <path d="M 111.6648 44.855369 
L 118.072 44.855369 
" style="fill: none; stroke: #026b85; stroke-width: 0.75; stroke-linecap: square"/>
    </g>
    <g id="text_12">
     <text style="font-size: 7px; font-family: 'Arial'; text-anchor: start" x="131.2648" y="47.305369" transform="rotate(-0 131.2648 47.305369)">L IN16B036 (13905)</text>
    </g>
   </g>
  </g>
 </g>
 <defs>
  <clipPath id="pb2ae707d71">
   <rect x="14.634" y="5.7024" width="90.7308" height="36.5904"/>
  </clipPath>
 </defs>
</svg>
