<?xml version="1.0" encoding="utf-8" standalone="no"?>
<!DOCTYPE svg PUBLIC "-//W3C//DTD SVG 1.1//EN"
  "http://www.w3.org/Graphics/SVG/1.1/DTD/svg11.dtd">
<svg xmlns:xlink="http://www.w3.org/1999/xlink" width="117.072pt" height="31.68pt" viewBox="0 0 117.072 31.68" xmlns="http://www.w3.org/2000/svg" version="1.1">
 <metadata>
  <rdf:RDF xmlns:dc="http://purl.org/dc/elements/1.1/" xmlns:cc="http://creativecommons.org/ns#" xmlns:rdf="http://www.w3.org/1999/02/22-rdf-syntax-ns#">
   <cc:Work>
    <dc:type rdf:resource="http://purl.org/dc/dcmitype/StillImage"/>
    <dc:date>2025-09-04T00:56:18.654015</dc:date>
    <dc:format>image/svg+xml</dc:format>
    <dc:creator>
     <cc:Agent>
      <dc:title>Matplotlib v3.10.3, https://matplotlib.org/</dc:title>
     </cc:Agent>
    </dc:creator>
   </cc:Work>
  </rdf:RDF>
 </metadata>
 <defs>
  <style type="text/css">*{stroke-linejoin: round; stroke-linecap: butt}</style>
 </defs>
 <g id="figure_1">
  <g id="patch_1">
   <path d="M 0 31.68 
L 117.072 31.68 
L 117.072 0 
L 0 0 
L 0 31.68 
z
" style="fill: none"/>
  </g>
  <g id="axes_1">
   <g id="patch_2">
    <path d="M 14.634 28.1952 
L 105.3648 28.1952 
L 105.3648 3.8016 
L 14.634 3.8016 
L 14.634 28.1952 
z
" style="fill: none"/>
   </g>
   <g id="matplotlib.axis_1">
    <g id="xtick_1">
     <g id="line2d_1">
      <defs>
       <path id="m1ae056b9cd" d="M 0 0 
L 0 1.7 
" style="stroke: #000000; stroke-width: 0.25"/>
      </defs>
      <g>
       <use xlink:href="#m1ae056b9cd" x="18.758127" y="28.1952" style="stroke: #000000; stroke-width: 0.25"/>
      </g>
     </g>
     <g id="text_1">
      <text style="font-size: 6px; font-family: 'Arial'; text-anchor: middle" x="18.758127" y="35.689888" transform="rotate(-0 18.758127 35.689888)">0.0</text>
     </g>
    </g>
    <g id="xtick_2">
     <g id="line2d_2">
      <g>
       <use xlink:href="#m1ae056b9cd" x="46.178893" y="28.1952" style="stroke: #000000; stroke-width: 0.25"/>
      </g>
     </g>
     <g id="text_2">
      <text style="font-size: 6px; font-family: 'Arial'; text-anchor: middle" x="46.178893" y="35.689888" transform="rotate(-0 46.178893 35.689888)">0.25</text>
     </g>
    </g>
    <g id="xtick_3">
     <g id="line2d_3">
      <g>
       <use xlink:href="#m1ae056b9cd" x="73.599659" y="28.1952" style="stroke: #000000; stroke-width: 0.25"/>
      </g>
     </g>
     <g id="text_3">
      <text style="font-size: 6px; font-family: 'Arial'; text-anchor: middle" x="73.599659" y="35.689888" transform="rotate(-0 73.599659 35.689888)">0.5</text>
     </g>
    </g>
    <g id="xtick_4">
     <g id="line2d_4">
      <g>
       <use xlink:href="#m1ae056b9cd" x="101.020426" y="28.1952" style="stroke: #000000; stroke-width: 0.25"/>
      </g>
     </g>
     <g id="text_4">
      <text style="font-size: 6px; font-family: 'Arial'; text-anchor: middle" x="101.020426" y="35.689888" transform="rotate(-0 101.020426 35.689888)">0.75</text>
     </g>
    </g>
    <g id="text_5">
     <text style="font-size: 8px; font-family: 'Arial'; text-anchor: middle" x="59.9994" y="44.206138" transform="rotate(-0 59.9994 44.206138)">time (s)</text>
    </g>
   </g>
   <g id="matplotlib.axis_2">
    <g id="ytick_1">
     <g id="line2d_5">
      <defs>
       <path id="mc0025edf12" d="M 0 0 
L -1.7 0 
" style="stroke: #000000; stroke-width: 0.25"/>
      </defs>
      <g>
       <use xlink:href="#mc0025edf12" x="14.634" y="27.0864" style="stroke: #000000; stroke-width: 0.25"/>
      </g>
     </g>
     <g id="text_6">
      <text style="font-size: 6px; font-family: 'Arial'; text-anchor: end" x="11.434" y="29.233744" transform="rotate(-0 11.434 29.233744)">0</text>
     </g>
    </g>
    <g id="ytick_2">
     <g id="line2d_6">
      <g>
       <use xlink:href="#mc0025edf12" x="14.634" y="16.619718" style="stroke: #000000; stroke-width: 0.25"/>
      </g>
     </g>
     <g id="text_7">
      <text style="font-size: 6px; font-family: 'Arial'; text-anchor: end" x="11.434" y="18.767062" transform="rotate(-0 11.434 18.767062)">5</text>
     </g>
    </g>
    <g id="text_8">
     <text style="font-size: 8px; font-family: 'Arial'; text-anchor: middle" x="4.913687" y="15.9984" transform="rotate(-90 4.913687 15.9984)">firing rate (Hz)</text>
    </g>
   </g>
   <g id="line2d_7">
    <path d="M 18.758127 8.246373 
L 26.026282 8.139187 
L 26.356653 7.600592 
L 27.237641 5.854922 
L 27.457888 5.730613 
L 27.678136 5.820078 
L 28.669248 6.661881 
L 29.66036 7.213151 
L 30.871719 7.633694 
L 32.523572 7.945945 
L 34.836167 8.135597 
L 35.056414 8.094618 
L 35.276661 7.828271 
L 35.717155 6.786618 
L 36.377897 5.206524 
L 36.708267 4.9104 
L 36.928514 4.996723 
L 38.249997 6.397004 
L 39.241109 7.040427 
L 40.342345 7.49648 
L 41.773951 7.84201 
L 43.756175 8.074433 
L 44.967534 8.090108 
L 45.187781 7.814099 
L 45.628276 6.759168 
L 46.289017 5.206916 
L 46.619388 4.934788 
L 46.839635 5.037892 
L 47.94087 6.242985 
L 48.931982 6.939994 
L 50.033218 7.434026 
L 51.464824 7.808334 
L 53.336925 8.051049 
L 54.878655 8.115807 
L 55.098902 7.877939 
L 55.539396 6.86012 
L 56.200137 5.263696 
L 56.530508 4.939373 
L 56.750755 5.002356 
L 58.292485 6.562325 
L 59.283597 7.148231 
L 60.494956 7.595198 
L 62.036686 7.911534 
L 64.239157 8.116899 
L 64.899898 8.063263 
L 65.230269 7.517508 
L 66.331505 5.025756 
L 66.551752 4.933312 
L 66.771999 5.076104 
L 67.652987 6.076389 
L 68.533976 6.76251 
L 69.635211 7.323661 
L 70.956694 7.724612 
L 72.718671 8.002398 
L 74.700895 8.139756 
L 74.921142 7.983061 
L 75.251513 7.34202 
L 76.242625 5.062217 
L 76.462872 4.932975 
L 76.683119 5.035835 
L 77.784355 6.241687 
L 78.775467 6.939146 
L 79.876702 7.433501 
L 81.308309 7.80805 
L 83.180409 8.050924 
L 84.722139 8.11551 
L 84.942386 7.877324 
L 85.38288 6.859258 
L 86.043622 5.262933 
L 86.373992 4.939062 
L 86.594239 5.002223 
L 88.135969 6.562471 
L 89.127081 7.148325 
L 90.33844 7.595256 
L 91.88017 7.911562 
L 94.082641 8.116911 
L 94.743383 8.062668 
L 95.073753 7.51607 
L 96.174989 5.025215 
L 96.395236 4.933472 
L 96.615483 5.076627 
L 97.496472 6.07678 
L 98.37746 6.76278 
L 99.478696 7.323831 
L 100.800178 7.724708 
L 101.240673 7.814992 
L 101.240673 7.814992 
" clip-path="url(#p1046bf5096)" style="fill: none; stroke: #b33b24; stroke-width: 0.75; stroke-linecap: square"/>
   </g>
   <g id="line2d_8">
    <path d="M 18.758127 17.666387 
L 25.145294 17.590849 
L 25.475664 17.177733 
L 25.806035 16.3402 
L 26.246529 14.527429 
L 27.568012 8.35365 
L 27.898383 7.869444 
L 28.11863 7.81171 
L 28.449 7.998617 
L 28.889495 8.579925 
L 29.66036 10.043767 
L 31.752707 14.158221 
L 32.523572 15.196624 
L 33.404561 16.012694 
L 33.734931 16.172171 
L 34.065302 16.109368 
L 34.395673 15.806909 
L 34.726043 15.195864 
L 35.166538 13.741143 
L 35.827279 10.346412 
L 36.377897 7.865993 
L 36.708267 7.173784 
L 36.928514 7.142761 
L 37.148762 7.420754 
L 37.699379 8.736843 
L 39.461356 13.175912 
L 40.232221 14.505077 
L 41.003086 15.440811 
L 41.884075 16.176195 
L 42.875187 16.717384 
L 43.756175 16.979185 
L 44.086546 16.809102 
L 44.416916 16.376151 
L 44.747287 15.585569 
L 45.187781 13.844532 
L 46.399141 8.23806 
L 46.619388 7.931343 
L 46.839635 7.977416 
L 47.170005 8.583139 
L 49.372477 14.014673 
L 50.143341 15.095567 
L 51.02433 15.945028 
L 52.015442 16.570168 
L 53.116678 17.002418 
L 53.777419 17.096191 
L 54.10779 16.865355 
L 54.43816 16.354023 
L 54.768531 15.461659 
L 55.209025 13.577813 
L 56.200137 8.710849 
L 56.530508 8.037258 
L 56.750755 8.023889 
L 56.971002 8.331578 
L 57.52162 9.76804 
L 58.732979 12.947734 
L 59.503844 14.344435 
L 60.274709 15.327721 
L 61.155697 16.100473 
L 62.146809 16.669162 
L 63.358169 17.091916 
L 63.688539 17.112898 
L 64.01891 16.908423 
L 64.349281 16.432436 
L 64.679651 15.586918 
L 65.120145 13.767929 
L 66.221381 8.499891 
L 66.551752 7.996052 
L 66.771999 8.097676 
L 67.10237 8.752513 
L 69.084594 13.740545 
L 69.855459 14.902577 
L 70.736447 15.815809 
L 71.727559 16.48788 
L 72.828795 16.952576 
L 73.599659 17.121045 
L 73.93003 16.942891 
L 74.260401 16.501204 
L 74.590772 15.701327 
L 75.031266 13.947791 
L 76.242625 8.320875 
L 76.462872 8.012941 
L 76.683119 8.057531 
L 77.01349 8.660936 
L 79.215961 14.055783 
L 79.986826 15.124512 
L 80.867814 15.964404 
L 81.858926 16.582509 
L 82.960162 17.009893 
L 83.620903 17.101791 
L 83.951274 16.870177 
L 84.281645 16.358012 
L 84.612015 15.464834 
L 85.05251 13.580082 
L 86.043622 8.712803 
L 86.373992 8.039694 
L 86.594239 8.02649 
L 86.814487 8.334495 
L 87.365104 9.770411 
L 88.576463 12.948694 
L 89.347328 14.345117 
L 90.118193 15.328196 
L 90.999182 16.100794 
L 91.990294 16.669365 
L 93.201653 17.092034 
L 93.532024 17.11275 
L 93.862394 16.907863 
L 94.192765 16.431379 
L 94.523136 15.58506 
L 94.96363 13.764915 
L 96.064865 8.498406 
L 96.395236 7.995862 
L 96.615483 8.097984 
L 96.945854 8.753822 
L 98.928078 13.741589 
L 99.698943 14.903308 
L 100.579931 15.816301 
L 101.240673 16.296945 
L 101.240673 16.296945 
" clip-path="url(#p1046bf5096)" style="fill: none; stroke: #b33b24; stroke-width: 0.75; stroke-linecap: square"/>
   </g>
   <g id="line2d_9">
    <path d="M 18.758127 27.0864 
L 32.413449 26.990296 
L 33.184313 26.5801 
L 35.276661 25.277147 
L 35.607032 25.432935 
L 36.598144 26.05253 
L 37.699379 26.472812 
L 39.130986 26.775005 
L 41.223333 26.969127 
L 41.773951 26.851132 
L 42.544816 26.424299 
L 43.976422 25.331941 
L 44.747287 24.82733 
L 45.187781 24.789856 
L 45.518152 24.982563 
L 46.399141 25.700268 
L 47.390253 26.219688 
L 48.601612 26.598167 
L 50.253465 26.863174 
L 51.464824 26.900509 
L 52.125566 26.62097 
L 53.336925 25.786082 
L 54.768531 24.793311 
L 55.209025 24.807593 
L 55.649519 25.15421 
L 56.530508 25.813546 
L 57.52162 26.290518 
L 58.843103 26.660858 
L 60.60508 26.901728 
L 61.486068 26.881644 
L 62.146809 26.579623 
L 63.358169 25.731085 
L 64.679651 24.806514 
L 65.120145 24.796433 
L 65.450516 25.017093 
L 66.331505 25.723217 
L 67.322617 26.234037 
L 68.533976 26.60625 
L 70.185829 26.86687 
L 71.397188 26.891995 
L 72.05793 26.601528 
L 73.269289 25.759828 
L 74.590772 24.819247 
L 75.031266 24.785852 
L 75.361636 24.981417 
L 76.242625 25.69957 
L 77.233737 26.219251 
L 78.445096 26.597922 
L 80.096949 26.863062 
L 81.308309 26.900968 
L 81.96905 26.622299 
L 83.180409 25.788007 
L 84.612015 24.79544 
L 85.05251 24.809969 
L 85.493004 25.156559 
L 86.373992 25.815091 
L 87.365104 26.291483 
L 88.686587 26.661375 
L 90.448564 26.901952 
L 91.329552 26.881699 
L 91.990294 26.579589 
L 93.201653 25.730788 
L 94.523136 24.806379 
L 94.96363 24.796646 
L 95.294001 25.017712 
L 96.174989 25.723625 
L 97.166101 26.234291 
L 98.37746 26.606394 
L 100.029314 26.866935 
L 101.240673 26.891697 
L 101.240673 26.891697 
" clip-path="url(#p1046bf5096)" style="fill: none; stroke: #492c6d; stroke-width: 0.75; stroke-linecap: square"/>
   </g>
   <g id="LineCollection_1">
    <path d="M 14.634 27.0864 
L 14.634 16.619718 
" clip-path="url(#p1046bf5096)" style="fill: none; stroke: #000000; stroke-width: 1.5"/>
   </g>
   <g id="patch_3">
    <path d="M 14.634 28.1952 
L 105.3648 28.1952 
" style="fill: none; stroke: #000000; stroke-width: 0.25; stroke-linejoin: miter; stroke-linecap: square"/>
   </g>
   <g id="legend_1">
    <g id="patch_4">
     <path d="M 269.220581 39.608788 
Q 270.620581 39.608788 270.620581 38.208788 
Q 270.620581 7.3016 269.220581 7.3016 
M 118.072 7.3016 
L 110.2648 7.3016 
Q 108.8648 7.3016 108.8648 8.7016 
L 108.8648 32.68 
Q 108.8648 39.608788 110.2648 39.608788 
" style="fill: none; opacity: 0.8"/>
    </g>
    <g id="line2d_10">
     <path d="M 111.6648 12.747381 
L 118.072 12.747381 
" style="fill: none; stroke: #b33b24; stroke-width: 0.75; stroke-linecap: square"/>
    </g>
    <g id="text_9">
     <text style="font-size: 7px; font-family: 'Arial'; text-anchor: start" x="131.2648" y="15.197381" transform="rotate(-0 131.2648 15.197381)">L Tergopleural/Pleural promotor MN (19319)</text>
    </g>
    <g id="line2d_11">
     <path d="M 111.6648 22.816444 
L 118.072 22.816444 
" style="fill: none; stroke: #b33b24; stroke-width: 0.75; stroke-linecap: square"/>
    </g>
    <g id="text_10">
     <text style="font-size: 7px; font-family: 'Arial'; text-anchor: start" x="131.2648" y="25.266444" transform="rotate(-0 131.2648 25.266444)">L Tergopleural/Pleural promotor MN (12686)</text>
    </g>
    <g id="line2d_12">
     <path style="fill: none; stroke: #492c6d; stroke-width: 0.75; stroke-linecap: square"/>
    </g>
    <g id="text_11">
     <text style="font-size: 7px; font-family: 'Arial'; text-anchor: start" x="131.2648" y="35.335506" transform="rotate(-0 131.2648 35.335506)">L Pleural remotor/abductor MN (12096)</text>
    </g>
   </g>
  </g>
 </g>
 <defs>
  <clipPath id="p1046bf5096">
   <rect x="14.634" y="3.8016" width="90.7308" height="24.3936"/>
  </clipPath>
 </defs>
</svg>
