<?xml version="1.0" encoding="utf-8" standalone="no"?>
<!DOCTYPE svg PUBLIC "-//W3C//DTD SVG 1.1//EN"
  "http://www.w3.org/Graphics/SVG/1.1/DTD/svg11.dtd">
<svg xmlns:xlink="http://www.w3.org/1999/xlink" width="43.2pt" height="41.04pt" viewBox="0 0 43.2 41.04" xmlns="http://www.w3.org/2000/svg" version="1.1">
 <metadata>
  <rdf:RDF xmlns:dc="http://purl.org/dc/elements/1.1/" xmlns:cc="http://creativecommons.org/ns#" xmlns:rdf="http://www.w3.org/1999/02/22-rdf-syntax-ns#">
   <cc:Work>
    <dc:type rdf:resource="http://purl.org/dc/dcmitype/StillImage"/>
    <dc:date>2025-09-04T16:07:07.628815</dc:date>
    <dc:format>image/svg+xml</dc:format>
    <dc:creator>
     <cc:Agent>
      <dc:title>Matplotlib v3.10.3, https://matplotlib.org/</dc:title>
     </cc:Agent>
    </dc:creator>
   </cc:Work>
  </rdf:RDF>
 </metadata>
 <defs>
  <style type="text/css">*{stroke-linejoin: round; stroke-linecap: butt}</style>
 </defs>
 <g id="figure_1">
  <g id="patch_1">
   <path d="M 0 41.04 
L 43.2 41.04 
L 43.2 0 
L 0 0 
L 0 41.04 
z
" style="fill: none"/>
  </g>
  <g id="axes_1">
   <g id="patch_2">
    <path d="M 5.4 36.5256 
L 38.88 36.5256 
L 38.88 4.9248 
L 5.4 4.9248 
L 5.4 36.5256 
z
" style="fill: none"/>
   </g>
   <g id="patch_3">
    <path d="M 7.4925 36.5256 
L 9.585 36.5256 
L 9.585 11.442465 
L 7.4925 11.442465 
z
" clip-path="url(#p7c186e5e6e)" style="fill: #267655"/>
   </g>
   <g id="patch_4">
    <path d="M 9.585 36.5256 
L 11.6775 36.5256 
L 11.6775 5.780655 
L 9.585 5.780655 
z
" clip-path="url(#p7c186e5e6e)" style="fill: #267655"/>
   </g>
   <g id="patch_5">
    <path d="M 11.6775 36.5256 
L 13.77 36.5256 
L 13.77 32.31216 
L 11.6775 32.31216 
z
" clip-path="url(#p7c186e5e6e)" style="fill: #267655"/>
   </g>
   <g id="patch_6">
    <path d="M 13.77 36.5256 
L 15.8625 36.5256 
L 15.8625 34.68222 
L 13.77 34.68222 
z
" clip-path="url(#p7c186e5e6e)" style="fill: #267655"/>
   </g>
   <g id="patch_7">
    <path d="M 15.8625 36.5256 
L 17.955 36.5256 
L 17.955 36.13059 
L 15.8625 36.13059 
z
" clip-path="url(#p7c186e5e6e)" style="fill: #267655"/>
   </g>
   <g id="patch_8">
    <path d="M 17.955 36.5256 
L 20.0475 36.5256 
L 20.0475 35.933085 
L 17.955 35.933085 
z
" clip-path="url(#p7c186e5e6e)" style="fill: #267655"/>
   </g>
   <g id="patch_9">
    <path d="M 20.0475 36.5256 
L 22.14 36.5256 
L 22.14 35.86725 
L 20.0475 35.86725 
z
" clip-path="url(#p7c186e5e6e)" style="fill: #267655"/>
   </g>
   <g id="patch_10">
    <path d="M 22.14 36.5256 
L 24.2325 36.5256 
L 24.2325 35.274735 
L 22.14 35.274735 
z
" clip-path="url(#p7c186e5e6e)" style="fill: #267655"/>
   </g>
   <g id="patch_11">
    <path d="M 24.2325 36.5256 
L 26.325 36.5256 
L 26.325 35.73558 
L 24.2325 35.73558 
z
" clip-path="url(#p7c186e5e6e)" style="fill: #267655"/>
   </g>
   <g id="patch_12">
    <path d="M 26.325 36.5256 
L 28.4175 36.5256 
L 28.4175 35.669745 
L 26.325 35.669745 
z
" clip-path="url(#p7c186e5e6e)" style="fill: #267655"/>
   </g>
   <g id="patch_13">
    <path d="M 28.4175 36.5256 
L 30.51 36.5256 
L 30.51 36.064755 
L 28.4175 36.064755 
z
" clip-path="url(#p7c186e5e6e)" style="fill: #267655"/>
   </g>
   <g id="patch_14">
    <path d="M 30.51 36.5256 
L 32.6025 36.5256 
L 32.6025 36.39393 
L 30.51 36.39393 
z
" clip-path="url(#p7c186e5e6e)" style="fill: #267655"/>
   </g>
   <g id="patch_15">
    <path d="M 32.6025 36.5256 
L 34.695 36.5256 
L 34.695 36.459765 
L 32.6025 36.459765 
z
" clip-path="url(#p7c186e5e6e)" style="fill: #267655"/>
   </g>
   <g id="patch_16">
    <path d="M 34.695 36.5256 
L 36.7875 36.5256 
L 36.7875 36.459765 
L 34.695 36.459765 
z
" clip-path="url(#p7c186e5e6e)" style="fill: #267655"/>
   </g>
   <g id="patch_17">
    <path d="M 36.7875 36.5256 
L 38.88 36.5256 
L 38.88 36.39393 
L 36.7875 36.39393 
z
" clip-path="url(#p7c186e5e6e)" style="fill: #267655"/>
   </g>
   <g id="patch_18">
    <path d="M 38.88 36.5256 
L 40.9725 36.5256 
L 40.9725 36.5256 
L 38.88 36.5256 
z
" clip-path="url(#p7c186e5e6e)" style="fill: #267655"/>
   </g>
   <g id="patch_19">
    <path d="M 40.9725 36.5256 
L 43.065 36.5256 
L 43.065 36.5256 
L 40.9725 36.5256 
z
" clip-path="url(#p7c186e5e6e)" style="fill: #267655"/>
   </g>
   <g id="patch_20">
    <path d="M 43.065 36.5256 
L 45.1575 36.5256 
L 45.1575 36.5256 
L 43.065 36.5256 
z
" clip-path="url(#p7c186e5e6e)" style="fill: #267655"/>
   </g>
   <g id="patch_21">
    <path d="M 45.1575 36.5256 
L 47.25 36.5256 
L 47.25 36.5256 
L 45.1575 36.5256 
z
" clip-path="url(#p7c186e5e6e)" style="fill: #267655"/>
   </g>
   <g id="patch_22">
    <path d="M 47.25 36.5256 
L 49.3425 36.5256 
L 49.3425 36.5256 
L 47.25 36.5256 
z
" clip-path="url(#p7c186e5e6e)" style="fill: #267655"/>
   </g>
   <g id="patch_23">
    <path d="M 49.3425 36.5256 
L 51.435 36.5256 
L 51.435 36.5256 
L 49.3425 36.5256 
z
" clip-path="url(#p7c186e5e6e)" style="fill: #267655"/>
   </g>
   <g id="patch_24">
    <path d="M 51.435 36.5256 
L 53.5275 36.5256 
L 53.5275 36.5256 
L 51.435 36.5256 
z
" clip-path="url(#p7c186e5e6e)" style="fill: #267655"/>
   </g>
   <g id="patch_25">
    <path d="M 53.5275 36.5256 
L 55.62 36.5256 
L 55.62 36.5256 
L 53.5275 36.5256 
z
" clip-path="url(#p7c186e5e6e)" style="fill: #267655"/>
   </g>
   <g id="patch_26">
    <path d="M 55.62 36.5256 
L 57.7125 36.5256 
L 57.7125 36.5256 
L 55.62 36.5256 
z
" clip-path="url(#p7c186e5e6e)" style="fill: #267655"/>
   </g>
   <g id="patch_27">
    <path d="M 57.7125 36.5256 
L 59.805 36.5256 
L 59.805 36.5256 
L 57.7125 36.5256 
z
" clip-path="url(#p7c186e5e6e)" style="fill: #267655"/>
   </g>
   <g id="patch_28">
    <path d="M 59.805 36.5256 
L 61.8975 36.5256 
L 61.8975 36.5256 
L 59.805 36.5256 
z
" clip-path="url(#p7c186e5e6e)" style="fill: #267655"/>
   </g>
   <g id="patch_29">
    <path d="M 61.8975 36.5256 
L 63.99 36.5256 
L 63.99 36.5256 
L 61.8975 36.5256 
z
" clip-path="url(#p7c186e5e6e)" style="fill: #267655"/>
   </g>
   <g id="patch_30">
    <path d="M 63.99 36.5256 
L 66.0825 36.5256 
L 66.0825 36.459765 
L 63.99 36.459765 
z
" clip-path="url(#p7c186e5e6e)" style="fill: #267655"/>
   </g>
   <g id="patch_31">
    <path d="M 66.0825 36.5256 
L 68.175 36.5256 
L 68.175 36.5256 
L 66.0825 36.5256 
z
" clip-path="url(#p7c186e5e6e)" style="fill: #267655"/>
   </g>
   <g id="patch_32">
    <path d="M 68.175 36.5256 
L 70.2675 36.5256 
L 70.2675 36.5256 
L 68.175 36.5256 
z
" clip-path="url(#p7c186e5e6e)" style="fill: #267655"/>
   </g>
   <g id="patch_33">
    <path d="M 70.2675 36.5256 
L 72.36 36.5256 
L 72.36 36.5256 
L 70.2675 36.5256 
z
" clip-path="url(#p7c186e5e6e)" style="fill: #267655"/>
   </g>
   <g id="patch_34">
    <path d="M 72.36 36.5256 
L 74.4525 36.5256 
L 74.4525 36.5256 
L 72.36 36.5256 
z
" clip-path="url(#p7c186e5e6e)" style="fill: #267655"/>
   </g>
   <g id="patch_35">
    <path d="M 74.4525 36.5256 
L 76.545 36.5256 
L 76.545 36.5256 
L 74.4525 36.5256 
z
" clip-path="url(#p7c186e5e6e)" style="fill: #267655"/>
   </g>
   <g id="patch_36">
    <path d="M 76.545 36.5256 
L 78.6375 36.5256 
L 78.6375 36.5256 
L 76.545 36.5256 
z
" clip-path="url(#p7c186e5e6e)" style="fill: #267655"/>
   </g>
   <g id="patch_37">
    <path d="M 78.6375 36.5256 
L 80.73 36.5256 
L 80.73 36.5256 
L 78.6375 36.5256 
z
" clip-path="url(#p7c186e5e6e)" style="fill: #267655"/>
   </g>
   <g id="patch_38">
    <path d="M 80.73 36.5256 
L 82.8225 36.5256 
L 82.8225 36.5256 
L 80.73 36.5256 
z
" clip-path="url(#p7c186e5e6e)" style="fill: #267655"/>
   </g>
   <g id="patch_39">
    <path d="M 82.8225 36.5256 
L 84.915 36.5256 
L 84.915 36.5256 
L 82.8225 36.5256 
z
" clip-path="url(#p7c186e5e6e)" style="fill: #267655"/>
   </g>
   <g id="patch_40">
    <path d="M 84.915 36.5256 
L 87.0075 36.5256 
L 87.0075 36.5256 
L 84.915 36.5256 
z
" clip-path="url(#p7c186e5e6e)" style="fill: #267655"/>
   </g>
   <g id="patch_41">
    <path d="M 87.0075 36.5256 
L 89.1 36.5256 
L 89.1 36.5256 
L 87.0075 36.5256 
z
" clip-path="url(#p7c186e5e6e)" style="fill: #267655"/>
   </g>
   <g id="patch_42">
    <path d="M 89.1 36.5256 
L 91.1925 36.5256 
L 91.1925 36.5256 
L 89.1 36.5256 
z
" clip-path="url(#p7c186e5e6e)" style="fill: #267655"/>
   </g>
   <g id="patch_43">
    <path d="M 91.1925 36.5256 
L 93.285 36.5256 
L 93.285 36.5256 
L 91.1925 36.5256 
z
" clip-path="url(#p7c186e5e6e)" style="fill: #267655"/>
   </g>
   <g id="patch_44">
    <path d="M 93.285 36.5256 
L 95.3775 36.5256 
L 95.3775 36.5256 
L 93.285 36.5256 
z
" clip-path="url(#p7c186e5e6e)" style="fill: #267655"/>
   </g>
   <g id="patch_45">
    <path d="M 95.3775 36.5256 
L 97.47 36.5256 
L 97.47 36.5256 
L 95.3775 36.5256 
z
" clip-path="url(#p7c186e5e6e)" style="fill: #267655"/>
   </g>
   <g id="patch_46">
    <path d="M 97.47 36.5256 
L 99.5625 36.5256 
L 99.5625 36.5256 
L 97.47 36.5256 
z
" clip-path="url(#p7c186e5e6e)" style="fill: #267655"/>
   </g>
   <g id="patch_47">
    <path d="M 99.5625 36.5256 
L 101.655 36.5256 
L 101.655 36.5256 
L 99.5625 36.5256 
z
" clip-path="url(#p7c186e5e6e)" style="fill: #267655"/>
   </g>
   <g id="patch_48">
    <path d="M 101.655 36.5256 
L 103.7475 36.5256 
L 103.7475 36.5256 
L 101.655 36.5256 
z
" clip-path="url(#p7c186e5e6e)" style="fill: #267655"/>
   </g>
   <g id="patch_49">
    <path d="M 103.7475 36.5256 
L 105.84 36.5256 
L 105.84 36.5256 
L 103.7475 36.5256 
z
" clip-path="url(#p7c186e5e6e)" style="fill: #267655"/>
   </g>
   <g id="patch_50">
    <path d="M 105.84 36.5256 
L 107.9325 36.5256 
L 107.9325 36.5256 
L 105.84 36.5256 
z
" clip-path="url(#p7c186e5e6e)" style="fill: #267655"/>
   </g>
   <g id="patch_51">
    <path d="M 107.9325 36.5256 
L 110.025 36.5256 
L 110.025 36.5256 
L 107.9325 36.5256 
z
" clip-path="url(#p7c186e5e6e)" style="fill: #267655"/>
   </g>
   <g id="patch_52">
    <path d="M 110.025 36.5256 
L 112.1175 36.5256 
L 112.1175 36.5256 
L 110.025 36.5256 
z
" clip-path="url(#p7c186e5e6e)" style="fill: #267655"/>
   </g>
   <g id="patch_53">
    <path d="M 112.1175 36.5256 
L 114.21 36.5256 
L 114.21 36.5256 
L 112.1175 36.5256 
z
" clip-path="url(#p7c186e5e6e)" style="fill: #267655"/>
   </g>
   <g id="patch_54">
    <path d="M 114.21 36.5256 
L 116.3025 36.5256 
L 116.3025 36.5256 
L 114.21 36.5256 
z
" clip-path="url(#p7c186e5e6e)" style="fill: #267655"/>
   </g>
   <g id="patch_55">
    <path d="M 116.3025 36.5256 
L 118.395 36.5256 
L 118.395 36.5256 
L 116.3025 36.5256 
z
" clip-path="url(#p7c186e5e6e)" style="fill: #267655"/>
   </g>
   <g id="patch_56">
    <path d="M 118.395 36.5256 
L 120.4875 36.5256 
L 120.4875 36.5256 
L 118.395 36.5256 
z
" clip-path="url(#p7c186e5e6e)" style="fill: #267655"/>
   </g>
   <g id="patch_57">
    <path d="M 120.4875 36.5256 
L 122.58 36.5256 
L 122.58 36.5256 
L 120.4875 36.5256 
z
" clip-path="url(#p7c186e5e6e)" style="fill: #267655"/>
   </g>
   <g id="patch_58">
    <path d="M 122.58 36.5256 
L 124.6725 36.5256 
L 124.6725 36.5256 
L 122.58 36.5256 
z
" clip-path="url(#p7c186e5e6e)" style="fill: #267655"/>
   </g>
   <g id="patch_59">
    <path d="M 124.6725 36.5256 
L 126.765 36.5256 
L 126.765 36.5256 
L 124.6725 36.5256 
z
" clip-path="url(#p7c186e5e6e)" style="fill: #267655"/>
   </g>
   <g id="patch_60">
    <path d="M 126.765 36.5256 
L 128.8575 36.5256 
L 128.8575 36.5256 
L 126.765 36.5256 
z
" clip-path="url(#p7c186e5e6e)" style="fill: #267655"/>
   </g>
   <g id="patch_61">
    <path d="M 128.8575 36.5256 
L 130.95 36.5256 
L 130.95 36.5256 
L 128.8575 36.5256 
z
" clip-path="url(#p7c186e5e6e)" style="fill: #267655"/>
   </g>
   <g id="patch_62">
    <path d="M 130.95 36.5256 
L 133.0425 36.5256 
L 133.0425 36.5256 
L 130.95 36.5256 
z
" clip-path="url(#p7c186e5e6e)" style="fill: #267655"/>
   </g>
   <g id="patch_63">
    <path d="M 133.0425 36.5256 
L 135.135 36.5256 
L 135.135 36.5256 
L 133.0425 36.5256 
z
" clip-path="url(#p7c186e5e6e)" style="fill: #267655"/>
   </g>
   <g id="patch_64">
    <path d="M 135.135 36.5256 
L 137.2275 36.5256 
L 137.2275 36.5256 
L 135.135 36.5256 
z
" clip-path="url(#p7c186e5e6e)" style="fill: #267655"/>
   </g>
   <g id="patch_65">
    <path d="M 137.2275 36.5256 
L 139.32 36.5256 
L 139.32 36.5256 
L 137.2275 36.5256 
z
" clip-path="url(#p7c186e5e6e)" style="fill: #267655"/>
   </g>
   <g id="patch_66">
    <path d="M 139.32 36.5256 
L 141.4125 36.5256 
L 141.4125 36.5256 
L 139.32 36.5256 
z
" clip-path="url(#p7c186e5e6e)" style="fill: #267655"/>
   </g>
   <g id="patch_67">
    <path d="M 141.4125 36.5256 
L 143.505 36.5256 
L 143.505 36.5256 
L 141.4125 36.5256 
z
" clip-path="url(#p7c186e5e6e)" style="fill: #267655"/>
   </g>
   <g id="patch_68">
    <path d="M 143.505 36.5256 
L 145.5975 36.5256 
L 145.5975 36.5256 
L 143.505 36.5256 
z
" clip-path="url(#p7c186e5e6e)" style="fill: #267655"/>
   </g>
   <g id="patch_69">
    <path d="M 145.5975 36.5256 
L 147.69 36.5256 
L 147.69 36.5256 
L 145.5975 36.5256 
z
" clip-path="url(#p7c186e5e6e)" style="fill: #267655"/>
   </g>
   <g id="patch_70">
    <path d="M 147.69 36.5256 
L 149.7825 36.5256 
L 149.7825 36.5256 
L 147.69 36.5256 
z
" clip-path="url(#p7c186e5e6e)" style="fill: #267655"/>
   </g>
   <g id="patch_71">
    <path d="M 149.7825 36.5256 
L 151.875 36.5256 
L 151.875 36.5256 
L 149.7825 36.5256 
z
" clip-path="url(#p7c186e5e6e)" style="fill: #267655"/>
   </g>
   <g id="patch_72">
    <path d="M 151.875 36.5256 
L 153.9675 36.5256 
L 153.9675 36.5256 
L 151.875 36.5256 
z
" clip-path="url(#p7c186e5e6e)" style="fill: #267655"/>
   </g>
   <g id="patch_73">
    <path d="M 153.9675 36.5256 
L 156.06 36.5256 
L 156.06 36.5256 
L 153.9675 36.5256 
z
" clip-path="url(#p7c186e5e6e)" style="fill: #267655"/>
   </g>
   <g id="patch_74">
    <path d="M 156.06 36.5256 
L 158.1525 36.5256 
L 158.1525 36.5256 
L 156.06 36.5256 
z
" clip-path="url(#p7c186e5e6e)" style="fill: #267655"/>
   </g>
   <g id="patch_75">
    <path d="M 158.1525 36.5256 
L 160.245 36.5256 
L 160.245 36.5256 
L 158.1525 36.5256 
z
" clip-path="url(#p7c186e5e6e)" style="fill: #267655"/>
   </g>
   <g id="patch_76">
    <path d="M 160.245 36.5256 
L 162.3375 36.5256 
L 162.3375 36.5256 
L 160.245 36.5256 
z
" clip-path="url(#p7c186e5e6e)" style="fill: #267655"/>
   </g>
   <g id="patch_77">
    <path d="M 162.3375 36.5256 
L 164.43 36.5256 
L 164.43 36.5256 
L 162.3375 36.5256 
z
" clip-path="url(#p7c186e5e6e)" style="fill: #267655"/>
   </g>
   <g id="patch_78">
    <path d="M 164.43 36.5256 
L 166.5225 36.5256 
L 166.5225 36.459765 
L 164.43 36.459765 
z
" clip-path="url(#p7c186e5e6e)" style="fill: #267655"/>
   </g>
   <g id="matplotlib.axis_1">
    <g id="xtick_1">
     <g id="line2d_1">
      <defs>
       <path id="mcc17dae8e1" d="M 0 0 
L 0 1.7 
" style="stroke: #000000; stroke-width: 0.25"/>
      </defs>
      <g>
       <use xlink:href="#mcc17dae8e1" x="6.44625" y="37.5256" style="stroke: #000000; stroke-width: 0.25"/>
      </g>
     </g>
     <g id="text_1">
      <text style="font-size: 6px; font-family: 'Arial'; text-anchor: middle" x="6.44625" y="45.020288" transform="rotate(-0 6.44625 45.020288)">0</text>
     </g>
    </g>
    <g id="xtick_2">
     <g id="line2d_2">
      <g>
       <use xlink:href="#mcc17dae8e1" x="16.90875" y="37.5256" style="stroke: #000000; stroke-width: 0.25"/>
      </g>
     </g>
     <g id="text_2">
      <text style="font-size: 6px; font-family: 'Arial'; text-anchor: middle" x="16.90875" y="45.020288" transform="rotate(-0 16.90875 45.020288)">5</text>
     </g>
    </g>
    <g id="xtick_3">
     <g id="line2d_3">
      <g>
       <use xlink:href="#mcc17dae8e1" x="27.37125" y="37.5256" style="stroke: #000000; stroke-width: 0.25"/>
      </g>
     </g>
     <g id="text_3">
      <text style="font-size: 6px; font-family: 'Arial'; text-anchor: middle" x="27.37125" y="45.020288" transform="rotate(-0 27.37125 45.020288)">10</text>
     </g>
    </g>
    <g id="xtick_4">
     <g id="line2d_4">
      <g>
       <use xlink:href="#mcc17dae8e1" x="37.83375" y="37.5256" style="stroke: #000000; stroke-width: 0.25"/>
      </g>
     </g>
     <g id="text_4">
      <text style="font-size: 6px; font-family: 'Arial'; text-anchor: middle" x="37.83375" y="45.020288" transform="rotate(-0 37.83375 45.020288)">15</text>
     </g>
    </g>
    <g id="text_5">
     <text style="font-size: 8px; font-family: 'Arial'; text-anchor: middle" x="22.14" y="53.439037" transform="rotate(-0 22.14 53.439037)"># MNs active</text>
    </g>
   </g>
   <g id="matplotlib.axis_2">
    <g id="ytick_1">
     <g id="line2d_5">
      <defs>
       <path id="md0a1874000" d="M 0 0 
L -1.7 0 
" style="stroke: #000000; stroke-width: 0.25"/>
      </defs>
      <g>
       <use xlink:href="#md0a1874000" x="4.4" y="36.5256" style="stroke: #000000; stroke-width: 0.25"/>
      </g>
     </g>
     <g id="text_6">
      <text style="font-size: 6px; font-family: 'Arial'; text-anchor: end" x="1.2" y="38.672944" transform="rotate(-0 1.2 38.672944)">0</text>
     </g>
    </g>
    <g id="ytick_2">
     <g id="line2d_6">
      <g>
       <use xlink:href="#md0a1874000" x="4.4" y="20.06685" style="stroke: #000000; stroke-width: 0.25"/>
      </g>
     </g>
     <g id="text_7">
      <text style="font-size: 6px; font-family: 'Arial'; text-anchor: end" x="1.2" y="22.214194" transform="rotate(-0 1.2 22.214194)">250</text>
     </g>
    </g>
    <g id="text_8">
     <text style="font-size: 8px; font-family: 'Arial'; text-anchor: middle" x="-11.899688" y="20.7252" transform="rotate(-90 -11.899688 20.7252)"># replicates</text>
    </g>
   </g>
   <g id="patch_79">
    <path d="M 4.4 36.5256 
L 4.4 4.9248 
" style="fill: none; stroke: #000000; stroke-width: 0.25; stroke-linejoin: miter; stroke-linecap: square"/>
   </g>
   <g id="patch_80">
    <path d="M 5.4 37.5256 
L 38.88 37.5256 
" style="fill: none; stroke: #000000; stroke-width: 0.25; stroke-linejoin: miter; stroke-linecap: square"/>
   </g>
  </g>
 </g>
 <defs>
  <clipPath id="p7c186e5e6e">
   <rect x="5.4" y="4.9248" width="33.48" height="31.6008"/>
  </clipPath>
 </defs>
</svg>
