<?xml version="1.0" encoding="utf-8" standalone="no"?>
<!DOCTYPE svg PUBLIC "-//W3C//DTD SVG 1.1//EN"
  "http://www.w3.org/Graphics/SVG/1.1/DTD/svg11.dtd">
<svg xmlns:xlink="http://www.w3.org/1999/xlink" width="102.24pt" height="75.6pt" viewBox="0 0 102.24 75.6" xmlns="http://www.w3.org/2000/svg" version="1.1">
 <metadata>
  <rdf:RDF xmlns:dc="http://purl.org/dc/elements/1.1/" xmlns:cc="http://creativecommons.org/ns#" xmlns:rdf="http://www.w3.org/1999/02/22-rdf-syntax-ns#">
   <cc:Work>
    <dc:type rdf:resource="http://purl.org/dc/dcmitype/StillImage"/>
    <dc:date>2025-09-08T16:56:52.983596</dc:date>
    <dc:format>image/svg+xml</dc:format>
    <dc:creator>
     <cc:Agent>
      <dc:title>Matplotlib v3.10.3, https://matplotlib.org/</dc:title>
     </cc:Agent>
    </dc:creator>
   </cc:Work>
  </rdf:RDF>
 </metadata>
 <defs>
  <style type="text/css">*{stroke-linejoin: round; stroke-linecap: butt}</style>
 </defs>
 <g id="figure_1">
  <g id="patch_1">
   <path d="M 0 75.6 
L 102.24 75.6 
L 102.24 0 
L 0 0 
L 0 75.6 
z
" style="fill: none"/>
  </g>
  <g id="axes_1">
   <g id="patch_2">
    <path d="M 12.78 67.284 
L 92.016 67.284 
L 92.016 9.072 
L 12.78 9.072 
L 12.78 67.284 
z
" style="fill: none"/>
   </g>
   <g id="FillBetweenPolyCollection_1">
    <path d="M 23.536207 64.638 
L 21.832793 64.638 
L 21.844756 64.156156 
L 21.879648 63.674312 
L 21.934608 63.192469 
L 22.005302 62.710625 
L 22.086483 62.228781 
L 22.172631 61.746937 
L 22.258556 61.265093 
L 22.339884 60.78325 
L 22.413355 60.301406 
L 22.476935 59.819562 
L 22.529746 59.337718 
L 22.571873 58.855875 
L 22.604094 58.374031 
L 22.627603 57.892187 
L 22.643762 57.410343 
L 22.653901 56.928499 
L 22.659203 56.446656 
L 22.660636 55.964812 
L 22.658948 55.482968 
L 22.654692 55.001124 
L 22.648279 54.51928 
L 22.640023 54.037437 
L 22.630199 53.555593 
L 22.61907 53.073749 
L 22.606913 52.591905 
L 22.594021 52.110061 
L 22.580689 51.628218 
L 22.567191 51.146374 
L 22.553748 50.66453 
L 22.540491 50.182686 
L 22.527433 49.700843 
L 22.514446 49.218999 
L 22.501247 48.737155 
L 22.487398 48.255311 
L 22.472319 47.773467 
L 22.455305 47.291624 
L 22.435546 46.80978 
L 22.412155 46.327936 
L 22.384183 45.846092 
L 22.350644 45.364248 
L 22.310517 44.882405 
L 22.262764 44.400561 
L 22.206325 43.918717 
L 22.140123 43.436873 
L 22.063061 42.95503 
L 21.974006 42.473186 
L 21.871788 41.991342 
L 21.755177 41.509498 
L 21.622881 41.027654 
L 21.473547 40.545811 
L 21.305789 40.063967 
L 21.118256 39.582123 
L 20.909745 39.100279 
L 20.679376 38.618435 
L 20.426818 38.136592 
L 20.152557 37.654748 
L 19.858196 37.172904 
L 19.54672 36.69106 
L 19.222707 36.209216 
L 18.892426 35.727373 
L 18.563778 35.245529 
L 18.246054 34.763685 
L 17.949502 34.281841 
L 17.684732 33.799998 
L 17.461999 33.318154 
L 17.290437 32.83631 
L 17.177342 32.354466 
L 17.127576 31.872622 
L 17.143178 31.390779 
L 17.223218 30.908935 
L 17.363934 30.427091 
L 17.559102 29.945247 
L 17.800612 29.463403 
L 18.079154 28.98156 
L 18.384945 28.499716 
L 18.708394 28.017872 
L 19.04065 27.536028 
L 19.37398 27.054184 
L 19.701971 26.572341 
L 20.019562 26.090497 
L 20.322942 25.608653 
L 20.609364 25.126809 
L 20.876931 24.644966 
L 21.124382 24.163122 
L 21.350935 23.681278 
L 21.55617 23.199434 
L 21.739982 22.71759 
L 21.902567 22.235747 
L 22.044435 21.753903 
L 22.166418 21.272059 
L 22.269675 20.790215 
L 22.355657 20.308371 
L 22.426059 19.826528 
L 22.482741 19.344684 
L 22.52764 18.86284 
L 22.562678 18.380996 
L 22.589683 17.899153 
L 22.610316 17.417309 
L 22.626027 16.935465 
L 22.742973 16.935465 
L 22.742973 16.935465 
L 22.758684 17.417309 
L 22.779317 17.899153 
L 22.806322 18.380996 
L 22.84136 18.86284 
L 22.886259 19.344684 
L 22.942941 19.826528 
L 23.013343 20.308371 
L 23.099325 20.790215 
L 23.202582 21.272059 
L 23.324565 21.753903 
L 23.466433 22.235747 
L 23.629018 22.71759 
L 23.81283 23.199434 
L 24.018065 23.681278 
L 24.244618 24.163122 
L 24.492069 24.644966 
L 24.759636 25.126809 
L 25.046058 25.608653 
L 25.349438 26.090497 
L 25.667029 26.572341 
L 25.99502 27.054184 
L 26.32835 27.536028 
L 26.660606 28.017872 
L 26.984055 28.499716 
L 27.289846 28.98156 
L 27.568388 29.463403 
L 27.809898 29.945247 
L 28.005066 30.427091 
L 28.145782 30.908935 
L 28.225822 31.390779 
L 28.241424 31.872622 
L 28.191658 32.354466 
L 28.078563 32.83631 
L 27.907001 33.318154 
L 27.684268 33.799998 
L 27.419498 34.281841 
L 27.122946 34.763685 
L 26.805222 35.245529 
L 26.476574 35.727373 
L 26.146293 36.209216 
L 25.82228 36.69106 
L 25.510804 37.172904 
L 25.216443 37.654748 
L 24.942182 38.136592 
L 24.689624 38.618435 
L 24.459255 39.100279 
L 24.250744 39.582123 
L 24.063211 40.063967 
L 23.895453 40.545811 
L 23.746119 41.027654 
L 23.613823 41.509498 
L 23.497212 41.991342 
L 23.394994 42.473186 
L 23.305939 42.95503 
L 23.228877 43.436873 
L 23.162675 43.918717 
L 23.106236 44.400561 
L 23.058483 44.882405 
L 23.018356 45.364248 
L 22.984817 45.846092 
L 22.956845 46.327936 
L 22.933454 46.80978 
L 22.913695 47.291624 
L 22.896681 47.773467 
L 22.881602 48.255311 
L 22.867753 48.737155 
L 22.854554 49.218999 
L 22.841567 49.700843 
L 22.828509 50.182686 
L 22.815252 50.66453 
L 22.801809 51.146374 
L 22.788311 51.628218 
L 22.774979 52.110061 
L 22.762087 52.591905 
L 22.74993 53.073749 
L 22.738801 53.555593 
L 22.728977 54.037437 
L 22.720721 54.51928 
L 22.714308 55.001124 
L 22.710052 55.482968 
L 22.708364 55.964812 
L 22.709797 56.446656 
L 22.715099 56.928499 
L 22.725238 57.410343 
L 22.741397 57.892187 
L 22.764906 58.374031 
L 22.797127 58.855875 
L 22.839254 59.337718 
L 22.892065 59.819562 
L 22.955645 60.301406 
L 23.029116 60.78325 
L 23.110444 61.265093 
L 23.196369 61.746937 
L 23.282517 62.228781 
L 23.363698 62.710625 
L 23.434392 63.192469 
L 23.489352 63.674312 
L 23.524244 64.156156 
L 23.536207 64.638 
z
" clip-path="url(#pc7abce597e)" style="fill: #306c53; fill-opacity: 0.5"/>
   </g>
   <g id="FillBetweenPolyCollection_2">
    <path d="M 42.875423 35.935628 
L 42.111577 35.935628 
L 42.043697 35.707204 
L 41.972667 35.47878 
L 41.896211 35.250356 
L 41.810264 35.021931 
L 41.709417 34.793507 
L 41.587779 34.565083 
L 41.440066 34.336659 
L 41.262668 34.108235 
L 41.054382 33.879811 
L 40.816552 33.651387 
L 40.552528 33.422962 
L 40.266543 33.194538 
L 39.962387 32.966114 
L 39.64237 32.73769 
L 39.307078 32.509266 
L 38.956151 32.280842 
L 38.589927 32.052417 
L 38.211383 31.823993 
L 37.827592 31.595569 
L 37.449932 31.367145 
L 37.092686 31.138721 
L 36.770191 30.910297 
L 36.493233 30.681873 
L 36.265728 30.453448 
L 36.082752 30.225024 
L 35.930639 29.9966 
L 35.789362 29.768176 
L 35.636757 29.539752 
L 35.45364 29.311328 
L 35.228607 29.082903 
L 34.961304 28.854479 
L 34.663332 28.626055 
L 34.356469 28.397631 
L 34.068625 28.169207 
L 33.828486 27.940783 
L 33.660206 27.712359 
L 33.57945 27.483934 
L 33.591666 27.25551 
L 33.692785 27.027086 
L 33.87182 26.798662 
L 34.114364 26.570238 
L 34.405863 26.341814 
L 34.733835 26.113389 
L 35.088672 25.884965 
L 35.463205 25.656541 
L 35.851518 25.428117 
L 36.247633 25.199693 
L 36.644567 24.971269 
L 37.034032 24.742845 
L 37.406827 24.51442 
L 37.753764 24.285996 
L 38.066899 24.057572 
L 38.340757 23.829148 
L 38.573297 23.600724 
L 38.766407 23.3723 
L 38.925797 23.143875 
L 39.060321 22.915451 
L 39.180838 22.687027 
L 39.298813 22.458603 
L 39.42489 22.230179 
L 39.567633 22.001755 
L 39.732576 21.773331 
L 39.921679 21.544906 
L 40.133225 21.316482 
L 40.362147 21.088058 
L 40.600757 20.859634 
L 40.839796 20.63121 
L 41.069674 20.402786 
L 41.281756 20.174361 
L 41.469479 19.945937 
L 41.629105 19.717513 
L 41.759988 19.489089 
L 41.86429 19.260665 
L 41.946237 19.032241 
L 42.011119 18.803817 
L 42.064243 18.575392 
L 42.110089 18.346968 
L 42.151802 18.118544 
L 42.191072 17.89012 
L 42.228347 17.661696 
L 42.263275 17.433272 
L 42.295202 17.204847 
L 42.323599 16.976423 
L 42.348316 16.747999 
L 42.369608 16.519575 
L 42.387999 16.291151 
L 42.404039 16.062727 
L 42.418088 15.834303 
L 42.430192 15.605878 
L 42.440097 15.377454 
L 42.447387 15.14903 
L 42.451693 14.920606 
L 42.452896 14.692182 
L 42.451275 14.463758 
L 42.447545 14.235333 
L 42.442781 14.006909 
L 42.438236 13.778485 
L 42.435104 13.550061 
L 42.43428 13.321637 
L 42.55272 13.321637 
L 42.55272 13.321637 
L 42.551896 13.550061 
L 42.548764 13.778485 
L 42.544219 14.006909 
L 42.539455 14.235333 
L 42.535725 14.463758 
L 42.534104 14.692182 
L 42.535307 14.920606 
L 42.539613 15.14903 
L 42.546903 15.377454 
L 42.556808 15.605878 
L 42.568912 15.834303 
L 42.582961 16.062727 
L 42.599001 16.291151 
L 42.617392 16.519575 
L 42.638684 16.747999 
L 42.663401 16.976423 
L 42.691798 17.204847 
L 42.723725 17.433272 
L 42.758653 17.661696 
L 42.795928 17.89012 
L 42.835198 18.118544 
L 42.876911 18.346968 
L 42.922757 18.575392 
L 42.975881 18.803817 
L 43.040763 19.032241 
L 43.12271 19.260665 
L 43.227012 19.489089 
L 43.357895 19.717513 
L 43.517521 19.945937 
L 43.705244 20.174361 
L 43.917326 20.402786 
L 44.147204 20.63121 
L 44.386243 20.859634 
L 44.624853 21.088058 
L 44.853775 21.316482 
L 45.065321 21.544906 
L 45.254424 21.773331 
L 45.419367 22.001755 
L 45.56211 22.230179 
L 45.688187 22.458603 
L 45.806162 22.687027 
L 45.926679 22.915451 
L 46.061203 23.143875 
L 46.220593 23.3723 
L 46.413703 23.600724 
L 46.646243 23.829148 
L 46.920101 24.057572 
L 47.233236 24.285996 
L 47.580173 24.51442 
L 47.952968 24.742845 
L 48.342433 24.971269 
L 48.739367 25.199693 
L 49.135482 25.428117 
L 49.523795 25.656541 
L 49.898328 25.884965 
L 50.253165 26.113389 
L 50.581137 26.341814 
L 50.872636 26.570238 
L 51.11518 26.798662 
L 51.294215 27.027086 
L 51.395334 27.25551 
L 51.40755 27.483934 
L 51.326794 27.712359 
L 51.158514 27.940783 
L 50.918375 28.169207 
L 50.630531 28.397631 
L 50.323668 28.626055 
L 50.025696 28.854479 
L 49.758393 29.082903 
L 49.53336 29.311328 
L 49.350243 29.539752 
L 49.197638 29.768176 
L 49.056361 29.9966 
L 48.904248 30.225024 
L 48.721272 30.453448 
L 48.493767 30.681873 
L 48.216809 30.910297 
L 47.894314 31.138721 
L 47.537068 31.367145 
L 47.159408 31.595569 
L 46.775617 31.823993 
L 46.397073 32.052417 
L 46.030849 32.280842 
L 45.679922 32.509266 
L 45.34463 32.73769 
L 45.024613 32.966114 
L 44.720457 33.194538 
L 44.434472 33.422962 
L 44.170448 33.651387 
L 43.932618 33.879811 
L 43.724332 34.108235 
L 43.546934 34.336659 
L 43.399221 34.565083 
L 43.277583 34.793507 
L 43.176736 35.021931 
L 43.090789 35.250356 
L 43.014333 35.47878 
L 42.943303 35.707204 
L 42.875423 35.935628 
z
" clip-path="url(#pc7abce597e)" style="fill: #306c53; fill-opacity: 0.5"/>
   </g>
   <g id="FillBetweenPolyCollection_3">
    <path d="M 62.690348 32.381998 
L 61.914652 32.381998 
L 61.831444 32.173271 
L 61.742487 31.964544 
L 61.649255 31.755817 
L 61.552602 31.547089 
L 61.452265 31.338362 
L 61.346526 31.129635 
L 61.232165 30.920908 
L 61.104811 30.71218 
L 60.95964 30.503453 
L 60.792286 30.294726 
L 60.599729 30.085999 
L 60.380904 29.877271 
L 60.136875 29.668544 
L 59.870508 29.459817 
L 59.585766 29.25109 
L 59.286849 29.042362 
L 58.977461 28.833635 
L 58.660441 28.624908 
L 58.337862 28.416181 
L 58.011548 28.207453 
L 57.683783 27.998726 
L 57.357896 27.789999 
L 57.038445 27.581271 
L 56.730828 27.372544 
L 56.440372 27.163817 
L 56.17116 26.95509 
L 55.924973 26.746362 
L 55.700717 26.537635 
L 55.494571 26.328908 
L 55.300837 26.120181 
L 55.113274 25.911453 
L 54.926542 25.702726 
L 54.737386 25.493999 
L 54.545303 25.285272 
L 54.352634 25.076544 
L 54.164143 24.867817 
L 53.986316 24.65909 
L 53.826563 24.450363 
L 53.692517 24.241635 
L 53.591517 24.032908 
L 53.53028 23.824181 
L 53.514701 23.615454 
L 53.549684 23.406726 
L 53.638895 23.197999 
L 53.784375 22.989272 
L 53.986049 22.780545 
L 54.241204 22.571817 
L 54.544123 22.36309 
L 54.886036 22.154363 
L 55.255538 21.945636 
L 55.639512 21.736908 
L 56.024484 21.528181 
L 56.398204 21.319454 
L 56.751153 21.110727 
L 57.077643 20.901999 
L 57.376232 20.693272 
L 57.649333 20.484545 
L 57.902083 20.275818 
L 58.140762 20.06709 
L 58.371169 19.858363 
L 58.597351 19.649636 
L 58.820986 19.440908 
L 59.04149 19.232181 
L 59.256717 19.023454 
L 59.463982 18.814727 
L 59.661063 18.605999 
L 59.846932 18.397272 
L 60.022042 18.188545 
L 60.188161 17.979818 
L 60.347841 17.77109 
L 60.50369 17.562363 
L 60.657654 17.353636 
L 60.810477 17.144909 
L 60.961481 16.936181 
L 61.108702 16.727454 
L 61.249342 16.518727 
L 61.380415 16.31 
L 61.499408 16.101272 
L 61.60479 15.892545 
L 61.696244 15.683818 
L 61.774608 15.475091 
L 61.84155 15.266363 
L 61.899113 15.057636 
L 61.949259 14.848909 
L 61.993521 14.640182 
L 62.032829 14.431454 
L 62.067519 14.222727 
L 62.097492 14.014 
L 62.122447 13.805273 
L 62.142143 13.596545 
L 62.156614 13.387818 
L 62.166306 13.179091 
L 62.172105 12.970364 
L 62.17526 12.761636 
L 62.177214 12.552909 
L 62.179395 12.344182 
L 62.182998 12.135455 
L 62.188814 11.926727 
L 62.197141 11.718 
L 62.407859 11.718 
L 62.407859 11.718 
L 62.416186 11.926727 
L 62.422002 12.135455 
L 62.425605 12.344182 
L 62.427786 12.552909 
L 62.42974 12.761636 
L 62.432895 12.970364 
L 62.438694 13.179091 
L 62.448386 13.387818 
L 62.462857 13.596545 
L 62.482553 13.805273 
L 62.507508 14.014 
L 62.537481 14.222727 
L 62.572171 14.431454 
L 62.611479 14.640182 
L 62.655741 14.848909 
L 62.705887 15.057636 
L 62.76345 15.266363 
L 62.830392 15.475091 
L 62.908756 15.683818 
L 63.00021 15.892545 
L 63.105592 16.101272 
L 63.224585 16.31 
L 63.355658 16.518727 
L 63.496298 16.727454 
L 63.643519 16.936181 
L 63.794523 17.144909 
L 63.947346 17.353636 
L 64.10131 17.562363 
L 64.257159 17.77109 
L 64.416839 17.979818 
L 64.582958 18.188545 
L 64.758068 18.397272 
L 64.943937 18.605999 
L 65.141018 18.814727 
L 65.348283 19.023454 
L 65.56351 19.232181 
L 65.784014 19.440908 
L 66.007649 19.649636 
L 66.233831 19.858363 
L 66.464238 20.06709 
L 66.702917 20.275818 
L 66.955667 20.484545 
L 67.228768 20.693272 
L 67.527357 20.901999 
L 67.853847 21.110727 
L 68.206796 21.319454 
L 68.580516 21.528181 
L 68.965488 21.736908 
L 69.349462 21.945636 
L 69.718964 22.154363 
L 70.060877 22.36309 
L 70.363796 22.571817 
L 70.618951 22.780545 
L 70.820625 22.989272 
L 70.966105 23.197999 
L 71.055316 23.406726 
L 71.090299 23.615454 
L 71.07472 23.824181 
L 71.013483 24.032908 
L 70.912483 24.241635 
L 70.778437 24.450363 
L 70.618684 24.65909 
L 70.440857 24.867817 
L 70.252366 25.076544 
L 70.059697 25.285272 
L 69.867614 25.493999 
L 69.678458 25.702726 
L 69.491726 25.911453 
L 69.304163 26.120181 
L 69.110429 26.328908 
L 68.904283 26.537635 
L 68.680027 26.746362 
L 68.43384 26.95509 
L 68.164628 27.163817 
L 67.874172 27.372544 
L 67.566555 27.581271 
L 67.247104 27.789999 
L 66.921217 27.998726 
L 66.593452 28.207453 
L 66.267138 28.416181 
L 65.944559 28.624908 
L 65.627539 28.833635 
L 65.318151 29.042362 
L 65.019234 29.25109 
L 64.734492 29.459817 
L 64.468125 29.668544 
L 64.224096 29.877271 
L 64.005271 30.085999 
L 63.812714 30.294726 
L 63.64536 30.503453 
L 63.500189 30.71218 
L 63.372835 30.920908 
L 63.258474 31.129635 
L 63.152735 31.338362 
L 63.052398 31.547089 
L 62.955745 31.755817 
L 62.862513 31.964544 
L 62.773556 32.173271 
L 62.690348 32.381998 
z
" clip-path="url(#pc7abce597e)" style="fill: #306c53; fill-opacity: 0.5"/>
   </g>
   <g id="FillBetweenPolyCollection_4">
    <path d="M 82.172408 35.186867 
L 82.050592 35.186867 
L 82.052444 34.949808 
L 82.05767 34.712748 
L 82.06537 34.475689 
L 82.074328 34.23863 
L 82.083317 34.00157 
L 82.091348 33.764511 
L 82.097797 33.527452 
L 82.102373 33.290393 
L 82.104985 33.053333 
L 82.105535 32.816274 
L 82.103722 32.579215 
L 82.098868 32.342156 
L 82.089825 32.105096 
L 82.074981 31.868037 
L 82.05241 31.630978 
L 82.020195 31.393919 
L 81.976924 31.156859 
L 81.922292 30.9198 
L 81.857652 30.682741 
L 81.786279 30.445682 
L 81.713115 30.208622 
L 81.643844 29.971563 
L 81.583378 29.734504 
L 81.534089 29.497445 
L 81.494337 29.260385 
L 81.457799 29.023326 
L 81.413903 28.786267 
L 81.349261 28.549207 
L 81.249684 28.312148 
L 81.102241 28.075089 
L 80.896988 27.83803 
L 80.62822 27.60097 
L 80.295283 27.363911 
L 79.902955 27.126852 
L 79.461219 26.889793 
L 78.984235 26.652733 
L 78.488419 26.415674 
L 77.989931 26.178615 
L 77.502172 25.941556 
L 77.034041 25.704496 
L 76.589499 25.467437 
L 76.168594 25.230378 
L 75.769672 24.993319 
L 75.392111 24.756259 
L 75.038671 24.5192 
L 74.716513 24.282141 
L 74.436241 24.045082 
L 74.208941 23.808022 
L 74.042098 23.570963 
L 73.935958 23.333904 
L 73.881999 23.096844 
L 73.864499 22.859785 
L 73.864885 22.622726 
L 73.867329 22.385667 
L 73.863415 22.148607 
L 73.854042 21.911548 
L 73.847921 21.674489 
L 73.857422 21.43743 
L 73.893642 21.20037 
L 73.962778 20.963311 
L 74.065217 20.726252 
L 74.197506 20.489193 
L 74.356025 20.252133 
L 74.540459 20.015074 
L 74.755324 19.778015 
L 75.008731 19.540956 
L 75.308903 19.303896 
L 75.659971 19.066837 
L 76.058836 18.829778 
L 76.494356 18.592719 
L 76.949108 18.355659 
L 77.403007 18.1186 
L 77.837527 17.881541 
L 78.239245 17.644482 
L 78.601788 17.407422 
L 78.925808 17.170363 
L 79.217143 16.933304 
L 79.483837 16.696244 
L 79.732971 16.459185 
L 79.968347 16.222126 
L 80.189747 15.985067 
L 80.393897 15.748007 
L 80.576612 15.510948 
L 80.735115 15.273889 
L 80.869574 15.03683 
L 80.983289 14.79977 
L 81.081639 14.562711 
L 81.170393 14.325652 
L 81.254127 14.088593 
L 81.335312 13.851533 
L 81.414224 13.614474 
L 81.489521 13.377415 
L 81.559166 13.140356 
L 81.621379 12.903296 
L 81.675371 12.666237 
L 81.721708 12.429178 
L 81.762215 12.192119 
L 81.799443 11.955059 
L 81.835874 11.718 
L 82.387126 11.718 
L 82.387126 11.718 
L 82.423557 11.955059 
L 82.460785 12.192119 
L 82.501292 12.429178 
L 82.547629 12.666237 
L 82.601621 12.903296 
L 82.663834 13.140356 
L 82.733479 13.377415 
L 82.808776 13.614474 
L 82.887688 13.851533 
L 82.968873 14.088593 
L 83.052607 14.325652 
L 83.141361 14.562711 
L 83.239711 14.79977 
L 83.353426 15.03683 
L 83.487885 15.273889 
L 83.646388 15.510948 
L 83.829103 15.748007 
L 84.033253 15.985067 
L 84.254653 16.222126 
L 84.490029 16.459185 
L 84.739163 16.696244 
L 85.005857 16.933304 
L 85.297192 17.170363 
L 85.621212 17.407422 
L 85.983755 17.644482 
L 86.385473 17.881541 
L 86.819993 18.1186 
L 87.273892 18.355659 
L 87.728644 18.592719 
L 88.164164 18.829778 
L 88.563029 19.066837 
L 88.914097 19.303896 
L 89.214269 19.540956 
L 89.467676 19.778015 
L 89.682541 20.015074 
L 89.866975 20.252133 
L 90.025494 20.489193 
L 90.157783 20.726252 
L 90.260222 20.963311 
L 90.329358 21.20037 
L 90.365578 21.43743 
L 90.375079 21.674489 
L 90.368958 21.911548 
L 90.359585 22.148607 
L 90.355671 22.385667 
L 90.358115 22.622726 
L 90.358501 22.859785 
L 90.341001 23.096844 
L 90.287042 23.333904 
L 90.180902 23.570963 
L 90.014059 23.808022 
L 89.786759 24.045082 
L 89.506487 24.282141 
L 89.184329 24.5192 
L 88.830889 24.756259 
L 88.453328 24.993319 
L 88.054406 25.230378 
L 87.633501 25.467437 
L 87.188959 25.704496 
L 86.720828 25.941556 
L 86.233069 26.178615 
L 85.734581 26.415674 
L 85.238765 26.652733 
L 84.761781 26.889793 
L 84.320045 27.126852 
L 83.927717 27.363911 
L 83.59478 27.60097 
L 83.326012 27.83803 
L 83.120759 28.075089 
L 82.973316 28.312148 
L 82.873739 28.549207 
L 82.809097 28.786267 
L 82.765201 29.023326 
L 82.728663 29.260385 
L 82.688911 29.497445 
L 82.639622 29.734504 
L 82.579156 29.971563 
L 82.509885 30.208622 
L 82.436721 30.445682 
L 82.365348 30.682741 
L 82.300708 30.9198 
L 82.246076 31.156859 
L 82.202805 31.393919 
L 82.17059 31.630978 
L 82.148019 31.868037 
L 82.133175 32.105096 
L 82.124132 32.342156 
L 82.119278 32.579215 
L 82.117465 32.816274 
L 82.118015 33.053333 
L 82.120627 33.290393 
L 82.125203 33.527452 
L 82.131652 33.764511 
L 82.139683 34.00157 
L 82.148672 34.23863 
L 82.15763 34.475689 
L 82.16533 34.712748 
L 82.170556 34.949808 
L 82.172408 35.186867 
z
" clip-path="url(#pc7abce597e)" style="fill: #306c53; fill-opacity: 0.5"/>
   </g>
   <g id="matplotlib.axis_1">
    <g id="xtick_1">
     <g id="line2d_1">
      <defs>
       <path id="m95e07348e6" d="M 0 0 
L 0 1.7 
" style="stroke: #000000; stroke-width: 0.25"/>
      </defs>
      <g>
       <use xlink:href="#m95e07348e6" x="22.6845" y="69.284" style="stroke: #000000; stroke-width: 0.25"/>
      </g>
     </g>
     <g id="text_1">
      <text style="font-size: 6px; font-family: 'Arial'" transform="translate(20.24233 82.598721) rotate(-45)">220</text>
     </g>
    </g>
    <g id="xtick_2">
     <g id="line2d_2">
      <g>
       <use xlink:href="#m95e07348e6" x="42.4935" y="69.284" style="stroke: #000000; stroke-width: 0.25"/>
      </g>
     </g>
     <g id="text_2">
      <text style="font-size: 6px; font-family: 'Arial'" transform="translate(40.05133 82.598721) rotate(-45)">260</text>
     </g>
    </g>
    <g id="xtick_3">
     <g id="line2d_3">
      <g>
       <use xlink:href="#m95e07348e6" x="62.3025" y="69.284" style="stroke: #000000; stroke-width: 0.25"/>
      </g>
     </g>
     <g id="text_3">
      <text style="font-size: 6px; font-family: 'Arial'" transform="translate(59.86033 82.598721) rotate(-45)">300</text>
     </g>
    </g>
    <g id="xtick_4">
     <g id="line2d_4">
      <g>
       <use xlink:href="#m95e07348e6" x="82.1115" y="69.284" style="stroke: #000000; stroke-width: 0.25"/>
      </g>
     </g>
     <g id="text_4">
      <text style="font-size: 6px; font-family: 'Arial'" transform="translate(79.66933 82.598721) rotate(-45)">340</text>
     </g>
    </g>
    <g id="text_5">
     <text style="font-size: 8px; font-family: 'Arial'; text-anchor: middle" x="52.398" y="90.765695" transform="rotate(-0 52.398 90.765695)">|input to DNg100s|</text>
    </g>
   </g>
   <g id="matplotlib.axis_2">
    <g id="ytick_1">
     <g id="line2d_5">
      <defs>
       <path id="m4088860135" d="M 0 0 
L -1.7 0 
" style="stroke: #000000; stroke-width: 0.25"/>
      </defs>
      <g>
       <use xlink:href="#m4088860135" x="10.78" y="64.638" style="stroke: #000000; stroke-width: 0.25"/>
      </g>
     </g>
     <g id="text_6">
      <text style="font-size: 6px; font-family: 'Arial'; text-anchor: end" x="7.58" y="66.785344" transform="rotate(-0 7.58 66.785344)">0</text>
     </g>
    </g>
    <g id="ytick_2">
     <g id="line2d_6">
      <g>
       <use xlink:href="#m4088860135" x="10.78" y="47.7036" style="stroke: #000000; stroke-width: 0.25"/>
      </g>
     </g>
     <g id="text_7">
      <text style="font-size: 6px; font-family: 'Arial'; text-anchor: end" x="7.58" y="49.850944" transform="rotate(-0 7.58 49.850944)">5</text>
     </g>
    </g>
    <g id="ytick_3">
     <g id="line2d_7">
      <g>
       <use xlink:href="#m4088860135" x="10.78" y="30.7692" style="stroke: #000000; stroke-width: 0.25"/>
      </g>
     </g>
     <g id="text_8">
      <text style="font-size: 6px; font-family: 'Arial'; text-anchor: end" x="7.58" y="32.916544" transform="rotate(-0 7.58 32.916544)">10</text>
     </g>
    </g>
    <g id="ytick_4">
     <g id="line2d_8">
      <g>
       <use xlink:href="#m4088860135" x="10.78" y="13.8348" style="stroke: #000000; stroke-width: 0.25"/>
      </g>
     </g>
     <g id="text_9">
      <text style="font-size: 6px; font-family: 'Arial'; text-anchor: end" x="7.58" y="15.982144" transform="rotate(-0 7.58 15.982144)">15</text>
     </g>
    </g>
    <g id="text_10">
     <text style="font-size: 8px; font-family: 'Arial'" transform="translate(-10.855375 61.96675) rotate(-90)">motor neuron</text>
     <text style="font-size: 8px; font-family: 'Arial'" transform="translate(-2.276875 64.40675) rotate(-90)">frequency (Hz)</text>
    </g>
   </g>
   <g id="patch_3">
    <path d="M 20.7036 35.690306 
L 24.6654 35.690306 
L 24.6654 29.721709 
L 20.7036 29.721709 
L 20.7036 35.690306 
z
" clip-path="url(#pc7abce597e)" style="fill: #306c53; stroke: #2f2f2f; stroke-width: 0.5; stroke-linejoin: miter"/>
   </g>
   <g id="line2d_9">
    <path d="M 22.6845 35.690306 
L 22.6845 44.357281 
" clip-path="url(#pc7abce597e)" style="fill: none; stroke: #2f2f2f; stroke-width: 0.5"/>
   </g>
   <g id="line2d_10">
    <path d="M 22.6845 29.721709 
L 22.6845 21.766101 
" clip-path="url(#pc7abce597e)" style="fill: none; stroke: #2f2f2f; stroke-width: 0.5"/>
   </g>
   <g id="line2d_11">
    <path d="M 21.69405 44.357281 
L 23.67495 44.357281 
" clip-path="url(#pc7abce597e)" style="fill: none; stroke: #2f2f2f; stroke-width: 0.5; stroke-linecap: square"/>
   </g>
   <g id="line2d_12">
    <path d="M 21.69405 21.766101 
L 23.67495 21.766101 
" clip-path="url(#pc7abce597e)" style="fill: none; stroke: #2f2f2f; stroke-width: 0.5; stroke-linecap: square"/>
   </g>
   <g id="patch_4">
    <path d="M 40.5126 30.077999 
L 44.4744 30.077999 
L 44.4744 25.255674 
L 40.5126 25.255674 
L 40.5126 30.077999 
z
" clip-path="url(#pc7abce597e)" style="fill: #306c53; stroke: #2f2f2f; stroke-width: 0.5; stroke-linejoin: miter"/>
   </g>
   <g id="line2d_13">
    <path d="M 42.4935 30.077999 
L 42.4935 35.935628 
" clip-path="url(#pc7abce597e)" style="fill: none; stroke: #2f2f2f; stroke-width: 0.5"/>
   </g>
   <g id="line2d_14">
    <path d="M 42.4935 25.255674 
L 42.4935 18.242384 
" clip-path="url(#pc7abce597e)" style="fill: none; stroke: #2f2f2f; stroke-width: 0.5"/>
   </g>
   <g id="line2d_15">
    <path d="M 41.50305 35.935628 
L 43.48395 35.935628 
" clip-path="url(#pc7abce597e)" style="fill: none; stroke: #2f2f2f; stroke-width: 0.5; stroke-linecap: square"/>
   </g>
   <g id="line2d_16">
    <path d="M 41.50305 18.242384 
L 43.48395 18.242384 
" clip-path="url(#pc7abce597e)" style="fill: none; stroke: #2f2f2f; stroke-width: 0.5; stroke-linecap: square"/>
   </g>
   <g id="patch_5">
    <path d="M 60.3216 26.275051 
L 64.2834 26.275051 
L 64.2834 21.766101 
L 60.3216 21.766101 
L 60.3216 26.275051 
z
" clip-path="url(#pc7abce597e)" style="fill: #306c53; stroke: #2f2f2f; stroke-width: 0.5; stroke-linejoin: miter"/>
   </g>
   <g id="line2d_17">
    <path d="M 62.3025 26.275051 
L 62.3025 32.381998 
" clip-path="url(#pc7abce597e)" style="fill: none; stroke: #2f2f2f; stroke-width: 0.5"/>
   </g>
   <g id="line2d_18">
    <path d="M 62.3025 21.766101 
L 62.3025 15.071556 
" clip-path="url(#pc7abce597e)" style="fill: none; stroke: #2f2f2f; stroke-width: 0.5"/>
   </g>
   <g id="line2d_19">
    <path d="M 61.31205 32.381998 
L 63.29295 32.381998 
" clip-path="url(#pc7abce597e)" style="fill: none; stroke: #2f2f2f; stroke-width: 0.5; stroke-linecap: square"/>
   </g>
   <g id="line2d_20">
    <path d="M 61.31205 15.071556 
L 63.29295 15.071556 
" clip-path="url(#pc7abce597e)" style="fill: none; stroke: #2f2f2f; stroke-width: 0.5; stroke-linecap: square"/>
   </g>
   <g id="patch_6">
    <path d="M 80.1306 23.832216 
L 84.0924 23.832216 
L 84.0924 19.4796 
L 80.1306 19.4796 
L 80.1306 23.832216 
z
" clip-path="url(#pc7abce597e)" style="fill: #306c53; stroke: #2f2f2f; stroke-width: 0.5; stroke-linejoin: miter"/>
   </g>
   <g id="line2d_21">
    <path d="M 82.1115 23.832216 
L 82.1115 30.340482 
" clip-path="url(#pc7abce597e)" style="fill: none; stroke: #2f2f2f; stroke-width: 0.5"/>
   </g>
   <g id="line2d_22">
    <path d="M 82.1115 19.4796 
L 82.1115 13.321637 
" clip-path="url(#pc7abce597e)" style="fill: none; stroke: #2f2f2f; stroke-width: 0.5"/>
   </g>
   <g id="line2d_23">
    <path d="M 81.12105 30.340482 
L 83.10195 30.340482 
" clip-path="url(#pc7abce597e)" style="fill: none; stroke: #2f2f2f; stroke-width: 0.5; stroke-linecap: square"/>
   </g>
   <g id="line2d_24">
    <path d="M 81.12105 13.321637 
L 83.10195 13.321637 
" clip-path="url(#pc7abce597e)" style="fill: none; stroke: #2f2f2f; stroke-width: 0.5; stroke-linecap: square"/>
   </g>
   <g id="line2d_25">
    <path d="M 20.7036 32.381995 
L 24.6654 32.381995 
" clip-path="url(#pc7abce597e)" style="fill: none; stroke: #2f2f2f; stroke-width: 0.5"/>
   </g>
   <g id="line2d_26">
    <path d="M 40.5126 27.419538 
L 44.4744 27.419538 
" clip-path="url(#pc7abce597e)" style="fill: none; stroke: #2f2f2f; stroke-width: 0.5"/>
   </g>
   <g id="line2d_27">
    <path d="M 60.3216 23.832216 
L 64.2834 23.832216 
" clip-path="url(#pc7abce597e)" style="fill: none; stroke: #2f2f2f; stroke-width: 0.5"/>
   </g>
   <g id="line2d_28">
    <path d="M 80.1306 21.766101 
L 84.0924 21.766101 
" clip-path="url(#pc7abce597e)" style="fill: none; stroke: #2f2f2f; stroke-width: 0.5"/>
   </g>
   <g id="patch_7">
    <path d="M 10.78 67.284 
L 10.78 9.072 
" style="fill: none; stroke: #000000; stroke-width: 0.25; stroke-linejoin: miter; stroke-linecap: square"/>
   </g>
   <g id="patch_8">
    <path d="M 12.78 69.284 
L 92.016 69.284 
" style="fill: none; stroke: #000000; stroke-width: 0.25; stroke-linejoin: miter; stroke-linecap: square"/>
   </g>
  </g>
 </g>
 <defs>
  <clipPath id="pc7abce597e">
   <rect x="12.78" y="9.072" width="79.236" height="58.212"/>
  </clipPath>
 </defs>
</svg>
