<?xml version="1.0" encoding="utf-8" standalone="no"?>
<!DOCTYPE svg PUBLIC "-//W3C//DTD SVG 1.1//EN"
  "http://www.w3.org/Graphics/SVG/1.1/DTD/svg11.dtd">
<svg xmlns:xlink="http://www.w3.org/1999/xlink" width="60.48pt" height="102.672pt" viewBox="0 0 60.48 102.672" xmlns="http://www.w3.org/2000/svg" version="1.1">
 <metadata>
  <rdf:RDF xmlns:dc="http://purl.org/dc/elements/1.1/" xmlns:cc="http://creativecommons.org/ns#" xmlns:rdf="http://www.w3.org/1999/02/22-rdf-syntax-ns#">
   <cc:Work>
    <dc:type rdf:resource="http://purl.org/dc/dcmitype/StillImage"/>
    <dc:date>2025-09-08T16:53:38.269758</dc:date>
    <dc:format>image/svg+xml</dc:format>
    <dc:creator>
     <cc:Agent>
      <dc:title>Matplotlib v3.10.3, https://matplotlib.org/</dc:title>
     </cc:Agent>
    </dc:creator>
   </cc:Work>
  </rdf:RDF>
 </metadata>
 <defs>
  <style type="text/css">*{stroke-linejoin: round; stroke-linecap: butt}</style>
 </defs>
 <g id="figure_1">
  <g id="patch_1">
   <path d="M 0 102.672 
L 60.48 102.672 
L 60.48 0 
L 0 0 
L 0 102.672 
z
" style="fill: none"/>
  </g>
  <g id="axes_1">
   <g id="patch_2">
    <path d="M 7.56 91.37808 
L 54.432 91.37808 
L 54.432 12.32064 
L 7.56 12.32064 
L 7.56 91.37808 
z
" style="fill: none"/>
   </g>
   <g id="FillBetweenPolyCollection_1">
    <path d="M 13.922827 87.78456 
L 12.915173 87.78456 
L 12.92225 87.13017 
L 12.94289 86.47578 
L 12.975402 85.821391 
L 13.017221 85.167001 
L 13.065243 84.512611 
L 13.116204 83.858221 
L 13.167033 83.203832 
L 13.215143 82.549442 
L 13.258604 81.895052 
L 13.296215 81.240662 
L 13.327456 80.586273 
L 13.352375 79.931883 
L 13.371436 79.277493 
L 13.385343 78.623103 
L 13.394901 77.968714 
L 13.400899 77.314324 
L 13.404036 76.659934 
L 13.404883 76.005544 
L 13.403885 75.351155 
L 13.401367 74.696765 
L 13.397573 74.042375 
L 13.39269 73.387985 
L 13.386878 72.733596 
L 13.380295 72.079206 
L 13.373103 71.424816 
L 13.365477 70.770426 
L 13.35759 70.116037 
L 13.349606 69.461647 
L 13.341654 68.807257 
L 13.333812 68.152867 
L 13.326087 67.498478 
L 13.318405 66.844088 
L 13.310597 66.189698 
L 13.302404 65.535308 
L 13.293485 64.880919 
L 13.28342 64.226529 
L 13.271732 63.572139 
L 13.257894 62.917749 
L 13.241348 62.26336 
L 13.221508 61.60897 
L 13.197771 60.95458 
L 13.169522 60.30019 
L 13.136136 59.645801 
L 13.096974 58.991411 
L 13.051388 58.337021 
L 12.998708 57.682631 
L 12.938241 57.028242 
L 12.86926 56.373852 
L 12.791 55.719462 
L 12.702662 55.065072 
L 12.603424 54.410683 
L 12.492489 53.756293 
L 12.369145 53.101903 
L 12.232871 52.447513 
L 12.08347 51.793123 
L 11.921231 51.138734 
L 11.747102 50.484344 
L 11.562848 49.829954 
L 11.371179 49.175564 
L 11.175801 48.521175 
L 10.98139 47.866785 
L 10.79344 47.212395 
L 10.618015 46.558005 
L 10.461391 45.903616 
L 10.329633 45.249226 
L 10.228146 44.594836 
L 10.161244 43.940446 
L 10.131806 43.286057 
L 10.141035 42.631667 
L 10.188383 41.977277 
L 10.271623 41.322887 
L 10.387075 40.668498 
L 10.529939 40.014108 
L 10.694711 39.359718 
L 10.875601 38.705328 
L 11.066937 38.050939 
L 11.263483 37.396549 
L 11.460664 36.742159 
L 11.654687 36.087769 
L 11.842558 35.43338 
L 12.022022 34.77899 
L 12.191455 34.1246 
L 12.349734 33.47021 
L 12.496114 32.815821 
L 12.63013 32.161431 
L 12.751537 31.507041 
L 12.860271 30.852651 
L 12.956448 30.198262 
L 13.04037 29.543872 
L 13.112529 28.889482 
L 13.17361 28.235092 
L 13.224473 27.580703 
L 13.26612 26.926313 
L 13.29965 26.271923 
L 13.326209 25.617533 
L 13.346937 24.963144 
L 13.362911 24.308754 
L 13.375117 23.654364 
L 13.38441 22.999974 
L 13.45359 22.999974 
L 13.45359 22.999974 
L 13.462883 23.654364 
L 13.475089 24.308754 
L 13.491063 24.963144 
L 13.511791 25.617533 
L 13.53835 26.271923 
L 13.57188 26.926313 
L 13.613527 27.580703 
L 13.66439 28.235092 
L 13.725471 28.889482 
L 13.79763 29.543872 
L 13.881552 30.198262 
L 13.977729 30.852651 
L 14.086463 31.507041 
L 14.20787 32.161431 
L 14.341886 32.815821 
L 14.488266 33.47021 
L 14.646545 34.1246 
L 14.815978 34.77899 
L 14.995442 35.43338 
L 15.183313 36.087769 
L 15.377336 36.742159 
L 15.574517 37.396549 
L 15.771063 38.050939 
L 15.962399 38.705328 
L 16.143289 39.359718 
L 16.308061 40.014108 
L 16.450925 40.668498 
L 16.566377 41.322887 
L 16.649617 41.977277 
L 16.696965 42.631667 
L 16.706194 43.286057 
L 16.676756 43.940446 
L 16.609854 44.594836 
L 16.508367 45.249226 
L 16.376609 45.903616 
L 16.219985 46.558005 
L 16.04456 47.212395 
L 15.85661 47.866785 
L 15.662199 48.521175 
L 15.466821 49.175564 
L 15.275152 49.829954 
L 15.090898 50.484344 
L 14.916769 51.138734 
L 14.75453 51.793123 
L 14.605129 52.447513 
L 14.468855 53.101903 
L 14.345511 53.756293 
L 14.234576 54.410683 
L 14.135338 55.065072 
L 14.047 55.719462 
L 13.96874 56.373852 
L 13.899759 57.028242 
L 13.839292 57.682631 
L 13.786612 58.337021 
L 13.741026 58.991411 
L 13.701864 59.645801 
L 13.668478 60.30019 
L 13.640229 60.95458 
L 13.616492 61.60897 
L 13.596652 62.26336 
L 13.580106 62.917749 
L 13.566268 63.572139 
L 13.55458 64.226529 
L 13.544515 64.880919 
L 13.535596 65.535308 
L 13.527403 66.189698 
L 13.519595 66.844088 
L 13.511913 67.498478 
L 13.504188 68.152867 
L 13.496346 68.807257 
L 13.488394 69.461647 
L 13.48041 70.116037 
L 13.472523 70.770426 
L 13.464897 71.424816 
L 13.457705 72.079206 
L 13.451122 72.733596 
L 13.44531 73.387985 
L 13.440427 74.042375 
L 13.436633 74.696765 
L 13.434115 75.351155 
L 13.433117 76.005544 
L 13.433964 76.659934 
L 13.437101 77.314324 
L 13.443099 77.968714 
L 13.452657 78.623103 
L 13.466564 79.277493 
L 13.485625 79.931883 
L 13.510544 80.586273 
L 13.541785 81.240662 
L 13.579396 81.895052 
L 13.622857 82.549442 
L 13.670967 83.203832 
L 13.721796 83.858221 
L 13.772757 84.512611 
L 13.820779 85.167001 
L 13.862598 85.821391 
L 13.89511 86.47578 
L 13.91575 87.13017 
L 13.922827 87.78456 
z
" clip-path="url(#p52e374b0e6)" style="fill: #306c53; fill-opacity: 0.5"/>
   </g>
   <g id="FillBetweenPolyCollection_2">
    <path d="M 25.362926 48.804005 
L 24.911074 48.804005 
L 24.870919 48.493784 
L 24.828901 48.183562 
L 24.783674 47.87334 
L 24.732832 47.563118 
L 24.673176 47.252897 
L 24.601221 46.942675 
L 24.513842 46.632453 
L 24.408902 46.322231 
L 24.285691 46.01201 
L 24.145003 45.701788 
L 23.988819 45.391566 
L 23.819645 45.081344 
L 23.639722 44.771123 
L 23.450416 44.460901 
L 23.252074 44.150679 
L 23.044484 43.840457 
L 22.827844 43.530235 
L 22.603917 43.220014 
L 22.376886 42.909792 
L 22.153481 42.59957 
L 21.942152 42.289348 
L 21.751381 41.979127 
L 21.587546 41.668905 
L 21.452966 41.358683 
L 21.344727 41.048461 
L 21.254744 40.73824 
L 21.171172 40.428018 
L 21.080899 40.117796 
L 20.972576 39.807574 
L 20.839457 39.497353 
L 20.681335 39.187131 
L 20.505069 38.876909 
L 20.323545 38.566687 
L 20.153271 38.256466 
L 20.011217 37.946244 
L 19.911671 37.636022 
L 19.8639 37.3258 
L 19.871126 37.015579 
L 19.930943 36.705357 
L 20.036851 36.395135 
L 20.180328 36.084913 
L 20.352764 35.774692 
L 20.546775 35.46447 
L 20.756679 35.154248 
L 20.978234 34.844026 
L 21.20794 34.533805 
L 21.442262 34.223583 
L 21.677068 33.913361 
L 21.907456 33.603139 
L 22.127982 33.292918 
L 22.333213 32.982696 
L 22.518448 32.672474 
L 22.680448 32.362252 
L 22.818007 32.052031 
L 22.932241 31.741809 
L 23.026528 31.431587 
L 23.106105 31.121365 
L 23.177397 30.811144 
L 23.247185 30.500922 
L 23.321766 30.1907 
L 23.406206 29.880478 
L 23.503777 29.570257 
L 23.615641 29.260035 
L 23.740781 28.949813 
L 23.8762 28.639591 
L 24.017349 28.32937 
L 24.158752 28.019148 
L 24.294737 27.708926 
L 24.420194 27.398704 
L 24.531241 27.088482 
L 24.625668 26.778261 
L 24.703092 26.468039 
L 24.764791 26.157817 
L 24.813267 25.847595 
L 24.851648 25.537374 
L 24.883073 25.227152 
L 24.910193 24.91693 
L 24.934869 24.606708 
L 24.958099 24.296487 
L 24.980149 23.986265 
L 25.000811 23.676043 
L 25.019697 23.365821 
L 25.036495 23.0556 
L 25.051116 22.745378 
L 25.063712 22.435156 
L 25.074591 22.124934 
L 25.084079 21.814713 
L 25.09239 21.504491 
L 25.09955 21.194269 
L 25.10541 20.884047 
L 25.109722 20.573826 
L 25.112269 20.263604 
L 25.112981 19.953382 
L 25.112022 19.64316 
L 25.109815 19.332939 
L 25.106997 19.022717 
L 25.104309 18.712495 
L 25.102456 18.402273 
L 25.101968 18.092052 
L 25.172032 18.092052 
L 25.172032 18.092052 
L 25.171544 18.402273 
L 25.169691 18.712495 
L 25.167003 19.022717 
L 25.164185 19.332939 
L 25.161978 19.64316 
L 25.161019 19.953382 
L 25.161731 20.263604 
L 25.164278 20.573826 
L 25.16859 20.884047 
L 25.17445 21.194269 
L 25.18161 21.504491 
L 25.189921 21.814713 
L 25.199409 22.124934 
L 25.210288 22.435156 
L 25.222884 22.745378 
L 25.237505 23.0556 
L 25.254303 23.365821 
L 25.273189 23.676043 
L 25.293851 23.986265 
L 25.315901 24.296487 
L 25.339131 24.606708 
L 25.363807 24.91693 
L 25.390927 25.227152 
L 25.422352 25.537374 
L 25.460733 25.847595 
L 25.509209 26.157817 
L 25.570908 26.468039 
L 25.648332 26.778261 
L 25.742759 27.088482 
L 25.853806 27.398704 
L 25.979263 27.708926 
L 26.115248 28.019148 
L 26.256651 28.32937 
L 26.3978 28.639591 
L 26.533219 28.949813 
L 26.658359 29.260035 
L 26.770223 29.570257 
L 26.867794 29.880478 
L 26.952234 30.1907 
L 27.026815 30.500922 
L 27.096603 30.811144 
L 27.167895 31.121365 
L 27.247472 31.431587 
L 27.341759 31.741809 
L 27.455993 32.052031 
L 27.593552 32.362252 
L 27.755552 32.672474 
L 27.940787 32.982696 
L 28.146018 33.292918 
L 28.366544 33.603139 
L 28.596932 33.913361 
L 28.831738 34.223583 
L 29.06606 34.533805 
L 29.295766 34.844026 
L 29.517321 35.154248 
L 29.727225 35.46447 
L 29.921236 35.774692 
L 30.093672 36.084913 
L 30.237149 36.395135 
L 30.343057 36.705357 
L 30.402874 37.015579 
L 30.4101 37.3258 
L 30.362329 37.636022 
L 30.262783 37.946244 
L 30.120729 38.256466 
L 29.950455 38.566687 
L 29.768931 38.876909 
L 29.592665 39.187131 
L 29.434543 39.497353 
L 29.301424 39.807574 
L 29.193101 40.117796 
L 29.102828 40.428018 
L 29.019256 40.73824 
L 28.929273 41.048461 
L 28.821034 41.358683 
L 28.686454 41.668905 
L 28.522619 41.979127 
L 28.331848 42.289348 
L 28.120519 42.59957 
L 27.897114 42.909792 
L 27.670083 43.220014 
L 27.446156 43.530235 
L 27.229516 43.840457 
L 27.021926 44.150679 
L 26.823584 44.460901 
L 26.634278 44.771123 
L 26.454355 45.081344 
L 26.285181 45.391566 
L 26.128997 45.701788 
L 25.988309 46.01201 
L 25.865098 46.322231 
L 25.760158 46.632453 
L 25.672779 46.942675 
L 25.600824 47.252897 
L 25.541168 47.563118 
L 25.490326 47.87334 
L 25.445099 48.183562 
L 25.403081 48.493784 
L 25.362926 48.804005 
z
" clip-path="url(#p52e374b0e6)" style="fill: #306c53; fill-opacity: 0.5"/>
   </g>
   <g id="FillBetweenPolyCollection_3">
    <path d="M 37.084431 43.977838 
L 36.625569 43.977838 
L 36.576347 43.694366 
L 36.523725 43.410895 
L 36.468573 43.127423 
L 36.411398 42.843952 
L 36.352044 42.56048 
L 36.289494 42.277009 
L 36.221844 41.993537 
L 36.146508 41.710066 
L 36.060632 41.426594 
L 35.961634 41.143123 
L 35.847727 40.859651 
L 35.718281 40.57618 
L 35.573926 40.292708 
L 35.416357 40.009237 
L 35.247918 39.725765 
L 35.071094 39.442294 
L 34.888076 39.158822 
L 34.700543 38.875351 
L 34.509721 38.591879 
L 34.31669 38.308408 
L 34.122801 38.024936 
L 33.930023 37.741465 
L 33.741052 37.457993 
L 33.559081 37.174522 
L 33.387262 36.89105 
L 33.22801 36.607579 
L 33.082378 36.324107 
L 32.94972 36.040636 
L 32.827775 35.757165 
L 32.713171 35.473693 
L 32.602219 35.190222 
L 32.491757 34.90675 
L 32.379862 34.623279 
L 32.266236 34.339807 
L 32.152262 34.056336 
L 32.040761 33.772864 
L 31.935567 33.489393 
L 31.841065 33.205921 
L 31.761771 32.92245 
L 31.702024 32.638978 
L 31.665799 32.355507 
L 31.656583 32.072035 
L 31.677278 31.788564 
L 31.73005 31.505092 
L 31.816109 31.221621 
L 31.935409 30.938149 
L 32.086346 30.654678 
L 32.265537 30.371206 
L 32.467796 30.087735 
L 32.686374 29.804263 
L 32.913514 29.520792 
L 33.141244 29.23732 
L 33.362318 28.953849 
L 33.571105 28.670377 
L 33.76424 28.386906 
L 33.94087 28.103434 
L 34.102423 27.819963 
L 34.251936 27.536491 
L 34.393127 27.25302 
L 34.529424 26.969548 
L 34.663222 26.686077 
L 34.795513 26.402605 
L 34.925952 26.119134 
L 35.053269 25.835662 
L 35.175877 25.552191 
L 35.29246 25.268719 
L 35.40241 24.985248 
L 35.505996 24.701776 
L 35.604264 24.418305 
L 35.698723 24.134833 
L 35.790915 23.851362 
L 35.881993 23.56789 
L 35.972395 23.284419 
L 36.061721 23.000947 
L 36.14881 22.717476 
L 36.232005 22.434004 
L 36.309541 22.150533 
L 36.379932 21.867061 
L 36.44227 21.58359 
L 36.49637 21.300118 
L 36.542726 21.016647 
L 36.582325 20.733175 
L 36.616377 20.449704 
L 36.646041 20.166232 
L 36.672224 19.882761 
L 36.695476 19.599289 
L 36.715997 19.315818 
L 36.733728 19.032346 
L 36.74849 18.748875 
L 36.760141 18.465403 
L 36.768701 18.181932 
L 36.774435 17.89846 
L 36.777865 17.614989 
L 36.779731 17.331517 
L 36.780887 17.048046 
L 36.782178 16.764574 
L 36.784309 16.481103 
L 36.787749 16.197631 
L 36.792675 15.91416 
L 36.917325 15.91416 
L 36.917325 15.91416 
L 36.922251 16.197631 
L 36.925691 16.481103 
L 36.927822 16.764574 
L 36.929113 17.048046 
L 36.930269 17.331517 
L 36.932135 17.614989 
L 36.935565 17.89846 
L 36.941299 18.181932 
L 36.949859 18.465403 
L 36.96151 18.748875 
L 36.976272 19.032346 
L 36.994003 19.315818 
L 37.014524 19.599289 
L 37.037776 19.882761 
L 37.063959 20.166232 
L 37.093623 20.449704 
L 37.127675 20.733175 
L 37.167274 21.016647 
L 37.21363 21.300118 
L 37.26773 21.58359 
L 37.330068 21.867061 
L 37.400459 22.150533 
L 37.477995 22.434004 
L 37.56119 22.717476 
L 37.648279 23.000947 
L 37.737605 23.284419 
L 37.828007 23.56789 
L 37.919085 23.851362 
L 38.011277 24.134833 
L 38.105736 24.418305 
L 38.204004 24.701776 
L 38.30759 24.985248 
L 38.41754 25.268719 
L 38.534123 25.552191 
L 38.656731 25.835662 
L 38.784048 26.119134 
L 38.914487 26.402605 
L 39.046778 26.686077 
L 39.180576 26.969548 
L 39.316873 27.25302 
L 39.458064 27.536491 
L 39.607577 27.819963 
L 39.76913 28.103434 
L 39.94576 28.386906 
L 40.138895 28.670377 
L 40.347682 28.953849 
L 40.568756 29.23732 
L 40.796486 29.520792 
L 41.023626 29.804263 
L 41.242204 30.087735 
L 41.444463 30.371206 
L 41.623654 30.654678 
L 41.774591 30.938149 
L 41.893891 31.221621 
L 41.97995 31.505092 
L 42.032722 31.788564 
L 42.053417 32.072035 
L 42.044201 32.355507 
L 42.007976 32.638978 
L 41.948229 32.92245 
L 41.868935 33.205921 
L 41.774433 33.489393 
L 41.669239 33.772864 
L 41.557738 34.056336 
L 41.443764 34.339807 
L 41.330138 34.623279 
L 41.218243 34.90675 
L 41.107781 35.190222 
L 40.996829 35.473693 
L 40.882225 35.757165 
L 40.76028 36.040636 
L 40.627622 36.324107 
L 40.48199 36.607579 
L 40.322738 36.89105 
L 40.150919 37.174522 
L 39.968948 37.457993 
L 39.779977 37.741465 
L 39.587199 38.024936 
L 39.39331 38.308408 
L 39.200279 38.591879 
L 39.009457 38.875351 
L 38.821924 39.158822 
L 38.638906 39.442294 
L 38.462082 39.725765 
L 38.293643 40.009237 
L 38.136074 40.292708 
L 37.991719 40.57618 
L 37.862273 40.859651 
L 37.748366 41.143123 
L 37.649368 41.426594 
L 37.563492 41.710066 
L 37.488156 41.993537 
L 37.420506 42.277009 
L 37.357956 42.56048 
L 37.298602 42.843952 
L 37.241427 43.127423 
L 37.186275 43.410895 
L 37.133653 43.694366 
L 37.084431 43.977838 
z
" clip-path="url(#p52e374b0e6)" style="fill: #306c53; fill-opacity: 0.5"/>
   </g>
   <g id="FillBetweenPolyCollection_4">
    <path d="M 48.60903 47.787116 
L 48.53697 47.787116 
L 48.538066 47.465167 
L 48.541157 47.143218 
L 48.545712 46.821269 
L 48.551011 46.49932 
L 48.556328 46.177371 
L 48.561079 45.855422 
L 48.564894 45.533473 
L 48.567601 45.211524 
L 48.569146 44.889575 
L 48.569472 44.567626 
L 48.568399 44.245677 
L 48.565528 43.923728 
L 48.560178 43.601779 
L 48.551397 43.279829 
L 48.538045 42.95788 
L 48.518988 42.635931 
L 48.493391 42.313982 
L 48.461074 41.992033 
L 48.422836 41.670084 
L 48.380616 41.348135 
L 48.337336 41.026186 
L 48.296359 40.704237 
L 48.26059 40.382288 
L 48.231433 40.060339 
L 48.207917 39.73839 
L 48.186303 39.416441 
L 48.160337 39.094492 
L 48.122098 38.772543 
L 48.063193 38.450594 
L 47.975974 38.128645 
L 47.854557 37.806696 
L 47.695567 37.484747 
L 47.498618 37.162797 
L 47.266537 36.840848 
L 47.005228 36.518899 
L 46.723068 36.19695 
L 46.429769 35.875001 
L 46.134889 35.553052 
L 45.846355 35.231103 
L 45.569433 34.909154 
L 45.306464 34.587205 
L 45.057478 34.265256 
L 44.821496 33.943307 
L 44.59815 33.621358 
L 44.389073 33.299409 
L 44.198501 32.97746 
L 44.032706 32.655511 
L 43.898247 32.333562 
L 43.799551 32.011613 
L 43.736764 31.689664 
L 43.704845 31.367715 
L 43.694492 31.045765 
L 43.694721 30.723816 
L 43.696167 30.401867 
L 43.693851 30.079918 
L 43.688307 29.757969 
L 43.684686 29.43602 
L 43.690306 29.114071 
L 43.711732 28.792122 
L 43.752629 28.470173 
L 43.813227 28.148224 
L 43.891483 27.826275 
L 43.985254 27.504326 
L 44.094356 27.182377 
L 44.221459 26.860428 
L 44.371362 26.538479 
L 44.548929 26.21653 
L 44.756603 25.894581 
L 44.992551 25.572632 
L 45.250182 25.250683 
L 45.519191 24.928733 
L 45.787694 24.606784 
L 46.044734 24.284835 
L 46.28237 23.962886 
L 46.496832 23.640937 
L 46.688506 23.318988 
L 46.860845 22.997039 
L 47.018608 22.67509 
L 47.165983 22.353141 
L 47.305219 22.031192 
L 47.436188 21.709243 
L 47.556953 21.387294 
L 47.665038 21.065345 
L 47.7588 20.743396 
L 47.838339 20.421447 
L 47.905607 20.099498 
L 47.963786 19.777549 
L 48.016289 19.4556 
L 48.065822 19.133651 
L 48.113847 18.811701 
L 48.160527 18.489752 
L 48.205069 18.167803 
L 48.246267 17.845854 
L 48.283069 17.523905 
L 48.315008 17.201956 
L 48.342419 16.880007 
L 48.366381 16.558058 
L 48.388403 16.236109 
L 48.409954 15.91416 
L 48.736046 15.91416 
L 48.736046 15.91416 
L 48.757597 16.236109 
L 48.779619 16.558058 
L 48.803581 16.880007 
L 48.830992 17.201956 
L 48.862931 17.523905 
L 48.899733 17.845854 
L 48.940931 18.167803 
L 48.985473 18.489752 
L 49.032153 18.811701 
L 49.080178 19.133651 
L 49.129711 19.4556 
L 49.182214 19.777549 
L 49.240393 20.099498 
L 49.307661 20.421447 
L 49.3872 20.743396 
L 49.480962 21.065345 
L 49.589047 21.387294 
L 49.709812 21.709243 
L 49.840781 22.031192 
L 49.980017 22.353141 
L 50.127392 22.67509 
L 50.285155 22.997039 
L 50.457494 23.318988 
L 50.649168 23.640937 
L 50.86363 23.962886 
L 51.101266 24.284835 
L 51.358306 24.606784 
L 51.626809 24.928733 
L 51.895818 25.250683 
L 52.153449 25.572632 
L 52.389397 25.894581 
L 52.597071 26.21653 
L 52.774638 26.538479 
L 52.924541 26.860428 
L 53.051644 27.182377 
L 53.160746 27.504326 
L 53.254517 27.826275 
L 53.332773 28.148224 
L 53.393371 28.470173 
L 53.434268 28.792122 
L 53.455694 29.114071 
L 53.461314 29.43602 
L 53.457693 29.757969 
L 53.452149 30.079918 
L 53.449833 30.401867 
L 53.451279 30.723816 
L 53.451508 31.045765 
L 53.441155 31.367715 
L 53.409236 31.689664 
L 53.346449 32.011613 
L 53.247753 32.333562 
L 53.113294 32.655511 
L 52.947499 32.97746 
L 52.756927 33.299409 
L 52.54785 33.621358 
L 52.324504 33.943307 
L 52.088522 34.265256 
L 51.839536 34.587205 
L 51.576567 34.909154 
L 51.299645 35.231103 
L 51.011111 35.553052 
L 50.716231 35.875001 
L 50.422932 36.19695 
L 50.140772 36.518899 
L 49.879463 36.840848 
L 49.647382 37.162797 
L 49.450433 37.484747 
L 49.291443 37.806696 
L 49.170026 38.128645 
L 49.082807 38.450594 
L 49.023902 38.772543 
L 48.985663 39.094492 
L 48.959697 39.416441 
L 48.938083 39.73839 
L 48.914567 40.060339 
L 48.88541 40.382288 
L 48.849641 40.704237 
L 48.808664 41.026186 
L 48.765384 41.348135 
L 48.723164 41.670084 
L 48.684926 41.992033 
L 48.652609 42.313982 
L 48.627012 42.635931 
L 48.607955 42.95788 
L 48.594603 43.279829 
L 48.585822 43.601779 
L 48.580472 43.923728 
L 48.577601 44.245677 
L 48.576528 44.567626 
L 48.576854 44.889575 
L 48.578399 45.211524 
L 48.581106 45.533473 
L 48.584921 45.855422 
L 48.589672 46.177371 
L 48.594989 46.49932 
L 48.600288 46.821269 
L 48.604843 47.143218 
L 48.607934 47.465167 
L 48.60903 47.787116 
z
" clip-path="url(#p52e374b0e6)" style="fill: #306c53; fill-opacity: 0.5"/>
   </g>
   <g id="matplotlib.axis_1">
    <g id="xtick_1">
     <g id="line2d_1">
      <defs>
       <path id="m5726ee34bf" d="M 0 0 
L 0 1.7 
" style="stroke: #000000; stroke-width: 0.25"/>
      </defs>
      <g>
       <use xlink:href="#m5726ee34bf" x="13.419" y="93.37808" style="stroke: #000000; stroke-width: 0.25"/>
      </g>
     </g>
     <g id="text_1">
      <text style="font-size: 6px; font-family: 'Arial'" transform="translate(10.97683 106.692801) rotate(-45)">220</text>
     </g>
    </g>
    <g id="xtick_2">
     <g id="line2d_2">
      <g>
       <use xlink:href="#m5726ee34bf" x="25.137" y="93.37808" style="stroke: #000000; stroke-width: 0.25"/>
      </g>
     </g>
     <g id="text_2">
      <text style="font-size: 6px; font-family: 'Arial'" transform="translate(22.69483 106.692801) rotate(-45)">260</text>
     </g>
    </g>
    <g id="xtick_3">
     <g id="line2d_3">
      <g>
       <use xlink:href="#m5726ee34bf" x="36.855" y="93.37808" style="stroke: #000000; stroke-width: 0.25"/>
      </g>
     </g>
     <g id="text_3">
      <text style="font-size: 6px; font-family: 'Arial'" transform="translate(34.41283 106.692801) rotate(-45)">300</text>
     </g>
    </g>
    <g id="xtick_4">
     <g id="line2d_4">
      <g>
       <use xlink:href="#m5726ee34bf" x="48.573" y="93.37808" style="stroke: #000000; stroke-width: 0.25"/>
      </g>
     </g>
     <g id="text_4">
      <text style="font-size: 6px; font-family: 'Arial'" transform="translate(46.13083 106.692801) rotate(-45)">340</text>
     </g>
    </g>
    <g id="text_5">
     <text style="font-size: 8px; font-family: 'Arial'; text-anchor: middle" x="30.996" y="114.859775" transform="rotate(-0 30.996 114.859775)">|input to DNg100s|</text>
    </g>
   </g>
   <g id="matplotlib.axis_2">
    <g id="ytick_1">
     <g id="line2d_5">
      <defs>
       <path id="m2c3fb24a73" d="M 0 0 
L -1.7 0 
" style="stroke: #000000; stroke-width: 0.25"/>
      </defs>
      <g>
       <use xlink:href="#m2c3fb24a73" x="5.56" y="87.78456" style="stroke: #000000; stroke-width: 0.25"/>
      </g>
     </g>
     <g id="text_6">
      <text style="font-size: 6px; font-family: 'Arial'; text-anchor: end" x="2.36" y="89.931904" transform="rotate(-0 2.36 89.931904)">0</text>
     </g>
    </g>
    <g id="ytick_2">
     <g id="line2d_6">
      <g>
       <use xlink:href="#m2c3fb24a73" x="5.56" y="64.786032" style="stroke: #000000; stroke-width: 0.25"/>
      </g>
     </g>
     <g id="text_7">
      <text style="font-size: 6px; font-family: 'Arial'; text-anchor: end" x="2.36" y="66.933376" transform="rotate(-0 2.36 66.933376)">5</text>
     </g>
    </g>
    <g id="ytick_3">
     <g id="line2d_7">
      <g>
       <use xlink:href="#m2c3fb24a73" x="5.56" y="41.787504" style="stroke: #000000; stroke-width: 0.25"/>
      </g>
     </g>
     <g id="text_8">
      <text style="font-size: 6px; font-family: 'Arial'; text-anchor: end" x="2.36" y="43.934848" transform="rotate(-0 2.36 43.934848)">10</text>
     </g>
    </g>
    <g id="ytick_4">
     <g id="line2d_8">
      <g>
       <use xlink:href="#m2c3fb24a73" x="5.56" y="18.788976" style="stroke: #000000; stroke-width: 0.25"/>
      </g>
     </g>
     <g id="text_9">
      <text style="font-size: 6px; font-family: 'Arial'; text-anchor: end" x="2.36" y="20.93632" transform="rotate(-0 2.36 20.93632)">15</text>
     </g>
    </g>
    <g id="text_10">
     <text style="font-size: 8px; font-family: 'Arial'" transform="translate(-16.075375 75.63811) rotate(-90)">motor neuron</text>
     <text style="font-size: 8px; font-family: 'Arial'" transform="translate(-7.496875 78.07811) rotate(-90)">frequency (Hz)</text>
    </g>
   </g>
   <g id="patch_3">
    <path d="M 12.2472 48.470835 
L 14.5908 48.470835 
L 14.5908 40.364912 
L 12.2472 40.364912 
L 12.2472 48.470835 
z
" clip-path="url(#p52e374b0e6)" style="fill: #306c53; stroke: #2f2f2f; stroke-width: 0.5; stroke-linejoin: miter"/>
   </g>
   <g id="line2d_9">
    <path d="M 13.419 48.470835 
L 13.419 60.241412 
" clip-path="url(#p52e374b0e6)" style="fill: none; stroke: #2f2f2f; stroke-width: 0.5"/>
   </g>
   <g id="line2d_10">
    <path d="M 13.419 40.364912 
L 13.419 29.560438 
" clip-path="url(#p52e374b0e6)" style="fill: none; stroke: #2f2f2f; stroke-width: 0.5"/>
   </g>
   <g id="line2d_11">
    <path d="M 12.8331 60.241412 
L 14.0049 60.241412 
" clip-path="url(#p52e374b0e6)" style="fill: none; stroke: #2f2f2f; stroke-width: 0.5; stroke-linecap: square"/>
   </g>
   <g id="line2d_12">
    <path d="M 12.8331 29.560438 
L 14.0049 29.560438 
" clip-path="url(#p52e374b0e6)" style="fill: none; stroke: #2f2f2f; stroke-width: 0.5; stroke-linecap: square"/>
   </g>
   <g id="patch_4">
    <path d="M 23.9652 40.848787 
L 26.3088 40.848787 
L 26.3088 34.299611 
L 23.9652 34.299611 
L 23.9652 40.848787 
z
" clip-path="url(#p52e374b0e6)" style="fill: #306c53; stroke: #2f2f2f; stroke-width: 0.5; stroke-linejoin: miter"/>
   </g>
   <g id="line2d_13">
    <path d="M 25.137 40.848787 
L 25.137 48.804005 
" clip-path="url(#p52e374b0e6)" style="fill: none; stroke: #2f2f2f; stroke-width: 0.5"/>
   </g>
   <g id="line2d_14">
    <path d="M 25.137 34.299611 
L 25.137 24.774895 
" clip-path="url(#p52e374b0e6)" style="fill: none; stroke: #2f2f2f; stroke-width: 0.5"/>
   </g>
   <g id="line2d_15">
    <path d="M 24.5511 48.804005 
L 25.7229 48.804005 
" clip-path="url(#p52e374b0e6)" style="fill: none; stroke: #2f2f2f; stroke-width: 0.5; stroke-linecap: square"/>
   </g>
   <g id="line2d_16">
    <path d="M 24.5511 24.774895 
L 25.7229 24.774895 
" clip-path="url(#p52e374b0e6)" style="fill: none; stroke: #2f2f2f; stroke-width: 0.5; stroke-linecap: square"/>
   </g>
   <g id="patch_5">
    <path d="M 35.6832 35.684021 
L 38.0268 35.684021 
L 38.0268 29.560438 
L 35.6832 29.560438 
L 35.6832 35.684021 
z
" clip-path="url(#p52e374b0e6)" style="fill: #306c53; stroke: #2f2f2f; stroke-width: 0.5; stroke-linejoin: miter"/>
   </g>
   <g id="line2d_17">
    <path d="M 36.855 35.684021 
L 36.855 43.977838 
" clip-path="url(#p52e374b0e6)" style="fill: none; stroke: #2f2f2f; stroke-width: 0.5"/>
   </g>
   <g id="line2d_18">
    <path d="M 36.855 29.560438 
L 36.855 20.468609 
" clip-path="url(#p52e374b0e6)" style="fill: none; stroke: #2f2f2f; stroke-width: 0.5"/>
   </g>
   <g id="line2d_19">
    <path d="M 36.2691 43.977838 
L 37.4409 43.977838 
" clip-path="url(#p52e374b0e6)" style="fill: none; stroke: #2f2f2f; stroke-width: 0.5; stroke-linecap: square"/>
   </g>
   <g id="line2d_20">
    <path d="M 36.2691 20.468609 
L 37.4409 20.468609 
" clip-path="url(#p52e374b0e6)" style="fill: none; stroke: #2f2f2f; stroke-width: 0.5; stroke-linecap: square"/>
   </g>
   <g id="patch_6">
    <path d="M 47.4012 32.366419 
L 49.7448 32.366419 
L 49.7448 26.455152 
L 47.4012 26.455152 
L 47.4012 32.366419 
z
" clip-path="url(#p52e374b0e6)" style="fill: #306c53; stroke: #2f2f2f; stroke-width: 0.5; stroke-linejoin: miter"/>
   </g>
   <g id="line2d_21">
    <path d="M 48.573 32.366419 
L 48.573 41.205264 
" clip-path="url(#p52e374b0e6)" style="fill: none; stroke: #2f2f2f; stroke-width: 0.5"/>
   </g>
   <g id="line2d_22">
    <path d="M 48.573 26.455152 
L 48.573 18.092052 
" clip-path="url(#p52e374b0e6)" style="fill: none; stroke: #2f2f2f; stroke-width: 0.5"/>
   </g>
   <g id="line2d_23">
    <path d="M 47.9871 41.205264 
L 49.1589 41.205264 
" clip-path="url(#p52e374b0e6)" style="fill: none; stroke: #2f2f2f; stroke-width: 0.5; stroke-linecap: square"/>
   </g>
   <g id="line2d_24">
    <path d="M 47.9871 18.092052 
L 49.1589 18.092052 
" clip-path="url(#p52e374b0e6)" style="fill: none; stroke: #2f2f2f; stroke-width: 0.5; stroke-linecap: square"/>
   </g>
   <g id="line2d_25">
    <path d="M 12.2472 43.977833 
L 14.5908 43.977833 
" clip-path="url(#p52e374b0e6)" style="fill: none; stroke: #2f2f2f; stroke-width: 0.5"/>
   </g>
   <g id="line2d_26">
    <path d="M 23.9652 37.238345 
L 26.3088 37.238345 
" clip-path="url(#p52e374b0e6)" style="fill: none; stroke: #2f2f2f; stroke-width: 0.5"/>
   </g>
   <g id="line2d_27">
    <path d="M 35.6832 32.366419 
L 38.0268 32.366419 
" clip-path="url(#p52e374b0e6)" style="fill: none; stroke: #2f2f2f; stroke-width: 0.5"/>
   </g>
   <g id="line2d_28">
    <path d="M 47.4012 29.560438 
L 49.7448 29.560438 
" clip-path="url(#p52e374b0e6)" style="fill: none; stroke: #2f2f2f; stroke-width: 0.5"/>
   </g>
   <g id="patch_7">
    <path d="M 5.56 91.37808 
L 5.56 12.32064 
" style="fill: none; stroke: #000000; stroke-width: 0.25; stroke-linejoin: miter; stroke-linecap: square"/>
   </g>
   <g id="patch_8">
    <path d="M 7.56 93.37808 
L 54.432 93.37808 
" style="fill: none; stroke: #000000; stroke-width: 0.25; stroke-linejoin: miter; stroke-linecap: square"/>
   </g>
  </g>
 </g>
 <defs>
  <clipPath id="p52e374b0e6">
   <rect x="7.56" y="12.32064" width="46.872" height="79.05744"/>
  </clipPath>
 </defs>
</svg>
