<?xml version="1.0" encoding="utf-8" standalone="no"?>
<!DOCTYPE svg PUBLIC "-//W3C//DTD SVG 1.1//EN"
  "http://www.w3.org/Graphics/SVG/1.1/DTD/svg11.dtd">
<svg xmlns:xlink="http://www.w3.org/1999/xlink" width="108pt" height="108pt" viewBox="0 0 108 108" xmlns="http://www.w3.org/2000/svg" version="1.1">
 <metadata>
  <rdf:RDF xmlns:dc="http://purl.org/dc/elements/1.1/" xmlns:cc="http://creativecommons.org/ns#" xmlns:rdf="http://www.w3.org/1999/02/22-rdf-syntax-ns#">
   <cc:Work>
    <dc:type rdf:resource="http://purl.org/dc/dcmitype/StillImage"/>
    <dc:date>2025-09-07T16:25:44.976544</dc:date>
    <dc:format>image/svg+xml</dc:format>
    <dc:creator>
     <cc:Agent>
      <dc:title>Matplotlib v3.10.3, https://matplotlib.org/</dc:title>
     </cc:Agent>
    </dc:creator>
   </cc:Work>
  </rdf:RDF>
 </metadata>
 <defs>
  <style type="text/css">*{stroke-linejoin: round; stroke-linecap: butt}</style>
 </defs>
 <g id="figure_1">
  <g id="patch_1">
   <path d="M 0 108 
L 108 108 
L 108 0 
L 0 0 
L 0 108 
z
" style="fill: none"/>
  </g>
  <g id="axes_1">
   <g id="patch_2">
    <path d="M 13.5 96.12 
L 97.2 96.12 
L 97.2 12.96 
L 13.5 12.96 
L 13.5 96.12 
z
" style="fill: none"/>
   </g>
   <g id="FillBetweenPolyCollection_1">
    <path d="M 24.117655 92.34 
L 23.807345 92.34 
L 23.808589 91.577186 
L 23.812271 90.814372 
L 23.818214 90.051559 
L 23.826139 89.288745 
L 23.835685 88.525931 
L 23.846437 87.763117 
L 23.857956 87.000303 
L 23.869805 86.23749 
L 23.881577 85.474676 
L 23.892915 84.711862 
L 23.903527 83.949048 
L 23.913194 83.186234 
L 23.92177 82.423421 
L 23.92918 81.660607 
L 23.93541 80.897793 
L 23.940496 80.134979 
L 23.944513 79.372165 
L 23.947562 78.609352 
L 23.94976 77.846538 
L 23.951229 77.083724 
L 23.95209 76.32091 
L 23.952459 75.558096 
L 23.952441 74.795283 
L 23.952131 74.032469 
L 23.95161 73.269655 
L 23.95095 72.506841 
L 23.950209 71.744027 
L 23.949436 70.981214 
L 23.948667 70.2184 
L 23.94793 69.455586 
L 23.947244 68.692772 
L 23.946616 67.929958 
L 23.946047 67.167144 
L 23.945529 66.404331 
L 23.945048 65.641517 
L 23.944584 64.878703 
L 23.944112 64.115889 
L 23.943607 63.353075 
L 23.943044 62.590262 
L 23.942397 61.827448 
L 23.941647 61.064634 
L 23.940779 60.30182 
L 23.939783 59.539006 
L 23.938656 58.776193 
L 23.937403 58.013379 
L 23.936032 57.250565 
L 23.934556 56.487751 
L 23.93299 55.724937 
L 23.931349 54.962124 
L 23.929643 54.19931 
L 23.92788 53.436496 
L 23.926056 52.673682 
L 23.924161 51.910868 
L 23.922169 51.148055 
L 23.920043 50.385241 
L 23.917733 49.622427 
L 23.915172 48.859613 
L 23.912282 48.096799 
L 23.90897 47.333986 
L 23.905134 46.571172 
L 23.900661 45.808358 
L 23.89543 45.045544 
L 23.889315 44.28273 
L 23.882185 43.519917 
L 23.873911 42.757103 
L 23.864358 41.994289 
L 23.853395 41.231475 
L 23.84089 40.468661 
L 23.826713 39.705848 
L 23.810727 38.943034 
L 23.792794 38.18022 
L 23.772763 37.417406 
L 23.750471 36.654592 
L 23.725734 35.891779 
L 23.698348 35.128965 
L 23.668081 34.366151 
L 23.634677 33.603337 
L 23.597862 32.840523 
L 23.557355 32.07771 
L 23.512884 31.314896 
L 23.46422 30.552082 
L 23.411209 29.789268 
L 23.353815 29.026454 
L 23.292172 28.263641 
L 23.226637 27.500827 
L 23.157832 26.738013 
L 23.086688 25.975199 
L 23.014465 25.212385 
L 22.942753 24.449572 
L 22.873441 23.686758 
L 22.808656 22.923944 
L 22.750678 22.16113 
L 22.701813 21.398316 
L 22.664259 20.635503 
L 22.639954 19.872689 
L 22.630434 19.109875 
L 22.636702 18.347061 
L 22.659138 17.584247 
L 22.697443 16.821433 
L 25.227557 16.821433 
L 25.227557 16.821433 
L 25.265862 17.584247 
L 25.288298 18.347061 
L 25.294566 19.109875 
L 25.285046 19.872689 
L 25.260741 20.635503 
L 25.223187 21.398316 
L 25.174322 22.16113 
L 25.116344 22.923944 
L 25.051559 23.686758 
L 24.982247 24.449572 
L 24.910535 25.212385 
L 24.838312 25.975199 
L 24.767168 26.738013 
L 24.698363 27.500827 
L 24.632828 28.263641 
L 24.571185 29.026454 
L 24.513791 29.789268 
L 24.46078 30.552082 
L 24.412116 31.314896 
L 24.367645 32.07771 
L 24.327138 32.840523 
L 24.290323 33.603337 
L 24.256919 34.366151 
L 24.226652 35.128965 
L 24.199266 35.891779 
L 24.174529 36.654592 
L 24.152237 37.417406 
L 24.132206 38.18022 
L 24.114273 38.943034 
L 24.098287 39.705848 
L 24.08411 40.468661 
L 24.071605 41.231475 
L 24.060642 41.994289 
L 24.051089 42.757103 
L 24.042815 43.519917 
L 24.035685 44.28273 
L 24.02957 45.045544 
L 24.024339 45.808358 
L 24.019866 46.571172 
L 24.01603 47.333986 
L 24.012718 48.096799 
L 24.009828 48.859613 
L 24.007267 49.622427 
L 24.004957 50.385241 
L 24.002831 51.148055 
L 24.000839 51.910868 
L 23.998944 52.673682 
L 23.99712 53.436496 
L 23.995357 54.19931 
L 23.993651 54.962124 
L 23.99201 55.724937 
L 23.990444 56.487751 
L 23.988968 57.250565 
L 23.987597 58.013379 
L 23.986344 58.776193 
L 23.985217 59.539006 
L 23.984221 60.30182 
L 23.983353 61.064634 
L 23.982603 61.827448 
L 23.981956 62.590262 
L 23.981393 63.353075 
L 23.980888 64.115889 
L 23.980416 64.878703 
L 23.979952 65.641517 
L 23.979471 66.404331 
L 23.978953 67.167144 
L 23.978384 67.929958 
L 23.977756 68.692772 
L 23.97707 69.455586 
L 23.976333 70.2184 
L 23.975564 70.981214 
L 23.974791 71.744027 
L 23.97405 72.506841 
L 23.97339 73.269655 
L 23.972869 74.032469 
L 23.972559 74.795283 
L 23.972541 75.558096 
L 23.97291 76.32091 
L 23.973771 77.083724 
L 23.97524 77.846538 
L 23.977438 78.609352 
L 23.980487 79.372165 
L 23.984504 80.134979 
L 23.98959 80.897793 
L 23.99582 81.660607 
L 24.00323 82.423421 
L 24.011806 83.186234 
L 24.021473 83.949048 
L 24.032085 84.711862 
L 24.043423 85.474676 
L 24.055195 86.23749 
L 24.067044 87.000303 
L 24.078563 87.763117 
L 24.089315 88.525931 
L 24.098861 89.288745 
L 24.106786 90.051559 
L 24.112729 90.814372 
L 24.116411 91.577186 
L 24.117655 92.34 
z
" clip-path="url(#p8e34e9f8e8)" style="fill: #306c53; fill-opacity: 0.5"/>
   </g>
   <g id="FillBetweenPolyCollection_2">
    <path d="M 44.972562 32.369637 
L 44.802438 32.369637 
L 44.795866 32.212428 
L 44.791026 32.055219 
L 44.788096 31.898011 
L 44.787105 31.740802 
L 44.78794 31.583593 
L 44.790359 31.426385 
L 44.794031 31.269176 
L 44.798567 31.111968 
L 44.803566 30.954759 
L 44.808649 30.79755 
L 44.813483 30.640342 
L 44.817803 30.483133 
L 44.821412 30.325924 
L 44.824174 30.168716 
L 44.826003 30.011507 
L 44.826842 29.854298 
L 44.826641 29.69709 
L 44.825346 29.539881 
L 44.82289 29.382672 
L 44.819192 29.225464 
L 44.814178 29.068255 
L 44.8078 28.911047 
L 44.80007 28.753838 
L 44.791085 28.596629 
L 44.781052 28.439421 
L 44.770282 28.282212 
L 44.759174 28.125003 
L 44.748166 27.967795 
L 44.73767 27.810586 
L 44.728001 27.653377 
L 44.719308 27.496169 
L 44.711522 27.33896 
L 44.70433 27.181752 
L 44.697185 27.024543 
L 44.689342 26.867334 
L 44.67992 26.710126 
L 44.667975 26.552917 
L 44.652589 26.395708 
L 44.632953 26.2385 
L 44.608448 26.081291 
L 44.578717 25.924082 
L 44.54372 25.766874 
L 44.503762 25.609665 
L 44.459487 25.452457 
L 44.411836 25.295248 
L 44.361966 25.138039 
L 44.311139 24.980831 
L 44.260599 24.823622 
L 44.211456 24.666413 
L 44.164582 24.509205 
L 44.120555 24.351996 
L 44.079634 24.194787 
L 44.041767 24.037579 
L 44.006646 23.88037 
L 43.973771 23.723162 
L 43.942552 23.565953 
L 43.912405 23.408744 
L 43.882863 23.251536 
L 43.85366 23.094327 
L 43.824788 22.937118 
L 43.79649 22.77991 
L 43.7692 22.622701 
L 43.743417 22.465492 
L 43.719561 22.308284 
L 43.697828 22.151075 
L 43.678117 21.993867 
L 43.660036 21.836658 
L 43.64303 21.679449 
L 43.626582 21.522241 
L 43.610459 21.365032 
L 43.594919 21.207823 
L 43.580822 21.050615 
L 43.569596 20.893406 
L 43.563034 20.736197 
L 43.562963 20.578989 
L 43.570811 20.42178 
L 43.587161 20.264571 
L 43.611326 20.107363 
L 43.640967 19.950154 
L 43.671761 19.792946 
L 43.697072 19.635737 
L 43.707609 19.478528 
L 43.691099 19.32132 
L 43.632066 19.164111 
L 43.511936 19.006902 
L 43.309755 18.849694 
L 43.003834 18.692485 
L 42.57454 18.535276 
L 42.008204 18.378068 
L 41.301776 18.220859 
L 40.467396 18.063651 
L 39.53577 17.906442 
L 38.557084 17.749233 
L 37.598492 17.592025 
L 36.737806 17.434816 
L 36.053967 17.277607 
L 35.615801 17.120399 
L 35.47125 16.96319 
L 35.639388 16.805981 
L 54.135612 16.805981 
L 54.135612 16.805981 
L 54.30375 16.96319 
L 54.159199 17.120399 
L 53.721033 17.277607 
L 53.037194 17.434816 
L 52.176508 17.592025 
L 51.217916 17.749233 
L 50.23923 17.906442 
L 49.307604 18.063651 
L 48.473224 18.220859 
L 47.766796 18.378068 
L 47.20046 18.535276 
L 46.771166 18.692485 
L 46.465245 18.849694 
L 46.263064 19.006902 
L 46.142934 19.164111 
L 46.083901 19.32132 
L 46.067391 19.478528 
L 46.077928 19.635737 
L 46.103239 19.792946 
L 46.134033 19.950154 
L 46.163674 20.107363 
L 46.187839 20.264571 
L 46.204189 20.42178 
L 46.212037 20.578989 
L 46.211966 20.736197 
L 46.205404 20.893406 
L 46.194178 21.050615 
L 46.180081 21.207823 
L 46.164541 21.365032 
L 46.148418 21.522241 
L 46.13197 21.679449 
L 46.114964 21.836658 
L 46.096883 21.993867 
L 46.077172 22.151075 
L 46.055439 22.308284 
L 46.031583 22.465492 
L 46.0058 22.622701 
L 45.97851 22.77991 
L 45.950212 22.937118 
L 45.92134 23.094327 
L 45.892137 23.251536 
L 45.862595 23.408744 
L 45.832448 23.565953 
L 45.801229 23.723162 
L 45.768354 23.88037 
L 45.733233 24.037579 
L 45.695366 24.194787 
L 45.654445 24.351996 
L 45.610418 24.509205 
L 45.563544 24.666413 
L 45.514401 24.823622 
L 45.463861 24.980831 
L 45.413034 25.138039 
L 45.363164 25.295248 
L 45.315513 25.452457 
L 45.271238 25.609665 
L 45.23128 25.766874 
L 45.196283 25.924082 
L 45.166552 26.081291 
L 45.142047 26.2385 
L 45.122411 26.395708 
L 45.107025 26.552917 
L 45.09508 26.710126 
L 45.085658 26.867334 
L 45.077815 27.024543 
L 45.07067 27.181752 
L 45.063478 27.33896 
L 45.055692 27.496169 
L 45.046999 27.653377 
L 45.03733 27.810586 
L 45.026834 27.967795 
L 45.015826 28.125003 
L 45.004718 28.282212 
L 44.993948 28.439421 
L 44.983915 28.596629 
L 44.97493 28.753838 
L 44.9672 28.911047 
L 44.960822 29.068255 
L 44.955808 29.225464 
L 44.95211 29.382672 
L 44.949654 29.539881 
L 44.948359 29.69709 
L 44.948158 29.854298 
L 44.948997 30.011507 
L 44.950826 30.168716 
L 44.953588 30.325924 
L 44.957197 30.483133 
L 44.961517 30.640342 
L 44.966351 30.79755 
L 44.971434 30.954759 
L 44.976433 31.111968 
L 44.980969 31.269176 
L 44.984641 31.426385 
L 44.98706 31.583593 
L 44.987895 31.740802 
L 44.986904 31.898011 
L 44.983974 32.055219 
L 44.979134 32.212428 
L 44.972562 32.369637 
z
" clip-path="url(#p8e34e9f8e8)" style="fill: #306c53; fill-opacity: 0.5"/>
   </g>
   <g id="FillBetweenPolyCollection_3">
    <path d="M 65.838745 33.431802 
L 65.786255 33.431802 
L 65.786462 33.263458 
L 65.787435 33.095115 
L 65.788954 32.926771 
L 65.790714 32.758427 
L 65.792383 32.590083 
L 65.793652 32.421739 
L 65.79429 32.253395 
L 65.79418 32.085051 
L 65.793339 31.916707 
L 65.791915 31.748364 
L 65.790159 31.58002 
L 65.788378 31.411676 
L 65.786882 31.243332 
L 65.785924 31.074988 
L 65.785646 30.906644 
L 65.786049 30.7383 
L 65.786982 30.569957 
L 65.788155 30.401613 
L 65.789173 30.233269 
L 65.78958 30.064925 
L 65.788914 29.896581 
L 65.786751 29.728237 
L 65.782741 29.559893 
L 65.776639 29.391549 
L 65.768317 29.223206 
L 65.757781 29.054862 
L 65.745166 28.886518 
L 65.73073 28.718174 
L 65.714831 28.54983 
L 65.697884 28.381486 
L 65.680298 28.213142 
L 65.66239 28.044799 
L 65.644298 27.876455 
L 65.625902 27.708111 
L 65.606789 27.539767 
L 65.58627 27.371423 
L 65.563466 27.203079 
L 65.537451 27.034735 
L 65.507426 26.866391 
L 65.472891 26.698048 
L 65.433766 26.529704 
L 65.390437 26.36136 
L 65.343708 26.193016 
L 65.294663 26.024672 
L 65.244482 25.856328 
L 65.194224 25.687984 
L 65.144647 25.51964 
L 65.096087 25.351297 
L 65.048427 25.182953 
L 65.001148 25.014609 
L 64.953452 24.846265 
L 64.904423 24.677921 
L 64.853179 24.509577 
L 64.799001 24.341233 
L 64.741412 24.17289 
L 64.680213 24.004546 
L 64.615488 23.836202 
L 64.547593 23.667858 
L 64.477129 23.499514 
L 64.404913 23.33117 
L 64.331928 23.162826 
L 64.259256 22.994482 
L 64.188004 22.826139 
L 64.119241 22.657795 
L 64.053968 22.489451 
L 63.99314 22.321107 
L 63.937734 22.152763 
L 63.888834 21.984419 
L 63.847703 21.816075 
L 63.815794 21.647732 
L 63.794676 21.479388 
L 63.785873 21.311044 
L 63.790632 21.1427 
L 63.809671 20.974356 
L 63.842924 20.806012 
L 63.889356 20.637668 
L 63.946844 20.469324 
L 64.012152 20.300981 
L 64.080968 20.132637 
L 64.147983 19.964293 
L 64.206926 19.795949 
L 64.250489 19.627605 
L 64.270085 19.459261 
L 64.255465 19.290917 
L 64.194334 19.122574 
L 64.072239 18.95423 
L 63.873134 18.785886 
L 63.581009 18.617542 
L 63.182793 18.449198 
L 62.672421 18.280854 
L 62.055411 18.11251 
L 61.352862 17.944166 
L 60.603473 17.775823 
L 59.862345 17.607479 
L 59.195885 17.439135 
L 58.67317 17.270791 
L 58.355183 17.102447 
L 58.284226 16.934103 
L 58.476014 16.765759 
L 73.148986 16.765759 
L 73.148986 16.765759 
L 73.340774 16.934103 
L 73.269817 17.102447 
L 72.95183 17.270791 
L 72.429115 17.439135 
L 71.762655 17.607479 
L 71.021527 17.775823 
L 70.272138 17.944166 
L 69.569589 18.11251 
L 68.952579 18.280854 
L 68.442207 18.449198 
L 68.043991 18.617542 
L 67.751866 18.785886 
L 67.552761 18.95423 
L 67.430666 19.122574 
L 67.369535 19.290917 
L 67.354915 19.459261 
L 67.374511 19.627605 
L 67.418074 19.795949 
L 67.477017 19.964293 
L 67.544032 20.132637 
L 67.612848 20.300981 
L 67.678156 20.469324 
L 67.735644 20.637668 
L 67.782076 20.806012 
L 67.815329 20.974356 
L 67.834368 21.1427 
L 67.839127 21.311044 
L 67.830324 21.479388 
L 67.809206 21.647732 
L 67.777297 21.816075 
L 67.736166 21.984419 
L 67.687266 22.152763 
L 67.63186 22.321107 
L 67.571032 22.489451 
L 67.505759 22.657795 
L 67.436996 22.826139 
L 67.365744 22.994482 
L 67.293072 23.162826 
L 67.220087 23.33117 
L 67.147871 23.499514 
L 67.077407 23.667858 
L 67.009512 23.836202 
L 66.944787 24.004546 
L 66.883588 24.17289 
L 66.825999 24.341233 
L 66.771821 24.509577 
L 66.720577 24.677921 
L 66.671548 24.846265 
L 66.623852 25.014609 
L 66.576573 25.182953 
L 66.528913 25.351297 
L 66.480353 25.51964 
L 66.430776 25.687984 
L 66.380518 25.856328 
L 66.330337 26.024672 
L 66.281292 26.193016 
L 66.234563 26.36136 
L 66.191234 26.529704 
L 66.152109 26.698048 
L 66.117574 26.866391 
L 66.087549 27.034735 
L 66.061534 27.203079 
L 66.03873 27.371423 
L 66.018211 27.539767 
L 65.999098 27.708111 
L 65.980702 27.876455 
L 65.96261 28.044799 
L 65.944702 28.213142 
L 65.927116 28.381486 
L 65.910169 28.54983 
L 65.89427 28.718174 
L 65.879834 28.886518 
L 65.867219 29.054862 
L 65.856683 29.223206 
L 65.848361 29.391549 
L 65.842259 29.559893 
L 65.838249 29.728237 
L 65.836086 29.896581 
L 65.83542 30.064925 
L 65.835827 30.233269 
L 65.836845 30.401613 
L 65.838018 30.569957 
L 65.838951 30.7383 
L 65.839354 30.906644 
L 65.839076 31.074988 
L 65.838118 31.243332 
L 65.836622 31.411676 
L 65.834841 31.58002 
L 65.833085 31.748364 
L 65.831661 31.916707 
L 65.83082 32.085051 
L 65.83071 32.253395 
L 65.831348 32.421739 
L 65.832617 32.590083 
L 65.834286 32.758427 
L 65.836046 32.926771 
L 65.837565 33.095115 
L 65.838538 33.263458 
L 65.838745 33.431802 
z
" clip-path="url(#p8e34e9f8e8)" style="fill: #306c53; fill-opacity: 0.5"/>
   </g>
   <g id="FillBetweenPolyCollection_4">
    <path d="M 86.756998 49.962487 
L 86.718002 49.962487 
L 86.718835 49.626906 
L 86.721127 49.291326 
L 86.724339 48.955745 
L 86.727805 48.620164 
L 86.730956 48.284584 
L 86.733452 47.949003 
L 86.735206 47.613422 
L 86.736308 47.277841 
L 86.736933 46.942261 
L 86.737253 46.60668 
L 86.737401 46.271099 
L 86.737464 45.935519 
L 86.737488 45.599938 
L 86.737496 45.264357 
L 86.737499 44.928777 
L 86.7375 44.593196 
L 86.7375 44.257615 
L 86.7375 43.922035 
L 86.7375 43.586454 
L 86.7375 43.250873 
L 86.7375 42.915293 
L 86.737498 42.579712 
L 86.737494 42.244131 
L 86.737482 41.908551 
L 86.737444 41.57297 
L 86.737344 41.237389 
L 86.737103 40.901809 
L 86.73657 40.566228 
L 86.735503 40.230647 
L 86.733573 39.895067 
L 86.730421 39.559486 
L 86.725803 39.223905 
L 86.71978 38.888325 
L 86.712877 38.552744 
L 86.706088 38.217163 
L 86.700633 37.881583 
L 86.697514 37.546002 
L 86.697033 37.210421 
L 86.698526 36.874841 
L 86.700466 36.53926 
L 86.70093 36.203679 
L 86.69824 35.868099 
L 86.691524 35.532518 
L 86.681009 35.196937 
L 86.66794 34.861356 
L 86.654169 34.525776 
L 86.64153 34.190195 
L 86.631201 33.854614 
L 86.62328 33.519034 
L 86.616734 33.183453 
L 86.609777 32.847872 
L 86.600534 32.512292 
L 86.587717 32.176711 
L 86.571045 31.84113 
L 86.551266 31.50555 
L 86.529856 31.169969 
L 86.508619 30.834388 
L 86.489357 30.498808 
L 86.473674 30.163227 
L 86.462786 29.827646 
L 86.457245 29.492066 
L 86.456598 29.156485 
L 86.459194 28.820904 
L 86.462397 28.485324 
L 86.463271 28.149743 
L 86.459467 27.814162 
L 86.449824 27.478582 
L 86.434205 27.143001 
L 86.412507 26.80742 
L 86.383353 26.47184 
L 86.343343 26.136259 
L 86.287602 25.800678 
L 86.211658 25.465098 
L 86.113876 25.129517 
L 85.997118 24.793936 
L 85.86856 24.458356 
L 85.737401 24.122775 
L 85.611323 23.787194 
L 85.493268 23.451614 
L 85.380058 23.116033 
L 85.263537 22.780452 
L 85.133806 22.444871 
L 84.98319 22.109291 
L 84.809427 21.77371 
L 84.617034 21.438129 
L 84.416499 21.102549 
L 84.221483 20.766968 
L 84.044442 20.431387 
L 83.89134 20.095807 
L 83.756776 19.760226 
L 83.621935 19.424645 
L 83.45831 19.089065 
L 83.239057 18.753484 
L 82.956193 18.417903 
L 82.63676 18.082323 
L 82.347795 17.746742 
L 82.182335 17.411161 
L 82.227874 17.075581 
L 82.530092 16.74 
L 90.944908 16.74 
L 90.944908 16.74 
L 91.247126 17.075581 
L 91.292665 17.411161 
L 91.127205 17.746742 
L 90.83824 18.082323 
L 90.518807 18.417903 
L 90.235943 18.753484 
L 90.01669 19.089065 
L 89.853065 19.424645 
L 89.718224 19.760226 
L 89.58366 20.095807 
L 89.430558 20.431387 
L 89.253517 20.766968 
L 89.058501 21.102549 
L 88.857966 21.438129 
L 88.665573 21.77371 
L 88.49181 22.109291 
L 88.341194 22.444871 
L 88.211463 22.780452 
L 88.094942 23.116033 
L 87.981732 23.451614 
L 87.863677 23.787194 
L 87.737599 24.122775 
L 87.60644 24.458356 
L 87.477882 24.793936 
L 87.361124 25.129517 
L 87.263342 25.465098 
L 87.187398 25.800678 
L 87.131657 26.136259 
L 87.091647 26.47184 
L 87.062493 26.80742 
L 87.040795 27.143001 
L 87.025176 27.478582 
L 87.015533 27.814162 
L 87.011729 28.149743 
L 87.012603 28.485324 
L 87.015806 28.820904 
L 87.018402 29.156485 
L 87.017755 29.492066 
L 87.012214 29.827646 
L 87.001326 30.163227 
L 86.985643 30.498808 
L 86.966381 30.834388 
L 86.945144 31.169969 
L 86.923734 31.50555 
L 86.903955 31.84113 
L 86.887283 32.176711 
L 86.874466 32.512292 
L 86.865223 32.847872 
L 86.858266 33.183453 
L 86.85172 33.519034 
L 86.843799 33.854614 
L 86.83347 34.190195 
L 86.820831 34.525776 
L 86.80706 34.861356 
L 86.793991 35.196937 
L 86.783476 35.532518 
L 86.77676 35.868099 
L 86.77407 36.203679 
L 86.774534 36.53926 
L 86.776474 36.874841 
L 86.777967 37.210421 
L 86.777486 37.546002 
L 86.774367 37.881583 
L 86.768912 38.217163 
L 86.762123 38.552744 
L 86.75522 38.888325 
L 86.749197 39.223905 
L 86.744579 39.559486 
L 86.741427 39.895067 
L 86.739497 40.230647 
L 86.73843 40.566228 
L 86.737897 40.901809 
L 86.737656 41.237389 
L 86.737556 41.57297 
L 86.737518 41.908551 
L 86.737506 42.244131 
L 86.737502 42.579712 
L 86.7375 42.915293 
L 86.7375 43.250873 
L 86.7375 43.586454 
L 86.7375 43.922035 
L 86.7375 44.257615 
L 86.7375 44.593196 
L 86.737501 44.928777 
L 86.737504 45.264357 
L 86.737512 45.599938 
L 86.737536 45.935519 
L 86.737599 46.271099 
L 86.737747 46.60668 
L 86.738067 46.942261 
L 86.738692 47.277841 
L 86.739794 47.613422 
L 86.741548 47.949003 
L 86.744044 48.284584 
L 86.747195 48.620164 
L 86.750661 48.955745 
L 86.753873 49.291326 
L 86.756165 49.626906 
L 86.756998 49.962487 
z
" clip-path="url(#p8e34e9f8e8)" style="fill: #306c53; fill-opacity: 0.5"/>
   </g>
   <g id="matplotlib.axis_1">
    <g id="xtick_1">
     <g id="line2d_1">
      <defs>
       <path id="m12ecd1a537" d="M 0 0 
L 0 1.7 
" style="stroke: #000000; stroke-width: 0.25"/>
      </defs>
      <g>
       <use xlink:href="#m12ecd1a537" x="23.9625" y="98.12" style="stroke: #000000; stroke-width: 0.25"/>
      </g>
     </g>
     <g id="text_1">
      <text style="font-size: 6px; font-family: 'Arial'" transform="translate(21.52033 111.434721) rotate(-45)">220</text>
     </g>
    </g>
    <g id="xtick_2">
     <g id="line2d_2">
      <g>
       <use xlink:href="#m12ecd1a537" x="44.8875" y="98.12" style="stroke: #000000; stroke-width: 0.25"/>
      </g>
     </g>
     <g id="text_2">
      <text style="font-size: 6px; font-family: 'Arial'" transform="translate(42.44533 111.434721) rotate(-45)">260</text>
     </g>
    </g>
    <g id="xtick_3">
     <g id="line2d_3">
      <g>
       <use xlink:href="#m12ecd1a537" x="65.8125" y="98.12" style="stroke: #000000; stroke-width: 0.25"/>
      </g>
     </g>
     <g id="text_3">
      <text style="font-size: 6px; font-family: 'Arial'" transform="translate(63.37033 111.434721) rotate(-45)">300</text>
     </g>
    </g>
    <g id="xtick_4">
     <g id="line2d_4">
      <g>
       <use xlink:href="#m12ecd1a537" x="86.7375" y="98.12" style="stroke: #000000; stroke-width: 0.25"/>
      </g>
     </g>
     <g id="text_4">
      <text style="font-size: 6px; font-family: 'Arial'" transform="translate(84.29533 111.434721) rotate(-45)">340</text>
     </g>
    </g>
    <g id="text_5">
     <text style="font-size: 8px; font-family: 'Arial'; text-anchor: middle" x="55.35" y="119.601695" transform="rotate(-0 55.35 119.601695)">|input to DNg100s|</text>
    </g>
   </g>
   <g id="matplotlib.axis_2">
    <g id="ytick_1">
     <g id="line2d_5">
      <defs>
       <path id="m364aff3399" d="M 0 0 
L -1.7 0 
" style="stroke: #000000; stroke-width: 0.25"/>
      </defs>
      <g>
       <use xlink:href="#m364aff3399" x="11.5" y="92.34" style="stroke: #000000; stroke-width: 0.25"/>
      </g>
     </g>
     <g id="text_6">
      <text style="font-size: 6px; font-family: 'Arial'; text-anchor: end" x="8.3" y="94.487344" transform="rotate(-0 8.3 94.487344)">0.0</text>
     </g>
    </g>
    <g id="ytick_2">
     <g id="line2d_6">
      <g>
       <use xlink:href="#m364aff3399" x="11.5" y="77.250235" style="stroke: #000000; stroke-width: 0.25"/>
      </g>
     </g>
     <g id="text_7">
      <text style="font-size: 6px; font-family: 'Arial'; text-anchor: end" x="8.3" y="79.397579" transform="rotate(-0 8.3 79.397579)">0.2</text>
     </g>
    </g>
    <g id="ytick_3">
     <g id="line2d_7">
      <g>
       <use xlink:href="#m364aff3399" x="11.5" y="62.16047" style="stroke: #000000; stroke-width: 0.25"/>
      </g>
     </g>
     <g id="text_8">
      <text style="font-size: 6px; font-family: 'Arial'; text-anchor: end" x="8.3" y="64.307814" transform="rotate(-0 8.3 64.307814)">0.4</text>
     </g>
    </g>
    <g id="ytick_4">
     <g id="line2d_8">
      <g>
       <use xlink:href="#m364aff3399" x="11.5" y="47.070705" style="stroke: #000000; stroke-width: 0.25"/>
      </g>
     </g>
     <g id="text_9">
      <text style="font-size: 6px; font-family: 'Arial'; text-anchor: end" x="8.3" y="49.218048" transform="rotate(-0 8.3 49.218048)">0.6</text>
     </g>
    </g>
    <g id="ytick_5">
     <g id="line2d_9">
      <g>
       <use xlink:href="#m364aff3399" x="11.5" y="31.98094" style="stroke: #000000; stroke-width: 0.25"/>
      </g>
     </g>
     <g id="text_10">
      <text style="font-size: 6px; font-family: 'Arial'; text-anchor: end" x="8.3" y="34.128283" transform="rotate(-0 8.3 34.128283)">0.8</text>
     </g>
    </g>
    <g id="ytick_6">
     <g id="line2d_10">
      <g>
       <use xlink:href="#m364aff3399" x="11.5" y="16.891175" style="stroke: #000000; stroke-width: 0.25"/>
      </g>
     </g>
     <g id="text_11">
      <text style="font-size: 6px; font-family: 'Arial'; text-anchor: end" x="8.3" y="19.038518" transform="rotate(-0 8.3 19.038518)">1.0</text>
     </g>
    </g>
    <g id="text_12">
     <text style="font-size: 8px; font-family: 'Arial'" transform="translate(-11.80225 78.32875) rotate(-90)">motor neuron</text>
     <text style="font-size: 8px; font-family: 'Arial'" transform="translate(-3.22375 80.76875) rotate(-90)">frequency (Hz)</text>
    </g>
   </g>
   <g id="patch_3">
    <path d="M 21.87 26.487615 
L 26.055 26.487615 
L 26.055 16.945114 
L 21.87 16.945114 
L 21.87 26.487615 
z
" clip-path="url(#p8e34e9f8e8)" style="fill: #306c53; stroke: #2f2f2f; stroke-width: 0.5; stroke-linejoin: miter"/>
   </g>
   <g id="line2d_11">
    <path d="M 23.9625 26.487615 
L 23.9625 39.142787 
" clip-path="url(#p8e34e9f8e8)" style="fill: none; stroke: #2f2f2f; stroke-width: 0.5"/>
   </g>
   <g id="line2d_12">
    <path d="M 23.9625 16.945114 
L 23.9625 16.821433 
" clip-path="url(#p8e34e9f8e8)" style="fill: none; stroke: #2f2f2f; stroke-width: 0.5"/>
   </g>
   <g id="line2d_13">
    <path d="M 22.91625 39.142787 
L 25.00875 39.142787 
" clip-path="url(#p8e34e9f8e8)" style="fill: none; stroke: #2f2f2f; stroke-width: 0.5; stroke-linecap: square"/>
   </g>
   <g id="line2d_14">
    <path d="M 22.91625 16.821433 
L 25.00875 16.821433 
" clip-path="url(#p8e34e9f8e8)" style="fill: none; stroke: #2f2f2f; stroke-width: 0.5; stroke-linecap: square"/>
   </g>
   <g id="patch_4">
    <path d="M 42.795 19.687076 
L 46.98 19.687076 
L 46.98 16.924278 
L 42.795 16.924278 
L 42.795 19.687076 
z
" clip-path="url(#p8e34e9f8e8)" style="fill: #306c53; stroke: #2f2f2f; stroke-width: 0.5; stroke-linejoin: miter"/>
   </g>
   <g id="line2d_15">
    <path d="M 44.8875 19.687076 
L 44.8875 23.812824 
" clip-path="url(#p8e34e9f8e8)" style="fill: none; stroke: #2f2f2f; stroke-width: 0.5"/>
   </g>
   <g id="line2d_16">
    <path d="M 44.8875 16.924278 
L 44.8875 16.805981 
" clip-path="url(#p8e34e9f8e8)" style="fill: none; stroke: #2f2f2f; stroke-width: 0.5"/>
   </g>
   <g id="line2d_17">
    <path d="M 43.84125 23.812824 
L 45.93375 23.812824 
" clip-path="url(#p8e34e9f8e8)" style="fill: none; stroke: #2f2f2f; stroke-width: 0.5; stroke-linecap: square"/>
   </g>
   <g id="line2d_18">
    <path d="M 43.84125 16.805981 
L 45.93375 16.805981 
" clip-path="url(#p8e34e9f8e8)" style="fill: none; stroke: #2f2f2f; stroke-width: 0.5; stroke-linecap: square"/>
   </g>
   <g id="patch_5">
    <path d="M 63.72 21.23827 
L 67.905 21.23827 
L 67.905 16.91022 
L 63.72 16.91022 
L 63.72 21.23827 
z
" clip-path="url(#p8e34e9f8e8)" style="fill: #306c53; stroke: #2f2f2f; stroke-width: 0.5; stroke-linejoin: miter"/>
   </g>
   <g id="line2d_19">
    <path d="M 65.8125 21.23827 
L 65.8125 27.631725 
" clip-path="url(#p8e34e9f8e8)" style="fill: none; stroke: #2f2f2f; stroke-width: 0.5"/>
   </g>
   <g id="line2d_20">
    <path d="M 65.8125 16.91022 
L 65.8125 16.765759 
" clip-path="url(#p8e34e9f8e8)" style="fill: none; stroke: #2f2f2f; stroke-width: 0.5"/>
   </g>
   <g id="line2d_21">
    <path d="M 64.76625 27.631725 
L 66.85875 27.631725 
" clip-path="url(#p8e34e9f8e8)" style="fill: none; stroke: #2f2f2f; stroke-width: 0.5; stroke-linecap: square"/>
   </g>
   <g id="line2d_22">
    <path d="M 64.76625 16.765759 
L 66.85875 16.765759 
" clip-path="url(#p8e34e9f8e8)" style="fill: none; stroke: #2f2f2f; stroke-width: 0.5; stroke-linecap: square"/>
   </g>
   <g id="patch_6">
    <path d="M 84.645 21.438893 
L 88.83 21.438893 
L 88.83 16.937391 
L 84.645 16.937391 
L 84.645 21.438893 
z
" clip-path="url(#p8e34e9f8e8)" style="fill: #306c53; stroke: #2f2f2f; stroke-width: 0.5; stroke-linejoin: miter"/>
   </g>
   <g id="line2d_23">
    <path d="M 86.7375 21.438893 
L 86.7375 28.169727 
" clip-path="url(#p8e34e9f8e8)" style="fill: none; stroke: #2f2f2f; stroke-width: 0.5"/>
   </g>
   <g id="line2d_24">
    <path d="M 86.7375 16.937391 
L 86.7375 16.74 
" clip-path="url(#p8e34e9f8e8)" style="fill: none; stroke: #2f2f2f; stroke-width: 0.5"/>
   </g>
   <g id="line2d_25">
    <path d="M 85.69125 28.169727 
L 87.78375 28.169727 
" clip-path="url(#p8e34e9f8e8)" style="fill: none; stroke: #2f2f2f; stroke-width: 0.5; stroke-linecap: square"/>
   </g>
   <g id="line2d_26">
    <path d="M 85.69125 16.74 
L 87.78375 16.74 
" clip-path="url(#p8e34e9f8e8)" style="fill: none; stroke: #2f2f2f; stroke-width: 0.5; stroke-linecap: square"/>
   </g>
   <g id="line2d_27">
    <path d="M 21.87 19.252409 
L 26.055 19.252409 
" clip-path="url(#p8e34e9f8e8)" style="fill: none; stroke: #2f2f2f; stroke-width: 0.5"/>
   </g>
   <g id="line2d_28">
    <path d="M 42.795 16.959058 
L 46.98 16.959058 
" clip-path="url(#p8e34e9f8e8)" style="fill: none; stroke: #2f2f2f; stroke-width: 0.5"/>
   </g>
   <g id="line2d_29">
    <path d="M 63.72 16.986781 
L 67.905 16.986781 
" clip-path="url(#p8e34e9f8e8)" style="fill: none; stroke: #2f2f2f; stroke-width: 0.5"/>
   </g>
   <g id="line2d_30">
    <path d="M 84.645 19.003404 
L 88.83 19.003404 
" clip-path="url(#p8e34e9f8e8)" style="fill: none; stroke: #2f2f2f; stroke-width: 0.5"/>
   </g>
   <g id="patch_7">
    <path d="M 11.5 96.12 
L 11.5 12.96 
" style="fill: none; stroke: #000000; stroke-width: 0.25; stroke-linejoin: miter; stroke-linecap: square"/>
   </g>
   <g id="patch_8">
    <path d="M 13.5 98.12 
L 97.2 98.12 
" style="fill: none; stroke: #000000; stroke-width: 0.25; stroke-linejoin: miter; stroke-linecap: square"/>
   </g>
  </g>
 </g>
 <defs>
  <clipPath id="p8e34e9f8e8">
   <rect x="13.5" y="12.96" width="83.7" height="83.16"/>
  </clipPath>
 </defs>
</svg>
