<?xml version="1.0" encoding="utf-8" standalone="no"?>
<!DOCTYPE svg PUBLIC "-//W3C//DTD SVG 1.1//EN"
  "http://www.w3.org/Graphics/SVG/1.1/DTD/svg11.dtd">
<svg xmlns:xlink="http://www.w3.org/1999/xlink" width="43.2pt" height="41.04pt" viewBox="0 0 43.2 41.04" xmlns="http://www.w3.org/2000/svg" version="1.1">
 <metadata>
  <rdf:RDF xmlns:dc="http://purl.org/dc/elements/1.1/" xmlns:cc="http://creativecommons.org/ns#" xmlns:rdf="http://www.w3.org/1999/02/22-rdf-syntax-ns#">
   <cc:Work>
    <dc:type rdf:resource="http://purl.org/dc/dcmitype/StillImage"/>
    <dc:date>2026-03-02T17:36:38.886972</dc:date>
    <dc:format>image/svg+xml</dc:format>
    <dc:creator>
     <cc:Agent>
      <dc:title>Matplotlib v3.10.7, https://matplotlib.org/</dc:title>
     </cc:Agent>
    </dc:creator>
   </cc:Work>
  </rdf:RDF>
 </metadata>
 <defs>
  <style type="text/css">*{stroke-linejoin: round; stroke-linecap: butt}</style>
 </defs>
 <g id="figure_1">
  <g id="patch_1">
   <path d="M 0 41.04 
L 43.2 41.04 
L 43.2 0 
L 0 0 
L 0 41.04 
z
" style="fill: none"/>
  </g>
  <g id="axes_1">
   <g id="patch_2">
    <path d="M 5.4 36.5256 
L 38.88 36.5256 
L 38.88 4.9248 
L 5.4 4.9248 
L 5.4 36.5256 
z
" style="fill: none"/>
   </g>
   <g id="patch_3">
    <path d="M 5.4 36.5256 
L 6.855652 36.5256 
L 6.855652 35.2089 
L 5.4 35.2089 
z
" clip-path="url(#pbd79ca0a87)" style="fill: #267655"/>
   </g>
   <g id="patch_4">
    <path d="M 6.855652 36.5256 
L 8.311304 36.5256 
L 8.311304 36.5256 
L 6.855652 36.5256 
z
" clip-path="url(#pbd79ca0a87)" style="fill: #267655"/>
   </g>
   <g id="patch_5">
    <path d="M 8.311304 36.5256 
L 9.766957 36.5256 
L 9.766957 36.5256 
L 8.311304 36.5256 
z
" clip-path="url(#pbd79ca0a87)" style="fill: #267655"/>
   </g>
   <g id="patch_6">
    <path d="M 9.766957 36.5256 
L 11.222609 36.5256 
L 11.222609 36.5256 
L 9.766957 36.5256 
z
" clip-path="url(#pbd79ca0a87)" style="fill: #267655"/>
   </g>
   <g id="patch_7">
    <path d="M 11.222609 36.5256 
L 12.678261 36.5256 
L 12.678261 36.5256 
L 11.222609 36.5256 
z
" clip-path="url(#pbd79ca0a87)" style="fill: #267655"/>
   </g>
   <g id="patch_8">
    <path d="M 12.678261 36.5256 
L 14.133913 36.5256 
L 14.133913 36.5256 
L 12.678261 36.5256 
z
" clip-path="url(#pbd79ca0a87)" style="fill: #267655"/>
   </g>
   <g id="patch_9">
    <path d="M 14.133913 36.5256 
L 15.589565 36.5256 
L 15.589565 36.5256 
L 14.133913 36.5256 
z
" clip-path="url(#pbd79ca0a87)" style="fill: #267655"/>
   </g>
   <g id="patch_10">
    <path d="M 15.589565 36.5256 
L 17.045217 36.5256 
L 17.045217 36.5256 
L 15.589565 36.5256 
z
" clip-path="url(#pbd79ca0a87)" style="fill: #267655"/>
   </g>
   <g id="patch_11">
    <path d="M 17.045217 36.5256 
L 18.50087 36.5256 
L 18.50087 36.196425 
L 17.045217 36.196425 
z
" clip-path="url(#pbd79ca0a87)" style="fill: #267655"/>
   </g>
   <g id="patch_12">
    <path d="M 18.50087 36.5256 
L 19.956522 36.5256 
L 19.956522 36.5256 
L 18.50087 36.5256 
z
" clip-path="url(#pbd79ca0a87)" style="fill: #267655"/>
   </g>
   <g id="patch_13">
    <path d="M 19.956522 36.5256 
L 21.412174 36.5256 
L 21.412174 35.538075 
L 19.956522 35.538075 
z
" clip-path="url(#pbd79ca0a87)" style="fill: #267655"/>
   </g>
   <g id="patch_14">
    <path d="M 21.412174 36.5256 
L 22.867826 36.5256 
L 22.867826 36.196425 
L 21.412174 36.196425 
z
" clip-path="url(#pbd79ca0a87)" style="fill: #267655"/>
   </g>
   <g id="patch_15">
    <path d="M 22.867826 36.5256 
L 24.323478 36.5256 
L 24.323478 35.86725 
L 22.867826 35.86725 
z
" clip-path="url(#pbd79ca0a87)" style="fill: #267655"/>
   </g>
   <g id="patch_16">
    <path d="M 24.323478 36.5256 
L 25.77913 36.5256 
L 25.77913 36.196425 
L 24.323478 36.196425 
z
" clip-path="url(#pbd79ca0a87)" style="fill: #267655"/>
   </g>
   <g id="patch_17">
    <path d="M 25.77913 36.5256 
L 27.234783 36.5256 
L 27.234783 35.538075 
L 25.77913 35.538075 
z
" clip-path="url(#pbd79ca0a87)" style="fill: #267655"/>
   </g>
   <g id="patch_18">
    <path d="M 27.234783 36.5256 
L 28.690435 36.5256 
L 28.690435 34.221375 
L 27.234783 34.221375 
z
" clip-path="url(#pbd79ca0a87)" style="fill: #267655"/>
   </g>
   <g id="patch_19">
    <path d="M 28.690435 36.5256 
L 30.146087 36.5256 
L 30.146087 33.8922 
L 28.690435 33.8922 
z
" clip-path="url(#pbd79ca0a87)" style="fill: #267655"/>
   </g>
   <g id="patch_20">
    <path d="M 30.146087 36.5256 
L 31.601739 36.5256 
L 31.601739 34.221375 
L 30.146087 34.221375 
z
" clip-path="url(#pbd79ca0a87)" style="fill: #267655"/>
   </g>
   <g id="patch_21">
    <path d="M 31.601739 36.5256 
L 33.057391 36.5256 
L 33.057391 34.221375 
L 31.601739 34.221375 
z
" clip-path="url(#pbd79ca0a87)" style="fill: #267655"/>
   </g>
   <g id="patch_22">
    <path d="M 33.057391 36.5256 
L 34.513043 36.5256 
L 34.513043 33.563025 
L 33.057391 33.563025 
z
" clip-path="url(#pbd79ca0a87)" style="fill: #267655"/>
   </g>
   <g id="patch_23">
    <path d="M 34.513043 36.5256 
L 35.968696 36.5256 
L 35.968696 33.8922 
L 34.513043 33.8922 
z
" clip-path="url(#pbd79ca0a87)" style="fill: #267655"/>
   </g>
   <g id="patch_24">
    <path d="M 35.968696 36.5256 
L 37.424348 36.5256 
L 37.424348 33.23385 
L 35.968696 33.23385 
z
" clip-path="url(#pbd79ca0a87)" style="fill: #267655"/>
   </g>
   <g id="patch_25">
    <path d="M 37.424348 36.5256 
L 38.88 36.5256 
L 38.88 34.879725 
L 37.424348 34.879725 
z
" clip-path="url(#pbd79ca0a87)" style="fill: #267655"/>
   </g>
   <g id="patch_26">
    <path d="M 38.88 36.5256 
L 40.335652 36.5256 
L 40.335652 33.23385 
L 38.88 33.23385 
z
" clip-path="url(#pbd79ca0a87)" style="fill: #267655"/>
   </g>
   <g id="patch_27">
    <path d="M 40.335652 36.5256 
L 41.791304 36.5256 
L 41.791304 34.55055 
L 40.335652 34.55055 
z
" clip-path="url(#pbd79ca0a87)" style="fill: #267655"/>
   </g>
   <g id="patch_28">
    <path d="M 41.791304 36.5256 
L 43.246957 36.5256 
L 43.246957 34.55055 
L 41.791304 34.55055 
z
" clip-path="url(#pbd79ca0a87)" style="fill: #267655"/>
   </g>
   <g id="patch_29">
    <path d="M 43.246957 36.5256 
L 44.702609 36.5256 
L 44.702609 35.2089 
L 43.246957 35.2089 
z
" clip-path="url(#pbd79ca0a87)" style="fill: #267655"/>
   </g>
   <g id="patch_30">
    <path d="M 44.702609 36.5256 
L 46.158261 36.5256 
L 46.158261 35.2089 
L 44.702609 35.2089 
z
" clip-path="url(#pbd79ca0a87)" style="fill: #267655"/>
   </g>
   <g id="patch_31">
    <path d="M 46.158261 36.5256 
L 47.613913 36.5256 
L 47.613913 36.196425 
L 46.158261 36.196425 
z
" clip-path="url(#pbd79ca0a87)" style="fill: #267655"/>
   </g>
   <g id="patch_32">
    <path d="M 47.613913 36.5256 
L 49.069565 36.5256 
L 49.069565 34.55055 
L 47.613913 34.55055 
z
" clip-path="url(#pbd79ca0a87)" style="fill: #267655"/>
   </g>
   <g id="patch_33">
    <path d="M 49.069565 36.5256 
L 50.525217 36.5256 
L 50.525217 36.196425 
L 49.069565 36.196425 
z
" clip-path="url(#pbd79ca0a87)" style="fill: #267655"/>
   </g>
   <g id="patch_34">
    <path d="M 50.525217 36.5256 
L 51.98087 36.5256 
L 51.98087 35.86725 
L 50.525217 35.86725 
z
" clip-path="url(#pbd79ca0a87)" style="fill: #267655"/>
   </g>
   <g id="patch_35">
    <path d="M 51.98087 36.5256 
L 53.436522 36.5256 
L 53.436522 35.86725 
L 51.98087 35.86725 
z
" clip-path="url(#pbd79ca0a87)" style="fill: #267655"/>
   </g>
   <g id="patch_36">
    <path d="M 53.436522 36.5256 
L 54.892174 36.5256 
L 54.892174 36.5256 
L 53.436522 36.5256 
z
" clip-path="url(#pbd79ca0a87)" style="fill: #267655"/>
   </g>
   <g id="patch_37">
    <path d="M 54.892174 36.5256 
L 56.347826 36.5256 
L 56.347826 36.5256 
L 54.892174 36.5256 
z
" clip-path="url(#pbd79ca0a87)" style="fill: #267655"/>
   </g>
   <g id="patch_38">
    <path d="M 56.347826 36.5256 
L 57.803478 36.5256 
L 57.803478 36.5256 
L 56.347826 36.5256 
z
" clip-path="url(#pbd79ca0a87)" style="fill: #267655"/>
   </g>
   <g id="patch_39">
    <path d="M 57.803478 36.5256 
L 59.25913 36.5256 
L 59.25913 36.5256 
L 57.803478 36.5256 
z
" clip-path="url(#pbd79ca0a87)" style="fill: #267655"/>
   </g>
   <g id="patch_40">
    <path d="M 59.25913 36.5256 
L 60.714783 36.5256 
L 60.714783 36.5256 
L 59.25913 36.5256 
z
" clip-path="url(#pbd79ca0a87)" style="fill: #267655"/>
   </g>
   <g id="patch_41">
    <path d="M 60.714783 36.5256 
L 62.170435 36.5256 
L 62.170435 36.5256 
L 60.714783 36.5256 
z
" clip-path="url(#pbd79ca0a87)" style="fill: #267655"/>
   </g>
   <g id="patch_42">
    <path d="M 62.170435 36.5256 
L 63.626087 36.5256 
L 63.626087 36.5256 
L 62.170435 36.5256 
z
" clip-path="url(#pbd79ca0a87)" style="fill: #267655"/>
   </g>
   <g id="patch_43">
    <path d="M 63.626087 36.5256 
L 65.081739 36.5256 
L 65.081739 36.5256 
L 63.626087 36.5256 
z
" clip-path="url(#pbd79ca0a87)" style="fill: #267655"/>
   </g>
   <g id="patch_44">
    <path d="M 65.081739 36.5256 
L 66.537391 36.5256 
L 66.537391 36.5256 
L 65.081739 36.5256 
z
" clip-path="url(#pbd79ca0a87)" style="fill: #267655"/>
   </g>
   <g id="patch_45">
    <path d="M 66.537391 36.5256 
L 67.993043 36.5256 
L 67.993043 36.5256 
L 66.537391 36.5256 
z
" clip-path="url(#pbd79ca0a87)" style="fill: #267655"/>
   </g>
   <g id="patch_46">
    <path d="M 67.993043 36.5256 
L 69.448696 36.5256 
L 69.448696 36.5256 
L 67.993043 36.5256 
z
" clip-path="url(#pbd79ca0a87)" style="fill: #267655"/>
   </g>
   <g id="patch_47">
    <path d="M 69.448696 36.5256 
L 70.904348 36.5256 
L 70.904348 36.5256 
L 69.448696 36.5256 
z
" clip-path="url(#pbd79ca0a87)" style="fill: #267655"/>
   </g>
   <g id="patch_48">
    <path d="M 70.904348 36.5256 
L 72.36 36.5256 
L 72.36 36.5256 
L 70.904348 36.5256 
z
" clip-path="url(#pbd79ca0a87)" style="fill: #267655"/>
   </g>
   <g id="patch_49">
    <path d="M 72.36 36.5256 
L 73.815652 36.5256 
L 73.815652 36.5256 
L 72.36 36.5256 
z
" clip-path="url(#pbd79ca0a87)" style="fill: #267655"/>
   </g>
   <g id="patch_50">
    <path d="M 73.815652 36.5256 
L 75.271304 36.5256 
L 75.271304 36.5256 
L 73.815652 36.5256 
z
" clip-path="url(#pbd79ca0a87)" style="fill: #267655"/>
   </g>
   <g id="patch_51">
    <path d="M 75.271304 36.5256 
L 76.726957 36.5256 
L 76.726957 36.5256 
L 75.271304 36.5256 
z
" clip-path="url(#pbd79ca0a87)" style="fill: #267655"/>
   </g>
   <g id="patch_52">
    <path d="M 76.726957 36.5256 
L 78.182609 36.5256 
L 78.182609 36.5256 
L 76.726957 36.5256 
z
" clip-path="url(#pbd79ca0a87)" style="fill: #267655"/>
   </g>
   <g id="patch_53">
    <path d="M 78.182609 36.5256 
L 79.638261 36.5256 
L 79.638261 36.5256 
L 78.182609 36.5256 
z
" clip-path="url(#pbd79ca0a87)" style="fill: #267655"/>
   </g>
   <g id="patch_54">
    <path d="M 79.638261 36.5256 
L 81.093913 36.5256 
L 81.093913 36.5256 
L 79.638261 36.5256 
z
" clip-path="url(#pbd79ca0a87)" style="fill: #267655"/>
   </g>
   <g id="patch_55">
    <path d="M 81.093913 36.5256 
L 82.549565 36.5256 
L 82.549565 36.5256 
L 81.093913 36.5256 
z
" clip-path="url(#pbd79ca0a87)" style="fill: #267655"/>
   </g>
   <g id="patch_56">
    <path d="M 82.549565 36.5256 
L 84.005217 36.5256 
L 84.005217 36.5256 
L 82.549565 36.5256 
z
" clip-path="url(#pbd79ca0a87)" style="fill: #267655"/>
   </g>
   <g id="patch_57">
    <path d="M 84.005217 36.5256 
L 85.46087 36.5256 
L 85.46087 36.5256 
L 84.005217 36.5256 
z
" clip-path="url(#pbd79ca0a87)" style="fill: #267655"/>
   </g>
   <g id="patch_58">
    <path d="M 85.46087 36.5256 
L 86.916522 36.5256 
L 86.916522 36.5256 
L 85.46087 36.5256 
z
" clip-path="url(#pbd79ca0a87)" style="fill: #267655"/>
   </g>
   <g id="patch_59">
    <path d="M 86.916522 36.5256 
L 88.372174 36.5256 
L 88.372174 36.5256 
L 86.916522 36.5256 
z
" clip-path="url(#pbd79ca0a87)" style="fill: #267655"/>
   </g>
   <g id="patch_60">
    <path d="M 88.372174 36.5256 
L 89.827826 36.5256 
L 89.827826 36.5256 
L 88.372174 36.5256 
z
" clip-path="url(#pbd79ca0a87)" style="fill: #267655"/>
   </g>
   <g id="patch_61">
    <path d="M 89.827826 36.5256 
L 91.283478 36.5256 
L 91.283478 36.5256 
L 89.827826 36.5256 
z
" clip-path="url(#pbd79ca0a87)" style="fill: #267655"/>
   </g>
   <g id="patch_62">
    <path d="M 91.283478 36.5256 
L 92.73913 36.5256 
L 92.73913 36.5256 
L 91.283478 36.5256 
z
" clip-path="url(#pbd79ca0a87)" style="fill: #267655"/>
   </g>
   <g id="patch_63">
    <path d="M 92.73913 36.5256 
L 94.194783 36.5256 
L 94.194783 36.5256 
L 92.73913 36.5256 
z
" clip-path="url(#pbd79ca0a87)" style="fill: #267655"/>
   </g>
   <g id="patch_64">
    <path d="M 94.194783 36.5256 
L 95.650435 36.5256 
L 95.650435 36.5256 
L 94.194783 36.5256 
z
" clip-path="url(#pbd79ca0a87)" style="fill: #267655"/>
   </g>
   <g id="patch_65">
    <path d="M 95.650435 36.5256 
L 97.106087 36.5256 
L 97.106087 36.5256 
L 95.650435 36.5256 
z
" clip-path="url(#pbd79ca0a87)" style="fill: #267655"/>
   </g>
   <g id="patch_66">
    <path d="M 97.106087 36.5256 
L 98.561739 36.5256 
L 98.561739 36.5256 
L 97.106087 36.5256 
z
" clip-path="url(#pbd79ca0a87)" style="fill: #267655"/>
   </g>
   <g id="patch_67">
    <path d="M 98.561739 36.5256 
L 100.017391 36.5256 
L 100.017391 36.5256 
L 98.561739 36.5256 
z
" clip-path="url(#pbd79ca0a87)" style="fill: #267655"/>
   </g>
   <g id="patch_68">
    <path d="M 100.017391 36.5256 
L 101.473043 36.5256 
L 101.473043 36.5256 
L 100.017391 36.5256 
z
" clip-path="url(#pbd79ca0a87)" style="fill: #267655"/>
   </g>
   <g id="patch_69">
    <path d="M 101.473043 36.5256 
L 102.928696 36.5256 
L 102.928696 36.5256 
L 101.473043 36.5256 
z
" clip-path="url(#pbd79ca0a87)" style="fill: #267655"/>
   </g>
   <g id="patch_70">
    <path d="M 102.928696 36.5256 
L 104.384348 36.5256 
L 104.384348 36.5256 
L 102.928696 36.5256 
z
" clip-path="url(#pbd79ca0a87)" style="fill: #267655"/>
   </g>
   <g id="patch_71">
    <path d="M 104.384348 36.5256 
L 105.84 36.5256 
L 105.84 36.5256 
L 104.384348 36.5256 
z
" clip-path="url(#pbd79ca0a87)" style="fill: #267655"/>
   </g>
   <g id="patch_72">
    <path d="M 105.84 36.5256 
L 107.295652 36.5256 
L 107.295652 36.5256 
L 105.84 36.5256 
z
" clip-path="url(#pbd79ca0a87)" style="fill: #267655"/>
   </g>
   <g id="patch_73">
    <path d="M 107.295652 36.5256 
L 108.751304 36.5256 
L 108.751304 36.5256 
L 107.295652 36.5256 
z
" clip-path="url(#pbd79ca0a87)" style="fill: #267655"/>
   </g>
   <g id="patch_74">
    <path d="M 108.751304 36.5256 
L 110.206957 36.5256 
L 110.206957 36.5256 
L 108.751304 36.5256 
z
" clip-path="url(#pbd79ca0a87)" style="fill: #267655"/>
   </g>
   <g id="patch_75">
    <path d="M 110.206957 36.5256 
L 111.662609 36.5256 
L 111.662609 36.5256 
L 110.206957 36.5256 
z
" clip-path="url(#pbd79ca0a87)" style="fill: #267655"/>
   </g>
   <g id="patch_76">
    <path d="M 111.662609 36.5256 
L 113.118261 36.5256 
L 113.118261 36.5256 
L 111.662609 36.5256 
z
" clip-path="url(#pbd79ca0a87)" style="fill: #267655"/>
   </g>
   <g id="patch_77">
    <path d="M 113.118261 36.5256 
L 114.573913 36.5256 
L 114.573913 36.5256 
L 113.118261 36.5256 
z
" clip-path="url(#pbd79ca0a87)" style="fill: #267655"/>
   </g>
   <g id="patch_78">
    <path d="M 114.573913 36.5256 
L 116.029565 36.5256 
L 116.029565 36.5256 
L 114.573913 36.5256 
z
" clip-path="url(#pbd79ca0a87)" style="fill: #267655"/>
   </g>
   <g id="patch_79">
    <path d="M 116.029565 36.5256 
L 117.485217 36.5256 
L 117.485217 36.5256 
L 116.029565 36.5256 
z
" clip-path="url(#pbd79ca0a87)" style="fill: #267655"/>
   </g>
   <g id="patch_80">
    <path d="M 117.485217 36.5256 
L 118.94087 36.5256 
L 118.94087 36.5256 
L 117.485217 36.5256 
z
" clip-path="url(#pbd79ca0a87)" style="fill: #267655"/>
   </g>
   <g id="patch_81">
    <path d="M 118.94087 36.5256 
L 120.396522 36.5256 
L 120.396522 36.5256 
L 118.94087 36.5256 
z
" clip-path="url(#pbd79ca0a87)" style="fill: #267655"/>
   </g>
   <g id="patch_82">
    <path d="M 120.396522 36.5256 
L 121.852174 36.5256 
L 121.852174 36.5256 
L 120.396522 36.5256 
z
" clip-path="url(#pbd79ca0a87)" style="fill: #267655"/>
   </g>
   <g id="patch_83">
    <path d="M 121.852174 36.5256 
L 123.307826 36.5256 
L 123.307826 36.5256 
L 121.852174 36.5256 
z
" clip-path="url(#pbd79ca0a87)" style="fill: #267655"/>
   </g>
   <g id="patch_84">
    <path d="M 123.307826 36.5256 
L 124.763478 36.5256 
L 124.763478 36.5256 
L 123.307826 36.5256 
z
" clip-path="url(#pbd79ca0a87)" style="fill: #267655"/>
   </g>
   <g id="patch_85">
    <path d="M 124.763478 36.5256 
L 126.21913 36.5256 
L 126.21913 36.5256 
L 124.763478 36.5256 
z
" clip-path="url(#pbd79ca0a87)" style="fill: #267655"/>
   </g>
   <g id="patch_86">
    <path d="M 126.21913 36.5256 
L 127.674783 36.5256 
L 127.674783 36.5256 
L 126.21913 36.5256 
z
" clip-path="url(#pbd79ca0a87)" style="fill: #267655"/>
   </g>
   <g id="patch_87">
    <path d="M 127.674783 36.5256 
L 129.130435 36.5256 
L 129.130435 36.5256 
L 127.674783 36.5256 
z
" clip-path="url(#pbd79ca0a87)" style="fill: #267655"/>
   </g>
   <g id="patch_88">
    <path d="M 129.130435 36.5256 
L 130.586087 36.5256 
L 130.586087 36.5256 
L 129.130435 36.5256 
z
" clip-path="url(#pbd79ca0a87)" style="fill: #267655"/>
   </g>
   <g id="patch_89">
    <path d="M 130.586087 36.5256 
L 132.041739 36.5256 
L 132.041739 36.5256 
L 130.586087 36.5256 
z
" clip-path="url(#pbd79ca0a87)" style="fill: #267655"/>
   </g>
   <g id="patch_90">
    <path d="M 132.041739 36.5256 
L 133.497391 36.5256 
L 133.497391 36.5256 
L 132.041739 36.5256 
z
" clip-path="url(#pbd79ca0a87)" style="fill: #267655"/>
   </g>
   <g id="patch_91">
    <path d="M 133.497391 36.5256 
L 134.953043 36.5256 
L 134.953043 36.5256 
L 133.497391 36.5256 
z
" clip-path="url(#pbd79ca0a87)" style="fill: #267655"/>
   </g>
   <g id="patch_92">
    <path d="M 134.953043 36.5256 
L 136.408696 36.5256 
L 136.408696 36.5256 
L 134.953043 36.5256 
z
" clip-path="url(#pbd79ca0a87)" style="fill: #267655"/>
   </g>
   <g id="patch_93">
    <path d="M 136.408696 36.5256 
L 137.864348 36.5256 
L 137.864348 36.5256 
L 136.408696 36.5256 
z
" clip-path="url(#pbd79ca0a87)" style="fill: #267655"/>
   </g>
   <g id="patch_94">
    <path d="M 137.864348 36.5256 
L 139.32 36.5256 
L 139.32 36.5256 
L 137.864348 36.5256 
z
" clip-path="url(#pbd79ca0a87)" style="fill: #267655"/>
   </g>
   <g id="patch_95">
    <path d="M 139.32 36.5256 
L 140.775652 36.5256 
L 140.775652 36.5256 
L 139.32 36.5256 
z
" clip-path="url(#pbd79ca0a87)" style="fill: #267655"/>
   </g>
   <g id="patch_96">
    <path d="M 140.775652 36.5256 
L 142.231304 36.5256 
L 142.231304 36.5256 
L 140.775652 36.5256 
z
" clip-path="url(#pbd79ca0a87)" style="fill: #267655"/>
   </g>
   <g id="patch_97">
    <path d="M 142.231304 36.5256 
L 143.686957 36.5256 
L 143.686957 36.5256 
L 142.231304 36.5256 
z
" clip-path="url(#pbd79ca0a87)" style="fill: #267655"/>
   </g>
   <g id="patch_98">
    <path d="M 143.686957 36.5256 
L 145.142609 36.5256 
L 145.142609 36.5256 
L 143.686957 36.5256 
z
" clip-path="url(#pbd79ca0a87)" style="fill: #267655"/>
   </g>
   <g id="patch_99">
    <path d="M 145.142609 36.5256 
L 146.598261 36.5256 
L 146.598261 36.5256 
L 145.142609 36.5256 
z
" clip-path="url(#pbd79ca0a87)" style="fill: #267655"/>
   </g>
   <g id="patch_100">
    <path d="M 146.598261 36.5256 
L 148.053913 36.5256 
L 148.053913 36.5256 
L 146.598261 36.5256 
z
" clip-path="url(#pbd79ca0a87)" style="fill: #267655"/>
   </g>
   <g id="patch_101">
    <path d="M 148.053913 36.5256 
L 149.509565 36.5256 
L 149.509565 36.5256 
L 148.053913 36.5256 
z
" clip-path="url(#pbd79ca0a87)" style="fill: #267655"/>
   </g>
   <g id="patch_102">
    <path d="M 149.509565 36.5256 
L 150.965217 36.5256 
L 150.965217 36.5256 
L 149.509565 36.5256 
z
" clip-path="url(#pbd79ca0a87)" style="fill: #267655"/>
   </g>
   <g id="patch_103">
    <path d="M 150.965217 36.5256 
L 152.42087 36.5256 
L 152.42087 36.5256 
L 150.965217 36.5256 
z
" clip-path="url(#pbd79ca0a87)" style="fill: #267655"/>
   </g>
   <g id="patch_104">
    <path d="M 152.42087 36.5256 
L 153.876522 36.5256 
L 153.876522 36.5256 
L 152.42087 36.5256 
z
" clip-path="url(#pbd79ca0a87)" style="fill: #267655"/>
   </g>
   <g id="patch_105">
    <path d="M 153.876522 36.5256 
L 155.332174 36.5256 
L 155.332174 36.5256 
L 153.876522 36.5256 
z
" clip-path="url(#pbd79ca0a87)" style="fill: #267655"/>
   </g>
   <g id="patch_106">
    <path d="M 155.332174 36.5256 
L 156.787826 36.5256 
L 156.787826 36.5256 
L 155.332174 36.5256 
z
" clip-path="url(#pbd79ca0a87)" style="fill: #267655"/>
   </g>
   <g id="patch_107">
    <path d="M 156.787826 36.5256 
L 158.243478 36.5256 
L 158.243478 36.5256 
L 156.787826 36.5256 
z
" clip-path="url(#pbd79ca0a87)" style="fill: #267655"/>
   </g>
   <g id="patch_108">
    <path d="M 158.243478 36.5256 
L 159.69913 36.5256 
L 159.69913 36.5256 
L 158.243478 36.5256 
z
" clip-path="url(#pbd79ca0a87)" style="fill: #267655"/>
   </g>
   <g id="patch_109">
    <path d="M 159.69913 36.5256 
L 161.154783 36.5256 
L 161.154783 36.5256 
L 159.69913 36.5256 
z
" clip-path="url(#pbd79ca0a87)" style="fill: #267655"/>
   </g>
   <g id="patch_110">
    <path d="M 161.154783 36.5256 
L 162.610435 36.5256 
L 162.610435 36.5256 
L 161.154783 36.5256 
z
" clip-path="url(#pbd79ca0a87)" style="fill: #267655"/>
   </g>
   <g id="patch_111">
    <path d="M 162.610435 36.5256 
L 164.066087 36.5256 
L 164.066087 36.5256 
L 162.610435 36.5256 
z
" clip-path="url(#pbd79ca0a87)" style="fill: #267655"/>
   </g>
   <g id="patch_112">
    <path d="M 164.066087 36.5256 
L 165.521739 36.5256 
L 165.521739 36.5256 
L 164.066087 36.5256 
z
" clip-path="url(#pbd79ca0a87)" style="fill: #267655"/>
   </g>
   <g id="patch_113">
    <path d="M 165.521739 36.5256 
L 166.977391 36.5256 
L 166.977391 36.5256 
L 165.521739 36.5256 
z
" clip-path="url(#pbd79ca0a87)" style="fill: #267655"/>
   </g>
   <g id="patch_114">
    <path d="M 166.977391 36.5256 
L 168.433043 36.5256 
L 168.433043 36.5256 
L 166.977391 36.5256 
z
" clip-path="url(#pbd79ca0a87)" style="fill: #267655"/>
   </g>
   <g id="patch_115">
    <path d="M 168.433043 36.5256 
L 169.888696 36.5256 
L 169.888696 36.5256 
L 168.433043 36.5256 
z
" clip-path="url(#pbd79ca0a87)" style="fill: #267655"/>
   </g>
   <g id="patch_116">
    <path d="M 169.888696 36.5256 
L 171.344348 36.5256 
L 171.344348 36.5256 
L 169.888696 36.5256 
z
" clip-path="url(#pbd79ca0a87)" style="fill: #267655"/>
   </g>
   <g id="patch_117">
    <path d="M 171.344348 36.5256 
L 172.8 36.5256 
L 172.8 36.5256 
L 171.344348 36.5256 
z
" clip-path="url(#pbd79ca0a87)" style="fill: #267655"/>
   </g>
   <g id="patch_118">
    <path d="M 172.8 36.5256 
L 174.255652 36.5256 
L 174.255652 36.5256 
L 172.8 36.5256 
z
" clip-path="url(#pbd79ca0a87)" style="fill: #267655"/>
   </g>
   <g id="patch_119">
    <path d="M 174.255652 36.5256 
L 175.711304 36.5256 
L 175.711304 36.5256 
L 174.255652 36.5256 
z
" clip-path="url(#pbd79ca0a87)" style="fill: #267655"/>
   </g>
   <g id="patch_120">
    <path d="M 175.711304 36.5256 
L 177.166957 36.5256 
L 177.166957 36.5256 
L 175.711304 36.5256 
z
" clip-path="url(#pbd79ca0a87)" style="fill: #267655"/>
   </g>
   <g id="patch_121">
    <path d="M 177.166957 36.5256 
L 178.622609 36.5256 
L 178.622609 36.5256 
L 177.166957 36.5256 
z
" clip-path="url(#pbd79ca0a87)" style="fill: #267655"/>
   </g>
   <g id="patch_122">
    <path d="M 178.622609 36.5256 
L 180.078261 36.5256 
L 180.078261 36.5256 
L 178.622609 36.5256 
z
" clip-path="url(#pbd79ca0a87)" style="fill: #267655"/>
   </g>
   <g id="patch_123">
    <path d="M 180.078261 36.5256 
L 181.533913 36.5256 
L 181.533913 36.5256 
L 180.078261 36.5256 
z
" clip-path="url(#pbd79ca0a87)" style="fill: #267655"/>
   </g>
   <g id="patch_124">
    <path d="M 181.533913 36.5256 
L 182.989565 36.5256 
L 182.989565 36.5256 
L 181.533913 36.5256 
z
" clip-path="url(#pbd79ca0a87)" style="fill: #267655"/>
   </g>
   <g id="patch_125">
    <path d="M 182.989565 36.5256 
L 184.445217 36.5256 
L 184.445217 36.5256 
L 182.989565 36.5256 
z
" clip-path="url(#pbd79ca0a87)" style="fill: #267655"/>
   </g>
   <g id="patch_126">
    <path d="M 184.445217 36.5256 
L 185.90087 36.5256 
L 185.90087 36.5256 
L 184.445217 36.5256 
z
" clip-path="url(#pbd79ca0a87)" style="fill: #267655"/>
   </g>
   <g id="patch_127">
    <path d="M 185.90087 36.5256 
L 187.356522 36.5256 
L 187.356522 36.5256 
L 185.90087 36.5256 
z
" clip-path="url(#pbd79ca0a87)" style="fill: #267655"/>
   </g>
   <g id="patch_128">
    <path d="M 187.356522 36.5256 
L 188.812174 36.5256 
L 188.812174 36.5256 
L 187.356522 36.5256 
z
" clip-path="url(#pbd79ca0a87)" style="fill: #267655"/>
   </g>
   <g id="patch_129">
    <path d="M 188.812174 36.5256 
L 190.267826 36.5256 
L 190.267826 36.5256 
L 188.812174 36.5256 
z
" clip-path="url(#pbd79ca0a87)" style="fill: #267655"/>
   </g>
   <g id="patch_130">
    <path d="M 190.267826 36.5256 
L 191.723478 36.5256 
L 191.723478 36.5256 
L 190.267826 36.5256 
z
" clip-path="url(#pbd79ca0a87)" style="fill: #267655"/>
   </g>
   <g id="patch_131">
    <path d="M 191.723478 36.5256 
L 193.17913 36.5256 
L 193.17913 36.5256 
L 191.723478 36.5256 
z
" clip-path="url(#pbd79ca0a87)" style="fill: #267655"/>
   </g>
   <g id="patch_132">
    <path d="M 193.17913 36.5256 
L 194.634783 36.5256 
L 194.634783 36.5256 
L 193.17913 36.5256 
z
" clip-path="url(#pbd79ca0a87)" style="fill: #267655"/>
   </g>
   <g id="patch_133">
    <path d="M 194.634783 36.5256 
L 196.090435 36.5256 
L 196.090435 36.5256 
L 194.634783 36.5256 
z
" clip-path="url(#pbd79ca0a87)" style="fill: #267655"/>
   </g>
   <g id="patch_134">
    <path d="M 196.090435 36.5256 
L 197.546087 36.5256 
L 197.546087 36.5256 
L 196.090435 36.5256 
z
" clip-path="url(#pbd79ca0a87)" style="fill: #267655"/>
   </g>
   <g id="patch_135">
    <path d="M 197.546087 36.5256 
L 199.001739 36.5256 
L 199.001739 36.5256 
L 197.546087 36.5256 
z
" clip-path="url(#pbd79ca0a87)" style="fill: #267655"/>
   </g>
   <g id="patch_136">
    <path d="M 199.001739 36.5256 
L 200.457391 36.5256 
L 200.457391 36.5256 
L 199.001739 36.5256 
z
" clip-path="url(#pbd79ca0a87)" style="fill: #267655"/>
   </g>
   <g id="patch_137">
    <path d="M 200.457391 36.5256 
L 201.913043 36.5256 
L 201.913043 36.5256 
L 200.457391 36.5256 
z
" clip-path="url(#pbd79ca0a87)" style="fill: #267655"/>
   </g>
   <g id="patch_138">
    <path d="M 201.913043 36.5256 
L 203.368696 36.5256 
L 203.368696 36.5256 
L 201.913043 36.5256 
z
" clip-path="url(#pbd79ca0a87)" style="fill: #267655"/>
   </g>
   <g id="patch_139">
    <path d="M 203.368696 36.5256 
L 204.824348 36.5256 
L 204.824348 36.5256 
L 203.368696 36.5256 
z
" clip-path="url(#pbd79ca0a87)" style="fill: #267655"/>
   </g>
   <g id="patch_140">
    <path d="M 204.824348 36.5256 
L 206.28 36.5256 
L 206.28 36.5256 
L 204.824348 36.5256 
z
" clip-path="url(#pbd79ca0a87)" style="fill: #267655"/>
   </g>
   <g id="patch_141">
    <path d="M 206.28 36.5256 
L 207.735652 36.5256 
L 207.735652 36.5256 
L 206.28 36.5256 
z
" clip-path="url(#pbd79ca0a87)" style="fill: #267655"/>
   </g>
   <g id="patch_142">
    <path d="M 207.735652 36.5256 
L 209.191304 36.5256 
L 209.191304 36.5256 
L 207.735652 36.5256 
z
" clip-path="url(#pbd79ca0a87)" style="fill: #267655"/>
   </g>
   <g id="patch_143">
    <path d="M 209.191304 36.5256 
L 210.646957 36.5256 
L 210.646957 36.5256 
L 209.191304 36.5256 
z
" clip-path="url(#pbd79ca0a87)" style="fill: #267655"/>
   </g>
   <g id="patch_144">
    <path d="M 210.646957 36.5256 
L 212.102609 36.5256 
L 212.102609 36.5256 
L 210.646957 36.5256 
z
" clip-path="url(#pbd79ca0a87)" style="fill: #267655"/>
   </g>
   <g id="patch_145">
    <path d="M 212.102609 36.5256 
L 213.558261 36.5256 
L 213.558261 36.5256 
L 212.102609 36.5256 
z
" clip-path="url(#pbd79ca0a87)" style="fill: #267655"/>
   </g>
   <g id="patch_146">
    <path d="M 213.558261 36.5256 
L 215.013913 36.5256 
L 215.013913 36.5256 
L 213.558261 36.5256 
z
" clip-path="url(#pbd79ca0a87)" style="fill: #267655"/>
   </g>
   <g id="patch_147">
    <path d="M 215.013913 36.5256 
L 216.469565 36.5256 
L 216.469565 36.5256 
L 215.013913 36.5256 
z
" clip-path="url(#pbd79ca0a87)" style="fill: #267655"/>
   </g>
   <g id="patch_148">
    <path d="M 216.469565 36.5256 
L 217.925217 36.5256 
L 217.925217 36.5256 
L 216.469565 36.5256 
z
" clip-path="url(#pbd79ca0a87)" style="fill: #267655"/>
   </g>
   <g id="patch_149">
    <path d="M 217.925217 36.5256 
L 219.38087 36.5256 
L 219.38087 36.5256 
L 217.925217 36.5256 
z
" clip-path="url(#pbd79ca0a87)" style="fill: #267655"/>
   </g>
   <g id="patch_150">
    <path d="M 219.38087 36.5256 
L 220.836522 36.5256 
L 220.836522 36.5256 
L 219.38087 36.5256 
z
" clip-path="url(#pbd79ca0a87)" style="fill: #267655"/>
   </g>
   <g id="patch_151">
    <path d="M 220.836522 36.5256 
L 222.292174 36.5256 
L 222.292174 36.5256 
L 220.836522 36.5256 
z
" clip-path="url(#pbd79ca0a87)" style="fill: #267655"/>
   </g>
   <g id="patch_152">
    <path d="M 222.292174 36.5256 
L 223.747826 36.5256 
L 223.747826 36.5256 
L 222.292174 36.5256 
z
" clip-path="url(#pbd79ca0a87)" style="fill: #267655"/>
   </g>
   <g id="patch_153">
    <path d="M 223.747826 36.5256 
L 225.203478 36.5256 
L 225.203478 36.5256 
L 223.747826 36.5256 
z
" clip-path="url(#pbd79ca0a87)" style="fill: #267655"/>
   </g>
   <g id="patch_154">
    <path d="M 225.203478 36.5256 
L 226.65913 36.5256 
L 226.65913 36.5256 
L 225.203478 36.5256 
z
" clip-path="url(#pbd79ca0a87)" style="fill: #267655"/>
   </g>
   <g id="patch_155">
    <path d="M 226.65913 36.5256 
L 228.114783 36.5256 
L 228.114783 36.5256 
L 226.65913 36.5256 
z
" clip-path="url(#pbd79ca0a87)" style="fill: #267655"/>
   </g>
   <g id="patch_156">
    <path d="M 228.114783 36.5256 
L 229.570435 36.5256 
L 229.570435 36.5256 
L 228.114783 36.5256 
z
" clip-path="url(#pbd79ca0a87)" style="fill: #267655"/>
   </g>
   <g id="patch_157">
    <path d="M 229.570435 36.5256 
L 231.026087 36.5256 
L 231.026087 36.5256 
L 229.570435 36.5256 
z
" clip-path="url(#pbd79ca0a87)" style="fill: #267655"/>
   </g>
   <g id="patch_158">
    <path d="M 231.026087 36.5256 
L 232.481739 36.5256 
L 232.481739 36.196425 
L 231.026087 36.196425 
z
" clip-path="url(#pbd79ca0a87)" style="fill: #267655"/>
   </g>
   <g id="patch_159">
    <path d="M 232.481739 36.5256 
L 233.937391 36.5256 
L 233.937391 36.196425 
L 232.481739 36.196425 
z
" clip-path="url(#pbd79ca0a87)" style="fill: #267655"/>
   </g>
   <g id="patch_160">
    <path d="M 233.937391 36.5256 
L 235.393043 36.5256 
L 235.393043 35.86725 
L 233.937391 35.86725 
z
" clip-path="url(#pbd79ca0a87)" style="fill: #267655"/>
   </g>
   <g id="patch_161">
    <path d="M 235.393043 36.5256 
L 236.848696 36.5256 
L 236.848696 36.196425 
L 235.393043 36.196425 
z
" clip-path="url(#pbd79ca0a87)" style="fill: #267655"/>
   </g>
   <g id="patch_162">
    <path d="M 236.848696 36.5256 
L 238.304348 36.5256 
L 238.304348 36.5256 
L 236.848696 36.5256 
z
" clip-path="url(#pbd79ca0a87)" style="fill: #267655"/>
   </g>
   <g id="patch_163">
    <path d="M 238.304348 36.5256 
L 239.76 36.5256 
L 239.76 36.5256 
L 238.304348 36.5256 
z
" clip-path="url(#pbd79ca0a87)" style="fill: #267655"/>
   </g>
   <g id="patch_164">
    <path d="M 239.76 36.5256 
L 241.215652 36.5256 
L 241.215652 36.196425 
L 239.76 36.196425 
z
" clip-path="url(#pbd79ca0a87)" style="fill: #267655"/>
   </g>
   <g id="patch_165">
    <path d="M 241.215652 36.5256 
L 242.671304 36.5256 
L 242.671304 36.196425 
L 241.215652 36.196425 
z
" clip-path="url(#pbd79ca0a87)" style="fill: #267655"/>
   </g>
   <g id="patch_166">
    <path d="M 242.671304 36.5256 
L 244.126957 36.5256 
L 244.126957 36.196425 
L 242.671304 36.196425 
z
" clip-path="url(#pbd79ca0a87)" style="fill: #267655"/>
   </g>
   <g id="patch_167">
    <path d="M 244.126957 36.5256 
L 245.582609 36.5256 
L 245.582609 36.5256 
L 244.126957 36.5256 
z
" clip-path="url(#pbd79ca0a87)" style="fill: #267655"/>
   </g>
   <g id="patch_168">
    <path d="M 245.582609 36.5256 
L 247.038261 36.5256 
L 247.038261 36.5256 
L 245.582609 36.5256 
z
" clip-path="url(#pbd79ca0a87)" style="fill: #267655"/>
   </g>
   <g id="patch_169">
    <path d="M 247.038261 36.5256 
L 248.493913 36.5256 
L 248.493913 36.5256 
L 247.038261 36.5256 
z
" clip-path="url(#pbd79ca0a87)" style="fill: #267655"/>
   </g>
   <g id="patch_170">
    <path d="M 248.493913 36.5256 
L 249.949565 36.5256 
L 249.949565 36.5256 
L 248.493913 36.5256 
z
" clip-path="url(#pbd79ca0a87)" style="fill: #267655"/>
   </g>
   <g id="patch_171">
    <path d="M 249.949565 36.5256 
L 251.405217 36.5256 
L 251.405217 36.5256 
L 249.949565 36.5256 
z
" clip-path="url(#pbd79ca0a87)" style="fill: #267655"/>
   </g>
   <g id="patch_172">
    <path d="M 251.405217 36.5256 
L 252.86087 36.5256 
L 252.86087 36.5256 
L 251.405217 36.5256 
z
" clip-path="url(#pbd79ca0a87)" style="fill: #267655"/>
   </g>
   <g id="patch_173">
    <path d="M 252.86087 36.5256 
L 254.316522 36.5256 
L 254.316522 36.5256 
L 252.86087 36.5256 
z
" clip-path="url(#pbd79ca0a87)" style="fill: #267655"/>
   </g>
   <g id="patch_174">
    <path d="M 254.316522 36.5256 
L 255.772174 36.5256 
L 255.772174 36.5256 
L 254.316522 36.5256 
z
" clip-path="url(#pbd79ca0a87)" style="fill: #267655"/>
   </g>
   <g id="patch_175">
    <path d="M 255.772174 36.5256 
L 257.227826 36.5256 
L 257.227826 36.196425 
L 255.772174 36.196425 
z
" clip-path="url(#pbd79ca0a87)" style="fill: #267655"/>
   </g>
   <g id="patch_176">
    <path d="M 257.227826 36.5256 
L 258.683478 36.5256 
L 258.683478 36.5256 
L 257.227826 36.5256 
z
" clip-path="url(#pbd79ca0a87)" style="fill: #267655"/>
   </g>
   <g id="patch_177">
    <path d="M 258.683478 36.5256 
L 260.13913 36.5256 
L 260.13913 36.5256 
L 258.683478 36.5256 
z
" clip-path="url(#pbd79ca0a87)" style="fill: #267655"/>
   </g>
   <g id="patch_178">
    <path d="M 260.13913 36.5256 
L 261.594783 36.5256 
L 261.594783 36.5256 
L 260.13913 36.5256 
z
" clip-path="url(#pbd79ca0a87)" style="fill: #267655"/>
   </g>
   <g id="patch_179">
    <path d="M 261.594783 36.5256 
L 263.050435 36.5256 
L 263.050435 36.5256 
L 261.594783 36.5256 
z
" clip-path="url(#pbd79ca0a87)" style="fill: #267655"/>
   </g>
   <g id="patch_180">
    <path d="M 263.050435 36.5256 
L 264.506087 36.5256 
L 264.506087 36.5256 
L 263.050435 36.5256 
z
" clip-path="url(#pbd79ca0a87)" style="fill: #267655"/>
   </g>
   <g id="patch_181">
    <path d="M 264.506087 36.5256 
L 265.961739 36.5256 
L 265.961739 36.5256 
L 264.506087 36.5256 
z
" clip-path="url(#pbd79ca0a87)" style="fill: #267655"/>
   </g>
   <g id="patch_182">
    <path d="M 265.961739 36.5256 
L 267.417391 36.5256 
L 267.417391 36.5256 
L 265.961739 36.5256 
z
" clip-path="url(#pbd79ca0a87)" style="fill: #267655"/>
   </g>
   <g id="patch_183">
    <path d="M 267.417391 36.5256 
L 268.873043 36.5256 
L 268.873043 36.5256 
L 267.417391 36.5256 
z
" clip-path="url(#pbd79ca0a87)" style="fill: #267655"/>
   </g>
   <g id="patch_184">
    <path d="M 268.873043 36.5256 
L 270.328696 36.5256 
L 270.328696 36.5256 
L 268.873043 36.5256 
z
" clip-path="url(#pbd79ca0a87)" style="fill: #267655"/>
   </g>
   <g id="patch_185">
    <path d="M 270.328696 36.5256 
L 271.784348 36.5256 
L 271.784348 36.5256 
L 270.328696 36.5256 
z
" clip-path="url(#pbd79ca0a87)" style="fill: #267655"/>
   </g>
   <g id="patch_186">
    <path d="M 271.784348 36.5256 
L 273.24 36.5256 
L 273.24 36.5256 
L 271.784348 36.5256 
z
" clip-path="url(#pbd79ca0a87)" style="fill: #267655"/>
   </g>
   <g id="patch_187">
    <path d="M 273.24 36.5256 
L 274.695652 36.5256 
L 274.695652 36.5256 
L 273.24 36.5256 
z
" clip-path="url(#pbd79ca0a87)" style="fill: #267655"/>
   </g>
   <g id="patch_188">
    <path d="M 274.695652 36.5256 
L 276.151304 36.5256 
L 276.151304 36.5256 
L 274.695652 36.5256 
z
" clip-path="url(#pbd79ca0a87)" style="fill: #267655"/>
   </g>
   <g id="patch_189">
    <path d="M 276.151304 36.5256 
L 277.606957 36.5256 
L 277.606957 36.5256 
L 276.151304 36.5256 
z
" clip-path="url(#pbd79ca0a87)" style="fill: #267655"/>
   </g>
   <g id="patch_190">
    <path d="M 277.606957 36.5256 
L 279.062609 36.5256 
L 279.062609 36.5256 
L 277.606957 36.5256 
z
" clip-path="url(#pbd79ca0a87)" style="fill: #267655"/>
   </g>
   <g id="patch_191">
    <path d="M 279.062609 36.5256 
L 280.518261 36.5256 
L 280.518261 36.5256 
L 279.062609 36.5256 
z
" clip-path="url(#pbd79ca0a87)" style="fill: #267655"/>
   </g>
   <g id="patch_192">
    <path d="M 280.518261 36.5256 
L 281.973913 36.5256 
L 281.973913 36.5256 
L 280.518261 36.5256 
z
" clip-path="url(#pbd79ca0a87)" style="fill: #267655"/>
   </g>
   <g id="patch_193">
    <path d="M 281.973913 36.5256 
L 283.429565 36.5256 
L 283.429565 36.5256 
L 281.973913 36.5256 
z
" clip-path="url(#pbd79ca0a87)" style="fill: #267655"/>
   </g>
   <g id="patch_194">
    <path d="M 283.429565 36.5256 
L 284.885217 36.5256 
L 284.885217 36.5256 
L 283.429565 36.5256 
z
" clip-path="url(#pbd79ca0a87)" style="fill: #267655"/>
   </g>
   <g id="patch_195">
    <path d="M 284.885217 36.5256 
L 286.34087 36.5256 
L 286.34087 36.5256 
L 284.885217 36.5256 
z
" clip-path="url(#pbd79ca0a87)" style="fill: #267655"/>
   </g>
   <g id="patch_196">
    <path d="M 286.34087 36.5256 
L 287.796522 36.5256 
L 287.796522 36.196425 
L 286.34087 36.196425 
z
" clip-path="url(#pbd79ca0a87)" style="fill: #267655"/>
   </g>
   <g id="matplotlib.axis_1">
    <g id="xtick_1">
     <g id="line2d_1">
      <defs>
       <path id="mf0461c1a7a" d="M 0 0 
L 0 1.7 
" style="stroke: #000000; stroke-width: 0.25"/>
      </defs>
      <g>
       <use xlink:href="#mf0461c1a7a" x="6.127826" y="37.5256" style="stroke: #000000; stroke-width: 0.25"/>
      </g>
     </g>
     <g id="text_1">
      <text style="font-size: 4.5px; font-family: 'Arial'; text-anchor: middle" x="6.127826" y="43.946616" transform="rotate(-0 6.127826 43.946616)">0</text>
     </g>
    </g>
    <g id="xtick_2">
     <g id="line2d_2">
      <g>
       <use xlink:href="#mf0461c1a7a" x="20.684348" y="37.5256" style="stroke: #000000; stroke-width: 0.25"/>
      </g>
     </g>
     <g id="text_2">
      <text style="font-size: 4.5px; font-family: 'Arial'; text-anchor: middle" x="20.684348" y="43.946616" transform="rotate(-0 20.684348 43.946616)">10</text>
     </g>
    </g>
    <g id="xtick_3">
     <g id="line2d_3">
      <g>
       <use xlink:href="#mf0461c1a7a" x="35.24087" y="37.5256" style="stroke: #000000; stroke-width: 0.25"/>
      </g>
     </g>
     <g id="text_3">
      <text style="font-size: 4.5px; font-family: 'Arial'; text-anchor: middle" x="35.24087" y="43.946616" transform="rotate(-0 35.24087 43.946616)">20</text>
     </g>
    </g>
    <g id="text_4">
     <text style="font-size: 6px; font-family: 'Arial'; text-anchor: middle" x="22.14" y="50.635678" transform="rotate(-0 22.14 50.635678)"># MNs active</text>
    </g>
   </g>
   <g id="matplotlib.axis_2">
    <g id="ytick_1">
     <g id="line2d_4">
      <defs>
       <path id="m0db1b08d2f" d="M 0 0 
L -1.7 0 
" style="stroke: #000000; stroke-width: 0.25"/>
      </defs>
      <g>
       <use xlink:href="#m0db1b08d2f" x="4.4" y="36.5256" style="stroke: #000000; stroke-width: 0.25"/>
      </g>
     </g>
     <g id="text_5">
      <text style="font-size: 4.5px; font-family: 'Arial'; text-anchor: end" x="1.2" y="38.136108" transform="rotate(-0 1.2 38.136108)">0</text>
     </g>
    </g>
    <g id="ytick_2">
     <g id="line2d_5">
      <g>
       <use xlink:href="#m0db1b08d2f" x="4.4" y="29.9421" style="stroke: #000000; stroke-width: 0.25"/>
      </g>
     </g>
     <g id="text_6">
      <text style="font-size: 4.5px; font-family: 'Arial'; text-anchor: end" x="1.2" y="31.552608" transform="rotate(-0 1.2 31.552608)">20</text>
     </g>
    </g>
    <g id="ytick_3">
     <g id="line2d_6">
      <g>
       <use xlink:href="#m0db1b08d2f" x="4.4" y="23.3586" style="stroke: #000000; stroke-width: 0.25"/>
      </g>
     </g>
     <g id="text_7">
      <text style="font-size: 4.5px; font-family: 'Arial'; text-anchor: end" x="1.2" y="24.969108" transform="rotate(-0 1.2 24.969108)">40</text>
     </g>
    </g>
    <g id="ytick_4">
     <g id="line2d_7">
      <g>
       <use xlink:href="#m0db1b08d2f" x="4.4" y="16.7751" style="stroke: #000000; stroke-width: 0.25"/>
      </g>
     </g>
     <g id="text_8">
      <text style="font-size: 4.5px; font-family: 'Arial'; text-anchor: end" x="1.2" y="18.385608" transform="rotate(-0 1.2 18.385608)">60</text>
     </g>
    </g>
    <g id="ytick_5">
     <g id="line2d_8">
      <g>
       <use xlink:href="#m0db1b08d2f" x="4.4" y="10.1916" style="stroke: #000000; stroke-width: 0.25"/>
      </g>
     </g>
     <g id="text_9">
      <text style="font-size: 4.5px; font-family: 'Arial'; text-anchor: end" x="1.2" y="11.802108" transform="rotate(-0 1.2 11.802108)">80</text>
     </g>
    </g>
    <g id="text_10">
     <text style="font-size: 6px; font-family: 'Arial'; text-anchor: middle" x="-6.497344" y="20.7252" transform="rotate(-90 -6.497344 20.7252)"># replicates</text>
    </g>
   </g>
   <g id="patch_197">
    <path d="M 4.4 36.5256 
L 4.4 4.9248 
" style="fill: none; stroke: #000000; stroke-width: 0.25; stroke-linejoin: miter; stroke-linecap: square"/>
   </g>
   <g id="patch_198">
    <path d="M 5.4 37.5256 
L 38.88 37.5256 
" style="fill: none; stroke: #000000; stroke-width: 0.25; stroke-linejoin: miter; stroke-linecap: square"/>
   </g>
   <g id="text_11">
    <text style="font-weight: 700; font-size: 7px; font-family: 'Arial'; text-anchor: middle" x="22.14" y="-1.0752" transform="rotate(-0 22.14 -1.0752)">all legs</text>
   </g>
  </g>
 </g>
 <defs>
  <clipPath id="pbd79ca0a87">
   <rect x="5.4" y="4.9248" width="33.48" height="31.6008"/>
  </clipPath>
 </defs>
</svg>
