<?xml version="1.0" encoding="utf-8" standalone="no"?>
<!DOCTYPE svg PUBLIC "-//W3C//DTD SVG 1.1//EN"
  "http://www.w3.org/Graphics/SVG/1.1/DTD/svg11.dtd">
<svg xmlns:xlink="http://www.w3.org/1999/xlink" width="50.4pt" height="50.4pt" viewBox="0 0 50.4 50.4" xmlns="http://www.w3.org/2000/svg" version="1.1">
 <metadata>
  <rdf:RDF xmlns:dc="http://purl.org/dc/elements/1.1/" xmlns:cc="http://creativecommons.org/ns#" xmlns:rdf="http://www.w3.org/1999/02/22-rdf-syntax-ns#">
   <cc:Work>
    <dc:type rdf:resource="http://purl.org/dc/dcmitype/StillImage"/>
    <dc:date>2025-09-10T00:49:15.701888</dc:date>
    <dc:format>image/svg+xml</dc:format>
    <dc:creator>
     <cc:Agent>
      <dc:title>Matplotlib v3.10.3, https://matplotlib.org/</dc:title>
     </cc:Agent>
    </dc:creator>
   </cc:Work>
  </rdf:RDF>
 </metadata>
 <defs>
  <style type="text/css">*{stroke-linejoin: round; stroke-linecap: butt}</style>
 </defs>
 <g id="figure_1">
  <g id="patch_1">
   <path d="M 0 50.4 
L 50.4 50.4 
L 50.4 0 
L 0 0 
L 0 50.4 
z
" style="fill: none"/>
  </g>
  <g id="axes_1">
   <g id="patch_2">
    <path d="M 6.3 44.856 
L 45.36 44.856 
L 45.36 6.048 
L 6.3 6.048 
L 6.3 44.856 
z
" style="fill: none"/>
   </g>
   <g id="patch_3">
    <path d="M 6.3 44.856 
L 8.82 44.856 
L 8.82 44.780203 
L 6.3 44.780203 
z
" clip-path="url(#p6414a85c2f)" style="fill: #d84a2e"/>
   </g>
   <g id="patch_4">
    <path d="M 8.82 44.856 
L 11.34 44.856 
L 11.34 44.856 
L 8.82 44.856 
z
" clip-path="url(#p6414a85c2f)" style="fill: #d84a2e"/>
   </g>
   <g id="patch_5">
    <path d="M 11.34 44.856 
L 13.86 44.856 
L 13.86 44.856 
L 11.34 44.856 
z
" clip-path="url(#p6414a85c2f)" style="fill: #d84a2e"/>
   </g>
   <g id="patch_6">
    <path d="M 13.86 44.856 
L 16.38 44.856 
L 16.38 33.865453 
L 13.86 33.865453 
z
" clip-path="url(#p6414a85c2f)" style="fill: #d84a2e"/>
   </g>
   <g id="patch_7">
    <path d="M 16.38 44.856 
L 18.9 44.856 
L 18.9 22.079039 
L 16.38 22.079039 
z
" clip-path="url(#p6414a85c2f)" style="fill: #d84a2e"/>
   </g>
   <g id="patch_8">
    <path d="M 18.9 44.856 
L 21.42 44.856 
L 21.42 42.468398 
L 18.9 42.468398 
z
" clip-path="url(#p6414a85c2f)" style="fill: #d84a2e"/>
   </g>
   <g id="patch_9">
    <path d="M 21.42 44.856 
L 23.94 44.856 
L 23.94 43.908539 
L 21.42 43.908539 
z
" clip-path="url(#p6414a85c2f)" style="fill: #d84a2e"/>
   </g>
   <g id="patch_10">
    <path d="M 23.94 44.856 
L 26.46 44.856 
L 26.46 44.325422 
L 23.94 44.325422 
z
" clip-path="url(#p6414a85c2f)" style="fill: #d84a2e"/>
   </g>
   <g id="patch_11">
    <path d="M 26.46 44.856 
L 28.98 44.856 
L 28.98 44.514914 
L 26.46 44.514914 
z
" clip-path="url(#p6414a85c2f)" style="fill: #d84a2e"/>
   </g>
   <g id="patch_12">
    <path d="M 28.98 44.856 
L 31.5 44.856 
L 31.5 44.780203 
L 28.98 44.780203 
z
" clip-path="url(#p6414a85c2f)" style="fill: #d84a2e"/>
   </g>
   <g id="patch_13">
    <path d="M 31.5 44.856 
L 34.02 44.856 
L 34.02 44.818102 
L 31.5 44.818102 
z
" clip-path="url(#p6414a85c2f)" style="fill: #d84a2e"/>
   </g>
   <g id="patch_14">
    <path d="M 34.02 44.856 
L 36.54 44.856 
L 36.54 44.856 
L 34.02 44.856 
z
" clip-path="url(#p6414a85c2f)" style="fill: #d84a2e"/>
   </g>
   <g id="patch_15">
    <path d="M 36.54 44.856 
L 39.06 44.856 
L 39.06 44.818102 
L 36.54 44.818102 
z
" clip-path="url(#p6414a85c2f)" style="fill: #d84a2e"/>
   </g>
   <g id="patch_16">
    <path d="M 39.06 44.856 
L 41.58 44.856 
L 41.58 44.780203 
L 39.06 44.780203 
z
" clip-path="url(#p6414a85c2f)" style="fill: #d84a2e"/>
   </g>
   <g id="patch_17">
    <path d="M 41.58 44.856 
L 44.1 44.856 
L 44.1 44.856 
L 41.58 44.856 
z
" clip-path="url(#p6414a85c2f)" style="fill: #d84a2e"/>
   </g>
   <g id="patch_18">
    <path d="M 44.1 44.856 
L 46.62 44.856 
L 46.62 44.856 
L 44.1 44.856 
z
" clip-path="url(#p6414a85c2f)" style="fill: #d84a2e"/>
   </g>
   <g id="patch_19">
    <path d="M 46.62 44.856 
L 49.14 44.856 
L 49.14 44.856 
L 46.62 44.856 
z
" clip-path="url(#p6414a85c2f)" style="fill: #d84a2e"/>
   </g>
   <g id="patch_20">
    <path d="M 49.14 44.856 
L 51.66 44.856 
L 51.66 44.856 
L 49.14 44.856 
z
" clip-path="url(#p6414a85c2f)" style="fill: #d84a2e"/>
   </g>
   <g id="patch_21">
    <path d="M 51.66 44.856 
L 54.18 44.856 
L 54.18 44.856 
L 51.66 44.856 
z
" clip-path="url(#p6414a85c2f)" style="fill: #d84a2e"/>
   </g>
   <g id="patch_22">
    <path d="M 54.18 44.856 
L 56.7 44.856 
L 56.7 44.818102 
L 54.18 44.818102 
z
" clip-path="url(#p6414a85c2f)" style="fill: #d84a2e"/>
   </g>
   <g id="patch_23">
    <path d="M 56.7 44.856 
L 59.22 44.856 
L 59.22 44.818102 
L 56.7 44.818102 
z
" clip-path="url(#p6414a85c2f)" style="fill: #d84a2e"/>
   </g>
   <g id="patch_24">
    <path d="M 59.22 44.856 
L 61.74 44.856 
L 61.74 44.818102 
L 59.22 44.818102 
z
" clip-path="url(#p6414a85c2f)" style="fill: #d84a2e"/>
   </g>
   <g id="patch_25">
    <path d="M 61.74 44.856 
L 64.26 44.856 
L 64.26 44.856 
L 61.74 44.856 
z
" clip-path="url(#p6414a85c2f)" style="fill: #d84a2e"/>
   </g>
   <g id="patch_26">
    <path d="M 64.26 44.856 
L 66.78 44.856 
L 66.78 44.856 
L 64.26 44.856 
z
" clip-path="url(#p6414a85c2f)" style="fill: #d84a2e"/>
   </g>
   <g id="patch_27">
    <path d="M 66.78 44.856 
L 69.3 44.856 
L 69.3 44.856 
L 66.78 44.856 
z
" clip-path="url(#p6414a85c2f)" style="fill: #d84a2e"/>
   </g>
   <g id="patch_28">
    <path d="M 69.3 44.856 
L 71.82 44.856 
L 71.82 44.856 
L 69.3 44.856 
z
" clip-path="url(#p6414a85c2f)" style="fill: #d84a2e"/>
   </g>
   <g id="patch_29">
    <path d="M 71.82 44.856 
L 74.34 44.856 
L 74.34 44.856 
L 71.82 44.856 
z
" clip-path="url(#p6414a85c2f)" style="fill: #d84a2e"/>
   </g>
   <g id="patch_30">
    <path d="M 74.34 44.856 
L 76.86 44.856 
L 76.86 44.818102 
L 74.34 44.818102 
z
" clip-path="url(#p6414a85c2f)" style="fill: #d84a2e"/>
   </g>
   <g id="patch_31">
    <path d="M 76.86 44.856 
L 79.38 44.856 
L 79.38 44.780203 
L 76.86 44.780203 
z
" clip-path="url(#p6414a85c2f)" style="fill: #d84a2e"/>
   </g>
   <g id="patch_32">
    <path d="M 79.38 44.856 
L 81.9 44.856 
L 81.9 44.856 
L 79.38 44.856 
z
" clip-path="url(#p6414a85c2f)" style="fill: #d84a2e"/>
   </g>
   <g id="patch_33">
    <path d="M 81.9 44.856 
L 84.42 44.856 
L 84.42 44.856 
L 81.9 44.856 
z
" clip-path="url(#p6414a85c2f)" style="fill: #d84a2e"/>
   </g>
   <g id="patch_34">
    <path d="M 84.42 44.856 
L 86.94 44.856 
L 86.94 44.856 
L 84.42 44.856 
z
" clip-path="url(#p6414a85c2f)" style="fill: #d84a2e"/>
   </g>
   <g id="patch_35">
    <path d="M 86.94 44.856 
L 89.46 44.856 
L 89.46 44.818102 
L 86.94 44.818102 
z
" clip-path="url(#p6414a85c2f)" style="fill: #d84a2e"/>
   </g>
   <g id="patch_36">
    <path d="M 89.46 44.856 
L 91.98 44.856 
L 91.98 44.818102 
L 89.46 44.818102 
z
" clip-path="url(#p6414a85c2f)" style="fill: #d84a2e"/>
   </g>
   <g id="patch_37">
    <path d="M 91.98 44.856 
L 94.5 44.856 
L 94.5 44.856 
L 91.98 44.856 
z
" clip-path="url(#p6414a85c2f)" style="fill: #d84a2e"/>
   </g>
   <g id="patch_38">
    <path d="M 94.5 44.856 
L 97.02 44.856 
L 97.02 44.856 
L 94.5 44.856 
z
" clip-path="url(#p6414a85c2f)" style="fill: #d84a2e"/>
   </g>
   <g id="patch_39">
    <path d="M 97.02 44.856 
L 99.54 44.856 
L 99.54 44.856 
L 97.02 44.856 
z
" clip-path="url(#p6414a85c2f)" style="fill: #d84a2e"/>
   </g>
   <g id="patch_40">
    <path d="M 99.54 44.856 
L 102.06 44.856 
L 102.06 44.856 
L 99.54 44.856 
z
" clip-path="url(#p6414a85c2f)" style="fill: #d84a2e"/>
   </g>
   <g id="patch_41">
    <path d="M 102.06 44.856 
L 104.58 44.856 
L 104.58 44.856 
L 102.06 44.856 
z
" clip-path="url(#p6414a85c2f)" style="fill: #d84a2e"/>
   </g>
   <g id="patch_42">
    <path d="M 104.58 44.856 
L 107.1 44.856 
L 107.1 44.856 
L 104.58 44.856 
z
" clip-path="url(#p6414a85c2f)" style="fill: #d84a2e"/>
   </g>
   <g id="patch_43">
    <path d="M 107.1 44.856 
L 109.62 44.856 
L 109.62 44.856 
L 107.1 44.856 
z
" clip-path="url(#p6414a85c2f)" style="fill: #d84a2e"/>
   </g>
   <g id="patch_44">
    <path d="M 109.62 44.856 
L 112.14 44.856 
L 112.14 44.856 
L 109.62 44.856 
z
" clip-path="url(#p6414a85c2f)" style="fill: #d84a2e"/>
   </g>
   <g id="patch_45">
    <path d="M 112.14 44.856 
L 114.66 44.856 
L 114.66 44.856 
L 112.14 44.856 
z
" clip-path="url(#p6414a85c2f)" style="fill: #d84a2e"/>
   </g>
   <g id="patch_46">
    <path d="M 114.66 44.856 
L 117.18 44.856 
L 117.18 44.856 
L 114.66 44.856 
z
" clip-path="url(#p6414a85c2f)" style="fill: #d84a2e"/>
   </g>
   <g id="patch_47">
    <path d="M 117.18 44.856 
L 119.7 44.856 
L 119.7 44.856 
L 117.18 44.856 
z
" clip-path="url(#p6414a85c2f)" style="fill: #d84a2e"/>
   </g>
   <g id="patch_48">
    <path d="M 119.7 44.856 
L 122.22 44.856 
L 122.22 44.856 
L 119.7 44.856 
z
" clip-path="url(#p6414a85c2f)" style="fill: #d84a2e"/>
   </g>
   <g id="patch_49">
    <path d="M 122.22 44.856 
L 124.74 44.856 
L 124.74 44.856 
L 122.22 44.856 
z
" clip-path="url(#p6414a85c2f)" style="fill: #d84a2e"/>
   </g>
   <g id="patch_50">
    <path d="M 124.74 44.856 
L 127.26 44.856 
L 127.26 44.856 
L 124.74 44.856 
z
" clip-path="url(#p6414a85c2f)" style="fill: #d84a2e"/>
   </g>
   <g id="patch_51">
    <path d="M 127.26 44.856 
L 129.78 44.856 
L 129.78 44.818102 
L 127.26 44.818102 
z
" clip-path="url(#p6414a85c2f)" style="fill: #d84a2e"/>
   </g>
   <g id="patch_52">
    <path d="M 129.78 44.856 
L 132.3 44.856 
L 132.3 44.856 
L 129.78 44.856 
z
" clip-path="url(#p6414a85c2f)" style="fill: #d84a2e"/>
   </g>
   <g id="patch_53">
    <path d="M 132.3 44.856 
L 134.82 44.856 
L 134.82 44.818102 
L 132.3 44.818102 
z
" clip-path="url(#p6414a85c2f)" style="fill: #d84a2e"/>
   </g>
   <g id="patch_54">
    <path d="M 134.82 44.856 
L 137.34 44.856 
L 137.34 44.856 
L 134.82 44.856 
z
" clip-path="url(#p6414a85c2f)" style="fill: #d84a2e"/>
   </g>
   <g id="patch_55">
    <path d="M 137.34 44.856 
L 139.86 44.856 
L 139.86 44.856 
L 137.34 44.856 
z
" clip-path="url(#p6414a85c2f)" style="fill: #d84a2e"/>
   </g>
   <g id="patch_56">
    <path d="M 139.86 44.856 
L 142.38 44.856 
L 142.38 44.856 
L 139.86 44.856 
z
" clip-path="url(#p6414a85c2f)" style="fill: #d84a2e"/>
   </g>
   <g id="patch_57">
    <path d="M 142.38 44.856 
L 144.9 44.856 
L 144.9 44.856 
L 142.38 44.856 
z
" clip-path="url(#p6414a85c2f)" style="fill: #d84a2e"/>
   </g>
   <g id="patch_58">
    <path d="M 144.9 44.856 
L 147.42 44.856 
L 147.42 44.856 
L 144.9 44.856 
z
" clip-path="url(#p6414a85c2f)" style="fill: #d84a2e"/>
   </g>
   <g id="patch_59">
    <path d="M 147.42 44.856 
L 149.94 44.856 
L 149.94 44.856 
L 147.42 44.856 
z
" clip-path="url(#p6414a85c2f)" style="fill: #d84a2e"/>
   </g>
   <g id="patch_60">
    <path d="M 149.94 44.856 
L 152.46 44.856 
L 152.46 44.856 
L 149.94 44.856 
z
" clip-path="url(#p6414a85c2f)" style="fill: #d84a2e"/>
   </g>
   <g id="patch_61">
    <path d="M 152.46 44.856 
L 154.98 44.856 
L 154.98 44.856 
L 152.46 44.856 
z
" clip-path="url(#p6414a85c2f)" style="fill: #d84a2e"/>
   </g>
   <g id="patch_62">
    <path d="M 154.98 44.856 
L 157.5 44.856 
L 157.5 44.818102 
L 154.98 44.818102 
z
" clip-path="url(#p6414a85c2f)" style="fill: #d84a2e"/>
   </g>
   <g id="patch_63">
    <path d="M 157.5 44.856 
L 160.02 44.856 
L 160.02 44.818102 
L 157.5 44.818102 
z
" clip-path="url(#p6414a85c2f)" style="fill: #d84a2e"/>
   </g>
   <g id="patch_64">
    <path d="M 160.02 44.856 
L 162.54 44.856 
L 162.54 44.856 
L 160.02 44.856 
z
" clip-path="url(#p6414a85c2f)" style="fill: #d84a2e"/>
   </g>
   <g id="patch_65">
    <path d="M 162.54 44.856 
L 165.06 44.856 
L 165.06 44.856 
L 162.54 44.856 
z
" clip-path="url(#p6414a85c2f)" style="fill: #d84a2e"/>
   </g>
   <g id="patch_66">
    <path d="M 165.06 44.856 
L 167.58 44.856 
L 167.58 44.856 
L 165.06 44.856 
z
" clip-path="url(#p6414a85c2f)" style="fill: #d84a2e"/>
   </g>
   <g id="patch_67">
    <path d="M 167.58 44.856 
L 170.1 44.856 
L 170.1 44.856 
L 167.58 44.856 
z
" clip-path="url(#p6414a85c2f)" style="fill: #d84a2e"/>
   </g>
   <g id="patch_68">
    <path d="M 170.1 44.856 
L 172.62 44.856 
L 172.62 44.856 
L 170.1 44.856 
z
" clip-path="url(#p6414a85c2f)" style="fill: #d84a2e"/>
   </g>
   <g id="patch_69">
    <path d="M 172.62 44.856 
L 175.14 44.856 
L 175.14 44.856 
L 172.62 44.856 
z
" clip-path="url(#p6414a85c2f)" style="fill: #d84a2e"/>
   </g>
   <g id="patch_70">
    <path d="M 175.14 44.856 
L 177.66 44.856 
L 177.66 44.856 
L 175.14 44.856 
z
" clip-path="url(#p6414a85c2f)" style="fill: #d84a2e"/>
   </g>
   <g id="patch_71">
    <path d="M 177.66 44.856 
L 180.18 44.856 
L 180.18 44.856 
L 177.66 44.856 
z
" clip-path="url(#p6414a85c2f)" style="fill: #d84a2e"/>
   </g>
   <g id="patch_72">
    <path d="M 180.18 44.856 
L 182.7 44.856 
L 182.7 44.856 
L 180.18 44.856 
z
" clip-path="url(#p6414a85c2f)" style="fill: #d84a2e"/>
   </g>
   <g id="patch_73">
    <path d="M 182.7 44.856 
L 185.22 44.856 
L 185.22 44.856 
L 182.7 44.856 
z
" clip-path="url(#p6414a85c2f)" style="fill: #d84a2e"/>
   </g>
   <g id="patch_74">
    <path d="M 185.22 44.856 
L 187.74 44.856 
L 187.74 44.856 
L 185.22 44.856 
z
" clip-path="url(#p6414a85c2f)" style="fill: #d84a2e"/>
   </g>
   <g id="patch_75">
    <path d="M 187.74 44.856 
L 190.26 44.856 
L 190.26 44.856 
L 187.74 44.856 
z
" clip-path="url(#p6414a85c2f)" style="fill: #d84a2e"/>
   </g>
   <g id="patch_76">
    <path d="M 190.26 44.856 
L 192.78 44.856 
L 192.78 44.818102 
L 190.26 44.818102 
z
" clip-path="url(#p6414a85c2f)" style="fill: #d84a2e"/>
   </g>
   <g id="patch_77">
    <path d="M 192.78 44.856 
L 195.3 44.856 
L 195.3 44.856 
L 192.78 44.856 
z
" clip-path="url(#p6414a85c2f)" style="fill: #d84a2e"/>
   </g>
   <g id="patch_78">
    <path d="M 195.3 44.856 
L 197.82 44.856 
L 197.82 44.856 
L 195.3 44.856 
z
" clip-path="url(#p6414a85c2f)" style="fill: #d84a2e"/>
   </g>
   <g id="patch_79">
    <path d="M 197.82 44.856 
L 200.34 44.856 
L 200.34 44.856 
L 197.82 44.856 
z
" clip-path="url(#p6414a85c2f)" style="fill: #d84a2e"/>
   </g>
   <g id="patch_80">
    <path d="M 200.34 44.856 
L 202.86 44.856 
L 202.86 44.856 
L 200.34 44.856 
z
" clip-path="url(#p6414a85c2f)" style="fill: #d84a2e"/>
   </g>
   <g id="patch_81">
    <path d="M 202.86 44.856 
L 205.38 44.856 
L 205.38 44.856 
L 202.86 44.856 
z
" clip-path="url(#p6414a85c2f)" style="fill: #d84a2e"/>
   </g>
   <g id="patch_82">
    <path d="M 205.38 44.856 
L 207.9 44.856 
L 207.9 44.856 
L 205.38 44.856 
z
" clip-path="url(#p6414a85c2f)" style="fill: #d84a2e"/>
   </g>
   <g id="patch_83">
    <path d="M 207.9 44.856 
L 210.42 44.856 
L 210.42 44.856 
L 207.9 44.856 
z
" clip-path="url(#p6414a85c2f)" style="fill: #d84a2e"/>
   </g>
   <g id="patch_84">
    <path d="M 210.42 44.856 
L 212.94 44.856 
L 212.94 44.856 
L 210.42 44.856 
z
" clip-path="url(#p6414a85c2f)" style="fill: #d84a2e"/>
   </g>
   <g id="patch_85">
    <path d="M 212.94 44.856 
L 215.46 44.856 
L 215.46 44.856 
L 212.94 44.856 
z
" clip-path="url(#p6414a85c2f)" style="fill: #d84a2e"/>
   </g>
   <g id="patch_86">
    <path d="M 215.46 44.856 
L 217.98 44.856 
L 217.98 44.856 
L 215.46 44.856 
z
" clip-path="url(#p6414a85c2f)" style="fill: #d84a2e"/>
   </g>
   <g id="patch_87">
    <path d="M 217.98 44.856 
L 220.5 44.856 
L 220.5 44.856 
L 217.98 44.856 
z
" clip-path="url(#p6414a85c2f)" style="fill: #d84a2e"/>
   </g>
   <g id="patch_88">
    <path d="M 220.5 44.856 
L 223.02 44.856 
L 223.02 44.856 
L 220.5 44.856 
z
" clip-path="url(#p6414a85c2f)" style="fill: #d84a2e"/>
   </g>
   <g id="patch_89">
    <path d="M 223.02 44.856 
L 225.54 44.856 
L 225.54 44.856 
L 223.02 44.856 
z
" clip-path="url(#p6414a85c2f)" style="fill: #d84a2e"/>
   </g>
   <g id="patch_90">
    <path d="M 225.54 44.856 
L 228.06 44.856 
L 228.06 44.856 
L 225.54 44.856 
z
" clip-path="url(#p6414a85c2f)" style="fill: #d84a2e"/>
   </g>
   <g id="patch_91">
    <path d="M 228.06 44.856 
L 230.58 44.856 
L 230.58 44.818102 
L 228.06 44.818102 
z
" clip-path="url(#p6414a85c2f)" style="fill: #d84a2e"/>
   </g>
   <g id="matplotlib.axis_1">
    <g id="xtick_1">
     <g id="line2d_1">
      <defs>
       <path id="m0026bd095a" d="M 0 0 
L 0 1.7 
" style="stroke: #000000; stroke-width: 0.25"/>
      </defs>
      <g>
       <use xlink:href="#m0026bd095a" x="7.56" y="45.856" style="stroke: #000000; stroke-width: 0.25"/>
      </g>
     </g>
     <g id="text_1">
      <text style="font-size: 6px; font-family: 'Arial'; text-anchor: middle" x="7.56" y="53.350687" transform="rotate(-0 7.56 53.350687)">0</text>
     </g>
    </g>
    <g id="xtick_2">
     <g id="line2d_2">
      <g>
       <use xlink:href="#m0026bd095a" x="20.16" y="45.856" style="stroke: #000000; stroke-width: 0.25"/>
      </g>
     </g>
     <g id="text_2">
      <text style="font-size: 6px; font-family: 'Arial'; text-anchor: middle" x="20.16" y="53.350687" transform="rotate(-0 20.16 53.350687)">5</text>
     </g>
    </g>
    <g id="xtick_3">
     <g id="line2d_3">
      <g>
       <use xlink:href="#m0026bd095a" x="32.76" y="45.856" style="stroke: #000000; stroke-width: 0.25"/>
      </g>
     </g>
     <g id="text_3">
      <text style="font-size: 6px; font-family: 'Arial'; text-anchor: middle" x="32.76" y="53.350687" transform="rotate(-0 32.76 53.350687)">10</text>
     </g>
    </g>
    <g id="xtick_4">
     <g id="line2d_4">
      <g>
       <use xlink:href="#m0026bd095a" x="45.36" y="45.856" style="stroke: #000000; stroke-width: 0.25"/>
      </g>
     </g>
     <g id="text_4">
      <text style="font-size: 6px; font-family: 'Arial'; text-anchor: middle" x="45.36" y="53.350687" transform="rotate(-0 45.36 53.350687)">15</text>
     </g>
    </g>
    <g id="text_5">
     <text style="font-size: 8px; font-family: 'Arial'; text-anchor: middle" x="25.83" y="61.769437" transform="rotate(-0 25.83 61.769437)"># interneurons</text>
    </g>
   </g>
   <g id="matplotlib.axis_2">
    <g id="ytick_1">
     <g id="line2d_5">
      <defs>
       <path id="md7c0d71433" d="M 0 0 
L -1.7 0 
" style="stroke: #000000; stroke-width: 0.25"/>
      </defs>
      <g>
       <use xlink:href="#md7c0d71433" x="5.3" y="44.856" style="stroke: #000000; stroke-width: 0.25"/>
      </g>
     </g>
     <g id="text_6">
      <text style="font-size: 6px; font-family: 'Arial'; text-anchor: end" x="2.1" y="47.003344" transform="rotate(-0 2.1 47.003344)">0</text>
     </g>
    </g>
    <g id="ytick_2">
     <g id="line2d_6">
      <g>
       <use xlink:href="#md7c0d71433" x="5.3" y="25.452" style="stroke: #000000; stroke-width: 0.25"/>
      </g>
     </g>
     <g id="text_7">
      <text style="font-size: 6px; font-family: 'Arial'; text-anchor: end" x="2.1" y="27.599344" transform="rotate(-0 2.1 27.599344)">50</text>
     </g>
    </g>
    <g id="ytick_3">
     <g id="line2d_7">
      <g>
       <use xlink:href="#md7c0d71433" x="5.3" y="6.048" style="stroke: #000000; stroke-width: 0.25"/>
      </g>
     </g>
     <g id="text_8">
      <text style="font-size: 6px; font-family: 'Arial'; text-anchor: end" x="2.1" y="8.195344" transform="rotate(-0 2.1 8.195344)">100</text>
     </g>
    </g>
    <g id="text_9">
     <text style="font-size: 8px; font-family: 'Arial'; text-anchor: middle" x="-10.999687" y="25.452" transform="rotate(-90 -10.999687 25.452)">% of runs</text>
    </g>
   </g>
   <g id="patch_92">
    <path d="M 5.3 44.856 
L 5.3 6.048 
" style="fill: none; stroke: #000000; stroke-width: 0.25; stroke-linejoin: miter; stroke-linecap: square"/>
   </g>
   <g id="patch_93">
    <path d="M 6.3 45.856 
L 45.36 45.856 
" style="fill: none; stroke: #000000; stroke-width: 0.25; stroke-linejoin: miter; stroke-linecap: square"/>
   </g>
  </g>
 </g>
 <defs>
  <clipPath id="p6414a85c2f">
   <rect x="6.3" y="6.048" width="39.06" height="38.808"/>
  </clipPath>
 </defs>
</svg>
