<?xml version="1.0" encoding="utf-8" standalone="no"?>
<!DOCTYPE svg PUBLIC "-//W3C//DTD SVG 1.1//EN"
  "http://www.w3.org/Graphics/SVG/1.1/DTD/svg11.dtd">
<svg xmlns:xlink="http://www.w3.org/1999/xlink" width="43.2pt" height="41.04pt" viewBox="0 0 43.2 41.04" xmlns="http://www.w3.org/2000/svg" version="1.1">
 <metadata>
  <rdf:RDF xmlns:dc="http://purl.org/dc/elements/1.1/" xmlns:cc="http://creativecommons.org/ns#" xmlns:rdf="http://www.w3.org/1999/02/22-rdf-syntax-ns#">
   <cc:Work>
    <dc:type rdf:resource="http://purl.org/dc/dcmitype/StillImage"/>
    <dc:date>2025-08-28T16:18:55.130832</dc:date>
    <dc:format>image/svg+xml</dc:format>
    <dc:creator>
     <cc:Agent>
      <dc:title>Matplotlib v3.10.3, https://matplotlib.org/</dc:title>
     </cc:Agent>
    </dc:creator>
   </cc:Work>
  </rdf:RDF>
 </metadata>
 <defs>
  <style type="text/css">*{stroke-linejoin: round; stroke-linecap: butt}</style>
 </defs>
 <g id="figure_1">
  <g id="patch_1">
   <path d="M 0 41.04 
L 43.2 41.04 
L 43.2 0 
L 0 0 
L 0 41.04 
z
" style="fill: none"/>
  </g>
  <g id="axes_1">
   <g id="patch_2">
    <path d="M 5.4 36.5256 
L 38.88 36.5256 
L 38.88 4.9248 
L 5.4 4.9248 
L 5.4 36.5256 
z
" style="fill: none"/>
   </g>
   <g id="patch_3">
    <path d="M 5.4 36.5256 
L 8.443636 36.5256 
L 8.443636 36.46388 
L 5.4 36.46388 
z
" clip-path="url(#p02063fc2f0)" style="fill: #267655"/>
   </g>
   <g id="patch_4">
    <path d="M 8.443636 36.5256 
L 11.487273 36.5256 
L 11.487273 36.5256 
L 8.443636 36.5256 
z
" clip-path="url(#p02063fc2f0)" style="fill: #267655"/>
   </g>
   <g id="patch_5">
    <path d="M 11.487273 36.5256 
L 14.530909 36.5256 
L 14.530909 36.5256 
L 11.487273 36.5256 
z
" clip-path="url(#p02063fc2f0)" style="fill: #267655"/>
   </g>
   <g id="patch_6">
    <path d="M 14.530909 36.5256 
L 17.574545 36.5256 
L 17.574545 36.5256 
L 14.530909 36.5256 
z
" clip-path="url(#p02063fc2f0)" style="fill: #267655"/>
   </g>
   <g id="patch_7">
    <path d="M 17.574545 36.5256 
L 20.618182 36.5256 
L 20.618182 36.5256 
L 17.574545 36.5256 
z
" clip-path="url(#p02063fc2f0)" style="fill: #267655"/>
   </g>
   <g id="patch_8">
    <path d="M 20.618182 36.5256 
L 23.661818 36.5256 
L 23.661818 36.5256 
L 20.618182 36.5256 
z
" clip-path="url(#p02063fc2f0)" style="fill: #267655"/>
   </g>
   <g id="patch_9">
    <path d="M 23.661818 36.5256 
L 26.705455 36.5256 
L 26.705455 36.46388 
L 23.661818 36.46388 
z
" clip-path="url(#p02063fc2f0)" style="fill: #267655"/>
   </g>
   <g id="patch_10">
    <path d="M 26.705455 36.5256 
L 29.749091 36.5256 
L 29.749091 36.278719 
L 26.705455 36.278719 
z
" clip-path="url(#p02063fc2f0)" style="fill: #267655"/>
   </g>
   <g id="patch_11">
    <path d="M 29.749091 36.5256 
L 32.792727 36.5256 
L 32.792727 34.920872 
L 29.749091 34.920872 
z
" clip-path="url(#p02063fc2f0)" style="fill: #267655"/>
   </g>
   <g id="patch_12">
    <path d="M 32.792727 36.5256 
L 35.836364 36.5256 
L 35.836364 9.522963 
L 32.792727 9.522963 
z
" clip-path="url(#p02063fc2f0)" style="fill: #267655"/>
   </g>
   <g id="patch_13">
    <path d="M 35.836364 36.5256 
L 38.88 36.5256 
L 38.88 33.902487 
L 35.836364 33.902487 
z
" clip-path="url(#p02063fc2f0)" style="fill: #267655"/>
   </g>
   <g id="patch_14">
    <path d="M 38.88 36.5256 
L 41.923636 36.5256 
L 41.923636 36.5256 
L 38.88 36.5256 
z
" clip-path="url(#p02063fc2f0)" style="fill: #267655"/>
   </g>
   <g id="patch_15">
    <path d="M 41.923636 36.5256 
L 44.967273 36.5256 
L 44.967273 36.5256 
L 41.923636 36.5256 
z
" clip-path="url(#p02063fc2f0)" style="fill: #267655"/>
   </g>
   <g id="patch_16">
    <path d="M 44.967273 36.5256 
L 48.010909 36.5256 
L 48.010909 36.5256 
L 44.967273 36.5256 
z
" clip-path="url(#p02063fc2f0)" style="fill: #267655"/>
   </g>
   <g id="matplotlib.axis_1">
    <g id="xtick_1">
     <g id="line2d_1">
      <defs>
       <path id="m30563f421f" d="M 0 0 
L 0 1.7 
" style="stroke: #000000; stroke-width: 0.25"/>
      </defs>
      <g>
       <use xlink:href="#m30563f421f" x="5.4" y="37.5256" style="stroke: #000000; stroke-width: 0.25"/>
      </g>
     </g>
     <g id="text_1">
      <text style="font-size: 6px; font-family: 'Arial'; text-anchor: middle" x="5.4" y="45.020288" transform="rotate(-0 5.4 45.020288)">0.0</text>
     </g>
    </g>
    <g id="xtick_2">
     <g id="line2d_2">
      <g>
       <use xlink:href="#m30563f421f" x="20.618182" y="37.5256" style="stroke: #000000; stroke-width: 0.25"/>
      </g>
     </g>
     <g id="text_2">
      <text style="font-size: 6px; font-family: 'Arial'; text-anchor: middle" x="20.618182" y="45.020288" transform="rotate(-0 20.618182 45.020288)">0.5</text>
     </g>
    </g>
    <g id="xtick_3">
     <g id="line2d_3">
      <g>
       <use xlink:href="#m30563f421f" x="35.836364" y="37.5256" style="stroke: #000000; stroke-width: 0.25"/>
      </g>
     </g>
     <g id="text_3">
      <text style="font-size: 6px; font-family: 'Arial'; text-anchor: middle" x="35.836364" y="45.020288" transform="rotate(-0 35.836364 45.020288)">1.0</text>
     </g>
    </g>
    <g id="text_4">
     <text style="font-size: 8px; font-family: 'Arial'; text-anchor: middle" x="22.14" y="53.439037" transform="rotate(-0 22.14 53.439037)">motor rhythmicity score</text>
    </g>
   </g>
   <g id="matplotlib.axis_2">
    <g id="ytick_1">
     <g id="line2d_4">
      <defs>
       <path id="m1d911633ed" d="M 0 0 
L -1.7 0 
" style="stroke: #000000; stroke-width: 0.25"/>
      </defs>
      <g>
       <use xlink:href="#m1d911633ed" x="4.4" y="36.5256" style="stroke: #000000; stroke-width: 0.25"/>
      </g>
     </g>
     <g id="text_5">
      <text style="font-size: 6px; font-family: 'Arial'; text-anchor: end" x="1.2" y="38.672944" transform="rotate(-0 1.2 38.672944)">0</text>
     </g>
    </g>
    <g id="ytick_2">
     <g id="line2d_5">
      <g>
       <use xlink:href="#m1d911633ed" x="4.4" y="21.095522" style="stroke: #000000; stroke-width: 0.25"/>
      </g>
     </g>
     <g id="text_6">
      <text style="font-size: 6px; font-family: 'Arial'; text-anchor: end" x="1.2" y="23.242866" transform="rotate(-0 1.2 23.242866)">500</text>
     </g>
    </g>
    <g id="ytick_3">
     <g id="line2d_6">
      <g>
       <use xlink:href="#m1d911633ed" x="4.4" y="5.665444" style="stroke: #000000; stroke-width: 0.25"/>
      </g>
     </g>
     <g id="text_7">
      <text style="font-size: 6px; font-family: 'Arial'; text-anchor: end" x="1.2" y="7.812787" transform="rotate(-0 1.2 7.812787)">1000</text>
     </g>
    </g>
    <g id="text_8">
     <text style="font-size: 8px; font-family: 'Arial'; text-anchor: middle" x="-15.23625" y="20.7252" transform="rotate(-90 -15.23625 20.7252)"># replicates</text>
    </g>
   </g>
   <g id="patch_17">
    <path d="M 4.4 36.5256 
L 4.4 4.9248 
" style="fill: none; stroke: #000000; stroke-width: 0.25; stroke-linejoin: miter; stroke-linecap: square"/>
   </g>
   <g id="patch_18">
    <path d="M 5.4 37.5256 
L 38.88 37.5256 
" style="fill: none; stroke: #000000; stroke-width: 0.25; stroke-linejoin: miter; stroke-linecap: square"/>
   </g>
  </g>
 </g>
 <defs>
  <clipPath id="p02063fc2f0">
   <rect x="5.4" y="4.9248" width="33.48" height="31.6008"/>
  </clipPath>
 </defs>
</svg>
