<?xml version="1.0" encoding="utf-8" standalone="no"?>
<!DOCTYPE svg PUBLIC "-//W3C//DTD SVG 1.1//EN"
  "http://www.w3.org/Graphics/SVG/1.1/DTD/svg11.dtd">
<svg xmlns:xlink="http://www.w3.org/1999/xlink" width="117.072pt" height="52.9632pt" viewBox="0 0 117.072 52.9632" xmlns="http://www.w3.org/2000/svg" version="1.1">
 <metadata>
  <rdf:RDF xmlns:dc="http://purl.org/dc/elements/1.1/" xmlns:cc="http://creativecommons.org/ns#" xmlns:rdf="http://www.w3.org/1999/02/22-rdf-syntax-ns#">
   <cc:Work>
    <dc:type rdf:resource="http://purl.org/dc/dcmitype/StillImage"/>
    <dc:date>2025-08-29T11:50:16.677865</dc:date>
    <dc:format>image/svg+xml</dc:format>
    <dc:creator>
     <cc:Agent>
      <dc:title>Matplotlib v3.10.3, https://matplotlib.org/</dc:title>
     </cc:Agent>
    </dc:creator>
   </cc:Work>
  </rdf:RDF>
 </metadata>
 <defs>
  <style type="text/css">*{stroke-linejoin: round; stroke-linecap: butt}</style>
 </defs>
 <g id="figure_1">
  <g id="patch_1">
   <path d="M 0 52.9632 
L 117.072 52.9632 
L 117.072 0 
L 0 0 
L 0 52.9632 
z
" style="fill: none"/>
  </g>
  <g id="axes_1">
   <g id="patch_2">
    <path d="M 14.634 47.137248 
L 105.3648 47.137248 
L 105.3648 6.355584 
L 14.634 6.355584 
L 14.634 47.137248 
z
" style="fill: none"/>
   </g>
   <g id="matplotlib.axis_1">
    <g id="xtick_1">
     <g id="line2d_1">
      <defs>
       <path id="m8540fbe955" d="M 0 0 
L 0 1.7 
" style="stroke: #000000; stroke-width: 0.25"/>
      </defs>
      <g>
       <use xlink:href="#m8540fbe955" x="18.758127" y="47.137248" style="stroke: #000000; stroke-width: 0.25"/>
      </g>
     </g>
     <g id="text_1">
      <text style="font-size: 6px; font-family: 'Arial'; text-anchor: middle" x="18.758127" y="54.631936" transform="rotate(-0 18.758127 54.631936)">0.0</text>
     </g>
    </g>
    <g id="xtick_2">
     <g id="line2d_2">
      <g>
       <use xlink:href="#m8540fbe955" x="46.178893" y="47.137248" style="stroke: #000000; stroke-width: 0.25"/>
      </g>
     </g>
     <g id="text_2">
      <text style="font-size: 6px; font-family: 'Arial'; text-anchor: middle" x="46.178893" y="54.631936" transform="rotate(-0 46.178893 54.631936)">0.25</text>
     </g>
    </g>
    <g id="xtick_3">
     <g id="line2d_3">
      <g>
       <use xlink:href="#m8540fbe955" x="73.599659" y="47.137248" style="stroke: #000000; stroke-width: 0.25"/>
      </g>
     </g>
     <g id="text_3">
      <text style="font-size: 6px; font-family: 'Arial'; text-anchor: middle" x="73.599659" y="54.631936" transform="rotate(-0 73.599659 54.631936)">0.5</text>
     </g>
    </g>
    <g id="xtick_4">
     <g id="line2d_4">
      <g>
       <use xlink:href="#m8540fbe955" x="101.020426" y="47.137248" style="stroke: #000000; stroke-width: 0.25"/>
      </g>
     </g>
     <g id="text_4">
      <text style="font-size: 6px; font-family: 'Arial'; text-anchor: middle" x="101.020426" y="54.631936" transform="rotate(-0 101.020426 54.631936)">0.75</text>
     </g>
    </g>
    <g id="text_5">
     <text style="font-size: 8px; font-family: 'Arial'; text-anchor: middle" x="59.9994" y="63.148186" transform="rotate(-0 59.9994 63.148186)">time (s)</text>
    </g>
   </g>
   <g id="matplotlib.axis_2">
    <g id="ytick_1">
     <g id="line2d_5">
      <defs>
       <path id="md778854980" d="M 0 0 
L -1.7 0 
" style="stroke: #000000; stroke-width: 0.25"/>
      </defs>
      <g>
       <use xlink:href="#md778854980" x="14.634" y="45.283536" style="stroke: #000000; stroke-width: 0.25"/>
      </g>
     </g>
     <g id="text_6">
      <text style="font-size: 6px; font-family: 'Arial'; text-anchor: end" x="11.434" y="47.43088" transform="rotate(-0 11.434 47.43088)">0</text>
     </g>
    </g>
    <g id="ytick_2">
     <g id="line2d_6">
      <g>
       <use xlink:href="#md778854980" x="14.634" y="28.448996" style="stroke: #000000; stroke-width: 0.25"/>
      </g>
     </g>
     <g id="text_7">
      <text style="font-size: 6px; font-family: 'Arial'; text-anchor: end" x="11.434" y="30.59634" transform="rotate(-0 11.434 30.59634)">5</text>
     </g>
    </g>
    <g id="text_8">
     <text style="font-size: 8px; font-family: 'Arial'; text-anchor: middle" x="4.913687" y="26.746416" transform="rotate(-90 4.913687 26.746416)">firing rate (Hz)</text>
    </g>
   </g>
   <g id="line2d_7">
    <path d="M 18.758127 21.041799 
L 25.03517 21.018404 
L 25.255417 20.548919 
L 25.585788 18.793696 
L 26.907271 9.486365 
L 27.127518 9.382857 
L 27.347765 9.724436 
L 27.678136 10.777818 
L 28.889495 15.300116 
L 29.66036 17.105608 
L 30.431224 18.343366 
L 31.202089 19.191897 
L 32.083078 19.840195 
L 33.07419 20.302276 
L 34.395673 20.654657 
L 34.836167 20.71636 
L 35.056414 20.334669 
L 35.386785 18.674538 
L 35.937402 13.969734 
L 36.48802 9.544688 
L 36.818391 8.284994 
L 36.928514 8.209296 
L 37.148762 8.560954 
L 37.479132 9.925835 
L 38.249997 13.415042 
L 39.020862 15.813314 
L 39.791727 17.457427 
L 40.562592 18.584553 
L 41.44358 19.44569 
L 42.324569 20.005048 
L 43.425804 20.437236 
L 44.857411 20.741927 
L 45.518152 20.731462 
L 45.738399 20.119938 
L 46.06877 18.138498 
L 47.280129 8.88556 
L 47.500376 8.511763 
L 47.6105 8.592222 
L 47.830747 9.191765 
L 49.4826 15.656013 
L 50.253465 17.349594 
L 51.02433 18.510623 
L 51.795195 19.306562 
L 52.676183 19.914676 
L 53.777419 20.384537 
L 55.098902 20.69772 
L 56.090014 20.788374 
L 56.310261 20.2888 
L 56.640631 18.45255 
L 57.962114 8.709264 
L 58.182361 8.561002 
L 58.402608 9.06283 
L 58.953226 11.634309 
L 59.724091 14.592536 
L 60.494956 16.620533 
L 61.265821 18.010819 
L 62.036686 18.963922 
L 62.917674 19.692113 
L 63.908786 20.211142 
L 65.120145 20.582849 
L 66.661875 20.813307 
L 66.882122 20.415766 
L 67.212493 18.717083 
L 67.873234 13.053391 
L 68.423852 9.198376 
L 68.644099 8.580624 
L 68.754223 8.535716 
L 68.97447 8.941479 
L 69.304841 10.369798 
L 70.075706 13.725629 
L 70.846571 16.026231 
L 71.617435 17.603393 
L 72.3883 18.684617 
L 73.269289 19.510691 
L 74.260401 20.099483 
L 75.361636 20.492305 
L 76.903366 20.783552 
L 77.34386 20.748344 
L 77.564108 20.150757 
L 77.894478 18.187266 
L 79.105837 8.91862 
L 79.326085 8.530036 
L 79.436208 8.602738 
L 79.656455 9.190599 
L 81.308309 15.650654 
L 82.079174 17.345928 
L 82.850038 18.508106 
L 83.620903 19.304838 
L 84.501892 19.913552 
L 85.603127 20.383885 
L 86.92461 20.697378 
L 87.915722 20.78971 
L 88.135969 20.294383 
L 88.46634 18.46366 
L 89.787823 8.712427 
L 90.00807 8.558793 
L 90.228317 9.056581 
L 90.778935 11.625999 
L 91.5498 14.586833 
L 92.320664 16.616631 
L 93.091529 18.008141 
L 93.862394 18.96209 
L 94.743383 19.690924 
L 95.734495 20.21041 
L 96.945854 20.582444 
L 98.487584 20.813967 
L 98.707831 20.420678 
L 99.038202 18.727775 
L 99.698943 13.067034 
L 100.249561 9.204756 
L 100.469808 8.582012 
L 100.579931 8.534477 
L 100.800178 8.935911 
L 101.130549 10.360464 
L 101.240673 10.921276 
L 101.240673 10.921276 
" clip-path="url(#p390b4217a9)" style="fill: none; stroke: #b33b24; stroke-width: 0.75; stroke-linecap: square"/>
   </g>
   <g id="line2d_8">
    <path d="M 18.758127 27.102232 
L 24.594676 27.065995 
L 24.814923 26.769682 
L 25.145294 25.679415 
L 25.475664 23.724123 
L 26.026282 18.742536 
L 26.797147 11.554957 
L 27.127518 10.083158 
L 27.347765 9.673331 
L 27.568012 9.6117 
L 27.788259 9.815129 
L 28.11863 10.474979 
L 28.669248 12.139594 
L 31.53246 21.658566 
L 32.303325 23.249456 
L 33.07419 24.375411 
L 33.845055 25.171785 
L 34.175425 25.260092 
L 34.395673 25.093031 
L 34.726043 24.408919 
L 35.056414 23.038993 
L 35.496908 19.922583 
L 36.48802 11.893319 
L 36.708267 11.241525 
L 36.818391 11.179991 
L 36.928514 11.296207 
L 37.148762 12.004713 
L 38.910739 20.11049 
L 39.681603 22.153797 
L 40.452468 23.599953 
L 41.223333 24.623477 
L 42.104322 25.432407 
L 43.095434 26.031543 
L 44.306793 26.48027 
L 44.747287 26.547783 
L 44.967534 26.375076 
L 45.297905 25.678972 
L 45.628276 24.294561 
L 46.06877 21.169663 
L 47.059882 13.392225 
L 47.280129 12.798359 
L 47.390253 12.764567 
L 47.6105 13.224611 
L 48.050994 15.473009 
L 48.821859 18.87159 
L 49.592724 21.276955 
L 50.363589 22.979363 
L 51.134454 24.18425 
L 52.015442 25.136521 
L 52.89643 25.778019 
L 53.997666 26.294058 
L 55.209025 26.632765 
L 55.429272 26.596393 
L 55.649519 26.36178 
L 55.97989 25.539986 
L 56.310261 23.989605 
L 56.750755 20.659048 
L 57.631743 13.673136 
L 57.851991 12.956382 
L 57.962114 12.856981 
L 58.072238 12.936339 
L 58.292485 13.602621 
L 59.613968 19.567746 
L 60.384832 21.769663 
L 61.155697 23.328082 
L 61.926562 24.431057 
L 62.807551 25.30278 
L 63.798663 25.948427 
L 64.899898 26.39806 
L 65.89101 26.643918 
L 66.111258 26.54501 
L 66.331505 26.236106 
L 66.661875 25.269423 
L 66.992246 23.53691 
L 67.542864 19.019042 
L 68.203605 13.859056 
L 68.533976 12.871825 
L 68.644099 12.890699 
L 68.864346 13.448207 
L 70.5162 20.495748 
L 71.287065 22.42646 
L 72.05793 23.79293 
L 72.828795 24.760057 
L 73.709783 25.524413 
L 74.700895 26.090538 
L 75.912254 26.514538 
L 76.572996 26.632251 
L 76.793243 26.46793 
L 77.123613 25.784194 
L 77.453984 24.412798 
L 77.894478 21.303935 
L 78.88559 13.513164 
L 79.105837 12.905312 
L 79.215961 12.863968 
L 79.436208 13.308683 
L 79.876702 15.538416 
L 80.647567 18.917892 
L 81.418432 21.309713 
L 82.189297 23.002556 
L 82.960162 24.200663 
L 83.84115 25.147577 
L 84.722139 25.785469 
L 85.823375 26.298605 
L 87.034734 26.635404 
L 87.254981 26.600057 
L 87.475228 26.366778 
L 87.805599 25.547766 
L 88.135969 24.001084 
L 88.576463 20.67467 
L 89.457452 13.681462 
L 89.677699 12.959872 
L 89.787823 12.857813 
L 89.897946 12.934365 
L 90.118193 13.595782 
L 91.439676 19.562348 
L 92.210541 21.765842 
L 92.981406 23.325373 
L 93.752271 24.429148 
L 94.633259 25.301489 
L 95.624371 25.947598 
L 96.725607 26.397553 
L 97.716719 26.643926 
L 97.936966 26.546348 
L 98.157213 26.239058 
L 98.487584 25.275529 
L 98.817954 23.546865 
L 99.368572 19.032841 
L 100.029314 13.866984 
L 100.359684 12.872442 
L 100.469808 12.888818 
L 100.690055 13.44113 
L 101.240673 16.269353 
L 101.240673 16.269353 
" clip-path="url(#p390b4217a9)" style="fill: none; stroke: #b33b24; stroke-width: 0.75; stroke-linecap: square"/>
   </g>
   <g id="line2d_9">
    <path d="M 18.758127 33.162667 
L 33.184313 33.07663 
L 33.624808 32.741112 
L 34.395673 31.787935 
L 35.056414 31.113318 
L 35.386785 31.098756 
L 36.818391 32.041944 
L 38.02975 32.497713 
L 39.57148 32.820485 
L 41.773951 33.030214 
L 43.095434 33.002439 
L 43.535928 32.672802 
L 44.196669 31.866051 
L 45.518152 30.070466 
L 45.848523 29.955178 
L 46.06877 30.083562 
L 47.059882 31.150542 
L 48.050994 31.849961 
L 49.152229 32.345952 
L 50.583836 32.721965 
L 52.455936 32.965979 
L 53.667295 32.978117 
L 54.10779 32.676022 
L 54.768531 31.899961 
L 56.200137 30.029233 
L 56.530508 29.986428 
L 56.860879 30.323046 
L 57.741867 31.220069 
L 58.732979 31.895318 
L 59.834215 32.374172 
L 61.265821 32.737193 
L 63.248045 32.981576 
L 64.239157 32.994094 
L 64.679651 32.713781 
L 65.340393 31.956947 
L 66.882122 29.999874 
L 67.10237 29.980613 
L 67.322617 30.143847 
L 68.203605 31.097425 
L 69.194717 31.815307 
L 70.295953 32.324391 
L 71.617435 32.688348 
L 73.489536 32.950974 
L 74.811019 33.00654 
L 75.251513 32.746549 
L 75.912254 32.007256 
L 77.453984 30.017057 
L 77.784355 30.011001 
L 78.224849 30.502215 
L 79.105837 31.34264 
L 80.096949 31.975284 
L 81.308309 32.458161 
L 82.850038 32.800133 
L 84.942386 33.015515 
L 85.493004 32.981145 
L 85.933498 32.681694 
L 86.594239 31.908197 
L 88.025846 30.037082 
L 88.356216 29.992538 
L 88.686587 30.327373 
L 89.567576 31.223021 
L 90.558688 31.897247 
L 91.659923 32.375373 
L 93.091529 32.73784 
L 95.073753 32.981851 
L 96.064865 32.995095 
L 96.50536 32.715556 
L 97.166101 31.959313 
L 98.707831 30.000676 
L 98.928078 29.980318 
L 99.148325 30.142027 
L 100.029314 31.096141 
L 101.020426 31.814465 
L 101.240673 31.936543 
L 101.240673 31.936543 
" clip-path="url(#p390b4217a9)" style="fill: none; stroke: #492c6d; stroke-width: 0.75; stroke-linecap: square"/>
   </g>
   <g id="line2d_10">
    <path d="M 18.758127 39.223102 
L 25.916159 39.113198 
L 26.246529 38.838161 
L 33.514684 39.209106 
L 53.336925 39.2231 
L 101.240673 39.223102 
L 101.240673 39.223102 
" clip-path="url(#p390b4217a9)" style="fill: none; stroke: #6359ac; stroke-width: 0.75; stroke-linecap: square"/>
   </g>
   <g id="line2d_11">
    <path d="M 18.758127 45.283536 
L 35.937402 45.211547 
L 36.48802 44.644092 
L 38.139874 44.957596 
L 40.562592 45.162226 
L 44.857411 45.2625 
L 46.399141 45.263032 
L 46.619388 44.951707 
L 47.059882 44.176647 
L 47.720623 44.416807 
L 49.152229 44.80021 
L 51.02433 45.058344 
L 53.997666 45.216585 
L 57.081126 45.194119 
L 57.741867 44.164171 
L 58.953226 44.600647 
L 60.494956 44.919456 
L 62.697427 45.135292 
L 66.551752 45.252768 
L 67.652987 45.231494 
L 67.983358 44.61816 
L 68.313729 44.156887 
L 70.185829 44.755029 
L 72.05793 45.037293 
L 74.921142 45.206963 
L 78.224849 45.255212 
L 78.445096 44.946973 
L 78.88559 44.163755 
L 79.436208 44.363725 
L 80.757691 44.747041 
L 82.519668 45.022085 
L 85.272757 45.198498 
L 88.796711 45.263339 
L 89.016958 45.021961 
L 89.457452 44.185323 
L 89.677699 44.214814 
L 90.999182 44.660184 
L 92.651035 44.965798 
L 95.073753 45.165279 
L 99.368572 45.263029 
L 99.588819 45.089871 
L 100.139437 44.156963 
L 101.240673 44.559334 
L 101.240673 44.559334 
" clip-path="url(#p390b4217a9)" style="fill: none; stroke: #6359ac; stroke-width: 0.75; stroke-linecap: square"/>
   </g>
   <g id="LineCollection_1">
    <path d="M 14.634 45.283536 
L 14.634 39.223102 
" clip-path="url(#p390b4217a9)" style="fill: none; stroke: #000000; stroke-width: 1.5"/>
   </g>
   <g id="LineCollection_2">
    <path d="M 14.634 45.283536 
L 14.634 28.448996 
" clip-path="url(#p390b4217a9)" style="fill: none; stroke: #000000; stroke-width: 1.5"/>
   </g>
   <g id="patch_3">
    <path d="M 14.634 47.137248 
L 105.3648 47.137248 
" style="fill: none; stroke: #000000; stroke-width: 0.25; stroke-linejoin: miter; stroke-linecap: square"/>
   </g>
   <g id="legend_1">
    <g id="patch_4">
     <path d="M 269.220581 62.300897 
Q 270.620581 62.300897 270.620581 60.900897 
Q 270.620581 9.855584 269.220581 9.855584 
M 118.072 9.855584 
L 110.2648 9.855584 
Q 108.8648 9.855584 108.8648 11.255584 
L 108.8648 53.9632 
Q 108.8648 62.300897 110.2648 62.300897 
" style="fill: none; opacity: 0.8"/>
    </g>
    <g id="line2d_12">
     <path d="M 111.6648 15.301365 
L 118.072 15.301365 
" style="fill: none; stroke: #b33b24; stroke-width: 0.75; stroke-linecap: square"/>
    </g>
    <g id="text_9">
     <text style="font-size: 7px; font-family: 'Arial'; text-anchor: start" x="131.2648" y="17.751365" transform="rotate(-0 131.2648 17.751365)">L Tergopleural/Pleural promotor MN (19319)</text>
    </g>
    <g id="line2d_13">
     <path d="M 111.6648 25.370428 
L 118.072 25.370428 
" style="fill: none; stroke: #b33b24; stroke-width: 0.75; stroke-linecap: square"/>
    </g>
    <g id="text_10">
     <text style="font-size: 7px; font-family: 'Arial'; text-anchor: start" x="131.2648" y="27.820428" transform="rotate(-0 131.2648 27.820428)">L Tergopleural/Pleural promotor MN (12686)</text>
    </g>
    <g id="line2d_14">
     <path d="M 111.6648 35.43949 
L 118.072 35.43949 
" style="fill: none; stroke: #492c6d; stroke-width: 0.75; stroke-linecap: square"/>
    </g>
    <g id="text_11">
     <text style="font-size: 7px; font-family: 'Arial'; text-anchor: start" x="131.2648" y="37.88949" transform="rotate(-0 131.2648 37.88949)">L Pleural remotor/abductor MN (12096)</text>
    </g>
    <g id="line2d_15">
     <path d="M 111.6648 45.508553 
L 118.072 45.508553 
" style="fill: none; stroke: #6359ac; stroke-width: 0.75; stroke-linecap: square"/>
    </g>
    <g id="text_12">
     <text style="font-size: 7px; font-family: 'Arial'; text-anchor: start" x="131.2648" y="47.958553" transform="rotate(-0 131.2648 47.958553)">L Tr flexor MN (19771)</text>
    </g>
    <g id="line2d_16">
     <path style="fill: none; stroke: #6359ac; stroke-width: 0.75; stroke-linecap: square"/>
    </g>
    <g id="text_13">
     <text style="font-size: 7px; font-family: 'Arial'; text-anchor: start" x="131.2648" y="58.027615" transform="rotate(-0 131.2648 58.027615)">L Tr flexor MN (16963)</text>
    </g>
   </g>
  </g>
 </g>
 <defs>
  <clipPath id="p390b4217a9">
   <rect x="14.634" y="6.355584" width="90.7308" height="40.781664"/>
  </clipPath>
 </defs>
</svg>
