<?xml version="1.0" encoding="utf-8" standalone="no"?>
<!DOCTYPE svg PUBLIC "-//W3C//DTD SVG 1.1//EN"
  "http://www.w3.org/Graphics/SVG/1.1/DTD/svg11.dtd">
<svg xmlns:xlink="http://www.w3.org/1999/xlink" width="144pt" height="144pt" viewBox="0 0 144 144" xmlns="http://www.w3.org/2000/svg" version="1.1">
 <metadata>
  <rdf:RDF xmlns:dc="http://purl.org/dc/elements/1.1/" xmlns:cc="http://creativecommons.org/ns#" xmlns:rdf="http://www.w3.org/1999/02/22-rdf-syntax-ns#">
   <cc:Work>
    <dc:type rdf:resource="http://purl.org/dc/dcmitype/StillImage"/>
    <dc:date>2025-09-09T02:04:55.554985</dc:date>
    <dc:format>image/svg+xml</dc:format>
    <dc:creator>
     <cc:Agent>
      <dc:title>Matplotlib v3.10.3, https://matplotlib.org/</dc:title>
     </cc:Agent>
    </dc:creator>
   </cc:Work>
  </rdf:RDF>
 </metadata>
 <defs>
  <style type="text/css">*{stroke-linejoin: round; stroke-linecap: butt}</style>
 </defs>
 <g id="figure_1">
  <g id="patch_1">
   <path d="M 0 144 
L 144 144 
L 144 0 
L 0 0 
L 0 144 
z
" style="fill: none"/>
  </g>
  <g id="axes_1">
   <g id="patch_2">
    <path d="M 18 128.16 
L 129.6 128.16 
L 129.6 17.28 
L 18 17.28 
L 18 128.16 
z
" style="fill: none"/>
   </g>
   <g id="FillBetweenPolyCollection_1">
    <path d="M 22.791514 123.12 
L 22.7742 123.12 
L 22.775438 122.101818 
L 22.778186 121.083636 
L 22.780697 120.065455 
L 22.782124 119.047273 
L 22.782674 118.029091 
L 22.782824 117.010909 
L 22.782853 115.992727 
L 22.782857 114.974545 
L 22.782857 113.956364 
L 22.782857 112.938182 
L 22.782857 111.92 
L 22.782857 110.901818 
L 22.782857 109.883636 
L 22.782857 108.865455 
L 22.782857 107.847273 
L 22.782857 106.829091 
L 22.782857 105.810909 
L 22.782857 104.792727 
L 22.782857 103.774545 
L 22.782857 102.756364 
L 22.782857 101.738182 
L 22.782857 100.72 
L 22.782857 99.701818 
L 22.782857 98.683636 
L 22.782857 97.665455 
L 22.782857 96.647273 
L 22.782857 95.629091 
L 22.782857 94.610909 
L 22.782857 93.592727 
L 22.782857 92.574545 
L 22.782857 91.556364 
L 22.782857 90.538182 
L 22.782857 89.52 
L 22.782857 88.501818 
L 22.782857 87.483636 
L 22.782857 86.465455 
L 22.782857 85.447273 
L 22.782857 84.429091 
L 22.782857 83.410909 
L 22.782857 82.392727 
L 22.782857 81.374545 
L 22.782857 80.356364 
L 22.782857 79.338182 
L 22.782857 78.32 
L 22.782857 77.301818 
L 22.782857 76.283636 
L 22.782857 75.265455 
L 22.782857 74.247273 
L 22.782857 73.229091 
L 22.782857 72.210909 
L 22.782857 71.192727 
L 22.782856 70.174545 
L 22.782848 69.156364 
L 22.782795 68.138182 
L 22.782552 67.12 
L 22.781758 66.101818 
L 22.779944 65.083636 
L 22.77719 64.065455 
L 22.774758 63.047273 
L 22.774355 62.029091 
L 22.776298 61.010909 
L 22.779117 59.992727 
L 22.781156 58.974545 
L 22.781738 57.956364 
L 22.780786 56.938182 
L 22.778456 55.92 
L 22.775672 54.901818 
L 22.774213 53.883636 
L 22.775213 52.865455 
L 22.777869 51.847273 
L 22.780312 50.829091 
L 22.781152 49.810909 
L 22.779469 48.792727 
L 22.774239 47.774545 
L 22.76543 46.756364 
L 22.755798 45.738182 
L 22.749359 44.72 
L 22.746374 43.701818 
L 22.741547 42.683636 
L 22.729559 41.665455 
L 22.712126 40.647273 
L 22.697831 39.629091 
L 22.693966 38.610909 
L 22.698044 37.592727 
L 22.696455 36.574545 
L 22.671751 35.556364 
L 22.614677 34.538182 
L 22.532785 33.52 
L 22.446675 32.501818 
L 22.374049 31.483636 
L 22.316816 30.465455 
L 22.265238 29.447273 
L 22.207541 28.429091 
L 22.115635 27.410909 
L 21.902229 26.392727 
L 21.419936 25.374545 
L 20.62474 24.356364 
L 19.826679 23.338182 
L 19.594286 22.32 
L 25.971429 22.32 
L 25.971429 22.32 
L 25.739036 23.338182 
L 24.940974 24.356364 
L 24.145778 25.374545 
L 23.663486 26.392727 
L 23.450079 27.410909 
L 23.358173 28.429091 
L 23.300476 29.447273 
L 23.248898 30.465455 
L 23.191665 31.483636 
L 23.119039 32.501818 
L 23.032929 33.52 
L 22.951038 34.538182 
L 22.893963 35.556364 
L 22.869259 36.574545 
L 22.86767 37.592727 
L 22.871748 38.610909 
L 22.867883 39.629091 
L 22.853589 40.647273 
L 22.836155 41.665455 
L 22.824168 42.683636 
L 22.81934 43.701818 
L 22.816355 44.72 
L 22.809916 45.738182 
L 22.800284 46.756364 
L 22.791476 47.774545 
L 22.786245 48.792727 
L 22.784562 49.810909 
L 22.785403 50.829091 
L 22.787845 51.847273 
L 22.790501 52.865455 
L 22.791501 53.883636 
L 22.790042 54.901818 
L 22.787258 55.92 
L 22.784928 56.938182 
L 22.783976 57.956364 
L 22.784558 58.974545 
L 22.786598 59.992727 
L 22.789416 61.010909 
L 22.791359 62.029091 
L 22.790956 63.047273 
L 22.788524 64.065455 
L 22.78577 65.083636 
L 22.783957 66.101818 
L 22.783162 67.12 
L 22.782919 68.138182 
L 22.782866 69.156364 
L 22.782858 70.174545 
L 22.782857 71.192727 
L 22.782857 72.210909 
L 22.782857 73.229091 
L 22.782857 74.247273 
L 22.782857 75.265455 
L 22.782857 76.283636 
L 22.782857 77.301818 
L 22.782857 78.32 
L 22.782857 79.338182 
L 22.782857 80.356364 
L 22.782857 81.374545 
L 22.782857 82.392727 
L 22.782857 83.410909 
L 22.782857 84.429091 
L 22.782857 85.447273 
L 22.782857 86.465455 
L 22.782857 87.483636 
L 22.782857 88.501818 
L 22.782857 89.52 
L 22.782857 90.538182 
L 22.782857 91.556364 
L 22.782857 92.574545 
L 22.782857 93.592727 
L 22.782857 94.610909 
L 22.782857 95.629091 
L 22.782857 96.647273 
L 22.782857 97.665455 
L 22.782857 98.683636 
L 22.782857 99.701818 
L 22.782857 100.72 
L 22.782857 101.738182 
L 22.782857 102.756364 
L 22.782857 103.774545 
L 22.782857 104.792727 
L 22.782857 105.810909 
L 22.782857 106.829091 
L 22.782857 107.847273 
L 22.782857 108.865455 
L 22.782857 109.883636 
L 22.782857 110.901818 
L 22.782857 111.92 
L 22.782857 112.938182 
L 22.782857 113.956364 
L 22.782858 114.974545 
L 22.782862 115.992727 
L 22.782891 117.010909 
L 22.78304 118.029091 
L 22.783591 119.047273 
L 22.785017 120.065455 
L 22.787528 121.083636 
L 22.790277 122.101818 
L 22.791514 123.12 
z
" clip-path="url(#pf06cadaa09)" style="fill: #306c53; fill-opacity: 0.5"/>
   </g>
   <g id="FillBetweenPolyCollection_2">
    <path d="M 38.760428 123.12 
L 38.691 123.12 
L 38.693215 122.101818 
L 38.699047 121.083636 
L 38.706536 120.065455 
L 38.713625 119.047273 
L 38.719035 118.029091 
L 38.72248 117.010909 
L 38.724342 115.992727 
L 38.725204 114.974545 
L 38.725548 113.956364 
L 38.725667 112.938182 
L 38.725702 111.92 
L 38.725712 110.901818 
L 38.725714 109.883636 
L 38.725714 108.865455 
L 38.725714 107.847273 
L 38.725714 106.829091 
L 38.725714 105.810909 
L 38.725714 104.792727 
L 38.725714 103.774545 
L 38.725714 102.756364 
L 38.725714 101.738182 
L 38.725714 100.72 
L 38.725714 99.701818 
L 38.725714 98.683636 
L 38.725714 97.665455 
L 38.725714 96.647273 
L 38.725714 95.629091 
L 38.725714 94.610909 
L 38.725714 93.592727 
L 38.725714 92.574545 
L 38.725714 91.556364 
L 38.725714 90.538182 
L 38.725714 89.52 
L 38.725714 88.501818 
L 38.725714 87.483636 
L 38.725714 86.465455 
L 38.725714 85.447273 
L 38.725714 84.429091 
L 38.725714 83.410909 
L 38.725714 82.392727 
L 38.725714 81.374545 
L 38.725714 80.356364 
L 38.725714 79.338182 
L 38.725714 78.32 
L 38.725714 77.301818 
L 38.725714 76.283636 
L 38.725714 75.265455 
L 38.725714 74.247273 
L 38.725714 73.229091 
L 38.725714 72.210909 
L 38.725714 71.192727 
L 38.725714 70.174545 
L 38.725714 69.156364 
L 38.725714 68.138182 
L 38.725714 67.12 
L 38.725714 66.101818 
L 38.725714 65.083636 
L 38.725714 64.065455 
L 38.725714 63.047273 
L 38.725714 62.029091 
L 38.725714 61.010909 
L 38.725714 59.992727 
L 38.725714 58.974545 
L 38.725714 57.956364 
L 38.725713 56.938182 
L 38.725707 55.92 
L 38.725688 54.901818 
L 38.725625 53.883636 
L 38.725444 52.865455 
L 38.724991 51.847273 
L 38.723987 50.829091 
L 38.722011 49.810909 
L 38.718538 48.792727 
L 38.713021 47.774545 
L 38.704984 46.756364 
L 38.694042 45.738182 
L 38.679846 44.72 
L 38.662033 43.701818 
L 38.640258 42.683636 
L 38.614325 41.665455 
L 38.584255 40.647273 
L 38.550083 39.629091 
L 38.511359 38.610909 
L 38.466686 37.592727 
L 38.413901 36.574545 
L 38.351157 35.556364 
L 38.278405 34.538182 
L 38.198045 33.52 
L 38.113621 32.501818 
L 38.026194 31.483636 
L 37.929016 30.465455 
L 37.802197 29.447273 
L 37.611194 28.429091 
L 37.315782 27.410909 
L 36.894914 26.392727 
L 36.381442 25.374545 
L 35.882406 24.356364 
L 35.555353 23.338182 
L 35.537143 22.32 
L 41.914286 22.32 
L 41.914286 22.32 
L 41.896075 23.338182 
L 41.569023 24.356364 
L 41.069987 25.374545 
L 40.556514 26.392727 
L 40.135647 27.410909 
L 39.840234 28.429091 
L 39.649232 29.447273 
L 39.522412 30.465455 
L 39.425235 31.483636 
L 39.337807 32.501818 
L 39.253383 33.52 
L 39.173023 34.538182 
L 39.100271 35.556364 
L 39.037528 36.574545 
L 38.984743 37.592727 
L 38.94007 38.610909 
L 38.901345 39.629091 
L 38.867174 40.647273 
L 38.837104 41.665455 
L 38.811171 42.683636 
L 38.789395 43.701818 
L 38.771583 44.72 
L 38.757387 45.738182 
L 38.746444 46.756364 
L 38.738407 47.774545 
L 38.732891 48.792727 
L 38.729418 49.810909 
L 38.727442 50.829091 
L 38.726437 51.847273 
L 38.725984 52.865455 
L 38.725804 53.883636 
L 38.725741 54.901818 
L 38.725721 55.92 
L 38.725716 56.938182 
L 38.725715 57.956364 
L 38.725714 58.974545 
L 38.725714 59.992727 
L 38.725714 61.010909 
L 38.725714 62.029091 
L 38.725714 63.047273 
L 38.725714 64.065455 
L 38.725714 65.083636 
L 38.725714 66.101818 
L 38.725714 67.12 
L 38.725714 68.138182 
L 38.725714 69.156364 
L 38.725714 70.174545 
L 38.725714 71.192727 
L 38.725714 72.210909 
L 38.725714 73.229091 
L 38.725714 74.247273 
L 38.725714 75.265455 
L 38.725714 76.283636 
L 38.725714 77.301818 
L 38.725714 78.32 
L 38.725714 79.338182 
L 38.725714 80.356364 
L 38.725714 81.374545 
L 38.725714 82.392727 
L 38.725714 83.410909 
L 38.725714 84.429091 
L 38.725714 85.447273 
L 38.725714 86.465455 
L 38.725714 87.483636 
L 38.725714 88.501818 
L 38.725714 89.52 
L 38.725714 90.538182 
L 38.725714 91.556364 
L 38.725714 92.574545 
L 38.725714 93.592727 
L 38.725714 94.610909 
L 38.725714 95.629091 
L 38.725714 96.647273 
L 38.725714 97.665455 
L 38.725714 98.683636 
L 38.725714 99.701818 
L 38.725714 100.72 
L 38.725714 101.738182 
L 38.725714 102.756364 
L 38.725714 103.774545 
L 38.725714 104.792727 
L 38.725714 105.810909 
L 38.725714 106.829091 
L 38.725714 107.847273 
L 38.725714 108.865455 
L 38.725715 109.883636 
L 38.725717 110.901818 
L 38.725726 111.92 
L 38.725762 112.938182 
L 38.725881 113.956364 
L 38.726225 114.974545 
L 38.727087 115.992727 
L 38.728948 117.010909 
L 38.732393 118.029091 
L 38.737803 119.047273 
L 38.744893 120.065455 
L 38.752381 121.083636 
L 38.758213 122.101818 
L 38.760428 123.12 
z
" clip-path="url(#pf06cadaa09)" style="fill: #306c53; fill-opacity: 0.5"/>
   </g>
   <g id="FillBetweenPolyCollection_3">
    <path d="M 54.738372 123.12 
L 54.598771 123.12 
L 54.599638 122.101818 
L 54.604429 121.083636 
L 54.61223 120.065455 
L 54.621751 119.047273 
L 54.63167 118.029091 
L 54.640913 117.010909 
L 54.648806 115.992727 
L 54.655074 114.974545 
L 54.65975 113.956364 
L 54.66305 112.938182 
L 54.665263 111.92 
L 54.666676 110.901818 
L 54.667535 109.883636 
L 54.668032 108.865455 
L 54.668305 107.847273 
L 54.668447 106.829091 
L 54.668517 105.810909 
L 54.668549 104.792727 
L 54.668562 103.774545 
L 54.668568 102.756364 
L 54.66857 101.738182 
L 54.668571 100.72 
L 54.668571 99.701818 
L 54.668571 98.683636 
L 54.668571 97.665455 
L 54.668571 96.647273 
L 54.668571 95.629091 
L 54.668571 94.610909 
L 54.668571 93.592727 
L 54.668571 92.574545 
L 54.668571 91.556364 
L 54.668571 90.538182 
L 54.668571 89.52 
L 54.668571 88.501818 
L 54.668571 87.483636 
L 54.668571 86.465455 
L 54.668571 85.447273 
L 54.668571 84.429091 
L 54.668571 83.410909 
L 54.668571 82.392727 
L 54.668571 81.374545 
L 54.668571 80.356364 
L 54.668571 79.338182 
L 54.66857 78.32 
L 54.668567 77.301818 
L 54.668561 76.283636 
L 54.668545 75.265455 
L 54.668509 74.247273 
L 54.668437 73.229091 
L 54.6683 72.210909 
L 54.668057 71.192727 
L 54.66766 70.174545 
L 54.667059 69.156364 
L 54.666223 68.138182 
L 54.665158 67.12 
L 54.663928 66.101818 
L 54.662658 65.083636 
L 54.661522 64.065455 
L 54.660703 63.047273 
L 54.660343 62.029091 
L 54.660498 61.010909 
L 54.661109 59.992727 
L 54.662008 58.974545 
L 54.662944 57.956364 
L 54.663622 56.938182 
L 54.663742 55.92 
L 54.663024 54.901818 
L 54.661229 53.883636 
L 54.658174 52.865455 
L 54.653739 51.847273 
L 54.647852 50.829091 
L 54.640447 49.810909 
L 54.631387 48.792727 
L 54.620382 47.774545 
L 54.606941 46.756364 
L 54.590392 45.738182 
L 54.56998 44.72 
L 54.545006 43.701818 
L 54.51495 42.683636 
L 54.479505 41.665455 
L 54.438504 40.647273 
L 54.391755 39.629091 
L 54.338849 38.610909 
L 54.279015 37.592727 
L 54.211052 36.574545 
L 54.133262 35.556364 
L 54.043218 34.538182 
L 53.937227 33.52 
L 53.809565 32.501818 
L 53.651965 31.483636 
L 53.454274 30.465455 
L 53.207194 29.447273 
L 52.907354 28.429091 
L 52.56359 27.410909 
L 52.201799 26.392727 
L 51.865125 25.374545 
L 51.607332 24.356364 
L 51.48 23.338182 
L 51.51745 22.32 
L 57.819693 22.32 
L 57.819693 22.32 
L 57.857143 23.338182 
L 57.72981 24.356364 
L 57.472018 25.374545 
L 57.135343 26.392727 
L 56.773552 27.410909 
L 56.429789 28.429091 
L 56.129949 29.447273 
L 55.882868 30.465455 
L 55.685178 31.483636 
L 55.527578 32.501818 
L 55.399915 33.52 
L 55.293925 34.538182 
L 55.203881 35.556364 
L 55.126091 36.574545 
L 55.058128 37.592727 
L 54.998294 38.610909 
L 54.945387 39.629091 
L 54.898639 40.647273 
L 54.857638 41.665455 
L 54.822193 42.683636 
L 54.792136 43.701818 
L 54.767163 44.72 
L 54.746751 45.738182 
L 54.730202 46.756364 
L 54.716761 47.774545 
L 54.705756 48.792727 
L 54.696696 49.810909 
L 54.689291 50.829091 
L 54.683404 51.847273 
L 54.678969 52.865455 
L 54.675914 53.883636 
L 54.674119 54.901818 
L 54.673401 55.92 
L 54.673521 56.938182 
L 54.674199 57.956364 
L 54.675135 58.974545 
L 54.676034 59.992727 
L 54.676645 61.010909 
L 54.6768 62.029091 
L 54.67644 63.047273 
L 54.675621 64.065455 
L 54.674485 65.083636 
L 54.673215 66.101818 
L 54.671985 67.12 
L 54.67092 68.138182 
L 54.670083 69.156364 
L 54.669483 70.174545 
L 54.669085 71.192727 
L 54.668843 72.210909 
L 54.668706 73.229091 
L 54.668633 74.247273 
L 54.668598 75.265455 
L 54.668582 76.283636 
L 54.668576 77.301818 
L 54.668573 78.32 
L 54.668572 79.338182 
L 54.668572 80.356364 
L 54.668571 81.374545 
L 54.668571 82.392727 
L 54.668571 83.410909 
L 54.668571 84.429091 
L 54.668571 85.447273 
L 54.668571 86.465455 
L 54.668571 87.483636 
L 54.668571 88.501818 
L 54.668571 89.52 
L 54.668571 90.538182 
L 54.668571 91.556364 
L 54.668571 92.574545 
L 54.668571 93.592727 
L 54.668571 94.610909 
L 54.668571 95.629091 
L 54.668571 96.647273 
L 54.668571 97.665455 
L 54.668571 98.683636 
L 54.668572 99.701818 
L 54.668572 100.72 
L 54.668573 101.738182 
L 54.668575 102.756364 
L 54.66858 103.774545 
L 54.668594 104.792727 
L 54.668626 105.810909 
L 54.668696 106.829091 
L 54.668838 107.847273 
L 54.66911 108.865455 
L 54.669608 109.883636 
L 54.670467 110.901818 
L 54.67188 111.92 
L 54.674093 112.938182 
L 54.677393 113.956364 
L 54.682068 114.974545 
L 54.688337 115.992727 
L 54.69623 117.010909 
L 54.705473 118.029091 
L 54.715391 119.047273 
L 54.724913 120.065455 
L 54.732714 121.083636 
L 54.737505 122.101818 
L 54.738372 123.12 
z
" clip-path="url(#pf06cadaa09)" style="fill: #306c53; fill-opacity: 0.5"/>
   </g>
   <g id="FillBetweenPolyCollection_4">
    <path d="M 70.913143 123.12 
L 70.309714 123.12 
L 70.310014 122.101818 
L 70.314987 121.083636 
L 70.324321 120.065455 
L 70.337505 119.047273 
L 70.353866 118.029091 
L 70.372627 117.010909 
L 70.392963 115.992727 
L 70.414057 114.974545 
L 70.435155 113.956364 
L 70.455603 112.938182 
L 70.474872 111.92 
L 70.492577 110.901818 
L 70.508473 109.883636 
L 70.522444 108.865455 
L 70.534485 107.847273 
L 70.54468 106.829091 
L 70.553174 105.810909 
L 70.560151 104.792727 
L 70.565814 103.774545 
L 70.570363 102.756364 
L 70.573991 101.738182 
L 70.576866 100.72 
L 70.579135 99.701818 
L 70.580922 98.683636 
L 70.582325 97.665455 
L 70.583423 96.647273 
L 70.584278 95.629091 
L 70.584936 94.610909 
L 70.585434 93.592727 
L 70.5858 92.574545 
L 70.586054 91.556364 
L 70.586212 90.538182 
L 70.586285 89.52 
L 70.586281 88.501818 
L 70.586208 87.483636 
L 70.586069 86.465455 
L 70.585868 85.447273 
L 70.585612 84.429091 
L 70.585307 83.410909 
L 70.584963 82.392727 
L 70.584593 81.374545 
L 70.584213 80.356364 
L 70.583841 79.338182 
L 70.583496 78.32 
L 70.583195 77.301818 
L 70.582951 76.283636 
L 70.582771 75.265455 
L 70.582652 74.247273 
L 70.582576 73.229091 
L 70.582514 72.210909 
L 70.582419 71.192727 
L 70.582229 70.174545 
L 70.581869 69.156364 
L 70.581252 68.138182 
L 70.580283 67.12 
L 70.578862 66.101818 
L 70.576888 65.083636 
L 70.574262 64.065455 
L 70.570889 63.047273 
L 70.566676 62.029091 
L 70.561538 61.010909 
L 70.555384 59.992727 
L 70.548123 58.974545 
L 70.539648 57.956364 
L 70.529835 56.938182 
L 70.518528 55.92 
L 70.505533 54.901818 
L 70.490606 53.883636 
L 70.473442 52.865455 
L 70.453668 51.847273 
L 70.430833 50.829091 
L 70.404395 49.810909 
L 70.373719 48.792727 
L 70.338063 47.774545 
L 70.296579 46.756364 
L 70.248306 45.738182 
L 70.192175 44.72 
L 70.127022 43.701818 
L 70.051612 42.683636 
L 69.964682 41.665455 
L 69.865004 40.647273 
L 69.751479 39.629091 
L 69.623249 38.610909 
L 69.47984 37.592727 
L 69.321319 36.574545 
L 69.148464 35.556364 
L 68.962915 34.538182 
L 68.767303 33.52 
L 68.56532 32.501818 
L 68.361716 31.483636 
L 68.162206 30.465455 
L 67.973265 29.447273 
L 67.801833 28.429091 
L 67.654919 27.410909 
L 67.539152 26.392727 
L 67.460308 25.374545 
L 67.422857 24.356364 
L 67.429584 23.338182 
L 67.481322 22.32 
L 73.741535 22.32 
L 73.741535 22.32 
L 73.793273 23.338182 
L 73.8 24.356364 
L 73.762549 25.374545 
L 73.683706 26.392727 
L 73.567939 27.410909 
L 73.421024 28.429091 
L 73.249592 29.447273 
L 73.060651 30.465455 
L 72.861141 31.483636 
L 72.657538 32.501818 
L 72.455554 33.52 
L 72.259942 34.538182 
L 72.074393 35.556364 
L 71.901538 36.574545 
L 71.743017 37.592727 
L 71.599608 38.610909 
L 71.471378 39.629091 
L 71.357853 40.647273 
L 71.258175 41.665455 
L 71.171245 42.683636 
L 71.095835 43.701818 
L 71.030682 44.72 
L 70.974551 45.738182 
L 70.926278 46.756364 
L 70.884794 47.774545 
L 70.849139 48.792727 
L 70.818462 49.810909 
L 70.792024 50.829091 
L 70.769189 51.847273 
L 70.749415 52.865455 
L 70.732252 53.883636 
L 70.717324 54.901818 
L 70.704329 55.92 
L 70.693022 56.938182 
L 70.683209 57.956364 
L 70.674734 58.974545 
L 70.667473 59.992727 
L 70.66132 61.010909 
L 70.656181 62.029091 
L 70.651969 63.047273 
L 70.648595 64.065455 
L 70.645969 65.083636 
L 70.643995 66.101818 
L 70.642574 67.12 
L 70.641605 68.138182 
L 70.640988 69.156364 
L 70.640629 70.174545 
L 70.640438 71.192727 
L 70.640343 72.210909 
L 70.640281 73.229091 
L 70.640205 74.247273 
L 70.640086 75.265455 
L 70.639906 76.283636 
L 70.639663 77.301818 
L 70.639361 78.32 
L 70.639016 79.338182 
L 70.638644 80.356364 
L 70.638264 81.374545 
L 70.637894 82.392727 
L 70.63755 83.410909 
L 70.637245 84.429091 
L 70.636989 85.447273 
L 70.636788 86.465455 
L 70.636649 87.483636 
L 70.636576 88.501818 
L 70.636572 89.52 
L 70.636646 90.538182 
L 70.636803 91.556364 
L 70.637057 92.574545 
L 70.637423 93.592727 
L 70.637921 94.610909 
L 70.638579 95.629091 
L 70.639434 96.647273 
L 70.640532 97.665455 
L 70.641935 98.683636 
L 70.643722 99.701818 
L 70.645992 100.72 
L 70.648867 101.738182 
L 70.652494 102.756364 
L 70.657043 103.774545 
L 70.662706 104.792727 
L 70.669683 105.810909 
L 70.678177 106.829091 
L 70.688372 107.847273 
L 70.700413 108.865455 
L 70.714384 109.883636 
L 70.73028 110.901818 
L 70.747985 111.92 
L 70.767255 112.938182 
L 70.787702 113.956364 
L 70.8088 114.974545 
L 70.829894 115.992727 
L 70.85023 117.010909 
L 70.868991 118.029091 
L 70.885352 119.047273 
L 70.898536 120.065455 
L 70.90787 121.083636 
L 70.912843 122.101818 
L 70.913143 123.12 
z
" clip-path="url(#pf06cadaa09)" style="fill: #306c53; fill-opacity: 0.5"/>
   </g>
   <g id="FillBetweenPolyCollection_5">
    <path d="M 87.128153 123.12 
L 85.980418 123.12 
L 85.979284 122.101818 
L 85.983585 121.083636 
L 85.993111 120.065455 
L 86.007496 119.047273 
L 86.026239 118.029091 
L 86.048733 117.010909 
L 86.074291 115.992727 
L 86.10218 114.974545 
L 86.131654 113.956364 
L 86.161982 112.938182 
L 86.192475 111.92 
L 86.22251 110.901818 
L 86.251546 109.883636 
L 86.279133 108.865455 
L 86.30492 107.847273 
L 86.328652 106.829091 
L 86.350167 105.810909 
L 86.369387 104.792727 
L 86.386308 103.774545 
L 86.400987 102.756364 
L 86.413533 101.738182 
L 86.424091 100.72 
L 86.43283 99.701818 
L 86.43994 98.683636 
L 86.445613 97.665455 
L 86.450046 96.647273 
L 86.453429 95.629091 
L 86.455943 94.610909 
L 86.457757 93.592727 
L 86.459025 92.574545 
L 86.459888 91.556364 
L 86.460469 90.538182 
L 86.460875 89.52 
L 86.461198 88.501818 
L 86.461513 87.483636 
L 86.461883 86.465455 
L 86.462354 85.447273 
L 86.46296 84.429091 
L 86.463724 83.410909 
L 86.464655 82.392727 
L 86.465753 81.374545 
L 86.467011 80.356364 
L 86.468408 79.338182 
L 86.46992 78.32 
L 86.471514 77.301818 
L 86.473147 76.283636 
L 86.474774 75.265455 
L 86.476338 74.247273 
L 86.477777 73.229091 
L 86.479021 72.210909 
L 86.47999 71.192727 
L 86.480598 70.174545 
L 86.480743 69.156364 
L 86.480318 68.138182 
L 86.479199 67.12 
L 86.477253 66.101818 
L 86.47433 65.083636 
L 86.470266 64.065455 
L 86.464881 63.047273 
L 86.457979 62.029091 
L 86.449342 61.010909 
L 86.438735 59.992727 
L 86.425896 58.974545 
L 86.410541 57.956364 
L 86.392357 56.938182 
L 86.370997 55.92 
L 86.346082 54.901818 
L 86.317193 53.883636 
L 86.28387 52.865455 
L 86.245614 51.847273 
L 86.201882 50.829091 
L 86.152099 49.810909 
L 86.095658 48.792727 
L 86.031938 47.774545 
L 85.960322 46.756364 
L 85.880217 45.738182 
L 85.791092 44.72 
L 85.69251 43.701818 
L 85.584177 42.683636 
L 85.465983 41.665455 
L 85.338061 40.647273 
L 85.200832 39.629091 
L 85.055052 38.610909 
L 84.901855 37.592727 
L 84.742778 36.574545 
L 84.579773 35.556364 
L 84.415202 34.538182 
L 84.251802 33.52 
L 84.092638 32.501818 
L 83.941015 31.483636 
L 83.800382 30.465455 
L 83.674209 29.447273 
L 83.56585 28.429091 
L 83.478403 27.410909 
L 83.414562 26.392727 
L 83.376493 25.374545 
L 83.365714 24.356364 
L 83.383013 23.338182 
L 83.42839 22.32 
L 89.680181 22.32 
L 89.680181 22.32 
L 89.725559 23.338182 
L 89.742857 24.356364 
L 89.732078 25.374545 
L 89.694009 26.392727 
L 89.630169 27.410909 
L 89.542721 28.429091 
L 89.434363 29.447273 
L 89.30819 30.465455 
L 89.167557 31.483636 
L 89.015934 32.501818 
L 88.856769 33.52 
L 88.69337 34.538182 
L 88.528798 35.556364 
L 88.365794 36.574545 
L 88.206716 37.592727 
L 88.053519 38.610909 
L 87.90774 39.629091 
L 87.77051 40.647273 
L 87.642588 41.665455 
L 87.524395 42.683636 
L 87.416061 43.701818 
L 87.317479 44.72 
L 87.228354 45.738182 
L 87.14825 46.756364 
L 87.076633 47.774545 
L 87.012913 48.792727 
L 86.956473 49.810909 
L 86.906689 50.829091 
L 86.862958 51.847273 
L 86.824701 52.865455 
L 86.791379 53.883636 
L 86.762489 54.901818 
L 86.737574 55.92 
L 86.716215 56.938182 
L 86.69803 57.956364 
L 86.682676 58.974545 
L 86.669837 59.992727 
L 86.659229 61.010909 
L 86.650592 62.029091 
L 86.64369 63.047273 
L 86.638305 64.065455 
L 86.634242 65.083636 
L 86.631318 66.101818 
L 86.629372 67.12 
L 86.628254 68.138182 
L 86.627828 69.156364 
L 86.627974 70.174545 
L 86.628581 71.192727 
L 86.629551 72.210909 
L 86.630795 73.229091 
L 86.632234 74.247273 
L 86.633798 75.265455 
L 86.635424 76.283636 
L 86.637058 77.301818 
L 86.638651 78.32 
L 86.640163 79.338182 
L 86.641561 80.356364 
L 86.642818 81.374545 
L 86.643917 82.392727 
L 86.644848 83.410909 
L 86.645611 84.429091 
L 86.646218 85.447273 
L 86.646689 86.465455 
L 86.647058 87.483636 
L 86.647374 88.501818 
L 86.647697 89.52 
L 86.648103 90.538182 
L 86.648683 91.556364 
L 86.649546 92.574545 
L 86.650815 93.592727 
L 86.652628 94.610909 
L 86.655142 95.629091 
L 86.658525 96.647273 
L 86.662958 97.665455 
L 86.668632 98.683636 
L 86.675741 99.701818 
L 86.684481 100.72 
L 86.695038 101.738182 
L 86.707584 102.756364 
L 86.722264 103.774545 
L 86.739184 104.792727 
L 86.758404 105.810909 
L 86.779919 106.829091 
L 86.803651 107.847273 
L 86.829438 108.865455 
L 86.857026 109.883636 
L 86.886062 110.901818 
L 86.916097 111.92 
L 86.94659 112.938182 
L 86.976917 113.956364 
L 87.006391 114.974545 
L 87.034281 115.992727 
L 87.059839 117.010909 
L 87.082333 118.029091 
L 87.101076 119.047273 
L 87.11546 120.065455 
L 87.124986 121.083636 
L 87.129288 122.101818 
L 87.128153 123.12 
z
" clip-path="url(#pf06cadaa09)" style="fill: #306c53; fill-opacity: 0.5"/>
   </g>
   <g id="FillBetweenPolyCollection_6">
    <path d="M 103.852646 123.12 
L 101.14164 123.12 
L 101.139057 122.101818 
L 101.145179 121.083636 
L 101.159808 120.065455 
L 101.182578 119.047273 
L 101.212966 118.029091 
L 101.250312 117.010909 
L 101.293841 115.992727 
L 101.342686 114.974545 
L 101.39592 113.956364 
L 101.452578 112.938182 
L 101.511689 111.92 
L 101.572299 110.901818 
L 101.633497 109.883636 
L 101.694432 108.865455 
L 101.754332 107.847273 
L 101.812515 106.829091 
L 101.868398 105.810909 
L 101.921501 104.792727 
L 101.971445 103.774545 
L 102.017953 102.756364 
L 102.060843 101.738182 
L 102.100015 100.72 
L 102.13545 99.701818 
L 102.16719 98.683636 
L 102.195334 97.665455 
L 102.220024 96.647273 
L 102.241434 95.629091 
L 102.259763 94.610909 
L 102.275222 93.592727 
L 102.288029 92.574545 
L 102.298405 91.556364 
L 102.306565 90.538182 
L 102.312717 89.52 
L 102.317057 88.501818 
L 102.31977 87.483636 
L 102.321025 86.465455 
L 102.320979 85.447273 
L 102.319773 84.429091 
L 102.317536 83.410909 
L 102.314379 82.392727 
L 102.310405 81.374545 
L 102.305699 80.356364 
L 102.300336 79.338182 
L 102.294379 78.32 
L 102.287876 77.301818 
L 102.280865 76.283636 
L 102.273371 75.265455 
L 102.265404 74.247273 
L 102.256963 73.229091 
L 102.248029 72.210909 
L 102.238572 71.192727 
L 102.228543 70.174545 
L 102.217875 69.156364 
L 102.206484 68.138182 
L 102.194265 67.12 
L 102.18109 66.101818 
L 102.166811 65.083636 
L 102.151253 64.065455 
L 102.134215 63.047273 
L 102.115471 62.029091 
L 102.094765 61.010909 
L 102.071812 59.992727 
L 102.046302 58.974545 
L 102.017893 57.956364 
L 101.986223 56.938182 
L 101.950903 55.92 
L 101.911531 54.901818 
L 101.867692 53.883636 
L 101.818969 52.865455 
L 101.764952 51.847273 
L 101.705255 50.829091 
L 101.639522 49.810909 
L 101.567451 48.792727 
L 101.488809 47.774545 
L 101.403451 46.756364 
L 101.311339 45.738182 
L 101.212564 44.72 
L 101.107362 43.701818 
L 100.996133 42.683636 
L 100.879454 41.665455 
L 100.758089 40.647273 
L 100.632995 39.629091 
L 100.50532 38.610909 
L 100.376397 37.592727 
L 100.247728 36.574545 
L 100.120965 35.556364 
L 99.997876 34.538182 
L 99.880316 33.52 
L 99.770178 32.501818 
L 99.66935 31.483636 
L 99.579665 30.465455 
L 99.502847 29.447273 
L 99.440462 28.429091 
L 99.393866 27.410909 
L 99.364162 26.392727 
L 99.352165 25.374545 
L 99.358367 24.356364 
L 99.382919 23.338182 
L 99.425625 22.32 
L 105.56866 22.32 
L 105.56866 22.32 
L 105.611367 23.338182 
L 105.635919 24.356364 
L 105.642121 25.374545 
L 105.630123 26.392727 
L 105.60042 27.410909 
L 105.553824 28.429091 
L 105.491439 29.447273 
L 105.414621 30.465455 
L 105.324936 31.483636 
L 105.224108 32.501818 
L 105.11397 33.52 
L 104.996409 34.538182 
L 104.873321 35.556364 
L 104.746557 36.574545 
L 104.617889 37.592727 
L 104.488966 38.610909 
L 104.361291 39.629091 
L 104.236197 40.647273 
L 104.114832 41.665455 
L 103.998153 42.683636 
L 103.886924 43.701818 
L 103.781722 44.72 
L 103.682946 45.738182 
L 103.590834 46.756364 
L 103.505476 47.774545 
L 103.426834 48.792727 
L 103.354764 49.810909 
L 103.289031 50.829091 
L 103.229333 51.847273 
L 103.175317 52.865455 
L 103.126594 53.883636 
L 103.082754 54.901818 
L 103.043382 55.92 
L 103.008063 56.938182 
L 102.976392 57.956364 
L 102.947984 58.974545 
L 102.922473 59.992727 
L 102.899521 61.010909 
L 102.878814 62.029091 
L 102.86007 63.047273 
L 102.843033 64.065455 
L 102.827475 65.083636 
L 102.813196 66.101818 
L 102.800021 67.12 
L 102.787802 68.138182 
L 102.776411 69.156364 
L 102.765743 70.174545 
L 102.755713 71.192727 
L 102.746256 72.210909 
L 102.737323 73.229091 
L 102.728882 74.247273 
L 102.720915 75.265455 
L 102.71342 76.283636 
L 102.70641 77.301818 
L 102.699907 78.32 
L 102.69395 79.338182 
L 102.688587 80.356364 
L 102.683881 81.374545 
L 102.679906 82.392727 
L 102.67675 83.410909 
L 102.674512 84.429091 
L 102.673307 85.447273 
L 102.673261 86.465455 
L 102.674516 87.483636 
L 102.677229 88.501818 
L 102.681569 89.52 
L 102.68772 90.538182 
L 102.695881 91.556364 
L 102.706257 92.574545 
L 102.719064 93.592727 
L 102.734523 94.610909 
L 102.752851 95.629091 
L 102.774262 96.647273 
L 102.798952 97.665455 
L 102.827096 98.683636 
L 102.858836 99.701818 
L 102.89427 100.72 
L 102.933443 101.738182 
L 102.976332 102.756364 
L 103.022841 103.774545 
L 103.072785 104.792727 
L 103.125888 105.810909 
L 103.181771 106.829091 
L 103.239954 107.847273 
L 103.299854 108.865455 
L 103.360789 109.883636 
L 103.421987 110.901818 
L 103.482597 111.92 
L 103.541708 112.938182 
L 103.598366 113.956364 
L 103.6516 114.974545 
L 103.700445 115.992727 
L 103.743973 117.010909 
L 103.781319 118.029091 
L 103.811707 119.047273 
L 103.834478 120.065455 
L 103.849107 121.083636 
L 103.855229 122.101818 
L 103.852646 123.12 
z
" clip-path="url(#pf06cadaa09)" style="fill: #306c53; fill-opacity: 0.5"/>
   </g>
   <g id="FillBetweenPolyCollection_7">
    <path d="M 109.080291 118.767661 
L 108.668281 118.767661 
L 108.663909 118.625199 
L 108.659682 118.482736 
L 108.655607 118.340273 
L 108.651693 118.19781 
L 108.647947 118.055348 
L 108.644375 117.912885 
L 108.640983 117.770422 
L 108.637776 117.62796 
L 108.634758 117.485497 
L 108.631932 117.343034 
L 108.629299 117.200571 
L 108.626861 117.058109 
L 108.624618 116.915646 
L 108.622569 116.773183 
L 108.620712 116.63072 
L 108.619045 116.488258 
L 108.617565 116.345795 
L 108.616267 116.203332 
L 108.615146 116.060869 
L 108.614197 115.918407 
L 108.613412 115.775944 
L 108.612785 115.633481 
L 108.612309 115.491018 
L 108.611975 115.348556 
L 108.611774 115.206093 
L 108.611697 115.06363 
L 108.611737 114.921168 
L 108.611882 114.778705 
L 108.612124 114.636242 
L 108.612453 114.493779 
L 108.61286 114.351317 
L 108.613335 114.208854 
L 108.613869 114.066391 
L 108.614452 113.923928 
L 108.615077 113.781466 
L 108.615734 113.639003 
L 108.616417 113.49654 
L 108.617116 113.354077 
L 108.617826 113.211615 
L 108.61854 113.069152 
L 108.619252 112.926689 
L 108.619958 112.784226 
L 108.620651 112.641764 
L 108.62133 112.499301 
L 108.62199 112.356838 
L 108.62263 112.214376 
L 108.623247 112.071913 
L 108.62384 111.92945 
L 108.62441 111.786987 
L 108.624956 111.644525 
L 108.625479 111.502062 
L 108.625982 111.359599 
L 108.626466 111.217136 
L 108.626935 111.074674 
L 108.627391 110.932211 
L 108.627839 110.789748 
L 108.628283 110.647285 
L 108.628727 110.504823 
L 108.629178 110.36236 
L 108.62964 110.219897 
L 108.63012 110.077434 
L 108.630623 109.934972 
L 108.631155 109.792509 
L 108.631723 109.650046 
L 108.632333 109.507584 
L 108.632993 109.365121 
L 108.633707 109.222658 
L 108.634483 109.080195 
L 108.635326 108.937733 
L 108.636244 108.79527 
L 108.637241 108.652807 
L 108.638323 108.510344 
L 108.639496 108.367882 
L 108.640765 108.225419 
L 108.642134 108.082956 
L 108.643608 107.940493 
L 108.64519 107.798031 
L 108.646884 107.655568 
L 108.648693 107.513105 
L 108.65062 107.370642 
L 108.652666 107.22818 
L 108.654832 107.085717 
L 108.657121 106.943254 
L 108.659531 106.800791 
L 108.662064 106.658329 
L 108.664718 106.515866 
L 108.667493 106.373403 
L 108.670386 106.230941 
L 108.673395 106.088478 
L 108.676518 105.946015 
L 108.679752 105.803552 
L 108.683092 105.66109 
L 108.686535 105.518627 
L 108.690075 105.376164 
L 108.693709 105.233701 
L 108.69743 105.091239 
L 108.701233 104.948776 
L 108.705111 104.806313 
L 108.709059 104.66385 
L 109.039512 104.66385 
L 109.039512 104.66385 
L 109.04346 104.806313 
L 109.047339 104.948776 
L 109.051141 105.091239 
L 109.054863 105.233701 
L 109.058496 105.376164 
L 109.062037 105.518627 
L 109.065479 105.66109 
L 109.06882 105.803552 
L 109.072053 105.946015 
L 109.075176 106.088478 
L 109.078185 106.230941 
L 109.081079 106.373403 
L 109.083853 106.515866 
L 109.086507 106.658329 
L 109.08904 106.800791 
L 109.091451 106.943254 
L 109.093739 107.085717 
L 109.095906 107.22818 
L 109.097952 107.370642 
L 109.099878 107.513105 
L 109.101687 107.655568 
L 109.103382 107.798031 
L 109.104964 107.940493 
L 109.106438 108.082956 
L 109.107807 108.225419 
L 109.109075 108.367882 
L 109.110248 108.510344 
L 109.111331 108.652807 
L 109.112328 108.79527 
L 109.113245 108.937733 
L 109.114089 109.080195 
L 109.114864 109.222658 
L 109.115579 109.365121 
L 109.116238 109.507584 
L 109.116848 109.650046 
L 109.117417 109.792509 
L 109.117949 109.934972 
L 109.118452 110.077434 
L 109.118931 110.219897 
L 109.119393 110.36236 
L 109.119844 110.504823 
L 109.120289 110.647285 
L 109.120733 110.789748 
L 109.121181 110.932211 
L 109.121637 111.074674 
L 109.122105 111.217136 
L 109.12259 111.359599 
L 109.123092 111.502062 
L 109.123616 111.644525 
L 109.124162 111.786987 
L 109.124731 111.92945 
L 109.125325 112.071913 
L 109.125942 112.214376 
L 109.126581 112.356838 
L 109.127241 112.499301 
L 109.12792 112.641764 
L 109.128614 112.784226 
L 109.129319 112.926689 
L 109.130031 113.069152 
L 109.130745 113.211615 
L 109.131455 113.354077 
L 109.132155 113.49654 
L 109.132837 113.639003 
L 109.133495 113.781466 
L 109.134119 113.923928 
L 109.134703 114.066391 
L 109.135236 114.208854 
L 109.135711 114.351317 
L 109.136118 114.493779 
L 109.136447 114.636242 
L 109.136689 114.778705 
L 109.136835 114.921168 
L 109.136874 115.06363 
L 109.136798 115.206093 
L 109.136597 115.348556 
L 109.136263 115.491018 
L 109.135786 115.633481 
L 109.135159 115.775944 
L 109.134375 115.918407 
L 109.133425 116.060869 
L 109.132304 116.203332 
L 109.131006 116.345795 
L 109.129526 116.488258 
L 109.127859 116.63072 
L 109.126003 116.773183 
L 109.123954 116.915646 
L 109.121711 117.058109 
L 109.119273 117.200571 
L 109.11664 117.343034 
L 109.113813 117.485497 
L 109.110795 117.62796 
L 109.107588 117.770422 
L 109.104196 117.912885 
L 109.100624 118.055348 
L 109.096878 118.19781 
L 109.092964 118.340273 
L 109.088889 118.482736 
L 109.084662 118.625199 
L 109.080291 118.767661 
z
" clip-path="url(#pf06cadaa09)" style="fill: #dfa33c; fill-opacity: 0.5"/>
   </g>
   <g id="FillBetweenPolyCollection_8">
    <path d="M 121.067561 123.12 
L 115.812439 123.12 
L 115.800494 122.101818 
L 115.802964 121.083636 
L 115.819579 120.065455 
L 115.849817 119.047273 
L 115.892919 118.029091 
L 115.947913 117.010909 
L 116.013647 115.992727 
L 116.08882 114.974545 
L 116.172026 113.956364 
L 116.261784 112.938182 
L 116.356587 111.92 
L 116.454933 110.901818 
L 116.555366 109.883636 
L 116.6565 108.865455 
L 116.757053 107.847273 
L 116.855863 106.829091 
L 116.951906 105.810909 
L 117.044303 104.792727 
L 117.13233 103.774545 
L 117.21541 102.756364 
L 117.293112 101.738182 
L 117.365143 100.72 
L 117.431333 99.701818 
L 117.491621 98.683636 
L 117.546042 97.665455 
L 117.594711 96.647273 
L 117.637808 95.629091 
L 117.675559 94.610909 
L 117.708228 93.592727 
L 117.736105 92.574545 
L 117.759491 91.556364 
L 117.778697 90.538182 
L 117.794029 89.52 
L 117.805791 88.501818 
L 117.814279 87.483636 
L 117.819776 86.465455 
L 117.822555 85.447273 
L 117.822873 84.429091 
L 117.820976 83.410909 
L 117.817097 82.392727 
L 117.811453 81.374545 
L 117.804249 80.356364 
L 117.795672 79.338182 
L 117.785897 78.32 
L 117.775078 77.301818 
L 117.763356 76.283636 
L 117.750847 75.265455 
L 117.73765 74.247273 
L 117.723839 73.229091 
L 117.709465 72.210909 
L 117.694556 71.192727 
L 117.679114 70.174545 
L 117.663115 69.156364 
L 117.64651 68.138182 
L 117.629229 67.12 
L 117.611173 66.101818 
L 117.592226 65.083636 
L 117.572249 64.065455 
L 117.551086 63.047273 
L 117.528564 62.029091 
L 117.504498 61.010909 
L 117.478692 59.992727 
L 117.450942 58.974545 
L 117.421039 57.956364 
L 117.388775 56.938182 
L 117.353944 55.92 
L 117.316348 54.901818 
L 117.275803 53.883636 
L 117.232141 52.865455 
L 117.185222 51.847273 
L 117.134936 50.829091 
L 117.081214 49.810909 
L 117.024033 48.792727 
L 116.963427 47.774545 
L 116.899496 46.756364 
L 116.83241 45.738182 
L 116.762424 44.72 
L 116.689877 43.701818 
L 116.615202 42.683636 
L 116.538931 41.665455 
L 116.46169 40.647273 
L 116.384202 39.629091 
L 116.30728 38.610909 
L 116.231822 37.592727 
L 116.158794 36.574545 
L 116.089217 35.556364 
L 116.024151 34.538182 
L 115.964669 33.52 
L 115.911837 32.501818 
L 115.866685 31.483636 
L 115.830181 30.465455 
L 115.803208 29.447273 
L 115.786531 28.429091 
L 115.780781 27.410909 
L 115.786429 26.392727 
L 115.80377 25.374545 
L 115.83291 24.356364 
L 115.873762 23.338182 
L 115.92604 22.32 
L 120.95396 22.32 
L 120.95396 22.32 
L 121.006238 23.338182 
L 121.04709 24.356364 
L 121.07623 25.374545 
L 121.093571 26.392727 
L 121.099219 27.410909 
L 121.093469 28.429091 
L 121.076792 29.447273 
L 121.049819 30.465455 
L 121.013315 31.483636 
L 120.968163 32.501818 
L 120.915331 33.52 
L 120.855849 34.538182 
L 120.790783 35.556364 
L 120.721206 36.574545 
L 120.648178 37.592727 
L 120.57272 38.610909 
L 120.495798 39.629091 
L 120.41831 40.647273 
L 120.341069 41.665455 
L 120.264798 42.683636 
L 120.190123 43.701818 
L 120.117576 44.72 
L 120.04759 45.738182 
L 119.980504 46.756364 
L 119.916573 47.774545 
L 119.855967 48.792727 
L 119.798786 49.810909 
L 119.745064 50.829091 
L 119.694778 51.847273 
L 119.647859 52.865455 
L 119.604197 53.883636 
L 119.563652 54.901818 
L 119.526056 55.92 
L 119.491225 56.938182 
L 119.458961 57.956364 
L 119.429058 58.974545 
L 119.401308 59.992727 
L 119.375502 61.010909 
L 119.351436 62.029091 
L 119.328914 63.047273 
L 119.307751 64.065455 
L 119.287774 65.083636 
L 119.268827 66.101818 
L 119.250771 67.12 
L 119.23349 68.138182 
L 119.216885 69.156364 
L 119.200886 70.174545 
L 119.185444 71.192727 
L 119.170535 72.210909 
L 119.156161 73.229091 
L 119.14235 74.247273 
L 119.129153 75.265455 
L 119.116644 76.283636 
L 119.104922 77.301818 
L 119.094103 78.32 
L 119.084328 79.338182 
L 119.075751 80.356364 
L 119.068547 81.374545 
L 119.062903 82.392727 
L 119.059024 83.410909 
L 119.057127 84.429091 
L 119.057445 85.447273 
L 119.060224 86.465455 
L 119.065721 87.483636 
L 119.074209 88.501818 
L 119.085971 89.52 
L 119.101303 90.538182 
L 119.120509 91.556364 
L 119.143895 92.574545 
L 119.171772 93.592727 
L 119.204441 94.610909 
L 119.242192 95.629091 
L 119.285289 96.647273 
L 119.333958 97.665455 
L 119.388379 98.683636 
L 119.448667 99.701818 
L 119.514857 100.72 
L 119.586888 101.738182 
L 119.66459 102.756364 
L 119.74767 103.774545 
L 119.835697 104.792727 
L 119.928094 105.810909 
L 120.024137 106.829091 
L 120.122947 107.847273 
L 120.2235 108.865455 
L 120.324634 109.883636 
L 120.425067 110.901818 
L 120.523413 111.92 
L 120.618216 112.938182 
L 120.707974 113.956364 
L 120.79118 114.974545 
L 120.866353 115.992727 
L 120.932087 117.010909 
L 120.987081 118.029091 
L 121.030183 119.047273 
L 121.060421 120.065455 
L 121.077036 121.083636 
L 121.079506 122.101818 
L 121.067561 123.12 
z
" clip-path="url(#pf06cadaa09)" style="fill: #306c53; fill-opacity: 0.5"/>
   </g>
   <g id="FillBetweenPolyCollection_9">
    <path d="M 126.596355 122.98275 
L 123.037931 122.98275 
L 122.814999 122.455359 
L 122.597224 121.927967 
L 122.390551 121.400576 
L 122.200608 120.873184 
L 122.032411 120.345793 
L 121.89014 119.818401 
L 121.77699 119.29101 
L 121.695109 118.763618 
L 121.645599 118.236226 
L 121.628571 117.708835 
L 121.643228 117.181443 
L 121.687946 116.654052 
L 121.760368 116.12666 
L 121.857477 115.599269 
L 121.975687 115.071877 
L 122.110934 114.544486 
L 122.258804 114.017094 
L 122.414683 113.489703 
L 122.573944 112.962311 
L 122.732158 112.434919 
L 122.885298 111.907528 
L 123.029933 111.380136 
L 123.163375 110.852745 
L 123.283773 110.325353 
L 123.390134 109.797962 
L 123.482282 109.27057 
L 123.560753 108.743179 
L 123.626654 108.215787 
L 123.681492 107.688395 
L 123.727007 107.161004 
L 123.765017 106.633612 
L 123.797286 106.106221 
L 123.825437 105.578829 
L 123.85089 105.051438 
L 123.874845 104.524046 
L 123.898284 103.996655 
L 123.921995 103.469263 
L 123.946597 102.941871 
L 123.972579 102.41448 
L 124.000311 101.887088 
L 124.030063 101.359697 
L 124.062005 100.832305 
L 124.096192 100.304914 
L 124.13256 99.777522 
L 124.170915 99.250131 
L 124.210928 98.722739 
L 124.252147 98.195347 
L 124.294021 97.667956 
L 124.335933 97.140564 
L 124.377242 96.613173 
L 124.417335 96.085781 
L 124.455666 95.55839 
L 124.491796 95.030998 
L 124.525418 94.503607 
L 124.556368 93.976215 
L 124.584619 93.448824 
L 124.610264 92.921432 
L 124.633484 92.39404 
L 124.654519 91.866649 
L 124.673627 91.339257 
L 124.691057 90.811866 
L 124.70702 90.284474 
L 124.721676 89.757083 
L 124.735133 89.229691 
L 124.747447 88.7023 
L 124.758638 88.174908 
L 124.768704 87.647516 
L 124.777638 87.120125 
L 124.785441 86.592733 
L 124.792134 86.065342 
L 124.797762 85.53795 
L 124.802395 85.010559 
L 124.806122 84.483167 
L 124.809045 83.955776 
L 124.811272 83.428384 
L 124.812906 82.900992 
L 124.814041 82.373601 
L 124.814749 81.846209 
L 124.815085 81.318818 
L 124.815076 80.791426 
L 124.814725 80.264035 
L 124.81401 79.736643 
L 124.812888 79.209252 
L 124.811299 78.68186 
L 124.809175 78.154469 
L 124.806449 77.627077 
L 124.803068 77.099685 
L 124.799002 76.572294 
L 124.794262 76.044902 
L 124.78891 75.517511 
L 124.783066 74.990119 
L 124.776912 74.462728 
L 124.770686 73.935336 
L 124.76467 73.407945 
L 124.759173 72.880553 
L 124.754502 72.353161 
L 124.750937 71.82577 
L 124.748702 71.298378 
L 124.74794 70.770987 
L 124.886346 70.770987 
L 124.886346 70.770987 
L 124.885584 71.298378 
L 124.883348 71.82577 
L 124.879783 72.353161 
L 124.875113 72.880553 
L 124.869616 73.407945 
L 124.8636 73.935336 
L 124.857374 74.462728 
L 124.85122 74.990119 
L 124.845376 75.517511 
L 124.840024 76.044902 
L 124.835284 76.572294 
L 124.831218 77.099685 
L 124.827836 77.627077 
L 124.825111 78.154469 
L 124.822987 78.68186 
L 124.821398 79.209252 
L 124.820276 79.736643 
L 124.819561 80.264035 
L 124.81921 80.791426 
L 124.819201 81.318818 
L 124.819537 81.846209 
L 124.820245 82.373601 
L 124.821379 82.900992 
L 124.823014 83.428384 
L 124.825241 83.955776 
L 124.828164 84.483167 
L 124.831891 85.010559 
L 124.836524 85.53795 
L 124.842152 86.065342 
L 124.848845 86.592733 
L 124.856648 87.120125 
L 124.865582 87.647516 
L 124.875648 88.174908 
L 124.886839 88.7023 
L 124.899153 89.229691 
L 124.912609 89.757083 
L 124.927266 90.284474 
L 124.943228 90.811866 
L 124.960658 91.339257 
L 124.979767 91.866649 
L 125.000802 92.39404 
L 125.024022 92.921432 
L 125.049666 93.448824 
L 125.077917 93.976215 
L 125.108868 94.503607 
L 125.14249 95.030998 
L 125.17862 95.55839 
L 125.216951 96.085781 
L 125.257043 96.613173 
L 125.298353 97.140564 
L 125.340265 97.667956 
L 125.382139 98.195347 
L 125.423358 98.722739 
L 125.463371 99.250131 
L 125.501725 99.777522 
L 125.538094 100.304914 
L 125.572281 100.832305 
L 125.604222 101.359697 
L 125.633975 101.887088 
L 125.661707 102.41448 
L 125.687688 102.941871 
L 125.712291 103.469263 
L 125.736001 103.996655 
L 125.759441 104.524046 
L 125.783396 105.051438 
L 125.808849 105.578829 
L 125.836999 106.106221 
L 125.869269 106.633612 
L 125.907278 107.161004 
L 125.952794 107.688395 
L 126.007632 108.215787 
L 126.073533 108.743179 
L 126.152004 109.27057 
L 126.244152 109.797962 
L 126.350513 110.325353 
L 126.470911 110.852745 
L 126.604353 111.380136 
L 126.748987 111.907528 
L 126.902127 112.434919 
L 127.060341 112.962311 
L 127.219603 113.489703 
L 127.375482 114.017094 
L 127.523351 114.544486 
L 127.658599 115.071877 
L 127.776809 115.599269 
L 127.873918 116.12666 
L 127.946339 116.654052 
L 127.991058 117.181443 
L 128.005714 117.708835 
L 127.988687 118.236226 
L 127.939177 118.763618 
L 127.857296 119.29101 
L 127.744146 119.818401 
L 127.601875 120.345793 
L 127.433678 120.873184 
L 127.243735 121.400576 
L 127.037061 121.927967 
L 126.819286 122.455359 
L 126.596355 122.98275 
z
" clip-path="url(#pf06cadaa09)" style="fill: #dfa33c; fill-opacity: 0.5"/>
   </g>
   <g id="patch_3">
    <path d="M 25.971429 123.12 
L 25.971429 123.12 
L 25.971429 123.12 
L 25.971429 123.12 
z
" clip-path="url(#pf06cadaa09)" style="fill: #306c53; opacity: 0.5"/>
   </g>
   <g id="patch_4">
    <path d="M 25.971429 123.12 
L 25.971429 123.12 
L 25.971429 123.12 
L 25.971429 123.12 
z
" clip-path="url(#pf06cadaa09)" style="fill: #dfa33c; opacity: 0.5"/>
   </g>
   <g id="matplotlib.axis_1">
    <g id="xtick_1">
     <g id="line2d_1">
      <defs>
       <path id="me562e35331" d="M 0 0 
L 0 1.7 
" style="stroke: #000000; stroke-width: 0.25"/>
      </defs>
      <g>
       <use xlink:href="#me562e35331" x="25.971429" y="128.16" style="stroke: #000000; stroke-width: 0.25"/>
      </g>
     </g>
     <g id="text_1">
      <text style="font-size: 6px; font-family: 'Arial'; text-anchor: middle" x="25.971429" y="135.654687" transform="rotate(-0 25.971429 135.654687)">0.0</text>
     </g>
    </g>
    <g id="xtick_2">
     <g id="line2d_2">
      <g>
       <use xlink:href="#me562e35331" x="41.914286" y="128.16" style="stroke: #000000; stroke-width: 0.25"/>
      </g>
     </g>
     <g id="text_2">
      <text style="font-size: 6px; font-family: 'Arial'; text-anchor: middle" x="41.914286" y="135.654687" transform="rotate(-0 41.914286 135.654687)">0.05</text>
     </g>
    </g>
    <g id="xtick_3">
     <g id="line2d_3">
      <g>
       <use xlink:href="#me562e35331" x="57.857143" y="128.16" style="stroke: #000000; stroke-width: 0.25"/>
      </g>
     </g>
     <g id="text_3">
      <text style="font-size: 6px; font-family: 'Arial'; text-anchor: middle" x="57.857143" y="135.654687" transform="rotate(-0 57.857143 135.654687)">0.1</text>
     </g>
    </g>
    <g id="xtick_4">
     <g id="line2d_4">
      <g>
       <use xlink:href="#me562e35331" x="73.8" y="128.16" style="stroke: #000000; stroke-width: 0.25"/>
      </g>
     </g>
     <g id="text_4">
      <text style="font-size: 6px; font-family: 'Arial'; text-anchor: middle" x="73.8" y="135.654687" transform="rotate(-0 73.8 135.654687)">0.15</text>
     </g>
    </g>
    <g id="xtick_5">
     <g id="line2d_5">
      <g>
       <use xlink:href="#me562e35331" x="89.742857" y="128.16" style="stroke: #000000; stroke-width: 0.25"/>
      </g>
     </g>
     <g id="text_5">
      <text style="font-size: 6px; font-family: 'Arial'; text-anchor: middle" x="89.742857" y="135.654687" transform="rotate(-0 89.742857 135.654687)">0.2</text>
     </g>
    </g>
    <g id="xtick_6">
     <g id="line2d_6">
      <g>
       <use xlink:href="#me562e35331" x="105.685714" y="128.16" style="stroke: #000000; stroke-width: 0.25"/>
      </g>
     </g>
     <g id="text_6">
      <text style="font-size: 6px; font-family: 'Arial'; text-anchor: middle" x="105.685714" y="135.654687" transform="rotate(-0 105.685714 135.654687)">0.3</text>
     </g>
    </g>
    <g id="xtick_7">
     <g id="line2d_7">
      <g>
       <use xlink:href="#me562e35331" x="121.628571" y="128.16" style="stroke: #000000; stroke-width: 0.25"/>
      </g>
     </g>
     <g id="text_7">
      <text style="font-size: 6px; font-family: 'Arial'; text-anchor: middle" x="121.628571" y="135.654687" transform="rotate(-0 121.628571 135.654687)">0.5</text>
     </g>
    </g>
    <g id="text_8">
     <text style="font-size: 8px; font-family: 'Arial'; text-anchor: middle" x="73.8" y="144.073438" transform="rotate(-0 73.8 144.073438)">noiseStd</text>
    </g>
   </g>
   <g id="matplotlib.axis_2">
    <g id="ytick_1">
     <g id="line2d_8">
      <defs>
       <path id="m80030f894f" d="M 0 0 
L -1.7 0 
" style="stroke: #000000; stroke-width: 0.25"/>
      </defs>
      <g>
       <use xlink:href="#m80030f894f" x="18" y="123.12" style="stroke: #000000; stroke-width: 0.25"/>
      </g>
     </g>
     <g id="text_9">
      <text style="font-size: 6px; font-family: 'Arial'; text-anchor: end" x="14.8" y="125.267344" transform="rotate(-0 14.8 125.267344)">0.0</text>
     </g>
    </g>
    <g id="ytick_2">
     <g id="line2d_9">
      <g>
       <use xlink:href="#m80030f894f" x="18" y="102.96" style="stroke: #000000; stroke-width: 0.25"/>
      </g>
     </g>
     <g id="text_10">
      <text style="font-size: 6px; font-family: 'Arial'; text-anchor: end" x="14.8" y="105.107344" transform="rotate(-0 14.8 105.107344)">0.2</text>
     </g>
    </g>
    <g id="ytick_3">
     <g id="line2d_10">
      <g>
       <use xlink:href="#m80030f894f" x="18" y="82.8" style="stroke: #000000; stroke-width: 0.25"/>
      </g>
     </g>
     <g id="text_11">
      <text style="font-size: 6px; font-family: 'Arial'; text-anchor: end" x="14.8" y="84.947344" transform="rotate(-0 14.8 84.947344)">0.4</text>
     </g>
    </g>
    <g id="ytick_4">
     <g id="line2d_11">
      <g>
       <use xlink:href="#m80030f894f" x="18" y="62.64" style="stroke: #000000; stroke-width: 0.25"/>
      </g>
     </g>
     <g id="text_12">
      <text style="font-size: 6px; font-family: 'Arial'; text-anchor: end" x="14.8" y="64.787344" transform="rotate(-0 14.8 64.787344)">0.6</text>
     </g>
    </g>
    <g id="ytick_5">
     <g id="line2d_12">
      <g>
       <use xlink:href="#m80030f894f" x="18" y="42.48" style="stroke: #000000; stroke-width: 0.25"/>
      </g>
     </g>
     <g id="text_13">
      <text style="font-size: 6px; font-family: 'Arial'; text-anchor: end" x="14.8" y="44.627344" transform="rotate(-0 14.8 44.627344)">0.8</text>
     </g>
    </g>
    <g id="ytick_6">
     <g id="line2d_13">
      <g>
       <use xlink:href="#m80030f894f" x="18" y="22.32" style="stroke: #000000; stroke-width: 0.25"/>
      </g>
     </g>
     <g id="text_14">
      <text style="font-size: 6px; font-family: 'Arial'; text-anchor: end" x="14.8" y="24.467344" transform="rotate(-0 14.8 24.467344)">1.0</text>
     </g>
    </g>
    <g id="text_15">
     <text style="font-size: 8px; font-family: 'Arial'; text-anchor: middle" x="3.37" y="72.72" transform="rotate(-90 3.37 72.72)">score</text>
    </g>
   </g>
   <g id="patch_5">
    <path d="M 18 128.16 
L 18 17.28 
" style="fill: none; stroke: #000000; stroke-width: 0.25; stroke-linejoin: miter; stroke-linecap: square"/>
   </g>
   <g id="patch_6">
    <path d="M 18 128.16 
L 129.6 128.16 
" style="fill: none; stroke: #000000; stroke-width: 0.25; stroke-linejoin: miter; stroke-linecap: square"/>
   </g>
  </g>
 </g>
 <defs>
  <clipPath id="pf06cadaa09">
   <rect x="18" y="17.28" width="111.6" height="110.88"/>
  </clipPath>
 </defs>
</svg>
