<?xml version="1.0" encoding="utf-8" standalone="no"?>
<!DOCTYPE svg PUBLIC "-//W3C//DTD SVG 1.1//EN"
  "http://www.w3.org/Graphics/SVG/1.1/DTD/svg11.dtd">
<svg xmlns:xlink="http://www.w3.org/1999/xlink" width="93.6pt" height="122.4pt" viewBox="0 0 93.6 122.4" xmlns="http://www.w3.org/2000/svg" version="1.1">
 <metadata>
  <rdf:RDF xmlns:dc="http://purl.org/dc/elements/1.1/" xmlns:cc="http://creativecommons.org/ns#" xmlns:rdf="http://www.w3.org/1999/02/22-rdf-syntax-ns#">
   <cc:Work>
    <dc:type rdf:resource="http://purl.org/dc/dcmitype/StillImage"/>
    <dc:date>2025-09-09T21:52:24.489698</dc:date>
    <dc:format>image/svg+xml</dc:format>
    <dc:creator>
     <cc:Agent>
      <dc:title>Matplotlib v3.10.3, https://matplotlib.org/</dc:title>
     </cc:Agent>
    </dc:creator>
   </cc:Work>
  </rdf:RDF>
 </metadata>
 <defs>
  <style type="text/css">*{stroke-linejoin: round; stroke-linecap: butt}</style>
 </defs>
 <g id="figure_1">
  <g id="patch_1">
   <path d="M 0 122.4 
L 93.6 122.4 
L 93.6 0 
L 0 0 
L 0 122.4 
z
" style="fill: none"/>
  </g>
  <g id="axes_1">
   <g id="patch_2">
    <path d="M 11.7 32.64 
L 84.24 32.64 
L 84.24 14.688 
L 11.7 14.688 
L 11.7 32.64 
z
" style="fill: none"/>
   </g>
   <g id="patch_3">
    <path d="M 12.736286 32.64 
L 21.026571 32.64 
L 21.026571 32.49975 
L 12.736286 32.49975 
z
" clip-path="url(#p1550b7701d)" style="fill: #498ab2"/>
   </g>
   <g id="patch_4">
    <path d="M 23.099143 32.64 
L 31.389429 32.64 
L 31.389429 32.21925 
L 23.099143 32.21925 
z
" clip-path="url(#p1550b7701d)" style="fill: #498ab2"/>
   </g>
   <g id="patch_5">
    <path d="M 33.462 32.64 
L 41.752286 32.64 
L 41.752286 31.93875 
L 33.462 31.93875 
z
" clip-path="url(#p1550b7701d)" style="fill: #498ab2"/>
   </g>
   <g id="patch_6">
    <path d="M 43.824857 32.64 
L 52.115143 32.64 
L 52.115143 30.53625 
L 43.824857 30.53625 
z
" clip-path="url(#p1550b7701d)" style="fill: #498ab2"/>
   </g>
   <g id="patch_7">
    <path d="M 54.187714 32.64 
L 62.478 32.64 
L 62.478 29.835 
L 54.187714 29.835 
z
" clip-path="url(#p1550b7701d)" style="fill: #498ab2"/>
   </g>
   <g id="patch_8">
    <path d="M 64.550571 32.64 
L 72.840857 32.64 
L 72.840857 26.60925 
L 64.550571 26.60925 
z
" clip-path="url(#p1550b7701d)" style="fill: #498ab2"/>
   </g>
   <g id="patch_9">
    <path d="M 74.913429 32.64 
L 83.203714 32.64 
L 83.203714 15.66975 
L 74.913429 15.66975 
z
" clip-path="url(#p1550b7701d)" style="fill: #498ab2"/>
   </g>
   <g id="patch_10">
    <path d="M 12.736286 32.64 
L 21.026571 32.64 
L 21.026571 32.64 
L 12.736286 32.64 
z
" clip-path="url(#p1550b7701d)" style="fill: #dfa33c"/>
   </g>
   <g id="patch_11">
    <path d="M 23.099143 32.64 
L 31.389429 32.64 
L 31.389429 32.64 
L 23.099143 32.64 
z
" clip-path="url(#p1550b7701d)" style="fill: #dfa33c"/>
   </g>
   <g id="patch_12">
    <path d="M 33.462 32.64 
L 41.752286 32.64 
L 41.752286 32.64 
L 33.462 32.64 
z
" clip-path="url(#p1550b7701d)" style="fill: #dfa33c"/>
   </g>
   <g id="patch_13">
    <path d="M 43.824857 32.64 
L 52.115143 32.64 
L 52.115143 32.64 
L 43.824857 32.64 
z
" clip-path="url(#p1550b7701d)" style="fill: #dfa33c"/>
   </g>
   <g id="patch_14">
    <path d="M 54.187714 32.64 
L 62.478 32.64 
L 62.478 32.64 
L 54.187714 32.64 
z
" clip-path="url(#p1550b7701d)" style="fill: #dfa33c"/>
   </g>
   <g id="patch_15">
    <path d="M 64.550571 32.64 
L 72.840857 32.64 
L 72.840857 31.65825 
L 64.550571 31.65825 
z
" clip-path="url(#p1550b7701d)" style="fill: #dfa33c"/>
   </g>
   <g id="patch_16">
    <path d="M 74.913429 32.64 
L 83.203714 32.64 
L 83.203714 20.71875 
L 74.913429 20.71875 
z
" clip-path="url(#p1550b7701d)" style="fill: #dfa33c"/>
   </g>
   <g id="matplotlib.axis_1">
    <g id="xtick_1">
     <g id="line2d_1">
      <defs>
       <path id="m46b89c2a4c" d="M 0 0 
L 0 1.7 
" style="stroke: #000000; stroke-width: 0.25"/>
      </defs>
      <g>
       <use xlink:href="#m46b89c2a4c" x="16.881429" y="33.64" style="stroke: #000000; stroke-width: 0.25"/>
      </g>
     </g>
    </g>
    <g id="xtick_2">
     <g id="line2d_2">
      <g>
       <use xlink:href="#m46b89c2a4c" x="27.244286" y="33.64" style="stroke: #000000; stroke-width: 0.25"/>
      </g>
     </g>
    </g>
    <g id="xtick_3">
     <g id="line2d_3">
      <g>
       <use xlink:href="#m46b89c2a4c" x="37.607143" y="33.64" style="stroke: #000000; stroke-width: 0.25"/>
      </g>
     </g>
    </g>
    <g id="xtick_4">
     <g id="line2d_4">
      <g>
       <use xlink:href="#m46b89c2a4c" x="47.97" y="33.64" style="stroke: #000000; stroke-width: 0.25"/>
      </g>
     </g>
    </g>
    <g id="xtick_5">
     <g id="line2d_5">
      <g>
       <use xlink:href="#m46b89c2a4c" x="58.332857" y="33.64" style="stroke: #000000; stroke-width: 0.25"/>
      </g>
     </g>
    </g>
    <g id="xtick_6">
     <g id="line2d_6">
      <g>
       <use xlink:href="#m46b89c2a4c" x="68.695714" y="33.64" style="stroke: #000000; stroke-width: 0.25"/>
      </g>
     </g>
    </g>
    <g id="xtick_7">
     <g id="line2d_7">
      <g>
       <use xlink:href="#m46b89c2a4c" x="79.058571" y="33.64" style="stroke: #000000; stroke-width: 0.25"/>
      </g>
     </g>
    </g>
   </g>
   <g id="matplotlib.axis_2">
    <g id="ytick_1">
     <g id="line2d_8">
      <defs>
       <path id="me4e822adb0" d="M 0 0 
L -1.7 0 
" style="stroke: #000000; stroke-width: 0.25"/>
      </defs>
      <g>
       <use xlink:href="#me4e822adb0" x="10.7" y="32.64" style="stroke: #000000; stroke-width: 0.25"/>
      </g>
     </g>
     <g id="text_1">
      <text style="font-size: 6px; font-family: 'Arial'; text-anchor: end" x="7.5" y="34.787344" transform="rotate(-0 7.5 34.787344)">0%</text>
     </g>
    </g>
    <g id="ytick_2">
     <g id="line2d_9">
      <g>
       <use xlink:href="#me4e822adb0" x="10.7" y="14.688" style="stroke: #000000; stroke-width: 0.25"/>
      </g>
     </g>
     <g id="text_2">
      <text style="font-size: 6px; font-family: 'Arial'; text-anchor: end" x="7.5" y="16.835344" transform="rotate(-0 7.5 16.835344)">25%</text>
     </g>
    </g>
   </g>
   <g id="line2d_10">
    <path clip-path="url(#p1550b7701d)" style="fill: none; stroke: #424242; stroke-width: 2.25; stroke-linecap: square"/>
   </g>
   <g id="line2d_11">
    <path clip-path="url(#p1550b7701d)" style="fill: none; stroke: #424242; stroke-width: 2.25; stroke-linecap: square"/>
   </g>
   <g id="line2d_12">
    <path clip-path="url(#p1550b7701d)" style="fill: none; stroke: #424242; stroke-width: 2.25; stroke-linecap: square"/>
   </g>
   <g id="line2d_13">
    <path clip-path="url(#p1550b7701d)" style="fill: none; stroke: #424242; stroke-width: 2.25; stroke-linecap: square"/>
   </g>
   <g id="line2d_14">
    <path clip-path="url(#p1550b7701d)" style="fill: none; stroke: #424242; stroke-width: 2.25; stroke-linecap: square"/>
   </g>
   <g id="line2d_15">
    <path clip-path="url(#p1550b7701d)" style="fill: none; stroke: #424242; stroke-width: 2.25; stroke-linecap: square"/>
   </g>
   <g id="line2d_16">
    <path clip-path="url(#p1550b7701d)" style="fill: none; stroke: #424242; stroke-width: 2.25; stroke-linecap: square"/>
   </g>
   <g id="line2d_17">
    <path clip-path="url(#p1550b7701d)" style="fill: none; stroke: #424242; stroke-width: 2.25; stroke-linecap: square"/>
   </g>
   <g id="line2d_18">
    <path clip-path="url(#p1550b7701d)" style="fill: none; stroke: #424242; stroke-width: 2.25; stroke-linecap: square"/>
   </g>
   <g id="line2d_19">
    <path clip-path="url(#p1550b7701d)" style="fill: none; stroke: #424242; stroke-width: 2.25; stroke-linecap: square"/>
   </g>
   <g id="line2d_20">
    <path clip-path="url(#p1550b7701d)" style="fill: none; stroke: #424242; stroke-width: 2.25; stroke-linecap: square"/>
   </g>
   <g id="line2d_21">
    <path clip-path="url(#p1550b7701d)" style="fill: none; stroke: #424242; stroke-width: 2.25; stroke-linecap: square"/>
   </g>
   <g id="line2d_22">
    <path clip-path="url(#p1550b7701d)" style="fill: none; stroke: #424242; stroke-width: 2.25; stroke-linecap: square"/>
   </g>
   <g id="line2d_23">
    <path clip-path="url(#p1550b7701d)" style="fill: none; stroke: #424242; stroke-width: 2.25; stroke-linecap: square"/>
   </g>
   <g id="patch_17">
    <path d="M 10.7 32.64 
L 10.7 14.688 
" style="fill: none; stroke: #000000; stroke-width: 0.25; stroke-linejoin: miter; stroke-linecap: square"/>
   </g>
   <g id="patch_18">
    <path d="M 11.7 33.64 
L 84.24 33.64 
" style="fill: none; stroke: #000000; stroke-width: 0.25; stroke-linejoin: miter; stroke-linecap: square"/>
   </g>
  </g>
  <g id="axes_2">
   <g id="patch_19">
    <path d="M 11.7 108.936 
L 84.24 108.936 
L 84.24 37.128 
L 11.7 37.128 
L 11.7 108.936 
z
" style="fill: none"/>
   </g>
   <g id="FillBetweenPolyCollection_1">
    <path d="M 14.814484 105.672 
L 14.80323 105.672 
L 14.804034 105.012606 
L 14.805821 104.353212 
L 14.807453 103.693818 
L 14.80838 103.034424 
L 14.808738 102.37503 
L 14.808835 101.715636 
L 14.808854 101.056242 
L 14.808857 100.396848 
L 14.808857 99.737455 
L 14.808857 99.078061 
L 14.808857 98.418667 
L 14.808857 97.759273 
L 14.808857 97.099879 
L 14.808857 96.440485 
L 14.808857 95.781091 
L 14.808857 95.121697 
L 14.808857 94.462303 
L 14.808857 93.802909 
L 14.808857 93.143515 
L 14.808857 92.484121 
L 14.808857 91.824727 
L 14.808857 91.165333 
L 14.808857 90.505939 
L 14.808857 89.846545 
L 14.808857 89.187152 
L 14.808857 88.527758 
L 14.808857 87.868364 
L 14.808857 87.20897 
L 14.808857 86.549576 
L 14.808857 85.890182 
L 14.808857 85.230788 
L 14.808857 84.571394 
L 14.808857 83.912 
L 14.808857 83.252606 
L 14.808857 82.593212 
L 14.808857 81.933818 
L 14.808857 81.274424 
L 14.808857 80.61503 
L 14.808857 79.955636 
L 14.808857 79.296242 
L 14.808857 78.636848 
L 14.808857 77.977455 
L 14.808857 77.318061 
L 14.808857 76.658667 
L 14.808857 75.999273 
L 14.808857 75.339879 
L 14.808857 74.680485 
L 14.808857 74.021091 
L 14.808857 73.361697 
L 14.808857 72.702303 
L 14.808857 72.042909 
L 14.808856 71.383515 
L 14.808851 70.724121 
L 14.808817 70.064727 
L 14.808659 69.405333 
L 14.808142 68.745939 
L 14.806964 68.086545 
L 14.805174 67.427152 
L 14.803593 66.767758 
L 14.803331 66.108364 
L 14.804594 65.44897 
L 14.806426 64.789576 
L 14.807752 64.130182 
L 14.80813 63.470788 
L 14.807511 62.811394 
L 14.805996 62.152 
L 14.804187 61.492606 
L 14.803238 60.833212 
L 14.803889 60.173818 
L 14.805615 59.514424 
L 14.807203 58.85503 
L 14.807749 58.195636 
L 14.806655 57.536242 
L 14.803255 56.876848 
L 14.797529 56.217455 
L 14.791269 55.558061 
L 14.787083 54.898667 
L 14.785143 54.239273 
L 14.782005 53.579879 
L 14.774214 52.920485 
L 14.762882 52.261091 
L 14.75359 51.601697 
L 14.751078 50.942303 
L 14.753729 50.282909 
L 14.752696 49.623515 
L 14.736638 48.964121 
L 14.69954 48.304727 
L 14.64631 47.645333 
L 14.590339 46.985939 
L 14.543132 46.326545 
L 14.505931 45.667152 
L 14.472405 45.007758 
L 14.434902 44.348364 
L 14.375163 43.68897 
L 14.236449 43.029576 
L 13.922958 42.370182 
L 13.406081 41.710788 
L 12.887341 41.051394 
L 12.736286 40.392 
L 16.881429 40.392 
L 16.881429 40.392 
L 16.730373 41.051394 
L 16.211633 41.710788 
L 15.694756 42.370182 
L 15.381266 43.029576 
L 15.242551 43.68897 
L 15.182812 44.348364 
L 15.145309 45.007758 
L 15.111784 45.667152 
L 15.074583 46.326545 
L 15.027376 46.985939 
L 14.971404 47.645333 
L 14.918174 48.304727 
L 14.881076 48.964121 
L 14.865018 49.623515 
L 14.863986 50.282909 
L 14.866636 50.942303 
L 14.864124 51.601697 
L 14.854833 52.261091 
L 14.843501 52.920485 
L 14.835709 53.579879 
L 14.832571 54.239273 
L 14.830631 54.898667 
L 14.826445 55.558061 
L 14.820185 56.217455 
L 14.814459 56.876848 
L 14.81106 57.536242 
L 14.809965 58.195636 
L 14.810512 58.85503 
L 14.8121 59.514424 
L 14.813826 60.173818 
L 14.814476 60.833212 
L 14.813527 61.492606 
L 14.811718 62.152 
L 14.810203 62.811394 
L 14.809585 63.470788 
L 14.809963 64.130182 
L 14.811288 64.789576 
L 14.81312 65.44897 
L 14.814384 66.108364 
L 14.814122 66.767758 
L 14.812541 67.427152 
L 14.81075 68.086545 
L 14.809572 68.745939 
L 14.809055 69.405333 
L 14.808898 70.064727 
L 14.808863 70.724121 
L 14.808858 71.383515 
L 14.808857 72.042909 
L 14.808857 72.702303 
L 14.808857 73.361697 
L 14.808857 74.021091 
L 14.808857 74.680485 
L 14.808857 75.339879 
L 14.808857 75.999273 
L 14.808857 76.658667 
L 14.808857 77.318061 
L 14.808857 77.977455 
L 14.808857 78.636848 
L 14.808857 79.296242 
L 14.808857 79.955636 
L 14.808857 80.61503 
L 14.808857 81.274424 
L 14.808857 81.933818 
L 14.808857 82.593212 
L 14.808857 83.252606 
L 14.808857 83.912 
L 14.808857 84.571394 
L 14.808857 85.230788 
L 14.808857 85.890182 
L 14.808857 86.549576 
L 14.808857 87.20897 
L 14.808857 87.868364 
L 14.808857 88.527758 
L 14.808857 89.187152 
L 14.808857 89.846545 
L 14.808857 90.505939 
L 14.808857 91.165333 
L 14.808857 91.824727 
L 14.808857 92.484121 
L 14.808857 93.143515 
L 14.808857 93.802909 
L 14.808857 94.462303 
L 14.808857 95.121697 
L 14.808857 95.781091 
L 14.808857 96.440485 
L 14.808857 97.099879 
L 14.808857 97.759273 
L 14.808857 98.418667 
L 14.808857 99.078061 
L 14.808857 99.737455 
L 14.808857 100.396848 
L 14.80886 101.056242 
L 14.808879 101.715636 
L 14.808976 102.37503 
L 14.809334 103.034424 
L 14.810261 103.693818 
L 14.811893 104.353212 
L 14.81368 105.012606 
L 14.814484 105.672 
z
" clip-path="url(#pae39136a4f)" style="fill: #306c53"/>
   </g>
   <g id="FillBetweenPolyCollection_2">
    <path d="M 25.194278 105.672 
L 25.14915 105.672 
L 25.15059 105.012606 
L 25.154381 104.353212 
L 25.159248 103.693818 
L 25.163856 103.034424 
L 25.167373 102.37503 
L 25.169612 101.715636 
L 25.170822 101.056242 
L 25.171382 100.396848 
L 25.171606 99.737455 
L 25.171683 99.078061 
L 25.171707 98.418667 
L 25.171713 97.759273 
L 25.171714 97.099879 
L 25.171714 96.440485 
L 25.171714 95.781091 
L 25.171714 95.121697 
L 25.171714 94.462303 
L 25.171714 93.802909 
L 25.171714 93.143515 
L 25.171714 92.484121 
L 25.171714 91.824727 
L 25.171714 91.165333 
L 25.171714 90.505939 
L 25.171714 89.846545 
L 25.171714 89.187152 
L 25.171714 88.527758 
L 25.171714 87.868364 
L 25.171714 87.20897 
L 25.171714 86.549576 
L 25.171714 85.890182 
L 25.171714 85.230788 
L 25.171714 84.571394 
L 25.171714 83.912 
L 25.171714 83.252606 
L 25.171714 82.593212 
L 25.171714 81.933818 
L 25.171714 81.274424 
L 25.171714 80.61503 
L 25.171714 79.955636 
L 25.171714 79.296242 
L 25.171714 78.636848 
L 25.171714 77.977455 
L 25.171714 77.318061 
L 25.171714 76.658667 
L 25.171714 75.999273 
L 25.171714 75.339879 
L 25.171714 74.680485 
L 25.171714 74.021091 
L 25.171714 73.361697 
L 25.171714 72.702303 
L 25.171714 72.042909 
L 25.171714 71.383515 
L 25.171714 70.724121 
L 25.171714 70.064727 
L 25.171714 69.405333 
L 25.171714 68.745939 
L 25.171714 68.086545 
L 25.171714 67.427152 
L 25.171714 66.767758 
L 25.171714 66.108364 
L 25.171714 65.44897 
L 25.171714 64.789576 
L 25.171714 64.130182 
L 25.171714 63.470788 
L 25.171713 62.811394 
L 25.17171 62.152 
L 25.171697 61.492606 
L 25.171656 60.833212 
L 25.171539 60.173818 
L 25.171244 59.514424 
L 25.170591 58.85503 
L 25.169307 58.195636 
L 25.167049 57.536242 
L 25.163464 56.876848 
L 25.15824 56.217455 
L 25.151127 55.558061 
L 25.1419 54.898667 
L 25.130321 54.239273 
L 25.116168 53.579879 
L 25.099311 52.920485 
L 25.079766 52.261091 
L 25.057554 51.601697 
L 25.032383 50.942303 
L 25.003346 50.282909 
L 24.969036 49.623515 
L 24.928252 48.964121 
L 24.880963 48.304727 
L 24.82873 47.645333 
L 24.773854 46.985939 
L 24.717026 46.326545 
L 24.653861 45.667152 
L 24.571428 45.007758 
L 24.447276 44.348364 
L 24.255258 43.68897 
L 23.981694 43.029576 
L 23.647937 42.370182 
L 23.323564 41.710788 
L 23.11098 41.051394 
L 23.099143 40.392 
L 27.244286 40.392 
L 27.244286 40.392 
L 27.232449 41.051394 
L 27.019865 41.710788 
L 26.695491 42.370182 
L 26.361734 43.029576 
L 26.088171 43.68897 
L 25.896152 44.348364 
L 25.772001 45.007758 
L 25.689568 45.667152 
L 25.626403 46.326545 
L 25.569575 46.985939 
L 25.514699 47.645333 
L 25.462465 48.304727 
L 25.415176 48.964121 
L 25.374393 49.623515 
L 25.340083 50.282909 
L 25.311045 50.942303 
L 25.285874 51.601697 
L 25.263663 52.261091 
L 25.244118 52.920485 
L 25.227261 53.579879 
L 25.213107 54.239273 
L 25.201529 54.898667 
L 25.192302 55.558061 
L 25.185189 56.217455 
L 25.179965 56.876848 
L 25.176379 57.536242 
L 25.174122 58.195636 
L 25.172837 58.85503 
L 25.172184 59.514424 
L 25.17189 60.173818 
L 25.171772 60.833212 
L 25.171731 61.492606 
L 25.171719 62.152 
L 25.171715 62.811394 
L 25.171714 63.470788 
L 25.171714 64.130182 
L 25.171714 64.789576 
L 25.171714 65.44897 
L 25.171714 66.108364 
L 25.171714 66.767758 
L 25.171714 67.427152 
L 25.171714 68.086545 
L 25.171714 68.745939 
L 25.171714 69.405333 
L 25.171714 70.064727 
L 25.171714 70.724121 
L 25.171714 71.383515 
L 25.171714 72.042909 
L 25.171714 72.702303 
L 25.171714 73.361697 
L 25.171714 74.021091 
L 25.171714 74.680485 
L 25.171714 75.339879 
L 25.171714 75.999273 
L 25.171714 76.658667 
L 25.171714 77.318061 
L 25.171714 77.977455 
L 25.171714 78.636848 
L 25.171714 79.296242 
L 25.171714 79.955636 
L 25.171714 80.61503 
L 25.171714 81.274424 
L 25.171714 81.933818 
L 25.171714 82.593212 
L 25.171714 83.252606 
L 25.171714 83.912 
L 25.171714 84.571394 
L 25.171714 85.230788 
L 25.171714 85.890182 
L 25.171714 86.549576 
L 25.171714 87.20897 
L 25.171714 87.868364 
L 25.171714 88.527758 
L 25.171714 89.187152 
L 25.171714 89.846545 
L 25.171714 90.505939 
L 25.171714 91.165333 
L 25.171714 91.824727 
L 25.171714 92.484121 
L 25.171714 93.143515 
L 25.171714 93.802909 
L 25.171714 94.462303 
L 25.171714 95.121697 
L 25.171714 95.781091 
L 25.171714 96.440485 
L 25.171715 97.099879 
L 25.171716 97.759273 
L 25.171722 98.418667 
L 25.171745 99.078061 
L 25.171822 99.737455 
L 25.172046 100.396848 
L 25.172606 101.056242 
L 25.173817 101.715636 
L 25.176056 102.37503 
L 25.179572 103.034424 
L 25.18418 103.693818 
L 25.189048 104.353212 
L 25.192839 105.012606 
L 25.194278 105.672 
z
" clip-path="url(#pae39136a4f)" style="fill: #306c53"/>
   </g>
   <g id="FillBetweenPolyCollection_3">
    <path d="M 35.579942 105.672 
L 35.489201 105.672 
L 35.489765 105.012606 
L 35.492879 104.353212 
L 35.49795 103.693818 
L 35.504138 103.034424 
L 35.510585 102.37503 
L 35.516593 101.715636 
L 35.521724 101.056242 
L 35.525798 100.396848 
L 35.528838 99.737455 
L 35.530983 99.078061 
L 35.532421 98.418667 
L 35.533339 97.759273 
L 35.533898 97.099879 
L 35.534221 96.440485 
L 35.534398 95.781091 
L 35.534491 95.121697 
L 35.534536 94.462303 
L 35.534557 93.802909 
L 35.534566 93.143515 
L 35.534569 92.484121 
L 35.534571 91.824727 
L 35.534571 91.165333 
L 35.534571 90.505939 
L 35.534571 89.846545 
L 35.534571 89.187152 
L 35.534571 88.527758 
L 35.534571 87.868364 
L 35.534571 87.20897 
L 35.534571 86.549576 
L 35.534571 85.890182 
L 35.534571 85.230788 
L 35.534571 84.571394 
L 35.534571 83.912 
L 35.534571 83.252606 
L 35.534571 82.593212 
L 35.534571 81.933818 
L 35.534571 81.274424 
L 35.534571 80.61503 
L 35.534571 79.955636 
L 35.534571 79.296242 
L 35.534571 78.636848 
L 35.534571 77.977455 
L 35.534571 77.318061 
L 35.53457 76.658667 
L 35.534569 75.999273 
L 35.534564 75.339879 
L 35.534554 74.680485 
L 35.534531 74.021091 
L 35.534484 73.361697 
L 35.534395 72.702303 
L 35.534237 72.042909 
L 35.533979 71.383515 
L 35.533589 70.724121 
L 35.533045 70.064727 
L 35.532353 69.405333 
L 35.531553 68.745939 
L 35.530728 68.086545 
L 35.529989 67.427152 
L 35.529457 66.767758 
L 35.529223 66.108364 
L 35.529324 65.44897 
L 35.529721 64.789576 
L 35.530305 64.130182 
L 35.530913 63.470788 
L 35.531354 62.811394 
L 35.531432 62.152 
L 35.530965 61.492606 
L 35.529799 60.833212 
L 35.527813 60.173818 
L 35.52493 59.514424 
L 35.521104 58.85503 
L 35.516291 58.195636 
L 35.510401 57.536242 
L 35.503248 56.876848 
L 35.494512 56.217455 
L 35.483755 55.558061 
L 35.470487 54.898667 
L 35.454254 54.239273 
L 35.434718 53.579879 
L 35.411678 52.920485 
L 35.385028 52.261091 
L 35.354641 51.601697 
L 35.320252 50.942303 
L 35.281359 50.282909 
L 35.237184 49.623515 
L 35.18662 48.964121 
L 35.128092 48.304727 
L 35.059198 47.645333 
L 34.976217 46.985939 
L 34.873777 46.326545 
L 34.745278 45.667152 
L 34.584676 45.007758 
L 34.38978 44.348364 
L 34.166334 43.68897 
L 33.93117 43.029576 
L 33.712331 42.370182 
L 33.544766 41.710788 
L 33.462 41.051394 
L 33.486342 40.392 
L 37.582801 40.392 
L 37.582801 40.392 
L 37.607143 41.051394 
L 37.524377 41.710788 
L 37.356811 42.370182 
L 37.137973 43.029576 
L 36.902809 43.68897 
L 36.679363 44.348364 
L 36.484467 45.007758 
L 36.323864 45.667152 
L 36.195365 46.326545 
L 36.092925 46.985939 
L 36.009945 47.645333 
L 35.941051 48.304727 
L 35.882523 48.964121 
L 35.831959 49.623515 
L 35.787783 50.282909 
L 35.748891 50.942303 
L 35.714502 51.601697 
L 35.684115 52.261091 
L 35.657465 52.920485 
L 35.634425 53.579879 
L 35.614889 54.239273 
L 35.598656 54.898667 
L 35.585388 55.558061 
L 35.574631 56.217455 
L 35.565895 56.876848 
L 35.558741 57.536242 
L 35.552852 58.195636 
L 35.548039 58.85503 
L 35.544213 59.514424 
L 35.54133 60.173818 
L 35.539344 60.833212 
L 35.538177 61.492606 
L 35.537711 62.152 
L 35.537789 62.811394 
L 35.53823 63.470788 
L 35.538838 64.130182 
L 35.539422 64.789576 
L 35.539819 65.44897 
L 35.53992 66.108364 
L 35.539686 66.767758 
L 35.539154 67.427152 
L 35.538415 68.086545 
L 35.53759 68.745939 
L 35.53679 69.405333 
L 35.536098 70.064727 
L 35.535554 70.724121 
L 35.535164 71.383515 
L 35.534906 72.042909 
L 35.534748 72.702303 
L 35.534659 73.361697 
L 35.534612 74.021091 
L 35.534589 74.680485 
L 35.534579 75.339879 
L 35.534574 75.999273 
L 35.534572 76.658667 
L 35.534572 77.318061 
L 35.534572 77.977455 
L 35.534571 78.636848 
L 35.534571 79.296242 
L 35.534571 79.955636 
L 35.534571 80.61503 
L 35.534571 81.274424 
L 35.534571 81.933818 
L 35.534571 82.593212 
L 35.534571 83.252606 
L 35.534571 83.912 
L 35.534571 84.571394 
L 35.534571 85.230788 
L 35.534571 85.890182 
L 35.534571 86.549576 
L 35.534571 87.20897 
L 35.534571 87.868364 
L 35.534571 88.527758 
L 35.534571 89.187152 
L 35.534571 89.846545 
L 35.534572 90.505939 
L 35.534572 91.165333 
L 35.534572 91.824727 
L 35.534574 92.484121 
L 35.534577 93.143515 
L 35.534586 93.802909 
L 35.534607 94.462303 
L 35.534652 95.121697 
L 35.534744 95.781091 
L 35.534922 96.440485 
L 35.535245 97.099879 
L 35.535804 97.759273 
L 35.536722 98.418667 
L 35.53816 99.078061 
L 35.540305 99.737455 
L 35.543345 100.396848 
L 35.547419 101.056242 
L 35.552549 101.715636 
L 35.558558 102.37503 
L 35.565004 103.034424 
L 35.571193 103.693818 
L 35.576264 104.353212 
L 35.579378 105.012606 
L 35.579942 105.672 
z
" clip-path="url(#pae39136a4f)" style="fill: #306c53"/>
   </g>
   <g id="FillBetweenPolyCollection_4">
    <path d="M 46.093543 105.672 
L 45.701314 105.672 
L 45.701509 105.012606 
L 45.704741 104.353212 
L 45.710809 103.693818 
L 45.719378 103.034424 
L 45.730013 102.37503 
L 45.742208 101.715636 
L 45.755426 101.056242 
L 45.769137 100.396848 
L 45.782851 99.737455 
L 45.796142 99.078061 
L 45.808667 98.418667 
L 45.820175 97.759273 
L 45.830508 97.099879 
L 45.839589 96.440485 
L 45.847415 95.781091 
L 45.854042 95.121697 
L 45.859563 94.462303 
L 45.864098 93.802909 
L 45.867779 93.143515 
L 45.870736 92.484121 
L 45.873094 91.824727 
L 45.874963 91.165333 
L 45.876438 90.505939 
L 45.877599 89.846545 
L 45.878511 89.187152 
L 45.879225 88.527758 
L 45.879781 87.868364 
L 45.880209 87.20897 
L 45.880532 86.549576 
L 45.88077 85.890182 
L 45.880935 85.230788 
L 45.881037 84.571394 
L 45.881085 83.912 
L 45.881083 83.252606 
L 45.881035 82.593212 
L 45.880945 81.933818 
L 45.880815 81.274424 
L 45.880648 80.61503 
L 45.88045 79.955636 
L 45.880226 79.296242 
L 45.879986 78.636848 
L 45.879739 77.977455 
L 45.879497 77.318061 
L 45.879272 76.658667 
L 45.879076 75.999273 
L 45.878918 75.339879 
L 45.878801 74.680485 
L 45.878724 74.021091 
L 45.878675 73.361697 
L 45.878634 72.702303 
L 45.878572 72.042909 
L 45.878449 71.383515 
L 45.878215 70.724121 
L 45.877814 70.064727 
L 45.877184 69.405333 
L 45.87626 68.745939 
L 45.874977 68.086545 
L 45.87327 67.427152 
L 45.871078 66.767758 
L 45.86834 66.108364 
L 45.864999 65.44897 
L 45.861 64.789576 
L 45.85628 64.130182 
L 45.850771 63.470788 
L 45.844393 62.811394 
L 45.837043 62.152 
L 45.828596 61.492606 
L 45.818894 60.833212 
L 45.807737 60.173818 
L 45.794884 59.514424 
L 45.780041 58.85503 
L 45.762857 58.195636 
L 45.742917 57.536242 
L 45.719741 56.876848 
L 45.692776 56.217455 
L 45.661399 55.558061 
L 45.624914 54.898667 
L 45.582564 54.239273 
L 45.533548 53.579879 
L 45.477043 52.920485 
L 45.412253 52.261091 
L 45.338462 51.601697 
L 45.255112 50.942303 
L 45.161896 50.282909 
L 45.058858 49.623515 
L 44.946502 48.964121 
L 44.825895 48.304727 
L 44.698747 47.645333 
L 44.567458 46.985939 
L 44.435115 46.326545 
L 44.305434 45.667152 
L 44.182622 45.007758 
L 44.071191 44.348364 
L 43.975697 43.68897 
L 43.900449 43.029576 
L 43.8492 42.370182 
L 43.824857 41.710788 
L 43.82923 41.051394 
L 43.862859 40.392 
L 47.931998 40.392 
L 47.931998 40.392 
L 47.965627 41.051394 
L 47.97 41.710788 
L 47.945657 42.370182 
L 47.894409 43.029576 
L 47.81916 43.68897 
L 47.723666 44.348364 
L 47.612235 45.007758 
L 47.489423 45.667152 
L 47.359742 46.326545 
L 47.227399 46.985939 
L 47.09611 47.645333 
L 46.968962 48.304727 
L 46.848355 48.964121 
L 46.736 49.623515 
L 46.632961 50.282909 
L 46.539745 50.942303 
L 46.456395 51.601697 
L 46.382604 52.261091 
L 46.317814 52.920485 
L 46.261309 53.579879 
L 46.212293 54.239273 
L 46.169943 54.898667 
L 46.133458 55.558061 
L 46.102081 56.217455 
L 46.075116 56.876848 
L 46.05194 57.536242 
L 46.032 58.195636 
L 46.014816 58.85503 
L 45.999973 59.514424 
L 45.98712 60.173818 
L 45.975964 60.833212 
L 45.966261 61.492606 
L 45.957814 62.152 
L 45.950464 62.811394 
L 45.944086 63.470788 
L 45.938577 64.130182 
L 45.933857 64.789576 
L 45.929858 65.44897 
L 45.926518 66.108364 
L 45.92378 66.767758 
L 45.921587 67.427152 
L 45.91988 68.086545 
L 45.918597 68.745939 
L 45.917673 69.405333 
L 45.917043 70.064727 
L 45.916643 70.724121 
L 45.916409 71.383515 
L 45.916285 72.042909 
L 45.916223 72.702303 
L 45.916182 73.361697 
L 45.916133 74.021091 
L 45.916056 74.680485 
L 45.915939 75.339879 
L 45.915781 75.999273 
L 45.915585 76.658667 
L 45.91536 77.318061 
L 45.915118 77.977455 
L 45.914871 78.636848 
L 45.914631 79.296242 
L 45.914407 79.955636 
L 45.914209 80.61503 
L 45.914043 81.274424 
L 45.913912 81.933818 
L 45.913822 82.593212 
L 45.913774 83.252606 
L 45.913772 83.912 
L 45.91382 84.571394 
L 45.913922 85.230788 
L 45.914087 85.890182 
L 45.914325 86.549576 
L 45.914649 87.20897 
L 45.915076 87.868364 
L 45.915632 88.527758 
L 45.916346 89.187152 
L 45.917258 89.846545 
L 45.918419 90.505939 
L 45.919895 91.165333 
L 45.921763 91.824727 
L 45.924121 92.484121 
L 45.927078 93.143515 
L 45.930759 93.802909 
L 45.935294 94.462303 
L 45.940815 95.121697 
L 45.947442 95.781091 
L 45.955269 96.440485 
L 45.964349 97.099879 
L 45.974682 97.759273 
L 45.98619 98.418667 
L 45.998715 99.078061 
L 46.012006 99.737455 
L 46.02572 100.396848 
L 46.039431 101.056242 
L 46.052649 101.715636 
L 46.064844 102.37503 
L 46.075479 103.034424 
L 46.084048 103.693818 
L 46.090116 104.353212 
L 46.093348 105.012606 
L 46.093543 105.672 
z
" clip-path="url(#pae39136a4f)" style="fill: #306c53"/>
   </g>
   <g id="FillBetweenPolyCollection_5">
    <path d="M 56.6333 105.672 
L 55.887272 105.672 
L 55.886534 105.012606 
L 55.88933 104.353212 
L 55.895522 103.693818 
L 55.904872 103.034424 
L 55.917055 102.37503 
L 55.931676 101.715636 
L 55.948289 101.056242 
L 55.966417 100.396848 
L 55.985575 99.737455 
L 56.005288 99.078061 
L 56.025108 98.418667 
L 56.044631 97.759273 
L 56.063505 97.099879 
L 56.081436 96.440485 
L 56.098198 95.781091 
L 56.113624 95.121697 
L 56.127609 94.462303 
L 56.140102 93.802909 
L 56.1511 93.143515 
L 56.160642 92.484121 
L 56.168797 91.824727 
L 56.175659 91.165333 
L 56.18134 90.505939 
L 56.185961 89.846545 
L 56.189649 89.187152 
L 56.19253 88.527758 
L 56.194729 87.868364 
L 56.196363 87.20897 
L 56.197542 86.549576 
L 56.198366 85.890182 
L 56.198927 85.230788 
L 56.199305 84.571394 
L 56.199569 83.912 
L 56.199778 83.252606 
L 56.199984 82.593212 
L 56.200224 81.933818 
L 56.20053 81.274424 
L 56.200924 80.61503 
L 56.20142 79.955636 
L 56.202025 79.296242 
L 56.20274 78.636848 
L 56.203557 77.977455 
L 56.204465 77.318061 
L 56.205448 76.658667 
L 56.206484 75.999273 
L 56.207546 75.339879 
L 56.208603 74.680485 
L 56.209619 74.021091 
L 56.210555 73.361697 
L 56.211364 72.702303 
L 56.211994 72.042909 
L 56.212388 71.383515 
L 56.212483 70.724121 
L 56.212207 70.064727 
L 56.21148 69.405333 
L 56.210214 68.745939 
L 56.208314 68.086545 
L 56.205673 67.427152 
L 56.202173 66.767758 
L 56.197686 66.108364 
L 56.192072 65.44897 
L 56.185177 64.789576 
L 56.176832 64.130182 
L 56.166852 63.470788 
L 56.155032 62.811394 
L 56.141148 62.152 
L 56.124953 61.492606 
L 56.106175 60.833212 
L 56.084516 60.173818 
L 56.059649 59.514424 
L 56.031223 58.85503 
L 55.998864 58.195636 
L 55.962178 57.536242 
L 55.92076 56.876848 
L 55.874209 56.217455 
L 55.822141 55.558061 
L 55.76421 54.898667 
L 55.700132 54.239273 
L 55.629715 53.579879 
L 55.552889 52.920485 
L 55.46974 52.261091 
L 55.380541 51.601697 
L 55.285784 50.942303 
L 55.186206 50.282909 
L 55.082805 49.623515 
L 54.976852 48.964121 
L 54.869881 48.304727 
L 54.763672 47.645333 
L 54.660215 46.985939 
L 54.561659 46.326545 
L 54.470248 45.667152 
L 54.388236 45.007758 
L 54.317803 44.348364 
L 54.260962 43.68897 
L 54.219465 43.029576 
L 54.19472 42.370182 
L 54.187714 41.710788 
L 54.198958 41.051394 
L 54.228454 40.392 
L 58.292118 40.392 
L 58.292118 40.392 
L 58.321613 41.051394 
L 58.332857 41.710788 
L 58.325851 42.370182 
L 58.301106 43.029576 
L 58.25961 43.68897 
L 58.202769 44.348364 
L 58.132336 45.007758 
L 58.050323 45.667152 
L 57.958912 46.326545 
L 57.860357 46.985939 
L 57.7569 47.645333 
L 57.65069 48.304727 
L 57.543719 48.964121 
L 57.437766 49.623515 
L 57.334366 50.282909 
L 57.234788 50.942303 
L 57.140031 51.601697 
L 57.050831 52.261091 
L 56.967682 52.920485 
L 56.890857 53.579879 
L 56.82044 54.239273 
L 56.756362 54.898667 
L 56.69843 55.558061 
L 56.646362 56.217455 
L 56.599811 56.876848 
L 56.558394 57.536242 
L 56.521707 58.195636 
L 56.489348 58.85503 
L 56.460923 59.514424 
L 56.436056 60.173818 
L 56.414396 60.833212 
L 56.395618 61.492606 
L 56.379423 62.152 
L 56.365539 62.811394 
L 56.35372 63.470788 
L 56.343739 64.130182 
L 56.335394 64.789576 
L 56.328499 65.44897 
L 56.322885 66.108364 
L 56.318398 66.767758 
L 56.314899 67.427152 
L 56.312257 68.086545 
L 56.310357 68.745939 
L 56.309092 69.405333 
L 56.308365 70.064727 
L 56.308088 70.724121 
L 56.308183 71.383515 
L 56.308578 72.042909 
L 56.309208 72.702303 
L 56.310016 73.361697 
L 56.310952 74.021091 
L 56.311969 74.680485 
L 56.313026 75.339879 
L 56.314087 75.999273 
L 56.315123 76.658667 
L 56.316106 77.318061 
L 56.317015 77.977455 
L 56.317832 78.636848 
L 56.318546 79.296242 
L 56.319151 79.955636 
L 56.319647 80.61503 
L 56.320041 81.274424 
L 56.320348 81.933818 
L 56.320588 82.593212 
L 56.320793 83.252606 
L 56.321003 83.912 
L 56.321267 84.571394 
L 56.321644 85.230788 
L 56.322205 85.890182 
L 56.32303 86.549576 
L 56.324208 87.20897 
L 56.325842 87.868364 
L 56.328041 88.527758 
L 56.330923 89.187152 
L 56.334611 89.846545 
L 56.339232 90.505939 
L 56.344913 91.165333 
L 56.351775 91.824727 
L 56.35993 92.484121 
L 56.369471 93.143515 
L 56.38047 93.802909 
L 56.392963 94.462303 
L 56.406947 95.121697 
L 56.422373 95.781091 
L 56.439135 96.440485 
L 56.457067 97.099879 
L 56.47594 97.759273 
L 56.495463 98.418667 
L 56.515283 99.078061 
L 56.534996 99.737455 
L 56.554154 100.396848 
L 56.572282 101.056242 
L 56.588895 101.715636 
L 56.603516 102.37503 
L 56.615699 103.034424 
L 56.625049 103.693818 
L 56.631241 104.353212 
L 56.634037 105.012606 
L 56.6333 105.672 
z
" clip-path="url(#pae39136a4f)" style="fill: #306c53"/>
   </g>
   <g id="FillBetweenPolyCollection_6">
    <path d="M 67.50422 105.672 
L 65.742066 105.672 
L 65.740387 105.012606 
L 65.744366 104.353212 
L 65.753875 103.693818 
L 65.768676 103.034424 
L 65.788428 102.37503 
L 65.812703 101.715636 
L 65.840996 101.056242 
L 65.872746 100.396848 
L 65.907348 99.737455 
L 65.944175 99.078061 
L 65.982598 98.418667 
L 66.021994 97.759273 
L 66.061773 97.099879 
L 66.101381 96.440485 
L 66.140316 95.781091 
L 66.178135 95.121697 
L 66.214459 94.462303 
L 66.248975 93.802909 
L 66.281439 93.143515 
L 66.31167 92.484121 
L 66.339548 91.824727 
L 66.36501 91.165333 
L 66.388042 90.505939 
L 66.408673 89.846545 
L 66.426967 89.187152 
L 66.443015 88.527758 
L 66.456932 87.868364 
L 66.468846 87.20897 
L 66.478894 86.549576 
L 66.487219 85.890182 
L 66.493963 85.230788 
L 66.499267 84.571394 
L 66.503266 83.912 
L 66.506087 83.252606 
L 66.50785 82.593212 
L 66.508666 81.933818 
L 66.508636 81.274424 
L 66.507853 80.61503 
L 66.506398 79.955636 
L 66.504347 79.296242 
L 66.501763 78.636848 
L 66.498704 77.977455 
L 66.495219 77.318061 
L 66.491346 76.658667 
L 66.487119 75.999273 
L 66.482562 75.339879 
L 66.477691 74.680485 
L 66.472513 74.021091 
L 66.467026 73.361697 
L 66.461219 72.702303 
L 66.455072 72.042909 
L 66.448553 71.383515 
L 66.441619 70.724121 
L 66.434215 70.064727 
L 66.426272 69.405333 
L 66.417709 68.745939 
L 66.408427 68.086545 
L 66.398314 67.427152 
L 66.38724 66.767758 
L 66.375056 66.108364 
L 66.361597 65.44897 
L 66.346678 64.789576 
L 66.330096 64.130182 
L 66.311631 63.470788 
L 66.291045 62.811394 
L 66.268087 62.152 
L 66.242495 61.492606 
L 66.214 60.833212 
L 66.18233 60.173818 
L 66.147219 59.514424 
L 66.108416 58.85503 
L 66.065689 58.195636 
L 66.018843 57.536242 
L 65.967726 56.876848 
L 65.912243 56.217455 
L 65.852371 55.558061 
L 65.788167 54.898667 
L 65.719785 54.239273 
L 65.647486 53.579879 
L 65.571645 52.920485 
L 65.492758 52.261091 
L 65.411447 51.601697 
L 65.328458 50.942303 
L 65.244658 50.282909 
L 65.161023 49.623515 
L 65.078627 48.964121 
L 64.99862 48.304727 
L 64.922205 47.645333 
L 64.850615 46.985939 
L 64.785077 46.326545 
L 64.726782 45.667152 
L 64.676851 45.007758 
L 64.6363 44.348364 
L 64.606013 43.68897 
L 64.586706 43.029576 
L 64.578907 42.370182 
L 64.582938 41.710788 
L 64.598897 41.051394 
L 64.626657 40.392 
L 68.619629 40.392 
L 68.619629 40.392 
L 68.647388 41.051394 
L 68.663347 41.710788 
L 68.667378 42.370182 
L 68.65958 43.029576 
L 68.640273 43.68897 
L 68.609986 44.348364 
L 68.569435 45.007758 
L 68.519504 45.667152 
L 68.461208 46.326545 
L 68.39567 46.985939 
L 68.32408 47.645333 
L 68.247666 48.304727 
L 68.167659 48.964121 
L 68.085262 49.623515 
L 68.001628 50.282909 
L 67.917828 50.942303 
L 67.834839 51.601697 
L 67.753528 52.261091 
L 67.674641 52.920485 
L 67.598799 53.579879 
L 67.5265 54.239273 
L 67.458119 54.898667 
L 67.393915 55.558061 
L 67.334042 56.217455 
L 67.27856 56.876848 
L 67.227442 57.536242 
L 67.180597 58.195636 
L 67.13787 58.85503 
L 67.099067 59.514424 
L 67.063956 60.173818 
L 67.032286 60.833212 
L 67.00379 61.492606 
L 66.978199 62.152 
L 66.955241 62.811394 
L 66.934655 63.470788 
L 66.91619 64.130182 
L 66.899608 64.789576 
L 66.884689 65.44897 
L 66.871229 66.108364 
L 66.859046 66.767758 
L 66.847971 67.427152 
L 66.837859 68.086545 
L 66.828577 68.745939 
L 66.820014 69.405333 
L 66.812071 70.064727 
L 66.804667 70.724121 
L 66.797733 71.383515 
L 66.791214 72.042909 
L 66.785067 72.702303 
L 66.77926 73.361697 
L 66.773773 74.021091 
L 66.768595 74.680485 
L 66.763723 75.339879 
L 66.759166 75.999273 
L 66.75494 76.658667 
L 66.751067 77.318061 
L 66.747581 77.977455 
L 66.744523 78.636848 
L 66.741939 79.296242 
L 66.739888 79.955636 
L 66.738433 80.61503 
L 66.737649 81.274424 
L 66.73762 81.933818 
L 66.738435 82.593212 
L 66.740199 83.252606 
L 66.74302 83.912 
L 66.747018 84.571394 
L 66.752322 85.230788 
L 66.759067 85.890182 
L 66.767392 86.549576 
L 66.77744 87.20897 
L 66.789353 87.868364 
L 66.80327 88.527758 
L 66.819319 89.187152 
L 66.837613 89.846545 
L 66.858244 90.505939 
L 66.881276 91.165333 
L 66.906738 91.824727 
L 66.934616 92.484121 
L 66.964847 93.143515 
L 66.99731 93.802909 
L 67.031827 94.462303 
L 67.068151 95.121697 
L 67.10597 95.781091 
L 67.144905 96.440485 
L 67.184513 97.099879 
L 67.224291 97.759273 
L 67.263688 98.418667 
L 67.30211 99.078061 
L 67.338938 99.737455 
L 67.37354 100.396848 
L 67.405289 101.056242 
L 67.433583 101.715636 
L 67.457858 102.37503 
L 67.47761 103.034424 
L 67.49241 103.693818 
L 67.50192 104.353212 
L 67.505899 105.012606 
L 67.50422 105.672 
z
" clip-path="url(#pae39136a4f)" style="fill: #306c53"/>
   </g>
   <g id="FillBetweenPolyCollection_7">
    <path d="M 70.902189 102.853343 
L 70.634382 102.853343 
L 70.631541 102.761081 
L 70.628793 102.668819 
L 70.626145 102.576558 
L 70.623601 102.484296 
L 70.621166 102.392035 
L 70.618844 102.299773 
L 70.616639 102.207512 
L 70.614555 102.11525 
L 70.612593 102.022988 
L 70.610756 101.930727 
L 70.609044 101.838465 
L 70.60746 101.746204 
L 70.606001 101.653942 
L 70.60467 101.561681 
L 70.603463 101.469419 
L 70.602379 101.377157 
L 70.601417 101.284896 
L 70.600574 101.192634 
L 70.599845 101.100373 
L 70.599228 101.008111 
L 70.598718 100.915849 
L 70.598311 100.823588 
L 70.598001 100.731326 
L 70.597783 100.639065 
L 70.597653 100.546803 
L 70.597603 100.454542 
L 70.597629 100.36228 
L 70.597723 100.270018 
L 70.597881 100.177757 
L 70.598095 100.085495 
L 70.598359 99.993234 
L 70.598668 99.900972 
L 70.599015 99.80871 
L 70.599394 99.716449 
L 70.5998 99.624187 
L 70.600227 99.531926 
L 70.600671 99.439664 
L 70.601125 99.347403 
L 70.601587 99.255141 
L 70.602051 99.162879 
L 70.602514 99.070618 
L 70.602972 98.978356 
L 70.603423 98.886095 
L 70.603865 98.793833 
L 70.604294 98.701571 
L 70.604709 98.60931 
L 70.60511 98.517048 
L 70.605496 98.424787 
L 70.605866 98.332525 
L 70.606221 98.240264 
L 70.606561 98.148002 
L 70.606888 98.05574 
L 70.607203 97.963479 
L 70.607508 97.871217 
L 70.607804 97.778956 
L 70.608095 97.686694 
L 70.608384 97.594433 
L 70.608673 97.502171 
L 70.608966 97.409909 
L 70.609266 97.317648 
L 70.609578 97.225386 
L 70.609905 97.133125 
L 70.610251 97.040863 
L 70.61062 96.948601 
L 70.611017 96.85634 
L 70.611445 96.764078 
L 70.61191 96.671817 
L 70.612414 96.579555 
L 70.612962 96.487294 
L 70.613558 96.395032 
L 70.614206 96.30277 
L 70.61491 96.210509 
L 70.615672 96.118247 
L 70.616497 96.025986 
L 70.617387 95.933724 
L 70.618345 95.841462 
L 70.619373 95.749201 
L 70.620475 95.656939 
L 70.621651 95.564678 
L 70.622903 95.472416 
L 70.624233 95.380155 
L 70.625641 95.287893 
L 70.627128 95.195631 
L 70.628695 95.10337 
L 70.630342 95.011108 
L 70.632067 94.918847 
L 70.63387 94.826585 
L 70.635751 94.734324 
L 70.637707 94.642062 
L 70.639737 94.5498 
L 70.641839 94.457539 
L 70.64401 94.365277 
L 70.646248 94.273016 
L 70.648549 94.180754 
L 70.650911 94.088492 
L 70.653329 93.996231 
L 70.655801 93.903969 
L 70.658322 93.811708 
L 70.660889 93.719446 
L 70.875683 93.719446 
L 70.875683 93.719446 
L 70.878249 93.811708 
L 70.88077 93.903969 
L 70.883242 93.996231 
L 70.885661 94.088492 
L 70.888022 94.180754 
L 70.890324 94.273016 
L 70.892562 94.365277 
L 70.894733 94.457539 
L 70.896834 94.5498 
L 70.898864 94.642062 
L 70.900821 94.734324 
L 70.902701 94.826585 
L 70.904504 94.918847 
L 70.90623 95.011108 
L 70.907876 95.10337 
L 70.909443 95.195631 
L 70.91093 95.287893 
L 70.912339 95.380155 
L 70.913669 95.472416 
L 70.914921 95.564678 
L 70.916097 95.656939 
L 70.917198 95.749201 
L 70.918226 95.841462 
L 70.919184 95.933724 
L 70.920074 96.025986 
L 70.920899 96.118247 
L 70.921661 96.210509 
L 70.922365 96.30277 
L 70.923013 96.395032 
L 70.923609 96.487294 
L 70.924158 96.579555 
L 70.924662 96.671817 
L 70.925126 96.764078 
L 70.925555 96.85634 
L 70.925951 96.948601 
L 70.926321 97.040863 
L 70.926667 97.133125 
L 70.926994 97.225386 
L 70.927305 97.317648 
L 70.927606 97.409909 
L 70.927899 97.502171 
L 70.928188 97.594433 
L 70.928476 97.686694 
L 70.928767 97.778956 
L 70.929064 97.871217 
L 70.929368 97.963479 
L 70.929683 98.05574 
L 70.93001 98.148002 
L 70.93035 98.240264 
L 70.930705 98.332525 
L 70.931075 98.424787 
L 70.931461 98.517048 
L 70.931862 98.60931 
L 70.932278 98.701571 
L 70.932707 98.793833 
L 70.933148 98.886095 
L 70.933599 98.978356 
L 70.934057 99.070618 
L 70.93452 99.162879 
L 70.934984 99.255141 
L 70.935446 99.347403 
L 70.935901 99.439664 
L 70.936344 99.531926 
L 70.936771 99.624187 
L 70.937178 99.716449 
L 70.937557 99.80871 
L 70.937904 99.900972 
L 70.938212 99.993234 
L 70.938477 100.085495 
L 70.938691 100.177757 
L 70.938848 100.270018 
L 70.938943 100.36228 
L 70.938968 100.454542 
L 70.938919 100.546803 
L 70.938788 100.639065 
L 70.938571 100.731326 
L 70.938261 100.823588 
L 70.937854 100.915849 
L 70.937344 101.008111 
L 70.936726 101.100373 
L 70.935998 101.192634 
L 70.935154 101.284896 
L 70.934192 101.377157 
L 70.933109 101.469419 
L 70.931902 101.561681 
L 70.93057 101.653942 
L 70.929112 101.746204 
L 70.927527 101.838465 
L 70.925816 101.930727 
L 70.923979 102.022988 
L 70.922017 102.11525 
L 70.919932 102.207512 
L 70.917728 102.299773 
L 70.915406 102.392035 
L 70.912971 102.484296 
L 70.910427 102.576558 
L 70.907778 102.668819 
L 70.90503 102.761081 
L 70.902189 102.853343 
z
" clip-path="url(#pae39136a4f)" style="fill: #dfa33c"/>
   </g>
   <g id="FillBetweenPolyCollection_8">
    <path d="M 78.693914 105.672 
L 75.278086 105.672 
L 75.270321 105.012606 
L 75.271926 104.353212 
L 75.282726 103.693818 
L 75.302381 103.034424 
L 75.330397 102.37503 
L 75.366143 101.715636 
L 75.40887 101.056242 
L 75.457733 100.396848 
L 75.511817 99.737455 
L 75.570159 99.078061 
L 75.631781 98.418667 
L 75.695707 97.759273 
L 75.760988 97.099879 
L 75.826725 96.440485 
L 75.892085 95.781091 
L 75.956311 95.121697 
L 76.018739 94.462303 
L 76.078797 93.802909 
L 76.136014 93.143515 
L 76.190016 92.484121 
L 76.240523 91.824727 
L 76.287343 91.165333 
L 76.330366 90.505939 
L 76.369553 89.846545 
L 76.404927 89.187152 
L 76.436562 88.527758 
L 76.464575 87.868364 
L 76.489113 87.20897 
L 76.510348 86.549576 
L 76.528468 85.890182 
L 76.543669 85.230788 
L 76.556153 84.571394 
L 76.566119 83.912 
L 76.573764 83.252606 
L 76.579281 82.593212 
L 76.582855 81.933818 
L 76.58466 81.274424 
L 76.584867 80.61503 
L 76.583635 79.955636 
L 76.581113 79.296242 
L 76.577445 78.636848 
L 76.572762 77.977455 
L 76.567187 77.318061 
L 76.560833 76.658667 
L 76.553801 75.999273 
L 76.546181 75.339879 
L 76.538051 74.680485 
L 76.529472 74.021091 
L 76.520495 73.361697 
L 76.511152 72.702303 
L 76.501461 72.042909 
L 76.491424 71.383515 
L 76.481024 70.724121 
L 76.470232 70.064727 
L 76.458999 69.405333 
L 76.447262 68.745939 
L 76.434947 68.086545 
L 76.421962 67.427152 
L 76.408206 66.767758 
L 76.393567 66.108364 
L 76.377924 65.44897 
L 76.36115 64.789576 
L 76.343112 64.130182 
L 76.323675 63.470788 
L 76.302704 62.811394 
L 76.280064 62.152 
L 76.255626 61.492606 
L 76.229272 60.833212 
L 76.200892 60.173818 
L 76.170394 59.514424 
L 76.137709 58.85503 
L 76.102789 58.195636 
L 76.065621 57.536242 
L 76.026228 56.876848 
L 75.984672 56.217455 
L 75.941067 55.558061 
L 75.895575 54.898667 
L 75.84842 54.239273 
L 75.799882 53.579879 
L 75.750305 52.920485 
L 75.700098 52.261091 
L 75.649731 51.601697 
L 75.599732 50.942303 
L 75.550684 50.282909 
L 75.503216 49.623515 
L 75.457991 48.964121 
L 75.415698 48.304727 
L 75.377035 47.645333 
L 75.342694 46.985939 
L 75.313345 46.326545 
L 75.289618 45.667152 
L 75.272085 45.007758 
L 75.261245 44.348364 
L 75.257508 43.68897 
L 75.261179 43.029576 
L 75.27245 42.370182 
L 75.291392 41.710788 
L 75.317946 41.051394 
L 75.351926 40.392 
L 78.620074 40.392 
L 78.620074 40.392 
L 78.654054 41.051394 
L 78.680608 41.710788 
L 78.69955 42.370182 
L 78.710821 43.029576 
L 78.714492 43.68897 
L 78.710755 44.348364 
L 78.699915 45.007758 
L 78.682382 45.667152 
L 78.658655 46.326545 
L 78.629306 46.985939 
L 78.594965 47.645333 
L 78.556302 48.304727 
L 78.514009 48.964121 
L 78.468784 49.623515 
L 78.421316 50.282909 
L 78.372268 50.942303 
L 78.322269 51.601697 
L 78.271902 52.261091 
L 78.221695 52.920485 
L 78.172118 53.579879 
L 78.12358 54.239273 
L 78.076425 54.898667 
L 78.030933 55.558061 
L 77.987328 56.217455 
L 77.945772 56.876848 
L 77.906379 57.536242 
L 77.869211 58.195636 
L 77.834291 58.85503 
L 77.801606 59.514424 
L 77.771108 60.173818 
L 77.742728 60.833212 
L 77.716374 61.492606 
L 77.691936 62.152 
L 77.669296 62.811394 
L 77.648325 63.470788 
L 77.628888 64.130182 
L 77.61085 64.789576 
L 77.594076 65.44897 
L 77.578433 66.108364 
L 77.563794 66.767758 
L 77.550038 67.427152 
L 77.537053 68.086545 
L 77.524738 68.745939 
L 77.513001 69.405333 
L 77.501768 70.064727 
L 77.490976 70.724121 
L 77.480576 71.383515 
L 77.470539 72.042909 
L 77.460848 72.702303 
L 77.451505 73.361697 
L 77.442528 74.021091 
L 77.433949 74.680485 
L 77.425819 75.339879 
L 77.418199 75.999273 
L 77.411167 76.658667 
L 77.404813 77.318061 
L 77.399238 77.977455 
L 77.394555 78.636848 
L 77.390887 79.296242 
L 77.388365 79.955636 
L 77.387133 80.61503 
L 77.38734 81.274424 
L 77.389145 81.933818 
L 77.392719 82.593212 
L 77.398236 83.252606 
L 77.405881 83.912 
L 77.415847 84.571394 
L 77.428331 85.230788 
L 77.443532 85.890182 
L 77.461652 86.549576 
L 77.482887 87.20897 
L 77.507425 87.868364 
L 77.535438 88.527758 
L 77.567073 89.187152 
L 77.602447 89.846545 
L 77.641634 90.505939 
L 77.684657 91.165333 
L 77.731477 91.824727 
L 77.781984 92.484121 
L 77.835986 93.143515 
L 77.893203 93.802909 
L 77.953261 94.462303 
L 78.015689 95.121697 
L 78.079915 95.781091 
L 78.145275 96.440485 
L 78.211012 97.099879 
L 78.276293 97.759273 
L 78.340219 98.418667 
L 78.401841 99.078061 
L 78.460183 99.737455 
L 78.514267 100.396848 
L 78.56313 101.056242 
L 78.605857 101.715636 
L 78.641603 102.37503 
L 78.669619 103.034424 
L 78.689274 103.693818 
L 78.700074 104.353212 
L 78.701679 105.012606 
L 78.693914 105.672 
z
" clip-path="url(#pae39136a4f)" style="fill: #306c53"/>
   </g>
   <g id="FillBetweenPolyCollection_9">
    <path d="M 82.28763 105.583115 
L 79.974655 105.583115 
L 79.82975 105.241566 
L 79.688196 104.900017 
L 79.553858 104.558468 
L 79.430395 104.216919 
L 79.321067 103.875371 
L 79.228591 103.533822 
L 79.155043 103.192273 
L 79.101821 102.850724 
L 79.069639 102.509175 
L 79.058571 102.167626 
L 79.068098 101.826078 
L 79.097165 101.484529 
L 79.144239 101.14298 
L 79.20736 100.801431 
L 79.284196 100.459882 
L 79.372107 100.118334 
L 79.468223 99.776785 
L 79.569544 99.435236 
L 79.673064 99.093687 
L 79.775903 98.752138 
L 79.875444 98.410589 
L 79.969456 98.069041 
L 80.056194 97.727492 
L 80.134452 97.385943 
L 80.203587 97.044394 
L 80.263483 96.702845 
L 80.314489 96.361297 
L 80.357325 96.019748 
L 80.39297 95.678199 
L 80.422555 95.33665 
L 80.447261 94.995101 
L 80.468236 94.653552 
L 80.486534 94.312004 
L 80.503078 93.970455 
L 80.518649 93.628906 
L 80.533885 93.287357 
L 80.549296 92.945808 
L 80.565288 92.60426 
L 80.582176 92.262711 
L 80.600202 91.921162 
L 80.619541 91.579613 
L 80.640303 91.238064 
L 80.662525 90.896516 
L 80.686164 90.554967 
L 80.711095 90.213418 
L 80.737103 89.871869 
L 80.763896 89.53032 
L 80.791114 89.188771 
L 80.818356 88.847223 
L 80.845207 88.505674 
L 80.871268 88.164125 
L 80.896183 87.822576 
L 80.919667 87.481027 
L 80.941522 87.139479 
L 80.961639 86.79793 
L 80.980003 86.456381 
L 80.996671 86.114832 
L 81.011764 85.773283 
L 81.025437 85.431734 
L 81.037858 85.090186 
L 81.049187 84.748637 
L 81.059563 84.407088 
L 81.06909 84.065539 
L 81.077836 83.72399 
L 81.085841 83.382442 
L 81.093115 83.040893 
L 81.099658 82.699344 
L 81.105464 82.357795 
L 81.110536 82.016246 
L 81.114887 81.674697 
L 81.118545 81.333149 
L 81.121557 80.9916 
L 81.123979 80.650051 
L 81.125879 80.308502 
L 81.127327 79.966953 
L 81.128389 79.625405 
L 81.129126 79.283856 
L 81.129587 78.942307 
L 81.129805 78.600758 
L 81.129799 78.259209 
L 81.129571 77.917661 
L 81.129106 77.576112 
L 81.128377 77.234563 
L 81.127344 76.893014 
L 81.125964 76.551465 
L 81.124192 76.209916 
L 81.121994 75.868368 
L 81.119351 75.526819 
L 81.11627 75.18527 
L 81.112791 74.843721 
L 81.108993 74.502172 
L 81.104993 74.160624 
L 81.100946 73.819075 
L 81.097035 73.477526 
L 81.093462 73.135977 
L 81.090426 72.794428 
L 81.088109 72.452879 
L 81.086656 72.111331 
L 81.086161 71.769782 
L 81.176125 71.769782 
L 81.176125 71.769782 
L 81.17563 72.111331 
L 81.174176 72.452879 
L 81.171859 72.794428 
L 81.168823 73.135977 
L 81.16525 73.477526 
L 81.16134 73.819075 
L 81.157293 74.160624 
L 81.153293 74.502172 
L 81.149494 74.843721 
L 81.146015 75.18527 
L 81.142935 75.526819 
L 81.140292 75.868368 
L 81.138094 76.209916 
L 81.136322 76.551465 
L 81.134942 76.893014 
L 81.133909 77.234563 
L 81.133179 77.576112 
L 81.132714 77.917661 
L 81.132486 78.259209 
L 81.13248 78.600758 
L 81.132699 78.942307 
L 81.133159 79.283856 
L 81.133897 79.625405 
L 81.134959 79.966953 
L 81.136407 80.308502 
L 81.138307 80.650051 
L 81.140729 80.9916 
L 81.14374 81.333149 
L 81.147399 81.674697 
L 81.151749 82.016246 
L 81.156821 82.357795 
L 81.162628 82.699344 
L 81.169171 83.040893 
L 81.176445 83.382442 
L 81.184449 83.72399 
L 81.193196 84.065539 
L 81.202723 84.407088 
L 81.213098 84.748637 
L 81.224428 85.090186 
L 81.236849 85.431734 
L 81.250521 85.773283 
L 81.265614 86.114832 
L 81.282283 86.456381 
L 81.300646 86.79793 
L 81.320764 87.139479 
L 81.342618 87.481027 
L 81.366103 87.822576 
L 81.391018 88.164125 
L 81.417078 88.505674 
L 81.443929 88.847223 
L 81.471172 89.188771 
L 81.49839 89.53032 
L 81.525183 89.871869 
L 81.551191 90.213418 
L 81.576122 90.554967 
L 81.599761 90.896516 
L 81.621983 91.238064 
L 81.642744 91.579613 
L 81.662084 91.921162 
L 81.68011 92.262711 
L 81.696997 92.60426 
L 81.712989 92.945808 
L 81.728401 93.287357 
L 81.743636 93.628906 
L 81.759207 93.970455 
L 81.775752 94.312004 
L 81.79405 94.653552 
L 81.815025 94.995101 
L 81.839731 95.33665 
L 81.869316 95.678199 
L 81.904961 96.019748 
L 81.947796 96.361297 
L 81.998803 96.702845 
L 82.058699 97.044394 
L 82.127833 97.385943 
L 82.206092 97.727492 
L 82.292829 98.069041 
L 82.386842 98.410589 
L 82.486383 98.752138 
L 82.589222 99.093687 
L 82.692742 99.435236 
L 82.794063 99.776785 
L 82.890178 100.118334 
L 82.978089 100.459882 
L 83.054926 100.801431 
L 83.118047 101.14298 
L 83.165121 101.484529 
L 83.194187 101.826078 
L 83.203714 102.167626 
L 83.192647 102.509175 
L 83.160465 102.850724 
L 83.107242 103.192273 
L 83.033695 103.533822 
L 82.941219 103.875371 
L 82.831891 104.216919 
L 82.708427 104.558468 
L 82.57409 104.900017 
L 82.432536 105.241566 
L 82.28763 105.583115 
z
" clip-path="url(#pae39136a4f)" style="fill: #dfa33c"/>
   </g>
   <g id="patch_20">
    <path d="M 16.881429 105.672 
L 16.881429 105.672 
L 16.881429 105.672 
L 16.881429 105.672 
z
" clip-path="url(#pae39136a4f)" style="fill: #306c53"/>
   </g>
   <g id="patch_21">
    <path d="M 16.881429 105.672 
L 16.881429 105.672 
L 16.881429 105.672 
L 16.881429 105.672 
z
" clip-path="url(#pae39136a4f)" style="fill: #dfa33c"/>
   </g>
   <g id="matplotlib.axis_3">
    <g id="xtick_8">
     <g id="line2d_24">
      <g>
       <use xlink:href="#m46b89c2a4c" x="16.881429" y="109.936" style="stroke: #000000; stroke-width: 0.25"/>
      </g>
     </g>
     <g id="text_3">
      <text style="font-size: 6px; font-family: 'Arial'; text-anchor: middle" x="16.881429" y="117.430687" transform="rotate(-0 16.881429 117.430687)">0</text>
     </g>
    </g>
    <g id="xtick_9">
     <g id="line2d_25">
      <g>
       <use xlink:href="#m46b89c2a4c" x="27.244286" y="109.936" style="stroke: #000000; stroke-width: 0.25"/>
      </g>
     </g>
     <g id="text_4">
      <text style="font-size: 6px; font-family: 'Arial'; text-anchor: middle" x="27.244286" y="117.430687" transform="rotate(-0 27.244286 117.430687)">5</text>
     </g>
    </g>
    <g id="xtick_10">
     <g id="line2d_26">
      <g>
       <use xlink:href="#m46b89c2a4c" x="37.607143" y="109.936" style="stroke: #000000; stroke-width: 0.25"/>
      </g>
     </g>
     <g id="text_5">
      <text style="font-size: 6px; font-family: 'Arial'; text-anchor: middle" x="37.607143" y="117.430687" transform="rotate(-0 37.607143 117.430687)">10</text>
     </g>
    </g>
    <g id="xtick_11">
     <g id="line2d_27">
      <g>
       <use xlink:href="#m46b89c2a4c" x="47.97" y="109.936" style="stroke: #000000; stroke-width: 0.25"/>
      </g>
     </g>
     <g id="text_6">
      <text style="font-size: 6px; font-family: 'Arial'; text-anchor: middle" x="47.97" y="117.430687" transform="rotate(-0 47.97 117.430687)">15</text>
     </g>
    </g>
    <g id="xtick_12">
     <g id="line2d_28">
      <g>
       <use xlink:href="#m46b89c2a4c" x="58.332857" y="109.936" style="stroke: #000000; stroke-width: 0.25"/>
      </g>
     </g>
     <g id="text_7">
      <text style="font-size: 6px; font-family: 'Arial'; text-anchor: middle" x="58.332857" y="117.430687" transform="rotate(-0 58.332857 117.430687)">20</text>
     </g>
    </g>
    <g id="xtick_13">
     <g id="line2d_29">
      <g>
       <use xlink:href="#m46b89c2a4c" x="68.695714" y="109.936" style="stroke: #000000; stroke-width: 0.25"/>
      </g>
     </g>
     <g id="text_8">
      <text style="font-size: 6px; font-family: 'Arial'; text-anchor: middle" x="68.695714" y="117.430687" transform="rotate(-0 68.695714 117.430687)">30</text>
     </g>
    </g>
    <g id="xtick_14">
     <g id="line2d_30">
      <g>
       <use xlink:href="#m46b89c2a4c" x="79.058571" y="109.936" style="stroke: #000000; stroke-width: 0.25"/>
      </g>
     </g>
     <g id="text_9">
      <text style="font-size: 6px; font-family: 'Arial'; text-anchor: middle" x="79.058571" y="117.430687" transform="rotate(-0 79.058571 117.430687)">50</text>
     </g>
    </g>
    <g id="text_10">
     <!-- $\sigma$ of $w_{ij}$ noise (%) -->
     <g transform="translate(16.93 125.963187)">
      <text>
       <tspan x="0" y="-0.171875" style="font-style: oblique; font-size: 8px; font-family: 'DejaVu Sans'"></tspan>
       <tspan x="16.1875" y="-0.171875" style="font-style: oblique; font-size: 8px; font-family: 'DejaVu Sans'">w</tspan>
       <tspan x="5.070312" y="-0.171875" style="font-size: 8px; font-family: 'Arial'"></tspan>
       <tspan x="7.292969" y="-0.171875" style="font-size: 8px; font-family: 'Arial'">o</tspan>
       <tspan x="11.742188" y="-0.171875" style="font-size: 8px; font-family: 'Arial'">f</tspan>
       <tspan x="13.964844" y="-0.171875" style="font-size: 8px; font-family: 'Arial'"></tspan>
       <tspan x="26.060938" y="-0.171875" style="font-size: 8px; font-family: 'Arial'"></tspan>
       <tspan x="28.283594" y="-0.171875" style="font-size: 8px; font-family: 'Arial'">n</tspan>
       <tspan x="32.732813" y="-0.171875" style="font-size: 8px; font-family: 'Arial'">o</tspan>
       <tspan x="37.182031" y="-0.171875" style="font-size: 8px; font-family: 'Arial'">i</tspan>
       <tspan x="38.959375" y="-0.171875" style="font-size: 8px; font-family: 'Arial'">s</tspan>
       <tspan x="42.959375" y="-0.171875" style="font-size: 8px; font-family: 'Arial'">e</tspan>
       <tspan x="47.408594" y="-0.171875" style="font-size: 8px; font-family: 'Arial'"></tspan>
       <tspan x="49.63125" y="-0.171875" style="font-size: 8px; font-family: 'Arial'">(</tspan>
       <tspan x="52.295313" y="-0.171875" style="font-size: 8px; font-family: 'Arial'">%</tspan>
       <tspan x="59.408594" y="-0.171875" style="font-size: 8px; font-family: 'Arial'">)</tspan>
       <tspan x="22.730469" y="1.140625" style="font-style: oblique; font-size: 5.6px; font-family: 'DejaVu Sans'">i</tspan>
       <tspan x="24.286328" y="1.140625" style="font-style: oblique; font-size: 5.6px; font-family: 'DejaVu Sans'">j</tspan>
      </text>
     </g>
    </g>
   </g>
   <g id="matplotlib.axis_4">
    <g id="ytick_3">
     <g id="line2d_31">
      <g>
       <use xlink:href="#me4e822adb0" x="10.7" y="105.672" style="stroke: #000000; stroke-width: 0.25"/>
      </g>
     </g>
     <g id="text_11">
      <text style="font-size: 6px; font-family: 'Arial'; text-anchor: end" x="7.5" y="107.819344" transform="rotate(-0 7.5 107.819344)">0.00</text>
     </g>
    </g>
    <g id="ytick_4">
     <g id="line2d_32">
      <g>
       <use xlink:href="#me4e822adb0" x="10.7" y="89.352" style="stroke: #000000; stroke-width: 0.25"/>
      </g>
     </g>
     <g id="text_12">
      <text style="font-size: 6px; font-family: 'Arial'; text-anchor: end" x="7.5" y="91.499344" transform="rotate(-0 7.5 91.499344)">0.25</text>
     </g>
    </g>
    <g id="ytick_5">
     <g id="line2d_33">
      <g>
       <use xlink:href="#me4e822adb0" x="10.7" y="73.032" style="stroke: #000000; stroke-width: 0.25"/>
      </g>
     </g>
     <g id="text_13">
      <text style="font-size: 6px; font-family: 'Arial'; text-anchor: end" x="7.5" y="75.179344" transform="rotate(-0 7.5 75.179344)">0.50</text>
     </g>
    </g>
    <g id="ytick_6">
     <g id="line2d_34">
      <g>
       <use xlink:href="#me4e822adb0" x="10.7" y="56.712" style="stroke: #000000; stroke-width: 0.25"/>
      </g>
     </g>
     <g id="text_14">
      <text style="font-size: 6px; font-family: 'Arial'; text-anchor: end" x="7.5" y="58.859344" transform="rotate(-0 7.5 58.859344)">0.75</text>
     </g>
    </g>
    <g id="ytick_7">
     <g id="line2d_35">
      <g>
       <use xlink:href="#me4e822adb0" x="10.7" y="40.392" style="stroke: #000000; stroke-width: 0.25"/>
      </g>
     </g>
     <g id="text_15">
      <text style="font-size: 6px; font-family: 'Arial'; text-anchor: end" x="7.5" y="42.539344" transform="rotate(-0 7.5 42.539344)">1.00</text>
     </g>
    </g>
    <g id="text_16">
     <text style="font-size: 8px; font-family: 'Arial'; text-anchor: middle" x="-7.360312" y="73.032" transform="rotate(-90 -7.360312 73.032)">motor rhythmicity score</text>
    </g>
   </g>
   <g id="patch_22">
    <path d="M 10.7 108.936 
L 10.7 37.128 
" style="fill: none; stroke: #000000; stroke-width: 0.25; stroke-linejoin: miter; stroke-linecap: square"/>
   </g>
   <g id="patch_23">
    <path d="M 11.7 109.936 
L 84.24 109.936 
" style="fill: none; stroke: #000000; stroke-width: 0.25; stroke-linejoin: miter; stroke-linecap: square"/>
   </g>
  </g>
 </g>
 <defs>
  <clipPath id="p1550b7701d">
   <rect x="11.7" y="14.688" width="72.54" height="17.952"/>
  </clipPath>
  <clipPath id="pae39136a4f">
   <rect x="11.7" y="37.128" width="72.54" height="71.808"/>
  </clipPath>
 </defs>
</svg>
