<?xml version="1.0" encoding="utf-8" standalone="no"?>
<!DOCTYPE svg PUBLIC "-//W3C//DTD SVG 1.1//EN"
  "http://www.w3.org/Graphics/SVG/1.1/DTD/svg11.dtd">
<svg xmlns:xlink="http://www.w3.org/1999/xlink" width="108pt" height="108pt" viewBox="0 0 108 108" xmlns="http://www.w3.org/2000/svg" version="1.1">
 <metadata>
  <rdf:RDF xmlns:dc="http://purl.org/dc/elements/1.1/" xmlns:cc="http://creativecommons.org/ns#" xmlns:rdf="http://www.w3.org/1999/02/22-rdf-syntax-ns#">
   <cc:Work>
    <dc:type rdf:resource="http://purl.org/dc/dcmitype/StillImage"/>
    <dc:date>2025-09-07T01:52:58.403313</dc:date>
    <dc:format>image/svg+xml</dc:format>
    <dc:creator>
     <cc:Agent>
      <dc:title>Matplotlib v3.10.3, https://matplotlib.org/</dc:title>
     </cc:Agent>
    </dc:creator>
   </cc:Work>
  </rdf:RDF>
 </metadata>
 <defs>
  <style type="text/css">*{stroke-linejoin: round; stroke-linecap: butt}</style>
 </defs>
 <g id="figure_1">
  <g id="patch_1">
   <path d="M 0 108 
L 108 108 
L 108 0 
L 0 0 
L 0 108 
z
" style="fill: none"/>
  </g>
  <g id="axes_1">
   <g id="patch_2">
    <path d="M 13.5 96.12 
L 97.2 96.12 
L 97.2 12.96 
L 13.5 12.96 
L 13.5 96.12 
z
" style="fill: none"/>
   </g>
   <g id="FillBetweenPolyCollection_1">
    <path d="M 20.487419 92.34 
L 20.462581 92.34 
L 20.46339 91.576364 
L 20.465512 90.812727 
L 20.468224 90.049091 
L 20.47077 89.285455 
L 20.472692 88.521818 
L 20.473899 87.758182 
L 20.474541 86.994545 
L 20.474832 86.230909 
L 20.474945 85.467273 
L 20.474977 84.703636 
L 20.474968 83.94 
L 20.474911 83.176364 
L 20.47476 82.412727 
L 20.474429 81.649091 
L 20.473809 80.885455 
L 20.472831 80.121818 
L 20.471548 79.358182 
L 20.470197 78.594545 
L 20.469159 77.830909 
L 20.468791 77.067273 
L 20.469232 76.303636 
L 20.470316 75.54 
L 20.471675 74.776364 
L 20.472937 74.012727 
L 20.473881 73.249091 
L 20.474467 72.485455 
L 20.47477 71.721818 
L 20.474883 70.958182 
L 20.474855 70.194545 
L 20.474654 69.430909 
L 20.474137 68.667273 
L 20.47301 67.903636 
L 20.470773 67.14 
L 20.466664 66.376364 
L 20.459635 65.612727 
L 20.44846 64.849091 
L 20.43202 64.085455 
L 20.409666 63.321818 
L 20.381324 62.558182 
L 20.34709 61.794545 
L 20.30651 61.030909 
L 20.258243 60.267273 
L 20.200617 59.503636 
L 20.132854 58.74 
L 20.056037 57.976364 
L 19.973094 57.212727 
L 19.887858 56.449091 
L 19.803997 55.685455 
L 19.72444 54.921818 
L 19.65138 54.158182 
L 19.586541 53.394545 
L 19.531579 52.630909 
L 19.488601 51.867273 
L 19.460357 51.103636 
L 19.449483 50.34 
L 19.456923 49.576364 
L 19.480837 48.812727 
L 19.517223 48.049091 
L 19.561884 47.285455 
L 19.612024 46.521818 
L 19.666319 45.758182 
L 19.724086 44.994545 
L 19.784856 44.230909 
L 19.848522 43.467273 
L 19.915078 42.703636 
L 19.983531 41.94 
L 20.05107 41.176364 
L 20.113723 40.412727 
L 20.168207 39.649091 
L 20.213333 38.885455 
L 20.249885 38.121818 
L 20.279463 37.358182 
L 20.303603 36.594545 
L 20.323734 35.830909 
L 20.341437 35.067273 
L 20.358264 34.303636 
L 20.375141 33.54 
L 20.392012 32.776364 
L 20.408108 32.012727 
L 20.422526 31.249091 
L 20.434603 30.485455 
L 20.443975 29.721818 
L 20.450597 28.958182 
L 20.454868 28.194545 
L 20.457656 27.430909 
L 20.459997 26.667273 
L 20.462611 25.903636 
L 20.465609 25.14 
L 20.468612 24.376364 
L 20.471118 23.612727 
L 20.47281 22.849091 
L 20.473605 22.085455 
L 20.47352 21.321818 
L 20.472557 20.558182 
L 20.470728 19.794545 
L 20.468212 19.030909 
L 20.46551 18.267273 
L 20.463389 17.503636 
L 20.462581 16.74 
L 20.487419 16.74 
L 20.487419 16.74 
L 20.486611 17.503636 
L 20.48449 18.267273 
L 20.481788 19.030909 
L 20.479272 19.794545 
L 20.477443 20.558182 
L 20.47648 21.321818 
L 20.476395 22.085455 
L 20.47719 22.849091 
L 20.478882 23.612727 
L 20.481388 24.376364 
L 20.484391 25.14 
L 20.487389 25.903636 
L 20.490003 26.667273 
L 20.492344 27.430909 
L 20.495132 28.194545 
L 20.499403 28.958182 
L 20.506025 29.721818 
L 20.515397 30.485455 
L 20.527474 31.249091 
L 20.541892 32.012727 
L 20.557988 32.776364 
L 20.574859 33.54 
L 20.591736 34.303636 
L 20.608563 35.067273 
L 20.626266 35.830909 
L 20.646397 36.594545 
L 20.670537 37.358182 
L 20.700115 38.121818 
L 20.736667 38.885455 
L 20.781793 39.649091 
L 20.836277 40.412727 
L 20.89893 41.176364 
L 20.966469 41.94 
L 21.034922 42.703636 
L 21.101478 43.467273 
L 21.165144 44.230909 
L 21.225914 44.994545 
L 21.283681 45.758182 
L 21.337976 46.521818 
L 21.388116 47.285455 
L 21.432777 48.049091 
L 21.469163 48.812727 
L 21.493077 49.576364 
L 21.500517 50.34 
L 21.489643 51.103636 
L 21.461399 51.867273 
L 21.418421 52.630909 
L 21.363459 53.394545 
L 21.29862 54.158182 
L 21.22556 54.921818 
L 21.146003 55.685455 
L 21.062142 56.449091 
L 20.976906 57.212727 
L 20.893963 57.976364 
L 20.817146 58.74 
L 20.749383 59.503636 
L 20.691757 60.267273 
L 20.64349 61.030909 
L 20.60291 61.794545 
L 20.568676 62.558182 
L 20.540334 63.321818 
L 20.51798 64.085455 
L 20.50154 64.849091 
L 20.490365 65.612727 
L 20.483336 66.376364 
L 20.479227 67.14 
L 20.47699 67.903636 
L 20.475863 68.667273 
L 20.475346 69.430909 
L 20.475145 70.194545 
L 20.475117 70.958182 
L 20.47523 71.721818 
L 20.475533 72.485455 
L 20.476119 73.249091 
L 20.477063 74.012727 
L 20.478325 74.776364 
L 20.479684 75.54 
L 20.480768 76.303636 
L 20.481209 77.067273 
L 20.480841 77.830909 
L 20.479803 78.594545 
L 20.478452 79.358182 
L 20.477169 80.121818 
L 20.476191 80.885455 
L 20.475571 81.649091 
L 20.47524 82.412727 
L 20.475089 83.176364 
L 20.475032 83.94 
L 20.475023 84.703636 
L 20.475055 85.467273 
L 20.475168 86.230909 
L 20.475459 86.994545 
L 20.476101 87.758182 
L 20.477308 88.521818 
L 20.47923 89.285455 
L 20.481776 90.049091 
L 20.484488 90.812727 
L 20.48661 91.576364 
L 20.487419 92.34 
z
" clip-path="url(#p78ad1bb72f)" style="fill: #306c53; fill-opacity: 0.5"/>
   </g>
   <g id="FillBetweenPolyCollection_2">
    <path d="M 34.449623 92.34 
L 34.400377 92.34 
L 34.402145 91.934805 
L 34.406722 91.52961 
L 34.412406 91.124416 
L 34.417524 90.719221 
L 34.421176 90.314026 
L 34.423315 89.908831 
L 34.42436 89.503637 
L 34.424791 89.098442 
L 34.424941 88.693247 
L 34.424986 88.288052 
L 34.424997 87.882857 
L 34.424999 87.477663 
L 34.425 87.072468 
L 34.425 86.667273 
L 34.425 86.262078 
L 34.425 85.856883 
L 34.425 85.451689 
L 34.425 85.046494 
L 34.425 84.641299 
L 34.425 84.236104 
L 34.425 83.83091 
L 34.425 83.425715 
L 34.425 83.02052 
L 34.425 82.615325 
L 34.425 82.21013 
L 34.425 81.804936 
L 34.425 81.399741 
L 34.425 80.994546 
L 34.425 80.589351 
L 34.425 80.184156 
L 34.425 79.778962 
L 34.425 79.373767 
L 34.425 78.968572 
L 34.424999 78.563377 
L 34.424995 78.158183 
L 34.424976 77.752988 
L 34.424906 77.347793 
L 34.424685 76.942598 
L 34.424083 76.537403 
L 34.422696 76.132209 
L 34.419989 75.727014 
L 34.415528 75.321819 
L 34.409324 74.916624 
L 34.401984 74.511429 
L 34.394318 74.106235 
L 34.386514 73.70104 
L 34.3775 73.295845 
L 34.365146 72.89065 
L 34.347202 72.485456 
L 34.322283 72.080261 
L 34.290233 71.675066 
L 34.251615 71.269871 
L 34.20634 70.864676 
L 34.151881 70.459482 
L 34.082466 70.054287 
L 33.990854 69.649092 
L 33.872716 69.243897 
L 33.730779 68.838702 
L 33.574804 68.433508 
L 33.416344 68.028313 
L 33.262117 67.623118 
L 33.111762 67.217923 
L 32.96193 66.812729 
L 32.812709 66.407534 
L 32.670619 66.002339 
L 32.546073 65.597144 
L 32.448078 65.191949 
L 32.380908 64.786755 
L 32.34566 64.38156 
L 32.344999 63.976365 
L 32.385302 63.57117 
L 32.472046 63.165975 
L 32.601921 62.760781 
L 32.760112 62.355586 
L 32.926573 61.950391 
L 33.085998 61.545196 
L 33.233288 61.140002 
L 33.371415 60.734807 
L 33.504809 60.329612 
L 33.633452 59.924417 
L 33.751459 59.519222 
L 33.850843 59.114028 
L 33.927644 58.708833 
L 33.985614 58.303638 
L 34.034473 57.898443 
L 34.084134 57.493248 
L 34.13942 57.088054 
L 34.198774 56.682859 
L 34.256847 56.277664 
L 34.308159 55.872469 
L 34.349313 55.467275 
L 34.379279 55.06208 
L 34.398672 54.656885 
L 34.408986 54.25169 
L 34.412126 53.846495 
L 34.410287 53.441301 
L 34.40599 53.036106 
L 34.401923 52.630911 
L 34.400318 52.225716 
L 34.449682 52.225716 
L 34.449682 52.225716 
L 34.448077 52.630911 
L 34.44401 53.036106 
L 34.439713 53.441301 
L 34.437874 53.846495 
L 34.441014 54.25169 
L 34.451328 54.656885 
L 34.470721 55.06208 
L 34.500687 55.467275 
L 34.541841 55.872469 
L 34.593153 56.277664 
L 34.651226 56.682859 
L 34.71058 57.088054 
L 34.765866 57.493248 
L 34.815527 57.898443 
L 34.864386 58.303638 
L 34.922356 58.708833 
L 34.999157 59.114028 
L 35.098541 59.519222 
L 35.216548 59.924417 
L 35.345191 60.329612 
L 35.478585 60.734807 
L 35.616712 61.140002 
L 35.764002 61.545196 
L 35.923427 61.950391 
L 36.089888 62.355586 
L 36.248079 62.760781 
L 36.377954 63.165975 
L 36.464698 63.57117 
L 36.505001 63.976365 
L 36.50434 64.38156 
L 36.469092 64.786755 
L 36.401922 65.191949 
L 36.303927 65.597144 
L 36.179381 66.002339 
L 36.037291 66.407534 
L 35.88807 66.812729 
L 35.738238 67.217923 
L 35.587883 67.623118 
L 35.433656 68.028313 
L 35.275196 68.433508 
L 35.119221 68.838702 
L 34.977284 69.243897 
L 34.859146 69.649092 
L 34.767534 70.054287 
L 34.698119 70.459482 
L 34.64366 70.864676 
L 34.598385 71.269871 
L 34.559767 71.675066 
L 34.527717 72.080261 
L 34.502798 72.485456 
L 34.484854 72.89065 
L 34.4725 73.295845 
L 34.463486 73.70104 
L 34.455682 74.106235 
L 34.448016 74.511429 
L 34.440676 74.916624 
L 34.434472 75.321819 
L 34.430011 75.727014 
L 34.427304 76.132209 
L 34.425917 76.537403 
L 34.425315 76.942598 
L 34.425094 77.347793 
L 34.425024 77.752988 
L 34.425005 78.158183 
L 34.425001 78.563377 
L 34.425 78.968572 
L 34.425 79.373767 
L 34.425 79.778962 
L 34.425 80.184156 
L 34.425 80.589351 
L 34.425 80.994546 
L 34.425 81.399741 
L 34.425 81.804936 
L 34.425 82.21013 
L 34.425 82.615325 
L 34.425 83.02052 
L 34.425 83.425715 
L 34.425 83.83091 
L 34.425 84.236104 
L 34.425 84.641299 
L 34.425 85.046494 
L 34.425 85.451689 
L 34.425 85.856883 
L 34.425 86.262078 
L 34.425 86.667273 
L 34.425 87.072468 
L 34.425001 87.477663 
L 34.425003 87.882857 
L 34.425014 88.288052 
L 34.425059 88.693247 
L 34.425209 89.098442 
L 34.42564 89.503637 
L 34.426685 89.908831 
L 34.428824 90.314026 
L 34.432476 90.719221 
L 34.437594 91.124416 
L 34.443278 91.52961 
L 34.447855 91.934805 
L 34.449623 92.34 
z
" clip-path="url(#p78ad1bb72f)" style="fill: #306c53; fill-opacity: 0.5"/>
   </g>
   <g id="FillBetweenPolyCollection_3">
    <path d="M 48.425858 92.34 
L 48.324142 92.34 
L 48.327451 92.060359 
L 48.336142 91.780717 
L 48.347241 91.501076 
L 48.357667 91.221434 
L 48.365539 90.941793 
L 48.370486 90.662151 
L 48.373118 90.38251 
L 48.374314 90.102868 
L 48.374781 89.823227 
L 48.374939 89.543585 
L 48.374985 89.263944 
L 48.374997 88.984302 
L 48.374999 88.704661 
L 48.375 88.425019 
L 48.375 88.145378 
L 48.375 87.865736 
L 48.375 87.586095 
L 48.375 87.306453 
L 48.375 87.026812 
L 48.375 86.74717 
L 48.375 86.467529 
L 48.375 86.187887 
L 48.375 85.908246 
L 48.375 85.628604 
L 48.375 85.348963 
L 48.375 85.069322 
L 48.375 84.78968 
L 48.375 84.510039 
L 48.375 84.230397 
L 48.375 83.950756 
L 48.375 83.671114 
L 48.375 83.391473 
L 48.375 83.111831 
L 48.375 82.83219 
L 48.375 82.552548 
L 48.374998 82.272907 
L 48.374989 81.993265 
L 48.374957 81.713624 
L 48.374851 81.433982 
L 48.374552 81.154341 
L 48.373812 80.874699 
L 48.372228 80.595058 
L 48.369298 80.315416 
L 48.364636 80.035775 
L 48.358307 79.756133 
L 48.351048 79.476492 
L 48.344103 79.19685 
L 48.338555 78.917209 
L 48.334514 78.637567 
L 48.330736 78.357926 
L 48.325016 78.078285 
L 48.315048 77.798643 
L 48.299045 77.519002 
L 48.275779 77.23936 
L 48.244371 76.959719 
L 48.204355 76.680077 
L 48.15594 76.400436 
L 48.099569 76.120794 
L 48.034206 75.841153 
L 47.955197 75.561511 
L 47.853917 75.28187 
L 47.720754 75.002228 
L 47.55036 74.722587 
L 47.345723 74.442945 
L 47.117844 74.163304 
L 46.880905 73.883662 
L 46.646095 73.604021 
L 46.41813 73.324379 
L 46.196274 73.044738 
L 45.978474 72.765096 
L 45.765771 72.485455 
L 45.565022 72.205813 
L 45.389654 71.926172 
L 45.258612 71.64653 
L 45.192922 71.366889 
L 45.209317 71.087248 
L 45.312693 70.807606 
L 45.491946 70.527965 
L 45.723096 70.248323 
L 45.978685 69.968682 
L 46.237562 69.68904 
L 46.48906 69.409399 
L 46.7301 69.129757 
L 46.958791 68.850116 
L 47.169875 68.570474 
L 47.355278 68.290833 
L 47.508846 68.011191 
L 47.631201 67.73155 
L 47.730661 67.451908 
L 47.819284 67.172267 
L 47.906705 66.892625 
L 47.995801 66.612984 
L 48.082614 66.333342 
L 48.159927 66.053701 
L 48.221807 65.774059 
L 48.266426 65.494418 
L 48.296182 65.214776 
L 48.315795 64.935135 
L 48.329918 64.655493 
L 48.420082 64.655493 
L 48.420082 64.655493 
L 48.434205 64.935135 
L 48.453818 65.214776 
L 48.483574 65.494418 
L 48.528193 65.774059 
L 48.590073 66.053701 
L 48.667386 66.333342 
L 48.754199 66.612984 
L 48.843295 66.892625 
L 48.930716 67.172267 
L 49.019339 67.451908 
L 49.118799 67.73155 
L 49.241154 68.011191 
L 49.394722 68.290833 
L 49.580125 68.570474 
L 49.791209 68.850116 
L 50.0199 69.129757 
L 50.26094 69.409399 
L 50.512438 69.68904 
L 50.771315 69.968682 
L 51.026904 70.248323 
L 51.258054 70.527965 
L 51.437307 70.807606 
L 51.540683 71.087248 
L 51.557078 71.366889 
L 51.491388 71.64653 
L 51.360346 71.926172 
L 51.184978 72.205813 
L 50.984229 72.485455 
L 50.771526 72.765096 
L 50.553726 73.044738 
L 50.33187 73.324379 
L 50.103905 73.604021 
L 49.869095 73.883662 
L 49.632156 74.163304 
L 49.404277 74.442945 
L 49.19964 74.722587 
L 49.029246 75.002228 
L 48.896083 75.28187 
L 48.794803 75.561511 
L 48.715794 75.841153 
L 48.650431 76.120794 
L 48.59406 76.400436 
L 48.545645 76.680077 
L 48.505629 76.959719 
L 48.474221 77.23936 
L 48.450955 77.519002 
L 48.434952 77.798643 
L 48.424984 78.078285 
L 48.419264 78.357926 
L 48.415486 78.637567 
L 48.411445 78.917209 
L 48.405897 79.19685 
L 48.398952 79.476492 
L 48.391693 79.756133 
L 48.385364 80.035775 
L 48.380702 80.315416 
L 48.377772 80.595058 
L 48.376188 80.874699 
L 48.375448 81.154341 
L 48.375149 81.433982 
L 48.375043 81.713624 
L 48.375011 81.993265 
L 48.375002 82.272907 
L 48.375 82.552548 
L 48.375 82.83219 
L 48.375 83.111831 
L 48.375 83.391473 
L 48.375 83.671114 
L 48.375 83.950756 
L 48.375 84.230397 
L 48.375 84.510039 
L 48.375 84.78968 
L 48.375 85.069322 
L 48.375 85.348963 
L 48.375 85.628604 
L 48.375 85.908246 
L 48.375 86.187887 
L 48.375 86.467529 
L 48.375 86.74717 
L 48.375 87.026812 
L 48.375 87.306453 
L 48.375 87.586095 
L 48.375 87.865736 
L 48.375 88.145378 
L 48.375 88.425019 
L 48.375001 88.704661 
L 48.375003 88.984302 
L 48.375015 89.263944 
L 48.375061 89.543585 
L 48.375219 89.823227 
L 48.375686 90.102868 
L 48.376882 90.38251 
L 48.379514 90.662151 
L 48.384461 90.941793 
L 48.392333 91.221434 
L 48.402759 91.501076 
L 48.413858 91.780717 
L 48.422549 92.060359 
L 48.425858 92.34 
z
" clip-path="url(#p78ad1bb72f)" style="fill: #306c53; fill-opacity: 0.5"/>
   </g>
   <g id="FillBetweenPolyCollection_4">
    <path d="M 62.391004 92.34 
L 62.258996 92.34 
L 62.263304 92.12419 
L 62.274612 91.908379 
L 62.289043 91.692569 
L 62.302581 91.476759 
L 62.312787 91.260949 
L 62.319187 91.045138 
L 62.322582 90.829328 
L 62.324121 90.613518 
L 62.324721 90.397707 
L 62.324923 90.181897 
L 62.324981 89.966087 
L 62.324996 89.750277 
L 62.324999 89.534466 
L 62.325 89.318656 
L 62.325 89.102846 
L 62.325 88.887035 
L 62.325 88.671225 
L 62.325 88.455415 
L 62.325 88.239605 
L 62.325 88.023794 
L 62.325 87.807984 
L 62.325 87.592174 
L 62.325 87.376363 
L 62.325 87.160553 
L 62.325 86.944743 
L 62.325 86.728933 
L 62.325 86.513122 
L 62.325 86.297312 
L 62.325 86.081502 
L 62.325 85.865691 
L 62.325 85.649881 
L 62.325 85.434071 
L 62.325 85.218261 
L 62.325 85.00245 
L 62.325 84.78664 
L 62.324998 84.57083 
L 62.32499 84.355019 
L 62.324961 84.139209 
L 62.324863 83.923399 
L 62.324584 83.707589 
L 62.323893 83.491778 
L 62.32241 83.275968 
L 62.319668 83.060158 
L 62.315299 82.844348 
L 62.309323 82.628537 
L 62.302333 82.412727 
L 62.295385 82.196917 
L 62.28957 81.981106 
L 62.285476 81.765296 
L 62.282832 81.549486 
L 62.280506 81.333676 
L 62.276834 81.117865 
L 62.270101 80.902055 
L 62.258827 80.686245 
L 62.24154 80.470434 
L 62.216242 80.254624 
L 62.180334 80.038814 
L 62.131596 79.823004 
L 62.06967 79.607193 
L 61.996571 79.391383 
L 61.914957 79.175573 
L 61.824611 78.959762 
L 61.719403 78.743952 
L 61.587357 78.528142 
L 61.414795 78.312332 
L 61.192879 78.096521 
L 60.923072 77.880711 
L 60.618199 77.664901 
L 60.297606 77.44909 
L 59.978257 77.23328 
L 59.667059 77.01747 
L 59.360461 76.80166 
L 59.052981 76.585849 
L 58.749066 76.370039 
L 58.469298 76.154229 
L 58.246216 75.938418 
L 58.112961 75.722608 
L 58.091866 75.506798 
L 58.187868 75.290988 
L 58.38769 75.075177 
L 58.664463 74.859367 
L 58.986777 74.643557 
L 59.328574 74.427746 
L 59.674121 74.211936 
L 60.014979 73.996126 
L 60.342725 73.780316 
L 60.64508 73.564505 
L 60.909501 73.348695 
L 61.130456 73.132885 
L 61.312855 72.917074 
L 61.468113 72.701264 
L 61.606627 72.485454 
L 61.733142 72.269644 
L 61.847621 72.053833 
L 61.948792 71.838023 
L 62.036358 71.622213 
L 62.110802 71.406402 
L 62.172488 71.190592 
L 62.221576 70.974782 
L 62.428424 70.974782 
L 62.428424 70.974782 
L 62.477512 71.190592 
L 62.539198 71.406402 
L 62.613642 71.622213 
L 62.701208 71.838023 
L 62.802379 72.053833 
L 62.916858 72.269644 
L 63.043373 72.485454 
L 63.181887 72.701264 
L 63.337145 72.917074 
L 63.519544 73.132885 
L 63.740499 73.348695 
L 64.00492 73.564505 
L 64.307275 73.780316 
L 64.635021 73.996126 
L 64.975879 74.211936 
L 65.321426 74.427746 
L 65.663223 74.643557 
L 65.985537 74.859367 
L 66.26231 75.075177 
L 66.462132 75.290988 
L 66.558134 75.506798 
L 66.537039 75.722608 
L 66.403784 75.938418 
L 66.180702 76.154229 
L 65.900934 76.370039 
L 65.597019 76.585849 
L 65.289539 76.80166 
L 64.982941 77.01747 
L 64.671743 77.23328 
L 64.352394 77.44909 
L 64.031801 77.664901 
L 63.726928 77.880711 
L 63.457121 78.096521 
L 63.235205 78.312332 
L 63.062643 78.528142 
L 62.930597 78.743952 
L 62.825389 78.959762 
L 62.735043 79.175573 
L 62.653429 79.391383 
L 62.58033 79.607193 
L 62.518404 79.823004 
L 62.469666 80.038814 
L 62.433758 80.254624 
L 62.40846 80.470434 
L 62.391173 80.686245 
L 62.379899 80.902055 
L 62.373166 81.117865 
L 62.369494 81.333676 
L 62.367168 81.549486 
L 62.364524 81.765296 
L 62.36043 81.981106 
L 62.354615 82.196917 
L 62.347667 82.412727 
L 62.340677 82.628537 
L 62.334701 82.844348 
L 62.330332 83.060158 
L 62.32759 83.275968 
L 62.326107 83.491778 
L 62.325416 83.707589 
L 62.325137 83.923399 
L 62.325039 84.139209 
L 62.32501 84.355019 
L 62.325002 84.57083 
L 62.325 84.78664 
L 62.325 85.00245 
L 62.325 85.218261 
L 62.325 85.434071 
L 62.325 85.649881 
L 62.325 85.865691 
L 62.325 86.081502 
L 62.325 86.297312 
L 62.325 86.513122 
L 62.325 86.728933 
L 62.325 86.944743 
L 62.325 87.160553 
L 62.325 87.376363 
L 62.325 87.592174 
L 62.325 87.807984 
L 62.325 88.023794 
L 62.325 88.239605 
L 62.325 88.455415 
L 62.325 88.671225 
L 62.325 88.887035 
L 62.325 89.102846 
L 62.325 89.318656 
L 62.325001 89.534466 
L 62.325004 89.750277 
L 62.325019 89.966087 
L 62.325077 90.181897 
L 62.325279 90.397707 
L 62.325879 90.613518 
L 62.327418 90.829328 
L 62.330813 91.045138 
L 62.337213 91.260949 
L 62.347419 91.476759 
L 62.360957 91.692569 
L 62.375388 91.908379 
L 62.386696 92.12419 
L 62.391004 92.34 
z
" clip-path="url(#p78ad1bb72f)" style="fill: #306c53; fill-opacity: 0.5"/>
   </g>
   <g id="FillBetweenPolyCollection_5">
    <path d="M 76.355672 92.34 
L 76.194328 92.34 
L 76.199588 92.163512 
L 76.213398 91.987023 
L 76.231027 91.810535 
L 76.247571 91.634047 
L 76.260049 91.457558 
L 76.267879 91.28107 
L 76.272036 91.104582 
L 76.273922 90.928093 
L 76.274657 90.751605 
L 76.274905 90.575117 
L 76.274977 90.398628 
L 76.274995 90.22214 
L 76.274999 90.045652 
L 76.275 89.869163 
L 76.275 89.692675 
L 76.275 89.516187 
L 76.275 89.339698 
L 76.275 89.16321 
L 76.275 88.986722 
L 76.275 88.810233 
L 76.275 88.633745 
L 76.275 88.457257 
L 76.275 88.280768 
L 76.275 88.10428 
L 76.275 87.927792 
L 76.275 87.751303 
L 76.275 87.574815 
L 76.275 87.398327 
L 76.275 87.221838 
L 76.275 87.04535 
L 76.275 86.868862 
L 76.275 86.692373 
L 76.275 86.515885 
L 76.275 86.339397 
L 76.274999 86.162908 
L 76.274997 85.98642 
L 76.274986 85.809932 
L 76.274946 85.633443 
L 76.274815 85.456955 
L 76.274447 85.280467 
L 76.273556 85.103978 
L 76.271694 84.92749 
L 76.268357 84.751002 
L 76.263246 84.574513 
L 76.256589 84.398025 
L 76.249259 84.221537 
L 76.24246 84.045048 
L 76.237134 83.86856 
L 76.233489 83.692072 
L 76.230975 83.515583 
L 76.228533 83.339095 
L 76.224792 83.162607 
L 76.218151 82.986118 
L 76.206951 82.80963 
L 76.189693 82.633142 
L 76.165024 82.456653 
L 76.131481 82.280165 
L 76.087536 82.103677 
L 76.032296 81.927188 
L 75.966368 81.7507 
L 75.891807 81.574212 
L 75.810539 81.397723 
L 75.721625 81.221235 
L 75.618641 81.044747 
L 75.488808 80.868258 
L 75.315276 80.69177 
L 75.082793 80.515282 
L 74.784953 80.338793 
L 74.429217 80.162305 
L 74.035602 79.985817 
L 73.627938 79.809328 
L 73.222244 79.63284 
L 72.821019 79.456352 
L 72.419524 79.279863 
L 72.020434 79.103375 
L 71.644744 78.926887 
L 71.329273 78.750398 
L 71.112987 78.57391 
L 71.023263 78.397422 
L 71.070142 78.220933 
L 71.247485 78.044445 
L 71.536219 77.867957 
L 71.908349 77.691468 
L 72.332877 77.51498 
L 72.781927 77.338492 
L 73.233044 77.162004 
L 73.667106 76.985515 
L 74.0667 76.809027 
L 74.41904 76.632539 
L 74.720839 76.45605 
L 74.978648 76.279562 
L 75.202607 76.103074 
L 75.399083 75.926585 
L 75.568907 75.750097 
L 75.711538 75.573609 
L 75.829533 75.39712 
L 75.928594 75.220632 
L 76.014072 75.044144 
L 76.088092 74.867655 
L 76.461908 74.867655 
L 76.461908 74.867655 
L 76.535928 75.044144 
L 76.621406 75.220632 
L 76.720467 75.39712 
L 76.838462 75.573609 
L 76.981093 75.750097 
L 77.150917 75.926585 
L 77.347393 76.103074 
L 77.571352 76.279562 
L 77.829161 76.45605 
L 78.13096 76.632539 
L 78.4833 76.809027 
L 78.882894 76.985515 
L 79.316956 77.162004 
L 79.768073 77.338492 
L 80.217123 77.51498 
L 80.641651 77.691468 
L 81.013781 77.867957 
L 81.302515 78.044445 
L 81.479858 78.220933 
L 81.526737 78.397422 
L 81.437013 78.57391 
L 81.220727 78.750398 
L 80.905256 78.926887 
L 80.529566 79.103375 
L 80.130476 79.279863 
L 79.728981 79.456352 
L 79.327756 79.63284 
L 78.922062 79.809328 
L 78.514398 79.985817 
L 78.120783 80.162305 
L 77.765047 80.338793 
L 77.467207 80.515282 
L 77.234724 80.69177 
L 77.061192 80.868258 
L 76.931359 81.044747 
L 76.828375 81.221235 
L 76.739461 81.397723 
L 76.658193 81.574212 
L 76.583632 81.7507 
L 76.517704 81.927188 
L 76.462464 82.103677 
L 76.418519 82.280165 
L 76.384976 82.456653 
L 76.360307 82.633142 
L 76.343049 82.80963 
L 76.331849 82.986118 
L 76.325208 83.162607 
L 76.321467 83.339095 
L 76.319025 83.515583 
L 76.316511 83.692072 
L 76.312866 83.86856 
L 76.30754 84.045048 
L 76.300741 84.221537 
L 76.293411 84.398025 
L 76.286754 84.574513 
L 76.281643 84.751002 
L 76.278306 84.92749 
L 76.276444 85.103978 
L 76.275553 85.280467 
L 76.275185 85.456955 
L 76.275054 85.633443 
L 76.275014 85.809932 
L 76.275003 85.98642 
L 76.275001 86.162908 
L 76.275 86.339397 
L 76.275 86.515885 
L 76.275 86.692373 
L 76.275 86.868862 
L 76.275 87.04535 
L 76.275 87.221838 
L 76.275 87.398327 
L 76.275 87.574815 
L 76.275 87.751303 
L 76.275 87.927792 
L 76.275 88.10428 
L 76.275 88.280768 
L 76.275 88.457257 
L 76.275 88.633745 
L 76.275 88.810233 
L 76.275 88.986722 
L 76.275 89.16321 
L 76.275 89.339698 
L 76.275 89.516187 
L 76.275 89.692675 
L 76.275 89.869163 
L 76.275001 90.045652 
L 76.275005 90.22214 
L 76.275023 90.398628 
L 76.275095 90.575117 
L 76.275343 90.751605 
L 76.276078 90.928093 
L 76.277964 91.104582 
L 76.282121 91.28107 
L 76.289951 91.457558 
L 76.302429 91.634047 
L 76.318973 91.810535 
L 76.336602 91.987023 
L 76.350412 92.163512 
L 76.355672 92.34 
z
" clip-path="url(#p78ad1bb72f)" style="fill: #306c53; fill-opacity: 0.5"/>
   </g>
   <g id="FillBetweenPolyCollection_6">
    <path d="M 90.318709 92.34 
L 90.131291 92.34 
L 90.137254 92.189964 
L 90.152962 92.039928 
L 90.173146 91.889891 
L 90.192273 91.739855 
L 90.20689 91.589819 
L 90.216214 91.439783 
L 90.221262 91.289746 
L 90.223606 91.13971 
L 90.224544 90.989674 
L 90.224869 90.839638 
L 90.224967 90.689601 
L 90.224993 90.539565 
L 90.224999 90.389529 
L 90.225 90.239493 
L 90.225 90.089456 
L 90.225 89.93942 
L 90.225 89.789384 
L 90.225 89.639348 
L 90.225 89.489311 
L 90.225 89.339275 
L 90.225 89.189239 
L 90.225 89.039203 
L 90.225 88.889166 
L 90.225 88.73913 
L 90.225 88.589094 
L 90.225 88.439058 
L 90.225 88.289021 
L 90.225 88.138985 
L 90.225 87.988949 
L 90.225 87.838913 
L 90.224999 87.688876 
L 90.224993 87.53884 
L 90.224972 87.388804 
L 90.2249 87.238768 
L 90.224678 87.088731 
L 90.224094 86.938695 
L 90.222762 86.788659 
L 90.220135 86.638623 
L 90.215673 86.488586 
L 90.209165 86.33855 
L 90.201018 86.188514 
L 90.19222 86.038478 
L 90.183837 85.888441 
L 90.176371 85.738405 
L 90.169554 85.588369 
L 90.162839 85.438333 
L 90.156164 85.288296 
L 90.150308 85.13826 
L 90.146499 84.988224 
L 90.14559 84.838188 
L 90.147323 84.688151 
L 90.15008 84.538115 
L 90.151231 84.388079 
L 90.147987 84.238043 
L 90.138234 84.088006 
L 90.120738 83.93797 
L 90.094532 83.787934 
L 90.058219 83.637898 
L 90.010138 83.487861 
L 89.949447 83.337825 
L 89.876914 83.187789 
L 89.794054 83.037753 
L 89.700486 82.887716 
L 89.591012 82.73768 
L 89.454448 82.587644 
L 89.275432 82.437608 
L 89.038877 82.287571 
L 88.735427 82.137535 
L 88.36557 81.987499 
L 87.940175 81.837463 
L 87.476419 81.687426 
L 86.990683 81.53739 
L 86.492861 81.387354 
L 85.987092 81.237318 
L 85.47989 81.087281 
L 84.990116 80.937245 
L 84.552213 80.787209 
L 84.209021 80.637173 
L 83.999182 80.487136 
L 83.9475 80.3371 
L 84.061614 80.187064 
L 84.332186 80.037028 
L 84.733962 79.886991 
L 85.229034 79.736955 
L 85.77401 79.586919 
L 86.328738 79.436883 
L 86.862153 79.286846 
L 87.353928 79.13681 
L 87.79423 78.986774 
L 88.182868 78.836738 
L 88.526161 78.686701 
L 88.830837 78.536665 
L 89.098699 78.386629 
L 89.3269 78.236593 
L 89.513523 78.086556 
L 89.662646 77.93652 
L 89.783834 77.786484 
L 89.886916 77.636448 
L 89.977152 77.486411 
L 90.472848 77.486411 
L 90.472848 77.486411 
L 90.563084 77.636448 
L 90.666166 77.786484 
L 90.787354 77.93652 
L 90.936477 78.086556 
L 91.1231 78.236593 
L 91.351301 78.386629 
L 91.619163 78.536665 
L 91.923839 78.686701 
L 92.267132 78.836738 
L 92.65577 78.986774 
L 93.096072 79.13681 
L 93.587847 79.286846 
L 94.121262 79.436883 
L 94.67599 79.586919 
L 95.220966 79.736955 
L 95.716038 79.886991 
L 96.117814 80.037028 
L 96.388386 80.187064 
L 96.5025 80.3371 
L 96.450818 80.487136 
L 96.240979 80.637173 
L 95.897787 80.787209 
L 95.459884 80.937245 
L 94.97011 81.087281 
L 94.462908 81.237318 
L 93.957139 81.387354 
L 93.459317 81.53739 
L 92.973581 81.687426 
L 92.509825 81.837463 
L 92.08443 81.987499 
L 91.714573 82.137535 
L 91.411123 82.287571 
L 91.174568 82.437608 
L 90.995552 82.587644 
L 90.858988 82.73768 
L 90.749514 82.887716 
L 90.655946 83.037753 
L 90.573086 83.187789 
L 90.500553 83.337825 
L 90.439862 83.487861 
L 90.391781 83.637898 
L 90.355468 83.787934 
L 90.329262 83.93797 
L 90.311766 84.088006 
L 90.302013 84.238043 
L 90.298769 84.388079 
L 90.29992 84.538115 
L 90.302677 84.688151 
L 90.30441 84.838188 
L 90.303501 84.988224 
L 90.299692 85.13826 
L 90.293836 85.288296 
L 90.287161 85.438333 
L 90.280446 85.588369 
L 90.273629 85.738405 
L 90.266163 85.888441 
L 90.25778 86.038478 
L 90.248982 86.188514 
L 90.240835 86.33855 
L 90.234327 86.488586 
L 90.229865 86.638623 
L 90.227238 86.788659 
L 90.225906 86.938695 
L 90.225322 87.088731 
L 90.2251 87.238768 
L 90.225028 87.388804 
L 90.225007 87.53884 
L 90.225001 87.688876 
L 90.225 87.838913 
L 90.225 87.988949 
L 90.225 88.138985 
L 90.225 88.289021 
L 90.225 88.439058 
L 90.225 88.589094 
L 90.225 88.73913 
L 90.225 88.889166 
L 90.225 89.039203 
L 90.225 89.189239 
L 90.225 89.339275 
L 90.225 89.489311 
L 90.225 89.639348 
L 90.225 89.789384 
L 90.225 89.93942 
L 90.225 90.089456 
L 90.225 90.239493 
L 90.225001 90.389529 
L 90.225007 90.539565 
L 90.225033 90.689601 
L 90.225131 90.839638 
L 90.225456 90.989674 
L 90.226394 91.13971 
L 90.228738 91.289746 
L 90.233786 91.439783 
L 90.24311 91.589819 
L 90.257727 91.739855 
L 90.276854 91.889891 
L 90.297038 92.039928 
L 90.312746 92.189964 
L 90.318709 92.34 
z
" clip-path="url(#p78ad1bb72f)" style="fill: #306c53; fill-opacity: 0.5"/>
   </g>
   <g id="matplotlib.axis_1">
    <g id="xtick_1">
     <g id="line2d_1">
      <defs>
       <path id="mee2bf4b505" d="M 0 0 
L 0 1.7 
" style="stroke: #000000; stroke-width: 0.25"/>
      </defs>
      <g>
       <use xlink:href="#mee2bf4b505" x="20.475" y="98.12" style="stroke: #000000; stroke-width: 0.25"/>
      </g>
     </g>
     <g id="text_1">
      <text style="font-size: 6px; font-family: 'Arial'" transform="translate(16.263848 114.972685) rotate(-45)">0.010</text>
     </g>
    </g>
    <g id="xtick_2">
     <g id="line2d_2">
      <g>
       <use xlink:href="#mee2bf4b505" x="34.425" y="98.12" style="stroke: #000000; stroke-width: 0.25"/>
      </g>
     </g>
     <g id="text_2">
      <text style="font-size: 6px; font-family: 'Arial'" transform="translate(30.213848 114.972685) rotate(-45)">0.015</text>
     </g>
    </g>
    <g id="xtick_3">
     <g id="line2d_3">
      <g>
       <use xlink:href="#mee2bf4b505" x="48.375" y="98.12" style="stroke: #000000; stroke-width: 0.25"/>
      </g>
     </g>
     <g id="text_3">
      <text style="font-size: 6px; font-family: 'Arial'" transform="translate(44.163848 114.972685) rotate(-45)">0.020</text>
     </g>
    </g>
    <g id="xtick_4">
     <g id="line2d_4">
      <g>
       <use xlink:href="#mee2bf4b505" x="62.325" y="98.12" style="stroke: #000000; stroke-width: 0.25"/>
      </g>
     </g>
     <g id="text_4">
      <text style="font-size: 6px; font-family: 'Arial'" transform="translate(58.113848 114.972685) rotate(-45)">0.025</text>
     </g>
    </g>
    <g id="xtick_5">
     <g id="line2d_5">
      <g>
       <use xlink:href="#mee2bf4b505" x="76.275" y="98.12" style="stroke: #000000; stroke-width: 0.25"/>
      </g>
     </g>
     <g id="text_5">
      <text style="font-size: 6px; font-family: 'Arial'" transform="translate(72.063848 114.972685) rotate(-45)">0.030</text>
     </g>
    </g>
    <g id="xtick_6">
     <g id="line2d_6">
      <g>
       <use xlink:href="#mee2bf4b505" x="90.225" y="98.12" style="stroke: #000000; stroke-width: 0.25"/>
      </g>
     </g>
     <g id="text_6">
      <text style="font-size: 6px; font-family: 'Arial'" transform="translate(86.013848 114.972685) rotate(-45)">0.035</text>
     </g>
    </g>
    <g id="text_7">
     <!-- mean $\tau$ (s) -->
     <g transform="translate(36.03 123.15591)">
      <text>
       <tspan x="0" y="-0.171875" style="font-size: 8px; font-family: 'Arial'">m</tspan>
       <tspan x="6.664062" y="-0.171875" style="font-size: 8px; font-family: 'Arial'">e</tspan>
       <tspan x="11.113281" y="-0.171875" style="font-size: 8px; font-family: 'Arial'">a</tspan>
       <tspan x="15.5625" y="-0.171875" style="font-size: 8px; font-family: 'Arial'">n</tspan>
       <tspan x="20.011719" y="-0.171875" style="font-size: 8px; font-family: 'Arial'"> </tspan>
       <tspan x="27.050781" y="-0.171875" style="font-size: 8px; font-family: 'Arial'"> </tspan>
       <tspan x="29.273438" y="-0.171875" style="font-size: 8px; font-family: 'Arial'">(</tspan>
       <tspan x="31.9375" y="-0.171875" style="font-size: 8px; font-family: 'Arial'">s</tspan>
       <tspan x="35.9375" y="-0.171875" style="font-size: 8px; font-family: 'Arial'">)</tspan>
       <tspan x="22.234375" y="-0.171875" style="font-style: oblique; font-size: 8px; font-family: 'DejaVu Sans'">τ</tspan>
      </text>
     </g>
    </g>
   </g>
   <g id="matplotlib.axis_2">
    <g id="ytick_1">
     <g id="line2d_7">
      <defs>
       <path id="md3c26e4218" d="M 0 0 
L -1.7 0 
" style="stroke: #000000; stroke-width: 0.25"/>
      </defs>
      <g>
       <use xlink:href="#md3c26e4218" x="11.5" y="92.34" style="stroke: #000000; stroke-width: 0.25"/>
      </g>
     </g>
     <g id="text_8">
      <text style="font-size: 6px; font-family: 'Arial'; text-anchor: end" x="8.3" y="94.487344" transform="rotate(-0 8.3 94.487344)">0</text>
     </g>
    </g>
    <g id="ytick_2">
     <g id="line2d_8">
      <g>
       <use xlink:href="#md3c26e4218" x="11.5" y="72.683999" style="stroke: #000000; stroke-width: 0.25"/>
      </g>
     </g>
     <g id="text_9">
      <text style="font-size: 6px; font-family: 'Arial'; text-anchor: end" x="8.3" y="74.831343" transform="rotate(-0 8.3 74.831343)">10</text>
     </g>
    </g>
    <g id="ytick_3">
     <g id="line2d_9">
      <g>
       <use xlink:href="#md3c26e4218" x="11.5" y="53.027998" style="stroke: #000000; stroke-width: 0.25"/>
      </g>
     </g>
     <g id="text_10">
      <text style="font-size: 6px; font-family: 'Arial'; text-anchor: end" x="8.3" y="55.175342" transform="rotate(-0 8.3 55.175342)">20</text>
     </g>
    </g>
    <g id="ytick_4">
     <g id="line2d_10">
      <g>
       <use xlink:href="#md3c26e4218" x="11.5" y="33.371997" style="stroke: #000000; stroke-width: 0.25"/>
      </g>
     </g>
     <g id="text_11">
      <text style="font-size: 6px; font-family: 'Arial'; text-anchor: end" x="8.3" y="35.519341" transform="rotate(-0 8.3 35.519341)">30</text>
     </g>
    </g>
    <g id="ytick_5">
     <g id="line2d_11">
      <g>
       <use xlink:href="#md3c26e4218" x="11.5" y="13.715996" style="stroke: #000000; stroke-width: 0.25"/>
      </g>
     </g>
     <g id="text_12">
      <text style="font-size: 6px; font-family: 'Arial'; text-anchor: end" x="8.3" y="15.86334" transform="rotate(-0 8.3 15.86334)">40</text>
     </g>
    </g>
    <g id="text_13">
     <text style="font-size: 8px; font-family: 'Arial'" transform="translate(-10.135375 78.32875) rotate(-90)">motor neuron</text>
     <text style="font-size: 8px; font-family: 'Arial'" transform="translate(-1.556875 80.76875) rotate(-90)">frequency (Hz)</text>
    </g>
   </g>
   <g id="patch_3">
    <path d="M 19.08 53.220706 
L 21.87 53.220706 
L 21.87 45.539996 
L 19.08 45.539996 
L 19.08 53.220706 
z
" clip-path="url(#p78ad1bb72f)" style="fill: #306c53; stroke: #2f2f2f; stroke-width: 0.5; stroke-linejoin: miter"/>
   </g>
   <g id="line2d_12">
    <path d="M 20.475 53.220706 
L 20.475 64.260001 
" clip-path="url(#p78ad1bb72f)" style="fill: none; stroke: #2f2f2f; stroke-width: 0.5"/>
   </g>
   <g id="line2d_13">
    <path d="M 20.475 45.539996 
L 20.475 34.528233 
" clip-path="url(#p78ad1bb72f)" style="fill: none; stroke: #2f2f2f; stroke-width: 0.5"/>
   </g>
   <g id="line2d_14">
    <path d="M 19.7775 64.260001 
L 21.1725 64.260001 
" clip-path="url(#p78ad1bb72f)" style="fill: none; stroke: #2f2f2f; stroke-width: 0.5; stroke-linecap: square"/>
   </g>
   <g id="line2d_15">
    <path d="M 19.7775 34.528233 
L 21.1725 34.528233 
" clip-path="url(#p78ad1bb72f)" style="fill: none; stroke: #2f2f2f; stroke-width: 0.5; stroke-linecap: square"/>
   </g>
   <g id="patch_4">
    <path d="M 33.03 66.132001 
L 35.82 66.132001 
L 35.82 62.100001 
L 33.03 62.100001 
L 33.03 66.132001 
z
" clip-path="url(#p78ad1bb72f)" style="fill: #306c53; stroke: #2f2f2f; stroke-width: 0.5; stroke-linejoin: miter"/>
   </g>
   <g id="line2d_16">
    <path d="M 34.425 66.132001 
L 34.425 72.17947 
" clip-path="url(#p78ad1bb72f)" style="fill: none; stroke: #2f2f2f; stroke-width: 0.5"/>
   </g>
   <g id="line2d_17">
    <path d="M 34.425 62.100001 
L 34.425 56.270907 
" clip-path="url(#p78ad1bb72f)" style="fill: none; stroke: #2f2f2f; stroke-width: 0.5"/>
   </g>
   <g id="line2d_18">
    <path d="M 33.7275 72.17947 
L 35.1225 72.17947 
" clip-path="url(#p78ad1bb72f)" style="fill: none; stroke: #2f2f2f; stroke-width: 0.5; stroke-linecap: square"/>
   </g>
   <g id="line2d_19">
    <path d="M 33.7275 56.270907 
L 35.1225 56.270907 
" clip-path="url(#p78ad1bb72f)" style="fill: none; stroke: #2f2f2f; stroke-width: 0.5; stroke-linecap: square"/>
   </g>
   <g id="patch_5">
    <path d="M 46.98 72.684001 
L 49.77 72.684001 
L 49.77 70.003636 
L 46.98 70.003636 
L 46.98 72.684001 
z
" clip-path="url(#p78ad1bb72f)" style="fill: #306c53; stroke: #2f2f2f; stroke-width: 0.5; stroke-linejoin: miter"/>
   </g>
   <g id="line2d_20">
    <path d="M 48.375 72.684001 
L 48.375 76.615199 
" clip-path="url(#p78ad1bb72f)" style="fill: none; stroke: #2f2f2f; stroke-width: 0.5"/>
   </g>
   <g id="line2d_21">
    <path d="M 48.375 70.003636 
L 48.375 66.132001 
" clip-path="url(#p78ad1bb72f)" style="fill: none; stroke: #2f2f2f; stroke-width: 0.5"/>
   </g>
   <g id="line2d_22">
    <path d="M 47.6775 76.615199 
L 49.0725 76.615199 
" clip-path="url(#p78ad1bb72f)" style="fill: none; stroke: #2f2f2f; stroke-width: 0.5; stroke-linecap: square"/>
   </g>
   <g id="line2d_23">
    <path d="M 47.6775 66.132001 
L 49.0725 66.132001 
" clip-path="url(#p78ad1bb72f)" style="fill: none; stroke: #2f2f2f; stroke-width: 0.5; stroke-linecap: square"/>
   </g>
   <g id="patch_6">
    <path d="M 60.93 76.615199 
L 63.72 76.615199 
L 63.72 74.631892 
L 60.93 74.631892 
L 60.93 76.615199 
z
" clip-path="url(#p78ad1bb72f)" style="fill: #306c53; stroke: #2f2f2f; stroke-width: 0.5; stroke-linejoin: miter"/>
   </g>
   <g id="line2d_24">
    <path d="M 62.325 76.615199 
L 62.325 79.576364 
" clip-path="url(#p78ad1bb72f)" style="fill: none; stroke: #2f2f2f; stroke-width: 0.5"/>
   </g>
   <g id="line2d_25">
    <path d="M 62.325 74.631892 
L 62.325 71.865 
" clip-path="url(#p78ad1bb72f)" style="fill: none; stroke: #2f2f2f; stroke-width: 0.5"/>
   </g>
   <g id="line2d_26">
    <path d="M 61.6275 79.576364 
L 63.0225 79.576364 
" clip-path="url(#p78ad1bb72f)" style="fill: none; stroke: #2f2f2f; stroke-width: 0.5; stroke-linecap: square"/>
   </g>
   <g id="line2d_27">
    <path d="M 61.6275 71.865 
L 63.0225 71.865 
" clip-path="url(#p78ad1bb72f)" style="fill: none; stroke: #2f2f2f; stroke-width: 0.5; stroke-linecap: square"/>
   </g>
   <g id="patch_7">
    <path d="M 74.88 79.236 
L 77.67 79.236 
L 77.67 77.662152 
L 74.88 77.662152 
L 74.88 79.236 
z
" clip-path="url(#p78ad1bb72f)" style="fill: #306c53; stroke: #2f2f2f; stroke-width: 0.5; stroke-linejoin: miter"/>
   </g>
   <g id="line2d_28">
    <path d="M 76.275 79.236 
L 76.275 81.579417 
" clip-path="url(#p78ad1bb72f)" style="fill: none; stroke: #2f2f2f; stroke-width: 0.5"/>
   </g>
   <g id="line2d_29">
    <path d="M 76.275 77.662152 
L 76.275 75.395172 
" clip-path="url(#p78ad1bb72f)" style="fill: none; stroke: #2f2f2f; stroke-width: 0.5"/>
   </g>
   <g id="line2d_30">
    <path d="M 75.5775 81.579417 
L 76.9725 81.579417 
" clip-path="url(#p78ad1bb72f)" style="fill: none; stroke: #2f2f2f; stroke-width: 0.5; stroke-linecap: square"/>
   </g>
   <g id="line2d_31">
    <path d="M 75.5775 75.395172 
L 76.9725 75.395172 
" clip-path="url(#p78ad1bb72f)" style="fill: none; stroke: #2f2f2f; stroke-width: 0.5; stroke-linecap: square"/>
   </g>
   <g id="patch_8">
    <path d="M 88.83 81.108 
L 91.62 81.108 
L 91.62 79.766752 
L 88.83 79.766752 
L 88.83 81.108 
z
" clip-path="url(#p78ad1bb72f)" style="fill: #306c53; stroke: #2f2f2f; stroke-width: 0.5; stroke-linejoin: miter"/>
   </g>
   <g id="line2d_32">
    <path d="M 90.225 81.108 
L 90.225 83.111831 
" clip-path="url(#p78ad1bb72f)" style="fill: none; stroke: #2f2f2f; stroke-width: 0.5"/>
   </g>
   <g id="line2d_33">
    <path d="M 90.225 79.766752 
L 90.225 77.78 
" clip-path="url(#p78ad1bb72f)" style="fill: none; stroke: #2f2f2f; stroke-width: 0.5"/>
   </g>
   <g id="line2d_34">
    <path d="M 89.5275 83.111831 
L 90.9225 83.111831 
" clip-path="url(#p78ad1bb72f)" style="fill: none; stroke: #2f2f2f; stroke-width: 0.5; stroke-linecap: square"/>
   </g>
   <g id="line2d_35">
    <path d="M 89.5275 77.78 
L 90.9225 77.78 
" clip-path="url(#p78ad1bb72f)" style="fill: none; stroke: #2f2f2f; stroke-width: 0.5; stroke-linecap: square"/>
   </g>
   <g id="line2d_36">
    <path d="M 19.08 49.609564 
L 21.87 49.609564 
" clip-path="url(#p78ad1bb72f)" style="fill: none; stroke: #2f2f2f; stroke-width: 0.5"/>
   </g>
   <g id="line2d_37">
    <path d="M 33.03 64.26 
L 35.82 64.26 
" clip-path="url(#p78ad1bb72f)" style="fill: none; stroke: #2f2f2f; stroke-width: 0.5"/>
   </g>
   <g id="line2d_38">
    <path d="M 46.98 71.279465 
L 49.77 71.279465 
" clip-path="url(#p78ad1bb72f)" style="fill: none; stroke: #2f2f2f; stroke-width: 0.5"/>
   </g>
   <g id="line2d_39">
    <path d="M 60.93 75.539999 
L 63.72 75.539999 
" clip-path="url(#p78ad1bb72f)" style="fill: none; stroke: #2f2f2f; stroke-width: 0.5"/>
   </g>
   <g id="line2d_40">
    <path d="M 74.88 78.399574 
L 77.67 78.399574 
" clip-path="url(#p78ad1bb72f)" style="fill: none; stroke: #2f2f2f; stroke-width: 0.5"/>
   </g>
   <g id="line2d_41">
    <path d="M 88.83 80.390954 
L 91.62 80.390954 
" clip-path="url(#p78ad1bb72f)" style="fill: none; stroke: #2f2f2f; stroke-width: 0.5"/>
   </g>
   <g id="patch_9">
    <path d="M 11.5 96.12 
L 11.5 12.96 
" style="fill: none; stroke: #000000; stroke-width: 0.25; stroke-linejoin: miter; stroke-linecap: square"/>
   </g>
   <g id="patch_10">
    <path d="M 13.5 98.12 
L 97.2 98.12 
" style="fill: none; stroke: #000000; stroke-width: 0.25; stroke-linejoin: miter; stroke-linecap: square"/>
   </g>
  </g>
 </g>
 <defs>
  <clipPath id="p78ad1bb72f">
   <rect x="13.5" y="12.96" width="83.7" height="83.16"/>
  </clipPath>
 </defs>
</svg>
