<?xml version="1.0" encoding="utf-8" standalone="no"?>
<!DOCTYPE svg PUBLIC "-//W3C//DTD SVG 1.1//EN"
  "http://www.w3.org/Graphics/SVG/1.1/DTD/svg11.dtd">
<svg xmlns:xlink="http://www.w3.org/1999/xlink" width="108pt" height="108pt" viewBox="0 0 108 108" xmlns="http://www.w3.org/2000/svg" version="1.1">
 <metadata>
  <rdf:RDF xmlns:dc="http://purl.org/dc/elements/1.1/" xmlns:cc="http://creativecommons.org/ns#" xmlns:rdf="http://www.w3.org/1999/02/22-rdf-syntax-ns#">
   <cc:Work>
    <dc:type rdf:resource="http://purl.org/dc/dcmitype/StillImage"/>
    <dc:date>2025-09-07T01:54:40.797235</dc:date>
    <dc:format>image/svg+xml</dc:format>
    <dc:creator>
     <cc:Agent>
      <dc:title>Matplotlib v3.10.3, https://matplotlib.org/</dc:title>
     </cc:Agent>
    </dc:creator>
   </cc:Work>
  </rdf:RDF>
 </metadata>
 <defs>
  <style type="text/css">*{stroke-linejoin: round; stroke-linecap: butt}</style>
 </defs>
 <g id="figure_1">
  <g id="patch_1">
   <path d="M 0 108 
L 108 108 
L 108 0 
L 0 0 
L 0 108 
z
" style="fill: none"/>
  </g>
  <g id="axes_1">
   <g id="patch_2">
    <path d="M 13.5 96.12 
L 97.2 96.12 
L 97.2 12.96 
L 13.5 12.96 
L 13.5 96.12 
z
" style="fill: none"/>
   </g>
   <g id="FillBetweenPolyCollection_1">
    <path d="M 20.502882 92.34 
L 20.447118 92.34 
L 20.448732 91.58031 
L 20.453035 90.820619 
L 20.458698 90.060929 
L 20.464261 89.301239 
L 20.468721 88.541548 
L 20.471742 87.781858 
L 20.473499 87.022168 
L 20.474386 86.262478 
L 20.474777 85.502787 
L 20.474928 84.743097 
L 20.47498 83.983407 
L 20.474995 83.223716 
L 20.474999 82.464026 
L 20.475 81.704336 
L 20.474999 80.944645 
L 20.474996 80.184955 
L 20.474985 79.425265 
L 20.474948 78.665575 
L 20.474832 77.905884 
L 20.474522 77.146194 
L 20.473793 76.386504 
L 20.472293 75.626813 
L 20.469601 74.867123 
L 20.465418 74.107433 
L 20.459834 73.347742 
L 20.453509 72.588052 
L 20.447556 71.828362 
L 20.443064 71.068672 
L 20.44055 70.308981 
L 20.439751 69.549291 
L 20.439973 68.789601 
L 20.440718 68.02991 
L 20.442068 67.27022 
L 20.444508 66.51053 
L 20.4484 65.750839 
L 20.453553 64.991149 
L 20.459229 64.231459 
L 20.46451 63.471769 
L 20.468721 62.712078 
L 20.471628 61.952388 
L 20.473379 61.192698 
L 20.474303 60.433007 
L 20.474733 59.673317 
L 20.474908 58.913627 
L 20.474972 58.153936 
L 20.47499 57.394246 
L 20.47499 56.634556 
L 20.47497 55.874866 
L 20.474908 55.115175 
L 20.47474 54.355485 
L 20.474351 53.595795 
L 20.473562 52.836104 
L 20.472172 52.076414 
L 20.470062 51.316724 
L 20.467346 50.557033 
L 20.464463 49.797343 
L 20.462101 49.037653 
L 20.460906 48.277963 
L 20.461103 47.518272 
L 20.462253 46.758582 
L 20.463291 45.998892 
L 20.462857 45.239201 
L 20.459744 44.479511 
L 20.453325 43.719821 
L 20.443832 42.96013 
L 20.432408 42.20044 
L 20.420872 41.44075 
L 20.411203 40.681059 
L 20.404885 39.921369 
L 20.402371 39.161679 
L 20.402903 38.401989 
L 20.404795 37.642298 
L 20.405993 36.882608 
L 20.404538 36.122918 
L 20.398574 35.363227 
L 20.385975 34.603537 
L 20.364037 33.843847 
L 20.329764 33.084156 
L 20.280891 32.324466 
L 20.217204 31.564776 
L 20.141451 30.805086 
L 20.059181 30.045395 
L 19.977292 29.285705 
L 19.901673 28.526015 
L 19.834934 27.766324 
L 19.77535 27.006634 
L 19.71741 26.246944 
L 19.653082 25.487253 
L 19.572167 24.727563 
L 19.460451 23.967873 
L 19.295555 23.208183 
L 19.042707 22.448492 
L 18.656487 21.688802 
L 18.097345 20.929112 
L 17.366506 20.169421 
L 16.545443 19.409731 
L 15.807258 18.650041 
L 15.370696 17.89035 
L 15.404701 17.13066 
L 25.545299 17.13066 
L 25.545299 17.13066 
L 25.579304 17.89035 
L 25.142742 18.650041 
L 24.404557 19.409731 
L 23.583494 20.169421 
L 22.852655 20.929112 
L 22.293513 21.688802 
L 21.907293 22.448492 
L 21.654445 23.208183 
L 21.489549 23.967873 
L 21.377833 24.727563 
L 21.296918 25.487253 
L 21.23259 26.246944 
L 21.17465 27.006634 
L 21.115066 27.766324 
L 21.048327 28.526015 
L 20.972708 29.285705 
L 20.890819 30.045395 
L 20.808549 30.805086 
L 20.732796 31.564776 
L 20.669109 32.324466 
L 20.620236 33.084156 
L 20.585963 33.843847 
L 20.564025 34.603537 
L 20.551426 35.363227 
L 20.545462 36.122918 
L 20.544007 36.882608 
L 20.545205 37.642298 
L 20.547097 38.401989 
L 20.547629 39.161679 
L 20.545115 39.921369 
L 20.538797 40.681059 
L 20.529128 41.44075 
L 20.517592 42.20044 
L 20.506168 42.96013 
L 20.496675 43.719821 
L 20.490256 44.479511 
L 20.487143 45.239201 
L 20.486709 45.998892 
L 20.487747 46.758582 
L 20.488897 47.518272 
L 20.489094 48.277963 
L 20.487899 49.037653 
L 20.485537 49.797343 
L 20.482654 50.557033 
L 20.479938 51.316724 
L 20.477828 52.076414 
L 20.476438 52.836104 
L 20.475649 53.595795 
L 20.47526 54.355485 
L 20.475092 55.115175 
L 20.47503 55.874866 
L 20.47501 56.634556 
L 20.47501 57.394246 
L 20.475028 58.153936 
L 20.475092 58.913627 
L 20.475267 59.673317 
L 20.475697 60.433007 
L 20.476621 61.192698 
L 20.478372 61.952388 
L 20.481279 62.712078 
L 20.48549 63.471769 
L 20.490771 64.231459 
L 20.496447 64.991149 
L 20.5016 65.750839 
L 20.505492 66.51053 
L 20.507932 67.27022 
L 20.509282 68.02991 
L 20.510027 68.789601 
L 20.510249 69.549291 
L 20.50945 70.308981 
L 20.506936 71.068672 
L 20.502444 71.828362 
L 20.496491 72.588052 
L 20.490166 73.347742 
L 20.484582 74.107433 
L 20.480399 74.867123 
L 20.477707 75.626813 
L 20.476207 76.386504 
L 20.475478 77.146194 
L 20.475168 77.905884 
L 20.475052 78.665575 
L 20.475015 79.425265 
L 20.475004 80.184955 
L 20.475001 80.944645 
L 20.475 81.704336 
L 20.475001 82.464026 
L 20.475005 83.223716 
L 20.47502 83.983407 
L 20.475072 84.743097 
L 20.475223 85.502787 
L 20.475614 86.262478 
L 20.476501 87.022168 
L 20.478258 87.781858 
L 20.481279 88.541548 
L 20.485739 89.301239 
L 20.491302 90.060929 
L 20.496965 90.820619 
L 20.501268 91.58031 
L 20.502882 92.34 
z
" clip-path="url(#p6b5bcfe5af)" style="fill: #306c53; fill-opacity: 0.5"/>
   </g>
   <g id="FillBetweenPolyCollection_2">
    <path d="M 34.459213 92.34 
L 34.390787 92.34 
L 34.393727 91.580122 
L 34.401114 90.820244 
L 34.409757 90.060366 
L 34.416872 89.300488 
L 34.421379 88.54061 
L 34.423652 87.780732 
L 34.424581 87.020854 
L 34.424891 86.260976 
L 34.424976 85.501098 
L 34.424996 84.74122 
L 34.424999 83.981342 
L 34.425 83.221464 
L 34.425 82.461586 
L 34.425 81.701708 
L 34.425 80.94183 
L 34.425 80.181952 
L 34.425 79.422074 
L 34.425 78.662196 
L 34.425 77.902318 
L 34.425 77.14244 
L 34.425 76.382561 
L 34.425 75.622683 
L 34.425 74.862805 
L 34.425 74.102927 
L 34.425 73.343049 
L 34.425 72.583171 
L 34.425 71.823293 
L 34.425 71.063415 
L 34.425 70.303537 
L 34.425 69.543659 
L 34.425 68.783781 
L 34.425 68.023903 
L 34.425 67.264025 
L 34.425 66.504147 
L 34.425 65.744269 
L 34.425 64.984391 
L 34.425 64.224513 
L 34.425 63.464635 
L 34.425 62.704757 
L 34.425 61.944879 
L 34.425 61.185001 
L 34.425 60.425123 
L 34.425 59.665245 
L 34.425 58.905367 
L 34.425 58.145489 
L 34.425 57.385611 
L 34.425 56.625733 
L 34.425 55.865855 
L 34.425 55.105977 
L 34.424999 54.346099 
L 34.424995 53.586221 
L 34.424974 52.826343 
L 34.424889 52.066465 
L 34.424603 51.306587 
L 34.423801 50.546709 
L 34.421943 49.786831 
L 34.418386 49.026953 
L 34.412776 48.267075 
L 34.405528 47.507197 
L 34.397932 46.747319 
L 34.39161 45.987441 
L 34.387648 45.227563 
L 34.386098 44.467684 
L 34.38621 43.707806 
L 34.387029 42.947928 
L 34.387772 42.18805 
L 34.387792 41.428172 
L 34.386411 40.668294 
L 34.383061 39.908416 
L 34.377761 39.148538 
L 34.371339 38.38866 
L 34.364783 37.628782 
L 34.358111 36.868904 
L 34.350019 36.109026 
L 34.338902 35.349148 
L 34.324355 34.58927 
L 34.307751 33.829392 
L 34.29109 33.069514 
L 34.274519 32.309636 
L 34.254292 31.549758 
L 34.223422 30.78988 
L 34.175413 30.030002 
L 34.108416 29.270124 
L 34.026386 28.510246 
L 33.936252 27.750368 
L 33.842985 26.99049 
L 33.745965 26.230612 
L 33.640018 25.470734 
L 33.521688 24.710856 
L 33.39458 23.950978 
L 33.263179 23.1911 
L 33.110559 22.431222 
L 32.87038 21.671344 
L 32.419421 20.911466 
L 31.626619 20.151588 
L 30.475456 19.39171 
L 29.197552 18.631832 
L 28.265311 17.871954 
L 28.1475 17.112076 
L 40.7025 17.112076 
L 40.7025 17.112076 
L 40.584689 17.871954 
L 39.652448 18.631832 
L 38.374544 19.39171 
L 37.223381 20.151588 
L 36.430579 20.911466 
L 35.97962 21.671344 
L 35.739441 22.431222 
L 35.586821 23.1911 
L 35.45542 23.950978 
L 35.328312 24.710856 
L 35.209982 25.470734 
L 35.104035 26.230612 
L 35.007015 26.99049 
L 34.913748 27.750368 
L 34.823614 28.510246 
L 34.741584 29.270124 
L 34.674587 30.030002 
L 34.626578 30.78988 
L 34.595708 31.549758 
L 34.575481 32.309636 
L 34.55891 33.069514 
L 34.542249 33.829392 
L 34.525645 34.58927 
L 34.511098 35.349148 
L 34.499981 36.109026 
L 34.491889 36.868904 
L 34.485217 37.628782 
L 34.478661 38.38866 
L 34.472239 39.148538 
L 34.466939 39.908416 
L 34.463589 40.668294 
L 34.462208 41.428172 
L 34.462228 42.18805 
L 34.462971 42.947928 
L 34.46379 43.707806 
L 34.463902 44.467684 
L 34.462352 45.227563 
L 34.45839 45.987441 
L 34.452068 46.747319 
L 34.444472 47.507197 
L 34.437224 48.267075 
L 34.431614 49.026953 
L 34.428057 49.786831 
L 34.426199 50.546709 
L 34.425397 51.306587 
L 34.425111 52.066465 
L 34.425026 52.826343 
L 34.425005 53.586221 
L 34.425001 54.346099 
L 34.425 55.105977 
L 34.425 55.865855 
L 34.425 56.625733 
L 34.425 57.385611 
L 34.425 58.145489 
L 34.425 58.905367 
L 34.425 59.665245 
L 34.425 60.425123 
L 34.425 61.185001 
L 34.425 61.944879 
L 34.425 62.704757 
L 34.425 63.464635 
L 34.425 64.224513 
L 34.425 64.984391 
L 34.425 65.744269 
L 34.425 66.504147 
L 34.425 67.264025 
L 34.425 68.023903 
L 34.425 68.783781 
L 34.425 69.543659 
L 34.425 70.303537 
L 34.425 71.063415 
L 34.425 71.823293 
L 34.425 72.583171 
L 34.425 73.343049 
L 34.425 74.102927 
L 34.425 74.862805 
L 34.425 75.622683 
L 34.425 76.382561 
L 34.425 77.14244 
L 34.425 77.902318 
L 34.425 78.662196 
L 34.425 79.422074 
L 34.425 80.181952 
L 34.425 80.94183 
L 34.425 81.701708 
L 34.425 82.461586 
L 34.425 83.221464 
L 34.425001 83.981342 
L 34.425004 84.74122 
L 34.425024 85.501098 
L 34.425109 86.260976 
L 34.425419 87.020854 
L 34.426348 87.780732 
L 34.428621 88.54061 
L 34.433128 89.300488 
L 34.440243 90.060366 
L 34.448886 90.820244 
L 34.456273 91.580122 
L 34.459213 92.34 
z
" clip-path="url(#p6b5bcfe5af)" style="fill: #306c53; fill-opacity: 0.5"/>
   </g>
   <g id="FillBetweenPolyCollection_3">
    <path d="M 48.42309 92.34 
L 48.32691 92.34 
L 48.330564 91.57937 
L 48.339945 90.81874 
L 48.351388 90.05811 
L 48.361422 89.29748 
L 48.368333 88.53685 
L 48.372205 87.776219 
L 48.374 87.015589 
L 48.374694 86.254959 
L 48.37492 85.494329 
L 48.374982 84.733699 
L 48.374997 83.973069 
L 48.374999 83.212439 
L 48.375 82.451809 
L 48.375 81.691179 
L 48.375 80.930549 
L 48.375 80.169919 
L 48.375 79.409288 
L 48.375 78.648658 
L 48.375 77.888028 
L 48.375 77.127398 
L 48.375 76.366768 
L 48.375 75.606138 
L 48.375 74.845508 
L 48.375 74.084878 
L 48.375 73.324248 
L 48.375 72.563618 
L 48.375 71.802988 
L 48.375 71.042357 
L 48.375 70.281727 
L 48.375 69.521097 
L 48.375 68.760467 
L 48.375 67.999837 
L 48.375 67.239207 
L 48.375 66.478577 
L 48.375 65.717947 
L 48.375 64.957317 
L 48.375 64.196687 
L 48.375 63.436057 
L 48.375 62.675426 
L 48.375 61.914796 
L 48.375 61.154166 
L 48.375 60.393536 
L 48.375 59.632906 
L 48.375 58.872276 
L 48.375 58.111646 
L 48.375 57.351016 
L 48.375 56.590386 
L 48.375 55.829756 
L 48.375 55.069126 
L 48.375 54.308495 
L 48.375 53.547865 
L 48.375 52.787235 
L 48.375 52.026605 
L 48.375 51.265975 
L 48.374998 50.505345 
L 48.374992 49.744715 
L 48.374961 48.984085 
L 48.374845 48.223455 
L 48.374474 47.462825 
L 48.373481 46.702195 
L 48.371254 45.941564 
L 48.367111 45.180934 
L 48.360816 44.420304 
L 48.353224 43.659674 
L 48.346447 42.899044 
L 48.343003 42.138414 
L 48.344273 41.377784 
L 48.349453 40.617154 
L 48.355898 39.856524 
L 48.360505 39.095894 
L 48.360972 38.335264 
L 48.356184 37.574634 
L 48.345948 36.814003 
L 48.330711 36.053373 
L 48.311664 35.292743 
L 48.290976 34.532113 
L 48.271367 33.771483 
L 48.254483 33.010853 
L 48.238943 32.250223 
L 48.220046 31.489593 
L 48.192062 30.728963 
L 48.151453 29.968333 
L 48.098216 29.207703 
L 48.034368 28.447072 
L 47.961176 27.686442 
L 47.877309 26.925812 
L 47.778992 26.165182 
L 47.662152 25.404552 
L 47.525446 24.643922 
L 47.370902 23.883292 
L 47.197109 23.122662 
L 46.982236 22.362032 
L 46.664131 21.601402 
L 46.140823 20.840772 
L 45.322226 20.080141 
L 44.234961 19.319511 
L 43.111914 18.558881 
L 42.352925 17.798251 
L 42.318618 17.037621 
L 54.431382 17.037621 
L 54.431382 17.037621 
L 54.397075 17.798251 
L 53.638086 18.558881 
L 52.515039 19.319511 
L 51.427774 20.080141 
L 50.609177 20.840772 
L 50.085869 21.601402 
L 49.767764 22.362032 
L 49.552891 23.122662 
L 49.379098 23.883292 
L 49.224554 24.643922 
L 49.087848 25.404552 
L 48.971008 26.165182 
L 48.872691 26.925812 
L 48.788824 27.686442 
L 48.715632 28.447072 
L 48.651784 29.207703 
L 48.598547 29.968333 
L 48.557938 30.728963 
L 48.529954 31.489593 
L 48.511057 32.250223 
L 48.495517 33.010853 
L 48.478633 33.771483 
L 48.459024 34.532113 
L 48.438336 35.292743 
L 48.419289 36.053373 
L 48.404052 36.814003 
L 48.393816 37.574634 
L 48.389028 38.335264 
L 48.389495 39.095894 
L 48.394102 39.856524 
L 48.400547 40.617154 
L 48.405727 41.377784 
L 48.406997 42.138414 
L 48.403553 42.899044 
L 48.396776 43.659674 
L 48.389184 44.420304 
L 48.382889 45.180934 
L 48.378746 45.941564 
L 48.376519 46.702195 
L 48.375526 47.462825 
L 48.375155 48.223455 
L 48.375039 48.984085 
L 48.375008 49.744715 
L 48.375002 50.505345 
L 48.375 51.265975 
L 48.375 52.026605 
L 48.375 52.787235 
L 48.375 53.547865 
L 48.375 54.308495 
L 48.375 55.069126 
L 48.375 55.829756 
L 48.375 56.590386 
L 48.375 57.351016 
L 48.375 58.111646 
L 48.375 58.872276 
L 48.375 59.632906 
L 48.375 60.393536 
L 48.375 61.154166 
L 48.375 61.914796 
L 48.375 62.675426 
L 48.375 63.436057 
L 48.375 64.196687 
L 48.375 64.957317 
L 48.375 65.717947 
L 48.375 66.478577 
L 48.375 67.239207 
L 48.375 67.999837 
L 48.375 68.760467 
L 48.375 69.521097 
L 48.375 70.281727 
L 48.375 71.042357 
L 48.375 71.802988 
L 48.375 72.563618 
L 48.375 73.324248 
L 48.375 74.084878 
L 48.375 74.845508 
L 48.375 75.606138 
L 48.375 76.366768 
L 48.375 77.127398 
L 48.375 77.888028 
L 48.375 78.648658 
L 48.375 79.409288 
L 48.375 80.169919 
L 48.375 80.930549 
L 48.375 81.691179 
L 48.375 82.451809 
L 48.375001 83.212439 
L 48.375003 83.973069 
L 48.375018 84.733699 
L 48.37508 85.494329 
L 48.375306 86.254959 
L 48.376 87.015589 
L 48.377795 87.776219 
L 48.381667 88.53685 
L 48.388578 89.29748 
L 48.398612 90.05811 
L 48.410055 90.81874 
L 48.419436 91.57937 
L 48.42309 92.34 
z
" clip-path="url(#p6b5bcfe5af)" style="fill: #306c53; fill-opacity: 0.5"/>
   </g>
   <g id="FillBetweenPolyCollection_4">
    <path d="M 62.371467 92.34 
L 62.278533 92.34 
L 62.281855 91.577413 
L 62.290462 90.814825 
L 62.301164 90.052238 
L 62.310818 89.28965 
L 62.317725 88.527063 
L 62.321783 87.764475 
L 62.323773 87.001888 
L 62.324597 86.2393 
L 62.324886 85.476713 
L 62.324972 84.714125 
L 62.324994 83.951538 
L 62.324999 83.188951 
L 62.325 82.426363 
L 62.325 81.663776 
L 62.325 80.901188 
L 62.325 80.138601 
L 62.325 79.376013 
L 62.325 78.613426 
L 62.325 77.850838 
L 62.325 77.088251 
L 62.325 76.325663 
L 62.325 75.563076 
L 62.325 74.800489 
L 62.325 74.037901 
L 62.325 73.275314 
L 62.325 72.512726 
L 62.325 71.750139 
L 62.325 70.987551 
L 62.325 70.224964 
L 62.325 69.462376 
L 62.325 68.699789 
L 62.325 67.937201 
L 62.325 67.174614 
L 62.325 66.412027 
L 62.325 65.649439 
L 62.325 64.886852 
L 62.325 64.124264 
L 62.325 63.361677 
L 62.325 62.599089 
L 62.325 61.836502 
L 62.325 61.073914 
L 62.325 60.311327 
L 62.324999 59.548739 
L 62.324997 58.786152 
L 62.324987 58.023565 
L 62.32495 57.260977 
L 62.324829 56.49839 
L 62.324495 55.735802 
L 62.323715 54.973215 
L 62.322183 54.210627 
L 62.319673 53.44804 
L 62.316317 52.685452 
L 62.312798 51.922865 
L 62.310214 51.160277 
L 62.309544 50.39769 
L 62.311029 49.635103 
L 62.313971 48.872515 
L 62.31706 48.109928 
L 62.318945 47.34734 
L 62.318624 46.584753 
L 62.315618 45.822165 
L 62.31016 45.059578 
L 62.303425 44.29699 
L 62.297444 43.534403 
L 62.294326 42.771815 
L 62.295038 42.009228 
L 62.298553 41.246641 
L 62.30205 40.484053 
L 62.302107 39.721466 
L 62.2963 38.958878 
L 62.284518 38.196291 
L 62.269421 37.433703 
L 62.255497 36.671116 
L 62.246714 35.908528 
L 62.243962 35.145941 
L 62.244017 34.383353 
L 62.240918 33.620766 
L 62.228781 32.858178 
L 62.204191 32.095591 
L 62.166958 31.333004 
L 62.119329 30.570416 
L 62.064512 29.807829 
L 62.00528 29.045241 
L 61.942951 28.282654 
L 61.876691 27.520066 
L 61.803115 26.757479 
L 61.716609 25.994891 
L 61.611065 25.232304 
L 61.482447 24.469716 
L 61.32895 23.707129 
L 61.14376 22.944542 
L 60.898895 22.181954 
L 60.530085 21.419367 
L 59.947035 20.656779 
L 59.092317 19.894192 
L 58.035099 19.131604 
L 57.026731 18.369017 
L 56.431328 17.606429 
L 56.532366 16.843842 
L 68.117634 16.843842 
L 68.117634 16.843842 
L 68.218672 17.606429 
L 67.623269 18.369017 
L 66.614901 19.131604 
L 65.557683 19.894192 
L 64.702965 20.656779 
L 64.119915 21.419367 
L 63.751105 22.181954 
L 63.50624 22.944542 
L 63.32105 23.707129 
L 63.167553 24.469716 
L 63.038935 25.232304 
L 62.933391 25.994891 
L 62.846885 26.757479 
L 62.773309 27.520066 
L 62.707049 28.282654 
L 62.64472 29.045241 
L 62.585488 29.807829 
L 62.530671 30.570416 
L 62.483042 31.333004 
L 62.445809 32.095591 
L 62.421219 32.858178 
L 62.409082 33.620766 
L 62.405983 34.383353 
L 62.406038 35.145941 
L 62.403286 35.908528 
L 62.394503 36.671116 
L 62.380579 37.433703 
L 62.365482 38.196291 
L 62.3537 38.958878 
L 62.347893 39.721466 
L 62.34795 40.484053 
L 62.351447 41.246641 
L 62.354962 42.009228 
L 62.355674 42.771815 
L 62.352556 43.534403 
L 62.346575 44.29699 
L 62.33984 45.059578 
L 62.334382 45.822165 
L 62.331376 46.584753 
L 62.331055 47.34734 
L 62.33294 48.109928 
L 62.336029 48.872515 
L 62.338971 49.635103 
L 62.340456 50.39769 
L 62.339786 51.160277 
L 62.337202 51.922865 
L 62.333683 52.685452 
L 62.330327 53.44804 
L 62.327817 54.210627 
L 62.326285 54.973215 
L 62.325505 55.735802 
L 62.325171 56.49839 
L 62.32505 57.260977 
L 62.325013 58.023565 
L 62.325003 58.786152 
L 62.325001 59.548739 
L 62.325 60.311327 
L 62.325 61.073914 
L 62.325 61.836502 
L 62.325 62.599089 
L 62.325 63.361677 
L 62.325 64.124264 
L 62.325 64.886852 
L 62.325 65.649439 
L 62.325 66.412027 
L 62.325 67.174614 
L 62.325 67.937201 
L 62.325 68.699789 
L 62.325 69.462376 
L 62.325 70.224964 
L 62.325 70.987551 
L 62.325 71.750139 
L 62.325 72.512726 
L 62.325 73.275314 
L 62.325 74.037901 
L 62.325 74.800489 
L 62.325 75.563076 
L 62.325 76.325663 
L 62.325 77.088251 
L 62.325 77.850838 
L 62.325 78.613426 
L 62.325 79.376013 
L 62.325 80.138601 
L 62.325 80.901188 
L 62.325 81.663776 
L 62.325 82.426363 
L 62.325001 83.188951 
L 62.325006 83.951538 
L 62.325028 84.714125 
L 62.325114 85.476713 
L 62.325403 86.2393 
L 62.326227 87.001888 
L 62.328217 87.764475 
L 62.332275 88.527063 
L 62.339182 89.28965 
L 62.348836 90.052238 
L 62.359538 90.814825 
L 62.368145 91.577413 
L 62.371467 92.34 
z
" clip-path="url(#p6b5bcfe5af)" style="fill: #306c53; fill-opacity: 0.5"/>
   </g>
   <g id="FillBetweenPolyCollection_5">
    <path d="M 76.319661 92.34 
L 76.230339 92.34 
L 76.233305 91.576364 
L 76.241071 90.812727 
L 76.250935 90.049091 
L 76.260123 89.285455 
L 76.266984 88.521818 
L 76.271235 87.758182 
L 76.273459 86.994545 
L 76.27445 86.230909 
L 76.274829 85.467273 
L 76.274954 84.703636 
L 76.274989 83.94 
L 76.274998 83.176364 
L 76.275 82.412727 
L 76.275 81.649091 
L 76.275 80.885455 
L 76.275 80.121818 
L 76.275 79.358182 
L 76.275 78.594545 
L 76.275 77.830909 
L 76.275 77.067273 
L 76.275 76.303636 
L 76.275 75.54 
L 76.275 74.776364 
L 76.275 74.012727 
L 76.275 73.249091 
L 76.275 72.485455 
L 76.275 71.721818 
L 76.275 70.958182 
L 76.275 70.194545 
L 76.275 69.430909 
L 76.275 68.667273 
L 76.275 67.903636 
L 76.275 67.14 
L 76.275 66.376364 
L 76.275 65.612727 
L 76.275 64.849091 
L 76.275 64.085455 
L 76.275 63.321818 
L 76.275 62.558182 
L 76.274999 61.794545 
L 76.274994 61.030909 
L 76.274975 60.267273 
L 76.274913 59.503636 
L 76.274734 58.74 
L 76.274289 57.976364 
L 76.273344 57.212727 
L 76.271638 56.449091 
L 76.269051 55.685455 
L 76.265822 54.921818 
L 76.262656 54.158182 
L 76.260513 53.394545 
L 76.260127 52.630909 
L 76.261526 51.867273 
L 76.263922 51.103636 
L 76.266041 50.34 
L 76.266663 49.576364 
L 76.265035 48.812727 
L 76.261036 48.049091 
L 76.255092 47.285455 
L 76.24798 46.521818 
L 76.240641 45.758182 
L 76.234081 44.994545 
L 76.229339 44.230909 
L 76.22731 43.467273 
L 76.228353 42.703636 
L 76.231883 41.94 
L 76.236365 41.176364 
L 76.239862 40.412727 
L 76.240806 39.649091 
L 76.238517 38.885455 
L 76.233266 38.121818 
L 76.225996 37.358182 
L 76.217832 36.594545 
L 76.209426 35.830909 
L 76.200308 35.067273 
L 76.188594 34.303636 
L 76.171296 33.54 
L 76.144987 32.776364 
L 76.106409 32.012727 
L 76.052987 31.249091 
L 75.983514 30.485455 
L 75.89904 29.721818 
L 75.803202 28.958182 
L 75.701173 28.194545 
L 75.597435 27.430909 
L 75.494066 26.667273 
L 75.391053 25.903636 
L 75.287916 25.14 
L 75.183228 24.376364 
L 75.068476 23.612727 
L 74.916593 22.849091 
L 74.672434 22.085455 
L 74.259197 21.321818 
L 73.614499 20.558182 
L 72.753371 19.794545 
L 71.822867 19.030909 
L 71.090598 18.267273 
L 70.837529 17.503636 
L 71.204503 16.74 
L 81.345497 16.74 
L 81.345497 16.74 
L 81.712471 17.503636 
L 81.459402 18.267273 
L 80.727133 19.030909 
L 79.796629 19.794545 
L 78.935501 20.558182 
L 78.290803 21.321818 
L 77.877566 22.085455 
L 77.633407 22.849091 
L 77.481524 23.612727 
L 77.366772 24.376364 
L 77.262084 25.14 
L 77.158947 25.903636 
L 77.055934 26.667273 
L 76.952565 27.430909 
L 76.848827 28.194545 
L 76.746798 28.958182 
L 76.65096 29.721818 
L 76.566486 30.485455 
L 76.497013 31.249091 
L 76.443591 32.012727 
L 76.405013 32.776364 
L 76.378704 33.54 
L 76.361406 34.303636 
L 76.349692 35.067273 
L 76.340574 35.830909 
L 76.332168 36.594545 
L 76.324004 37.358182 
L 76.316734 38.121818 
L 76.311483 38.885455 
L 76.309194 39.649091 
L 76.310138 40.412727 
L 76.313635 41.176364 
L 76.318117 41.94 
L 76.321647 42.703636 
L 76.32269 43.467273 
L 76.320661 44.230909 
L 76.315919 44.994545 
L 76.309359 45.758182 
L 76.30202 46.521818 
L 76.294908 47.285455 
L 76.288964 48.049091 
L 76.284965 48.812727 
L 76.283337 49.576364 
L 76.283959 50.34 
L 76.286078 51.103636 
L 76.288474 51.867273 
L 76.289873 52.630909 
L 76.289487 53.394545 
L 76.287344 54.158182 
L 76.284178 54.921818 
L 76.280949 55.685455 
L 76.278362 56.449091 
L 76.276656 57.212727 
L 76.275711 57.976364 
L 76.275266 58.74 
L 76.275087 59.503636 
L 76.275025 60.267273 
L 76.275006 61.030909 
L 76.275001 61.794545 
L 76.275 62.558182 
L 76.275 63.321818 
L 76.275 64.085455 
L 76.275 64.849091 
L 76.275 65.612727 
L 76.275 66.376364 
L 76.275 67.14 
L 76.275 67.903636 
L 76.275 68.667273 
L 76.275 69.430909 
L 76.275 70.194545 
L 76.275 70.958182 
L 76.275 71.721818 
L 76.275 72.485455 
L 76.275 73.249091 
L 76.275 74.012727 
L 76.275 74.776364 
L 76.275 75.54 
L 76.275 76.303636 
L 76.275 77.067273 
L 76.275 77.830909 
L 76.275 78.594545 
L 76.275 79.358182 
L 76.275 80.121818 
L 76.275 80.885455 
L 76.275 81.649091 
L 76.275 82.412727 
L 76.275002 83.176364 
L 76.275011 83.94 
L 76.275046 84.703636 
L 76.275171 85.467273 
L 76.27555 86.230909 
L 76.276541 86.994545 
L 76.278765 87.758182 
L 76.283016 88.521818 
L 76.289877 89.285455 
L 76.299065 90.049091 
L 76.308929 90.812727 
L 76.316695 91.576364 
L 76.319661 92.34 
z
" clip-path="url(#p6b5bcfe5af)" style="fill: #306c53; fill-opacity: 0.5"/>
   </g>
   <g id="FillBetweenPolyCollection_6">
    <path d="M 90.267033 92.34 
L 90.182967 92.34 
L 90.185445 91.576885 
L 90.192038 90.81377 
L 90.200676 90.050655 
L 90.209105 89.28754 
L 90.215801 88.524425 
L 90.220286 87.76131 
L 90.222861 86.998195 
L 90.22414 86.23508 
L 90.224694 85.471966 
L 90.224904 84.708851 
L 90.224973 83.945736 
L 90.224993 83.182621 
L 90.224999 82.419506 
L 90.225 81.656391 
L 90.225 80.893276 
L 90.225 80.130161 
L 90.225 79.367046 
L 90.225 78.603931 
L 90.225 77.840816 
L 90.225 77.077701 
L 90.225 76.314586 
L 90.225 75.551471 
L 90.225 74.788356 
L 90.225 74.025241 
L 90.225 73.262126 
L 90.225 72.499011 
L 90.225 71.735897 
L 90.225 70.972782 
L 90.225 70.209667 
L 90.225 69.446552 
L 90.225 68.683437 
L 90.225 67.920322 
L 90.225 67.157207 
L 90.225 66.394092 
L 90.225 65.630977 
L 90.225 64.867862 
L 90.225 64.104747 
L 90.225 63.341632 
L 90.225 62.578517 
L 90.224998 61.815402 
L 90.224992 61.052287 
L 90.224971 60.289172 
L 90.224907 59.526057 
L 90.224735 58.762943 
L 90.224332 57.999828 
L 90.223506 57.236713 
L 90.222033 56.473598 
L 90.219745 55.710483 
L 90.216657 54.947368 
L 90.213014 54.184253 
L 90.209175 53.421138 
L 90.205371 52.658023 
L 90.201534 51.894908 
L 90.197407 51.131793 
L 90.192894 50.368678 
L 90.18834 49.605563 
L 90.184417 48.842448 
L 90.181659 48.079333 
L 90.180036 47.316218 
L 90.178962 46.553103 
L 90.177731 45.789988 
L 90.176007 45.026874 
L 90.173993 44.263759 
L 90.172202 43.500644 
L 90.171047 42.737529 
L 90.170554 41.974414 
L 90.170328 41.211299 
L 90.169742 40.448184 
L 90.168185 39.685069 
L 90.165198 38.921954 
L 90.160355 38.158839 
L 90.152979 37.395724 
L 90.141924 36.632609 
L 90.125646 35.869494 
L 90.102463 35.106379 
L 90.070658 34.343264 
L 90.028285 33.580149 
L 89.973031 32.817034 
L 89.902797 32.05392 
L 89.817163 31.290805 
L 89.718861 30.52769 
L 89.613842 29.764575 
L 89.5094 29.00146 
L 89.41143 28.238345 
L 89.322673 27.47523 
L 89.242822 26.712115 
L 89.169393 25.949 
L 89.097288 25.185885 
L 89.015697 24.42277 
L 88.903092 23.659655 
L 88.723597 22.89654 
L 88.430283 22.133425 
L 87.981415 21.37031 
L 87.370877 20.607195 
L 86.661748 19.84408 
L 85.998306 19.080965 
L 85.572255 18.317851 
L 85.544978 17.554736 
L 85.965529 16.791621 
L 94.484471 16.791621 
L 94.484471 16.791621 
L 94.905022 17.554736 
L 94.877745 18.317851 
L 94.451694 19.080965 
L 93.788252 19.84408 
L 93.079123 20.607195 
L 92.468585 21.37031 
L 92.019717 22.133425 
L 91.726403 22.89654 
L 91.546908 23.659655 
L 91.434303 24.42277 
L 91.352712 25.185885 
L 91.280607 25.949 
L 91.207178 26.712115 
L 91.127327 27.47523 
L 91.03857 28.238345 
L 90.9406 29.00146 
L 90.836158 29.764575 
L 90.731139 30.52769 
L 90.632837 31.290805 
L 90.547203 32.05392 
L 90.476969 32.817034 
L 90.421715 33.580149 
L 90.379342 34.343264 
L 90.347537 35.106379 
L 90.324354 35.869494 
L 90.308076 36.632609 
L 90.297021 37.395724 
L 90.289645 38.158839 
L 90.284802 38.921954 
L 90.281815 39.685069 
L 90.280258 40.448184 
L 90.279672 41.211299 
L 90.279446 41.974414 
L 90.278953 42.737529 
L 90.277798 43.500644 
L 90.276007 44.263759 
L 90.273993 45.026874 
L 90.272269 45.789988 
L 90.271038 46.553103 
L 90.269964 47.316218 
L 90.268341 48.079333 
L 90.265583 48.842448 
L 90.26166 49.605563 
L 90.257106 50.368678 
L 90.252593 51.131793 
L 90.248466 51.894908 
L 90.244629 52.658023 
L 90.240825 53.421138 
L 90.236986 54.184253 
L 90.233343 54.947368 
L 90.230255 55.710483 
L 90.227967 56.473598 
L 90.226494 57.236713 
L 90.225668 57.999828 
L 90.225265 58.762943 
L 90.225093 59.526057 
L 90.225029 60.289172 
L 90.225008 61.052287 
L 90.225002 61.815402 
L 90.225 62.578517 
L 90.225 63.341632 
L 90.225 64.104747 
L 90.225 64.867862 
L 90.225 65.630977 
L 90.225 66.394092 
L 90.225 67.157207 
L 90.225 67.920322 
L 90.225 68.683437 
L 90.225 69.446552 
L 90.225 70.209667 
L 90.225 70.972782 
L 90.225 71.735897 
L 90.225 72.499011 
L 90.225 73.262126 
L 90.225 74.025241 
L 90.225 74.788356 
L 90.225 75.551471 
L 90.225 76.314586 
L 90.225 77.077701 
L 90.225 77.840816 
L 90.225 78.603931 
L 90.225 79.367046 
L 90.225 80.130161 
L 90.225 80.893276 
L 90.225 81.656391 
L 90.225001 82.419506 
L 90.225007 83.182621 
L 90.225027 83.945736 
L 90.225096 84.708851 
L 90.225306 85.471966 
L 90.22586 86.23508 
L 90.227139 86.998195 
L 90.229714 87.76131 
L 90.234199 88.524425 
L 90.240895 89.28754 
L 90.249324 90.050655 
L 90.257962 90.81377 
L 90.264555 91.576885 
L 90.267033 92.34 
z
" clip-path="url(#p6b5bcfe5af)" style="fill: #306c53; fill-opacity: 0.5"/>
   </g>
   <g id="matplotlib.axis_1">
    <g id="xtick_1">
     <g id="line2d_1">
      <defs>
       <path id="maaabd10606" d="M 0 0 
L 0 1.7 
" style="stroke: #000000; stroke-width: 0.25"/>
      </defs>
      <g>
       <use xlink:href="#maaabd10606" x="20.475" y="98.12" style="stroke: #000000; stroke-width: 0.25"/>
      </g>
     </g>
     <g id="text_1">
      <text style="font-size: 6px; font-family: 'Arial'" transform="translate(16.263848 114.972685) rotate(-45)">0.010</text>
     </g>
    </g>
    <g id="xtick_2">
     <g id="line2d_2">
      <g>
       <use xlink:href="#maaabd10606" x="34.425" y="98.12" style="stroke: #000000; stroke-width: 0.25"/>
      </g>
     </g>
     <g id="text_2">
      <text style="font-size: 6px; font-family: 'Arial'" transform="translate(30.213848 114.972685) rotate(-45)">0.015</text>
     </g>
    </g>
    <g id="xtick_3">
     <g id="line2d_3">
      <g>
       <use xlink:href="#maaabd10606" x="48.375" y="98.12" style="stroke: #000000; stroke-width: 0.25"/>
      </g>
     </g>
     <g id="text_3">
      <text style="font-size: 6px; font-family: 'Arial'" transform="translate(44.163848 114.972685) rotate(-45)">0.020</text>
     </g>
    </g>
    <g id="xtick_4">
     <g id="line2d_4">
      <g>
       <use xlink:href="#maaabd10606" x="62.325" y="98.12" style="stroke: #000000; stroke-width: 0.25"/>
      </g>
     </g>
     <g id="text_4">
      <text style="font-size: 6px; font-family: 'Arial'" transform="translate(58.113848 114.972685) rotate(-45)">0.025</text>
     </g>
    </g>
    <g id="xtick_5">
     <g id="line2d_5">
      <g>
       <use xlink:href="#maaabd10606" x="76.275" y="98.12" style="stroke: #000000; stroke-width: 0.25"/>
      </g>
     </g>
     <g id="text_5">
      <text style="font-size: 6px; font-family: 'Arial'" transform="translate(72.063848 114.972685) rotate(-45)">0.030</text>
     </g>
    </g>
    <g id="xtick_6">
     <g id="line2d_6">
      <g>
       <use xlink:href="#maaabd10606" x="90.225" y="98.12" style="stroke: #000000; stroke-width: 0.25"/>
      </g>
     </g>
     <g id="text_6">
      <text style="font-size: 6px; font-family: 'Arial'" transform="translate(86.013848 114.972685) rotate(-45)">0.035</text>
     </g>
    </g>
    <g id="text_7">
     <!-- mean $\tau$ (s) -->
     <g transform="translate(36.03 123.15591)">
      <text>
       <tspan x="0" y="-0.171875" style="font-size: 8px; font-family: 'Arial'">m</tspan>
       <tspan x="6.664062" y="-0.171875" style="font-size: 8px; font-family: 'Arial'">e</tspan>
       <tspan x="11.113281" y="-0.171875" style="font-size: 8px; font-family: 'Arial'">a</tspan>
       <tspan x="15.5625" y="-0.171875" style="font-size: 8px; font-family: 'Arial'">n</tspan>
       <tspan x="20.011719" y="-0.171875" style="font-size: 8px; font-family: 'Arial'"> </tspan>
       <tspan x="27.050781" y="-0.171875" style="font-size: 8px; font-family: 'Arial'"> </tspan>
       <tspan x="29.273438" y="-0.171875" style="font-size: 8px; font-family: 'Arial'">(</tspan>
       <tspan x="31.9375" y="-0.171875" style="font-size: 8px; font-family: 'Arial'">s</tspan>
       <tspan x="35.9375" y="-0.171875" style="font-size: 8px; font-family: 'Arial'">)</tspan>
       <tspan x="22.234375" y="-0.171875" style="font-style: oblique; font-size: 8px; font-family: 'DejaVu Sans'">τ</tspan>
      </text>
     </g>
    </g>
   </g>
   <g id="matplotlib.axis_2">
    <g id="ytick_1">
     <g id="line2d_7">
      <defs>
       <path id="mbbaf9818ae" d="M 0 0 
L -1.7 0 
" style="stroke: #000000; stroke-width: 0.25"/>
      </defs>
      <g>
       <use xlink:href="#mbbaf9818ae" x="11.5" y="92.34" style="stroke: #000000; stroke-width: 0.25"/>
      </g>
     </g>
     <g id="text_8">
      <text style="font-size: 6px; font-family: 'Arial'; text-anchor: end" x="8.3" y="94.487344" transform="rotate(-0 8.3 94.487344)">0.0</text>
     </g>
    </g>
    <g id="ytick_2">
     <g id="line2d_8">
      <g>
       <use xlink:href="#mbbaf9818ae" x="11.5" y="77.299176" style="stroke: #000000; stroke-width: 0.25"/>
      </g>
     </g>
     <g id="text_9">
      <text style="font-size: 6px; font-family: 'Arial'; text-anchor: end" x="8.3" y="79.446519" transform="rotate(-0 8.3 79.446519)">0.2</text>
     </g>
    </g>
    <g id="ytick_3">
     <g id="line2d_9">
      <g>
       <use xlink:href="#mbbaf9818ae" x="11.5" y="62.258351" style="stroke: #000000; stroke-width: 0.25"/>
      </g>
     </g>
     <g id="text_10">
      <text style="font-size: 6px; font-family: 'Arial'; text-anchor: end" x="8.3" y="64.405695" transform="rotate(-0 8.3 64.405695)">0.4</text>
     </g>
    </g>
    <g id="ytick_4">
     <g id="line2d_10">
      <g>
       <use xlink:href="#mbbaf9818ae" x="11.5" y="47.217527" style="stroke: #000000; stroke-width: 0.25"/>
      </g>
     </g>
     <g id="text_11">
      <text style="font-size: 6px; font-family: 'Arial'; text-anchor: end" x="8.3" y="49.36487" transform="rotate(-0 8.3 49.36487)">0.6</text>
     </g>
    </g>
    <g id="ytick_5">
     <g id="line2d_11">
      <g>
       <use xlink:href="#mbbaf9818ae" x="11.5" y="32.176702" style="stroke: #000000; stroke-width: 0.25"/>
      </g>
     </g>
     <g id="text_12">
      <text style="font-size: 6px; font-family: 'Arial'; text-anchor: end" x="8.3" y="34.324046" transform="rotate(-0 8.3 34.324046)">0.8</text>
     </g>
    </g>
    <g id="ytick_6">
     <g id="line2d_12">
      <g>
       <use xlink:href="#mbbaf9818ae" x="11.5" y="17.135878" style="stroke: #000000; stroke-width: 0.25"/>
      </g>
     </g>
     <g id="text_13">
      <text style="font-size: 6px; font-family: 'Arial'; text-anchor: end" x="8.3" y="19.283222" transform="rotate(-0 8.3 19.283222)">1.0</text>
     </g>
    </g>
    <g id="text_14">
     <text style="font-size: 8px; font-family: 'Arial'" transform="translate(-11.68525 84.9875) rotate(-90)">motor rhythmicity</text>
     <text style="font-size: 8px; font-family: 'Arial'" transform="translate(-3.13 64.320625) rotate(-90)">score</text>
    </g>
   </g>
   <g id="patch_3">
    <path d="M 19.08 20.82203 
L 21.87 20.82203 
L 21.87 17.191594 
L 19.08 17.191594 
L 19.08 20.82203 
z
" clip-path="url(#p6b5bcfe5af)" style="fill: #306c53; stroke: #2f2f2f; stroke-width: 0.5; stroke-linejoin: miter"/>
   </g>
   <g id="line2d_13">
    <path d="M 20.475 20.82203 
L 20.475 26.205888 
" clip-path="url(#p6b5bcfe5af)" style="fill: none; stroke: #2f2f2f; stroke-width: 0.5"/>
   </g>
   <g id="line2d_14">
    <path d="M 20.475 17.191594 
L 20.475 17.13066 
" clip-path="url(#p6b5bcfe5af)" style="fill: none; stroke: #2f2f2f; stroke-width: 0.5"/>
   </g>
   <g id="line2d_15">
    <path d="M 19.7775 26.205888 
L 21.1725 26.205888 
" clip-path="url(#p6b5bcfe5af)" style="fill: none; stroke: #2f2f2f; stroke-width: 0.5; stroke-linecap: square"/>
   </g>
   <g id="line2d_16">
    <path d="M 19.7775 17.13066 
L 21.1725 17.13066 
" clip-path="url(#p6b5bcfe5af)" style="fill: none; stroke: #2f2f2f; stroke-width: 0.5; stroke-linecap: square"/>
   </g>
   <g id="patch_4">
    <path d="M 33.03 20.118218 
L 35.82 20.118218 
L 35.82 17.167799 
L 33.03 17.167799 
L 33.03 20.118218 
z
" clip-path="url(#p6b5bcfe5af)" style="fill: #306c53; stroke: #2f2f2f; stroke-width: 0.5; stroke-linejoin: miter"/>
   </g>
   <g id="line2d_17">
    <path d="M 34.425 20.118218 
L 34.425 24.232757 
" clip-path="url(#p6b5bcfe5af)" style="fill: none; stroke: #2f2f2f; stroke-width: 0.5"/>
   </g>
   <g id="line2d_18">
    <path d="M 34.425 17.167799 
L 34.425 17.112076 
" clip-path="url(#p6b5bcfe5af)" style="fill: none; stroke: #2f2f2f; stroke-width: 0.5"/>
   </g>
   <g id="line2d_19">
    <path d="M 33.7275 24.232757 
L 35.1225 24.232757 
" clip-path="url(#p6b5bcfe5af)" style="fill: none; stroke: #2f2f2f; stroke-width: 0.5; stroke-linecap: square"/>
   </g>
   <g id="line2d_20">
    <path d="M 33.7275 17.112076 
L 35.1225 17.112076 
" clip-path="url(#p6b5bcfe5af)" style="fill: none; stroke: #2f2f2f; stroke-width: 0.5; stroke-linecap: square"/>
   </g>
   <g id="patch_5">
    <path d="M 46.98 19.838113 
L 49.77 19.838113 
L 49.77 17.162889 
L 46.98 17.162889 
L 46.98 19.838113 
z
" clip-path="url(#p6b5bcfe5af)" style="fill: #306c53; stroke: #2f2f2f; stroke-width: 0.5; stroke-linejoin: miter"/>
   </g>
   <g id="line2d_21">
    <path d="M 48.375 19.838113 
L 48.375 23.830137 
" clip-path="url(#p6b5bcfe5af)" style="fill: none; stroke: #2f2f2f; stroke-width: 0.5"/>
   </g>
   <g id="line2d_22">
    <path d="M 48.375 17.162889 
L 48.375 17.037621 
" clip-path="url(#p6b5bcfe5af)" style="fill: none; stroke: #2f2f2f; stroke-width: 0.5"/>
   </g>
   <g id="line2d_23">
    <path d="M 47.6775 23.830137 
L 49.0725 23.830137 
" clip-path="url(#p6b5bcfe5af)" style="fill: none; stroke: #2f2f2f; stroke-width: 0.5; stroke-linecap: square"/>
   </g>
   <g id="line2d_24">
    <path d="M 47.6775 17.037621 
L 49.0725 17.037621 
" clip-path="url(#p6b5bcfe5af)" style="fill: none; stroke: #2f2f2f; stroke-width: 0.5; stroke-linecap: square"/>
   </g>
   <g id="patch_6">
    <path d="M 60.93 19.609649 
L 63.72 19.609649 
L 63.72 17.097575 
L 60.93 17.097575 
L 60.93 19.609649 
z
" clip-path="url(#p6b5bcfe5af)" style="fill: #306c53; stroke: #2f2f2f; stroke-width: 0.5; stroke-linejoin: miter"/>
   </g>
   <g id="line2d_25">
    <path d="M 62.325 19.609649 
L 62.325 23.36565 
" clip-path="url(#p6b5bcfe5af)" style="fill: none; stroke: #2f2f2f; stroke-width: 0.5"/>
   </g>
   <g id="line2d_26">
    <path d="M 62.325 17.097575 
L 62.325 16.843842 
" clip-path="url(#p6b5bcfe5af)" style="fill: none; stroke: #2f2f2f; stroke-width: 0.5"/>
   </g>
   <g id="line2d_27">
    <path d="M 61.6275 23.36565 
L 63.0225 23.36565 
" clip-path="url(#p6b5bcfe5af)" style="fill: none; stroke: #2f2f2f; stroke-width: 0.5; stroke-linecap: square"/>
   </g>
   <g id="line2d_28">
    <path d="M 61.6275 16.843842 
L 63.0225 16.843842 
" clip-path="url(#p6b5bcfe5af)" style="fill: none; stroke: #2f2f2f; stroke-width: 0.5; stroke-linecap: square"/>
   </g>
   <g id="patch_7">
    <path d="M 74.88 20.75814 
L 77.67 20.75814 
L 77.67 17.254523 
L 74.88 17.254523 
L 74.88 20.75814 
z
" clip-path="url(#p6b5bcfe5af)" style="fill: #306c53; stroke: #2f2f2f; stroke-width: 0.5; stroke-linejoin: miter"/>
   </g>
   <g id="line2d_29">
    <path d="M 76.275 20.75814 
L 76.275 25.874621 
" clip-path="url(#p6b5bcfe5af)" style="fill: none; stroke: #2f2f2f; stroke-width: 0.5"/>
   </g>
   <g id="line2d_30">
    <path d="M 76.275 17.254523 
L 76.275 16.74 
" clip-path="url(#p6b5bcfe5af)" style="fill: none; stroke: #2f2f2f; stroke-width: 0.5"/>
   </g>
   <g id="line2d_31">
    <path d="M 75.5775 25.874621 
L 76.9725 25.874621 
" clip-path="url(#p6b5bcfe5af)" style="fill: none; stroke: #2f2f2f; stroke-width: 0.5; stroke-linecap: square"/>
   </g>
   <g id="line2d_32">
    <path d="M 75.5775 16.74 
L 76.9725 16.74 
" clip-path="url(#p6b5bcfe5af)" style="fill: none; stroke: #2f2f2f; stroke-width: 0.5; stroke-linecap: square"/>
   </g>
   <g id="patch_8">
    <path d="M 88.83 22.74045 
L 91.62 22.74045 
L 91.62 17.359019 
L 88.83 17.359019 
L 88.83 22.74045 
z
" clip-path="url(#p6b5bcfe5af)" style="fill: #306c53; stroke: #2f2f2f; stroke-width: 0.5; stroke-linejoin: miter"/>
   </g>
   <g id="line2d_33">
    <path d="M 90.225 22.74045 
L 90.225 30.67557 
" clip-path="url(#p6b5bcfe5af)" style="fill: none; stroke: #2f2f2f; stroke-width: 0.5"/>
   </g>
   <g id="line2d_34">
    <path d="M 90.225 17.359019 
L 90.225 16.791621 
" clip-path="url(#p6b5bcfe5af)" style="fill: none; stroke: #2f2f2f; stroke-width: 0.5"/>
   </g>
   <g id="line2d_35">
    <path d="M 89.5275 30.67557 
L 90.9225 30.67557 
" clip-path="url(#p6b5bcfe5af)" style="fill: none; stroke: #2f2f2f; stroke-width: 0.5; stroke-linecap: square"/>
   </g>
   <g id="line2d_36">
    <path d="M 89.5275 16.791621 
L 90.9225 16.791621 
" clip-path="url(#p6b5bcfe5af)" style="fill: none; stroke: #2f2f2f; stroke-width: 0.5; stroke-linecap: square"/>
   </g>
   <g id="line2d_37">
    <path d="M 19.08 17.335395 
L 21.87 17.335395 
" clip-path="url(#p6b5bcfe5af)" style="fill: none; stroke: #2f2f2f; stroke-width: 0.5"/>
   </g>
   <g id="line2d_38">
    <path d="M 33.03 17.220774 
L 35.82 17.220774 
" clip-path="url(#p6b5bcfe5af)" style="fill: none; stroke: #2f2f2f; stroke-width: 0.5"/>
   </g>
   <g id="line2d_39">
    <path d="M 46.98 17.204846 
L 49.77 17.204846 
" clip-path="url(#p6b5bcfe5af)" style="fill: none; stroke: #2f2f2f; stroke-width: 0.5"/>
   </g>
   <g id="line2d_40">
    <path d="M 60.93 17.167051 
L 63.72 17.167051 
" clip-path="url(#p6b5bcfe5af)" style="fill: none; stroke: #2f2f2f; stroke-width: 0.5"/>
   </g>
   <g id="line2d_41">
    <path d="M 74.88 17.433149 
L 77.67 17.433149 
" clip-path="url(#p6b5bcfe5af)" style="fill: none; stroke: #2f2f2f; stroke-width: 0.5"/>
   </g>
   <g id="line2d_42">
    <path d="M 88.83 18.041045 
L 91.62 18.041045 
" clip-path="url(#p6b5bcfe5af)" style="fill: none; stroke: #2f2f2f; stroke-width: 0.5"/>
   </g>
   <g id="patch_9">
    <path d="M 11.5 96.12 
L 11.5 12.96 
" style="fill: none; stroke: #000000; stroke-width: 0.25; stroke-linejoin: miter; stroke-linecap: square"/>
   </g>
   <g id="patch_10">
    <path d="M 13.5 98.12 
L 97.2 98.12 
" style="fill: none; stroke: #000000; stroke-width: 0.25; stroke-linejoin: miter; stroke-linecap: square"/>
   </g>
  </g>
 </g>
 <defs>
  <clipPath id="p6b5bcfe5af">
   <rect x="13.5" y="12.96" width="83.7" height="83.16"/>
  </clipPath>
 </defs>
</svg>
