<?xml version="1.0" encoding="utf-8" standalone="no"?>
<!DOCTYPE svg PUBLIC "-//W3C//DTD SVG 1.1//EN"
  "http://www.w3.org/Graphics/SVG/1.1/DTD/svg11.dtd">
<svg xmlns:xlink="http://www.w3.org/1999/xlink" width="117.072pt" height="88.272pt" viewBox="0 0 117.072 88.272" xmlns="http://www.w3.org/2000/svg" version="1.1">
 <metadata>
  <rdf:RDF xmlns:dc="http://purl.org/dc/elements/1.1/" xmlns:cc="http://creativecommons.org/ns#" xmlns:rdf="http://www.w3.org/1999/02/22-rdf-syntax-ns#">
   <cc:Work>
    <dc:type rdf:resource="http://purl.org/dc/dcmitype/StillImage"/>
    <dc:date>2025-09-03T00:15:04.544604</dc:date>
    <dc:format>image/svg+xml</dc:format>
    <dc:creator>
     <cc:Agent>
      <dc:title>Matplotlib v3.10.3, https://matplotlib.org/</dc:title>
     </cc:Agent>
    </dc:creator>
   </cc:Work>
  </rdf:RDF>
 </metadata>
 <defs>
  <style type="text/css">*{stroke-linejoin: round; stroke-linecap: butt}</style>
 </defs>
 <g id="figure_1">
  <g id="patch_1">
   <path d="M 0 88.272 
L 117.072 88.272 
L 117.072 0 
L 0 0 
L 0 88.272 
z
" style="fill: none"/>
  </g>
  <g id="axes_1">
   <g id="patch_2">
    <path d="M 14.634 78.56208 
L 105.3648 78.56208 
L 105.3648 10.59264 
L 14.634 10.59264 
L 14.634 78.56208 
z
" style="fill: none"/>
   </g>
   <g id="matplotlib.axis_1">
    <g id="xtick_1">
     <g id="line2d_1">
      <defs>
       <path id="m65ea3ed4ec" d="M 0 0 
L 0 1.7 
" style="stroke: #000000; stroke-width: 0.25"/>
      </defs>
      <g>
       <use xlink:href="#m65ea3ed4ec" x="18.758127" y="78.56208" style="stroke: #000000; stroke-width: 0.25"/>
      </g>
     </g>
     <g id="text_1">
      <text style="font-size: 6px; font-family: 'Arial'; text-anchor: middle" x="18.758127" y="86.056767" transform="rotate(-0 18.758127 86.056767)">0.0</text>
     </g>
    </g>
    <g id="xtick_2">
     <g id="line2d_2">
      <g>
       <use xlink:href="#m65ea3ed4ec" x="46.178893" y="78.56208" style="stroke: #000000; stroke-width: 0.25"/>
      </g>
     </g>
     <g id="text_2">
      <text style="font-size: 6px; font-family: 'Arial'; text-anchor: middle" x="46.178893" y="86.056767" transform="rotate(-0 46.178893 86.056767)">0.25</text>
     </g>
    </g>
    <g id="xtick_3">
     <g id="line2d_3">
      <g>
       <use xlink:href="#m65ea3ed4ec" x="73.599659" y="78.56208" style="stroke: #000000; stroke-width: 0.25"/>
      </g>
     </g>
     <g id="text_3">
      <text style="font-size: 6px; font-family: 'Arial'; text-anchor: middle" x="73.599659" y="86.056767" transform="rotate(-0 73.599659 86.056767)">0.5</text>
     </g>
    </g>
    <g id="xtick_4">
     <g id="line2d_4">
      <g>
       <use xlink:href="#m65ea3ed4ec" x="101.020426" y="78.56208" style="stroke: #000000; stroke-width: 0.25"/>
      </g>
     </g>
     <g id="text_4">
      <text style="font-size: 6px; font-family: 'Arial'; text-anchor: middle" x="101.020426" y="86.056767" transform="rotate(-0 101.020426 86.056767)">0.75</text>
     </g>
    </g>
    <g id="text_5">
     <text style="font-size: 8px; font-family: 'Arial'; text-anchor: middle" x="59.9994" y="94.573017" transform="rotate(-0 59.9994 94.573017)">time (s)</text>
    </g>
   </g>
   <g id="matplotlib.axis_2">
    <g id="ytick_1">
     <g id="line2d_5">
      <defs>
       <path id="m2cf3346d19" d="M 0 0 
L -1.7 0 
" style="stroke: #000000; stroke-width: 0.25"/>
      </defs>
      <g>
       <use xlink:href="#m2cf3346d19" x="14.634" y="75.47256" style="stroke: #000000; stroke-width: 0.25"/>
      </g>
     </g>
     <g id="text_6">
      <text style="font-size: 6px; font-family: 'Arial'; text-anchor: end" x="11.434" y="77.619904" transform="rotate(-0 11.434 77.619904)">0</text>
     </g>
    </g>
    <g id="ytick_2">
     <g id="line2d_6">
      <g>
       <use xlink:href="#m2cf3346d19" x="14.634" y="68.532609" style="stroke: #000000; stroke-width: 0.25"/>
      </g>
     </g>
     <g id="text_7">
      <text style="font-size: 6px; font-family: 'Arial'; text-anchor: end" x="11.434" y="70.679953" transform="rotate(-0 11.434 70.679953)">5</text>
     </g>
    </g>
    <g id="text_8">
     <text style="font-size: 8px; font-family: 'Arial'; text-anchor: middle" x="4.913687" y="44.57736" transform="rotate(-90 4.913687 44.57736)">firing rate (Hz)</text>
    </g>
   </g>
   <g id="line2d_7">
    <path d="M 18.758127 22.034939 
L 24.374429 21.968558 
L 24.704799 21.678988 
L 25.145294 20.927624 
L 25.695911 19.466058 
L 27.457888 14.19401 
L 27.898383 13.731216 
L 28.228753 13.697817 
L 28.669248 13.971074 
L 29.219865 14.638203 
L 30.321101 16.435415 
L 31.862831 18.881648 
L 32.743819 19.821336 
L 33.624808 20.453594 
L 33.955178 20.485236 
L 34.285549 20.335098 
L 34.726043 19.835357 
L 35.276661 18.765709 
L 37.038638 14.788935 
L 37.479132 14.476888 
L 37.809503 14.504103 
L 38.249997 14.816838 
L 38.910739 15.645813 
L 41.773951 19.71076 
L 42.65494 20.392466 
L 43.095434 20.460764 
L 43.425804 20.305357 
L 43.866299 19.805415 
L 44.416916 18.74866 
L 46.178893 14.885294 
L 46.619388 14.597275 
L 46.949758 14.636784 
L 47.390253 14.957594 
L 48.050994 15.786076 
L 50.804083 19.675852 
L 51.685071 20.37143 
L 52.125566 20.458662 
L 52.455936 20.319547 
L 52.89643 19.842701 
L 53.447048 18.811609 
L 55.209025 14.929643 
L 55.649519 14.617453 
L 55.97989 14.639977 
L 56.420384 14.944288 
L 57.081126 15.758993 
L 59.944338 19.758127 
L 60.825327 20.412068 
L 61.265821 20.436773 
L 61.596192 20.246765 
L 62.036686 19.702008 
L 62.587304 18.602387 
L 64.129033 15.096677 
L 64.569528 14.668632 
L 64.899898 14.608209 
L 65.230269 14.748022 
L 65.780887 15.291122 
L 66.661875 16.567641 
L 68.423852 19.173755 
L 69.304841 20.026392 
L 69.965582 20.44211 
L 70.295953 20.441575 
L 70.626323 20.261686 
L 71.066818 19.730314 
L 71.617435 18.644004 
L 73.269289 14.975194 
L 73.709783 14.629801 
L 74.040154 14.629139 
L 74.480648 14.911133 
L 75.141389 15.707994 
L 78.114725 19.825006 
L 78.88559 20.396729 
L 79.326085 20.446102 
L 79.656455 20.276199 
L 80.096949 19.75809 
L 80.647567 18.68508 
L 82.299421 14.997352 
L 82.739915 14.635906 
L 83.070286 14.623908 
L 83.51078 14.894856 
L 84.171521 15.682892 
L 85.713251 18.081499 
L 86.594239 19.258349 
L 87.475228 20.085778 
L 88.135969 20.457052 
L 88.46634 20.417225 
L 88.796711 20.195109 
L 89.237205 19.608487 
L 89.787823 18.468382 
L 91.219429 15.174611 
L 91.659923 14.699543 
L 91.990294 14.603555 
L 92.320664 14.714019 
L 92.761159 15.099367 
L 93.532024 16.142874 
L 95.734495 19.359511 
L 96.615483 20.156791 
L 97.166101 20.454224 
L 97.496472 20.4237 
L 97.826842 20.211566 
L 98.267337 19.637878 
L 98.817954 18.510147 
L 100.359684 15.043184 
L 100.800178 14.650011 
L 101.130549 14.615192 
L 101.240673 14.649391 
L 101.240673 14.649391 
" clip-path="url(#p49b4713c09)" style="fill: none; stroke: #b33b24; stroke-width: 0.75; stroke-linecap: square"/>
   </g>
   <g id="line2d_8">
    <path d="M 18.758127 29.668885 
L 25.585788 29.567474 
L 25.916159 29.171855 
L 26.687023 27.67691 
L 27.127518 27.017712 
L 27.457888 26.821256 
L 27.788259 26.938265 
L 29.550236 28.551515 
L 30.541348 29.000008 
L 31.862831 29.331434 
L 33.734931 29.540868 
L 35.276661 29.577529 
L 35.607032 29.331974 
L 37.038638 27.877942 
L 37.369009 28.008077 
L 38.249997 28.615883 
L 39.241109 29.038538 
L 40.562592 29.350871 
L 42.434692 29.548238 
L 44.416916 29.593016 
L 44.747287 29.353629 
L 46.06877 27.99098 
L 46.399141 28.052092 
L 47.720623 28.846756 
L 48.931982 29.229779 
L 50.583836 29.482181 
L 53.226801 29.621364 
L 53.557172 29.55708 
L 53.997666 29.140187 
L 54.988778 28.05009 
L 55.319149 28.009067 
L 55.759643 28.287841 
L 56.750755 28.842166 
L 57.962114 29.227328 
L 59.613968 29.481138 
L 62.256933 29.621099 
L 62.587304 29.567686 
L 63.027798 29.164368 
L 64.01891 28.06113 
L 64.349281 28.006525 
L 64.679651 28.193849 
L 65.56064 28.734089 
L 66.661875 29.140314 
L 68.093482 29.416997 
L 70.295953 29.588351 
L 71.617435 29.576629 
L 72.05793 29.186156 
L 73.049042 28.070814 
L 73.379412 28.00347 
L 73.709783 28.180522 
L 74.590772 28.725649 
L 75.692007 29.135538 
L 77.123613 29.41472 
L 79.326085 29.587621 
L 80.647567 29.58474 
L 80.977938 29.330819 
L 82.299421 28.001537 
L 82.629791 28.084295 
L 83.731027 28.769564 
L 84.832262 29.16037 
L 86.263869 29.426554 
L 88.46634 29.591406 
L 89.787823 29.534969 
L 90.228317 29.093963 
L 91.109305 28.091469 
L 91.439676 27.999224 
L 91.770047 28.152687 
L 92.651035 28.708023 
L 93.752271 29.125573 
L 95.183877 29.409971 
L 97.386348 29.586101 
L 98.817954 29.545845 
L 99.258449 29.116106 
L 100.139437 28.102567 
L 100.469808 27.998175 
L 100.800178 28.138767 
L 101.240673 28.45084 
L 101.240673 28.45084 
" clip-path="url(#p49b4713c09)" style="fill: none; stroke: #b33b24; stroke-width: 0.75; stroke-linecap: square"/>
   </g>
   <g id="line2d_9">
    <path d="M 18.758127 37.302831 
L 23.713687 37.214612 
L 24.154182 36.848858 
L 24.704799 36.082091 
L 25.585788 34.757614 
L 26.026282 34.478708 
L 26.356653 34.548143 
L 28.669248 36.19671 
L 29.99073 36.651548 
L 31.642584 36.966915 
L 33.404561 37.107025 
L 33.845055 36.912225 
L 34.505796 36.306324 
L 35.166538 35.703391 
L 35.607032 35.575647 
L 35.937402 35.690615 
L 37.038638 36.265947 
L 38.360121 36.692313 
L 40.122098 37.001537 
L 42.434692 37.177413 
L 42.875187 37.034923 
L 43.425804 36.596411 
L 44.416916 35.721296 
L 44.857411 35.673974 
L 45.518152 36.020799 
L 46.729511 36.513906 
L 48.271241 36.87756 
L 50.363589 37.118986 
L 51.685071 37.147879 
L 52.125566 36.921049 
L 52.89643 36.185543 
L 53.447048 35.755436 
L 53.887542 35.689366 
L 54.43816 35.96656 
L 55.649519 36.480527 
L 57.081126 36.839565 
L 59.06335 37.093523 
L 60.715203 37.155062 
L 61.155697 36.937754 
L 61.816439 36.323199 
L 62.47718 35.769719 
L 62.917674 35.690922 
L 63.358169 35.900256 
L 64.569528 36.439726 
L 66.001134 36.816578 
L 67.983358 37.083138 
L 69.745335 37.159951 
L 70.185829 36.950866 
L 70.846571 36.342742 
L 71.507312 35.779755 
L 71.947806 35.689035 
L 72.3883 35.890908 
L 73.489536 36.394766 
L 74.921142 36.791248 
L 76.793243 37.061262 
L 78.775467 37.164102 
L 79.215961 36.963105 
L 79.876702 36.361483 
L 80.537444 35.789336 
L 80.977938 35.686896 
L 81.418432 35.881028 
L 82.519668 36.388414 
L 83.951274 36.787669 
L 85.823375 37.059573 
L 87.805599 37.167809 
L 88.246093 36.974966 
L 88.906834 36.380144 
L 89.567576 35.79928 
L 90.00807 35.685283 
L 90.448564 35.870881 
L 91.5498 36.381883 
L 92.981406 36.783991 
L 94.853506 37.057837 
L 96.83573 37.171121 
L 97.276225 36.986463 
L 97.936966 36.398662 
L 98.707831 35.752402 
L 99.148325 35.700143 
L 99.698943 35.982709 
L 100.910302 36.490466 
L 101.240673 36.59122 
L 101.240673 36.59122 
" clip-path="url(#p49b4713c09)" style="fill: none; stroke: #492c6d; stroke-width: 0.75; stroke-linecap: square"/>
   </g>
   <g id="line2d_10">
    <path d="M 18.758127 44.936776 
L 25.806035 44.888118 
L 26.356653 44.45993 
L 26.687023 44.269962 
L 27.127518 44.351721 
L 28.669248 44.646597 
L 30.981842 44.835416 
L 35.386785 44.923105 
L 55.869767 44.936776 
L 101.240673 44.936776 
L 101.240673 44.936776 
" clip-path="url(#p49b4713c09)" style="fill: none; stroke: #6359ac; stroke-width: 0.75; stroke-linecap: square"/>
   </g>
   <g id="line2d_11">
    <path d="M 18.758127 52.570722 
L 24.594676 52.535427 
L 24.814923 52.181412 
L 25.145294 50.923749 
L 25.585788 48.027477 
L 27.127518 36.055811 
L 27.347765 35.611477 
L 27.457888 35.596861 
L 27.678136 35.99819 
L 28.008506 37.61816 
L 28.779371 41.951785 
L 29.550236 45.030097 
L 30.321101 47.216034 
L 31.091966 48.768299 
L 31.862831 49.870576 
L 32.743819 50.744834 
L 33.734931 51.394952 
L 34.505796 51.690518 
L 34.726043 51.406499 
L 35.056414 50.32919 
L 35.496908 47.914609 
L 36.598144 41.179444 
L 36.928514 40.386797 
L 37.148762 40.409503 
L 37.369009 40.905604 
L 39.020862 46.889535 
L 39.791727 48.536447 
L 40.562592 49.705938 
L 41.44358 50.633499 
L 42.434692 51.323258 
L 43.535928 51.805772 
L 43.756175 51.700962 
L 43.976422 51.239529 
L 44.306793 49.944512 
L 44.857411 46.647313 
L 45.628276 42.009901 
L 45.958646 40.989065 
L 46.178893 40.822463 
L 46.399141 41.111268 
L 46.729511 42.3634 
L 47.500376 45.322383 
L 48.271241 47.423594 
L 49.042106 48.915687 
L 49.812971 49.97524 
L 50.693959 50.815609 
L 51.685071 51.440529 
L 52.676183 51.820804 
L 52.89643 51.585579 
L 53.226801 50.590886 
L 53.667295 48.293012 
L 54.768531 41.742274 
L 55.098902 40.942384 
L 55.319149 40.942858 
L 55.539396 41.4041 
L 57.191249 47.130714 
L 57.962114 48.707717 
L 58.732979 49.827551 
L 59.613968 50.715739 
L 60.60508 51.376219 
L 61.706315 51.825821 
L 61.926562 51.622232 
L 62.256933 50.670737 
L 62.697427 48.414397 
L 63.908786 41.442037 
L 64.129033 40.972339 
L 64.349281 40.933846 
L 64.569528 41.354642 
L 65.120145 43.631877 
L 65.89101 46.223149 
L 66.661875 48.063238 
L 67.43274 49.369906 
L 68.313729 50.406268 
L 69.194717 51.107078 
L 70.185829 51.628215 
L 70.846571 51.784813 
L 71.066818 51.43207 
L 71.397188 50.280936 
L 71.947806 47.128615 
L 72.828795 41.89498 
L 73.159165 40.99624 
L 73.379412 40.921266 
L 73.599659 41.304194 
L 74.040154 43.109792 
L 74.811019 45.8524 
L 75.581884 47.799975 
L 76.352748 49.182953 
L 77.233737 50.279851 
L 78.114725 51.021591 
L 79.105837 51.573168 
L 79.876702 51.797748 
L 80.096949 51.473486 
L 80.42732 50.359982 
L 80.977938 47.245187 
L 81.858926 41.966987 
L 82.189297 41.021331 
L 82.409544 40.910396 
L 82.629791 41.255876 
L 82.960162 42.557406 
L 83.731027 45.460164 
L 84.501892 47.521428 
L 85.272757 48.985165 
L 86.043622 50.024574 
L 86.92461 50.848969 
L 87.915722 51.46201 
L 88.796711 51.820891 
L 89.016958 51.705034 
L 89.237205 51.234319 
L 89.567576 49.930089 
L 90.118193 46.63441 
L 90.889058 42.041389 
L 91.219429 41.049537 
L 91.439676 40.902941 
L 91.659923 41.210985 
L 91.990294 42.478535 
L 92.761159 45.404156 
L 93.532024 47.481654 
L 94.302889 48.956923 
L 95.073753 50.004518 
L 95.954742 50.835412 
L 96.945854 51.453276 
L 97.936966 51.816481 
L 98.157213 51.549336 
L 98.487584 50.51197 
L 98.928078 48.175111 
L 100.029314 41.679121 
L 100.359684 40.934492 
L 100.579931 40.976157 
L 100.800178 41.479371 
L 101.240673 43.347246 
L 101.240673 43.347246 
" clip-path="url(#p49b4713c09)" style="fill: none; stroke: #6359ac; stroke-width: 0.75; stroke-linecap: square"/>
   </g>
   <g id="line2d_12">
    <path d="M 18.758127 60.204668 
L 25.03517 60.173512 
L 25.255417 59.864881 
L 25.585788 58.845057 
L 26.136406 56.149881 
L 26.797147 53.058423 
L 27.127518 52.393681 
L 27.347765 52.442856 
L 27.568012 52.935682 
L 28.338877 55.033385 
L 29.109742 56.525366 
L 29.880607 57.586885 
L 30.761595 58.430552 
L 31.752707 59.059389 
L 32.964066 59.533852 
L 34.505796 59.865091 
L 35.386785 59.921923 
L 35.717155 59.482677 
L 36.598144 57.973228 
L 36.818391 58.007568 
L 37.809503 58.784695 
L 38.910739 59.331513 
L 40.232221 59.717517 
L 41.994198 59.980919 
L 44.416916 60.127906 
L 44.637164 60.014723 
L 44.967534 59.504162 
L 45.628276 58.411878 
L 45.848523 58.356721 
L 47.830747 59.425135 
L 49.262353 59.790393 
L 51.244577 60.032026 
L 53.557172 60.128036 
L 53.777419 59.938957 
L 54.328037 58.945883 
L 54.658407 58.477578 
L 54.878655 58.395995 
L 55.539396 58.826882 
L 56.640631 59.357456 
L 57.962114 59.73199 
L 59.724091 59.987567 
L 62.47718 60.140297 
L 62.697427 60.077325 
L 63.027798 59.622994 
L 63.688539 58.500472 
L 63.908786 58.399935 
L 64.349281 58.6789 
L 65.340393 59.21971 
L 66.551752 59.627756 
L 68.203605 59.926488 
L 70.626323 60.109233 
L 71.727559 60.090986 
L 72.05793 59.655694 
L 72.828795 58.432313 
L 73.049042 58.430109 
L 74.150277 59.11105 
L 75.361636 59.564112 
L 76.903366 59.880409 
L 79.105837 60.082061 
L 80.757691 60.102819 
L 81.088061 59.687059 
L 81.858926 58.442698 
L 82.079174 58.420725 
L 83.290533 59.154886 
L 84.501892 59.589786 
L 86.043622 59.893406 
L 88.356216 60.092562 
L 89.787823 60.11318 
L 90.118193 59.717819 
L 90.889058 58.454642 
L 91.109305 58.413338 
L 92.651035 59.29014 
L 93.972518 59.694434 
L 95.734495 59.970318 
L 98.37746 60.131721 
L 98.928078 60.043653 
L 99.258449 59.551424 
L 99.91919 58.467866 
L 100.139437 58.407799 
L 101.240673 59.085309 
L 101.240673 59.085309 
" clip-path="url(#p49b4713c09)" style="fill: none; stroke: #6359ac; stroke-width: 0.75; stroke-linecap: square"/>
   </g>
   <g id="line2d_13">
    <path d="M 18.758127 67.838614 
L 24.925047 67.818281 
L 25.145294 67.568465 
L 25.475664 66.746424 
L 26.687023 62.983839 
L 26.907271 62.994249 
L 27.347765 63.809773 
L 28.11863 65.009991 
L 28.999618 65.950508 
L 29.880607 66.578302 
L 30.981842 67.078215 
L 32.303325 67.423929 
L 34.175425 67.662952 
L 35.386785 67.708175 
L 35.827279 67.363919 
L 36.15765 67.164077 
L 36.818391 67.320755 
L 38.470244 67.595921 
L 41.003086 67.762694 
L 44.52704 67.814512 
L 44.967534 67.549112 
L 45.297905 67.412588 
L 47.720623 67.697408 
L 51.244577 67.810582 
L 53.777419 67.741519 
L 54.328037 67.44313 
L 57.962114 67.762674 
L 62.587304 67.829179 
L 62.917674 67.684435 
L 63.358169 67.448601 
L 69.525088 67.814919 
L 71.837683 67.764844 
L 72.498424 67.454485 
L 74.480648 67.683918 
L 77.784355 67.804638 
L 80.867814 67.774191 
L 81.528556 67.451349 
L 83.51078 67.682638 
L 86.814487 67.804357 
L 89.897946 67.782989 
L 90.668811 67.467512 
L 92.651035 67.68916 
L 96.064865 67.807407 
L 98.928078 67.791104 
L 99.698943 67.464596 
L 101.240673 67.654247 
L 101.240673 67.654247 
" clip-path="url(#p49b4713c09)" style="fill: none; stroke: #6359ac; stroke-width: 0.75; stroke-linecap: square"/>
   </g>
   <g id="line2d_14">
    <path d="M 18.758127 75.47256 
L 24.925047 75.365203 
L 25.145294 74.856208 
L 25.475664 73.381225 
L 26.026282 69.585354 
L 26.797147 64.321309 
L 27.127518 63.273262 
L 27.347765 63.192622 
L 27.568012 63.652876 
L 28.11863 66.269904 
L 28.889495 69.162094 
L 29.66036 71.145326 
L 30.431224 72.505281 
L 31.202089 73.437829 
L 32.083078 74.150509 
L 33.07419 74.65864 
L 34.285549 75.022676 
L 34.94629 75.123966 
L 35.166538 74.835796 
L 35.496908 73.813671 
L 36.708267 69.244746 
L 36.928514 69.19229 
L 37.148762 69.552209 
L 37.919626 71.410338 
L 38.690491 72.687003 
L 39.461356 73.56244 
L 40.342345 74.231474 
L 41.333457 74.708486 
L 42.65494 75.072387 
L 44.086546 75.257764 
L 44.306793 74.98322 
L 44.637164 73.998453 
L 45.738399 69.825296 
L 45.958646 69.625918 
L 46.178893 69.811478 
L 47.390253 72.314826 
L 48.161117 73.307226 
L 49.042106 74.065649 
L 50.033218 74.606395 
L 51.244577 74.9938 
L 52.89643 75.259251 
L 53.226801 75.211636 
L 53.447048 74.816418 
L 53.887542 73.246188 
L 54.658407 70.179917 
L 54.988778 69.691469 
L 55.209025 69.826785 
L 56.860879 72.921391 
L 57.631743 73.723166 
L 58.512732 74.335906 
L 59.613968 74.809497 
L 60.93545 75.12529 
L 62.256933 75.231548 
L 62.47718 74.866005 
L 62.807551 73.788309 
L 63.798663 69.978885 
L 64.01891 69.706554 
L 64.239157 69.807662 
L 64.679651 70.820628 
L 65.450516 72.282624 
L 66.221381 73.285148 
L 67.10237 74.051305 
L 68.093482 74.597565 
L 69.304841 74.988917 
L 70.956694 75.257076 
L 71.287065 75.246126 
L 71.507312 74.908208 
L 71.837683 73.859493 
L 72.938918 69.823761 
L 73.159165 69.701888 
L 73.379412 69.971677 
L 74.260401 71.889588 
L 75.031266 73.015639 
L 75.912254 73.876195 
L 76.793243 74.435334 
L 77.894478 74.867497 
L 79.326085 75.172295 
L 80.317197 75.257991 
L 80.537444 74.947782 
L 80.867814 73.928482 
L 81.96905 69.849203 
L 82.189297 69.69758 
L 82.409544 69.934398 
L 83.400656 72.047557 
L 84.171521 73.123961 
L 85.05251 73.946578 
L 86.043622 74.533088 
L 87.144857 74.924523 
L 88.686587 75.214864 
L 89.347328 75.267336 
L 89.567576 74.985311 
L 89.897946 73.996301 
L 90.999182 69.87708 
L 91.219429 69.69613 
L 91.439676 69.900248 
L 92.540912 72.198871 
L 93.311777 73.227723 
L 94.192765 74.013995 
L 95.183877 74.574592 
L 96.395236 74.97622 
L 97.936966 75.239173 
L 98.487584 75.191979 
L 98.707831 74.768253 
L 99.148325 73.164928 
L 99.91919 70.138589 
L 100.249561 69.697241 
L 100.469808 69.86916 
L 101.240673 71.591726 
L 101.240673 71.591726 
" clip-path="url(#p49b4713c09)" style="fill: none; stroke: #6359ac; stroke-width: 0.75; stroke-linecap: square"/>
   </g>
   <g id="LineCollection_1">
    <path d="M 14.634 75.47256 
L 14.634 67.838614 
" clip-path="url(#p49b4713c09)" style="fill: none; stroke: #000000; stroke-width: 1.5"/>
   </g>
   <g id="LineCollection_2">
    <path d="M 14.634 75.47256 
L 14.634 68.532609 
" clip-path="url(#p49b4713c09)" style="fill: none; stroke: #000000; stroke-width: 1.5"/>
   </g>
   <g id="patch_3">
    <path d="M 14.634 78.56208 
L 105.3648 78.56208 
" style="fill: none; stroke: #000000; stroke-width: 0.25; stroke-linejoin: miter; stroke-linecap: square"/>
   </g>
   <g id="legend_1">
    <g id="patch_4">
     <path d="M 319.4073 95.632796 
Q 320.8073 95.632796 320.8073 94.232796 
Q 320.8073 14.09264 319.4073 14.09264 
M 118.072 14.09264 
L 110.2648 14.09264 
Q 108.8648 14.09264 108.8648 15.49264 
L 108.8648 89.272 
Q 108.8648 95.632796 110.2648 95.632796 
" style="fill: none; opacity: 0.8"/>
    </g>
    <g id="line2d_15">
     <path d="M 111.6648 19.47389 
L 118.072 19.47389 
" style="fill: none; stroke: #b33b24; stroke-width: 0.75; stroke-linecap: square"/>
    </g>
    <g id="text_9">
     <text style="font-size: 7px; font-family: 'Arial'; text-anchor: start" x="131.2648" y="21.92389" transform="rotate(-0 131.2648 21.92389)">tergopleural promotor pleural promotor in thorax miller 28 30</text>
    </g>
    <g id="line2d_16">
     <path d="M 111.6648 29.478421 
L 118.072 29.478421 
" style="fill: none; stroke: #b33b24; stroke-width: 0.75; stroke-linecap: square"/>
    </g>
    <g id="text_10">
     <text style="font-size: 7px; font-family: 'Arial'; text-anchor: start" x="131.2648" y="31.928421" transform="rotate(-0 131.2648 31.928421)">tergopleural promotor pleural promotor in thorax miller 28 30</text>
    </g>
    <g id="line2d_17">
     <path d="M 111.6648 39.482952 
L 118.072 39.482952 
" style="fill: none; stroke: #492c6d; stroke-width: 0.75; stroke-linecap: square"/>
    </g>
    <g id="text_11">
     <text style="font-size: 7px; font-family: 'Arial'; text-anchor: start" x="131.2648" y="41.932952" transform="rotate(-0 131.2648 41.932952)">pleural remotor and abductor in thorax miller 29</text>
    </g>
    <g id="line2d_18">
     <path d="M 111.6648 49.384671 
L 118.072 49.384671 
" style="fill: none; stroke: #6359ac; stroke-width: 0.75; stroke-linecap: square"/>
    </g>
    <g id="text_12">
     <text style="font-size: 7px; font-family: 'Arial'; text-anchor: start" x="131.2648" y="51.834671" transform="rotate(-0 131.2648 51.834671)">trochanter flexor in coxa Vn</text>
    </g>
    <g id="line2d_19">
     <path d="M 111.6648 59.28639 
L 118.072 59.28639 
" style="fill: none; stroke: #6359ac; stroke-width: 0.75; stroke-linecap: square"/>
    </g>
    <g id="text_13">
     <text style="font-size: 7px; font-family: 'Arial'; text-anchor: start" x="131.2648" y="61.73639" transform="rotate(-0 131.2648 61.73639)">trochanter flexor in coxa Vn</text>
    </g>
    <g id="line2d_20">
     <path d="M 111.6648 69.188109 
L 118.072 69.188109 
" style="fill: none; stroke: #6359ac; stroke-width: 0.75; stroke-linecap: square"/>
    </g>
    <g id="text_14">
     <text style="font-size: 7px; font-family: 'Arial'; text-anchor: start" x="131.2648" y="71.638109" transform="rotate(-0 131.2648 71.638109)">trochanter flexor in coxa Ac</text>
    </g>
    <g id="line2d_21">
     <path d="M 111.6648 79.089827 
L 118.072 79.089827 
" style="fill: none; stroke: #6359ac; stroke-width: 0.75; stroke-linecap: square"/>
    </g>
    <g id="text_15">
     <text style="font-size: 7px; font-family: 'Arial'; text-anchor: start" x="131.2648" y="81.539828" transform="rotate(-0 131.2648 81.539828)">trochanter flexor in coxa Ac</text>
    </g>
    <g id="line2d_22">
     <path d="M 111.6648 88.991546 
L 118.072 88.991546 
" style="fill: none; stroke: #6359ac; stroke-width: 0.75; stroke-linecap: square"/>
    </g>
    <g id="text_16">
     <text style="font-size: 7px; font-family: 'Arial'; text-anchor: start" x="131.2648" y="91.441546" transform="rotate(-0 131.2648 91.441546)">trochanter flexor in coxa Ac</text>
    </g>
   </g>
  </g>
 </g>
 <defs>
  <clipPath id="p49b4713c09">
   <rect x="14.634" y="10.59264" width="90.7308" height="67.96944"/>
  </clipPath>
 </defs>
</svg>
