<?xml version="1.0" encoding="utf-8" standalone="no"?>
<!DOCTYPE svg PUBLIC "-//W3C//DTD SVG 1.1//EN"
  "http://www.w3.org/Graphics/SVG/1.1/DTD/svg11.dtd">
<svg xmlns:xlink="http://www.w3.org/1999/xlink" width="117.072pt" height="52.8pt" viewBox="0 0 117.072 52.8" xmlns="http://www.w3.org/2000/svg" version="1.1">
 <metadata>
  <rdf:RDF xmlns:dc="http://purl.org/dc/elements/1.1/" xmlns:cc="http://creativecommons.org/ns#" xmlns:rdf="http://www.w3.org/1999/02/22-rdf-syntax-ns#">
   <cc:Work>
    <dc:type rdf:resource="http://purl.org/dc/dcmitype/StillImage"/>
    <dc:date>2025-09-12T09:22:16.269840</dc:date>
    <dc:format>image/svg+xml</dc:format>
    <dc:creator>
     <cc:Agent>
      <dc:title>Matplotlib v3.10.3, https://matplotlib.org/</dc:title>
     </cc:Agent>
    </dc:creator>
   </cc:Work>
  </rdf:RDF>
 </metadata>
 <defs>
  <style type="text/css">*{stroke-linejoin: round; stroke-linecap: butt}</style>
 </defs>
 <g id="figure_1">
  <g id="patch_1">
   <path d="M 0 52.8 
L 117.072 52.8 
L 117.072 0 
L 0 0 
L 0 52.8 
z
" style="fill: none"/>
  </g>
  <g id="axes_1">
   <g id="patch_2">
    <path d="M 14.634 46.992 
L 105.3648 46.992 
L 105.3648 6.336 
L 14.634 6.336 
L 14.634 46.992 
z
" style="fill: none"/>
   </g>
   <g id="matplotlib.axis_1">
    <g id="xtick_1">
     <g id="line2d_1">
      <defs>
       <path id="md3dc0d9e15" d="M 0 0 
L 0 1.7 
" style="stroke: #000000; stroke-width: 0.25"/>
      </defs>
      <g>
       <use xlink:href="#md3dc0d9e15" x="18.758127" y="46.992" style="stroke: #000000; stroke-width: 0.25"/>
      </g>
     </g>
     <g id="text_1">
      <text style="font-size: 6px; font-family: 'Arial'; text-anchor: middle" x="18.758127" y="54.486688" transform="rotate(-0 18.758127 54.486688)">0.0</text>
     </g>
    </g>
    <g id="xtick_2">
     <g id="line2d_2">
      <g>
       <use xlink:href="#md3dc0d9e15" x="46.178893" y="46.992" style="stroke: #000000; stroke-width: 0.25"/>
      </g>
     </g>
     <g id="text_2">
      <text style="font-size: 6px; font-family: 'Arial'; text-anchor: middle" x="46.178893" y="54.486688" transform="rotate(-0 46.178893 54.486688)">0.25</text>
     </g>
    </g>
    <g id="xtick_3">
     <g id="line2d_3">
      <g>
       <use xlink:href="#md3dc0d9e15" x="73.599659" y="46.992" style="stroke: #000000; stroke-width: 0.25"/>
      </g>
     </g>
     <g id="text_3">
      <text style="font-size: 6px; font-family: 'Arial'; text-anchor: middle" x="73.599659" y="54.486688" transform="rotate(-0 73.599659 54.486688)">0.5</text>
     </g>
    </g>
    <g id="xtick_4">
     <g id="line2d_4">
      <g>
       <use xlink:href="#md3dc0d9e15" x="101.020426" y="46.992" style="stroke: #000000; stroke-width: 0.25"/>
      </g>
     </g>
     <g id="text_4">
      <text style="font-size: 6px; font-family: 'Arial'; text-anchor: middle" x="101.020426" y="54.486688" transform="rotate(-0 101.020426 54.486688)">0.75</text>
     </g>
    </g>
    <g id="text_5">
     <text style="font-size: 8px; font-family: 'Arial'; text-anchor: middle" x="59.9994" y="63.002938" transform="rotate(-0 59.9994 63.002938)">Time (s)</text>
    </g>
   </g>
   <g id="matplotlib.axis_2">
    <g id="ytick_1">
     <g id="line2d_5">
      <defs>
       <path id="ma81968c8ad" d="M 0 0 
L -1.7 0 
" style="stroke: #000000; stroke-width: 0.25"/>
      </defs>
      <g>
       <use xlink:href="#ma81968c8ad" x="14.634" y="45.144" style="stroke: #000000; stroke-width: 0.25"/>
      </g>
     </g>
     <g id="text_6">
      <text style="font-size: 6px; font-family: 'Arial'; text-anchor: end" x="11.434" y="47.291344" transform="rotate(-0 11.434 47.291344)">0</text>
     </g>
    </g>
    <g id="ytick_2">
     <g id="line2d_6">
      <g>
       <use xlink:href="#ma81968c8ad" x="14.634" y="37.240714" style="stroke: #000000; stroke-width: 0.25"/>
      </g>
     </g>
     <g id="text_7">
      <text style="font-size: 6px; font-family: 'Arial'; text-anchor: end" x="11.434" y="39.388058" transform="rotate(-0 11.434 39.388058)">10</text>
     </g>
    </g>
    <g id="text_8">
     <text style="font-size: 8px; font-family: 'Arial'; text-anchor: middle" x="1.577125" y="26.664" transform="rotate(-90 1.577125 26.664)">firing rate (Hz)</text>
    </g>
   </g>
   <g id="line2d_7">
    <path d="M 18.758127 21.434142 
L 20.850475 21.434142 
L 20.960598 21.193975 
L 21.841587 16.946203 
L 22.612452 14.404648 
L 23.383317 12.600806 
L 24.154182 11.319812 
L 25.03517 10.304032 
L 25.916159 9.617294 
L 27.017394 9.062673 
L 28.338877 8.67245 
L 30.100854 8.407281 
L 32.853943 8.249736 
L 38.800615 8.188715 
L 97.496472 8.18403 
L 101.240673 8.18403 
L 101.240673 8.18403 
" clip-path="url(#pc03c4476c6)" style="fill: none; stroke: #51bbad; stroke-width: 0.75; stroke-linecap: square"/>
   </g>
   <g id="line2d_8">
    <path d="M 18.758127 29.337428 
L 22.612452 29.231149 
L 23.16307 28.841112 
L 24.154182 27.732074 
L 26.466776 24.998235 
L 26.797147 24.902367 
L 27.127518 25.026219 
L 27.568012 25.534734 
L 28.559124 26.955937 
L 29.440112 27.77582 
L 29.99073 28.049669 
L 30.431224 27.995883 
L 30.981842 27.692593 
L 31.862831 26.92241 
L 33.845055 25.078504 
L 34.175425 25.09825 
L 34.505796 25.310544 
L 34.94629 25.857629 
L 35.827279 27.049224 
L 36.598144 27.751299 
L 37.038638 27.895528 
L 37.479132 27.805679 
L 38.139874 27.400748 
L 39.130986 26.485977 
L 40.562592 25.148048 
L 40.892963 25.101767 
L 41.223333 25.240517 
L 41.663827 25.700633 
L 42.98531 27.381452 
L 43.646052 27.84578 
L 44.086546 27.850033 
L 44.637164 27.602021 
L 45.408028 26.988683 
L 47.500376 25.118562 
L 47.830747 25.153499 
L 48.271241 25.485526 
L 49.042106 26.558 
L 49.812971 27.416628 
L 50.363589 27.813212 
L 50.804083 27.855336 
L 51.354701 27.636518 
L 52.125566 27.044186 
L 54.328037 25.114212 
L 54.658407 25.176538 
L 55.098902 25.54241 
L 56.971002 27.726274 
L 57.411496 27.861379 
L 57.851991 27.766121 
L 58.512732 27.358459 
L 59.503844 26.445356 
L 60.825327 25.190461 
L 61.265821 25.121936 
L 61.596192 25.284213 
L 62.036686 25.766877 
L 63.137921 27.211934 
L 63.908786 27.822838 
L 64.349281 27.854945 
L 64.899898 27.629153 
L 65.670763 27.032388 
L 67.873234 25.112077 
L 68.203605 25.181615 
L 68.644099 25.556515 
L 70.5162 27.737344 
L 70.956694 27.86511 
L 71.397188 27.764899 
L 72.05793 27.352805 
L 73.049042 26.436384 
L 74.370524 25.187719 
L 74.811019 25.124897 
L 75.141389 25.291221 
L 75.581884 25.778308 
L 76.683119 27.217974 
L 77.34386 27.768655 
L 77.784355 27.859725 
L 78.334973 27.679857 
L 79.105837 27.116079 
L 80.42732 25.790877 
L 81.088061 25.211146 
L 81.528556 25.115376 
L 81.858926 25.255146 
L 82.299421 25.713463 
L 83.620903 27.387983 
L 84.281645 27.84239 
L 84.722139 27.836473 
L 85.272757 27.580832 
L 86.153745 26.859797 
L 88.025846 25.139659 
L 88.356216 25.12853 
L 88.686587 25.30233 
L 89.127081 25.797089 
L 90.228317 27.231289 
L 90.889058 27.775822 
L 91.329552 27.859306 
L 91.88017 27.673975 
L 92.651035 27.106348 
L 93.972518 25.778631 
L 94.633259 25.204849 
L 95.073753 25.1169 
L 95.404124 25.262971 
L 95.844618 25.728183 
L 97.055977 27.293094 
L 97.716719 27.809153 
L 98.157213 27.850723 
L 98.707831 27.632537 
L 99.478696 27.042096 
L 101.240673 25.300752 
L 101.240673 25.300752 
" clip-path="url(#pc03c4476c6)" style="fill: none; stroke: #d84a2e; stroke-width: 0.75; stroke-linecap: square"/>
   </g>
   <g id="line2d_9">
    <path d="M 18.758127 37.240714 
L 24.154182 37.142696 
L 24.484552 36.723356 
L 24.925047 35.708287 
L 25.475664 33.83917 
L 26.466776 29.447871 
L 27.017394 27.425666 
L 27.347765 26.800144 
L 27.568012 26.709389 
L 27.788259 26.899595 
L 28.11863 27.639631 
L 28.779371 29.999956 
L 29.550236 32.222022 
L 30.321101 33.762176 
L 31.091966 34.831686 
L 31.422337 35.07602 
L 31.752707 34.983949 
L 32.083078 34.586659 
L 32.523572 33.639219 
L 33.07419 31.901513 
L 34.285549 27.835325 
L 34.61592 27.402217 
L 34.836167 27.396015 
L 35.056414 27.62721 
L 35.386785 28.371951 
L 37.038638 33.090735 
L 37.809503 34.364304 
L 38.249997 34.803265 
L 38.580368 34.760087 
L 38.910739 34.417735 
L 39.351233 33.543251 
L 39.901851 31.885142 
L 41.11321 27.92759 
L 41.44358 27.495008 
L 41.663827 27.478077 
L 41.884075 27.693582 
L 42.214445 28.415516 
L 43.976422 33.30049 
L 44.747287 34.506362 
L 45.077658 34.7631 
L 45.408028 34.692362 
L 45.738399 34.325223 
L 46.178893 33.425239 
L 46.729511 31.746091 
L 47.830747 28.111813 
L 48.161117 27.583194 
L 48.381365 27.493648 
L 48.601612 27.63245 
L 48.931982 28.250431 
L 49.4826 29.989435 
L 50.253465 32.216972 
L 51.02433 33.758671 
L 51.685071 34.647854 
L 52.015442 34.747763 
L 52.345813 34.533965 
L 52.676183 34.03738 
L 53.116678 32.988662 
L 53.777419 30.771682 
L 54.548284 28.255767 
L 54.878655 27.652161 
L 55.098902 27.502007 
L 55.319149 27.577546 
L 55.649519 28.111141 
L 56.090014 29.416309 
L 56.860879 31.816439 
L 57.631743 33.481059 
L 58.402608 34.621179 
L 58.732979 34.760696 
L 59.06335 34.585638 
L 59.39372 34.123868 
L 59.834215 33.114696 
L 60.494956 30.933191 
L 61.375944 28.095159 
L 61.706315 27.576088 
L 61.926562 27.493391 
L 62.146809 27.638837 
L 62.47718 28.267683 
L 63.027798 30.027933 
L 63.798663 32.242883 
L 64.569528 33.776631 
L 65.230269 34.669036 
L 65.56064 34.753618 
L 65.89101 34.527267 
L 66.331505 33.791993 
L 66.882122 32.277616 
L 68.313729 27.783276 
L 68.644099 27.497312 
L 68.864346 27.586063 
L 69.194717 28.140063 
L 69.745335 29.842841 
L 70.5162 32.113498 
L 71.287065 33.686953 
L 71.947806 34.626627 
L 72.278177 34.757076 
L 72.608547 34.574985 
L 72.938918 34.106136 
L 73.379412 33.088973 
L 74.040154 30.902934 
L 74.921142 28.081749 
L 75.251513 27.576979 
L 75.47176 27.500388 
L 75.692007 27.65241 
L 76.022378 28.290108 
L 76.572996 30.073625 
L 77.34386 32.274693 
L 78.114725 33.798511 
L 78.775467 34.675876 
L 79.105837 34.744613 
L 79.436208 34.504774 
L 79.876702 33.754688 
L 80.42732 32.226883 
L 81.858926 27.756894 
L 82.189297 27.490677 
L 82.409544 27.595794 
L 82.739915 28.171758 
L 83.290533 29.894549 
L 84.061398 32.150001 
L 84.832262 33.712248 
L 85.493004 34.644399 
L 85.823375 34.760981 
L 86.153745 34.565012 
L 86.484116 34.084414 
L 86.92461 33.053841 
L 87.585351 30.854652 
L 88.356216 28.309067 
L 88.796711 27.566647 
L 89.016958 27.504457 
L 89.237205 27.670154 
L 89.567576 28.324997 
L 90.228317 30.487746 
L 90.999182 32.558575 
L 91.770047 33.994444 
L 92.320664 34.68789 
L 92.651035 34.74538 
L 92.981406 34.494662 
L 93.4219 33.732841 
L 93.972518 32.192366 
L 95.294001 27.928413 
L 95.624371 27.519941 
L 95.844618 27.520327 
L 96.064865 27.750937 
L 96.395236 28.488439 
L 98.04709 33.131785 
L 98.817954 34.399853 
L 99.148325 34.714618 
L 99.478696 34.704612 
L 99.809066 34.392679 
L 100.249561 33.558157 
L 100.800178 31.946704 
L 101.240673 30.365542 
L 101.240673 30.365542 
" clip-path="url(#pc03c4476c6)" style="fill: none; stroke: #ff9985; stroke-width: 0.75; stroke-linecap: square"/>
   </g>
   <g id="line2d_10">
    <path d="M 18.758127 45.144 
L 26.026282 45.084232 
L 26.356653 44.801097 
L 26.907271 43.92559 
L 28.008506 41.98543 
L 28.449 41.682347 
L 28.779371 41.712909 
L 29.219865 42.026883 
L 30.761595 43.494889 
L 31.752707 44.0579 
L 32.964066 44.487111 
L 33.294437 44.445339 
L 33.734931 44.093504 
L 34.395673 43.147219 
L 35.166538 42.091928 
L 35.607032 41.844999 
L 35.937402 41.893267 
L 36.377897 42.215826 
L 37.699379 43.456483 
L 38.690491 44.032609 
L 39.791727 44.44218 
L 40.122098 44.407529 
L 40.562592 44.071791 
L 41.223333 43.157083 
L 41.994198 42.124823 
L 42.434692 41.881111 
L 42.765063 41.925475 
L 43.205557 42.242498 
L 44.52704 43.470562 
L 45.518152 44.041881 
L 46.619388 44.439039 
L 46.949758 44.380649 
L 47.390253 44.023521 
L 48.050994 43.101423 
L 48.821859 42.105524 
L 49.262353 41.893167 
L 49.592724 41.958827 
L 50.033218 42.293567 
L 51.244577 43.42343 
L 52.235689 44.01084 
L 53.336925 44.428527 
L 53.667295 44.405475 
L 54.10779 44.088334 
L 54.768531 43.194513 
L 55.539396 42.162709 
L 55.97989 41.904555 
L 56.310261 41.937636 
L 56.750755 42.24415 
L 58.072238 43.469678 
L 59.06335 44.041299 
L 60.164585 44.441742 
L 60.494956 44.379207 
L 60.93545 44.017501 
L 61.596192 43.092642 
L 62.367057 42.100154 
L 62.807551 41.893857 
L 63.137921 41.964444 
L 63.578416 42.306975 
L 64.679651 43.352764 
L 65.670763 43.9643 
L 66.882122 44.431163 
L 67.212493 44.400913 
L 67.652987 44.075729 
L 68.313729 43.175293 
L 69.084594 42.150338 
L 69.525088 41.902009 
L 69.855459 41.941861 
L 70.295953 42.253729 
L 71.617435 43.476548 
L 72.608547 44.045819 
L 73.709783 44.440113 
L 74.040154 44.374013 
L 74.480648 44.008068 
L 75.251513 42.914273 
L 75.912254 42.095206 
L 76.352748 41.894307 
L 76.683119 41.971713 
L 77.123613 42.320226 
L 78.224849 43.361245 
L 79.215961 43.969883 
L 80.42732 44.436241 
L 80.757691 44.396291 
L 81.198185 44.06054 
L 81.858926 43.152893 
L 82.629791 42.135669 
L 83.070286 41.89829 
L 83.400656 41.947101 
L 83.84115 42.267388 
L 85.05251 43.40768 
L 86.043622 44.000463 
L 87.144857 44.423158 
L 87.475228 44.413285 
L 87.915722 44.111982 
L 88.46634 43.395636 
L 89.457452 42.085511 
L 89.897946 41.894314 
L 90.228317 41.97894 
L 90.668811 42.334861 
L 91.770047 43.370595 
L 92.761159 43.976046 
L 93.972518 44.436505 
L 94.302889 44.391916 
L 94.743383 44.048553 
L 95.404124 43.13568 
L 96.174989 42.124201 
L 96.615483 41.895837 
L 96.945854 41.951428 
L 97.386348 42.279821 
L 98.487584 43.340734 
L 99.478696 43.956376 
L 100.690055 44.427309 
L 101.020426 44.40407 
L 101.240673 44.283066 
L 101.240673 44.283066 
" clip-path="url(#pc03c4476c6)" style="fill: none; stroke: #026b85; stroke-width: 0.75; stroke-linecap: square"/>
   </g>
   <g id="LineCollection_1">
    <path d="M 14.634 45.144 
L 14.634 37.240714 
" clip-path="url(#pc03c4476c6)" style="fill: none; stroke: #000000; stroke-width: 0.25"/>
   </g>
   <g id="patch_3">
    <path d="M 14.634 46.992 
L 105.3648 46.992 
" style="fill: none; stroke: #000000; stroke-width: 0.25; stroke-linejoin: miter; stroke-linecap: square"/>
   </g>
   <g id="legend_1">
    <g id="patch_4">
     <path d="M 110.2648 52.21225 
L 118.072 52.21225 
Q 197.87855 52.21225 197.87855 50.81225 
Q 197.87855 9.836 196.47855 9.836 
M 118.072 9.836 
L 110.2648 9.836 
Q 108.8648 9.836 108.8648 11.236 
L 108.8648 50.81225 
Q 108.8648 52.21225 110.2648 52.21225 
L 110.2648 52.21225 
" style="fill: none; opacity: 0.8"/>
    </g>
    <g id="line2d_11">
     <path d="M 111.6648 15.281781 
L 118.072 15.281781 
" style="fill: none; stroke: #51bbad; stroke-width: 0.75; stroke-linecap: square"/>
    </g>
    <g id="text_9">
     <text style="font-size: 7px; font-family: 'Arial'; text-anchor: start" x="131.2648" y="17.731781" transform="rotate(-0 131.2648 17.731781)">L DNg100 (10093)</text>
    </g>
    <g id="line2d_12">
     <path d="M 111.6648 25.350844 
L 118.072 25.350844 
" style="fill: none; stroke: #d84a2e; stroke-width: 0.75; stroke-linecap: square"/>
    </g>
    <g id="text_10">
     <text style="font-size: 7px; font-family: 'Arial'; text-anchor: start" x="131.2648" y="27.800844" transform="rotate(-0 131.2648 27.800844)">L IN17A001 (10707)</text>
    </g>
    <g id="line2d_13">
     <path d="M 111.6648 35.419906 
L 118.072 35.419906 
" style="fill: none; stroke: #ff9985; stroke-width: 0.75; stroke-linecap: square"/>
    </g>
    <g id="text_11">
     <text style="font-size: 7px; font-family: 'Arial'; text-anchor: start" x="131.2648" y="37.869906" transform="rotate(-0 131.2648 37.869906)">L INXXX466 (11751)</text>
    </g>
    <g id="line2d_14">
     <path d="M 111.6648 45.488969 
L 118.072 45.488969 
" style="fill: none; stroke: #026b85; stroke-width: 0.75; stroke-linecap: square"/>
    </g>
    <g id="text_12">
     <text style="font-size: 7px; font-family: 'Arial'; text-anchor: start" x="131.2648" y="47.938969" transform="rotate(-0 131.2648 47.938969)">L IN16B036 (13905)</text>
    </g>
   </g>
  </g>
 </g>
 <defs>
  <clipPath id="pc03c4476c6">
   <rect x="14.634" y="6.336" width="90.7308" height="40.656"/>
  </clipPath>
 </defs>
</svg>
