<?xml version="1.0" encoding="utf-8" standalone="no"?>
<!DOCTYPE svg PUBLIC "-//W3C//DTD SVG 1.1//EN"
  "http://www.w3.org/Graphics/SVG/1.1/DTD/svg11.dtd">
<svg xmlns:xlink="http://www.w3.org/1999/xlink" width="117.072pt" height="26.4pt" viewBox="0 0 117.072 26.4" xmlns="http://www.w3.org/2000/svg" version="1.1">
 <metadata>
  <rdf:RDF xmlns:dc="http://purl.org/dc/elements/1.1/" xmlns:cc="http://creativecommons.org/ns#" xmlns:rdf="http://www.w3.org/1999/02/22-rdf-syntax-ns#">
   <cc:Work>
    <dc:type rdf:resource="http://purl.org/dc/dcmitype/StillImage"/>
    <dc:date>2025-09-12T09:22:15.421679</dc:date>
    <dc:format>image/svg+xml</dc:format>
    <dc:creator>
     <cc:Agent>
      <dc:title>Matplotlib v3.10.3, https://matplotlib.org/</dc:title>
     </cc:Agent>
    </dc:creator>
   </cc:Work>
  </rdf:RDF>
 </metadata>
 <defs>
  <style type="text/css">*{stroke-linejoin: round; stroke-linecap: butt}</style>
 </defs>
 <g id="figure_1">
  <g id="patch_1">
   <path d="M 0 26.4 
L 117.072 26.4 
L 117.072 0 
L 0 0 
L 0 26.4 
z
" style="fill: none"/>
  </g>
  <g id="axes_1">
   <g id="patch_2">
    <path d="M 14.634 23.496 
L 105.3648 23.496 
L 105.3648 3.168 
L 14.634 3.168 
L 14.634 23.496 
z
" style="fill: none"/>
   </g>
   <g id="matplotlib.axis_1">
    <g id="xtick_1">
     <g id="line2d_1">
      <defs>
       <path id="m5daddaec1e" d="M 0 0 
L 0 1.7 
" style="stroke: #000000; stroke-width: 0.25"/>
      </defs>
      <g>
       <use xlink:href="#m5daddaec1e" x="18.758127" y="23.496" style="stroke: #000000; stroke-width: 0.25"/>
      </g>
     </g>
     <g id="text_1">
      <text style="font-size: 6px; font-family: 'Arial'; text-anchor: middle" x="18.758127" y="30.990688" transform="rotate(-0 18.758127 30.990688)">0.0</text>
     </g>
    </g>
    <g id="xtick_2">
     <g id="line2d_2">
      <g>
       <use xlink:href="#m5daddaec1e" x="46.178893" y="23.496" style="stroke: #000000; stroke-width: 0.25"/>
      </g>
     </g>
     <g id="text_2">
      <text style="font-size: 6px; font-family: 'Arial'; text-anchor: middle" x="46.178893" y="30.990688" transform="rotate(-0 46.178893 30.990688)">0.25</text>
     </g>
    </g>
    <g id="xtick_3">
     <g id="line2d_3">
      <g>
       <use xlink:href="#m5daddaec1e" x="73.599659" y="23.496" style="stroke: #000000; stroke-width: 0.25"/>
      </g>
     </g>
     <g id="text_3">
      <text style="font-size: 6px; font-family: 'Arial'; text-anchor: middle" x="73.599659" y="30.990688" transform="rotate(-0 73.599659 30.990688)">0.5</text>
     </g>
    </g>
    <g id="xtick_4">
     <g id="line2d_4">
      <g>
       <use xlink:href="#m5daddaec1e" x="101.020426" y="23.496" style="stroke: #000000; stroke-width: 0.25"/>
      </g>
     </g>
     <g id="text_4">
      <text style="font-size: 6px; font-family: 'Arial'; text-anchor: middle" x="101.020426" y="30.990688" transform="rotate(-0 101.020426 30.990688)">0.75</text>
     </g>
    </g>
    <g id="text_5">
     <text style="font-size: 8px; font-family: 'Arial'; text-anchor: middle" x="59.9994" y="39.506938" transform="rotate(-0 59.9994 39.506938)">time (s)</text>
    </g>
   </g>
   <g id="matplotlib.axis_2">
    <g id="ytick_1">
     <g id="line2d_5">
      <defs>
       <path id="m1d1b0abd60" d="M 0 0 
L -1.7 0 
" style="stroke: #000000; stroke-width: 0.25"/>
      </defs>
      <g>
       <use xlink:href="#m1d1b0abd60" x="14.634" y="22.572" style="stroke: #000000; stroke-width: 0.25"/>
      </g>
     </g>
     <g id="text_6">
      <text style="font-size: 6px; font-family: 'Arial'; text-anchor: end" x="11.434" y="24.719344" transform="rotate(-0 11.434 24.719344)">0</text>
     </g>
    </g>
    <g id="ytick_2">
     <g id="line2d_6">
      <g>
       <use xlink:href="#m1d1b0abd60" x="14.634" y="12.278974" style="stroke: #000000; stroke-width: 0.25"/>
      </g>
     </g>
     <g id="text_7">
      <text style="font-size: 6px; font-family: 'Arial'; text-anchor: end" x="11.434" y="14.426317" transform="rotate(-0 11.434 14.426317)">5</text>
     </g>
    </g>
    <g id="text_8">
     <text style="font-size: 8px; font-family: 'Arial'; text-anchor: middle" x="4.913687" y="13.332" transform="rotate(-90 4.913687 13.332)">firing rate (Hz)</text>
    </g>
   </g>
   <g id="line2d_7">
    <path d="M 18.758127 13.308276 
L 25.806035 13.229384 
L 26.136406 12.702477 
L 26.5769 11.310641 
L 27.347765 7.774822 
L 28.008506 5.104468 
L 28.449 4.212614 
L 28.669248 4.092 
L 28.889495 4.169464 
L 29.219865 4.573094 
L 29.770483 5.774009 
L 31.091966 8.998038 
L 31.862831 10.221837 
L 32.633696 11.094016 
L 32.964066 11.163789 
L 33.184313 10.991613 
L 33.514684 10.411274 
L 33.955178 9.124973 
L 35.386785 4.433629 
L 35.717155 4.107792 
L 35.937402 4.135123 
L 36.267773 4.481893 
L 36.708267 5.352702 
L 38.580368 9.662359 
L 39.351233 10.693601 
L 39.681603 10.901874 
L 39.901851 10.83506 
L 40.232221 10.416795 
L 40.672715 9.322743 
L 42.324569 4.282898 
L 42.65494 4.110046 
L 42.875187 4.223211 
L 43.205557 4.667127 
L 43.756175 5.908919 
L 44.967534 8.884249 
L 45.738399 10.140351 
L 46.289017 10.779168 
L 46.619388 10.826095 
L 46.949758 10.495603 
L 47.390253 9.505267 
L 48.161117 6.84832 
L 48.821859 4.810008 
L 49.152229 4.267203 
L 49.4826 4.14475 
L 49.812971 4.412185 
L 50.253465 5.210919 
L 52.345813 9.885858 
L 53.006554 10.711217 
L 53.336925 10.829868 
L 53.557172 10.698778 
L 53.887542 10.190033 
L 54.328037 9.007016 
L 55.759643 4.497248 
L 56.090014 4.155636 
L 56.310261 4.167153 
L 56.640631 4.495371 
L 57.081126 5.347955 
L 58.953226 9.649768 
L 59.724091 10.68178 
L 60.054462 10.849757 
L 60.274709 10.751124 
L 60.60508 10.289524 
L 61.045574 9.154857 
L 62.587304 4.393177 
L 62.917674 4.139059 
L 63.137921 4.202662 
L 63.468292 4.589801 
L 63.908786 5.495001 
L 65.56064 9.386087 
L 66.331505 10.502147 
L 66.771999 10.840213 
L 66.992246 10.78319 
L 67.322617 10.382383 
L 67.763111 9.31517 
L 69.414964 4.321848 
L 69.745335 4.139811 
L 69.965582 4.247602 
L 70.295953 4.685171 
L 70.846571 5.918389 
L 72.05793 8.887374 
L 72.828795 10.141668 
L 73.379412 10.783457 
L 73.599659 10.846333 
L 73.819907 10.741367 
L 74.150277 10.271846 
L 74.590772 9.128633 
L 76.132501 4.384366 
L 76.462872 4.141474 
L 76.683119 4.215831 
L 77.01349 4.615808 
L 77.564108 5.807973 
L 78.88559 9.017578 
L 79.656455 10.235993 
L 80.207073 10.819171 
L 80.42732 10.834119 
L 80.647567 10.680286 
L 80.977938 10.139715 
L 81.418432 8.925359 
L 82.850038 4.451771 
L 83.180409 4.145616 
L 83.400656 4.178936 
L 83.731027 4.528177 
L 84.171521 5.401013 
L 85.933498 9.500351 
L 86.814487 10.710536 
L 87.144857 10.853133 
L 87.365104 10.737498 
L 87.695475 10.25261 
L 88.135969 9.092672 
L 89.677699 4.37143 
L 90.00807 4.145235 
L 90.228317 4.228971 
L 90.558688 4.64025 
L 91.109305 5.846437 
L 92.320664 8.832201 
L 93.091529 10.10308 
L 93.752271 10.834723 
L 93.972518 10.840506 
L 94.302889 10.533182 
L 94.633259 9.863683 
L 95.183877 8.136531 
L 96.174989 4.859085 
L 96.50536 4.290289 
L 96.83573 4.143292 
L 97.166101 4.392207 
L 97.606595 5.174149 
L 98.37746 7.218217 
L 99.148325 8.94735 
L 99.91919 10.185542 
L 100.469808 10.798366 
L 100.690055 10.832664 
L 100.910302 10.69969 
L 101.240673 10.190059 
L 101.240673 10.190059 
" clip-path="url(#pf601bbb87d)" style="fill: none; stroke: #b33b24; stroke-width: 0.75; stroke-linecap: square"/>
   </g>
   <g id="line2d_8">
    <path d="M 18.758127 22.572 
L 25.255417 22.490892 
L 25.585788 22.162284 
L 26.026282 21.33725 
L 26.5769 19.777459 
L 28.008506 15.368344 
L 28.449 14.765341 
L 28.779371 14.653359 
L 29.109742 14.771793 
L 29.66036 15.290324 
L 30.651472 16.66707 
L 31.862831 18.268908 
L 32.303325 18.52911 
L 32.633696 18.524569 
L 32.964066 18.329522 
L 33.404561 17.765472 
L 34.065302 16.40194 
L 35.056414 14.268679 
L 35.496908 13.79591 
L 35.827279 13.736649 
L 36.15765 13.908146 
L 36.708267 14.523924 
L 37.809503 16.249112 
L 38.690491 17.528887 
L 39.130986 17.876933 
L 39.461356 17.940485 
L 39.791727 17.813539 
L 40.232221 17.341759 
L 40.782839 16.342723 
L 41.994198 13.969602 
L 42.434692 13.639284 
L 42.765063 13.677052 
L 43.205557 14.03424 
L 43.866299 14.942228 
L 45.628276 17.581193 
L 46.06877 17.843962 
L 46.399141 17.832513 
L 46.729511 17.626883 
L 47.170005 17.059112 
L 47.830747 15.751611 
L 48.711735 14.059721 
L 49.152229 13.666435 
L 49.4826 13.654109 
L 49.812971 13.857302 
L 50.363589 14.508791 
L 51.685071 16.619232 
L 52.345813 17.504064 
L 52.786307 17.807369 
L 53.116678 17.831296 
L 53.447048 17.663529 
L 53.887542 17.14178 
L 54.548284 15.874068 
L 55.429272 14.142286 
L 55.869767 13.693348 
L 56.200137 13.638196 
L 56.530508 13.812188 
L 57.081126 14.435523 
L 58.182361 16.177306 
L 59.06335 17.452696 
L 59.503844 17.786558 
L 59.834215 17.836771 
L 60.164585 17.695691 
L 60.60508 17.206838 
L 61.155697 16.200856 
L 62.256933 14.044388 
L 62.697427 13.6588 
L 63.027798 13.653106 
L 63.468292 13.969707 
L 64.129033 14.848455 
L 66.001134 17.617942 
L 66.441628 17.839893 
L 66.771999 17.793889 
L 67.10237 17.553 
L 67.542864 16.94347 
L 68.313729 15.369482 
L 69.084594 13.976701 
L 69.525088 13.643933 
L 69.855459 13.678363 
L 70.295953 14.031944 
L 70.956694 14.936914 
L 72.718671 17.568707 
L 73.159165 17.824524 
L 73.489536 17.807259 
L 73.819907 17.595827 
L 74.260401 17.021631 
L 74.921142 15.711369 
L 75.802131 14.035956 
L 76.242625 13.657114 
L 76.572996 13.658621 
L 77.01349 13.984877 
L 77.674231 14.869782 
L 79.546332 17.626726 
L 79.986826 17.837575 
L 80.317197 17.783232 
L 80.647567 17.533933 
L 81.088061 16.914103 
L 81.858926 15.334519 
L 82.519668 14.099187 
L 82.960162 13.67591 
L 83.290533 13.641608 
L 83.620903 13.829106 
L 84.171521 14.466065 
L 85.38288 16.395792 
L 86.153745 17.478079 
L 86.594239 17.797631 
L 86.92461 17.835174 
L 87.254981 17.680739 
L 87.695475 17.176363 
L 88.356216 15.922641 
L 89.347328 14.020669 
L 89.787823 13.653843 
L 90.118193 13.665083 
L 90.558688 13.999607 
L 91.219429 14.891516 
L 93.091529 17.640523 
L 93.532024 17.844414 
L 93.862394 17.783225 
L 94.192765 17.526796 
L 94.633259 16.898632 
L 95.514248 15.078135 
L 96.174989 13.941624 
L 96.615483 13.634681 
L 96.945854 13.688509 
L 97.386348 14.058895 
L 98.04709 14.975529 
L 99.809066 17.583786 
L 100.249561 17.816215 
L 100.579931 17.778841 
L 100.910302 17.547378 
L 101.240673 17.127002 
L 101.240673 17.127002 
" clip-path="url(#pf601bbb87d)" style="fill: none; stroke: #b33b24; stroke-width: 0.75; stroke-linecap: square"/>
   </g>
   <g id="LineCollection_1">
    <path d="M 14.634 22.572 
L 14.634 12.278974 
" clip-path="url(#pf601bbb87d)" style="fill: none; stroke: #000000; stroke-width: 1.5"/>
   </g>
   <g id="patch_3">
    <path d="M 14.634 23.496 
L 105.3648 23.496 
" style="fill: none; stroke: #000000; stroke-width: 0.25; stroke-linejoin: miter; stroke-linecap: square"/>
   </g>
   <g id="legend_1">
    <g id="patch_4">
     <path d="M 269.220581 28.906125 
Q 270.620581 28.906125 270.620581 27.506125 
Q 270.620581 6.668 269.220581 6.668 
M 118.072 6.668 
L 110.2648 6.668 
Q 108.8648 6.668 108.8648 8.068 
L 108.8648 27.4 
Q 108.8648 28.906125 110.2648 28.906125 
" style="fill: none; opacity: 0.8"/>
    </g>
    <g id="line2d_9">
     <path d="M 111.6648 12.113781 
L 118.072 12.113781 
" style="fill: none; stroke: #b33b24; stroke-width: 0.75; stroke-linecap: square"/>
    </g>
    <g id="text_9">
     <text style="font-size: 7px; font-family: 'Arial'; text-anchor: start" x="131.2648" y="14.563781" transform="rotate(-0 131.2648 14.563781)">L Tergopleural/Pleural promotor MN (19319)</text>
    </g>
    <g id="line2d_10">
     <path d="M 111.6648 22.182844 
L 118.072 22.182844 
" style="fill: none; stroke: #b33b24; stroke-width: 0.75; stroke-linecap: square"/>
    </g>
    <g id="text_10">
     <text style="font-size: 7px; font-family: 'Arial'; text-anchor: start" x="131.2648" y="24.632844" transform="rotate(-0 131.2648 24.632844)">L Tergopleural/Pleural promotor MN (12686)</text>
    </g>
   </g>
  </g>
 </g>
 <defs>
  <clipPath id="pf601bbb87d">
   <rect x="14.634" y="3.168" width="90.7308" height="20.328"/>
  </clipPath>
 </defs>
</svg>
