<?xml version="1.0" encoding="utf-8" standalone="no"?>
<!DOCTYPE svg PUBLIC "-//W3C//DTD SVG 1.1//EN"
  "http://www.w3.org/Graphics/SVG/1.1/DTD/svg11.dtd">
<svg xmlns:xlink="http://www.w3.org/1999/xlink" width="108pt" height="108pt" viewBox="0 0 108 108" xmlns="http://www.w3.org/2000/svg" version="1.1">
 <metadata>
  <rdf:RDF xmlns:dc="http://purl.org/dc/elements/1.1/" xmlns:cc="http://creativecommons.org/ns#" xmlns:rdf="http://www.w3.org/1999/02/22-rdf-syntax-ns#">
   <cc:Work>
    <dc:type rdf:resource="http://purl.org/dc/dcmitype/StillImage"/>
    <dc:date>2026-03-31T01:02:56.424055</dc:date>
    <dc:format>image/svg+xml</dc:format>
    <dc:creator>
     <cc:Agent>
      <dc:title>Matplotlib v3.10.7, https://matplotlib.org/</dc:title>
     </cc:Agent>
    </dc:creator>
   </cc:Work>
  </rdf:RDF>
 </metadata>
 <defs>
  <style type="text/css">*{stroke-linejoin: round; stroke-linecap: butt}</style>
 </defs>
 <g id="figure_1">
  <g id="patch_1">
   <path d="M 0 108 
L 108 108 
L 108 0 
L 0 0 
L 0 108 
z
" style="fill: none"/>
  </g>
  <g id="axes_1">
   <g id="patch_2">
    <path d="M 13.5 96.12 
L 97.2 96.12 
L 97.2 12.96 
L 13.5 12.96 
L 13.5 96.12 
z
" style="fill: none"/>
   </g>
   <g id="QuadMesh_1">
    <path d="M 13.5 12.96 
L 30.24 12.96 
L 30.24 29.592 
L 13.5 29.592 
L 13.5 12.96 
" clip-path="url(#pd9dfa15fea)" style="fill: #0b0405"/>
    <path d="M 30.24 12.96 
L 46.98 12.96 
L 46.98 29.592 
L 30.24 29.592 
L 30.24 12.96 
" clip-path="url(#pd9dfa15fea)" style="fill: #0b0405"/>
    <path d="M 46.98 12.96 
L 63.72 12.96 
L 63.72 29.592 
L 46.98 29.592 
L 46.98 12.96 
" clip-path="url(#pd9dfa15fea)" style="fill: #0d0406"/>
    <path d="M 63.72 12.96 
L 80.46 12.96 
L 80.46 29.592 
L 63.72 29.592 
L 63.72 12.96 
" clip-path="url(#pd9dfa15fea)" style="fill: #342548"/>
    <path d="M 80.46 12.96 
L 97.2 12.96 
L 97.2 29.592 
L 80.46 29.592 
L 80.46 12.96 
" clip-path="url(#pd9dfa15fea)" style="fill: #bbe7c8"/>
    <path d="M 13.5 29.592 
L 30.24 29.592 
L 30.24 46.224 
L 13.5 46.224 
L 13.5 29.592 
" clip-path="url(#pd9dfa15fea)" style="fill: #0d0406"/>
    <path d="M 30.24 29.592 
L 46.98 29.592 
L 46.98 46.224 
L 30.24 46.224 
L 30.24 29.592 
" clip-path="url(#pd9dfa15fea)" style="fill: #0e0508"/>
    <path d="M 46.98 29.592 
L 63.72 29.592 
L 63.72 46.224 
L 46.98 46.224 
L 46.98 29.592 
" clip-path="url(#pd9dfa15fea)" style="fill: #291930"/>
    <path d="M 63.72 29.592 
L 80.46 29.592 
L 80.46 46.224 
L 63.72 46.224 
L 63.72 29.592 
" clip-path="url(#pd9dfa15fea)" style="fill: #9edfb8"/>
    <path d="M 80.46 29.592 
L 97.2 29.592 
L 97.2 46.224 
L 80.46 46.224 
L 80.46 29.592 
" clip-path="url(#pd9dfa15fea)" style="fill: #c8ecd2"/>
    <path d="M 13.5 46.224 
L 30.24 46.224 
L 30.24 62.856 
L 13.5 62.856 
L 13.5 46.224 
" clip-path="url(#pd9dfa15fea)" style="fill: #12080d"/>
    <path d="M 30.24 46.224 
L 46.98 46.224 
L 46.98 62.856 
L 30.24 62.856 
L 30.24 46.224 
" clip-path="url(#pd9dfa15fea)" style="fill: #357aa2"/>
    <path d="M 46.98 46.224 
L 63.72 46.224 
L 63.72 62.856 
L 46.98 62.856 
L 46.98 46.224 
" clip-path="url(#pd9dfa15fea)" style="fill: #60ceac"/>
    <path d="M 63.72 46.224 
L 80.46 46.224 
L 80.46 62.856 
L 63.72 62.856 
L 63.72 46.224 
" clip-path="url(#pd9dfa15fea)" style="fill: #c6ebd1"/>
    <path d="M 80.46 46.224 
L 97.2 46.224 
L 97.2 62.856 
L 80.46 62.856 
L 80.46 46.224 
" clip-path="url(#pd9dfa15fea)" style="fill: #ccedd6"/>
    <path d="M 13.5 62.856 
L 30.24 62.856 
L 30.24 79.488 
L 13.5 79.488 
L 13.5 62.856 
" clip-path="url(#pd9dfa15fea)" style="fill: #3493a8"/>
    <path d="M 30.24 62.856 
L 46.98 62.856 
L 46.98 79.488 
L 30.24 79.488 
L 30.24 62.856 
" clip-path="url(#pd9dfa15fea)" style="fill: #5ecdad"/>
    <path d="M 46.98 62.856 
L 63.72 62.856 
L 63.72 79.488 
L 46.98 79.488 
L 46.98 62.856 
" clip-path="url(#pd9dfa15fea)" style="fill: #aee3c0"/>
    <path d="M 63.72 62.856 
L 80.46 62.856 
L 80.46 79.488 
L 63.72 79.488 
L 63.72 62.856 
" clip-path="url(#pd9dfa15fea)" style="fill: #caedd4"/>
    <path d="M 80.46 62.856 
L 97.2 62.856 
L 97.2 79.488 
L 80.46 79.488 
L 80.46 62.856 
" clip-path="url(#pd9dfa15fea)" style="fill: #dcf4e3"/>
    <path d="M 13.5 79.488 
L 30.24 79.488 
L 30.24 96.12 
L 13.5 96.12 
L 13.5 79.488 
" clip-path="url(#pd9dfa15fea)" style="fill: #35a1ab"/>
    <path d="M 30.24 79.488 
L 46.98 79.488 
L 46.98 96.12 
L 30.24 96.12 
L 30.24 79.488 
" clip-path="url(#pd9dfa15fea)" style="fill: #3bafad"/>
    <path d="M 46.98 79.488 
L 63.72 79.488 
L 63.72 96.12 
L 46.98 96.12 
L 46.98 79.488 
" clip-path="url(#pd9dfa15fea)" style="fill: #8bdab2"/>
    <path d="M 63.72 79.488 
L 80.46 79.488 
L 80.46 96.12 
L 63.72 96.12 
L 63.72 79.488 
" clip-path="url(#pd9dfa15fea)" style="fill: #bbe7c8"/>
    <path d="M 80.46 79.488 
L 97.2 79.488 
L 97.2 96.12 
L 80.46 96.12 
L 80.46 79.488 
" clip-path="url(#pd9dfa15fea)" style="fill: #def5e5"/>
   </g>
   <g id="matplotlib.axis_1">
    <g id="xtick_1">
     <g id="line2d_1">
      <defs>
       <path id="m5f0e62ae83" d="M 0 0 
L 0 1.7 
" style="stroke: #000000; stroke-width: 0.25"/>
      </defs>
      <g>
       <use xlink:href="#m5f0e62ae83" x="21.87" y="96.12" style="stroke: #000000; stroke-width: 0.25"/>
      </g>
     </g>
     <g id="text_1">
      <text style="font-size: 6px; font-family: 'Arial'" transform="translate(14.699899 112.214152) rotate(-30)">0.0133</text>
     </g>
    </g>
    <g id="xtick_2">
     <g id="line2d_2">
      <g>
       <use xlink:href="#m5f0e62ae83" x="38.61" y="96.12" style="stroke: #000000; stroke-width: 0.25"/>
      </g>
     </g>
     <g id="text_2">
      <text style="font-size: 6px; font-family: 'Arial'" transform="translate(31.439899 112.214152) rotate(-30)">0.0200</text>
     </g>
    </g>
    <g id="xtick_3">
     <g id="line2d_3">
      <g>
       <use xlink:href="#m5f0e62ae83" x="55.35" y="96.12" style="stroke: #000000; stroke-width: 0.25"/>
      </g>
     </g>
     <g id="text_3">
      <text style="font-size: 6px; font-family: 'Arial'" transform="translate(48.179899 112.214152) rotate(-30)">0.0300</text>
     </g>
    </g>
    <g id="xtick_4">
     <g id="line2d_4">
      <g>
       <use xlink:href="#m5f0e62ae83" x="72.09" y="96.12" style="stroke: #000000; stroke-width: 0.25"/>
      </g>
     </g>
     <g id="text_4">
      <text style="font-size: 6px; font-family: 'Arial'" transform="translate(64.919899 112.214152) rotate(-30)">0.0450</text>
     </g>
    </g>
    <g id="xtick_5">
     <g id="line2d_5">
      <g>
       <use xlink:href="#m5f0e62ae83" x="88.83" y="96.12" style="stroke: #000000; stroke-width: 0.25"/>
      </g>
     </g>
     <g id="text_5">
      <text style="font-size: 6px; font-family: 'Arial'" transform="translate(81.659899 112.214152) rotate(-30)">0.0675</text>
     </g>
    </g>
    <g id="text_6">
     <!-- $b_\text{GABA}$ -->
     <g transform="translate(44.75 120.676888)">
      <text>
       <tspan x="0" y="-0.921875" style="font-style: oblique; font-size: 8px; font-family: 'DejaVu Sans'">b</tspan>
       <tspan x="5.078125" y="0.390625" style="font-size: 5.6px; font-family: 'DejaVu Sans'">G</tspan>
       <tspan x="9.417578" y="0.390625" style="font-size: 5.6px; font-family: 'DejaVu Sans'">A</tspan>
       <tspan x="13.248437" y="0.390625" style="font-size: 5.6px; font-family: 'DejaVu Sans'">B</tspan>
       <tspan x="17.090234" y="0.390625" style="font-size: 5.6px; font-family: 'DejaVu Sans'">A</tspan>
      </text>
     </g>
    </g>
   </g>
   <g id="matplotlib.axis_2">
    <g id="ytick_1">
     <g id="line2d_6">
      <defs>
       <path id="m42b60554f7" d="M 0 0 
L -1.7 0 
" style="stroke: #000000; stroke-width: 0.25"/>
      </defs>
      <g>
       <use xlink:href="#m42b60554f7" x="13.5" y="21.276" style="stroke: #000000; stroke-width: 0.25"/>
      </g>
     </g>
     <g id="text_7">
      <text style="font-size: 6px; font-family: 'Arial'; text-anchor: end" x="10.3" y="22.827094" transform="rotate(-0 10.3 22.827094)">0.0133</text>
     </g>
    </g>
    <g id="ytick_2">
     <g id="line2d_7">
      <g>
       <use xlink:href="#m42b60554f7" x="13.5" y="37.908" style="stroke: #000000; stroke-width: 0.25"/>
      </g>
     </g>
     <g id="text_8">
      <text style="font-size: 6px; font-family: 'Arial'; text-anchor: end" x="10.3" y="39.459094" transform="rotate(-0 10.3 39.459094)">0.0200</text>
     </g>
    </g>
    <g id="ytick_3">
     <g id="line2d_8">
      <g>
       <use xlink:href="#m42b60554f7" x="13.5" y="54.54" style="stroke: #000000; stroke-width: 0.25"/>
      </g>
     </g>
     <g id="text_9">
      <text style="font-size: 6px; font-family: 'Arial'; text-anchor: end" x="10.3" y="56.091094" transform="rotate(-0 10.3 56.091094)">0.0300</text>
     </g>
    </g>
    <g id="ytick_4">
     <g id="line2d_9">
      <g>
       <use xlink:href="#m42b60554f7" x="13.5" y="71.172" style="stroke: #000000; stroke-width: 0.25"/>
      </g>
     </g>
     <g id="text_10">
      <text style="font-size: 6px; font-family: 'Arial'; text-anchor: end" x="10.3" y="72.723094" transform="rotate(-0 10.3 72.723094)">0.0450</text>
     </g>
    </g>
    <g id="ytick_5">
     <g id="line2d_10">
      <g>
       <use xlink:href="#m42b60554f7" x="13.5" y="87.804" style="stroke: #000000; stroke-width: 0.25"/>
      </g>
     </g>
     <g id="text_11">
      <text style="font-size: 6px; font-family: 'Arial'; text-anchor: end" x="10.3" y="89.355094" transform="rotate(-0 10.3 89.355094)">0.0675</text>
     </g>
    </g>
    <g id="text_12">
     <!-- $b_\text{Glu}$ -->
     <g transform="translate(-11.139687 61.94) rotate(-90)">
      <text>
       <tspan x="0" y="-0.921875" style="font-style: oblique; font-size: 8px; font-family: 'DejaVu Sans'">b</tspan>
       <tspan x="5.078125" y="0.390625" style="font-size: 5.6px; font-family: 'DejaVu Sans'">G</tspan>
       <tspan x="9.417578" y="0.390625" style="font-size: 5.6px; font-family: 'DejaVu Sans'">l</tspan>
       <tspan x="10.973438" y="0.390625" style="font-size: 5.6px; font-family: 'DejaVu Sans'">u</tspan>
      </text>
     </g>
    </g>
   </g>
   <g id="text_13">
    <text style="font-size: 5px; font-family: 'Arial'; text-anchor: middle; fill: #ffffff" x="21.87" y="22.568578" transform="rotate(-0 21.87 22.568578)">0.00</text>
   </g>
   <g id="text_14">
    <text style="font-size: 5px; font-family: 'Arial'; text-anchor: middle; fill: #ffffff" x="38.61" y="22.568578" transform="rotate(-0 38.61 22.568578)">0.00</text>
   </g>
   <g id="text_15">
    <text style="font-size: 5px; font-family: 'Arial'; text-anchor: middle; fill: #ffffff" x="55.35" y="22.568578" transform="rotate(-0 55.35 22.568578)">0.01</text>
   </g>
   <g id="text_16">
    <text style="font-size: 5px; font-family: 'Arial'; text-anchor: middle; fill: #ffffff" x="72.09" y="22.568578" transform="rotate(-0 72.09 22.568578)">0.18</text>
   </g>
   <g id="text_17">
    <text style="font-size: 5px; font-family: 'Arial'; text-anchor: middle; fill: #262626" x="88.83" y="22.568578" transform="rotate(-0 88.83 22.568578)">0.93</text>
   </g>
   <g id="text_18">
    <text style="font-size: 5px; font-family: 'Arial'; text-anchor: middle; fill: #ffffff" x="21.87" y="39.200578" transform="rotate(-0 21.87 39.200578)">0.01</text>
   </g>
   <g id="text_19">
    <text style="font-size: 5px; font-family: 'Arial'; text-anchor: middle; fill: #ffffff" x="38.61" y="39.200578" transform="rotate(-0 38.61 39.200578)">0.01</text>
   </g>
   <g id="text_20">
    <text style="font-size: 5px; font-family: 'Arial'; text-anchor: middle; fill: #ffffff" x="55.35" y="39.200578" transform="rotate(-0 55.35 39.200578)">0.11</text>
   </g>
   <g id="text_21">
    <text style="font-size: 5px; font-family: 'Arial'; text-anchor: middle; fill: #262626" x="72.09" y="39.200578" transform="rotate(-0 72.09 39.200578)">0.88</text>
   </g>
   <g id="text_22">
    <text style="font-size: 5px; font-family: 'Arial'; text-anchor: middle; fill: #262626" x="88.83" y="39.200578" transform="rotate(-0 88.83 39.200578)">0.96</text>
   </g>
   <g id="text_23">
    <text style="font-size: 5px; font-family: 'Arial'; text-anchor: middle; fill: #ffffff" x="21.87" y="55.832578" transform="rotate(-0 21.87 55.832578)">0.03</text>
   </g>
   <g id="text_24">
    <text style="font-size: 5px; font-family: 'Arial'; text-anchor: middle; fill: #ffffff" x="38.61" y="55.832578" transform="rotate(-0 38.61 55.832578)">0.50</text>
   </g>
   <g id="text_25">
    <text style="font-size: 5px; font-family: 'Arial'; text-anchor: middle; fill: #262626" x="55.35" y="55.832578" transform="rotate(-0 55.35 55.832578)">0.80</text>
   </g>
   <g id="text_26">
    <text style="font-size: 5px; font-family: 'Arial'; text-anchor: middle; fill: #262626" x="72.09" y="55.832578" transform="rotate(-0 72.09 55.832578)">0.95</text>
   </g>
   <g id="text_27">
    <text style="font-size: 5px; font-family: 'Arial'; text-anchor: middle; fill: #262626" x="88.83" y="55.832578" transform="rotate(-0 88.83 55.832578)">0.96</text>
   </g>
   <g id="text_28">
    <text style="font-size: 5px; font-family: 'Arial'; text-anchor: middle; fill: #ffffff" x="21.87" y="72.464578" transform="rotate(-0 21.87 72.464578)">0.59</text>
   </g>
   <g id="text_29">
    <text style="font-size: 5px; font-family: 'Arial'; text-anchor: middle; fill: #262626" x="38.61" y="72.464578" transform="rotate(-0 38.61 72.464578)">0.80</text>
   </g>
   <g id="text_30">
    <text style="font-size: 5px; font-family: 'Arial'; text-anchor: middle; fill: #262626" x="55.35" y="72.464578" transform="rotate(-0 55.35 72.464578)">0.91</text>
   </g>
   <g id="text_31">
    <text style="font-size: 5px; font-family: 'Arial'; text-anchor: middle; fill: #262626" x="72.09" y="72.464578" transform="rotate(-0 72.09 72.464578)">0.96</text>
   </g>
   <g id="text_32">
    <text style="font-size: 5px; font-family: 'Arial'; text-anchor: middle; fill: #262626" x="88.83" y="72.464578" transform="rotate(-0 88.83 72.464578)">0.99</text>
   </g>
   <g id="text_33">
    <text style="font-size: 5px; font-family: 'Arial'; text-anchor: middle; fill: #ffffff" x="21.87" y="89.096578" transform="rotate(-0 21.87 89.096578)">0.63</text>
   </g>
   <g id="text_34">
    <text style="font-size: 5px; font-family: 'Arial'; text-anchor: middle; fill: #ffffff" x="38.61" y="89.096578" transform="rotate(-0 38.61 89.096578)">0.69</text>
   </g>
   <g id="text_35">
    <text style="font-size: 5px; font-family: 'Arial'; text-anchor: middle; fill: #262626" x="55.35" y="89.096578" transform="rotate(-0 55.35 89.096578)">0.86</text>
   </g>
   <g id="text_36">
    <text style="font-size: 5px; font-family: 'Arial'; text-anchor: middle; fill: #262626" x="72.09" y="89.096578" transform="rotate(-0 72.09 89.096578)">0.93</text>
   </g>
   <g id="text_37">
    <text style="font-size: 5px; font-family: 'Arial'; text-anchor: middle; fill: #262626" x="88.83" y="89.096578" transform="rotate(-0 88.83 89.096578)">1.00</text>
   </g>
   <g id="text_38">
    <!-- $b_\text{ACh}$ = 0.0450 -->
    <g transform="translate(23.95 6.96)">
     <text>
      <tspan x="0" y="-0.40625" style="font-style: oblique; font-size: 10px; font-family: 'DejaVu Sans'">b</tspan>
      <tspan x="6.347656" y="1.234375" style="font-size: 7px; font-family: 'DejaVu Sans'">A</tspan>
      <tspan x="11.13623" y="1.234375" style="font-size: 7px; font-family: 'DejaVu Sans'">C</tspan>
      <tspan x="16.023926" y="1.234375" style="font-size: 7px; font-family: 'DejaVu Sans'">h</tspan>
      <tspan x="20.733887" y="-0.40625" style="font-size: 10px; font-family: 'Arial'"> </tspan>
      <tspan x="23.512207" y="-0.40625" style="font-size: 10px; font-family: 'Arial'">=</tspan>
      <tspan x="29.352051" y="-0.40625" style="font-size: 10px; font-family: 'Arial'"> </tspan>
      <tspan x="32.130371" y="-0.40625" style="font-size: 10px; font-family: 'Arial'">0</tspan>
      <tspan x="37.691895" y="-0.40625" style="font-size: 10px; font-family: 'Arial'">.</tspan>
      <tspan x="40.470215" y="-0.40625" style="font-size: 10px; font-family: 'Arial'">0</tspan>
      <tspan x="46.031738" y="-0.40625" style="font-size: 10px; font-family: 'Arial'">4</tspan>
      <tspan x="51.593262" y="-0.40625" style="font-size: 10px; font-family: 'Arial'">5</tspan>
      <tspan x="57.154785" y="-0.40625" style="font-size: 10px; font-family: 'Arial'">0</tspan>
     </text>
    </g>
   </g>
  </g>
 </g>
 <defs>
  <clipPath id="pd9dfa15fea">
   <rect x="13.5" y="12.96" width="83.7" height="83.16"/>
  </clipPath>
 </defs>
</svg>
