<?xml version="1.0" encoding="utf-8" standalone="no"?>
<!DOCTYPE svg PUBLIC "-//W3C//DTD SVG 1.1//EN"
  "http://www.w3.org/Graphics/SVG/1.1/DTD/svg11.dtd">
<svg xmlns:xlink="http://www.w3.org/1999/xlink" width="50.4pt" height="50.4pt" viewBox="0 0 50.4 50.4" xmlns="http://www.w3.org/2000/svg" version="1.1">
 <metadata>
  <rdf:RDF xmlns:dc="http://purl.org/dc/elements/1.1/" xmlns:cc="http://creativecommons.org/ns#" xmlns:rdf="http://www.w3.org/1999/02/22-rdf-syntax-ns#">
   <cc:Work>
    <dc:type rdf:resource="http://purl.org/dc/dcmitype/StillImage"/>
    <dc:date>2025-09-10T16:16:48.081833</dc:date>
    <dc:format>image/svg+xml</dc:format>
    <dc:creator>
     <cc:Agent>
      <dc:title>Matplotlib v3.10.3, https://matplotlib.org/</dc:title>
     </cc:Agent>
    </dc:creator>
   </cc:Work>
  </rdf:RDF>
 </metadata>
 <defs>
  <style type="text/css">*{stroke-linejoin: round; stroke-linecap: butt}</style>
 </defs>
 <g id="figure_1">
  <g id="patch_1">
   <path d="M 0 50.4 
L 50.4 50.4 
L 50.4 0 
L 0 0 
L 0 50.4 
z
" style="fill: none"/>
  </g>
  <g id="axes_1">
   <g id="patch_2">
    <path d="M 6.3 44.856 
L 45.36 44.856 
L 45.36 6.048 
L 6.3 6.048 
L 6.3 44.856 
z
" style="fill: none"/>
   </g>
   <g id="patch_3">
    <path d="M 6.3 44.856 
L 8.82 44.856 
L 8.82 44.780203 
L 6.3 44.780203 
z
" clip-path="url(#pacba323848)" style="fill: #d84a2e"/>
   </g>
   <g id="patch_4">
    <path d="M 8.82 44.856 
L 11.34 44.856 
L 11.34 44.856 
L 8.82 44.856 
z
" clip-path="url(#pacba323848)" style="fill: #d84a2e"/>
   </g>
   <g id="patch_5">
    <path d="M 11.34 44.856 
L 13.86 44.856 
L 13.86 44.856 
L 11.34 44.856 
z
" clip-path="url(#pacba323848)" style="fill: #d84a2e"/>
   </g>
   <g id="patch_6">
    <path d="M 13.86 44.856 
L 16.38 44.856 
L 16.38 44.856 
L 13.86 44.856 
z
" clip-path="url(#pacba323848)" style="fill: #d84a2e"/>
   </g>
   <g id="patch_7">
    <path d="M 16.38 44.856 
L 18.9 44.856 
L 18.9 11.467477 
L 16.38 11.467477 
z
" clip-path="url(#pacba323848)" style="fill: #d84a2e"/>
   </g>
   <g id="patch_8">
    <path d="M 18.9 44.856 
L 21.42 44.856 
L 21.42 41.824125 
L 18.9 41.824125 
z
" clip-path="url(#pacba323848)" style="fill: #d84a2e"/>
   </g>
   <g id="patch_9">
    <path d="M 21.42 44.856 
L 23.94 44.856 
L 23.94 44.249625 
L 21.42 44.249625 
z
" clip-path="url(#pacba323848)" style="fill: #d84a2e"/>
   </g>
   <g id="patch_10">
    <path d="M 23.94 44.856 
L 26.46 44.856 
L 26.46 44.022234 
L 23.94 44.022234 
z
" clip-path="url(#pacba323848)" style="fill: #d84a2e"/>
   </g>
   <g id="patch_11">
    <path d="M 26.46 44.856 
L 28.98 44.856 
L 28.98 44.666508 
L 26.46 44.666508 
z
" clip-path="url(#pacba323848)" style="fill: #d84a2e"/>
   </g>
   <g id="patch_12">
    <path d="M 28.98 44.856 
L 31.5 44.856 
L 31.5 44.590711 
L 28.98 44.590711 
z
" clip-path="url(#pacba323848)" style="fill: #d84a2e"/>
   </g>
   <g id="patch_13">
    <path d="M 31.5 44.856 
L 34.02 44.856 
L 34.02 44.628609 
L 31.5 44.628609 
z
" clip-path="url(#pacba323848)" style="fill: #d84a2e"/>
   </g>
   <g id="patch_14">
    <path d="M 34.02 44.856 
L 36.54 44.856 
L 36.54 44.780203 
L 34.02 44.780203 
z
" clip-path="url(#pacba323848)" style="fill: #d84a2e"/>
   </g>
   <g id="patch_15">
    <path d="M 36.54 44.856 
L 39.06 44.856 
L 39.06 44.818102 
L 36.54 44.818102 
z
" clip-path="url(#pacba323848)" style="fill: #d84a2e"/>
   </g>
   <g id="patch_16">
    <path d="M 39.06 44.856 
L 41.58 44.856 
L 41.58 44.818102 
L 39.06 44.818102 
z
" clip-path="url(#pacba323848)" style="fill: #d84a2e"/>
   </g>
   <g id="patch_17">
    <path d="M 41.58 44.856 
L 44.1 44.856 
L 44.1 44.856 
L 41.58 44.856 
z
" clip-path="url(#pacba323848)" style="fill: #d84a2e"/>
   </g>
   <g id="patch_18">
    <path d="M 44.1 44.856 
L 46.62 44.856 
L 46.62 44.856 
L 44.1 44.856 
z
" clip-path="url(#pacba323848)" style="fill: #d84a2e"/>
   </g>
   <g id="patch_19">
    <path d="M 46.62 44.856 
L 49.14 44.856 
L 49.14 44.856 
L 46.62 44.856 
z
" clip-path="url(#pacba323848)" style="fill: #d84a2e"/>
   </g>
   <g id="patch_20">
    <path d="M 49.14 44.856 
L 51.66 44.856 
L 51.66 44.856 
L 49.14 44.856 
z
" clip-path="url(#pacba323848)" style="fill: #d84a2e"/>
   </g>
   <g id="patch_21">
    <path d="M 51.66 44.856 
L 54.18 44.856 
L 54.18 44.818102 
L 51.66 44.818102 
z
" clip-path="url(#pacba323848)" style="fill: #d84a2e"/>
   </g>
   <g id="matplotlib.axis_1">
    <g id="xtick_1">
     <g id="line2d_1">
      <defs>
       <path id="m737e3d03e6" d="M 0 0 
L 0 1.7 
" style="stroke: #000000; stroke-width: 0.25"/>
      </defs>
      <g>
       <use xlink:href="#m737e3d03e6" x="7.56" y="45.856" style="stroke: #000000; stroke-width: 0.25"/>
      </g>
     </g>
     <g id="text_1">
      <text style="font-size: 6px; font-family: 'Arial'; text-anchor: middle" x="7.56" y="53.350687" transform="rotate(-0 7.56 53.350687)">0</text>
     </g>
    </g>
    <g id="xtick_2">
     <g id="line2d_2">
      <g>
       <use xlink:href="#m737e3d03e6" x="20.16" y="45.856" style="stroke: #000000; stroke-width: 0.25"/>
      </g>
     </g>
     <g id="text_2">
      <text style="font-size: 6px; font-family: 'Arial'; text-anchor: middle" x="20.16" y="53.350687" transform="rotate(-0 20.16 53.350687)">5</text>
     </g>
    </g>
    <g id="xtick_3">
     <g id="line2d_3">
      <g>
       <use xlink:href="#m737e3d03e6" x="32.76" y="45.856" style="stroke: #000000; stroke-width: 0.25"/>
      </g>
     </g>
     <g id="text_3">
      <text style="font-size: 6px; font-family: 'Arial'; text-anchor: middle" x="32.76" y="53.350687" transform="rotate(-0 32.76 53.350687)">10</text>
     </g>
    </g>
    <g id="xtick_4">
     <g id="line2d_4">
      <g>
       <use xlink:href="#m737e3d03e6" x="45.36" y="45.856" style="stroke: #000000; stroke-width: 0.25"/>
      </g>
     </g>
     <g id="text_4">
      <text style="font-size: 6px; font-family: 'Arial'; text-anchor: middle" x="45.36" y="53.350687" transform="rotate(-0 45.36 53.350687)">15</text>
     </g>
    </g>
    <g id="xtick_5">
     <g id="line2d_5">
      <defs>
       <path id="m08513e908b" d="M 0 0 
L 0 1 
" style="stroke: #000000; stroke-width: 0.18"/>
      </defs>
      <g>
       <use xlink:href="#m08513e908b" x="10.08" y="45.856" style="stroke: #000000; stroke-width: 0.18"/>
      </g>
     </g>
    </g>
    <g id="xtick_6">
     <g id="line2d_6">
      <g>
       <use xlink:href="#m08513e908b" x="12.6" y="45.856" style="stroke: #000000; stroke-width: 0.18"/>
      </g>
     </g>
    </g>
    <g id="xtick_7">
     <g id="line2d_7">
      <g>
       <use xlink:href="#m08513e908b" x="15.12" y="45.856" style="stroke: #000000; stroke-width: 0.18"/>
      </g>
     </g>
    </g>
    <g id="xtick_8">
     <g id="line2d_8">
      <g>
       <use xlink:href="#m08513e908b" x="17.64" y="45.856" style="stroke: #000000; stroke-width: 0.18"/>
      </g>
     </g>
    </g>
    <g id="xtick_9">
     <g id="line2d_9">
      <g>
       <use xlink:href="#m08513e908b" x="22.68" y="45.856" style="stroke: #000000; stroke-width: 0.18"/>
      </g>
     </g>
    </g>
    <g id="xtick_10">
     <g id="line2d_10">
      <g>
       <use xlink:href="#m08513e908b" x="25.2" y="45.856" style="stroke: #000000; stroke-width: 0.18"/>
      </g>
     </g>
    </g>
    <g id="xtick_11">
     <g id="line2d_11">
      <g>
       <use xlink:href="#m08513e908b" x="27.72" y="45.856" style="stroke: #000000; stroke-width: 0.18"/>
      </g>
     </g>
    </g>
    <g id="xtick_12">
     <g id="line2d_12">
      <g>
       <use xlink:href="#m08513e908b" x="30.24" y="45.856" style="stroke: #000000; stroke-width: 0.18"/>
      </g>
     </g>
    </g>
    <g id="xtick_13">
     <g id="line2d_13">
      <g>
       <use xlink:href="#m08513e908b" x="35.28" y="45.856" style="stroke: #000000; stroke-width: 0.18"/>
      </g>
     </g>
    </g>
    <g id="xtick_14">
     <g id="line2d_14">
      <g>
       <use xlink:href="#m08513e908b" x="37.8" y="45.856" style="stroke: #000000; stroke-width: 0.18"/>
      </g>
     </g>
    </g>
    <g id="xtick_15">
     <g id="line2d_15">
      <g>
       <use xlink:href="#m08513e908b" x="40.32" y="45.856" style="stroke: #000000; stroke-width: 0.18"/>
      </g>
     </g>
    </g>
    <g id="xtick_16">
     <g id="line2d_16">
      <g>
       <use xlink:href="#m08513e908b" x="42.84" y="45.856" style="stroke: #000000; stroke-width: 0.18"/>
      </g>
     </g>
    </g>
    <g id="text_5">
     <text style="font-size: 8px; font-family: 'Arial'; text-anchor: middle" x="25.83" y="61.769437" transform="rotate(-0 25.83 61.769437)"># interneurons</text>
    </g>
   </g>
   <g id="matplotlib.axis_2">
    <g id="ytick_1">
     <g id="line2d_17">
      <defs>
       <path id="m641226a024" d="M 0 0 
L -1.7 0 
" style="stroke: #000000; stroke-width: 0.25"/>
      </defs>
      <g>
       <use xlink:href="#m641226a024" x="5.3" y="44.856" style="stroke: #000000; stroke-width: 0.25"/>
      </g>
     </g>
     <g id="text_6">
      <text style="font-size: 6px; font-family: 'Arial'; text-anchor: end" x="2.1" y="47.003344" transform="rotate(-0 2.1 47.003344)">0</text>
     </g>
    </g>
    <g id="ytick_2">
     <g id="line2d_18">
      <g>
       <use xlink:href="#m641226a024" x="5.3" y="25.452" style="stroke: #000000; stroke-width: 0.25"/>
      </g>
     </g>
     <g id="text_7">
      <text style="font-size: 6px; font-family: 'Arial'; text-anchor: end" x="2.1" y="27.599344" transform="rotate(-0 2.1 27.599344)">50</text>
     </g>
    </g>
    <g id="ytick_3">
     <g id="line2d_19">
      <g>
       <use xlink:href="#m641226a024" x="5.3" y="6.048" style="stroke: #000000; stroke-width: 0.25"/>
      </g>
     </g>
     <g id="text_8">
      <text style="font-size: 6px; font-family: 'Arial'; text-anchor: end" x="2.1" y="8.195344" transform="rotate(-0 2.1 8.195344)">100</text>
     </g>
    </g>
    <g id="text_9">
     <text style="font-size: 8px; font-family: 'Arial'; text-anchor: middle" x="-10.999687" y="25.452" transform="rotate(-90 -10.999687 25.452)">% of runs</text>
    </g>
   </g>
   <g id="patch_22">
    <path d="M 5.3 44.856 
L 5.3 6.048 
" style="fill: none; stroke: #000000; stroke-width: 0.25; stroke-linejoin: miter; stroke-linecap: square"/>
   </g>
   <g id="patch_23">
    <path d="M 6.3 45.856 
L 45.36 45.856 
" style="fill: none; stroke: #000000; stroke-width: 0.25; stroke-linejoin: miter; stroke-linecap: square"/>
   </g>
  </g>
 </g>
 <defs>
  <clipPath id="pacba323848">
   <rect x="6.3" y="6.048" width="39.06" height="38.808"/>
  </clipPath>
 </defs>
</svg>
