<?xml version="1.0" encoding="utf-8" standalone="no"?>
<!DOCTYPE svg PUBLIC "-//W3C//DTD SVG 1.1//EN"
  "http://www.w3.org/Graphics/SVG/1.1/DTD/svg11.dtd">
<svg xmlns:xlink="http://www.w3.org/1999/xlink" width="72pt" height="72pt" viewBox="0 0 72 72" xmlns="http://www.w3.org/2000/svg" version="1.1">
 <metadata>
  <rdf:RDF xmlns:dc="http://purl.org/dc/elements/1.1/" xmlns:cc="http://creativecommons.org/ns#" xmlns:rdf="http://www.w3.org/1999/02/22-rdf-syntax-ns#">
   <cc:Work>
    <dc:type rdf:resource="http://purl.org/dc/dcmitype/StillImage"/>
    <dc:date>2025-09-03T14:43:24.716714</dc:date>
    <dc:format>image/svg+xml</dc:format>
    <dc:creator>
     <cc:Agent>
      <dc:title>Matplotlib v3.10.3, https://matplotlib.org/</dc:title>
     </cc:Agent>
    </dc:creator>
   </cc:Work>
  </rdf:RDF>
 </metadata>
 <defs>
  <style type="text/css">*{stroke-linejoin: round; stroke-linecap: butt}</style>
 </defs>
 <g id="figure_1">
  <g id="patch_1">
   <path d="M 0 72 
L 72 72 
L 72 0 
L 0 0 
L 0 72 
z
" style="fill: none"/>
  </g>
  <g id="axes_1">
   <g id="patch_2">
    <path d="M 9 64.08 
L 64.8 64.08 
L 64.8 8.64 
L 9 8.64 
L 9 64.08 
z
" style="fill: none"/>
   </g>
   <g id="FillBetweenPolyCollection_1">
    <path d="M 15.989606 64.08 
L 15.960394 64.08 
L 15.959367 63.706667 
L 15.958206 63.333333 
L 15.956801 62.96 
L 15.95501 62.586667 
L 15.952657 62.213333 
L 15.949513 61.84 
L 15.945274 61.466667 
L 15.939522 61.093333 
L 15.931663 60.72 
L 15.920846 60.346667 
L 15.905867 59.973333 
L 15.885051 59.6 
L 15.856136 59.226667 
L 15.816173 58.853333 
L 15.761464 58.48 
L 15.687577 58.106667 
L 15.589458 57.733333 
L 15.461689 57.36 
L 15.298878 56.986667 
L 15.096216 56.613333 
L 14.850149 56.24 
L 14.55911 55.866667 
L 14.224241 55.493333 
L 13.849968 55.12 
L 13.44433 54.746667 
L 13.018941 54.373333 
L 12.588502 54 
L 12.169851 53.626667 
L 11.780585 53.253333 
L 11.437382 52.88 
L 11.154208 52.506667 
L 10.940651 52.133333 
L 10.800615 51.76 
L 10.731614 51.386667 
L 10.724796 51.013333 
L 10.765775 50.64 
L 10.836193 50.266667 
L 10.915858 49.893333 
L 10.985186 49.52 
L 11.027638 49.146667 
L 11.031814 48.773333 
L 10.992929 48.4 
L 10.913446 48.026667 
L 10.802784 47.653333 
L 10.67613 47.28 
L 10.552505 46.906667 
L 10.452358 46.533333 
L 10.395 46.16 
L 10.396228 45.786667 
L 10.466448 45.413333 
L 10.609527 45.04 
L 10.822501 44.666667 
L 11.096143 44.293333 
L 11.416257 43.92 
L 11.765503 43.546667 
L 12.125465 43.173333 
L 12.478677 42.8 
L 12.810362 42.426667 
L 13.10966 42.053333 
L 13.370271 41.68 
L 13.590469 41.306667 
L 13.772568 40.933333 
L 13.921973 40.56 
L 14.045988 40.186667 
L 14.152575 39.813333 
L 14.249214 39.44 
L 14.342017 39.066667 
L 14.435171 38.693333 
L 14.530722 38.32 
L 14.628711 37.946667 
L 14.727554 37.573333 
L 14.824615 37.2 
L 14.916832 36.826667 
L 15.001329 36.453333 
L 15.075908 36.08 
L 15.139381 35.706667 
L 15.191705 35.333333 
L 15.233938 34.96 
L 15.268034 34.586667 
L 15.296532 34.213333 
L 15.322193 33.84 
L 15.347642 33.466667 
L 15.37506 33.093333 
L 15.405974 32.72 
L 15.441146 32.346667 
L 15.480574 31.973333 
L 15.523593 31.6 
L 15.569032 31.226667 
L 15.615428 30.853333 
L 15.661228 30.48 
L 15.704982 30.106667 
L 15.745488 29.733333 
L 15.781883 29.36 
L 15.813681 28.986667 
L 15.840757 28.613333 
L 15.863299 28.24 
L 15.881724 27.866667 
L 15.896597 27.493333 
L 15.908547 27.12 
L 16.041453 27.12 
L 16.041453 27.12 
L 16.053403 27.493333 
L 16.068276 27.866667 
L 16.086701 28.24 
L 16.109243 28.613333 
L 16.136319 28.986667 
L 16.168117 29.36 
L 16.204512 29.733333 
L 16.245018 30.106667 
L 16.288772 30.48 
L 16.334572 30.853333 
L 16.380968 31.226667 
L 16.426407 31.6 
L 16.469426 31.973333 
L 16.508854 32.346667 
L 16.544026 32.72 
L 16.57494 33.093333 
L 16.602358 33.466667 
L 16.627807 33.84 
L 16.653468 34.213333 
L 16.681966 34.586667 
L 16.716062 34.96 
L 16.758295 35.333333 
L 16.810619 35.706667 
L 16.874092 36.08 
L 16.948671 36.453333 
L 17.033168 36.826667 
L 17.125385 37.2 
L 17.222446 37.573333 
L 17.321289 37.946667 
L 17.419278 38.32 
L 17.514829 38.693333 
L 17.607983 39.066667 
L 17.700786 39.44 
L 17.797425 39.813333 
L 17.904012 40.186667 
L 18.028027 40.56 
L 18.177432 40.933333 
L 18.359531 41.306667 
L 18.579729 41.68 
L 18.84034 42.053333 
L 19.139638 42.426667 
L 19.471323 42.8 
L 19.824535 43.173333 
L 20.184497 43.546667 
L 20.533743 43.92 
L 20.853857 44.293333 
L 21.127499 44.666667 
L 21.340473 45.04 
L 21.483552 45.413333 
L 21.553772 45.786667 
L 21.555 46.16 
L 21.497642 46.533333 
L 21.397495 46.906667 
L 21.27387 47.28 
L 21.147216 47.653333 
L 21.036554 48.026667 
L 20.957071 48.4 
L 20.918186 48.773333 
L 20.922362 49.146667 
L 20.964814 49.52 
L 21.034142 49.893333 
L 21.113807 50.266667 
L 21.184225 50.64 
L 21.225204 51.013333 
L 21.218386 51.386667 
L 21.149385 51.76 
L 21.009349 52.133333 
L 20.795792 52.506667 
L 20.512618 52.88 
L 20.169415 53.253333 
L 19.780149 53.626667 
L 19.361498 54 
L 18.931059 54.373333 
L 18.50567 54.746667 
L 18.100032 55.12 
L 17.725759 55.493333 
L 17.39089 55.866667 
L 17.099851 56.24 
L 16.853784 56.613333 
L 16.651122 56.986667 
L 16.488311 57.36 
L 16.360542 57.733333 
L 16.262423 58.106667 
L 16.188536 58.48 
L 16.133827 58.853333 
L 16.093864 59.226667 
L 16.064949 59.6 
L 16.044133 59.973333 
L 16.029154 60.346667 
L 16.018337 60.72 
L 16.010478 61.093333 
L 16.004726 61.466667 
L 16.000487 61.84 
L 15.997343 62.213333 
L 15.99499 62.586667 
L 15.993199 62.96 
L 15.991794 63.333333 
L 15.990633 63.706667 
L 15.989606 64.08 
z
" clip-path="url(#p68d28c5fff)" style="fill: #306c53; fill-opacity: 0.5"/>
   </g>
   <g id="FillBetweenPolyCollection_2">
    <path d="M 31.115702 64.08 
L 28.734298 64.08 
L 28.714631 63.893333 
L 28.697464 63.706667 
L 28.682045 63.52 
L 28.667477 63.333333 
L 28.652747 63.146667 
L 28.636747 62.96 
L 28.618309 62.773333 
L 28.596245 62.586667 
L 28.569382 62.4 
L 28.536612 62.213333 
L 28.496928 62.026667 
L 28.449475 61.84 
L 28.393583 61.653333 
L 28.328806 61.466667 
L 28.254954 61.28 
L 28.172112 61.093333 
L 28.08066 60.906667 
L 27.981272 60.72 
L 27.874911 60.533333 
L 27.762818 60.346667 
L 27.646476 60.16 
L 27.527577 59.973333 
L 27.407971 59.786667 
L 27.289612 59.6 
L 27.174491 59.413333 
L 27.064569 59.226667 
L 26.961707 59.04 
L 26.867594 58.853333 
L 26.783678 58.666667 
L 26.711106 58.48 
L 26.650667 58.293333 
L 26.602751 58.106667 
L 26.567315 57.92 
L 26.543871 57.733333 
L 26.53148 57.546667 
L 26.528774 57.36 
L 26.533984 57.173333 
L 26.54499 56.986667 
L 26.559384 56.8 
L 26.574544 56.613333 
L 26.587725 56.426667 
L 26.596148 56.24 
L 26.597103 56.053333 
L 26.588048 55.866667 
L 26.566707 55.68 
L 26.531162 55.493333 
L 26.479936 55.306667 
L 26.412065 55.12 
L 26.327151 54.933333 
L 26.225401 54.746667 
L 26.107642 54.56 
L 25.975324 54.373333 
L 25.830488 54.186667 
L 25.675727 54 
L 25.514118 53.813333 
L 25.349139 53.626667 
L 25.184573 53.44 
L 25.024395 53.253333 
L 24.872654 53.066667 
L 24.73335 52.88 
L 24.610311 52.693333 
L 24.507075 52.506667 
L 24.426779 52.32 
L 24.372065 52.133333 
L 24.345 51.946667 
L 24.347013 51.76 
L 24.37886 51.573333 
L 24.440606 51.386667 
L 24.531633 51.2 
L 24.650667 51.013333 
L 24.795833 50.826667 
L 24.964718 50.64 
L 25.154459 50.453333 
L 25.361837 50.266667 
L 25.583381 50.08 
L 25.815472 49.893333 
L 26.054453 49.706667 
L 26.29673 49.52 
L 26.538864 49.333333 
L 26.777659 49.146667 
L 27.010225 48.96 
L 27.234043 48.773333 
L 27.446996 48.586667 
L 27.6474 48.4 
L 27.834008 48.213333 
L 28.006006 48.026667 
L 28.162993 47.84 
L 28.304953 47.653333 
L 28.43221 47.466667 
L 28.545388 47.28 
L 28.645356 47.093333 
L 28.733174 46.906667 
L 28.810043 46.72 
L 28.877249 46.533333 
L 28.936114 46.346667 
L 28.987956 46.16 
L 29.034043 45.973333 
L 29.075567 45.786667 
L 29.11361 45.6 
L 30.73639 45.6 
L 30.73639 45.6 
L 30.774433 45.786667 
L 30.815957 45.973333 
L 30.862044 46.16 
L 30.913886 46.346667 
L 30.972751 46.533333 
L 31.039957 46.72 
L 31.116826 46.906667 
L 31.204644 47.093333 
L 31.304612 47.28 
L 31.41779 47.466667 
L 31.545047 47.653333 
L 31.687007 47.84 
L 31.843994 48.026667 
L 32.015992 48.213333 
L 32.2026 48.4 
L 32.403004 48.586667 
L 32.615957 48.773333 
L 32.839775 48.96 
L 33.072341 49.146667 
L 33.311136 49.333333 
L 33.55327 49.52 
L 33.795547 49.706667 
L 34.034528 49.893333 
L 34.266619 50.08 
L 34.488163 50.266667 
L 34.695541 50.453333 
L 34.885282 50.64 
L 35.054167 50.826667 
L 35.199333 51.013333 
L 35.318367 51.2 
L 35.409394 51.386667 
L 35.47114 51.573333 
L 35.502987 51.76 
L 35.505 51.946667 
L 35.477935 52.133333 
L 35.423221 52.32 
L 35.342925 52.506667 
L 35.239689 52.693333 
L 35.11665 52.88 
L 34.977346 53.066667 
L 34.825605 53.253333 
L 34.665427 53.44 
L 34.500861 53.626667 
L 34.335882 53.813333 
L 34.174273 54 
L 34.019512 54.186667 
L 33.874676 54.373333 
L 33.742358 54.56 
L 33.624599 54.746667 
L 33.522849 54.933333 
L 33.437935 55.12 
L 33.370064 55.306667 
L 33.318838 55.493333 
L 33.283293 55.68 
L 33.261952 55.866667 
L 33.252897 56.053333 
L 33.253852 56.24 
L 33.262275 56.426667 
L 33.275456 56.613333 
L 33.290616 56.8 
L 33.30501 56.986667 
L 33.316016 57.173333 
L 33.321226 57.36 
L 33.31852 57.546667 
L 33.306129 57.733333 
L 33.282685 57.92 
L 33.247249 58.106667 
L 33.199333 58.293333 
L 33.138894 58.48 
L 33.066322 58.666667 
L 32.982406 58.853333 
L 32.888293 59.04 
L 32.785431 59.226667 
L 32.675509 59.413333 
L 32.560388 59.6 
L 32.442029 59.786667 
L 32.322423 59.973333 
L 32.203524 60.16 
L 32.087182 60.346667 
L 31.975089 60.533333 
L 31.868728 60.72 
L 31.76934 60.906667 
L 31.677888 61.093333 
L 31.595046 61.28 
L 31.521194 61.466667 
L 31.456417 61.653333 
L 31.400525 61.84 
L 31.353072 62.026667 
L 31.313388 62.213333 
L 31.280618 62.4 
L 31.253755 62.586667 
L 31.231691 62.773333 
L 31.213253 62.96 
L 31.197253 63.146667 
L 31.182523 63.333333 
L 31.167955 63.52 
L 31.152536 63.706667 
L 31.135369 63.893333 
L 31.115702 64.08 
z
" clip-path="url(#p68d28c5fff)" style="fill: #c35843; fill-opacity: 0.5"/>
   </g>
   <g id="FillBetweenPolyCollection_3">
    <path d="M 46.310492 64.08 
L 41.439508 64.08 
L 41.436195 63.893333 
L 41.449976 63.706667 
L 41.47903 63.52 
L 41.520856 63.333333 
L 41.572334 63.146667 
L 41.629804 62.96 
L 41.689179 62.773333 
L 41.746068 62.586667 
L 41.795923 62.4 
L 41.834191 62.213333 
L 41.856474 62.026667 
L 41.85869 61.84 
L 41.837232 61.653333 
L 41.789119 61.466667 
L 41.712129 61.28 
L 41.604924 61.093333 
L 41.467141 60.906667 
L 41.299466 60.72 
L 41.10367 60.533333 
L 40.882614 60.346667 
L 40.640205 60.16 
L 40.381328 59.973333 
L 40.111719 59.786667 
L 39.837809 59.6 
L 39.566526 59.413333 
L 39.305073 59.226667 
L 39.06067 59.04 
L 38.840301 58.853333 
L 38.650448 58.666667 
L 38.496839 58.48 
L 38.384224 58.293333 
L 38.316187 58.106667 
L 38.295 57.92 
L 38.321539 57.733333 
L 38.395254 57.546667 
L 38.514203 57.36 
L 38.675144 57.173333 
L 38.873681 56.986667 
L 39.104456 56.8 
L 39.361375 56.613333 
L 39.637852 56.426667 
L 39.927072 56.24 
L 40.222237 56.053333 
L 40.516805 55.866667 
L 40.804703 55.68 
L 41.080502 55.493333 
L 41.339556 55.306667 
L 41.578102 55.12 
L 41.793312 54.933333 
L 41.983308 54.746667 
L 42.147147 54.56 
L 42.284762 54.373333 
L 42.396889 54.186667 
L 42.484965 54 
L 42.551019 53.813333 
L 42.597547 53.626667 
L 42.62739 53.44 
L 42.643608 53.253333 
L 42.649362 53.066667 
L 42.647797 52.88 
L 42.641942 52.693333 
L 42.63462 52.506667 
L 42.62837 52.32 
L 42.625387 52.133333 
L 42.627475 51.946667 
L 42.636021 51.76 
L 42.651983 51.573333 
L 42.675894 51.386667 
L 42.707881 51.2 
L 42.747701 51.013333 
L 42.794785 50.826667 
L 42.848292 50.64 
L 42.907167 50.453333 
L 42.970208 50.266667 
L 43.036125 50.08 
L 43.103605 49.893333 
L 43.171364 49.706667 
L 43.238197 49.52 
L 43.303018 49.333333 
L 43.364886 49.146667 
L 43.423033 48.96 
L 43.476864 48.773333 
L 43.52597 48.586667 
L 43.570112 48.4 
L 43.609213 48.213333 
L 43.643341 48.026667 
L 43.672687 47.84 
L 43.697541 47.653333 
L 43.718268 47.466667 
L 43.735291 47.28 
L 43.749061 47.093333 
L 43.760043 46.906667 
L 43.768698 46.72 
L 43.77547 46.533333 
L 43.78077 46.346667 
L 43.784973 46.16 
L 43.788412 45.973333 
L 43.791367 45.786667 
L 43.794075 45.6 
L 43.955925 45.6 
L 43.955925 45.6 
L 43.958633 45.786667 
L 43.961588 45.973333 
L 43.965027 46.16 
L 43.96923 46.346667 
L 43.97453 46.533333 
L 43.981302 46.72 
L 43.989957 46.906667 
L 44.000939 47.093333 
L 44.014709 47.28 
L 44.031732 47.466667 
L 44.052459 47.653333 
L 44.077313 47.84 
L 44.106659 48.026667 
L 44.140787 48.213333 
L 44.179888 48.4 
L 44.22403 48.586667 
L 44.273136 48.773333 
L 44.326967 48.96 
L 44.385114 49.146667 
L 44.446982 49.333333 
L 44.511803 49.52 
L 44.578636 49.706667 
L 44.646395 49.893333 
L 44.713875 50.08 
L 44.779792 50.266667 
L 44.842833 50.453333 
L 44.901708 50.64 
L 44.955215 50.826667 
L 45.002299 51.013333 
L 45.042119 51.2 
L 45.074106 51.386667 
L 45.098017 51.573333 
L 45.113979 51.76 
L 45.122525 51.946667 
L 45.124613 52.133333 
L 45.12163 52.32 
L 45.11538 52.506667 
L 45.108058 52.693333 
L 45.102203 52.88 
L 45.100638 53.066667 
L 45.106392 53.253333 
L 45.12261 53.44 
L 45.152453 53.626667 
L 45.198981 53.813333 
L 45.265035 54 
L 45.353111 54.186667 
L 45.465238 54.373333 
L 45.602853 54.56 
L 45.766692 54.746667 
L 45.956688 54.933333 
L 46.171898 55.12 
L 46.410444 55.306667 
L 46.669498 55.493333 
L 46.945297 55.68 
L 47.233195 55.866667 
L 47.527763 56.053333 
L 47.822928 56.24 
L 48.112148 56.426667 
L 48.388625 56.613333 
L 48.645544 56.8 
L 48.876319 56.986667 
L 49.074856 57.173333 
L 49.235797 57.36 
L 49.354746 57.546667 
L 49.428461 57.733333 
L 49.455 57.92 
L 49.433813 58.106667 
L 49.365776 58.293333 
L 49.253161 58.48 
L 49.099552 58.666667 
L 48.909699 58.853333 
L 48.68933 59.04 
L 48.444927 59.226667 
L 48.183474 59.413333 
L 47.912191 59.6 
L 47.638281 59.786667 
L 47.368672 59.973333 
L 47.109795 60.16 
L 46.867386 60.346667 
L 46.64633 60.533333 
L 46.450534 60.72 
L 46.282859 60.906667 
L 46.145076 61.093333 
L 46.037871 61.28 
L 45.960881 61.466667 
L 45.912768 61.653333 
L 45.89131 61.84 
L 45.893526 62.026667 
L 45.915809 62.213333 
L 45.954077 62.4 
L 46.003932 62.586667 
L 46.060821 62.773333 
L 46.120196 62.96 
L 46.177666 63.146667 
L 46.229144 63.333333 
L 46.27097 63.52 
L 46.300024 63.706667 
L 46.313805 63.893333 
L 46.310492 64.08 
z
" clip-path="url(#p68d28c5fff)" style="fill: #f0a394; fill-opacity: 0.5"/>
   </g>
   <g id="FillBetweenPolyCollection_4">
    <path d="M 57.844593 64.08 
L 57.805407 64.08 
L 57.800066 63.582222 
L 57.792005 63.084444 
L 57.779836 62.586667 
L 57.761663 62.088889 
L 57.734982 61.591111 
L 57.696604 61.093333 
L 57.642615 60.595556 
L 57.568414 60.097778 
L 57.468849 59.6 
L 57.338476 59.102222 
L 57.171963 58.604444 
L 56.964629 58.106667 
L 56.713086 57.608889 
L 56.415934 57.111111 
L 56.074411 56.613333 
L 55.692897 56.115556 
L 55.279158 55.617778 
L 54.844239 55.12 
L 54.401944 54.622222 
L 53.967906 54.124444 
L 53.558324 53.626667 
L 53.1885 53.128889 
L 52.871374 52.631111 
L 52.616272 52.133333 
L 52.428065 51.635556 
L 52.306886 51.137778 
L 52.24846 50.64 
L 52.245 50.142222 
L 52.28652 49.644444 
L 52.362343 49.146667 
L 52.462544 48.648889 
L 52.579104 48.151111 
L 52.706579 47.653333 
L 52.84223 47.155556 
L 52.985626 46.657778 
L 53.137875 46.16 
L 53.300642 45.662222 
L 53.47521 45.164444 
L 53.661752 44.666667 
L 53.858942 44.168889 
L 54.063964 43.671111 
L 54.272861 43.173333 
L 54.48111 42.675556 
L 54.684296 42.177778 
L 54.8787 41.68 
L 55.061709 41.182222 
L 55.231982 40.684444 
L 55.389357 40.186667 
L 55.53457 39.688889 
L 55.668865 39.191111 
L 55.79361 38.693333 
L 55.909988 38.195556 
L 56.01883 37.697778 
L 56.120605 37.2 
L 56.21553 36.702222 
L 56.30375 36.204444 
L 56.385535 35.706667 
L 56.461418 35.208889 
L 56.532245 34.711111 
L 56.599126 34.213333 
L 56.663304 33.715556 
L 56.72597 33.217778 
L 56.788081 32.72 
L 56.850222 32.222222 
L 56.912532 31.724444 
L 56.974726 31.226667 
L 57.036185 30.728889 
L 57.096099 30.231111 
L 57.153633 29.733333 
L 57.20807 29.235556 
L 57.25892 28.737778 
L 57.305969 28.24 
L 57.349262 27.742222 
L 57.389054 27.244444 
L 57.425721 26.746667 
L 57.459673 26.248889 
L 57.491274 25.751111 
L 57.520795 25.253333 
L 57.548399 24.755556 
L 57.574152 24.257778 
L 57.598054 23.76 
L 57.620086 23.262222 
L 57.640243 22.764444 
L 57.658567 22.266667 
L 57.675154 21.768889 
L 57.690153 21.271111 
L 57.703746 20.773333 
L 57.716124 20.275556 
L 57.727468 19.777778 
L 57.737925 19.28 
L 57.7476 18.782222 
L 57.756556 18.284444 
L 57.76482 17.786667 
L 57.772397 17.288889 
L 57.77928 16.791111 
L 57.785467 16.293333 
L 57.79097 15.795556 
L 57.795814 15.297778 
L 57.800043 14.8 
L 57.849957 14.8 
L 57.849957 14.8 
L 57.854186 15.297778 
L 57.85903 15.795556 
L 57.864533 16.293333 
L 57.87072 16.791111 
L 57.877603 17.288889 
L 57.88518 17.786667 
L 57.893444 18.284444 
L 57.9024 18.782222 
L 57.912075 19.28 
L 57.922532 19.777778 
L 57.933876 20.275556 
L 57.946254 20.773333 
L 57.959847 21.271111 
L 57.974846 21.768889 
L 57.991433 22.266667 
L 58.009757 22.764444 
L 58.029914 23.262222 
L 58.051946 23.76 
L 58.075848 24.257778 
L 58.101601 24.755556 
L 58.129205 25.253333 
L 58.158726 25.751111 
L 58.190327 26.248889 
L 58.224279 26.746667 
L 58.260946 27.244444 
L 58.300738 27.742222 
L 58.344031 28.24 
L 58.39108 28.737778 
L 58.44193 29.235556 
L 58.496367 29.733333 
L 58.553901 30.231111 
L 58.613815 30.728889 
L 58.675274 31.226667 
L 58.737468 31.724444 
L 58.799778 32.222222 
L 58.861919 32.72 
L 58.92403 33.217778 
L 58.986696 33.715556 
L 59.050874 34.213333 
L 59.117755 34.711111 
L 59.188582 35.208889 
L 59.264465 35.706667 
L 59.34625 36.204444 
L 59.43447 36.702222 
L 59.529395 37.2 
L 59.63117 37.697778 
L 59.740012 38.195556 
L 59.85639 38.693333 
L 59.981135 39.191111 
L 60.11543 39.688889 
L 60.260643 40.186667 
L 60.418018 40.684444 
L 60.588291 41.182222 
L 60.7713 41.68 
L 60.965704 42.177778 
L 61.16889 42.675556 
L 61.377139 43.173333 
L 61.586036 43.671111 
L 61.791058 44.168889 
L 61.988248 44.666667 
L 62.17479 45.164444 
L 62.349358 45.662222 
L 62.512125 46.16 
L 62.664374 46.657778 
L 62.80777 47.155556 
L 62.943421 47.653333 
L 63.070896 48.151111 
L 63.187456 48.648889 
L 63.287657 49.146667 
L 63.36348 49.644444 
L 63.405 50.142222 
L 63.40154 50.64 
L 63.343114 51.137778 
L 63.221935 51.635556 
L 63.033728 52.133333 
L 62.778626 52.631111 
L 62.4615 53.128889 
L 62.091676 53.626667 
L 61.682094 54.124444 
L 61.248056 54.622222 
L 60.805761 55.12 
L 60.370842 55.617778 
L 59.957103 56.115556 
L 59.575589 56.613333 
L 59.234066 57.111111 
L 58.936914 57.608889 
L 58.685371 58.106667 
L 58.478037 58.604444 
L 58.311524 59.102222 
L 58.181151 59.6 
L 58.081586 60.097778 
L 58.007385 60.595556 
L 57.953396 61.093333 
L 57.915018 61.591111 
L 57.888337 62.088889 
L 57.870164 62.586667 
L 57.857995 63.084444 
L 57.849934 63.582222 
L 57.844593 64.08 
z
" clip-path="url(#p68d28c5fff)" style="fill: #126175; fill-opacity: 0.5"/>
   </g>
   <g id="matplotlib.axis_1">
    <g id="xtick_1">
     <g id="line2d_1">
      <defs>
       <path id="md02928b474" d="M 0 0 
L 0 1.7 
" style="stroke: #000000; stroke-width: 0.25"/>
      </defs>
      <g>
       <use xlink:href="#md02928b474" x="15.975" y="65.08" style="stroke: #000000; stroke-width: 0.25"/>
      </g>
     </g>
     <g id="text_1">
      <text style="font-size: 6px; font-family: 'Arial'; text-anchor: middle" x="15.975" y="72.574687" transform="rotate(-0 15.975 72.574687)">none</text>
     </g>
    </g>
    <g id="xtick_2">
     <g id="line2d_2">
      <g>
       <use xlink:href="#md02928b474" x="29.925" y="65.08" style="stroke: #000000; stroke-width: 0.25"/>
      </g>
     </g>
     <g id="text_2">
      <text style="font-size: 6px; font-family: 'Arial'; text-anchor: middle" x="29.925" y="72.574687" transform="rotate(-0 29.925 72.574687)">E1</text>
     </g>
    </g>
    <g id="xtick_3">
     <g id="line2d_3">
      <g>
       <use xlink:href="#md02928b474" x="43.875" y="65.08" style="stroke: #000000; stroke-width: 0.25"/>
      </g>
     </g>
     <g id="text_3">
      <text style="font-size: 6px; font-family: 'Arial'; text-anchor: middle" x="43.875" y="72.574687" transform="rotate(-0 43.875 72.574687)">E2</text>
     </g>
    </g>
    <g id="xtick_4">
     <g id="line2d_4">
      <g>
       <use xlink:href="#md02928b474" x="57.825" y="65.08" style="stroke: #000000; stroke-width: 0.25"/>
      </g>
     </g>
     <g id="text_4">
      <text style="font-size: 6px; font-family: 'Arial'; text-anchor: middle" x="57.825" y="72.574687" transform="rotate(-0 57.825 72.574687)">I1</text>
     </g>
    </g>
    <g id="text_5">
     <text style="font-size: 8px; font-family: 'Arial'; text-anchor: middle" x="36.9" y="80.993437" transform="rotate(-0 36.9 80.993437)">silenced neuron</text>
    </g>
   </g>
   <g id="matplotlib.axis_2">
    <g id="ytick_1">
     <g id="line2d_5">
      <defs>
       <path id="mf0094e81c8" d="M 0 0 
L -1.7 0 
" style="stroke: #000000; stroke-width: 0.25"/>
      </defs>
      <g>
       <use xlink:href="#mf0094e81c8" x="8" y="64.08" style="stroke: #000000; stroke-width: 0.25"/>
      </g>
     </g>
     <g id="text_6">
      <text style="font-size: 6px; font-family: 'Arial'; text-anchor: end" x="4.8" y="66.227344" transform="rotate(-0 4.8 66.227344)">0</text>
     </g>
    </g>
    <g id="ytick_2">
     <g id="line2d_6">
      <g>
       <use xlink:href="#mf0094e81c8" x="8" y="51.76" style="stroke: #000000; stroke-width: 0.25"/>
      </g>
     </g>
     <g id="text_7">
      <text style="font-size: 6px; font-family: 'Arial'; text-anchor: end" x="4.8" y="53.907344" transform="rotate(-0 4.8 53.907344)">2</text>
     </g>
    </g>
    <g id="ytick_3">
     <g id="line2d_7">
      <g>
       <use xlink:href="#mf0094e81c8" x="8" y="39.44" style="stroke: #000000; stroke-width: 0.25"/>
      </g>
     </g>
     <g id="text_8">
      <text style="font-size: 6px; font-family: 'Arial'; text-anchor: end" x="4.8" y="41.587344" transform="rotate(-0 4.8 41.587344)">4</text>
     </g>
    </g>
    <g id="ytick_4">
     <g id="line2d_8">
      <g>
       <use xlink:href="#mf0094e81c8" x="8" y="27.12" style="stroke: #000000; stroke-width: 0.25"/>
      </g>
     </g>
     <g id="text_9">
      <text style="font-size: 6px; font-family: 'Arial'; text-anchor: end" x="4.8" y="29.267344" transform="rotate(-0 4.8 29.267344)">6</text>
     </g>
    </g>
    <g id="ytick_5">
     <g id="line2d_9">
      <g>
       <use xlink:href="#mf0094e81c8" x="8" y="14.8" style="stroke: #000000; stroke-width: 0.25"/>
      </g>
     </g>
     <g id="text_10">
      <text style="font-size: 6px; font-family: 'Arial'; text-anchor: end" x="4.8" y="16.947344" transform="rotate(-0 4.8 16.947344)">8</text>
     </g>
    </g>
    <g id="text_11">
     <text style="font-size: 8px; font-family: 'Arial'; text-anchor: middle" x="-1.626563" y="36.36" transform="rotate(-90 -1.626563 36.36)"># MNs active</text>
    </g>
   </g>
   <g id="patch_3">
    <path d="M 14.58 51.76 
L 17.37 51.76 
L 17.37 45.6 
L 14.58 45.6 
L 14.58 51.76 
z
" clip-path="url(#p68d28c5fff)" style="fill: #306c53; opacity: 0.5; stroke: #282828; stroke-width: 0.75; stroke-linejoin: miter"/>
   </g>
   <g id="line2d_10">
    <path d="M 15.975 51.76 
L 15.975 57.92 
" clip-path="url(#p68d28c5fff)" style="fill: none; stroke: #282828; stroke-width: 0.75"/>
   </g>
   <g id="line2d_11">
    <path d="M 15.975 45.6 
L 15.975 39.44 
" clip-path="url(#p68d28c5fff)" style="fill: none; stroke: #282828; stroke-width: 0.75"/>
   </g>
   <g id="line2d_12">
    <path d="M 15.2775 57.92 
L 16.6725 57.92 
" clip-path="url(#p68d28c5fff)" style="fill: none; stroke: #282828; stroke-width: 0.75; stroke-linecap: square"/>
   </g>
   <g id="line2d_13">
    <path d="M 15.2775 39.44 
L 16.6725 39.44 
" clip-path="url(#p68d28c5fff)" style="fill: none; stroke: #282828; stroke-width: 0.75; stroke-linecap: square"/>
   </g>
   <g id="patch_4">
    <path d="M 28.53 57.92 
L 31.32 57.92 
L 31.32 51.76 
L 28.53 51.76 
L 28.53 57.92 
z
" clip-path="url(#p68d28c5fff)" style="fill: #c35843; opacity: 0.5; stroke: #282828; stroke-width: 0.75; stroke-linejoin: miter"/>
   </g>
   <g id="line2d_14">
    <path d="M 29.925 57.92 
L 29.925 64.08 
" clip-path="url(#p68d28c5fff)" style="fill: none; stroke: #282828; stroke-width: 0.75"/>
   </g>
   <g id="line2d_15">
    <path d="M 29.925 51.76 
L 29.925 45.6 
" clip-path="url(#p68d28c5fff)" style="fill: none; stroke: #282828; stroke-width: 0.75"/>
   </g>
   <g id="line2d_16">
    <path d="M 29.2275 64.08 
L 30.6225 64.08 
" clip-path="url(#p68d28c5fff)" style="fill: none; stroke: #282828; stroke-width: 0.75; stroke-linecap: square"/>
   </g>
   <g id="line2d_17">
    <path d="M 29.2275 45.6 
L 30.6225 45.6 
" clip-path="url(#p68d28c5fff)" style="fill: none; stroke: #282828; stroke-width: 0.75; stroke-linecap: square"/>
   </g>
   <g id="patch_5">
    <path d="M 42.48 64.08 
L 45.27 64.08 
L 45.27 57.92 
L 42.48 57.92 
L 42.48 64.08 
z
" clip-path="url(#p68d28c5fff)" style="fill: #f0a394; opacity: 0.5; stroke: #282828; stroke-width: 0.75; stroke-linejoin: miter"/>
   </g>
   <g id="line2d_18">
    <path d="M 43.875 64.08 
L 43.875 64.08 
" clip-path="url(#p68d28c5fff)" style="fill: none; stroke: #282828; stroke-width: 0.75"/>
   </g>
   <g id="line2d_19">
    <path d="M 43.875 57.92 
L 43.875 51.76 
" clip-path="url(#p68d28c5fff)" style="fill: none; stroke: #282828; stroke-width: 0.75"/>
   </g>
   <g id="line2d_20">
    <path d="M 43.1775 64.08 
L 44.5725 64.08 
" clip-path="url(#p68d28c5fff)" style="fill: none; stroke: #282828; stroke-width: 0.75; stroke-linecap: square"/>
   </g>
   <g id="line2d_21">
    <path d="M 43.1775 51.76 
L 44.5725 51.76 
" clip-path="url(#p68d28c5fff)" style="fill: none; stroke: #282828; stroke-width: 0.75; stroke-linecap: square"/>
   </g>
   <g id="patch_6">
    <path d="M 56.43 51.76 
L 59.22 51.76 
L 59.22 45.6 
L 56.43 45.6 
L 56.43 51.76 
z
" clip-path="url(#p68d28c5fff)" style="fill: #126175; opacity: 0.5; stroke: #282828; stroke-width: 0.75; stroke-linejoin: miter"/>
   </g>
   <g id="line2d_22">
    <path d="M 57.825 51.76 
L 57.825 57.92 
" clip-path="url(#p68d28c5fff)" style="fill: none; stroke: #282828; stroke-width: 0.75"/>
   </g>
   <g id="line2d_23">
    <path d="M 57.825 45.6 
L 57.825 39.44 
" clip-path="url(#p68d28c5fff)" style="fill: none; stroke: #282828; stroke-width: 0.75"/>
   </g>
   <g id="line2d_24">
    <path d="M 57.1275 57.92 
L 58.5225 57.92 
" clip-path="url(#p68d28c5fff)" style="fill: none; stroke: #282828; stroke-width: 0.75; stroke-linecap: square"/>
   </g>
   <g id="line2d_25">
    <path d="M 57.1275 39.44 
L 58.5225 39.44 
" clip-path="url(#p68d28c5fff)" style="fill: none; stroke: #282828; stroke-width: 0.75; stroke-linecap: square"/>
   </g>
   <g id="line2d_26">
    <path d="M 14.58 45.6 
L 17.37 45.6 
" clip-path="url(#p68d28c5fff)" style="fill: none; stroke: #282828; stroke-width: 0.75"/>
   </g>
   <g id="line2d_27">
    <path d="M 28.53 51.76 
L 31.32 51.76 
" clip-path="url(#p68d28c5fff)" style="fill: none; stroke: #282828; stroke-width: 0.75"/>
   </g>
   <g id="line2d_28">
    <path d="M 42.48 57.92 
L 45.27 57.92 
" clip-path="url(#p68d28c5fff)" style="fill: none; stroke: #282828; stroke-width: 0.75"/>
   </g>
   <g id="line2d_29">
    <path d="M 56.43 45.6 
L 59.22 45.6 
" clip-path="url(#p68d28c5fff)" style="fill: none; stroke: #282828; stroke-width: 0.75"/>
   </g>
   <g id="patch_7">
    <path d="M 8 64.08 
L 8 8.64 
" style="fill: none; stroke: #000000; stroke-width: 0.25; stroke-linejoin: miter; stroke-linecap: square"/>
   </g>
   <g id="patch_8">
    <path d="M 9 65.08 
L 64.8 65.08 
" style="fill: none; stroke: #000000; stroke-width: 0.25; stroke-linejoin: miter; stroke-linecap: square"/>
   </g>
  </g>
 </g>
 <defs>
  <clipPath id="p68d28c5fff">
   <rect x="9" y="8.64" width="55.8" height="55.44"/>
  </clipPath>
 </defs>
</svg>
