<?xml version="1.0" encoding="utf-8" standalone="no"?>
<!DOCTYPE svg PUBLIC "-//W3C//DTD SVG 1.1//EN"
  "http://www.w3.org/Graphics/SVG/1.1/DTD/svg11.dtd">
<svg xmlns:xlink="http://www.w3.org/1999/xlink" width="50.4pt" height="50.4pt" viewBox="0 0 50.4 50.4" xmlns="http://www.w3.org/2000/svg" version="1.1">
 <metadata>
  <rdf:RDF xmlns:dc="http://purl.org/dc/elements/1.1/" xmlns:cc="http://creativecommons.org/ns#" xmlns:rdf="http://www.w3.org/1999/02/22-rdf-syntax-ns#">
   <cc:Work>
    <dc:type rdf:resource="http://purl.org/dc/dcmitype/StillImage"/>
    <dc:date>2025-09-04T00:25:31.638083</dc:date>
    <dc:format>image/svg+xml</dc:format>
    <dc:creator>
     <cc:Agent>
      <dc:title>Matplotlib v3.10.3, https://matplotlib.org/</dc:title>
     </cc:Agent>
    </dc:creator>
   </cc:Work>
  </rdf:RDF>
 </metadata>
 <defs>
  <style type="text/css">*{stroke-linejoin: round; stroke-linecap: butt}</style>
 </defs>
 <g id="figure_1">
  <g id="patch_1">
   <path d="M 0 50.4 
L 50.4 50.4 
L 50.4 0 
L 0 0 
L 0 50.4 
z
" style="fill: none"/>
  </g>
  <g id="axes_1">
   <g id="patch_2">
    <path d="M 6.3 44.856 
L 45.36 44.856 
L 45.36 6.048 
L 6.3 6.048 
L 6.3 44.856 
z
" style="fill: none"/>
   </g>
   <g id="FillBetweenPolyCollection_1">
    <path d="M 6.3 10.910428 
L 6.3 10.887572 
L 6.515207 10.886769 
L 6.730413 10.88586 
L 6.94562 10.884761 
L 7.160826 10.88336 
L 7.376033 10.881518 
L 7.59124 10.879058 
L 7.806446 10.875742 
L 8.021653 10.871242 
L 8.23686 10.865092 
L 8.452066 10.856629 
L 8.667273 10.844909 
L 8.882479 10.828622 
L 9.097686 10.805999 
L 9.312893 10.774731 
L 9.528099 10.731926 
L 9.743306 10.674114 
L 9.958512 10.597345 
L 10.173719 10.497375 
L 10.388926 10.369989 
L 10.604132 10.211423 
L 10.819339 10.018895 
L 11.034545 9.79118 
L 11.249752 9.529172 
L 11.464959 9.236333 
L 11.680165 8.918955 
L 11.895372 8.586122 
L 12.110579 8.249338 
L 12.325785 7.921778 
L 12.540992 7.617209 
L 12.756198 7.34868 
L 12.971405 7.127119 
L 13.186612 6.960028 
L 13.401818 6.850461 
L 13.617025 6.796473 
L 13.832231 6.791139 
L 14.047438 6.823201 
L 14.262645 6.878298 
L 14.477851 6.940629 
L 14.693058 6.994873 
L 14.908264 7.028088 
L 15.123471 7.031356 
L 15.338678 7.000932 
L 15.553884 6.938742 
L 15.769091 6.852158 
L 15.984298 6.753061 
L 16.199504 6.656335 
L 16.414711 6.577978 
L 16.629917 6.5331 
L 16.845124 6.534061 
L 17.060331 6.589003 
L 17.275537 6.70095 
L 17.490744 6.867585 
L 17.70595 7.081688 
L 17.921157 7.332151 
L 18.136364 7.605408 
L 18.35157 7.887049 
L 18.566777 8.163409 
L 18.781983 8.422926 
L 18.99719 8.657102 
L 19.212397 8.86101 
L 19.427603 9.033297 
L 19.64281 9.175775 
L 19.858017 9.292672 
L 20.073223 9.389704 
L 20.28843 9.473099 
L 20.503636 9.548711 
L 20.718843 9.621323 
L 20.93405 9.694208 
L 21.149256 9.768969 
L 21.364463 9.845637 
L 21.579669 9.922974 
L 21.794876 9.998916 
L 22.010083 10.071069 
L 22.225289 10.137181 
L 22.440496 10.195533 
L 22.655702 10.245196 
L 22.870909 10.286135 
L 23.086116 10.319179 
L 23.301322 10.345856 
L 23.516529 10.368153 
L 23.731736 10.388231 
L 23.946942 10.408143 
L 24.162149 10.429595 
L 24.377355 10.453783 
L 24.592562 10.481302 
L 24.807769 10.512152 
L 25.022975 10.54581 
L 25.238182 10.581363 
L 25.453388 10.617664 
L 25.668595 10.653499 
L 25.883802 10.687733 
L 26.099008 10.719425 
L 26.314215 10.747901 
L 26.529421 10.772781 
L 26.744628 10.793966 
L 26.959835 10.811603 
L 27.175041 10.826019 
L 27.390248 10.837656 
L 27.605455 10.847006 
L 27.605455 10.950994 
L 27.605455 10.950994 
L 27.390248 10.960344 
L 27.175041 10.971981 
L 26.959835 10.986397 
L 26.744628 11.004034 
L 26.529421 11.025219 
L 26.314215 11.050099 
L 26.099008 11.078575 
L 25.883802 11.110267 
L 25.668595 11.144501 
L 25.453388 11.180336 
L 25.238182 11.216637 
L 25.022975 11.25219 
L 24.807769 11.285848 
L 24.592562 11.316698 
L 24.377355 11.344217 
L 24.162149 11.368405 
L 23.946942 11.389857 
L 23.731736 11.409769 
L 23.516529 11.429847 
L 23.301322 11.452144 
L 23.086116 11.478821 
L 22.870909 11.511865 
L 22.655702 11.552804 
L 22.440496 11.602467 
L 22.225289 11.660819 
L 22.010083 11.726931 
L 21.794876 11.799084 
L 21.579669 11.875026 
L 21.364463 11.952363 
L 21.149256 12.029031 
L 20.93405 12.103792 
L 20.718843 12.176677 
L 20.503636 12.249289 
L 20.28843 12.324901 
L 20.073223 12.408296 
L 19.858017 12.505328 
L 19.64281 12.622225 
L 19.427603 12.764703 
L 19.212397 12.93699 
L 18.99719 13.140898 
L 18.781983 13.375074 
L 18.566777 13.634591 
L 18.35157 13.910951 
L 18.136364 14.192592 
L 17.921157 14.465849 
L 17.70595 14.716312 
L 17.490744 14.930415 
L 17.275537 15.09705 
L 17.060331 15.208997 
L 16.845124 15.263939 
L 16.629917 15.2649 
L 16.414711 15.220022 
L 16.199504 15.141665 
L 15.984298 15.044939 
L 15.769091 14.945842 
L 15.553884 14.859258 
L 15.338678 14.797068 
L 15.123471 14.766644 
L 14.908264 14.769912 
L 14.693058 14.803127 
L 14.477851 14.857371 
L 14.262645 14.919702 
L 14.047438 14.974799 
L 13.832231 15.006861 
L 13.617025 15.001527 
L 13.401818 14.947539 
L 13.186612 14.837972 
L 12.971405 14.670881 
L 12.756198 14.44932 
L 12.540992 14.180791 
L 12.325785 13.876222 
L 12.110579 13.548662 
L 11.895372 13.211878 
L 11.680165 12.879045 
L 11.464959 12.561667 
L 11.249752 12.268828 
L 11.034545 12.00682 
L 10.819339 11.779105 
L 10.604132 11.586577 
L 10.388926 11.428011 
L 10.173719 11.300625 
L 9.958512 11.200655 
L 9.743306 11.123886 
L 9.528099 11.066074 
L 9.312893 11.023269 
L 9.097686 10.992001 
L 8.882479 10.969378 
L 8.667273 10.953091 
L 8.452066 10.941371 
L 8.23686 10.932908 
L 8.021653 10.926758 
L 7.806446 10.922258 
L 7.59124 10.918942 
L 7.376033 10.916482 
L 7.160826 10.91464 
L 6.94562 10.913239 
L 6.730413 10.91214 
L 6.515207 10.911231 
L 6.3 10.910428 
z
" clip-path="url(#pc78e9064d1)" style="fill: #306c53; fill-opacity: 0.5"/>
   </g>
   <g id="FillBetweenPolyCollection_2">
    <path d="M 6.3 21.532629 
L 6.3 19.669371 
L 6.407603 19.653984 
L 6.515207 19.640552 
L 6.62281 19.628488 
L 6.730413 19.61709 
L 6.838017 19.605565 
L 6.94562 19.593046 
L 7.053223 19.57862 
L 7.160826 19.561356 
L 7.26843 19.540338 
L 7.376033 19.514698 
L 7.483636 19.483649 
L 7.59124 19.446521 
L 7.698843 19.402789 
L 7.806446 19.352107 
L 7.91405 19.294323 
L 8.021653 19.229507 
L 8.129256 19.157953 
L 8.23686 19.080189 
L 8.344463 18.996971 
L 8.452066 18.909267 
L 8.559669 18.818239 
L 8.667273 18.72521 
L 8.774876 18.631628 
L 8.882479 18.539021 
L 8.990083 18.448948 
L 9.097686 18.362943 
L 9.205289 18.282462 
L 9.312893 18.208826 
L 9.420496 18.143169 
L 9.528099 18.086387 
L 9.635702 18.039099 
L 9.743306 18.001608 
L 9.850909 17.973882 
L 9.958512 17.955539 
L 10.066116 17.945844 
L 10.173719 17.943727 
L 10.281322 17.947804 
L 10.388926 17.956415 
L 10.496529 17.967677 
L 10.604132 17.979538 
L 10.711736 17.989851 
L 10.819339 17.996442 
L 10.926942 17.997189 
L 11.034545 17.990105 
L 11.142149 17.973407 
L 11.249752 17.945596 
L 11.357355 17.905516 
L 11.464959 17.852412 
L 11.572562 17.785974 
L 11.680165 17.706362 
L 11.787769 17.614226 
L 11.895372 17.510697 
L 12.002975 17.397375 
L 12.110579 17.276287 
L 12.218182 17.14984 
L 12.325785 17.020758 
L 12.433388 16.891998 
L 12.540992 16.766672 
L 12.648595 16.647947 
L 12.756198 16.538953 
L 12.863802 16.442685 
L 12.971405 16.361911 
L 13.079008 16.299085 
L 13.186612 16.256276 
L 13.294215 16.2351 
L 13.401818 16.236675 
L 13.509421 16.261593 
L 13.617025 16.309904 
L 13.724628 16.381125 
L 13.832231 16.47426 
L 13.939835 16.58784 
L 14.047438 16.719979 
L 14.155041 16.868436 
L 14.262645 17.030693 
L 14.370248 17.204033 
L 14.477851 17.385626 
L 14.585455 17.572609 
L 14.693058 17.762171 
L 14.800661 17.951622 
L 14.908264 18.138459 
L 15.015868 18.320424 
L 15.123471 18.495543 
L 15.231074 18.662162 
L 15.338678 18.818961 
L 15.446281 18.964967 
L 15.553884 19.099542 
L 15.661488 19.222372 
L 15.769091 19.333444 
L 15.876694 19.433012 
L 15.984298 19.521565 
L 16.091901 19.599782 
L 16.199504 19.668492 
L 16.307107 19.728636 
L 16.414711 19.781219 
L 16.522314 19.827277 
L 16.629917 19.867839 
L 16.737521 19.903898 
L 16.845124 19.936387 
L 16.952727 19.966153 
L 16.952727 21.235847 
L 16.952727 21.235847 
L 16.845124 21.265613 
L 16.737521 21.298102 
L 16.629917 21.334161 
L 16.522314 21.374723 
L 16.414711 21.420781 
L 16.307107 21.473364 
L 16.199504 21.533508 
L 16.091901 21.602218 
L 15.984298 21.680435 
L 15.876694 21.768988 
L 15.769091 21.868556 
L 15.661488 21.979628 
L 15.553884 22.102458 
L 15.446281 22.237033 
L 15.338678 22.383039 
L 15.231074 22.539838 
L 15.123471 22.706457 
L 15.015868 22.881576 
L 14.908264 23.063541 
L 14.800661 23.250378 
L 14.693058 23.439829 
L 14.585455 23.629391 
L 14.477851 23.816374 
L 14.370248 23.997967 
L 14.262645 24.171307 
L 14.155041 24.333564 
L 14.047438 24.482021 
L 13.939835 24.61416 
L 13.832231 24.72774 
L 13.724628 24.820875 
L 13.617025 24.892096 
L 13.509421 24.940407 
L 13.401818 24.965325 
L 13.294215 24.9669 
L 13.186612 24.945724 
L 13.079008 24.902915 
L 12.971405 24.840089 
L 12.863802 24.759315 
L 12.756198 24.663047 
L 12.648595 24.554053 
L 12.540992 24.435328 
L 12.433388 24.310002 
L 12.325785 24.181242 
L 12.218182 24.05216 
L 12.110579 23.925713 
L 12.002975 23.804625 
L 11.895372 23.691303 
L 11.787769 23.587774 
L 11.680165 23.495638 
L 11.572562 23.416026 
L 11.464959 23.349588 
L 11.357355 23.296484 
L 11.249752 23.256404 
L 11.142149 23.228593 
L 11.034545 23.211895 
L 10.926942 23.204811 
L 10.819339 23.205558 
L 10.711736 23.212149 
L 10.604132 23.222462 
L 10.496529 23.234323 
L 10.388926 23.245585 
L 10.281322 23.254196 
L 10.173719 23.258273 
L 10.066116 23.256156 
L 9.958512 23.246461 
L 9.850909 23.228118 
L 9.743306 23.200392 
L 9.635702 23.162901 
L 9.528099 23.115613 
L 9.420496 23.058831 
L 9.312893 22.993174 
L 9.205289 22.919538 
L 9.097686 22.839057 
L 8.990083 22.753052 
L 8.882479 22.662979 
L 8.774876 22.570372 
L 8.667273 22.47679 
L 8.559669 22.383761 
L 8.452066 22.292733 
L 8.344463 22.205029 
L 8.23686 22.121811 
L 8.129256 22.044047 
L 8.021653 21.972493 
L 7.91405 21.907677 
L 7.806446 21.849893 
L 7.698843 21.799211 
L 7.59124 21.755479 
L 7.483636 21.718351 
L 7.376033 21.687302 
L 7.26843 21.661662 
L 7.160826 21.640644 
L 7.053223 21.62338 
L 6.94562 21.608954 
L 6.838017 21.596435 
L 6.730413 21.58491 
L 6.62281 21.573512 
L 6.515207 21.561448 
L 6.407603 21.548016 
L 6.3 21.532629 
z
" clip-path="url(#pc78e9064d1)" style="fill: #c35843; fill-opacity: 0.5"/>
   </g>
   <g id="FillBetweenPolyCollection_3">
    <path d="M 6.3 32.208576 
L 6.3 28.397424 
L 6.407603 28.394832 
L 6.515207 28.405614 
L 6.62281 28.428346 
L 6.730413 28.461072 
L 6.838017 28.50135 
L 6.94562 28.546315 
L 7.053223 28.592771 
L 7.160826 28.637282 
L 7.26843 28.67629 
L 7.376033 28.706231 
L 7.483636 28.723666 
L 7.59124 28.7254 
L 7.698843 28.708611 
L 7.806446 28.670966 
L 7.91405 28.610728 
L 8.021653 28.526848 
L 8.129256 28.419044 
L 8.23686 28.287852 
L 8.344463 28.134658 
L 8.452066 27.961699 
L 8.559669 27.772034 
L 8.667273 27.569483 
L 8.774876 27.358536 
L 8.882479 27.144223 
L 8.990083 26.931967 
L 9.097686 26.7274 
L 9.205289 26.536175 
L 9.312893 26.363754 
L 9.420496 26.21521 
L 9.528099 26.095023 
L 9.635702 26.006911 
L 9.743306 25.953677 
L 9.850909 25.9371 
L 9.958512 25.957865 
L 10.066116 26.015541 
L 10.173719 26.108609 
L 10.281322 26.234532 
L 10.388926 26.389871 
L 10.496529 26.570434 
L 10.604132 26.771452 
L 10.711736 26.987774 
L 10.819339 27.214065 
L 10.926942 27.445007 
L 11.034545 27.675483 
L 11.142149 27.90074 
L 11.249752 28.116531 
L 11.357355 28.31922 
L 11.464959 28.505863 
L 11.572562 28.674247 
L 11.680165 28.822904 
L 11.787769 28.951094 
L 11.895372 29.058767 
L 12.002975 29.146497 
L 12.110579 29.21541 
L 12.218182 29.267092 
L 12.325785 29.303496 
L 12.433388 29.326846 
L 12.540992 29.339535 
L 12.648595 29.344037 
L 12.756198 29.342812 
L 12.863802 29.338231 
L 12.971405 29.332503 
L 13.079008 29.327613 
L 13.186612 29.325278 
L 13.294215 29.326912 
L 13.401818 29.333599 
L 13.509421 29.346088 
L 13.617025 29.364796 
L 13.724628 29.389823 
L 13.832231 29.420979 
L 13.939835 29.457819 
L 14.047438 29.499684 
L 14.155041 29.545749 
L 14.262645 29.595073 
L 14.370248 29.646648 
L 14.477851 29.699446 
L 14.585455 29.752462 
L 14.693058 29.804753 
L 14.800661 29.85547 
L 14.908264 29.903877 
L 15.015868 29.949372 
L 15.123471 29.991491 
L 15.231074 30.029912 
L 15.338678 30.064449 
L 15.446281 30.095043 
L 15.553884 30.121746 
L 15.661488 30.144707 
L 15.769091 30.164152 
L 15.876694 30.18037 
L 15.984298 30.193689 
L 16.091901 30.204463 
L 16.199504 30.213055 
L 16.307107 30.219827 
L 16.414711 30.225125 
L 16.522314 30.229272 
L 16.629917 30.232562 
L 16.737521 30.235252 
L 16.845124 30.237564 
L 16.952727 30.239682 
L 16.952727 30.366318 
L 16.952727 30.366318 
L 16.845124 30.368436 
L 16.737521 30.370748 
L 16.629917 30.373438 
L 16.522314 30.376728 
L 16.414711 30.380875 
L 16.307107 30.386173 
L 16.199504 30.392945 
L 16.091901 30.401537 
L 15.984298 30.412311 
L 15.876694 30.42563 
L 15.769091 30.441848 
L 15.661488 30.461293 
L 15.553884 30.484254 
L 15.446281 30.510957 
L 15.338678 30.541551 
L 15.231074 30.576088 
L 15.123471 30.614509 
L 15.015868 30.656628 
L 14.908264 30.702123 
L 14.800661 30.75053 
L 14.693058 30.801247 
L 14.585455 30.853538 
L 14.477851 30.906554 
L 14.370248 30.959352 
L 14.262645 31.010927 
L 14.155041 31.060251 
L 14.047438 31.106316 
L 13.939835 31.148181 
L 13.832231 31.185021 
L 13.724628 31.216177 
L 13.617025 31.241204 
L 13.509421 31.259912 
L 13.401818 31.272401 
L 13.294215 31.279088 
L 13.186612 31.280722 
L 13.079008 31.278387 
L 12.971405 31.273497 
L 12.863802 31.267769 
L 12.756198 31.263188 
L 12.648595 31.261963 
L 12.540992 31.266465 
L 12.433388 31.279154 
L 12.325785 31.302504 
L 12.218182 31.338908 
L 12.110579 31.39059 
L 12.002975 31.459503 
L 11.895372 31.547233 
L 11.787769 31.654906 
L 11.680165 31.783096 
L 11.572562 31.931753 
L 11.464959 32.100137 
L 11.357355 32.28678 
L 11.249752 32.489469 
L 11.142149 32.70526 
L 11.034545 32.930517 
L 10.926942 33.160993 
L 10.819339 33.391935 
L 10.711736 33.618226 
L 10.604132 33.834548 
L 10.496529 34.035566 
L 10.388926 34.216129 
L 10.281322 34.371468 
L 10.173719 34.497391 
L 10.066116 34.590459 
L 9.958512 34.648135 
L 9.850909 34.6689 
L 9.743306 34.652323 
L 9.635702 34.599089 
L 9.528099 34.510977 
L 9.420496 34.39079 
L 9.312893 34.242246 
L 9.205289 34.069825 
L 9.097686 33.8786 
L 8.990083 33.674033 
L 8.882479 33.461777 
L 8.774876 33.247464 
L 8.667273 33.036517 
L 8.559669 32.833966 
L 8.452066 32.644301 
L 8.344463 32.471342 
L 8.23686 32.318148 
L 8.129256 32.186956 
L 8.021653 32.079152 
L 7.91405 31.995272 
L 7.806446 31.935034 
L 7.698843 31.897389 
L 7.59124 31.8806 
L 7.483636 31.882334 
L 7.376033 31.899769 
L 7.26843 31.92971 
L 7.160826 31.968718 
L 7.053223 32.013229 
L 6.94562 32.059685 
L 6.838017 32.10465 
L 6.730413 32.144928 
L 6.62281 32.177654 
L 6.515207 32.200386 
L 6.407603 32.211168 
L 6.3 32.208576 
z
" clip-path="url(#pc78e9064d1)" style="fill: #f0a394; fill-opacity: 0.5"/>
   </g>
   <g id="FillBetweenPolyCollection_4">
    <path d="M 6.3 40.02033 
L 6.3 39.98967 
L 6.586942 39.985491 
L 6.873884 39.979184 
L 7.160826 39.969663 
L 7.447769 39.955444 
L 7.734711 39.934569 
L 8.021653 39.904541 
L 8.308595 39.862298 
L 8.595537 39.804242 
L 8.882479 39.726341 
L 9.169421 39.624334 
L 9.456364 39.494051 
L 9.743306 39.331829 
L 10.030248 39.135017 
L 10.31719 38.90252 
L 10.604132 38.635305 
L 10.891074 38.336801 
L 11.178017 38.013084 
L 11.464959 37.672795 
L 11.751901 37.326735 
L 12.038843 36.987135 
L 12.325785 36.66667 
L 12.612727 36.377312 
L 12.899669 36.129187 
L 13.186612 35.929591 
L 13.473554 35.782334 
L 13.760496 35.687521 
L 14.047438 35.641807 
L 14.33438 35.6391 
L 14.621322 35.671586 
L 14.908264 35.730911 
L 15.195207 35.809311 
L 15.482149 35.90051 
L 15.769091 36.000249 
L 16.056033 36.106384 
L 16.342975 36.218581 
L 16.629917 36.337703 
L 16.91686 36.465054 
L 17.203802 36.60164 
L 17.490744 36.747594 
L 17.777686 36.901879 
L 18.064628 37.062293 
L 18.35157 37.225737 
L 18.638512 37.388676 
L 18.925455 37.547653 
L 19.212397 37.699757 
L 19.499339 37.842947 
L 19.786281 37.976172 
L 20.073223 38.099306 
L 20.360165 38.212923 
L 20.647107 38.317998 
L 20.93405 38.415601 
L 21.220992 38.506657 
L 21.507934 38.591818 
L 21.794876 38.671449 
L 22.081818 38.745719 
L 22.36876 38.814745 
L 22.655702 38.878735 
L 22.942645 38.938107 
L 23.229587 38.993523 
L 23.516529 39.045853 
L 23.803471 39.096067 
L 24.090413 39.145098 
L 24.377355 39.193695 
L 24.664298 39.242315 
L 24.95124 39.291067 
L 25.238182 39.339729 
L 25.525124 39.387816 
L 25.812066 39.434694 
L 26.099008 39.479709 
L 26.38595 39.522302 
L 26.672893 39.562088 
L 26.959835 39.5989 
L 27.246777 39.632773 
L 27.533719 39.663907 
L 27.820661 39.692597 
L 28.107603 39.719161 
L 28.394545 39.743886 
L 28.681488 39.766984 
L 28.96843 39.788582 
L 29.255372 39.808731 
L 29.542314 39.827433 
L 29.829256 39.844671 
L 30.116198 39.860443 
L 30.40314 39.87478 
L 30.690083 39.887758 
L 30.977025 39.899493 
L 31.263967 39.910128 
L 31.550909 39.919814 
L 31.837851 39.928689 
L 32.124793 39.936871 
L 32.411736 39.944441 
L 32.698678 39.951448 
L 32.98562 39.957914 
L 33.272562 39.963842 
L 33.559504 39.969228 
L 33.846446 39.974069 
L 34.133388 39.978374 
L 34.420331 39.982164 
L 34.707273 39.985473 
L 34.707273 40.024527 
L 34.707273 40.024527 
L 34.420331 40.027836 
L 34.133388 40.031626 
L 33.846446 40.035931 
L 33.559504 40.040772 
L 33.272562 40.046158 
L 32.98562 40.052086 
L 32.698678 40.058552 
L 32.411736 40.065559 
L 32.124793 40.073129 
L 31.837851 40.081311 
L 31.550909 40.090186 
L 31.263967 40.099872 
L 30.977025 40.110507 
L 30.690083 40.122242 
L 30.40314 40.13522 
L 30.116198 40.149557 
L 29.829256 40.165329 
L 29.542314 40.182567 
L 29.255372 40.201269 
L 28.96843 40.221418 
L 28.681488 40.243016 
L 28.394545 40.266114 
L 28.107603 40.290839 
L 27.820661 40.317403 
L 27.533719 40.346093 
L 27.246777 40.377227 
L 26.959835 40.4111 
L 26.672893 40.447912 
L 26.38595 40.487698 
L 26.099008 40.530291 
L 25.812066 40.575306 
L 25.525124 40.622184 
L 25.238182 40.670271 
L 24.95124 40.718933 
L 24.664298 40.767685 
L 24.377355 40.816305 
L 24.090413 40.864902 
L 23.803471 40.913933 
L 23.516529 40.964147 
L 23.229587 41.016477 
L 22.942645 41.071893 
L 22.655702 41.131265 
L 22.36876 41.195255 
L 22.081818 41.264281 
L 21.794876 41.338551 
L 21.507934 41.418182 
L 21.220992 41.503343 
L 20.93405 41.594399 
L 20.647107 41.692002 
L 20.360165 41.797077 
L 20.073223 41.910694 
L 19.786281 42.033828 
L 19.499339 42.167053 
L 19.212397 42.310243 
L 18.925455 42.462347 
L 18.638512 42.621324 
L 18.35157 42.784263 
L 18.064628 42.947707 
L 17.777686 43.108121 
L 17.490744 43.262406 
L 17.203802 43.40836 
L 16.91686 43.544946 
L 16.629917 43.672297 
L 16.342975 43.791419 
L 16.056033 43.903616 
L 15.769091 44.009751 
L 15.482149 44.10949 
L 15.195207 44.200689 
L 14.908264 44.279089 
L 14.621322 44.338414 
L 14.33438 44.3709 
L 14.047438 44.368193 
L 13.760496 44.322479 
L 13.473554 44.227666 
L 13.186612 44.080409 
L 12.899669 43.880813 
L 12.612727 43.632688 
L 12.325785 43.34333 
L 12.038843 43.022865 
L 11.751901 42.683265 
L 11.464959 42.337205 
L 11.178017 41.996916 
L 10.891074 41.673199 
L 10.604132 41.374695 
L 10.31719 41.10748 
L 10.030248 40.874983 
L 9.743306 40.678171 
L 9.456364 40.515949 
L 9.169421 40.385666 
L 8.882479 40.283659 
L 8.595537 40.205758 
L 8.308595 40.147702 
L 8.021653 40.105459 
L 7.734711 40.075431 
L 7.447769 40.054556 
L 7.160826 40.040337 
L 6.873884 40.030816 
L 6.586942 40.024509 
L 6.3 40.02033 
z
" clip-path="url(#pc78e9064d1)" style="fill: #126175; fill-opacity: 0.5"/>
   </g>
   <g id="matplotlib.axis_1">
    <g id="xtick_1">
     <g id="line2d_1">
      <defs>
       <path id="m2f65095524" d="M 0 0 
L 0 1.7 
" style="stroke: #000000; stroke-width: 0.25"/>
      </defs>
      <g>
       <use xlink:href="#m2f65095524" x="6.3" y="45.856" style="stroke: #000000; stroke-width: 0.25"/>
      </g>
     </g>
     <g id="text_1">
      <text style="font-size: 6px; font-family: 'Arial'; text-anchor: middle" x="6.3" y="53.350687" transform="rotate(-0 6.3 53.350687)">0</text>
     </g>
    </g>
    <g id="xtick_2">
     <g id="line2d_2">
      <g>
       <use xlink:href="#m2f65095524" x="24.054545" y="45.856" style="stroke: #000000; stroke-width: 0.25"/>
      </g>
     </g>
     <g id="text_2">
      <text style="font-size: 6px; font-family: 'Arial'; text-anchor: middle" x="24.054545" y="53.350687" transform="rotate(-0 24.054545 53.350687)">5</text>
     </g>
    </g>
    <g id="xtick_3">
     <g id="line2d_3">
      <g>
       <use xlink:href="#m2f65095524" x="41.809091" y="45.856" style="stroke: #000000; stroke-width: 0.25"/>
      </g>
     </g>
     <g id="text_3">
      <text style="font-size: 6px; font-family: 'Arial'; text-anchor: middle" x="41.809091" y="53.350687" transform="rotate(-0 41.809091 53.350687)">10</text>
     </g>
    </g>
    <g id="text_4">
     <text style="font-size: 8px; font-family: 'Arial'; text-anchor: middle" x="25.83" y="61.769437" transform="rotate(-0 25.83 61.769437)"># MNs active</text>
    </g>
   </g>
   <g id="matplotlib.axis_2">
    <g id="ytick_1">
     <g id="line2d_4">
      <defs>
       <path id="mf9b6ad113c" d="M 0 0 
L -1.7 0 
" style="stroke: #000000; stroke-width: 0.25"/>
      </defs>
      <g>
       <use xlink:href="#mf9b6ad113c" x="5.3" y="10.899" style="stroke: #000000; stroke-width: 0.25"/>
      </g>
     </g>
     <g id="text_5">
      <text style="font-size: 6px; font-family: 'Arial'; text-anchor: end" x="2.1" y="13.046344" transform="rotate(-0 2.1 13.046344)">none</text>
     </g>
    </g>
    <g id="ytick_2">
     <g id="line2d_5">
      <g>
       <use xlink:href="#mf9b6ad113c" x="5.3" y="20.601" style="stroke: #000000; stroke-width: 0.25"/>
      </g>
     </g>
     <g id="text_6">
      <text style="font-size: 6px; font-family: 'Arial'; text-anchor: end" x="2.1" y="22.748344" transform="rotate(-0 2.1 22.748344)">E1</text>
     </g>
    </g>
    <g id="ytick_3">
     <g id="line2d_6">
      <g>
       <use xlink:href="#mf9b6ad113c" x="5.3" y="30.303" style="stroke: #000000; stroke-width: 0.25"/>
      </g>
     </g>
     <g id="text_7">
      <text style="font-size: 6px; font-family: 'Arial'; text-anchor: end" x="2.1" y="32.450344" transform="rotate(-0 2.1 32.450344)">E2</text>
     </g>
    </g>
    <g id="ytick_4">
     <g id="line2d_7">
      <g>
       <use xlink:href="#mf9b6ad113c" x="5.3" y="40.005" style="stroke: #000000; stroke-width: 0.25"/>
      </g>
     </g>
     <g id="text_8">
      <text style="font-size: 6px; font-family: 'Arial'; text-anchor: end" x="2.1" y="42.152344" transform="rotate(-0 2.1 42.152344)">I1</text>
     </g>
    </g>
    <g id="text_9">
     <text style="font-size: 8px; font-family: 'Arial'; text-anchor: middle" x="-14.33625" y="25.452" transform="rotate(-90 -14.33625 25.452)">silenced neuron</text>
    </g>
   </g>
   <g id="patch_3">
    <path d="M 13.401818 9.9288 
L 13.401818 11.8692 
L 16.952727 11.8692 
L 16.952727 9.9288 
L 13.401818 9.9288 
z
" clip-path="url(#pc78e9064d1)" style="fill: #306c53; stroke: #282828; stroke-width: 0.75; stroke-linejoin: miter"/>
   </g>
   <g id="line2d_8">
    <path d="M 13.401818 10.899 
L 9.850909 10.899 
" clip-path="url(#pc78e9064d1)" style="fill: none; stroke: #282828; stroke-width: 0.75"/>
   </g>
   <g id="line2d_9">
    <path d="M 16.952727 10.899 
L 20.503636 10.899 
" clip-path="url(#pc78e9064d1)" style="fill: none; stroke: #282828; stroke-width: 0.75"/>
   </g>
   <g id="line2d_10">
    <path d="M 9.850909 10.4139 
L 9.850909 11.3841 
" clip-path="url(#pc78e9064d1)" style="fill: none; stroke: #282828; stroke-width: 0.75; stroke-linecap: square"/>
   </g>
   <g id="line2d_11">
    <path d="M 20.503636 10.4139 
L 20.503636 11.3841 
" clip-path="url(#pc78e9064d1)" style="fill: none; stroke: #282828; stroke-width: 0.75; stroke-linecap: square"/>
   </g>
   <g id="patch_4">
    <path d="M 9.850909 19.6308 
L 9.850909 21.5712 
L 13.401818 21.5712 
L 13.401818 19.6308 
L 9.850909 19.6308 
z
" clip-path="url(#pc78e9064d1)" style="fill: #c35843; stroke: #282828; stroke-width: 0.75; stroke-linejoin: miter"/>
   </g>
   <g id="line2d_12">
    <path d="M 9.850909 20.601 
L 6.3 20.601 
" clip-path="url(#pc78e9064d1)" style="fill: none; stroke: #282828; stroke-width: 0.75"/>
   </g>
   <g id="line2d_13">
    <path d="M 13.401818 20.601 
L 16.952727 20.601 
" clip-path="url(#pc78e9064d1)" style="fill: none; stroke: #282828; stroke-width: 0.75"/>
   </g>
   <g id="line2d_14">
    <path d="M 6.3 20.1159 
L 6.3 21.0861 
" clip-path="url(#pc78e9064d1)" style="fill: none; stroke: #282828; stroke-width: 0.75; stroke-linecap: square"/>
   </g>
   <g id="line2d_15">
    <path d="M 16.952727 20.1159 
L 16.952727 21.0861 
" clip-path="url(#pc78e9064d1)" style="fill: none; stroke: #282828; stroke-width: 0.75; stroke-linecap: square"/>
   </g>
   <g id="patch_5">
    <path d="M 6.3 29.3328 
L 6.3 31.2732 
L 9.850909 31.2732 
L 9.850909 29.3328 
L 6.3 29.3328 
z
" clip-path="url(#pc78e9064d1)" style="fill: #f0a394; stroke: #282828; stroke-width: 0.75; stroke-linejoin: miter"/>
   </g>
   <g id="line2d_16">
    <path d="M 6.3 30.303 
L 6.3 30.303 
" clip-path="url(#pc78e9064d1)" style="fill: none; stroke: #282828; stroke-width: 0.75"/>
   </g>
   <g id="line2d_17">
    <path d="M 9.850909 30.303 
L 13.401818 30.303 
" clip-path="url(#pc78e9064d1)" style="fill: none; stroke: #282828; stroke-width: 0.75"/>
   </g>
   <g id="line2d_18">
    <path d="M 6.3 29.8179 
L 6.3 30.7881 
" clip-path="url(#pc78e9064d1)" style="fill: none; stroke: #282828; stroke-width: 0.75; stroke-linecap: square"/>
   </g>
   <g id="line2d_19">
    <path d="M 13.401818 29.8179 
L 13.401818 30.7881 
" clip-path="url(#pc78e9064d1)" style="fill: none; stroke: #282828; stroke-width: 0.75; stroke-linecap: square"/>
   </g>
   <g id="patch_6">
    <path d="M 13.401818 39.0348 
L 13.401818 40.9752 
L 16.952727 40.9752 
L 16.952727 39.0348 
L 13.401818 39.0348 
z
" clip-path="url(#pc78e9064d1)" style="fill: #126175; stroke: #282828; stroke-width: 0.75; stroke-linejoin: miter"/>
   </g>
   <g id="line2d_20">
    <path d="M 13.401818 40.005 
L 9.850909 40.005 
" clip-path="url(#pc78e9064d1)" style="fill: none; stroke: #282828; stroke-width: 0.75"/>
   </g>
   <g id="line2d_21">
    <path d="M 16.952727 40.005 
L 20.503636 40.005 
" clip-path="url(#pc78e9064d1)" style="fill: none; stroke: #282828; stroke-width: 0.75"/>
   </g>
   <g id="line2d_22">
    <path d="M 9.850909 39.5199 
L 9.850909 40.4901 
" clip-path="url(#pc78e9064d1)" style="fill: none; stroke: #282828; stroke-width: 0.75; stroke-linecap: square"/>
   </g>
   <g id="line2d_23">
    <path d="M 20.503636 39.5199 
L 20.503636 40.4901 
" clip-path="url(#pc78e9064d1)" style="fill: none; stroke: #282828; stroke-width: 0.75; stroke-linecap: square"/>
   </g>
   <g id="line2d_24">
    <path d="M 16.952727 9.9288 
L 16.952727 11.8692 
" clip-path="url(#pc78e9064d1)" style="fill: none; stroke: #282828; stroke-width: 0.75"/>
   </g>
   <g id="line2d_25">
    <path d="M 13.401818 19.6308 
L 13.401818 21.5712 
" clip-path="url(#pc78e9064d1)" style="fill: none; stroke: #282828; stroke-width: 0.75"/>
   </g>
   <g id="line2d_26">
    <path d="M 9.850909 29.3328 
L 9.850909 31.2732 
" clip-path="url(#pc78e9064d1)" style="fill: none; stroke: #282828; stroke-width: 0.75"/>
   </g>
   <g id="line2d_27">
    <path d="M 16.952727 39.0348 
L 16.952727 40.9752 
" clip-path="url(#pc78e9064d1)" style="fill: none; stroke: #282828; stroke-width: 0.75"/>
   </g>
   <g id="patch_7">
    <path d="M 5.3 44.856 
L 5.3 6.048 
" style="fill: none; stroke: #000000; stroke-width: 0.25; stroke-linejoin: miter; stroke-linecap: square"/>
   </g>
   <g id="patch_8">
    <path d="M 6.3 45.856 
L 45.36 45.856 
" style="fill: none; stroke: #000000; stroke-width: 0.25; stroke-linejoin: miter; stroke-linecap: square"/>
   </g>
  </g>
 </g>
 <defs>
  <clipPath id="pc78e9064d1">
   <rect x="6.3" y="6.048" width="39.06" height="38.808"/>
  </clipPath>
 </defs>
</svg>
