<?xml version="1.0" encoding="utf-8" standalone="no"?>
<!DOCTYPE svg PUBLIC "-//W3C//DTD SVG 1.1//EN"
  "http://www.w3.org/Graphics/SVG/1.1/DTD/svg11.dtd">
<svg xmlns:xlink="http://www.w3.org/1999/xlink" width="50.4pt" height="50.4pt" viewBox="0 0 50.4 50.4" xmlns="http://www.w3.org/2000/svg" version="1.1">
 <metadata>
  <rdf:RDF xmlns:dc="http://purl.org/dc/elements/1.1/" xmlns:cc="http://creativecommons.org/ns#" xmlns:rdf="http://www.w3.org/1999/02/22-rdf-syntax-ns#">
   <cc:Work>
    <dc:type rdf:resource="http://purl.org/dc/dcmitype/StillImage"/>
    <dc:date>2025-09-03T14:43:27.629766</dc:date>
    <dc:format>image/svg+xml</dc:format>
    <dc:creator>
     <cc:Agent>
      <dc:title>Matplotlib v3.10.3, https://matplotlib.org/</dc:title>
     </cc:Agent>
    </dc:creator>
   </cc:Work>
  </rdf:RDF>
 </metadata>
 <defs>
  <style type="text/css">*{stroke-linejoin: round; stroke-linecap: butt}</style>
 </defs>
 <g id="figure_1">
  <g id="patch_1">
   <path d="M 0 50.4 
L 50.4 50.4 
L 50.4 0 
L 0 0 
L 0 50.4 
z
" style="fill: none"/>
  </g>
  <g id="axes_1">
   <g id="patch_2">
    <path d="M 6.3 44.856 
L 45.36 44.856 
L 45.36 6.048 
L 6.3 6.048 
L 6.3 44.856 
z
" style="fill: none"/>
   </g>
   <g id="FillBetweenPolyCollection_1">
    <path d="M 6.3 10.910428 
L 6.3 10.887572 
L 6.56303 10.886769 
L 6.826061 10.88586 
L 7.089091 10.884761 
L 7.352121 10.88336 
L 7.615152 10.881518 
L 7.878182 10.879058 
L 8.141212 10.875742 
L 8.404242 10.871242 
L 8.667273 10.865092 
L 8.930303 10.856629 
L 9.193333 10.844909 
L 9.456364 10.828622 
L 9.719394 10.805999 
L 9.982424 10.774731 
L 10.245455 10.731926 
L 10.508485 10.674114 
L 10.771515 10.597345 
L 11.034545 10.497375 
L 11.297576 10.369989 
L 11.560606 10.211423 
L 11.823636 10.018895 
L 12.086667 9.79118 
L 12.349697 9.529172 
L 12.612727 9.236333 
L 12.875758 8.918955 
L 13.138788 8.586122 
L 13.401818 8.249338 
L 13.664848 7.921778 
L 13.927879 7.617209 
L 14.190909 7.34868 
L 14.453939 7.127119 
L 14.71697 6.960028 
L 14.98 6.850461 
L 15.24303 6.796473 
L 15.506061 6.791139 
L 15.769091 6.823201 
L 16.032121 6.878298 
L 16.295152 6.940629 
L 16.558182 6.994873 
L 16.821212 7.028088 
L 17.084242 7.031356 
L 17.347273 7.000932 
L 17.610303 6.938742 
L 17.873333 6.852158 
L 18.136364 6.753061 
L 18.399394 6.656335 
L 18.662424 6.577978 
L 18.925455 6.5331 
L 19.188485 6.534061 
L 19.451515 6.589003 
L 19.714545 6.70095 
L 19.977576 6.867585 
L 20.240606 7.081688 
L 20.503636 7.332151 
L 20.766667 7.605408 
L 21.029697 7.887049 
L 21.292727 8.163409 
L 21.555758 8.422926 
L 21.818788 8.657102 
L 22.081818 8.86101 
L 22.344848 9.033297 
L 22.607879 9.175775 
L 22.870909 9.292672 
L 23.133939 9.389704 
L 23.39697 9.473099 
L 23.66 9.548711 
L 23.92303 9.621323 
L 24.186061 9.694208 
L 24.449091 9.768969 
L 24.712121 9.845637 
L 24.975152 9.922974 
L 25.238182 9.998916 
L 25.501212 10.071069 
L 25.764242 10.137181 
L 26.027273 10.195533 
L 26.290303 10.245196 
L 26.553333 10.286135 
L 26.816364 10.319179 
L 27.079394 10.345856 
L 27.342424 10.368153 
L 27.605455 10.388231 
L 27.868485 10.408143 
L 28.131515 10.429595 
L 28.394545 10.453783 
L 28.657576 10.481302 
L 28.920606 10.512152 
L 29.183636 10.54581 
L 29.446667 10.581363 
L 29.709697 10.617664 
L 29.972727 10.653499 
L 30.235758 10.687733 
L 30.498788 10.719425 
L 30.761818 10.747901 
L 31.024848 10.772781 
L 31.287879 10.793966 
L 31.550909 10.811603 
L 31.813939 10.826019 
L 32.07697 10.837656 
L 32.34 10.847006 
L 32.34 10.950994 
L 32.34 10.950994 
L 32.07697 10.960344 
L 31.813939 10.971981 
L 31.550909 10.986397 
L 31.287879 11.004034 
L 31.024848 11.025219 
L 30.761818 11.050099 
L 30.498788 11.078575 
L 30.235758 11.110267 
L 29.972727 11.144501 
L 29.709697 11.180336 
L 29.446667 11.216637 
L 29.183636 11.25219 
L 28.920606 11.285848 
L 28.657576 11.316698 
L 28.394545 11.344217 
L 28.131515 11.368405 
L 27.868485 11.389857 
L 27.605455 11.409769 
L 27.342424 11.429847 
L 27.079394 11.452144 
L 26.816364 11.478821 
L 26.553333 11.511865 
L 26.290303 11.552804 
L 26.027273 11.602467 
L 25.764242 11.660819 
L 25.501212 11.726931 
L 25.238182 11.799084 
L 24.975152 11.875026 
L 24.712121 11.952363 
L 24.449091 12.029031 
L 24.186061 12.103792 
L 23.92303 12.176677 
L 23.66 12.249289 
L 23.39697 12.324901 
L 23.133939 12.408296 
L 22.870909 12.505328 
L 22.607879 12.622225 
L 22.344848 12.764703 
L 22.081818 12.93699 
L 21.818788 13.140898 
L 21.555758 13.375074 
L 21.292727 13.634591 
L 21.029697 13.910951 
L 20.766667 14.192592 
L 20.503636 14.465849 
L 20.240606 14.716312 
L 19.977576 14.930415 
L 19.714545 15.09705 
L 19.451515 15.208997 
L 19.188485 15.263939 
L 18.925455 15.2649 
L 18.662424 15.220022 
L 18.399394 15.141665 
L 18.136364 15.044939 
L 17.873333 14.945842 
L 17.610303 14.859258 
L 17.347273 14.797068 
L 17.084242 14.766644 
L 16.821212 14.769912 
L 16.558182 14.803127 
L 16.295152 14.857371 
L 16.032121 14.919702 
L 15.769091 14.974799 
L 15.506061 15.006861 
L 15.24303 15.001527 
L 14.98 14.947539 
L 14.71697 14.837972 
L 14.453939 14.670881 
L 14.190909 14.44932 
L 13.927879 14.180791 
L 13.664848 13.876222 
L 13.401818 13.548662 
L 13.138788 13.211878 
L 12.875758 12.879045 
L 12.612727 12.561667 
L 12.349697 12.268828 
L 12.086667 12.00682 
L 11.823636 11.779105 
L 11.560606 11.586577 
L 11.297576 11.428011 
L 11.034545 11.300625 
L 10.771515 11.200655 
L 10.508485 11.123886 
L 10.245455 11.066074 
L 9.982424 11.023269 
L 9.719394 10.992001 
L 9.456364 10.969378 
L 9.193333 10.953091 
L 8.930303 10.941371 
L 8.667273 10.932908 
L 8.404242 10.926758 
L 8.141212 10.922258 
L 7.878182 10.918942 
L 7.615152 10.916482 
L 7.352121 10.91464 
L 7.089091 10.913239 
L 6.826061 10.91214 
L 6.56303 10.911231 
L 6.3 10.910428 
z
" clip-path="url(#p3c9ca42eaa)" style="fill: #306c53; fill-opacity: 0.5"/>
   </g>
   <g id="FillBetweenPolyCollection_2">
    <path d="M 6.3 21.532629 
L 6.3 19.669371 
L 6.431515 19.653984 
L 6.56303 19.640552 
L 6.694545 19.628488 
L 6.826061 19.61709 
L 6.957576 19.605565 
L 7.089091 19.593046 
L 7.220606 19.57862 
L 7.352121 19.561356 
L 7.483636 19.540338 
L 7.615152 19.514698 
L 7.746667 19.483649 
L 7.878182 19.446521 
L 8.009697 19.402789 
L 8.141212 19.352107 
L 8.272727 19.294323 
L 8.404242 19.229507 
L 8.535758 19.157953 
L 8.667273 19.080189 
L 8.798788 18.996971 
L 8.930303 18.909267 
L 9.061818 18.818239 
L 9.193333 18.72521 
L 9.324848 18.631628 
L 9.456364 18.539021 
L 9.587879 18.448948 
L 9.719394 18.362943 
L 9.850909 18.282462 
L 9.982424 18.208826 
L 10.113939 18.143169 
L 10.245455 18.086387 
L 10.37697 18.039099 
L 10.508485 18.001608 
L 10.64 17.973882 
L 10.771515 17.955539 
L 10.90303 17.945844 
L 11.034545 17.943727 
L 11.166061 17.947804 
L 11.297576 17.956415 
L 11.429091 17.967677 
L 11.560606 17.979538 
L 11.692121 17.989851 
L 11.823636 17.996442 
L 11.955152 17.997189 
L 12.086667 17.990105 
L 12.218182 17.973407 
L 12.349697 17.945596 
L 12.481212 17.905516 
L 12.612727 17.852412 
L 12.744242 17.785974 
L 12.875758 17.706362 
L 13.007273 17.614226 
L 13.138788 17.510697 
L 13.270303 17.397375 
L 13.401818 17.276287 
L 13.533333 17.14984 
L 13.664848 17.020758 
L 13.796364 16.891998 
L 13.927879 16.766672 
L 14.059394 16.647947 
L 14.190909 16.538953 
L 14.322424 16.442685 
L 14.453939 16.361911 
L 14.585455 16.299085 
L 14.71697 16.256276 
L 14.848485 16.2351 
L 14.98 16.236675 
L 15.111515 16.261593 
L 15.24303 16.309904 
L 15.374545 16.381125 
L 15.506061 16.47426 
L 15.637576 16.58784 
L 15.769091 16.719979 
L 15.900606 16.868436 
L 16.032121 17.030693 
L 16.163636 17.204033 
L 16.295152 17.385626 
L 16.426667 17.572609 
L 16.558182 17.762171 
L 16.689697 17.951622 
L 16.821212 18.138459 
L 16.952727 18.320424 
L 17.084242 18.495543 
L 17.215758 18.662162 
L 17.347273 18.818961 
L 17.478788 18.964967 
L 17.610303 19.099542 
L 17.741818 19.222372 
L 17.873333 19.333444 
L 18.004848 19.433012 
L 18.136364 19.521565 
L 18.267879 19.599782 
L 18.399394 19.668492 
L 18.530909 19.728636 
L 18.662424 19.781219 
L 18.793939 19.827277 
L 18.925455 19.867839 
L 19.05697 19.903898 
L 19.188485 19.936387 
L 19.32 19.966153 
L 19.32 21.235847 
L 19.32 21.235847 
L 19.188485 21.265613 
L 19.05697 21.298102 
L 18.925455 21.334161 
L 18.793939 21.374723 
L 18.662424 21.420781 
L 18.530909 21.473364 
L 18.399394 21.533508 
L 18.267879 21.602218 
L 18.136364 21.680435 
L 18.004848 21.768988 
L 17.873333 21.868556 
L 17.741818 21.979628 
L 17.610303 22.102458 
L 17.478788 22.237033 
L 17.347273 22.383039 
L 17.215758 22.539838 
L 17.084242 22.706457 
L 16.952727 22.881576 
L 16.821212 23.063541 
L 16.689697 23.250378 
L 16.558182 23.439829 
L 16.426667 23.629391 
L 16.295152 23.816374 
L 16.163636 23.997967 
L 16.032121 24.171307 
L 15.900606 24.333564 
L 15.769091 24.482021 
L 15.637576 24.61416 
L 15.506061 24.72774 
L 15.374545 24.820875 
L 15.24303 24.892096 
L 15.111515 24.940407 
L 14.98 24.965325 
L 14.848485 24.9669 
L 14.71697 24.945724 
L 14.585455 24.902915 
L 14.453939 24.840089 
L 14.322424 24.759315 
L 14.190909 24.663047 
L 14.059394 24.554053 
L 13.927879 24.435328 
L 13.796364 24.310002 
L 13.664848 24.181242 
L 13.533333 24.05216 
L 13.401818 23.925713 
L 13.270303 23.804625 
L 13.138788 23.691303 
L 13.007273 23.587774 
L 12.875758 23.495638 
L 12.744242 23.416026 
L 12.612727 23.349588 
L 12.481212 23.296484 
L 12.349697 23.256404 
L 12.218182 23.228593 
L 12.086667 23.211895 
L 11.955152 23.204811 
L 11.823636 23.205558 
L 11.692121 23.212149 
L 11.560606 23.222462 
L 11.429091 23.234323 
L 11.297576 23.245585 
L 11.166061 23.254196 
L 11.034545 23.258273 
L 10.90303 23.256156 
L 10.771515 23.246461 
L 10.64 23.228118 
L 10.508485 23.200392 
L 10.37697 23.162901 
L 10.245455 23.115613 
L 10.113939 23.058831 
L 9.982424 22.993174 
L 9.850909 22.919538 
L 9.719394 22.839057 
L 9.587879 22.753052 
L 9.456364 22.662979 
L 9.324848 22.570372 
L 9.193333 22.47679 
L 9.061818 22.383761 
L 8.930303 22.292733 
L 8.798788 22.205029 
L 8.667273 22.121811 
L 8.535758 22.044047 
L 8.404242 21.972493 
L 8.272727 21.907677 
L 8.141212 21.849893 
L 8.009697 21.799211 
L 7.878182 21.755479 
L 7.746667 21.718351 
L 7.615152 21.687302 
L 7.483636 21.661662 
L 7.352121 21.640644 
L 7.220606 21.62338 
L 7.089091 21.608954 
L 6.957576 21.596435 
L 6.826061 21.58491 
L 6.694545 21.573512 
L 6.56303 21.561448 
L 6.431515 21.548016 
L 6.3 21.532629 
z
" clip-path="url(#p3c9ca42eaa)" style="fill: #c35843; fill-opacity: 0.5"/>
   </g>
   <g id="FillBetweenPolyCollection_3">
    <path d="M 6.3 32.208576 
L 6.3 28.397424 
L 6.431515 28.394832 
L 6.56303 28.405614 
L 6.694545 28.428346 
L 6.826061 28.461072 
L 6.957576 28.50135 
L 7.089091 28.546315 
L 7.220606 28.592771 
L 7.352121 28.637282 
L 7.483636 28.67629 
L 7.615152 28.706231 
L 7.746667 28.723666 
L 7.878182 28.7254 
L 8.009697 28.708611 
L 8.141212 28.670966 
L 8.272727 28.610728 
L 8.404242 28.526848 
L 8.535758 28.419044 
L 8.667273 28.287852 
L 8.798788 28.134658 
L 8.930303 27.961699 
L 9.061818 27.772034 
L 9.193333 27.569483 
L 9.324848 27.358536 
L 9.456364 27.144223 
L 9.587879 26.931967 
L 9.719394 26.7274 
L 9.850909 26.536175 
L 9.982424 26.363754 
L 10.113939 26.21521 
L 10.245455 26.095023 
L 10.37697 26.006911 
L 10.508485 25.953677 
L 10.64 25.9371 
L 10.771515 25.957865 
L 10.90303 26.015541 
L 11.034545 26.108609 
L 11.166061 26.234532 
L 11.297576 26.389871 
L 11.429091 26.570434 
L 11.560606 26.771452 
L 11.692121 26.987774 
L 11.823636 27.214065 
L 11.955152 27.445007 
L 12.086667 27.675483 
L 12.218182 27.90074 
L 12.349697 28.116531 
L 12.481212 28.31922 
L 12.612727 28.505863 
L 12.744242 28.674247 
L 12.875758 28.822904 
L 13.007273 28.951094 
L 13.138788 29.058767 
L 13.270303 29.146497 
L 13.401818 29.21541 
L 13.533333 29.267092 
L 13.664848 29.303496 
L 13.796364 29.326846 
L 13.927879 29.339535 
L 14.059394 29.344037 
L 14.190909 29.342812 
L 14.322424 29.338231 
L 14.453939 29.332503 
L 14.585455 29.327613 
L 14.71697 29.325278 
L 14.848485 29.326912 
L 14.98 29.333599 
L 15.111515 29.346088 
L 15.24303 29.364796 
L 15.374545 29.389823 
L 15.506061 29.420979 
L 15.637576 29.457819 
L 15.769091 29.499684 
L 15.900606 29.545749 
L 16.032121 29.595073 
L 16.163636 29.646648 
L 16.295152 29.699446 
L 16.426667 29.752462 
L 16.558182 29.804753 
L 16.689697 29.85547 
L 16.821212 29.903877 
L 16.952727 29.949372 
L 17.084242 29.991491 
L 17.215758 30.029912 
L 17.347273 30.064449 
L 17.478788 30.095043 
L 17.610303 30.121746 
L 17.741818 30.144707 
L 17.873333 30.164152 
L 18.004848 30.18037 
L 18.136364 30.193689 
L 18.267879 30.204463 
L 18.399394 30.213055 
L 18.530909 30.219827 
L 18.662424 30.225125 
L 18.793939 30.229272 
L 18.925455 30.232562 
L 19.05697 30.235252 
L 19.188485 30.237564 
L 19.32 30.239682 
L 19.32 30.366318 
L 19.32 30.366318 
L 19.188485 30.368436 
L 19.05697 30.370748 
L 18.925455 30.373438 
L 18.793939 30.376728 
L 18.662424 30.380875 
L 18.530909 30.386173 
L 18.399394 30.392945 
L 18.267879 30.401537 
L 18.136364 30.412311 
L 18.004848 30.42563 
L 17.873333 30.441848 
L 17.741818 30.461293 
L 17.610303 30.484254 
L 17.478788 30.510957 
L 17.347273 30.541551 
L 17.215758 30.576088 
L 17.084242 30.614509 
L 16.952727 30.656628 
L 16.821212 30.702123 
L 16.689697 30.75053 
L 16.558182 30.801247 
L 16.426667 30.853538 
L 16.295152 30.906554 
L 16.163636 30.959352 
L 16.032121 31.010927 
L 15.900606 31.060251 
L 15.769091 31.106316 
L 15.637576 31.148181 
L 15.506061 31.185021 
L 15.374545 31.216177 
L 15.24303 31.241204 
L 15.111515 31.259912 
L 14.98 31.272401 
L 14.848485 31.279088 
L 14.71697 31.280722 
L 14.585455 31.278387 
L 14.453939 31.273497 
L 14.322424 31.267769 
L 14.190909 31.263188 
L 14.059394 31.261963 
L 13.927879 31.266465 
L 13.796364 31.279154 
L 13.664848 31.302504 
L 13.533333 31.338908 
L 13.401818 31.39059 
L 13.270303 31.459503 
L 13.138788 31.547233 
L 13.007273 31.654906 
L 12.875758 31.783096 
L 12.744242 31.931753 
L 12.612727 32.100137 
L 12.481212 32.28678 
L 12.349697 32.489469 
L 12.218182 32.70526 
L 12.086667 32.930517 
L 11.955152 33.160993 
L 11.823636 33.391935 
L 11.692121 33.618226 
L 11.560606 33.834548 
L 11.429091 34.035566 
L 11.297576 34.216129 
L 11.166061 34.371468 
L 11.034545 34.497391 
L 10.90303 34.590459 
L 10.771515 34.648135 
L 10.64 34.6689 
L 10.508485 34.652323 
L 10.37697 34.599089 
L 10.245455 34.510977 
L 10.113939 34.39079 
L 9.982424 34.242246 
L 9.850909 34.069825 
L 9.719394 33.8786 
L 9.587879 33.674033 
L 9.456364 33.461777 
L 9.324848 33.247464 
L 9.193333 33.036517 
L 9.061818 32.833966 
L 8.930303 32.644301 
L 8.798788 32.471342 
L 8.667273 32.318148 
L 8.535758 32.186956 
L 8.404242 32.079152 
L 8.272727 31.995272 
L 8.141212 31.935034 
L 8.009697 31.897389 
L 7.878182 31.8806 
L 7.746667 31.882334 
L 7.615152 31.899769 
L 7.483636 31.92971 
L 7.352121 31.968718 
L 7.220606 32.013229 
L 7.089091 32.059685 
L 6.957576 32.10465 
L 6.826061 32.144928 
L 6.694545 32.177654 
L 6.56303 32.200386 
L 6.431515 32.211168 
L 6.3 32.208576 
z
" clip-path="url(#p3c9ca42eaa)" style="fill: #f0a394; fill-opacity: 0.5"/>
   </g>
   <g id="FillBetweenPolyCollection_4">
    <path d="M 6.3 40.02033 
L 6.3 39.98967 
L 6.650707 39.985491 
L 7.001414 39.979184 
L 7.352121 39.969663 
L 7.702828 39.955444 
L 8.053535 39.934569 
L 8.404242 39.904541 
L 8.754949 39.862298 
L 9.105657 39.804242 
L 9.456364 39.726341 
L 9.807071 39.624334 
L 10.157778 39.494051 
L 10.508485 39.331829 
L 10.859192 39.135017 
L 11.209899 38.90252 
L 11.560606 38.635305 
L 11.911313 38.336801 
L 12.26202 38.013084 
L 12.612727 37.672795 
L 12.963434 37.326735 
L 13.314141 36.987135 
L 13.664848 36.66667 
L 14.015556 36.377312 
L 14.366263 36.129187 
L 14.71697 35.929591 
L 15.067677 35.782334 
L 15.418384 35.687521 
L 15.769091 35.641807 
L 16.119798 35.6391 
L 16.470505 35.671586 
L 16.821212 35.730911 
L 17.171919 35.809311 
L 17.522626 35.90051 
L 17.873333 36.000249 
L 18.22404 36.106384 
L 18.574747 36.218581 
L 18.925455 36.337703 
L 19.276162 36.465054 
L 19.626869 36.60164 
L 19.977576 36.747594 
L 20.328283 36.901879 
L 20.67899 37.062293 
L 21.029697 37.225737 
L 21.380404 37.388676 
L 21.731111 37.547653 
L 22.081818 37.699757 
L 22.432525 37.842947 
L 22.783232 37.976172 
L 23.133939 38.099306 
L 23.484646 38.212923 
L 23.835354 38.317998 
L 24.186061 38.415601 
L 24.536768 38.506657 
L 24.887475 38.591818 
L 25.238182 38.671449 
L 25.588889 38.745719 
L 25.939596 38.814745 
L 26.290303 38.878735 
L 26.64101 38.938107 
L 26.991717 38.993523 
L 27.342424 39.045853 
L 27.693131 39.096067 
L 28.043838 39.145098 
L 28.394545 39.193695 
L 28.745253 39.242315 
L 29.09596 39.291067 
L 29.446667 39.339729 
L 29.797374 39.387816 
L 30.148081 39.434694 
L 30.498788 39.479709 
L 30.849495 39.522302 
L 31.200202 39.562088 
L 31.550909 39.5989 
L 31.901616 39.632773 
L 32.252323 39.663907 
L 32.60303 39.692597 
L 32.953737 39.719161 
L 33.304444 39.743886 
L 33.655152 39.766984 
L 34.005859 39.788582 
L 34.356566 39.808731 
L 34.707273 39.827433 
L 35.05798 39.844671 
L 35.408687 39.860443 
L 35.759394 39.87478 
L 36.110101 39.887758 
L 36.460808 39.899493 
L 36.811515 39.910128 
L 37.162222 39.919814 
L 37.512929 39.928689 
L 37.863636 39.936871 
L 38.214343 39.944441 
L 38.565051 39.951448 
L 38.915758 39.957914 
L 39.266465 39.963842 
L 39.617172 39.969228 
L 39.967879 39.974069 
L 40.318586 39.978374 
L 40.669293 39.982164 
L 41.02 39.985473 
L 41.02 40.024527 
L 41.02 40.024527 
L 40.669293 40.027836 
L 40.318586 40.031626 
L 39.967879 40.035931 
L 39.617172 40.040772 
L 39.266465 40.046158 
L 38.915758 40.052086 
L 38.565051 40.058552 
L 38.214343 40.065559 
L 37.863636 40.073129 
L 37.512929 40.081311 
L 37.162222 40.090186 
L 36.811515 40.099872 
L 36.460808 40.110507 
L 36.110101 40.122242 
L 35.759394 40.13522 
L 35.408687 40.149557 
L 35.05798 40.165329 
L 34.707273 40.182567 
L 34.356566 40.201269 
L 34.005859 40.221418 
L 33.655152 40.243016 
L 33.304444 40.266114 
L 32.953737 40.290839 
L 32.60303 40.317403 
L 32.252323 40.346093 
L 31.901616 40.377227 
L 31.550909 40.4111 
L 31.200202 40.447912 
L 30.849495 40.487698 
L 30.498788 40.530291 
L 30.148081 40.575306 
L 29.797374 40.622184 
L 29.446667 40.670271 
L 29.09596 40.718933 
L 28.745253 40.767685 
L 28.394545 40.816305 
L 28.043838 40.864902 
L 27.693131 40.913933 
L 27.342424 40.964147 
L 26.991717 41.016477 
L 26.64101 41.071893 
L 26.290303 41.131265 
L 25.939596 41.195255 
L 25.588889 41.264281 
L 25.238182 41.338551 
L 24.887475 41.418182 
L 24.536768 41.503343 
L 24.186061 41.594399 
L 23.835354 41.692002 
L 23.484646 41.797077 
L 23.133939 41.910694 
L 22.783232 42.033828 
L 22.432525 42.167053 
L 22.081818 42.310243 
L 21.731111 42.462347 
L 21.380404 42.621324 
L 21.029697 42.784263 
L 20.67899 42.947707 
L 20.328283 43.108121 
L 19.977576 43.262406 
L 19.626869 43.40836 
L 19.276162 43.544946 
L 18.925455 43.672297 
L 18.574747 43.791419 
L 18.22404 43.903616 
L 17.873333 44.009751 
L 17.522626 44.10949 
L 17.171919 44.200689 
L 16.821212 44.279089 
L 16.470505 44.338414 
L 16.119798 44.3709 
L 15.769091 44.368193 
L 15.418384 44.322479 
L 15.067677 44.227666 
L 14.71697 44.080409 
L 14.366263 43.880813 
L 14.015556 43.632688 
L 13.664848 43.34333 
L 13.314141 43.022865 
L 12.963434 42.683265 
L 12.612727 42.337205 
L 12.26202 41.996916 
L 11.911313 41.673199 
L 11.560606 41.374695 
L 11.209899 41.10748 
L 10.859192 40.874983 
L 10.508485 40.678171 
L 10.157778 40.515949 
L 9.807071 40.385666 
L 9.456364 40.283659 
L 9.105657 40.205758 
L 8.754949 40.147702 
L 8.404242 40.105459 
L 8.053535 40.075431 
L 7.702828 40.054556 
L 7.352121 40.040337 
L 7.001414 40.030816 
L 6.650707 40.024509 
L 6.3 40.02033 
z
" clip-path="url(#p3c9ca42eaa)" style="fill: #126175; fill-opacity: 0.5"/>
   </g>
   <g id="matplotlib.axis_1">
    <g id="xtick_1">
     <g id="line2d_1">
      <defs>
       <path id="m3fff24ac07" d="M 0 0 
L 0 1.7 
" style="stroke: #000000; stroke-width: 0.25"/>
      </defs>
      <g>
       <use xlink:href="#m3fff24ac07" x="6.3" y="45.856" style="stroke: #000000; stroke-width: 0.25"/>
      </g>
     </g>
     <g id="text_1">
      <text style="font-size: 6px; font-family: 'Arial'; text-anchor: middle" x="6.3" y="53.350687" transform="rotate(-0 6.3 53.350687)">0</text>
     </g>
    </g>
    <g id="xtick_2">
     <g id="line2d_2">
      <g>
       <use xlink:href="#m3fff24ac07" x="28" y="45.856" style="stroke: #000000; stroke-width: 0.25"/>
      </g>
     </g>
     <g id="text_2">
      <text style="font-size: 6px; font-family: 'Arial'; text-anchor: middle" x="28" y="53.350687" transform="rotate(-0 28 53.350687)">5</text>
     </g>
    </g>
    <g id="text_3">
     <text style="font-size: 8px; font-family: 'Arial'; text-anchor: middle" x="25.83" y="61.769437" transform="rotate(-0 25.83 61.769437)"># MNs active</text>
    </g>
   </g>
   <g id="matplotlib.axis_2">
    <g id="ytick_1">
     <g id="line2d_3">
      <defs>
       <path id="m6daa49d427" d="M 0 0 
L -1.7 0 
" style="stroke: #000000; stroke-width: 0.25"/>
      </defs>
      <g>
       <use xlink:href="#m6daa49d427" x="5.3" y="10.899" style="stroke: #000000; stroke-width: 0.25"/>
      </g>
     </g>
     <g id="text_4">
      <text style="font-size: 6px; font-family: 'Arial'; text-anchor: end" x="2.1" y="13.046344" transform="rotate(-0 2.1 13.046344)">none</text>
     </g>
    </g>
    <g id="ytick_2">
     <g id="line2d_4">
      <g>
       <use xlink:href="#m6daa49d427" x="5.3" y="20.601" style="stroke: #000000; stroke-width: 0.25"/>
      </g>
     </g>
     <g id="text_5">
      <text style="font-size: 6px; font-family: 'Arial'; text-anchor: end" x="2.1" y="22.748344" transform="rotate(-0 2.1 22.748344)">E1</text>
     </g>
    </g>
    <g id="ytick_3">
     <g id="line2d_5">
      <g>
       <use xlink:href="#m6daa49d427" x="5.3" y="30.303" style="stroke: #000000; stroke-width: 0.25"/>
      </g>
     </g>
     <g id="text_6">
      <text style="font-size: 6px; font-family: 'Arial'; text-anchor: end" x="2.1" y="32.450344" transform="rotate(-0 2.1 32.450344)">E2</text>
     </g>
    </g>
    <g id="ytick_4">
     <g id="line2d_6">
      <g>
       <use xlink:href="#m6daa49d427" x="5.3" y="40.005" style="stroke: #000000; stroke-width: 0.25"/>
      </g>
     </g>
     <g id="text_7">
      <text style="font-size: 6px; font-family: 'Arial'; text-anchor: end" x="2.1" y="42.152344" transform="rotate(-0 2.1 42.152344)">I1</text>
     </g>
    </g>
    <g id="text_8">
     <text style="font-size: 8px; font-family: 'Arial'; text-anchor: middle" x="-14.33625" y="25.452" transform="rotate(-90 -14.33625 25.452)">silenced neuron</text>
    </g>
   </g>
   <g id="patch_3">
    <path d="M 14.98 9.9288 
L 14.98 11.8692 
L 19.32 11.8692 
L 19.32 9.9288 
L 14.98 9.9288 
z
" clip-path="url(#p3c9ca42eaa)" style="fill: #306c53; stroke: #282828; stroke-width: 0.75; stroke-linejoin: miter"/>
   </g>
   <g id="line2d_7">
    <path d="M 14.98 10.899 
L 10.64 10.899 
" clip-path="url(#p3c9ca42eaa)" style="fill: none; stroke: #282828; stroke-width: 0.75"/>
   </g>
   <g id="line2d_8">
    <path d="M 19.32 10.899 
L 23.66 10.899 
" clip-path="url(#p3c9ca42eaa)" style="fill: none; stroke: #282828; stroke-width: 0.75"/>
   </g>
   <g id="line2d_9">
    <path d="M 10.64 10.4139 
L 10.64 11.3841 
" clip-path="url(#p3c9ca42eaa)" style="fill: none; stroke: #282828; stroke-width: 0.75; stroke-linecap: square"/>
   </g>
   <g id="line2d_10">
    <path d="M 23.66 10.4139 
L 23.66 11.3841 
" clip-path="url(#p3c9ca42eaa)" style="fill: none; stroke: #282828; stroke-width: 0.75; stroke-linecap: square"/>
   </g>
   <g id="patch_4">
    <path d="M 10.64 19.6308 
L 10.64 21.5712 
L 14.98 21.5712 
L 14.98 19.6308 
L 10.64 19.6308 
z
" clip-path="url(#p3c9ca42eaa)" style="fill: #c35843; stroke: #282828; stroke-width: 0.75; stroke-linejoin: miter"/>
   </g>
   <g id="line2d_11">
    <path d="M 10.64 20.601 
L 6.3 20.601 
" clip-path="url(#p3c9ca42eaa)" style="fill: none; stroke: #282828; stroke-width: 0.75"/>
   </g>
   <g id="line2d_12">
    <path d="M 14.98 20.601 
L 19.32 20.601 
" clip-path="url(#p3c9ca42eaa)" style="fill: none; stroke: #282828; stroke-width: 0.75"/>
   </g>
   <g id="line2d_13">
    <path d="M 6.3 20.1159 
L 6.3 21.0861 
" clip-path="url(#p3c9ca42eaa)" style="fill: none; stroke: #282828; stroke-width: 0.75; stroke-linecap: square"/>
   </g>
   <g id="line2d_14">
    <path d="M 19.32 20.1159 
L 19.32 21.0861 
" clip-path="url(#p3c9ca42eaa)" style="fill: none; stroke: #282828; stroke-width: 0.75; stroke-linecap: square"/>
   </g>
   <g id="patch_5">
    <path d="M 6.3 29.3328 
L 6.3 31.2732 
L 10.64 31.2732 
L 10.64 29.3328 
L 6.3 29.3328 
z
" clip-path="url(#p3c9ca42eaa)" style="fill: #f0a394; stroke: #282828; stroke-width: 0.75; stroke-linejoin: miter"/>
   </g>
   <g id="line2d_15">
    <path d="M 6.3 30.303 
L 6.3 30.303 
" clip-path="url(#p3c9ca42eaa)" style="fill: none; stroke: #282828; stroke-width: 0.75"/>
   </g>
   <g id="line2d_16">
    <path d="M 10.64 30.303 
L 14.98 30.303 
" clip-path="url(#p3c9ca42eaa)" style="fill: none; stroke: #282828; stroke-width: 0.75"/>
   </g>
   <g id="line2d_17">
    <path d="M 6.3 29.8179 
L 6.3 30.7881 
" clip-path="url(#p3c9ca42eaa)" style="fill: none; stroke: #282828; stroke-width: 0.75; stroke-linecap: square"/>
   </g>
   <g id="line2d_18">
    <path d="M 14.98 29.8179 
L 14.98 30.7881 
" clip-path="url(#p3c9ca42eaa)" style="fill: none; stroke: #282828; stroke-width: 0.75; stroke-linecap: square"/>
   </g>
   <g id="patch_6">
    <path d="M 14.98 39.0348 
L 14.98 40.9752 
L 19.32 40.9752 
L 19.32 39.0348 
L 14.98 39.0348 
z
" clip-path="url(#p3c9ca42eaa)" style="fill: #126175; stroke: #282828; stroke-width: 0.75; stroke-linejoin: miter"/>
   </g>
   <g id="line2d_19">
    <path d="M 14.98 40.005 
L 10.64 40.005 
" clip-path="url(#p3c9ca42eaa)" style="fill: none; stroke: #282828; stroke-width: 0.75"/>
   </g>
   <g id="line2d_20">
    <path d="M 19.32 40.005 
L 23.66 40.005 
" clip-path="url(#p3c9ca42eaa)" style="fill: none; stroke: #282828; stroke-width: 0.75"/>
   </g>
   <g id="line2d_21">
    <path d="M 10.64 39.5199 
L 10.64 40.4901 
" clip-path="url(#p3c9ca42eaa)" style="fill: none; stroke: #282828; stroke-width: 0.75; stroke-linecap: square"/>
   </g>
   <g id="line2d_22">
    <path d="M 23.66 39.5199 
L 23.66 40.4901 
" clip-path="url(#p3c9ca42eaa)" style="fill: none; stroke: #282828; stroke-width: 0.75; stroke-linecap: square"/>
   </g>
   <g id="line2d_23">
    <path d="M 19.32 9.9288 
L 19.32 11.8692 
" clip-path="url(#p3c9ca42eaa)" style="fill: none; stroke: #282828; stroke-width: 0.75"/>
   </g>
   <g id="line2d_24">
    <path d="M 14.98 19.6308 
L 14.98 21.5712 
" clip-path="url(#p3c9ca42eaa)" style="fill: none; stroke: #282828; stroke-width: 0.75"/>
   </g>
   <g id="line2d_25">
    <path d="M 10.64 29.3328 
L 10.64 31.2732 
" clip-path="url(#p3c9ca42eaa)" style="fill: none; stroke: #282828; stroke-width: 0.75"/>
   </g>
   <g id="line2d_26">
    <path d="M 19.32 39.0348 
L 19.32 40.9752 
" clip-path="url(#p3c9ca42eaa)" style="fill: none; stroke: #282828; stroke-width: 0.75"/>
   </g>
   <g id="patch_7">
    <path d="M 5.3 44.856 
L 5.3 6.048 
" style="fill: none; stroke: #000000; stroke-width: 0.25; stroke-linejoin: miter; stroke-linecap: square"/>
   </g>
   <g id="patch_8">
    <path d="M 6.3 45.856 
L 45.36 45.856 
" style="fill: none; stroke: #000000; stroke-width: 0.25; stroke-linejoin: miter; stroke-linecap: square"/>
   </g>
  </g>
 </g>
 <defs>
  <clipPath id="p3c9ca42eaa">
   <rect x="6.3" y="6.048" width="39.06" height="38.808"/>
  </clipPath>
 </defs>
</svg>
