<?xml version="1.0" encoding="utf-8" standalone="no"?>
<!DOCTYPE svg PUBLIC "-//W3C//DTD SVG 1.1//EN"
  "http://www.w3.org/Graphics/SVG/1.1/DTD/svg11.dtd">
<svg xmlns:xlink="http://www.w3.org/1999/xlink" width="50.4pt" height="64.8pt" viewBox="0 0 50.4 64.8" xmlns="http://www.w3.org/2000/svg" version="1.1">
 <metadata>
  <rdf:RDF xmlns:dc="http://purl.org/dc/elements/1.1/" xmlns:cc="http://creativecommons.org/ns#" xmlns:rdf="http://www.w3.org/1999/02/22-rdf-syntax-ns#">
   <cc:Work>
    <dc:type rdf:resource="http://purl.org/dc/dcmitype/StillImage"/>
    <dc:date>2025-09-04T00:39:08.700922</dc:date>
    <dc:format>image/svg+xml</dc:format>
    <dc:creator>
     <cc:Agent>
      <dc:title>Matplotlib v3.10.3, https://matplotlib.org/</dc:title>
     </cc:Agent>
    </dc:creator>
   </cc:Work>
  </rdf:RDF>
 </metadata>
 <defs>
  <style type="text/css">*{stroke-linejoin: round; stroke-linecap: butt}</style>
 </defs>
 <g id="figure_1">
  <g id="patch_1">
   <path d="M 0 64.8 
L 50.4 64.8 
L 50.4 0 
L 0 0 
L 0 64.8 
z
" style="fill: none"/>
  </g>
  <g id="axes_1">
   <g id="patch_2">
    <path d="M 6.3 57.672 
L 45.36 57.672 
L 45.36 7.776 
L 6.3 7.776 
L 6.3 57.672 
z
" style="fill: none"/>
   </g>
   <g id="FillBetweenPolyCollection_1">
    <path d="M 6.3 14.027693 
L 6.3 13.998307 
L 6.515207 13.997274 
L 6.730413 13.996106 
L 6.94562 13.994692 
L 7.160826 13.992891 
L 7.376033 13.990524 
L 7.59124 13.987361 
L 7.806446 13.983097 
L 8.021653 13.977311 
L 8.23686 13.969404 
L 8.452066 13.958522 
L 8.667273 13.943454 
L 8.882479 13.922514 
L 9.097686 13.893427 
L 9.312893 13.853226 
L 9.528099 13.79819 
L 9.743306 13.723861 
L 9.958512 13.625158 
L 10.173719 13.496625 
L 10.388926 13.332843 
L 10.604132 13.128972 
L 10.819339 12.881436 
L 11.034545 12.58866 
L 11.249752 12.251793 
L 11.464959 11.875286 
L 11.680165 11.467228 
L 11.895372 11.0393 
L 12.110579 10.606292 
L 12.325785 10.185143 
L 12.540992 9.793554 
L 12.756198 9.448303 
L 12.971405 9.163439 
L 13.186612 8.948607 
L 13.401818 8.807736 
L 13.617025 8.738322 
L 13.832231 8.731464 
L 14.047438 8.772687 
L 14.262645 8.843526 
L 14.477851 8.923666 
L 14.693058 8.993408 
L 14.908264 9.036113 
L 15.123471 9.040315 
L 15.338678 9.001198 
L 15.553884 8.92124 
L 15.769091 8.809918 
L 15.984298 8.682508 
L 16.199504 8.558145 
L 16.414711 8.4574 
L 16.629917 8.3997 
L 16.845124 8.400936 
L 17.060331 8.471575 
L 17.275537 8.615507 
L 17.490744 8.829753 
L 17.70595 9.105027 
L 17.921157 9.427052 
L 18.136364 9.778382 
L 18.35157 10.140492 
L 18.566777 10.495812 
L 18.781983 10.829476 
L 18.99719 11.13056 
L 19.212397 11.392727 
L 19.427603 11.614239 
L 19.64281 11.797425 
L 19.858017 11.947721 
L 20.073223 12.072477 
L 20.28843 12.179699 
L 20.503636 12.276915 
L 20.718843 12.370272 
L 20.93405 12.463981 
L 21.149256 12.560103 
L 21.364463 12.658677 
L 21.579669 12.75811 
L 21.794876 12.855749 
L 22.010083 12.948517 
L 22.225289 13.033518 
L 22.440496 13.108543 
L 22.655702 13.172395 
L 22.870909 13.225031 
L 23.086116 13.267515 
L 23.301322 13.301815 
L 23.516529 13.330483 
L 23.731736 13.356297 
L 23.946942 13.381898 
L 24.162149 13.40948 
L 24.377355 13.440578 
L 24.592562 13.47596 
L 24.807769 13.515624 
L 25.022975 13.558899 
L 25.238182 13.60461 
L 25.453388 13.651282 
L 25.668595 13.697355 
L 25.883802 13.74137 
L 26.099008 13.782118 
L 26.314215 13.81873 
L 26.529421 13.850718 
L 26.744628 13.877956 
L 26.959835 13.900632 
L 27.175041 13.919167 
L 27.390248 13.934129 
L 27.605455 13.946151 
L 27.605455 14.079849 
L 27.605455 14.079849 
L 27.390248 14.091871 
L 27.175041 14.106833 
L 26.959835 14.125368 
L 26.744628 14.148044 
L 26.529421 14.175282 
L 26.314215 14.20727 
L 26.099008 14.243882 
L 25.883802 14.28463 
L 25.668595 14.328645 
L 25.453388 14.374718 
L 25.238182 14.42139 
L 25.022975 14.467101 
L 24.807769 14.510376 
L 24.592562 14.55004 
L 24.377355 14.585422 
L 24.162149 14.61652 
L 23.946942 14.644102 
L 23.731736 14.669703 
L 23.516529 14.695517 
L 23.301322 14.724185 
L 23.086116 14.758485 
L 22.870909 14.800969 
L 22.655702 14.853605 
L 22.440496 14.917457 
L 22.225289 14.992482 
L 22.010083 15.077483 
L 21.794876 15.170251 
L 21.579669 15.26789 
L 21.364463 15.367323 
L 21.149256 15.465897 
L 20.93405 15.562019 
L 20.718843 15.655728 
L 20.503636 15.749085 
L 20.28843 15.846301 
L 20.073223 15.953523 
L 19.858017 16.078279 
L 19.64281 16.228575 
L 19.427603 16.411761 
L 19.212397 16.633273 
L 18.99719 16.89544 
L 18.781983 17.196524 
L 18.566777 17.530188 
L 18.35157 17.885508 
L 18.136364 18.247618 
L 17.921157 18.598948 
L 17.70595 18.920973 
L 17.490744 19.196247 
L 17.275537 19.410493 
L 17.060331 19.554425 
L 16.845124 19.625064 
L 16.629917 19.6263 
L 16.414711 19.5686 
L 16.199504 19.467855 
L 15.984298 19.343492 
L 15.769091 19.216082 
L 15.553884 19.10476 
L 15.338678 19.024802 
L 15.123471 18.985685 
L 14.908264 18.989887 
L 14.693058 19.032592 
L 14.477851 19.102334 
L 14.262645 19.182474 
L 14.047438 19.253313 
L 13.832231 19.294536 
L 13.617025 19.287678 
L 13.401818 19.218264 
L 13.186612 19.077393 
L 12.971405 18.862561 
L 12.756198 18.577697 
L 12.540992 18.232446 
L 12.325785 17.840857 
L 12.110579 17.419708 
L 11.895372 16.9867 
L 11.680165 16.558772 
L 11.464959 16.150714 
L 11.249752 15.774207 
L 11.034545 15.43734 
L 10.819339 15.144564 
L 10.604132 14.897028 
L 10.388926 14.693157 
L 10.173719 14.529375 
L 9.958512 14.400842 
L 9.743306 14.302139 
L 9.528099 14.22781 
L 9.312893 14.172774 
L 9.097686 14.132573 
L 8.882479 14.103486 
L 8.667273 14.082546 
L 8.452066 14.067478 
L 8.23686 14.056596 
L 8.021653 14.048689 
L 7.806446 14.042903 
L 7.59124 14.038639 
L 7.376033 14.035476 
L 7.160826 14.033109 
L 6.94562 14.031308 
L 6.730413 14.029894 
L 6.515207 14.028726 
L 6.3 14.027693 
z
" clip-path="url(#p02c7e34fb8)" style="fill: #306c53; fill-opacity: 0.5"/>
   </g>
   <g id="FillBetweenPolyCollection_2">
    <path d="M 6.3 27.684808 
L 6.3 25.289192 
L 6.407603 25.269408 
L 6.515207 25.252139 
L 6.62281 25.236627 
L 6.730413 25.221973 
L 6.838017 25.207155 
L 6.94562 25.191059 
L 7.053223 25.172511 
L 7.160826 25.150315 
L 7.26843 25.123292 
L 7.376033 25.090326 
L 7.483636 25.050406 
L 7.59124 25.00267 
L 7.698843 24.946444 
L 7.806446 24.88128 
L 7.91405 24.806987 
L 8.021653 24.723651 
L 8.129256 24.631654 
L 8.23686 24.531672 
L 8.344463 24.424677 
L 8.452066 24.311915 
L 8.559669 24.194878 
L 8.667273 24.07527 
L 8.774876 23.95495 
L 8.882479 23.835884 
L 8.990083 23.720076 
L 9.097686 23.609498 
L 9.205289 23.506023 
L 9.312893 23.411348 
L 9.420496 23.326932 
L 9.528099 23.253926 
L 9.635702 23.193127 
L 9.743306 23.144925 
L 9.850909 23.109277 
L 9.958512 23.085693 
L 10.066116 23.073228 
L 10.173719 23.070506 
L 10.281322 23.075747 
L 10.388926 23.086819 
L 10.496529 23.101299 
L 10.604132 23.116549 
L 10.711736 23.129809 
L 10.819339 23.138282 
L 10.926942 23.139243 
L 11.034545 23.130134 
L 11.142149 23.108666 
L 11.249752 23.072909 
L 11.357355 23.021377 
L 11.464959 22.953101 
L 11.572562 22.86768 
L 11.680165 22.765323 
L 11.787769 22.646861 
L 11.895372 22.513753 
L 12.002975 22.368053 
L 12.110579 22.212369 
L 12.218182 22.049795 
L 12.325785 21.883832 
L 12.433388 21.718283 
L 12.540992 21.557149 
L 12.648595 21.404503 
L 12.756198 21.264368 
L 12.863802 21.140594 
L 12.971405 21.036742 
L 13.079008 20.955967 
L 13.186612 20.900927 
L 13.294215 20.8737 
L 13.401818 20.875725 
L 13.509421 20.907762 
L 13.617025 20.969877 
L 13.724628 21.061447 
L 13.832231 21.181191 
L 13.939835 21.327223 
L 14.047438 21.497116 
L 14.155041 21.687989 
L 14.262645 21.896605 
L 14.370248 22.119471 
L 14.477851 22.352947 
L 14.585455 22.593355 
L 14.693058 22.837077 
L 14.800661 23.080657 
L 14.908264 23.320876 
L 15.015868 23.55483 
L 15.123471 23.779984 
L 15.231074 23.994208 
L 15.338678 24.195808 
L 15.446281 24.383529 
L 15.553884 24.556554 
L 15.661488 24.714478 
L 15.769091 24.857285 
L 15.876694 24.985301 
L 15.984298 25.099155 
L 16.091901 25.199719 
L 16.199504 25.288062 
L 16.307107 25.365389 
L 16.414711 25.432996 
L 16.522314 25.492213 
L 16.629917 25.544364 
L 16.737521 25.590726 
L 16.845124 25.632497 
L 16.952727 25.670768 
L 16.952727 27.303232 
L 16.952727 27.303232 
L 16.845124 27.341503 
L 16.737521 27.383274 
L 16.629917 27.429636 
L 16.522314 27.481787 
L 16.414711 27.541004 
L 16.307107 27.608611 
L 16.199504 27.685938 
L 16.091901 27.774281 
L 15.984298 27.874845 
L 15.876694 27.988699 
L 15.769091 28.116715 
L 15.661488 28.259522 
L 15.553884 28.417446 
L 15.446281 28.590471 
L 15.338678 28.778192 
L 15.231074 28.979792 
L 15.123471 29.194016 
L 15.015868 29.41917 
L 14.908264 29.653124 
L 14.800661 29.893343 
L 14.693058 30.136923 
L 14.585455 30.380645 
L 14.477851 30.621053 
L 14.370248 30.854529 
L 14.262645 31.077395 
L 14.155041 31.286011 
L 14.047438 31.476884 
L 13.939835 31.646777 
L 13.832231 31.792809 
L 13.724628 31.912553 
L 13.617025 32.004123 
L 13.509421 32.066238 
L 13.401818 32.098275 
L 13.294215 32.1003 
L 13.186612 32.073073 
L 13.079008 32.018033 
L 12.971405 31.937258 
L 12.863802 31.833406 
L 12.756198 31.709632 
L 12.648595 31.569497 
L 12.540992 31.416851 
L 12.433388 31.255717 
L 12.325785 31.090168 
L 12.218182 30.924205 
L 12.110579 30.761631 
L 12.002975 30.605947 
L 11.895372 30.460247 
L 11.787769 30.327139 
L 11.680165 30.208677 
L 11.572562 30.10632 
L 11.464959 30.020899 
L 11.357355 29.952623 
L 11.249752 29.901091 
L 11.142149 29.865334 
L 11.034545 29.843866 
L 10.926942 29.834757 
L 10.819339 29.835718 
L 10.711736 29.844191 
L 10.604132 29.857451 
L 10.496529 29.872701 
L 10.388926 29.887181 
L 10.281322 29.898253 
L 10.173719 29.903494 
L 10.066116 29.900772 
L 9.958512 29.888307 
L 9.850909 29.864723 
L 9.743306 29.829075 
L 9.635702 29.780873 
L 9.528099 29.720074 
L 9.420496 29.647068 
L 9.312893 29.562652 
L 9.205289 29.467977 
L 9.097686 29.364502 
L 8.990083 29.253924 
L 8.882479 29.138116 
L 8.774876 29.01905 
L 8.667273 28.89873 
L 8.559669 28.779122 
L 8.452066 28.662085 
L 8.344463 28.549323 
L 8.23686 28.442328 
L 8.129256 28.342346 
L 8.021653 28.250349 
L 7.91405 28.167013 
L 7.806446 28.09272 
L 7.698843 28.027556 
L 7.59124 27.97133 
L 7.483636 27.923594 
L 7.376033 27.883674 
L 7.26843 27.850708 
L 7.160826 27.823685 
L 7.053223 27.801489 
L 6.94562 27.782941 
L 6.838017 27.766845 
L 6.730413 27.752027 
L 6.62281 27.737373 
L 6.515207 27.721861 
L 6.407603 27.704592 
L 6.3 27.684808 
z
" clip-path="url(#p02c7e34fb8)" style="fill: #c35843; fill-opacity: 0.5"/>
   </g>
   <g id="FillBetweenPolyCollection_3">
    <path d="M 6.3 41.411027 
L 6.3 36.510973 
L 6.407603 36.507641 
L 6.515207 36.521504 
L 6.62281 36.550731 
L 6.730413 36.592807 
L 6.838017 36.644592 
L 6.94562 36.702405 
L 7.053223 36.762134 
L 7.160826 36.819363 
L 7.26843 36.869515 
L 7.376033 36.908012 
L 7.483636 36.930428 
L 7.59124 36.932657 
L 7.698843 36.911071 
L 7.806446 36.862671 
L 7.91405 36.785222 
L 8.021653 36.677377 
L 8.129256 36.538771 
L 8.23686 36.370096 
L 8.344463 36.173132 
L 8.452066 35.950756 
L 8.559669 35.706901 
L 8.667273 35.446479 
L 8.774876 35.175261 
L 8.882479 34.899716 
L 8.990083 34.626815 
L 9.097686 34.3638 
L 9.205289 34.117939 
L 9.312893 33.896256 
L 9.420496 33.705269 
L 9.528099 33.550743 
L 9.635702 33.437457 
L 9.743306 33.369013 
L 9.850909 33.3477 
L 9.958512 33.374398 
L 10.066116 33.448553 
L 10.173719 33.568211 
L 10.281322 33.730113 
L 10.388926 33.929834 
L 10.496529 34.161987 
L 10.604132 34.420439 
L 10.711736 34.698566 
L 10.819339 34.989512 
L 10.926942 35.286438 
L 11.034545 35.582764 
L 11.142149 35.87238 
L 11.249752 36.149825 
L 11.357355 36.410426 
L 11.464959 36.650395 
L 11.572562 36.866889 
L 11.680165 37.058019 
L 11.787769 37.222836 
L 11.895372 37.361272 
L 12.002975 37.474068 
L 12.110579 37.56267 
L 12.218182 37.629118 
L 12.325785 37.675923 
L 12.433388 37.705944 
L 12.540992 37.72226 
L 12.648595 37.728048 
L 12.756198 37.726473 
L 12.863802 37.720583 
L 12.971405 37.713218 
L 13.079008 37.706931 
L 13.186612 37.703929 
L 13.294215 37.70603 
L 13.401818 37.714627 
L 13.509421 37.730685 
L 13.617025 37.754738 
L 13.724628 37.786916 
L 13.832231 37.826974 
L 13.939835 37.874339 
L 14.047438 37.928165 
L 14.155041 37.987391 
L 14.262645 38.050808 
L 14.370248 38.117119 
L 14.477851 38.185001 
L 14.585455 38.253165 
L 14.693058 38.320397 
L 14.800661 38.385604 
L 14.908264 38.447842 
L 15.015868 38.506335 
L 15.123471 38.560488 
L 15.231074 38.609887 
L 15.338678 38.654292 
L 15.446281 38.693627 
L 15.553884 38.727959 
L 15.661488 38.75748 
L 15.769091 38.782482 
L 15.876694 38.803333 
L 15.984298 38.820457 
L 16.091901 38.834309 
L 16.199504 38.845357 
L 16.307107 38.854064 
L 16.414711 38.860876 
L 16.522314 38.866207 
L 16.629917 38.870436 
L 16.737521 38.873895 
L 16.845124 38.876868 
L 16.952727 38.879592 
L 16.952727 39.042408 
L 16.952727 39.042408 
L 16.845124 39.045132 
L 16.737521 39.048105 
L 16.629917 39.051564 
L 16.522314 39.055793 
L 16.414711 39.061124 
L 16.307107 39.067936 
L 16.199504 39.076643 
L 16.091901 39.087691 
L 15.984298 39.101543 
L 15.876694 39.118667 
L 15.769091 39.139518 
L 15.661488 39.16452 
L 15.553884 39.194041 
L 15.446281 39.228373 
L 15.338678 39.267708 
L 15.231074 39.312113 
L 15.123471 39.361512 
L 15.015868 39.415665 
L 14.908264 39.474158 
L 14.800661 39.536396 
L 14.693058 39.601603 
L 14.585455 39.668835 
L 14.477851 39.736999 
L 14.370248 39.804881 
L 14.262645 39.871192 
L 14.155041 39.934609 
L 14.047438 39.993835 
L 13.939835 40.047661 
L 13.832231 40.095026 
L 13.724628 40.135084 
L 13.617025 40.167262 
L 13.509421 40.191315 
L 13.401818 40.207373 
L 13.294215 40.21597 
L 13.186612 40.218071 
L 13.079008 40.215069 
L 12.971405 40.208782 
L 12.863802 40.201417 
L 12.756198 40.195527 
L 12.648595 40.193952 
L 12.540992 40.19974 
L 12.433388 40.216056 
L 12.325785 40.246077 
L 12.218182 40.292882 
L 12.110579 40.35933 
L 12.002975 40.447932 
L 11.895372 40.560728 
L 11.787769 40.699164 
L 11.680165 40.863981 
L 11.572562 41.055111 
L 11.464959 41.271605 
L 11.357355 41.511574 
L 11.249752 41.772175 
L 11.142149 42.04962 
L 11.034545 42.339236 
L 10.926942 42.635562 
L 10.819339 42.932488 
L 10.711736 43.223434 
L 10.604132 43.501561 
L 10.496529 43.760013 
L 10.388926 43.992166 
L 10.281322 44.191887 
L 10.173719 44.353789 
L 10.066116 44.473447 
L 9.958512 44.547602 
L 9.850909 44.5743 
L 9.743306 44.552987 
L 9.635702 44.484543 
L 9.528099 44.371257 
L 9.420496 44.216731 
L 9.312893 44.025744 
L 9.205289 43.804061 
L 9.097686 43.5582 
L 8.990083 43.295185 
L 8.882479 43.022284 
L 8.774876 42.746739 
L 8.667273 42.475521 
L 8.559669 42.215099 
L 8.452066 41.971244 
L 8.344463 41.748868 
L 8.23686 41.551904 
L 8.129256 41.383229 
L 8.021653 41.244623 
L 7.91405 41.136778 
L 7.806446 41.059329 
L 7.698843 41.010929 
L 7.59124 40.989343 
L 7.483636 40.991572 
L 7.376033 41.013988 
L 7.26843 41.052485 
L 7.160826 41.102637 
L 7.053223 41.159866 
L 6.94562 41.219595 
L 6.838017 41.277408 
L 6.730413 41.329193 
L 6.62281 41.371269 
L 6.515207 41.400496 
L 6.407603 41.414359 
L 6.3 41.411027 
z
" clip-path="url(#p02c7e34fb8)" style="fill: #f0a394; fill-opacity: 0.5"/>
   </g>
   <g id="FillBetweenPolyCollection_4">
    <path d="M 6.3 51.45471 
L 6.3 51.41529 
L 6.586942 51.409917 
L 6.873884 51.401808 
L 7.160826 51.389566 
L 7.447769 51.371285 
L 7.734711 51.344445 
L 8.021653 51.305838 
L 8.308595 51.251527 
L 8.595537 51.176883 
L 8.882479 51.076724 
L 9.169421 50.945573 
L 9.456364 50.778066 
L 9.743306 50.569494 
L 10.030248 50.31645 
L 10.31719 50.017525 
L 10.604132 49.673964 
L 10.891074 49.290173 
L 11.178017 48.873965 
L 11.464959 48.436451 
L 11.751901 47.991516 
L 12.038843 47.554888 
L 12.325785 47.142861 
L 12.612727 46.77083 
L 12.899669 46.451812 
L 13.186612 46.195188 
L 13.473554 46.005858 
L 13.760496 45.883956 
L 14.047438 45.825181 
L 14.33438 45.8217 
L 14.621322 45.863468 
L 14.908264 45.939743 
L 15.195207 46.040543 
L 15.482149 46.157798 
L 15.769091 46.286034 
L 16.056033 46.422494 
L 16.342975 46.566746 
L 16.629917 46.719903 
L 16.91686 46.883641 
L 17.203802 47.059252 
L 17.490744 47.246907 
L 17.777686 47.445274 
L 18.064628 47.65152 
L 18.35157 47.861662 
L 18.638512 48.071155 
L 18.925455 48.275554 
L 19.212397 48.471117 
L 19.499339 48.655218 
L 19.786281 48.826507 
L 20.073223 48.984822 
L 20.360165 49.130901 
L 20.647107 49.265998 
L 20.93405 49.391488 
L 21.220992 49.508559 
L 21.507934 49.618051 
L 21.794876 49.720434 
L 22.081818 49.815925 
L 22.36876 49.904672 
L 22.655702 49.986945 
L 22.942645 50.063281 
L 23.229587 50.13453 
L 23.516529 50.20181 
L 23.803471 50.266371 
L 24.090413 50.329411 
L 24.377355 50.391893 
L 24.664298 50.454405 
L 24.95124 50.517087 
L 25.238182 50.579652 
L 25.525124 50.641478 
L 25.812066 50.701749 
L 26.099008 50.759626 
L 26.38595 50.814388 
L 26.672893 50.865542 
L 26.959835 50.912871 
L 27.246777 50.956422 
L 27.533719 50.996452 
L 27.820661 51.033338 
L 28.107603 51.067493 
L 28.394545 51.099282 
L 28.681488 51.128979 
L 28.96843 51.156748 
L 29.255372 51.182655 
L 29.542314 51.2067 
L 29.829256 51.228863 
L 30.116198 51.24914 
L 30.40314 51.267574 
L 30.690083 51.28426 
L 30.977025 51.299349 
L 31.263967 51.313022 
L 31.550909 51.325475 
L 31.837851 51.336886 
L 32.124793 51.347405 
L 32.411736 51.357138 
L 32.698678 51.366147 
L 32.98562 51.374461 
L 33.272562 51.382083 
L 33.559504 51.389007 
L 33.846446 51.395232 
L 34.133388 51.400767 
L 34.420331 51.405639 
L 34.707273 51.409894 
L 34.707273 51.460106 
L 34.707273 51.460106 
L 34.420331 51.464361 
L 34.133388 51.469233 
L 33.846446 51.474768 
L 33.559504 51.480993 
L 33.272562 51.487917 
L 32.98562 51.495539 
L 32.698678 51.503853 
L 32.411736 51.512862 
L 32.124793 51.522595 
L 31.837851 51.533114 
L 31.550909 51.544525 
L 31.263967 51.556978 
L 30.977025 51.570651 
L 30.690083 51.58574 
L 30.40314 51.602426 
L 30.116198 51.62086 
L 29.829256 51.641137 
L 29.542314 51.6633 
L 29.255372 51.687345 
L 28.96843 51.713252 
L 28.681488 51.741021 
L 28.394545 51.770718 
L 28.107603 51.802507 
L 27.820661 51.836662 
L 27.533719 51.873548 
L 27.246777 51.913578 
L 26.959835 51.957129 
L 26.672893 52.004458 
L 26.38595 52.055612 
L 26.099008 52.110374 
L 25.812066 52.168251 
L 25.525124 52.228522 
L 25.238182 52.290348 
L 24.95124 52.352913 
L 24.664298 52.415595 
L 24.377355 52.478107 
L 24.090413 52.540589 
L 23.803471 52.603629 
L 23.516529 52.66819 
L 23.229587 52.73547 
L 22.942645 52.806719 
L 22.655702 52.883055 
L 22.36876 52.965328 
L 22.081818 53.054075 
L 21.794876 53.149566 
L 21.507934 53.251949 
L 21.220992 53.361441 
L 20.93405 53.478512 
L 20.647107 53.604002 
L 20.360165 53.739099 
L 20.073223 53.885178 
L 19.786281 54.043493 
L 19.499339 54.214782 
L 19.212397 54.398883 
L 18.925455 54.594446 
L 18.638512 54.798845 
L 18.35157 55.008338 
L 18.064628 55.21848 
L 17.777686 55.424726 
L 17.490744 55.623093 
L 17.203802 55.810748 
L 16.91686 55.986359 
L 16.629917 56.150097 
L 16.342975 56.303254 
L 16.056033 56.447506 
L 15.769091 56.583966 
L 15.482149 56.712202 
L 15.195207 56.829457 
L 14.908264 56.930257 
L 14.621322 57.006532 
L 14.33438 57.0483 
L 14.047438 57.044819 
L 13.760496 56.986044 
L 13.473554 56.864142 
L 13.186612 56.674812 
L 12.899669 56.418188 
L 12.612727 56.09917 
L 12.325785 55.727139 
L 12.038843 55.315112 
L 11.751901 54.878484 
L 11.464959 54.433549 
L 11.178017 53.996035 
L 10.891074 53.579827 
L 10.604132 53.196036 
L 10.31719 52.852475 
L 10.030248 52.55355 
L 9.743306 52.300506 
L 9.456364 52.091934 
L 9.169421 51.924427 
L 8.882479 51.793276 
L 8.595537 51.693117 
L 8.308595 51.618473 
L 8.021653 51.564162 
L 7.734711 51.525555 
L 7.447769 51.498715 
L 7.160826 51.480434 
L 6.873884 51.468192 
L 6.586942 51.460083 
L 6.3 51.45471 
z
" clip-path="url(#p02c7e34fb8)" style="fill: #126175; fill-opacity: 0.5"/>
   </g>
   <g id="matplotlib.axis_1">
    <g id="xtick_1">
     <g id="line2d_1">
      <defs>
       <path id="ma205afb475" d="M 0 0 
L 0 1.7 
" style="stroke: #000000; stroke-width: 0.25"/>
      </defs>
      <g>
       <use xlink:href="#ma205afb475" x="6.3" y="58.672" style="stroke: #000000; stroke-width: 0.25"/>
      </g>
     </g>
     <g id="text_1">
      <text style="font-size: 6px; font-family: 'Arial'; text-anchor: middle" x="6.3" y="66.166687" transform="rotate(-0 6.3 66.166687)">0</text>
     </g>
    </g>
    <g id="xtick_2">
     <g id="line2d_2">
      <g>
       <use xlink:href="#ma205afb475" x="24.054545" y="58.672" style="stroke: #000000; stroke-width: 0.25"/>
      </g>
     </g>
     <g id="text_2">
      <text style="font-size: 6px; font-family: 'Arial'; text-anchor: middle" x="24.054545" y="66.166687" transform="rotate(-0 24.054545 66.166687)">5</text>
     </g>
    </g>
    <g id="xtick_3">
     <g id="line2d_3">
      <g>
       <use xlink:href="#ma205afb475" x="41.809091" y="58.672" style="stroke: #000000; stroke-width: 0.25"/>
      </g>
     </g>
     <g id="text_3">
      <text style="font-size: 6px; font-family: 'Arial'; text-anchor: middle" x="41.809091" y="66.166687" transform="rotate(-0 41.809091 66.166687)">10</text>
     </g>
    </g>
    <g id="text_4">
     <text style="font-size: 8px; font-family: 'Arial'; text-anchor: middle" x="25.83" y="74.585437" transform="rotate(-0 25.83 74.585437)"># MNs active</text>
    </g>
   </g>
   <g id="matplotlib.axis_2">
    <g id="ytick_1">
     <g id="line2d_4">
      <defs>
       <path id="mc9de311442" d="M 0 0 
L -1.7 0 
" style="stroke: #000000; stroke-width: 0.25"/>
      </defs>
      <g>
       <use xlink:href="#mc9de311442" x="4.3" y="14.013" style="stroke: #000000; stroke-width: 0.25"/>
      </g>
     </g>
     <g id="text_5">
      <text style="font-size: 6px; font-family: 'Arial'; text-anchor: end" x="1.1" y="16.160344" transform="rotate(-0 1.1 16.160344)">none</text>
     </g>
    </g>
    <g id="ytick_2">
     <g id="line2d_5">
      <g>
       <use xlink:href="#mc9de311442" x="4.3" y="26.487" style="stroke: #000000; stroke-width: 0.25"/>
      </g>
     </g>
     <g id="text_6">
      <text style="font-size: 6px; font-family: 'Arial'; text-anchor: end" x="1.1" y="28.634344" transform="rotate(-0 1.1 28.634344)">E1</text>
     </g>
    </g>
    <g id="ytick_3">
     <g id="line2d_6">
      <g>
       <use xlink:href="#mc9de311442" x="4.3" y="38.961" style="stroke: #000000; stroke-width: 0.25"/>
      </g>
     </g>
     <g id="text_7">
      <text style="font-size: 6px; font-family: 'Arial'; text-anchor: end" x="1.1" y="41.108344" transform="rotate(-0 1.1 41.108344)">E2</text>
     </g>
    </g>
    <g id="ytick_4">
     <g id="line2d_7">
      <g>
       <use xlink:href="#mc9de311442" x="4.3" y="51.435" style="stroke: #000000; stroke-width: 0.25"/>
      </g>
     </g>
     <g id="text_8">
      <text style="font-size: 6px; font-family: 'Arial'; text-anchor: end" x="1.1" y="53.582344" transform="rotate(-0 1.1 53.582344)">I1</text>
     </g>
    </g>
    <g id="text_9">
     <text style="font-size: 8px; font-family: 'Arial'; text-anchor: middle" x="-15.33625" y="32.724" transform="rotate(-90 -15.33625 32.724)">silenced neuron</text>
    </g>
   </g>
   <g id="patch_3">
    <path d="M 13.401818 12.7656 
L 13.401818 15.2604 
L 16.952727 15.2604 
L 16.952727 12.7656 
L 13.401818 12.7656 
z
" clip-path="url(#p02c7e34fb8)" style="fill: #306c53; stroke: #282828; stroke-width: 0.75; stroke-linejoin: miter"/>
   </g>
   <g id="line2d_8">
    <path d="M 13.401818 14.013 
L 9.850909 14.013 
" clip-path="url(#p02c7e34fb8)" style="fill: none; stroke: #282828; stroke-width: 0.75"/>
   </g>
   <g id="line2d_9">
    <path d="M 16.952727 14.013 
L 20.503636 14.013 
" clip-path="url(#p02c7e34fb8)" style="fill: none; stroke: #282828; stroke-width: 0.75"/>
   </g>
   <g id="line2d_10">
    <path d="M 9.850909 13.3893 
L 9.850909 14.6367 
" clip-path="url(#p02c7e34fb8)" style="fill: none; stroke: #282828; stroke-width: 0.75; stroke-linecap: square"/>
   </g>
   <g id="line2d_11">
    <path d="M 20.503636 13.3893 
L 20.503636 14.6367 
" clip-path="url(#p02c7e34fb8)" style="fill: none; stroke: #282828; stroke-width: 0.75; stroke-linecap: square"/>
   </g>
   <g id="patch_4">
    <path d="M 9.850909 25.2396 
L 9.850909 27.7344 
L 13.401818 27.7344 
L 13.401818 25.2396 
L 9.850909 25.2396 
z
" clip-path="url(#p02c7e34fb8)" style="fill: #c35843; stroke: #282828; stroke-width: 0.75; stroke-linejoin: miter"/>
   </g>
   <g id="line2d_12">
    <path d="M 9.850909 26.487 
L 6.3 26.487 
" clip-path="url(#p02c7e34fb8)" style="fill: none; stroke: #282828; stroke-width: 0.75"/>
   </g>
   <g id="line2d_13">
    <path d="M 13.401818 26.487 
L 16.952727 26.487 
" clip-path="url(#p02c7e34fb8)" style="fill: none; stroke: #282828; stroke-width: 0.75"/>
   </g>
   <g id="line2d_14">
    <path d="M 6.3 25.8633 
L 6.3 27.1107 
" clip-path="url(#p02c7e34fb8)" style="fill: none; stroke: #282828; stroke-width: 0.75; stroke-linecap: square"/>
   </g>
   <g id="line2d_15">
    <path d="M 16.952727 25.8633 
L 16.952727 27.1107 
" clip-path="url(#p02c7e34fb8)" style="fill: none; stroke: #282828; stroke-width: 0.75; stroke-linecap: square"/>
   </g>
   <g id="patch_5">
    <path d="M 6.3 37.7136 
L 6.3 40.2084 
L 9.850909 40.2084 
L 9.850909 37.7136 
L 6.3 37.7136 
z
" clip-path="url(#p02c7e34fb8)" style="fill: #f0a394; stroke: #282828; stroke-width: 0.75; stroke-linejoin: miter"/>
   </g>
   <g id="line2d_16">
    <path d="M 6.3 38.961 
L 6.3 38.961 
" clip-path="url(#p02c7e34fb8)" style="fill: none; stroke: #282828; stroke-width: 0.75"/>
   </g>
   <g id="line2d_17">
    <path d="M 9.850909 38.961 
L 13.401818 38.961 
" clip-path="url(#p02c7e34fb8)" style="fill: none; stroke: #282828; stroke-width: 0.75"/>
   </g>
   <g id="line2d_18">
    <path d="M 6.3 38.3373 
L 6.3 39.5847 
" clip-path="url(#p02c7e34fb8)" style="fill: none; stroke: #282828; stroke-width: 0.75; stroke-linecap: square"/>
   </g>
   <g id="line2d_19">
    <path d="M 13.401818 38.3373 
L 13.401818 39.5847 
" clip-path="url(#p02c7e34fb8)" style="fill: none; stroke: #282828; stroke-width: 0.75; stroke-linecap: square"/>
   </g>
   <g id="patch_6">
    <path d="M 13.401818 50.1876 
L 13.401818 52.6824 
L 16.952727 52.6824 
L 16.952727 50.1876 
L 13.401818 50.1876 
z
" clip-path="url(#p02c7e34fb8)" style="fill: #126175; stroke: #282828; stroke-width: 0.75; stroke-linejoin: miter"/>
   </g>
   <g id="line2d_20">
    <path d="M 13.401818 51.435 
L 9.850909 51.435 
" clip-path="url(#p02c7e34fb8)" style="fill: none; stroke: #282828; stroke-width: 0.75"/>
   </g>
   <g id="line2d_21">
    <path d="M 16.952727 51.435 
L 20.503636 51.435 
" clip-path="url(#p02c7e34fb8)" style="fill: none; stroke: #282828; stroke-width: 0.75"/>
   </g>
   <g id="line2d_22">
    <path d="M 9.850909 50.8113 
L 9.850909 52.0587 
" clip-path="url(#p02c7e34fb8)" style="fill: none; stroke: #282828; stroke-width: 0.75; stroke-linecap: square"/>
   </g>
   <g id="line2d_23">
    <path d="M 20.503636 50.8113 
L 20.503636 52.0587 
" clip-path="url(#p02c7e34fb8)" style="fill: none; stroke: #282828; stroke-width: 0.75; stroke-linecap: square"/>
   </g>
   <g id="line2d_24">
    <path d="M 16.952727 12.7656 
L 16.952727 15.2604 
" clip-path="url(#p02c7e34fb8)" style="fill: none; stroke: #282828; stroke-width: 0.75"/>
   </g>
   <g id="line2d_25">
    <path d="M 13.401818 25.2396 
L 13.401818 27.7344 
" clip-path="url(#p02c7e34fb8)" style="fill: none; stroke: #282828; stroke-width: 0.75"/>
   </g>
   <g id="line2d_26">
    <path d="M 9.850909 37.7136 
L 9.850909 40.2084 
" clip-path="url(#p02c7e34fb8)" style="fill: none; stroke: #282828; stroke-width: 0.75"/>
   </g>
   <g id="line2d_27">
    <path d="M 16.952727 50.1876 
L 16.952727 52.6824 
" clip-path="url(#p02c7e34fb8)" style="fill: none; stroke: #282828; stroke-width: 0.75"/>
   </g>
   <g id="patch_7">
    <path d="M 4.3 57.672 
L 4.3 7.776 
" style="fill: none; stroke: #000000; stroke-width: 0.25; stroke-linejoin: miter; stroke-linecap: square"/>
   </g>
   <g id="patch_8">
    <path d="M 6.3 58.672 
L 45.36 58.672 
" style="fill: none; stroke: #000000; stroke-width: 0.25; stroke-linejoin: miter; stroke-linecap: square"/>
   </g>
  </g>
 </g>
 <defs>
  <clipPath id="p02c7e34fb8">
   <rect x="6.3" y="7.776" width="39.06" height="49.896"/>
  </clipPath>
 </defs>
</svg>
