<?xml version="1.0" encoding="utf-8" standalone="no"?>
<!DOCTYPE svg PUBLIC "-//W3C//DTD SVG 1.1//EN"
  "http://www.w3.org/Graphics/SVG/1.1/DTD/svg11.dtd">
<svg xmlns:xlink="http://www.w3.org/1999/xlink" width="72pt" height="72pt" viewBox="0 0 72 72" xmlns="http://www.w3.org/2000/svg" version="1.1">
 <metadata>
  <rdf:RDF xmlns:dc="http://purl.org/dc/elements/1.1/" xmlns:cc="http://creativecommons.org/ns#" xmlns:rdf="http://www.w3.org/1999/02/22-rdf-syntax-ns#">
   <cc:Work>
    <dc:type rdf:resource="http://purl.org/dc/dcmitype/StillImage"/>
    <dc:date>2025-08-27T13:19:07.279872</dc:date>
    <dc:format>image/svg+xml</dc:format>
    <dc:creator>
     <cc:Agent>
      <dc:title>Matplotlib v3.10.3, https://matplotlib.org/</dc:title>
     </cc:Agent>
    </dc:creator>
   </cc:Work>
  </rdf:RDF>
 </metadata>
 <defs>
  <style type="text/css">*{stroke-linejoin: round; stroke-linecap: butt}</style>
 </defs>
 <g id="figure_1">
  <g id="patch_1">
   <path d="M 0 72 
L 72 72 
L 72 0 
L 0 0 
L 0 72 
z
" style="fill: none"/>
  </g>
  <g id="axes_1">
   <g id="patch_2">
    <path d="M 9 64.08 
L 64.8 64.08 
L 64.8 8.64 
L 9 8.64 
L 9 64.08 
z
" style="fill: none"/>
   </g>
   <g id="FillBetweenPolyCollection_1">
    <path d="M 15.989767 64.08 
L 15.960233 64.08 
L 15.959236 63.706667 
L 15.958101 63.333333 
L 15.956707 62.96 
L 15.95489 62.586667 
L 15.952421 62.213333 
L 15.948991 61.84 
L 15.944165 61.466667 
L 15.937348 61.093333 
L 15.927712 60.72 
L 15.914135 60.346667 
L 15.895109 59.973333 
L 15.868668 59.6 
L 15.832319 59.226667 
L 15.783 58.853333 
L 15.717095 58.48 
L 15.630519 58.106667 
L 15.51889 57.733333 
L 15.377802 57.36 
L 15.203209 56.986667 
L 14.991895 56.613333 
L 14.741993 56.24 
L 14.453523 55.866667 
L 14.128844 55.493333 
L 13.772979 55.12 
L 13.393706 54.746667 
L 13.001367 54.373333 
L 12.608357 54 
L 12.228294 53.626667 
L 11.874936 53.253333 
L 11.56092 52.88 
L 11.296495 52.506667 
L 11.088387 52.133333 
L 10.938961 51.76 
L 10.845838 51.386667 
L 10.802031 51.013333 
L 10.796638 50.64 
L 10.816034 50.266667 
L 10.845443 49.893333 
L 10.870688 49.52 
L 10.87992 49.146667 
L 10.865084 48.773333 
L 10.822931 48.4 
L 10.755442 48.026667 
L 10.669589 47.653333 
L 10.576467 47.28 
L 10.489907 46.906667 
L 10.424748 46.533333 
L 10.395 46.16 
L 10.412131 45.786667 
L 10.483703 45.413333 
L 10.612513 45.04 
L 10.796345 44.666667 
L 11.02833 44.293333 
L 11.297845 43.92 
L 11.59181 43.546667 
L 11.896188 43.173333 
L 12.197494 42.8 
L 12.484119 42.426667 
L 12.747313 42.053333 
L 12.981737 41.68 
L 13.185563 41.306667 
L 13.360134 40.933333 
L 13.5093 40.56 
L 13.638523 40.186667 
L 13.753919 39.813333 
L 13.861342 39.44 
L 13.965653 39.066667 
L 14.070213 38.693333 
L 14.176672 38.32 
L 14.285021 37.946667 
L 14.393878 37.573333 
L 14.500928 37.2 
L 14.603453 36.826667 
L 14.698845 36.453333 
L 14.78505 36.08 
L 14.860878 35.706667 
L 14.926155 35.333333 
L 14.981714 34.96 
L 15.029234 34.586667 
L 15.070988 34.213333 
L 15.109518 33.84 
L 15.147309 33.466667 
L 15.186496 33.093333 
L 15.22865 32.72 
L 15.274641 32.346667 
L 15.32462 31.973333 
L 15.378074 31.6 
L 15.433964 31.226667 
L 15.490902 30.853333 
L 15.547346 30.48 
L 15.601791 30.106667 
L 15.652917 29.733333 
L 15.699702 29.36 
L 15.741482 28.986667 
L 15.77796 28.613333 
L 15.80917 28.24 
L 15.835423 27.866667 
L 15.857224 27.493333 
L 15.87519 27.12 
L 16.07481 27.12 
L 16.07481 27.12 
L 16.092776 27.493333 
L 16.114577 27.866667 
L 16.14083 28.24 
L 16.17204 28.613333 
L 16.208518 28.986667 
L 16.250298 29.36 
L 16.297083 29.733333 
L 16.348209 30.106667 
L 16.402654 30.48 
L 16.459098 30.853333 
L 16.516036 31.226667 
L 16.571926 31.6 
L 16.62538 31.973333 
L 16.675359 32.346667 
L 16.72135 32.72 
L 16.763504 33.093333 
L 16.802691 33.466667 
L 16.840482 33.84 
L 16.879012 34.213333 
L 16.920766 34.586667 
L 16.968286 34.96 
L 17.023845 35.333333 
L 17.089122 35.706667 
L 17.16495 36.08 
L 17.251155 36.453333 
L 17.346547 36.826667 
L 17.449072 37.2 
L 17.556122 37.573333 
L 17.664979 37.946667 
L 17.773328 38.32 
L 17.879787 38.693333 
L 17.984347 39.066667 
L 18.088658 39.44 
L 18.196081 39.813333 
L 18.311477 40.186667 
L 18.4407 40.56 
L 18.589866 40.933333 
L 18.764437 41.306667 
L 18.968263 41.68 
L 19.202687 42.053333 
L 19.465881 42.426667 
L 19.752506 42.8 
L 20.053812 43.173333 
L 20.35819 43.546667 
L 20.652155 43.92 
L 20.92167 44.293333 
L 21.153655 44.666667 
L 21.337487 45.04 
L 21.466297 45.413333 
L 21.537869 45.786667 
L 21.555 46.16 
L 21.525252 46.533333 
L 21.460093 46.906667 
L 21.373533 47.28 
L 21.280411 47.653333 
L 21.194558 48.026667 
L 21.127069 48.4 
L 21.084916 48.773333 
L 21.07008 49.146667 
L 21.079312 49.52 
L 21.104557 49.893333 
L 21.133966 50.266667 
L 21.153362 50.64 
L 21.147969 51.013333 
L 21.104162 51.386667 
L 21.011039 51.76 
L 20.861613 52.133333 
L 20.653505 52.506667 
L 20.38908 52.88 
L 20.075064 53.253333 
L 19.721706 53.626667 
L 19.341643 54 
L 18.948633 54.373333 
L 18.556294 54.746667 
L 18.177021 55.12 
L 17.821156 55.493333 
L 17.496477 55.866667 
L 17.208007 56.24 
L 16.958105 56.613333 
L 16.746791 56.986667 
L 16.572198 57.36 
L 16.43111 57.733333 
L 16.319481 58.106667 
L 16.232905 58.48 
L 16.167 58.853333 
L 16.117681 59.226667 
L 16.081332 59.6 
L 16.054891 59.973333 
L 16.035865 60.346667 
L 16.022288 60.72 
L 16.012652 61.093333 
L 16.005835 61.466667 
L 16.001009 61.84 
L 15.997579 62.213333 
L 15.99511 62.586667 
L 15.993293 62.96 
L 15.991899 63.333333 
L 15.990764 63.706667 
L 15.989767 64.08 
z
" clip-path="url(#p67324c1ade)" style="fill: #306c53; fill-opacity: 0.5"/>
   </g>
   <g id="FillBetweenPolyCollection_2">
    <path d="M 31.109762 64.08 
L 28.740238 64.08 
L 28.720649 63.893333 
L 28.703536 63.706667 
L 28.688165 63.52 
L 28.673669 63.333333 
L 28.659064 63.146667 
L 28.643278 62.96 
L 28.625181 62.773333 
L 28.603622 62.586667 
L 28.577469 62.4 
L 28.54565 62.213333 
L 28.507194 62.026667 
L 28.461274 61.84 
L 28.407244 61.653333 
L 28.344676 61.466667 
L 28.273385 61.28 
L 28.193453 61.093333 
L 28.105245 60.906667 
L 28.009407 60.72 
L 27.906865 60.533333 
L 27.798807 60.346667 
L 27.686655 60.16 
L 27.572028 59.973333 
L 27.456696 59.786667 
L 27.342524 59.6 
L 27.231412 59.413333 
L 27.12523 59.226667 
L 27.025746 59.04 
L 26.934561 58.853333 
L 26.853044 58.666667 
L 26.782273 58.48 
L 26.722979 58.293333 
L 26.675509 58.106667 
L 26.639797 57.92 
L 26.615345 57.733333 
L 26.601226 57.546667 
L 26.596101 57.36 
L 26.598247 57.173333 
L 26.605608 56.986667 
L 26.615852 56.8 
L 26.62645 56.613333 
L 26.634753 56.426667 
L 26.638091 56.24 
L 26.633861 56.053333 
L 26.619629 55.866667 
L 26.593225 55.68 
L 26.552827 55.493333 
L 26.497049 55.306667 
L 26.425001 55.12 
L 26.336347 54.933333 
L 26.231339 54.746667 
L 26.110835 54.56 
L 25.976293 54.373333 
L 25.829749 54.186667 
L 25.673772 54 
L 25.511402 53.813333 
L 25.346065 53.626667 
L 25.181481 53.44 
L 25.021552 53.253333 
L 24.870252 53.066667 
L 24.731501 52.88 
L 24.609048 52.693333 
L 24.506354 52.506667 
L 24.426488 52.32 
L 24.372032 52.133333 
L 24.345 51.946667 
L 24.346786 51.76 
L 24.378119 51.573333 
L 24.439053 51.386667 
L 24.528971 51.2 
L 24.646614 51.013333 
L 24.790129 50.826667 
L 24.95714 50.64 
L 25.144824 50.453333 
L 25.350008 50.266667 
L 25.56927 50.08 
L 25.799041 49.893333 
L 26.035714 49.706667 
L 26.27574 49.52 
L 26.51572 49.333333 
L 26.752492 49.146667 
L 26.983196 48.96 
L 27.205334 48.773333 
L 27.416805 48.586667 
L 27.61593 48.4 
L 27.801466 48.213333 
L 27.972594 48.026667 
L 28.128908 47.84 
L 28.270378 47.653333 
L 28.397318 47.466667 
L 28.510335 47.28 
L 28.610285 47.093333 
L 28.698214 46.906667 
L 28.775308 46.72 
L 28.842842 46.533333 
L 28.902128 46.346667 
L 28.954474 46.16 
L 29.001142 45.973333 
L 29.043318 45.786667 
L 29.082081 45.6 
L 30.767919 45.6 
L 30.767919 45.6 
L 30.806682 45.786667 
L 30.848858 45.973333 
L 30.895526 46.16 
L 30.947872 46.346667 
L 31.007158 46.533333 
L 31.074692 46.72 
L 31.151786 46.906667 
L 31.239715 47.093333 
L 31.339665 47.28 
L 31.452682 47.466667 
L 31.579622 47.653333 
L 31.721092 47.84 
L 31.877406 48.026667 
L 32.048534 48.213333 
L 32.23407 48.4 
L 32.433195 48.586667 
L 32.644666 48.773333 
L 32.866804 48.96 
L 33.097508 49.146667 
L 33.33428 49.333333 
L 33.57426 49.52 
L 33.814286 49.706667 
L 34.050959 49.893333 
L 34.28073 50.08 
L 34.499992 50.266667 
L 34.705176 50.453333 
L 34.89286 50.64 
L 35.059871 50.826667 
L 35.203386 51.013333 
L 35.321029 51.2 
L 35.410947 51.386667 
L 35.471881 51.573333 
L 35.503214 51.76 
L 35.505 51.946667 
L 35.477968 52.133333 
L 35.423512 52.32 
L 35.343646 52.506667 
L 35.240952 52.693333 
L 35.118499 52.88 
L 34.979748 53.066667 
L 34.828448 53.253333 
L 34.668519 53.44 
L 34.503935 53.626667 
L 34.338598 53.813333 
L 34.176228 54 
L 34.020251 54.186667 
L 33.873707 54.373333 
L 33.739165 54.56 
L 33.618661 54.746667 
L 33.513653 54.933333 
L 33.424999 55.12 
L 33.352951 55.306667 
L 33.297173 55.493333 
L 33.256775 55.68 
L 33.230371 55.866667 
L 33.216139 56.053333 
L 33.211909 56.24 
L 33.215247 56.426667 
L 33.22355 56.613333 
L 33.234148 56.8 
L 33.244392 56.986667 
L 33.251753 57.173333 
L 33.253899 57.36 
L 33.248774 57.546667 
L 33.234655 57.733333 
L 33.210203 57.92 
L 33.174491 58.106667 
L 33.127021 58.293333 
L 33.067727 58.48 
L 32.996956 58.666667 
L 32.915439 58.853333 
L 32.824254 59.04 
L 32.72477 59.226667 
L 32.618588 59.413333 
L 32.507476 59.6 
L 32.393304 59.786667 
L 32.277972 59.973333 
L 32.163345 60.16 
L 32.051193 60.346667 
L 31.943135 60.533333 
L 31.840593 60.72 
L 31.744755 60.906667 
L 31.656547 61.093333 
L 31.576615 61.28 
L 31.505324 61.466667 
L 31.442756 61.653333 
L 31.388726 61.84 
L 31.342806 62.026667 
L 31.30435 62.213333 
L 31.272531 62.4 
L 31.246378 62.586667 
L 31.224819 62.773333 
L 31.206722 62.96 
L 31.190936 63.146667 
L 31.176331 63.333333 
L 31.161835 63.52 
L 31.146464 63.706667 
L 31.129351 63.893333 
L 31.109762 64.08 
z
" clip-path="url(#p67324c1ade)" style="fill: #c35843; fill-opacity: 0.5"/>
   </g>
   <g id="FillBetweenPolyCollection_3">
    <path d="M 46.287782 64.08 
L 41.462218 64.08 
L 41.457975 63.893333 
L 41.470208 63.706667 
L 41.497116 63.52 
L 41.536238 63.333333 
L 41.584514 63.146667 
L 41.638361 62.96 
L 41.693783 62.773333 
L 41.746493 62.586667 
L 41.792054 62.4 
L 41.826027 62.213333 
L 41.844131 62.026667 
L 41.842397 61.84 
L 41.817325 61.653333 
L 41.766034 61.466667 
L 41.686391 61.28 
L 41.577129 61.093333 
L 41.437942 60.906667 
L 41.269553 60.72 
L 41.073748 60.533333 
L 40.853374 60.346667 
L 40.612307 60.16 
L 40.355367 59.973333 
L 40.088207 59.786667 
L 39.817147 59.6 
L 39.548989 59.413333 
L 39.290789 59.226667 
L 39.049617 59.04 
L 38.832303 58.853333 
L 38.645179 58.666667 
L 38.493837 58.48 
L 38.382911 58.293333 
L 38.315895 58.106667 
L 38.295 57.92 
L 38.321076 57.733333 
L 38.393579 57.546667 
L 38.510606 57.36 
L 38.668984 57.173333 
L 38.864408 56.986667 
L 39.091629 56.8 
L 39.344672 56.613333 
L 39.617073 56.426667 
L 39.902133 56.24 
L 40.193158 56.053333 
L 40.483699 55.866667 
L 40.767752 55.68 
L 41.039939 55.493333 
L 41.295643 55.306667 
L 41.531111 55.12 
L 41.743509 54.933333 
L 41.930941 54.746667 
L 42.092437 54.56 
L 42.227899 54.373333 
L 42.338034 54.186667 
L 42.424253 54 
L 42.488563 53.813333 
L 42.533452 53.626667 
L 42.561758 53.44 
L 42.576551 53.253333 
L 42.581007 53.066667 
L 42.578297 52.88 
L 42.57148 52.693333 
L 42.563413 52.506667 
L 42.556667 52.32 
L 42.553472 52.133333 
L 42.555661 51.946667 
L 42.564644 51.76 
L 42.581397 51.573333 
L 42.606462 51.386667 
L 42.639966 51.2 
L 42.681658 51.013333 
L 42.730953 50.826667 
L 42.786982 50.64 
L 42.84866 50.453333 
L 42.914743 50.266667 
L 42.9839 50.08 
L 43.05477 49.893333 
L 43.126018 49.706667 
L 43.196392 49.52 
L 43.264754 49.333333 
L 43.33012 49.146667 
L 43.391677 48.96 
L 43.448796 48.773333 
L 43.501033 48.586667 
L 43.548125 48.4 
L 43.589975 48.213333 
L 43.626637 48.026667 
L 43.658294 47.84 
L 43.685234 47.653333 
L 43.707826 47.466667 
L 43.726497 47.28 
L 43.741711 47.093333 
L 43.753945 46.906667 
L 43.763673 46.72 
L 43.771355 46.533333 
L 43.77742 46.346667 
L 43.782257 46.16 
L 43.786214 45.973333 
L 43.789589 45.786667 
L 43.792629 45.6 
L 43.957371 45.6 
L 43.957371 45.6 
L 43.960411 45.786667 
L 43.963786 45.973333 
L 43.967743 46.16 
L 43.97258 46.346667 
L 43.978645 46.533333 
L 43.986327 46.72 
L 43.996055 46.906667 
L 44.008289 47.093333 
L 44.023503 47.28 
L 44.042174 47.466667 
L 44.064766 47.653333 
L 44.091706 47.84 
L 44.123363 48.026667 
L 44.160025 48.213333 
L 44.201875 48.4 
L 44.248967 48.586667 
L 44.301204 48.773333 
L 44.358323 48.96 
L 44.41988 49.146667 
L 44.485246 49.333333 
L 44.553608 49.52 
L 44.623982 49.706667 
L 44.69523 49.893333 
L 44.7661 50.08 
L 44.835257 50.266667 
L 44.90134 50.453333 
L 44.963018 50.64 
L 45.019047 50.826667 
L 45.068342 51.013333 
L 45.110034 51.2 
L 45.143538 51.386667 
L 45.168603 51.573333 
L 45.185356 51.76 
L 45.194339 51.946667 
L 45.196528 52.133333 
L 45.193333 52.32 
L 45.186587 52.506667 
L 45.17852 52.693333 
L 45.171703 52.88 
L 45.168993 53.066667 
L 45.173449 53.253333 
L 45.188242 53.44 
L 45.216548 53.626667 
L 45.261437 53.813333 
L 45.325747 54 
L 45.411966 54.186667 
L 45.522101 54.373333 
L 45.657563 54.56 
L 45.819059 54.746667 
L 46.006491 54.933333 
L 46.218889 55.12 
L 46.454357 55.306667 
L 46.710061 55.493333 
L 46.982248 55.68 
L 47.266301 55.866667 
L 47.556842 56.053333 
L 47.847867 56.24 
L 48.132927 56.426667 
L 48.405328 56.613333 
L 48.658371 56.8 
L 48.885592 56.986667 
L 49.081016 57.173333 
L 49.239394 57.36 
L 49.356421 57.546667 
L 49.428924 57.733333 
L 49.455 57.92 
L 49.434105 58.106667 
L 49.367089 58.293333 
L 49.256163 58.48 
L 49.104821 58.666667 
L 48.917697 58.853333 
L 48.700383 59.04 
L 48.459211 59.226667 
L 48.201011 59.413333 
L 47.932853 59.6 
L 47.661793 59.786667 
L 47.394633 59.973333 
L 47.137693 60.16 
L 46.896626 60.346667 
L 46.676252 60.533333 
L 46.480447 60.72 
L 46.312058 60.906667 
L 46.172871 61.093333 
L 46.063609 61.28 
L 45.983966 61.466667 
L 45.932675 61.653333 
L 45.907603 61.84 
L 45.905869 62.026667 
L 45.923973 62.213333 
L 45.957946 62.4 
L 46.003507 62.586667 
L 46.056217 62.773333 
L 46.111639 62.96 
L 46.165486 63.146667 
L 46.213762 63.333333 
L 46.252884 63.52 
L 46.279792 63.706667 
L 46.292025 63.893333 
L 46.287782 64.08 
z
" clip-path="url(#p67324c1ade)" style="fill: #f0a394; fill-opacity: 0.5"/>
   </g>
   <g id="FillBetweenPolyCollection_4">
    <path d="M 57.847823 64.08 
L 57.802177 64.08 
L 57.795572 63.582222 
L 57.78578 63.084444 
L 57.771314 62.586667 
L 57.750194 62.088889 
L 57.719871 61.591111 
L 57.677175 61.093333 
L 57.618317 60.595556 
L 57.538953 60.097778 
L 57.434345 59.6 
L 57.299627 59.102222 
L 57.130191 58.604444 
L 56.922175 58.106667 
L 56.673011 57.608889 
L 56.382007 57.111111 
L 56.050847 56.613333 
L 55.683956 56.115556 
L 55.288635 55.617778 
L 54.874881 55.12 
L 54.454891 54.622222 
L 54.042237 54.124444 
L 53.650798 53.626667 
L 53.293562 53.128889 
L 52.981455 52.631111 
L 52.722366 52.133333 
L 52.520523 51.635556 
L 52.376311 51.137778 
L 52.286577 50.64 
L 52.245372 50.142222 
L 52.245 49.644444 
L 52.277205 49.146667 
L 52.334296 48.648889 
L 52.410027 48.151111 
L 52.500104 47.653333 
L 52.602258 47.155556 
L 52.715935 46.657778 
L 52.841673 46.16 
L 52.980357 45.662222 
L 53.132496 45.164444 
L 53.297681 44.666667 
L 53.474319 44.168889 
L 53.659674 43.671111 
L 53.850173 43.173333 
L 54.041899 42.675556 
L 54.23112 42.177778 
L 54.414769 41.68 
L 54.590753 41.182222 
L 54.758049 40.684444 
L 54.916601 40.186667 
L 55.06705 39.688889 
L 55.210382 39.191111 
L 55.347592 38.693333 
L 55.479414 38.195556 
L 55.60619 37.697778 
L 55.72788 37.2 
L 55.844173 36.702222 
L 55.954688 36.204444 
L 56.059161 35.706667 
L 56.157609 35.208889 
L 56.250394 34.711111 
L 56.338204 34.213333 
L 56.421943 33.715556 
L 56.502574 33.217778 
L 56.580944 32.72 
L 56.657647 32.222222 
L 56.732936 31.724444 
L 56.806717 31.226667 
L 56.878605 30.728889 
L 56.948037 30.231111 
L 57.014405 29.733333 
L 57.077181 29.235556 
L 57.136011 28.737778 
L 57.190764 28.24 
L 57.241529 27.742222 
L 57.288569 27.244444 
L 57.332252 26.746667 
L 57.372972 26.248889 
L 57.411079 25.751111 
L 57.446839 25.253333 
L 57.480411 24.755556 
L 57.511863 24.257778 
L 57.541196 23.76 
L 57.568389 23.262222 
L 57.593431 22.764444 
L 57.616354 22.266667 
L 57.637245 21.768889 
L 57.656243 21.271111 
L 57.673526 20.773333 
L 57.689289 20.275556 
L 57.703722 19.777778 
L 57.716989 19.28 
L 57.729216 18.782222 
L 57.740489 18.284444 
L 57.750856 17.786667 
L 57.76034 17.288889 
L 57.76895 16.791111 
L 57.776694 16.293333 
L 57.783588 15.795556 
L 57.789665 15.297778 
L 57.794972 14.8 
L 57.855028 14.8 
L 57.855028 14.8 
L 57.860335 15.297778 
L 57.866412 15.795556 
L 57.873306 16.293333 
L 57.88105 16.791111 
L 57.88966 17.288889 
L 57.899144 17.786667 
L 57.909511 18.284444 
L 57.920784 18.782222 
L 57.933011 19.28 
L 57.946278 19.777778 
L 57.960711 20.275556 
L 57.976474 20.773333 
L 57.993757 21.271111 
L 58.012755 21.768889 
L 58.033646 22.266667 
L 58.056569 22.764444 
L 58.081611 23.262222 
L 58.108804 23.76 
L 58.138137 24.257778 
L 58.169589 24.755556 
L 58.203161 25.253333 
L 58.238921 25.751111 
L 58.277028 26.248889 
L 58.317748 26.746667 
L 58.361431 27.244444 
L 58.408471 27.742222 
L 58.459236 28.24 
L 58.513989 28.737778 
L 58.572819 29.235556 
L 58.635595 29.733333 
L 58.701963 30.231111 
L 58.771395 30.728889 
L 58.843283 31.226667 
L 58.917064 31.724444 
L 58.992353 32.222222 
L 59.069056 32.72 
L 59.147426 33.217778 
L 59.228057 33.715556 
L 59.311796 34.213333 
L 59.399606 34.711111 
L 59.492391 35.208889 
L 59.590839 35.706667 
L 59.695312 36.204444 
L 59.805827 36.702222 
L 59.92212 37.2 
L 60.04381 37.697778 
L 60.170586 38.195556 
L 60.302408 38.693333 
L 60.439618 39.191111 
L 60.58295 39.688889 
L 60.733399 40.186667 
L 60.891951 40.684444 
L 61.059247 41.182222 
L 61.235231 41.68 
L 61.41888 42.177778 
L 61.608101 42.675556 
L 61.799827 43.173333 
L 61.990326 43.671111 
L 62.175681 44.168889 
L 62.352319 44.666667 
L 62.517504 45.164444 
L 62.669643 45.662222 
L 62.808327 46.16 
L 62.934065 46.657778 
L 63.047742 47.155556 
L 63.149896 47.653333 
L 63.239973 48.151111 
L 63.315704 48.648889 
L 63.372795 49.146667 
L 63.405 49.644444 
L 63.404628 50.142222 
L 63.363423 50.64 
L 63.273689 51.137778 
L 63.129477 51.635556 
L 62.927634 52.133333 
L 62.668545 52.631111 
L 62.356438 53.128889 
L 61.999202 53.626667 
L 61.607763 54.124444 
L 61.195109 54.622222 
L 60.775119 55.12 
L 60.361365 55.617778 
L 59.966044 56.115556 
L 59.599153 56.613333 
L 59.267993 57.111111 
L 58.976989 57.608889 
L 58.727825 58.106667 
L 58.519809 58.604444 
L 58.350373 59.102222 
L 58.215655 59.6 
L 58.111047 60.097778 
L 58.031683 60.595556 
L 57.972825 61.093333 
L 57.930129 61.591111 
L 57.899806 62.088889 
L 57.878686 62.586667 
L 57.86422 63.084444 
L 57.854428 63.582222 
L 57.847823 64.08 
z
" clip-path="url(#p67324c1ade)" style="fill: #126175; fill-opacity: 0.5"/>
   </g>
   <g id="matplotlib.axis_1">
    <g id="xtick_1">
     <g id="line2d_1">
      <defs>
       <path id="madb5cfcf15" d="M 0 0 
L 0 1.7 
" style="stroke: #000000; stroke-width: 0.25"/>
      </defs>
      <g>
       <use xlink:href="#madb5cfcf15" x="15.975" y="66.08" style="stroke: #000000; stroke-width: 0.25"/>
      </g>
     </g>
     <g id="text_1">
      <text style="font-size: 6px; font-family: 'Arial'; text-anchor: middle" x="15.975" y="75.574687" transform="rotate(-0 15.975 75.574687)">none</text>
     </g>
    </g>
    <g id="xtick_2">
     <g id="line2d_2">
      <g>
       <use xlink:href="#madb5cfcf15" x="29.925" y="66.08" style="stroke: #000000; stroke-width: 0.25"/>
      </g>
     </g>
     <g id="text_2">
      <text style="font-size: 6px; font-family: 'Arial'; text-anchor: middle" x="29.925" y="75.574687" transform="rotate(-0 29.925 75.574687)">E1</text>
     </g>
    </g>
    <g id="xtick_3">
     <g id="line2d_3">
      <g>
       <use xlink:href="#madb5cfcf15" x="43.875" y="66.08" style="stroke: #000000; stroke-width: 0.25"/>
      </g>
     </g>
     <g id="text_3">
      <text style="font-size: 6px; font-family: 'Arial'; text-anchor: middle" x="43.875" y="75.574687" transform="rotate(-0 43.875 75.574687)">E2</text>
     </g>
    </g>
    <g id="xtick_4">
     <g id="line2d_4">
      <g>
       <use xlink:href="#madb5cfcf15" x="57.825" y="66.08" style="stroke: #000000; stroke-width: 0.25"/>
      </g>
     </g>
     <g id="text_4">
      <text style="font-size: 6px; font-family: 'Arial'; text-anchor: middle" x="57.825" y="75.574687" transform="rotate(-0 57.825 75.574687)">I1</text>
     </g>
    </g>
    <g id="text_5">
     <text style="font-size: 8px; font-family: 'Arial'; text-anchor: middle" x="36.9" y="86.493437" transform="rotate(-0 36.9 86.493437)">silenced neuron</text>
    </g>
   </g>
   <g id="matplotlib.axis_2">
    <g id="ytick_1">
     <g id="line2d_5">
      <defs>
       <path id="m6f3814d432" d="M 0 0 
L -1.7 0 
" style="stroke: #000000; stroke-width: 0.25"/>
      </defs>
      <g>
       <use xlink:href="#m6f3814d432" x="7" y="64.08" style="stroke: #000000; stroke-width: 0.25"/>
      </g>
     </g>
     <g id="text_6">
      <text style="font-size: 6px; font-family: 'Arial'; text-anchor: end" x="1.8" y="66.227344" transform="rotate(-0 1.8 66.227344)">0</text>
     </g>
    </g>
    <g id="ytick_2">
     <g id="line2d_6">
      <g>
       <use xlink:href="#m6f3814d432" x="7" y="51.76" style="stroke: #000000; stroke-width: 0.25"/>
      </g>
     </g>
     <g id="text_7">
      <text style="font-size: 6px; font-family: 'Arial'; text-anchor: end" x="1.8" y="53.907344" transform="rotate(-0 1.8 53.907344)">2</text>
     </g>
    </g>
    <g id="ytick_3">
     <g id="line2d_7">
      <g>
       <use xlink:href="#m6f3814d432" x="7" y="39.44" style="stroke: #000000; stroke-width: 0.25"/>
      </g>
     </g>
     <g id="text_8">
      <text style="font-size: 6px; font-family: 'Arial'; text-anchor: end" x="1.8" y="41.587344" transform="rotate(-0 1.8 41.587344)">4</text>
     </g>
    </g>
    <g id="ytick_4">
     <g id="line2d_8">
      <g>
       <use xlink:href="#m6f3814d432" x="7" y="27.12" style="stroke: #000000; stroke-width: 0.25"/>
      </g>
     </g>
     <g id="text_9">
      <text style="font-size: 6px; font-family: 'Arial'; text-anchor: end" x="1.8" y="29.267344" transform="rotate(-0 1.8 29.267344)">6</text>
     </g>
    </g>
    <g id="ytick_5">
     <g id="line2d_9">
      <g>
       <use xlink:href="#m6f3814d432" x="7" y="14.8" style="stroke: #000000; stroke-width: 0.25"/>
      </g>
     </g>
     <g id="text_10">
      <text style="font-size: 6px; font-family: 'Arial'; text-anchor: end" x="1.8" y="16.947344" transform="rotate(-0 1.8 16.947344)">8</text>
     </g>
    </g>
    <g id="text_11">
     <text style="font-size: 8px; font-family: 'Arial'; text-anchor: middle" x="-7.126563" y="36.36" transform="rotate(-90 -7.126563 36.36)"># MNs active</text>
    </g>
   </g>
   <g id="patch_3">
    <path d="M 14.58 51.76 
L 17.37 51.76 
L 17.37 45.6 
L 14.58 45.6 
L 14.58 51.76 
z
" clip-path="url(#p67324c1ade)" style="fill: #306c53; opacity: 0.5; stroke: #282828; stroke-width: 0.75; stroke-linejoin: miter"/>
   </g>
   <g id="line2d_10">
    <path d="M 15.975 51.76 
L 15.975 57.92 
" clip-path="url(#p67324c1ade)" style="fill: none; stroke: #282828; stroke-width: 0.75"/>
   </g>
   <g id="line2d_11">
    <path d="M 15.975 45.6 
L 15.975 39.44 
" clip-path="url(#p67324c1ade)" style="fill: none; stroke: #282828; stroke-width: 0.75"/>
   </g>
   <g id="line2d_12">
    <path d="M 15.2775 57.92 
L 16.6725 57.92 
" clip-path="url(#p67324c1ade)" style="fill: none; stroke: #282828; stroke-width: 0.75; stroke-linecap: square"/>
   </g>
   <g id="line2d_13">
    <path d="M 15.2775 39.44 
L 16.6725 39.44 
" clip-path="url(#p67324c1ade)" style="fill: none; stroke: #282828; stroke-width: 0.75; stroke-linecap: square"/>
   </g>
   <g id="patch_4">
    <path d="M 28.53 57.92 
L 31.32 57.92 
L 31.32 51.76 
L 28.53 51.76 
L 28.53 57.92 
z
" clip-path="url(#p67324c1ade)" style="fill: #c35843; opacity: 0.5; stroke: #282828; stroke-width: 0.75; stroke-linejoin: miter"/>
   </g>
   <g id="line2d_14">
    <path d="M 29.925 57.92 
L 29.925 64.08 
" clip-path="url(#p67324c1ade)" style="fill: none; stroke: #282828; stroke-width: 0.75"/>
   </g>
   <g id="line2d_15">
    <path d="M 29.925 51.76 
L 29.925 45.6 
" clip-path="url(#p67324c1ade)" style="fill: none; stroke: #282828; stroke-width: 0.75"/>
   </g>
   <g id="line2d_16">
    <path d="M 29.2275 64.08 
L 30.6225 64.08 
" clip-path="url(#p67324c1ade)" style="fill: none; stroke: #282828; stroke-width: 0.75; stroke-linecap: square"/>
   </g>
   <g id="line2d_17">
    <path d="M 29.2275 45.6 
L 30.6225 45.6 
" clip-path="url(#p67324c1ade)" style="fill: none; stroke: #282828; stroke-width: 0.75; stroke-linecap: square"/>
   </g>
   <g id="patch_5">
    <path d="M 42.48 64.08 
L 45.27 64.08 
L 45.27 57.92 
L 42.48 57.92 
L 42.48 64.08 
z
" clip-path="url(#p67324c1ade)" style="fill: #f0a394; opacity: 0.5; stroke: #282828; stroke-width: 0.75; stroke-linejoin: miter"/>
   </g>
   <g id="line2d_18">
    <path d="M 43.875 64.08 
L 43.875 64.08 
" clip-path="url(#p67324c1ade)" style="fill: none; stroke: #282828; stroke-width: 0.75"/>
   </g>
   <g id="line2d_19">
    <path d="M 43.875 57.92 
L 43.875 51.76 
" clip-path="url(#p67324c1ade)" style="fill: none; stroke: #282828; stroke-width: 0.75"/>
   </g>
   <g id="line2d_20">
    <path d="M 43.1775 64.08 
L 44.5725 64.08 
" clip-path="url(#p67324c1ade)" style="fill: none; stroke: #282828; stroke-width: 0.75; stroke-linecap: square"/>
   </g>
   <g id="line2d_21">
    <path d="M 43.1775 51.76 
L 44.5725 51.76 
" clip-path="url(#p67324c1ade)" style="fill: none; stroke: #282828; stroke-width: 0.75; stroke-linecap: square"/>
   </g>
   <g id="patch_6">
    <path d="M 56.43 51.76 
L 59.22 51.76 
L 59.22 39.44 
L 56.43 39.44 
L 56.43 51.76 
z
" clip-path="url(#p67324c1ade)" style="fill: #126175; opacity: 0.5; stroke: #282828; stroke-width: 0.75; stroke-linejoin: miter"/>
   </g>
   <g id="line2d_22">
    <path d="M 57.825 51.76 
L 57.825 64.08 
" clip-path="url(#p67324c1ade)" style="fill: none; stroke: #282828; stroke-width: 0.75"/>
   </g>
   <g id="line2d_23">
    <path d="M 57.825 39.44 
L 57.825 20.96 
" clip-path="url(#p67324c1ade)" style="fill: none; stroke: #282828; stroke-width: 0.75"/>
   </g>
   <g id="line2d_24">
    <path d="M 57.1275 64.08 
L 58.5225 64.08 
" clip-path="url(#p67324c1ade)" style="fill: none; stroke: #282828; stroke-width: 0.75; stroke-linecap: square"/>
   </g>
   <g id="line2d_25">
    <path d="M 57.1275 20.96 
L 58.5225 20.96 
" clip-path="url(#p67324c1ade)" style="fill: none; stroke: #282828; stroke-width: 0.75; stroke-linecap: square"/>
   </g>
   <g id="line2d_26">
    <path d="M 14.58 45.6 
L 17.37 45.6 
" clip-path="url(#p67324c1ade)" style="fill: none; stroke: #282828; stroke-width: 0.75"/>
   </g>
   <g id="line2d_27">
    <path d="M 28.53 51.76 
L 31.32 51.76 
" clip-path="url(#p67324c1ade)" style="fill: none; stroke: #282828; stroke-width: 0.75"/>
   </g>
   <g id="line2d_28">
    <path d="M 42.48 57.92 
L 45.27 57.92 
" clip-path="url(#p67324c1ade)" style="fill: none; stroke: #282828; stroke-width: 0.75"/>
   </g>
   <g id="line2d_29">
    <path d="M 56.43 45.6 
L 59.22 45.6 
" clip-path="url(#p67324c1ade)" style="fill: none; stroke: #282828; stroke-width: 0.75"/>
   </g>
   <g id="patch_7">
    <path d="M 7 64.08 
L 7 8.64 
" style="fill: none; stroke: #000000; stroke-width: 0.25; stroke-linejoin: miter; stroke-linecap: square"/>
   </g>
   <g id="patch_8">
    <path d="M 9 66.08 
L 64.8 66.08 
" style="fill: none; stroke: #000000; stroke-width: 0.25; stroke-linejoin: miter; stroke-linecap: square"/>
   </g>
  </g>
 </g>
 <defs>
  <clipPath id="p67324c1ade">
   <rect x="9" y="8.64" width="55.8" height="55.44"/>
  </clipPath>
 </defs>
</svg>
