<?xml version="1.0" encoding="utf-8" standalone="no"?>
<!DOCTYPE svg PUBLIC "-//W3C//DTD SVG 1.1//EN"
  "http://www.w3.org/Graphics/SVG/1.1/DTD/svg11.dtd">
<svg xmlns:xlink="http://www.w3.org/1999/xlink" width="72pt" height="72pt" viewBox="0 0 72 72" xmlns="http://www.w3.org/2000/svg" version="1.1">
 <metadata>
  <rdf:RDF xmlns:dc="http://purl.org/dc/elements/1.1/" xmlns:cc="http://creativecommons.org/ns#" xmlns:rdf="http://www.w3.org/1999/02/22-rdf-syntax-ns#">
   <cc:Work>
    <dc:type rdf:resource="http://purl.org/dc/dcmitype/StillImage"/>
    <dc:date>2025-08-27T13:19:07.632407</dc:date>
    <dc:format>image/svg+xml</dc:format>
    <dc:creator>
     <cc:Agent>
      <dc:title>Matplotlib v3.10.3, https://matplotlib.org/</dc:title>
     </cc:Agent>
    </dc:creator>
   </cc:Work>
  </rdf:RDF>
 </metadata>
 <defs>
  <style type="text/css">*{stroke-linejoin: round; stroke-linecap: butt}</style>
 </defs>
 <g id="figure_1">
  <g id="patch_1">
   <path d="M 0 72 
L 72 72 
L 72 0 
L 0 0 
L 0 72 
z
" style="fill: none"/>
  </g>
  <g id="axes_1">
   <g id="patch_2">
    <path d="M 9 64.08 
L 64.8 64.08 
L 64.8 8.64 
L 9 8.64 
L 9 64.08 
z
" style="fill: none"/>
   </g>
   <g id="FillBetweenPolyCollection_1">
    <defs>
     <path id="m32e24c93ca" d="M 15.992288 -7.92 
L 15.957712 -7.92 
L 15.958771 -8.42991 
L 15.961574 -8.939819 
L 15.965212 -9.449729 
L 15.968712 -9.959639 
L 15.97144 -10.469549 
L 15.973224 -10.979458 
L 15.974219 -11.489368 
L 15.974697 -11.999278 
L 15.974897 -12.509187 
L 15.974969 -13.019097 
L 15.974992 -13.529007 
L 15.974998 -14.038917 
L 15.975 -14.548826 
L 15.975 -15.058736 
L 15.975 -15.568646 
L 15.975 -16.078555 
L 15.975 -16.588465 
L 15.975 -17.098375 
L 15.975 -17.608285 
L 15.975 -18.118194 
L 15.975 -18.628104 
L 15.975 -19.138014 
L 15.975 -19.647923 
L 15.975 -20.157833 
L 15.975 -20.667743 
L 15.975 -21.177653 
L 15.974998 -21.687562 
L 15.974991 -22.197472 
L 15.974966 -22.707382 
L 15.974889 -23.217291 
L 15.974683 -23.727201 
L 15.974199 -24.237111 
L 15.973209 -24.747021 
L 15.971459 -25.25693 
L 15.968806 -25.76684 
L 15.965417 -26.27675 
L 15.961884 -26.78666 
L 15.959118 -27.296569 
L 15.957986 -27.806479 
L 15.958874 -28.316389 
L 15.961476 -28.826298 
L 15.964966 -29.336208 
L 15.968409 -29.846118 
L 15.971154 -30.356028 
L 15.972956 -30.865937 
L 15.973857 -31.375847 
L 15.973951 -31.885757 
L 15.973193 -32.395666 
L 15.971348 -32.905576 
L 15.968094 -33.415486 
L 15.963279 -33.925396 
L 15.957158 -34.435305 
L 15.950413 -34.945215 
L 15.94382 -35.455125 
L 15.937736 -35.965034 
L 15.931771 -36.474944 
L 15.924824 -36.984854 
L 15.91518 -37.494764 
L 15.900208 -38.004673 
L 15.875873 -38.514583 
L 15.837181 -39.024493 
L 15.780648 -39.534402 
L 15.708098 -40.044312 
L 15.628909 -40.554222 
L 15.557551 -41.064132 
L 15.506379 -41.574041 
L 15.478044 -42.083951 
L 15.463296 -42.593861 
L 15.446499 -43.10377 
L 15.415557 -43.61368 
L 15.370015 -44.12359 
L 15.322597 -44.6335 
L 15.293432 -45.143409 
L 15.300073 -45.653319 
L 15.348538 -46.163229 
L 15.430154 -46.673138 
L 15.525657 -47.183048 
L 15.613642 -47.692958 
L 15.678261 -48.202868 
L 15.712568 -48.712777 
L 15.717147 -49.222687 
L 15.696016 -49.732597 
L 15.652285 -50.242506 
L 15.585538 -50.752416 
L 15.49217 -51.262326 
L 15.368825 -51.772236 
L 15.21727 -52.282145 
L 15.04719 -52.792055 
L 14.873158 -53.301965 
L 14.704408 -53.811874 
L 14.530228 -54.321784 
L 14.308134 -54.831694 
L 13.965495 -55.341604 
L 13.425723 -55.851513 
L 12.661169 -56.361423 
L 11.751878 -56.871333 
L 10.905032 -57.381243 
L 10.395 -57.891152 
L 10.435653 -58.401062 
L 21.514347 -58.401062 
L 21.514347 -58.401062 
L 21.555 -57.891152 
L 21.044968 -57.381243 
L 20.198122 -56.871333 
L 19.288831 -56.361423 
L 18.524277 -55.851513 
L 17.984505 -55.341604 
L 17.641866 -54.831694 
L 17.419772 -54.321784 
L 17.245592 -53.811874 
L 17.076842 -53.301965 
L 16.90281 -52.792055 
L 16.73273 -52.282145 
L 16.581175 -51.772236 
L 16.45783 -51.262326 
L 16.364462 -50.752416 
L 16.297715 -50.242506 
L 16.253984 -49.732597 
L 16.232853 -49.222687 
L 16.237432 -48.712777 
L 16.271739 -48.202868 
L 16.336358 -47.692958 
L 16.424343 -47.183048 
L 16.519846 -46.673138 
L 16.601462 -46.163229 
L 16.649927 -45.653319 
L 16.656568 -45.143409 
L 16.627403 -44.6335 
L 16.579985 -44.12359 
L 16.534443 -43.61368 
L 16.503501 -43.10377 
L 16.486704 -42.593861 
L 16.471956 -42.083951 
L 16.443621 -41.574041 
L 16.392449 -41.064132 
L 16.321091 -40.554222 
L 16.241902 -40.044312 
L 16.169352 -39.534402 
L 16.112819 -39.024493 
L 16.074127 -38.514583 
L 16.049792 -38.004673 
L 16.03482 -37.494764 
L 16.025176 -36.984854 
L 16.018229 -36.474944 
L 16.012264 -35.965034 
L 16.00618 -35.455125 
L 15.999587 -34.945215 
L 15.992842 -34.435305 
L 15.986721 -33.925396 
L 15.981906 -33.415486 
L 15.978652 -32.905576 
L 15.976807 -32.395666 
L 15.976049 -31.885757 
L 15.976143 -31.375847 
L 15.977044 -30.865937 
L 15.978846 -30.356028 
L 15.981591 -29.846118 
L 15.985034 -29.336208 
L 15.988524 -28.826298 
L 15.991126 -28.316389 
L 15.992014 -27.806479 
L 15.990882 -27.296569 
L 15.988116 -26.78666 
L 15.984583 -26.27675 
L 15.981194 -25.76684 
L 15.978541 -25.25693 
L 15.976791 -24.747021 
L 15.975801 -24.237111 
L 15.975317 -23.727201 
L 15.975111 -23.217291 
L 15.975034 -22.707382 
L 15.975009 -22.197472 
L 15.975002 -21.687562 
L 15.975 -21.177653 
L 15.975 -20.667743 
L 15.975 -20.157833 
L 15.975 -19.647923 
L 15.975 -19.138014 
L 15.975 -18.628104 
L 15.975 -18.118194 
L 15.975 -17.608285 
L 15.975 -17.098375 
L 15.975 -16.588465 
L 15.975 -16.078555 
L 15.975 -15.568646 
L 15.975 -15.058736 
L 15.975 -14.548826 
L 15.975002 -14.038917 
L 15.975008 -13.529007 
L 15.975031 -13.019097 
L 15.975103 -12.509187 
L 15.975303 -11.999278 
L 15.975781 -11.489368 
L 15.976776 -10.979458 
L 15.97856 -10.469549 
L 15.981288 -9.959639 
L 15.984788 -9.449729 
L 15.988426 -8.939819 
L 15.991229 -8.42991 
L 15.992288 -7.92 
z
"/>
    </defs>
    <g clip-path="url(#p6a4e05ac88)">
     <use xlink:href="#m32e24c93ca" x="0" y="72" style="fill: #306c53; fill-opacity: 0.5"/>
    </g>
   </g>
   <g id="FillBetweenPolyCollection_2">
    <defs>
     <path id="m0a52f85a7e" d="M 49.455 -7.92 
L 38.295 -7.92 
L 39.609106 -8.26251 
L 41.966825 -8.605019 
L 43.369822 -8.947529 
L 43.78814 -9.290038 
L 43.859414 -9.632548 
L 43.869778 -9.975057 
L 43.870519 -10.317567 
L 43.866645 -10.660076 
L 43.861731 -11.002586 
L 43.858813 -11.345095 
L 43.858598 -11.687605 
L 43.860704 -12.030114 
L 43.862821 -12.372624 
L 43.863002 -12.715134 
L 43.862567 -13.057643 
L 43.86381 -13.400153 
L 43.867355 -13.742662 
L 43.871225 -14.085172 
L 43.872836 -14.427681 
L 43.871648 -14.770191 
L 43.869715 -15.1127 
L 43.869875 -15.45521 
L 43.872087 -15.797719 
L 43.874032 -16.140229 
L 43.874812 -16.482738 
L 43.874968 -16.825248 
L 43.874877 -17.167758 
L 43.874194 -17.510267 
L 43.871816 -17.852777 
L 43.867413 -18.195286 
L 43.863851 -18.537796 
L 43.864045 -18.880305 
L 43.866032 -19.222815 
L 43.867211 -19.565324 
L 43.867805 -19.907834 
L 43.868088 -20.250343 
L 43.869017 -20.592853 
L 43.871349 -20.935362 
L 43.873504 -21.277872 
L 43.873948 -21.620382 
L 43.872477 -21.962891 
L 43.870184 -22.305401 
L 43.869549 -22.64791 
L 43.871394 -22.99042 
L 43.873606 -23.332929 
L 43.874678 -23.675439 
L 43.874879 -24.017948 
L 43.874452 -24.360458 
L 43.872755 -24.702967 
L 43.869279 -25.045477 
L 43.865742 -25.387986 
L 43.865286 -25.730496 
L 43.868375 -26.073006 
L 43.872114 -26.415515 
L 43.874218 -26.758025 
L 43.874871 -27.100534 
L 43.874982 -27.443044 
L 43.874934 -27.785553 
L 43.874508 -28.128063 
L 43.872776 -28.470572 
L 43.868932 -28.813082 
L 43.864966 -29.155591 
L 43.864914 -29.498101 
L 43.868837 -29.84061 
L 43.872717 -30.18312 
L 43.87449 -30.52563 
L 43.874932 -30.868139 
L 43.874995 -31.210649 
L 43.875 -31.553158 
L 43.875 -31.895668 
L 43.875 -32.238177 
L 43.875 -32.580687 
L 43.875 -32.923196 
L 43.875 -33.265706 
L 43.875 -33.608215 
L 43.875 -33.950725 
L 43.875 -34.293234 
L 43.875 -34.635744 
L 43.875 -34.978254 
L 43.875 -35.320763 
L 43.875 -35.663273 
L 43.875 -36.005782 
L 43.875 -36.348292 
L 43.875 -36.690801 
L 43.875 -37.033311 
L 43.875 -37.37582 
L 43.875 -37.71833 
L 43.875 -38.060839 
L 43.875 -38.403349 
L 43.875 -38.745858 
L 43.875 -39.088368 
L 43.875 -39.430878 
L 43.875 -39.773387 
L 43.874993 -40.115897 
L 43.874925 -40.458406 
L 43.874505 -40.800916 
L 43.873103 -41.143425 
L 43.870752 -41.485935 
L 43.869442 -41.828444 
L 43.880558 -41.828444 
L 43.880558 -41.828444 
L 43.879248 -41.485935 
L 43.876897 -41.143425 
L 43.875495 -40.800916 
L 43.875075 -40.458406 
L 43.875007 -40.115897 
L 43.875 -39.773387 
L 43.875 -39.430878 
L 43.875 -39.088368 
L 43.875 -38.745858 
L 43.875 -38.403349 
L 43.875 -38.060839 
L 43.875 -37.71833 
L 43.875 -37.37582 
L 43.875 -37.033311 
L 43.875 -36.690801 
L 43.875 -36.348292 
L 43.875 -36.005782 
L 43.875 -35.663273 
L 43.875 -35.320763 
L 43.875 -34.978254 
L 43.875 -34.635744 
L 43.875 -34.293234 
L 43.875 -33.950725 
L 43.875 -33.608215 
L 43.875 -33.265706 
L 43.875 -32.923196 
L 43.875 -32.580687 
L 43.875 -32.238177 
L 43.875 -31.895668 
L 43.875 -31.553158 
L 43.875005 -31.210649 
L 43.875068 -30.868139 
L 43.87551 -30.52563 
L 43.877283 -30.18312 
L 43.881163 -29.84061 
L 43.885086 -29.498101 
L 43.885034 -29.155591 
L 43.881068 -28.813082 
L 43.877224 -28.470572 
L 43.875492 -28.128063 
L 43.875066 -27.785553 
L 43.875018 -27.443044 
L 43.875129 -27.100534 
L 43.875782 -26.758025 
L 43.877886 -26.415515 
L 43.881625 -26.073006 
L 43.884714 -25.730496 
L 43.884258 -25.387986 
L 43.880721 -25.045477 
L 43.877245 -24.702967 
L 43.875548 -24.360458 
L 43.875121 -24.017948 
L 43.875322 -23.675439 
L 43.876394 -23.332929 
L 43.878606 -22.99042 
L 43.880451 -22.64791 
L 43.879816 -22.305401 
L 43.877523 -21.962891 
L 43.876052 -21.620382 
L 43.876496 -21.277872 
L 43.878651 -20.935362 
L 43.880983 -20.592853 
L 43.881912 -20.250343 
L 43.882195 -19.907834 
L 43.882789 -19.565324 
L 43.883968 -19.222815 
L 43.885955 -18.880305 
L 43.886149 -18.537796 
L 43.882587 -18.195286 
L 43.878184 -17.852777 
L 43.875806 -17.510267 
L 43.875123 -17.167758 
L 43.875032 -16.825248 
L 43.875188 -16.482738 
L 43.875968 -16.140229 
L 43.877913 -15.797719 
L 43.880125 -15.45521 
L 43.880285 -15.1127 
L 43.878352 -14.770191 
L 43.877164 -14.427681 
L 43.878775 -14.085172 
L 43.882645 -13.742662 
L 43.88619 -13.400153 
L 43.887433 -13.057643 
L 43.886998 -12.715134 
L 43.887179 -12.372624 
L 43.889296 -12.030114 
L 43.891402 -11.687605 
L 43.891187 -11.345095 
L 43.888269 -11.002586 
L 43.883355 -10.660076 
L 43.879481 -10.317567 
L 43.880222 -9.975057 
L 43.890586 -9.632548 
L 43.96186 -9.290038 
L 44.380178 -8.947529 
L 45.783175 -8.605019 
L 48.140894 -8.26251 
L 49.455 -7.92 
z
"/>
    </defs>
    <g clip-path="url(#p6a4e05ac88)">
     <use xlink:href="#m0a52f85a7e" x="0" y="72" style="fill: #f0a394; fill-opacity: 0.5"/>
    </g>
   </g>
   <g id="FillBetweenPolyCollection_3">
    <defs>
     <path id="m5eea3e558e" d="M 57.860522 -7.92 
L 57.789478 -7.92 
L 57.790891 -8.429738 
L 57.794802 -8.939475 
L 57.800349 -9.449213 
L 57.806446 -9.95895 
L 57.812124 -10.468688 
L 57.816761 -10.978426 
L 57.820139 -11.488163 
L 57.822356 -11.997901 
L 57.823674 -12.507638 
L 57.824387 -13.017376 
L 57.824739 -13.527114 
L 57.824897 -14.036851 
L 57.824963 -14.546589 
L 57.824988 -15.056326 
L 57.824996 -15.566064 
L 57.824999 -16.075802 
L 57.825 -16.585539 
L 57.825 -17.095277 
L 57.825 -17.605014 
L 57.825 -18.114752 
L 57.825 -18.62449 
L 57.825 -19.134227 
L 57.825 -19.643965 
L 57.825 -20.153703 
L 57.825 -20.66344 
L 57.825 -21.173178 
L 57.825 -21.682915 
L 57.825 -22.192653 
L 57.825 -22.702391 
L 57.825 -23.212128 
L 57.825 -23.721866 
L 57.824999 -24.231603 
L 57.824996 -24.741341 
L 57.824985 -25.251079 
L 57.824953 -25.760816 
L 57.824863 -26.270554 
L 57.82463 -26.780291 
L 57.824071 -27.290029 
L 57.822835 -27.799767 
L 57.820322 -28.309504 
L 57.815618 -28.819242 
L 57.807534 -29.328979 
L 57.794807 -29.838717 
L 57.776498 -30.348455 
L 57.752529 -30.858192 
L 57.724124 -31.36793 
L 57.693896 -31.877667 
L 57.665349 -32.387405 
L 57.641885 -32.897143 
L 57.625646 -33.40688 
L 57.61674 -33.916618 
L 57.61317 -34.426355 
L 57.611436 -34.936093 
L 57.607348 -35.445831 
L 57.596495 -35.955568 
L 57.574085 -36.465306 
L 57.534389 -36.975043 
L 57.470476 -37.484781 
L 57.375028 -37.994519 
L 57.242647 -38.504256 
L 57.073263 -39.013994 
L 56.875279 -39.523731 
L 56.666575 -40.033469 
L 56.471867 -40.543207 
L 56.316491 -41.052944 
L 56.218745 -41.562682 
L 56.184198 -42.072419 
L 56.204804 -42.582157 
L 56.263245 -43.091895 
L 56.340083 -43.601632 
L 56.419992 -44.11137 
L 56.494227 -44.621108 
L 56.559036 -45.130845 
L 56.611959 -45.640583 
L 56.648734 -46.15032 
L 56.662491 -46.660058 
L 56.645316 -47.169796 
L 56.590989 -47.679533 
L 56.497547 -48.189271 
L 56.368771 -48.699008 
L 56.21435 -49.208746 
L 56.048781 -49.718484 
L 55.889267 -50.228221 
L 55.752927 -50.737959 
L 55.653821 -51.247696 
L 55.600151 -51.757434 
L 55.591778 -52.267172 
L 55.617902 -52.776909 
L 55.654966 -53.286647 
L 55.665679 -53.796384 
L 55.601239 -54.306122 
L 55.409391 -54.81586 
L 55.049845 -55.325597 
L 54.514978 -55.835335 
L 53.84866 -56.345072 
L 53.152308 -56.85481 
L 52.568953 -57.364548 
L 52.245 -57.874285 
L 52.28204 -58.384023 
L 63.36796 -58.384023 
L 63.36796 -58.384023 
L 63.405 -57.874285 
L 63.081047 -57.364548 
L 62.497692 -56.85481 
L 61.80134 -56.345072 
L 61.135022 -55.835335 
L 60.600155 -55.325597 
L 60.240609 -54.81586 
L 60.048761 -54.306122 
L 59.984321 -53.796384 
L 59.995034 -53.286647 
L 60.032098 -52.776909 
L 60.058222 -52.267172 
L 60.049849 -51.757434 
L 59.996179 -51.247696 
L 59.897073 -50.737959 
L 59.760733 -50.228221 
L 59.601219 -49.718484 
L 59.43565 -49.208746 
L 59.281229 -48.699008 
L 59.152453 -48.189271 
L 59.059011 -47.679533 
L 59.004684 -47.169796 
L 58.987509 -46.660058 
L 59.001266 -46.15032 
L 59.038041 -45.640583 
L 59.090964 -45.130845 
L 59.155773 -44.621108 
L 59.230008 -44.11137 
L 59.309917 -43.601632 
L 59.386755 -43.091895 
L 59.445196 -42.582157 
L 59.465802 -42.072419 
L 59.431255 -41.562682 
L 59.333509 -41.052944 
L 59.178133 -40.543207 
L 58.983425 -40.033469 
L 58.774721 -39.523731 
L 58.576737 -39.013994 
L 58.407353 -38.504256 
L 58.274972 -37.994519 
L 58.179524 -37.484781 
L 58.115611 -36.975043 
L 58.075915 -36.465306 
L 58.053505 -35.955568 
L 58.042652 -35.445831 
L 58.038564 -34.936093 
L 58.03683 -34.426355 
L 58.03326 -33.916618 
L 58.024354 -33.40688 
L 58.008115 -32.897143 
L 57.984651 -32.387405 
L 57.956104 -31.877667 
L 57.925876 -31.36793 
L 57.897471 -30.858192 
L 57.873502 -30.348455 
L 57.855193 -29.838717 
L 57.842466 -29.328979 
L 57.834382 -28.819242 
L 57.829678 -28.309504 
L 57.827165 -27.799767 
L 57.825929 -27.290029 
L 57.82537 -26.780291 
L 57.825137 -26.270554 
L 57.825047 -25.760816 
L 57.825015 -25.251079 
L 57.825004 -24.741341 
L 57.825001 -24.231603 
L 57.825 -23.721866 
L 57.825 -23.212128 
L 57.825 -22.702391 
L 57.825 -22.192653 
L 57.825 -21.682915 
L 57.825 -21.173178 
L 57.825 -20.66344 
L 57.825 -20.153703 
L 57.825 -19.643965 
L 57.825 -19.134227 
L 57.825 -18.62449 
L 57.825 -18.114752 
L 57.825 -17.605014 
L 57.825 -17.095277 
L 57.825 -16.585539 
L 57.825001 -16.075802 
L 57.825004 -15.566064 
L 57.825012 -15.056326 
L 57.825037 -14.546589 
L 57.825103 -14.036851 
L 57.825261 -13.527114 
L 57.825613 -13.017376 
L 57.826326 -12.507638 
L 57.827644 -11.997901 
L 57.829861 -11.488163 
L 57.833239 -10.978426 
L 57.837876 -10.468688 
L 57.843554 -9.95895 
L 57.849651 -9.449213 
L 57.855198 -8.939475 
L 57.859109 -8.429738 
L 57.860522 -7.92 
z
"/>
    </defs>
    <g clip-path="url(#p6a4e05ac88)">
     <use xlink:href="#m5eea3e558e" x="0" y="72" style="fill: #126175; fill-opacity: 0.5"/>
    </g>
   </g>
   <g id="matplotlib.axis_1">
    <g id="xtick_1">
     <g id="line2d_1">
      <defs>
       <path id="mdb36ac0d87" d="M 0 0 
L 0 1.7 
" style="stroke: #000000; stroke-width: 0.25"/>
      </defs>
      <g>
       <use xlink:href="#mdb36ac0d87" x="15.975" y="66.08" style="stroke: #000000; stroke-width: 0.25"/>
      </g>
     </g>
     <g id="text_1">
      <text style="font-size: 6px; font-family: 'Arial'; text-anchor: middle" x="15.975" y="75.574687" transform="rotate(-0 15.975 75.574687)">none</text>
     </g>
    </g>
    <g id="xtick_2">
     <g id="line2d_2">
      <g>
       <use xlink:href="#mdb36ac0d87" x="29.925" y="66.08" style="stroke: #000000; stroke-width: 0.25"/>
      </g>
     </g>
     <g id="text_2">
      <text style="font-size: 6px; font-family: 'Arial'; text-anchor: middle" x="29.925" y="75.574687" transform="rotate(-0 29.925 75.574687)">E1</text>
     </g>
    </g>
    <g id="xtick_3">
     <g id="line2d_3">
      <g>
       <use xlink:href="#mdb36ac0d87" x="43.875" y="66.08" style="stroke: #000000; stroke-width: 0.25"/>
      </g>
     </g>
     <g id="text_3">
      <text style="font-size: 6px; font-family: 'Arial'; text-anchor: middle" x="43.875" y="75.574687" transform="rotate(-0 43.875 75.574687)">E2</text>
     </g>
    </g>
    <g id="xtick_4">
     <g id="line2d_4">
      <g>
       <use xlink:href="#mdb36ac0d87" x="57.825" y="66.08" style="stroke: #000000; stroke-width: 0.25"/>
      </g>
     </g>
     <g id="text_4">
      <text style="font-size: 6px; font-family: 'Arial'; text-anchor: middle" x="57.825" y="75.574687" transform="rotate(-0 57.825 75.574687)">I1</text>
     </g>
    </g>
    <g id="text_5">
     <text style="font-size: 8px; font-family: 'Arial'; text-anchor: middle" x="36.9" y="86.493437" transform="rotate(-0 36.9 86.493437)">silenced neuron</text>
    </g>
   </g>
   <g id="matplotlib.axis_2">
    <g id="ytick_1">
     <g id="line2d_5">
      <defs>
       <path id="m007221b485" d="M 0 0 
L -1.7 0 
" style="stroke: #000000; stroke-width: 0.25"/>
      </defs>
      <g>
       <use xlink:href="#m007221b485" x="7" y="64.08" style="stroke: #000000; stroke-width: 0.25"/>
      </g>
     </g>
     <g id="text_6">
      <text style="font-size: 6px; font-family: 'Arial'; text-anchor: end" x="1.8" y="66.227344" transform="rotate(-0 1.8 66.227344)">0.0</text>
     </g>
    </g>
    <g id="ytick_2">
     <g id="line2d_6">
      <g>
       <use xlink:href="#m007221b485" x="7" y="38.88" style="stroke: #000000; stroke-width: 0.25"/>
      </g>
     </g>
     <g id="text_7">
      <text style="font-size: 6px; font-family: 'Arial'; text-anchor: end" x="1.8" y="41.027344" transform="rotate(-0 1.8 41.027344)">0.5</text>
     </g>
    </g>
    <g id="ytick_3">
     <g id="line2d_7">
      <g>
       <use xlink:href="#m007221b485" x="7" y="13.68" style="stroke: #000000; stroke-width: 0.25"/>
      </g>
     </g>
     <g id="text_8">
      <text style="font-size: 6px; font-family: 'Arial'; text-anchor: end" x="1.8" y="15.827344" transform="rotate(-0 1.8 15.827344)">1.0</text>
     </g>
    </g>
    <g id="text_9">
     <text style="font-size: 8px; font-family: 'Arial'; text-anchor: middle" x="-12.22375" y="36.36" transform="rotate(-90 -12.22375 36.36)">motor rhythmicity score</text>
    </g>
   </g>
   <g id="line2d_8">
    <path d="M 24.345 64.08 
L 35.505 64.08 
" clip-path="url(#p6a4e05ac88)" style="fill: none"/>
   </g>
   <g id="patch_3">
    <path d="M 14.58 18.006036 
L 17.37 18.006036 
L 17.37 13.704937 
L 14.58 13.704937 
L 14.58 18.006036 
z
" clip-path="url(#p6a4e05ac88)" style="fill: #306c53; opacity: 0.5; stroke: #282828; stroke-width: 0.75; stroke-linejoin: miter"/>
   </g>
   <g id="line2d_9">
    <path d="M 15.975 18.006036 
L 15.975 24.441882 
" clip-path="url(#p6a4e05ac88)" style="fill: none; stroke: #282828; stroke-width: 0.75"/>
   </g>
   <g id="line2d_10">
    <path d="M 15.975 13.704937 
L 15.975 13.598938 
" clip-path="url(#p6a4e05ac88)" style="fill: none; stroke: #282828; stroke-width: 0.75"/>
   </g>
   <g id="line2d_11">
    <path d="M 15.2775 24.441882 
L 16.6725 24.441882 
" clip-path="url(#p6a4e05ac88)" style="fill: none; stroke: #282828; stroke-width: 0.75; stroke-linecap: square"/>
   </g>
   <g id="line2d_12">
    <path d="M 15.2775 13.598938 
L 16.6725 13.598938 
" clip-path="url(#p6a4e05ac88)" style="fill: none; stroke: #282828; stroke-width: 0.75; stroke-linecap: square"/>
   </g>
   <g id="patch_4">
    <path d="M 28.53 64.08 
L 31.32 64.08 
L 31.32 64.08 
L 28.53 64.08 
L 28.53 64.08 
z
" clip-path="url(#p6a4e05ac88)" style="fill: #c35843; opacity: 0.5; stroke: #282828; stroke-width: 0.75; stroke-linejoin: miter"/>
   </g>
   <g id="line2d_13">
    <path d="M 29.925 64.08 
L 29.925 64.08 
" clip-path="url(#p6a4e05ac88)" style="fill: none; stroke: #282828; stroke-width: 0.75"/>
   </g>
   <g id="line2d_14">
    <path d="M 29.925 64.08 
L 29.925 64.08 
" clip-path="url(#p6a4e05ac88)" style="fill: none; stroke: #282828; stroke-width: 0.75"/>
   </g>
   <g id="line2d_15">
    <path d="M 29.2275 64.08 
L 30.6225 64.08 
" clip-path="url(#p6a4e05ac88)" style="fill: none; stroke: #282828; stroke-width: 0.75; stroke-linecap: square"/>
   </g>
   <g id="line2d_16">
    <path d="M 29.2275 64.08 
L 30.6225 64.08 
" clip-path="url(#p6a4e05ac88)" style="fill: none; stroke: #282828; stroke-width: 0.75; stroke-linecap: square"/>
   </g>
   <g id="patch_5">
    <path d="M 42.48 64.08 
L 45.27 64.08 
L 45.27 64.08 
L 42.48 64.08 
L 42.48 64.08 
z
" clip-path="url(#p6a4e05ac88)" style="fill: #f0a394; opacity: 0.5; stroke: #282828; stroke-width: 0.75; stroke-linejoin: miter"/>
   </g>
   <g id="line2d_17">
    <path d="M 43.875 64.08 
L 43.875 64.08 
" clip-path="url(#p6a4e05ac88)" style="fill: none; stroke: #282828; stroke-width: 0.75"/>
   </g>
   <g id="line2d_18">
    <path d="M 43.875 64.08 
L 43.875 64.08 
" clip-path="url(#p6a4e05ac88)" style="fill: none; stroke: #282828; stroke-width: 0.75"/>
   </g>
   <g id="line2d_19">
    <path d="M 43.1775 64.08 
L 44.5725 64.08 
" clip-path="url(#p6a4e05ac88)" style="fill: none; stroke: #282828; stroke-width: 0.75; stroke-linecap: square"/>
   </g>
   <g id="line2d_20">
    <path d="M 43.1775 64.08 
L 44.5725 64.08 
" clip-path="url(#p6a4e05ac88)" style="fill: none; stroke: #282828; stroke-width: 0.75; stroke-linecap: square"/>
   </g>
   <g id="patch_6">
    <path d="M 56.43 24.275542 
L 59.22 24.275542 
L 59.22 13.706846 
L 56.43 13.706846 
L 56.43 24.275542 
z
" clip-path="url(#p6a4e05ac88)" style="fill: #126175; opacity: 0.5; stroke: #282828; stroke-width: 0.75; stroke-linejoin: miter"/>
   </g>
   <g id="line2d_21">
    <path d="M 57.825 24.275542 
L 57.825 39.800076 
" clip-path="url(#p6a4e05ac88)" style="fill: none; stroke: #282828; stroke-width: 0.75"/>
   </g>
   <g id="line2d_22">
    <path d="M 57.825 13.706846 
L 57.825 13.615977 
" clip-path="url(#p6a4e05ac88)" style="fill: none; stroke: #282828; stroke-width: 0.75"/>
   </g>
   <g id="line2d_23">
    <path d="M 57.1275 39.800076 
L 58.5225 39.800076 
" clip-path="url(#p6a4e05ac88)" style="fill: none; stroke: #282828; stroke-width: 0.75; stroke-linecap: square"/>
   </g>
   <g id="line2d_24">
    <path d="M 57.1275 13.615977 
L 58.5225 13.615977 
" clip-path="url(#p6a4e05ac88)" style="fill: none; stroke: #282828; stroke-width: 0.75; stroke-linecap: square"/>
   </g>
   <g id="line2d_25">
    <path d="M 14.58 13.7444 
L 17.37 13.7444 
" clip-path="url(#p6a4e05ac88)" style="fill: none; stroke: #282828; stroke-width: 0.75"/>
   </g>
   <g id="line2d_26">
    <path d="M 28.53 64.08 
L 31.32 64.08 
" clip-path="url(#p6a4e05ac88)" style="fill: none; stroke: #282828; stroke-width: 0.75"/>
   </g>
   <g id="line2d_27">
    <path d="M 42.48 64.08 
L 45.27 64.08 
" clip-path="url(#p6a4e05ac88)" style="fill: none; stroke: #282828; stroke-width: 0.75"/>
   </g>
   <g id="line2d_28">
    <path d="M 56.43 17.740267 
L 59.22 17.740267 
" clip-path="url(#p6a4e05ac88)" style="fill: none; stroke: #282828; stroke-width: 0.75"/>
   </g>
   <g id="patch_7">
    <path d="M 7 64.08 
L 7 8.64 
" style="fill: none; stroke: #000000; stroke-width: 0.25; stroke-linejoin: miter; stroke-linecap: square"/>
   </g>
   <g id="patch_8">
    <path d="M 9 66.08 
L 64.8 66.08 
" style="fill: none; stroke: #000000; stroke-width: 0.25; stroke-linejoin: miter; stroke-linecap: square"/>
   </g>
  </g>
 </g>
 <defs>
  <clipPath id="p6a4e05ac88">
   <rect x="9" y="8.64" width="55.8" height="55.44"/>
  </clipPath>
 </defs>
</svg>
