<?xml version="1.0" encoding="utf-8" standalone="no"?>
<!DOCTYPE svg PUBLIC "-//W3C//DTD SVG 1.1//EN"
  "http://www.w3.org/Graphics/SVG/1.1/DTD/svg11.dtd">
<svg xmlns:xlink="http://www.w3.org/1999/xlink" width="64.8pt" height="50.4pt" viewBox="0 0 64.8 50.4" xmlns="http://www.w3.org/2000/svg" version="1.1">
 <metadata>
  <rdf:RDF xmlns:dc="http://purl.org/dc/elements/1.1/" xmlns:cc="http://creativecommons.org/ns#" xmlns:rdf="http://www.w3.org/1999/02/22-rdf-syntax-ns#">
   <cc:Work>
    <dc:type rdf:resource="http://purl.org/dc/dcmitype/StillImage"/>
    <dc:date>2025-09-03T15:02:16.169113</dc:date>
    <dc:format>image/svg+xml</dc:format>
    <dc:creator>
     <cc:Agent>
      <dc:title>Matplotlib v3.10.3, https://matplotlib.org/</dc:title>
     </cc:Agent>
    </dc:creator>
   </cc:Work>
  </rdf:RDF>
 </metadata>
 <defs>
  <style type="text/css">*{stroke-linejoin: round; stroke-linecap: butt}</style>
 </defs>
 <g id="figure_1">
  <g id="patch_1">
   <path d="M 0 50.4 
L 64.8 50.4 
L 64.8 0 
L 0 0 
L 0 50.4 
z
" style="fill: none"/>
  </g>
  <g id="axes_1">
   <g id="patch_2">
    <path d="M 8.1 44.856 
L 58.32 44.856 
L 58.32 6.048 
L 8.1 6.048 
L 8.1 44.856 
z
" style="fill: none"/>
   </g>
   <g id="FillBetweenPolyCollection_1">
    <defs>
     <path id="mdf8f2f454c" d="M 8.1 -39.488749 
L 8.1 -39.513251 
L 8.561899 -39.510892 
L 9.023797 -39.506208 
L 9.485696 -39.502788 
L 9.947595 -39.5014 
L 10.409494 -39.501058 
L 10.871392 -39.501006 
L 11.333291 -39.501 
L 11.79519 -39.501 
L 12.257089 -39.501 
L 12.718987 -39.501 
L 13.180886 -39.501 
L 13.642785 -39.501 
L 14.104684 -39.501 
L 14.566582 -39.501 
L 15.028481 -39.501 
L 15.49038 -39.501 
L 15.952279 -39.501 
L 16.414177 -39.501 
L 16.876076 -39.501 
L 17.337975 -39.501 
L 17.799873 -39.501 
L 18.261772 -39.501 
L 18.723671 -39.501 
L 19.18557 -39.501 
L 19.647468 -39.501 
L 20.109367 -39.501 
L 20.571266 -39.501 
L 21.033165 -39.501 
L 21.495063 -39.501 
L 21.956962 -39.501 
L 22.418861 -39.501 
L 22.88076 -39.501 
L 23.342658 -39.501 
L 23.804557 -39.501 
L 24.266456 -39.501 
L 24.728355 -39.501 
L 25.190253 -39.501 
L 25.652152 -39.501 
L 26.114051 -39.501 
L 26.575949 -39.501 
L 27.037848 -39.501 
L 27.499747 -39.501 
L 27.961646 -39.501 
L 28.423544 -39.501 
L 28.885443 -39.501 
L 29.347342 -39.501 
L 29.809241 -39.501 
L 30.271139 -39.501 
L 30.733038 -39.501 
L 31.194937 -39.501 
L 31.656836 -39.501 
L 32.118734 -39.501 
L 32.580633 -39.501 
L 33.042532 -39.501005 
L 33.504431 -39.50105 
L 33.966329 -39.501308 
L 34.428228 -39.502231 
L 34.890127 -39.504207 
L 35.352025 -39.506449 
L 35.813924 -39.507037 
L 36.275823 -39.505361 
L 36.737722 -39.503056 
L 37.19962 -39.501657 
L 37.661519 -39.501311 
L 38.123418 -39.501857 
L 38.585317 -39.503502 
L 39.047215 -39.505865 
L 39.509114 -39.507273 
L 39.971013 -39.506772 
L 40.432912 -39.506018 
L 40.89481 -39.506887 
L 41.356709 -39.508808 
L 41.818608 -39.510867 
L 42.280507 -39.514538 
L 42.742405 -39.521805 
L 43.204304 -39.531152 
L 43.666203 -39.536939 
L 44.128101 -39.535994 
L 44.59 -39.534549 
L 45.051899 -39.542967 
L 45.513798 -39.563853 
L 45.975696 -39.588902 
L 46.437595 -39.606419 
L 46.899494 -39.614493 
L 47.361393 -39.626404 
L 47.823291 -39.659994 
L 48.28519 -39.730888 
L 48.747089 -39.847644 
L 49.208988 -39.989065 
L 49.670886 -40.101196 
L 50.132785 -40.150127 
L 50.594684 -40.159035 
L 51.056583 -40.169494 
L 51.518481 -40.212304 
L 51.98038 -40.386317 
L 52.442279 -40.970815 
L 52.904177 -42.207908 
L 53.366076 -43.589389 
L 53.827975 -43.8669 
L 53.827975 -35.1351 
L 53.827975 -35.1351 
L 53.366076 -35.412611 
L 52.904177 -36.794092 
L 52.442279 -38.031185 
L 51.98038 -38.615683 
L 51.518481 -38.789696 
L 51.056583 -38.832506 
L 50.594684 -38.842965 
L 50.132785 -38.851873 
L 49.670886 -38.900804 
L 49.208988 -39.012935 
L 48.747089 -39.154356 
L 48.28519 -39.271112 
L 47.823291 -39.342006 
L 47.361393 -39.375596 
L 46.899494 -39.387507 
L 46.437595 -39.395581 
L 45.975696 -39.413098 
L 45.513798 -39.438147 
L 45.051899 -39.459033 
L 44.59 -39.467451 
L 44.128101 -39.466006 
L 43.666203 -39.465061 
L 43.204304 -39.470848 
L 42.742405 -39.480195 
L 42.280507 -39.487462 
L 41.818608 -39.491133 
L 41.356709 -39.493192 
L 40.89481 -39.495113 
L 40.432912 -39.495982 
L 39.971013 -39.495228 
L 39.509114 -39.494727 
L 39.047215 -39.496135 
L 38.585317 -39.498498 
L 38.123418 -39.500143 
L 37.661519 -39.500689 
L 37.19962 -39.500343 
L 36.737722 -39.498944 
L 36.275823 -39.496639 
L 35.813924 -39.494963 
L 35.352025 -39.495551 
L 34.890127 -39.497793 
L 34.428228 -39.499769 
L 33.966329 -39.500692 
L 33.504431 -39.50095 
L 33.042532 -39.500995 
L 32.580633 -39.501 
L 32.118734 -39.501 
L 31.656836 -39.501 
L 31.194937 -39.501 
L 30.733038 -39.501 
L 30.271139 -39.501 
L 29.809241 -39.501 
L 29.347342 -39.501 
L 28.885443 -39.501 
L 28.423544 -39.501 
L 27.961646 -39.501 
L 27.499747 -39.501 
L 27.037848 -39.501 
L 26.575949 -39.501 
L 26.114051 -39.501 
L 25.652152 -39.501 
L 25.190253 -39.501 
L 24.728355 -39.501 
L 24.266456 -39.501 
L 23.804557 -39.501 
L 23.342658 -39.501 
L 22.88076 -39.501 
L 22.418861 -39.501 
L 21.956962 -39.501 
L 21.495063 -39.501 
L 21.033165 -39.501 
L 20.571266 -39.501 
L 20.109367 -39.501 
L 19.647468 -39.501 
L 19.18557 -39.501 
L 18.723671 -39.501 
L 18.261772 -39.501 
L 17.799873 -39.501 
L 17.337975 -39.501 
L 16.876076 -39.501 
L 16.414177 -39.501 
L 15.952279 -39.501 
L 15.49038 -39.501 
L 15.028481 -39.501 
L 14.566582 -39.501 
L 14.104684 -39.501 
L 13.642785 -39.501 
L 13.180886 -39.501 
L 12.718987 -39.501 
L 12.257089 -39.501 
L 11.79519 -39.501 
L 11.333291 -39.501 
L 10.871392 -39.500994 
L 10.409494 -39.500942 
L 9.947595 -39.5006 
L 9.485696 -39.499212 
L 9.023797 -39.495792 
L 8.561899 -39.491108 
L 8.1 -39.488749 
z
"/>
    </defs>
    <g clip-path="url(#p22a31c8dc8)">
     <use xlink:href="#mdf8f2f454c" x="0" y="50.4" style="fill: #306c53; fill-opacity: 0.5"/>
    </g>
   </g>
   <g id="FillBetweenPolyCollection_2">
    <defs>
     <path id="ma7eb0747fa" d="M 8.1 -15.7311 
L 8.1 -24.4629 
L 8.419627 -23.589565 
L 8.739253 -21.884958 
L 9.05888 -20.682775 
L 9.378507 -20.220011 
L 9.698133 -20.114519 
L 10.01776 -20.101894 
L 10.337386 -20.10499 
L 10.657013 -20.109835 
L 10.97664 -20.113184 
L 11.296266 -20.114785 
L 11.615893 -20.114981 
L 11.93552 -20.113419 
L 12.255146 -20.110977 
L 12.574773 -20.109159 
L 12.894399 -20.107686 
L 13.214026 -20.10528 
L 13.533653 -20.101966 
L 13.853279 -20.099128 
L 14.172906 -20.097623 
L 14.492533 -20.097121 
L 14.812159 -20.097015 
L 15.131786 -20.097001 
L 15.451413 -20.097 
L 15.771039 -20.097002 
L 16.090666 -20.097022 
L 16.410292 -20.097179 
L 16.729919 -20.097934 
L 17.049546 -20.100238 
L 17.369172 -20.104533 
L 17.688799 -20.109002 
L 18.008426 -20.110631 
L 18.328052 -20.108945 
L 18.647679 -20.106188 
L 18.967305 -20.104203 
L 19.286932 -20.103117 
L 19.606559 -20.101896 
L 19.926185 -20.100056 
L 20.245812 -20.098557 
L 20.565439 -20.098451 
L 20.885065 -20.09973 
L 21.204692 -20.101138 
L 21.524318 -20.101094 
L 21.843945 -20.099595 
L 22.163572 -20.098053 
L 22.483198 -20.097276 
L 22.802825 -20.097077 
L 23.122452 -20.09721 
L 23.442078 -20.097855 
L 23.761705 -20.099282 
L 24.081332 -20.100898 
L 24.400958 -20.101262 
L 24.720585 -20.099982 
L 25.040211 -20.098335 
L 25.359838 -20.097383 
L 25.679465 -20.097079 
L 25.999091 -20.097091 
L 26.318718 -20.097488 
L 26.638345 -20.098866 
L 26.957971 -20.10167 
L 27.277598 -20.104666 
L 27.597224 -20.105263 
L 27.916851 -20.102851 
L 28.236478 -20.099718 
L 28.556104 -20.097827 
L 28.875731 -20.097164 
L 29.195358 -20.097021 
L 29.514984 -20.097002 
L 29.834611 -20.097 
L 30.154238 -20.097 
L 30.473864 -20.097 
L 30.793491 -20.097 
L 31.113117 -20.097 
L 31.432744 -20.097 
L 31.752371 -20.097 
L 32.071997 -20.097 
L 32.391624 -20.097 
L 32.711251 -20.097 
L 33.030877 -20.097 
L 33.350504 -20.097 
L 33.67013 -20.097 
L 33.989757 -20.097 
L 34.309384 -20.097 
L 34.62901 -20.097 
L 34.948637 -20.097 
L 35.268264 -20.097 
L 35.58789 -20.097 
L 35.907517 -20.097 
L 36.227144 -20.097 
L 36.54677 -20.097 
L 36.866397 -20.097001 
L 37.186023 -20.097013 
L 37.50565 -20.097102 
L 37.825277 -20.097511 
L 38.144903 -20.098643 
L 38.46453 -20.100443 
L 38.784157 -20.101922 
L 39.103783 -20.102409 
L 39.42341 -20.10242 
L 39.743036 -20.102013 
L 39.743036 -20.091987 
L 39.743036 -20.091987 
L 39.42341 -20.09158 
L 39.103783 -20.091591 
L 38.784157 -20.092078 
L 38.46453 -20.093557 
L 38.144903 -20.095357 
L 37.825277 -20.096489 
L 37.50565 -20.096898 
L 37.186023 -20.096987 
L 36.866397 -20.096999 
L 36.54677 -20.097 
L 36.227144 -20.097 
L 35.907517 -20.097 
L 35.58789 -20.097 
L 35.268264 -20.097 
L 34.948637 -20.097 
L 34.62901 -20.097 
L 34.309384 -20.097 
L 33.989757 -20.097 
L 33.67013 -20.097 
L 33.350504 -20.097 
L 33.030877 -20.097 
L 32.711251 -20.097 
L 32.391624 -20.097 
L 32.071997 -20.097 
L 31.752371 -20.097 
L 31.432744 -20.097 
L 31.113117 -20.097 
L 30.793491 -20.097 
L 30.473864 -20.097 
L 30.154238 -20.097 
L 29.834611 -20.097 
L 29.514984 -20.096998 
L 29.195358 -20.096979 
L 28.875731 -20.096836 
L 28.556104 -20.096173 
L 28.236478 -20.094282 
L 27.916851 -20.091149 
L 27.597224 -20.088737 
L 27.277598 -20.089334 
L 26.957971 -20.09233 
L 26.638345 -20.095134 
L 26.318718 -20.096512 
L 25.999091 -20.096909 
L 25.679465 -20.096921 
L 25.359838 -20.096617 
L 25.040211 -20.095665 
L 24.720585 -20.094018 
L 24.400958 -20.092738 
L 24.081332 -20.093102 
L 23.761705 -20.094718 
L 23.442078 -20.096145 
L 23.122452 -20.09679 
L 22.802825 -20.096923 
L 22.483198 -20.096724 
L 22.163572 -20.095947 
L 21.843945 -20.094405 
L 21.524318 -20.092906 
L 21.204692 -20.092862 
L 20.885065 -20.09427 
L 20.565439 -20.095549 
L 20.245812 -20.095443 
L 19.926185 -20.093944 
L 19.606559 -20.092104 
L 19.286932 -20.090883 
L 18.967305 -20.089797 
L 18.647679 -20.087812 
L 18.328052 -20.085055 
L 18.008426 -20.083369 
L 17.688799 -20.084998 
L 17.369172 -20.089467 
L 17.049546 -20.093762 
L 16.729919 -20.096066 
L 16.410292 -20.096821 
L 16.090666 -20.096978 
L 15.771039 -20.096998 
L 15.451413 -20.097 
L 15.131786 -20.096999 
L 14.812159 -20.096985 
L 14.492533 -20.096879 
L 14.172906 -20.096377 
L 13.853279 -20.094872 
L 13.533653 -20.092034 
L 13.214026 -20.08872 
L 12.894399 -20.086314 
L 12.574773 -20.084841 
L 12.255146 -20.083023 
L 11.93552 -20.080581 
L 11.615893 -20.079019 
L 11.296266 -20.079215 
L 10.97664 -20.080816 
L 10.657013 -20.084165 
L 10.337386 -20.08901 
L 10.01776 -20.092106 
L 9.698133 -20.079481 
L 9.378507 -19.973989 
L 9.05888 -19.511225 
L 8.739253 -18.309042 
L 8.419627 -16.604435 
L 8.1 -15.7311 
z
"/>
    </defs>
    <g clip-path="url(#p22a31c8dc8)">
     <use xlink:href="#ma7eb0747fa" x="0" y="50.4" style="fill: #f0a394; fill-opacity: 0.5"/>
    </g>
   </g>
   <g id="FillBetweenPolyCollection_3">
    <defs>
     <path id="maba6b41a7b" d="M 8.1 -10.371698 
L 8.1 -10.418302 
L 8.561743 -10.416139 
L 9.023486 -10.410781 
L 9.485228 -10.404695 
L 9.946971 -10.399902 
L 10.408714 -10.397039 
L 10.870457 -10.395698 
L 11.3322 -10.395197 
L 11.793943 -10.395046 
L 12.255685 -10.395009 
L 12.717428 -10.395001 
L 13.179171 -10.395 
L 13.640914 -10.395 
L 14.102657 -10.395 
L 14.5644 -10.395 
L 15.026142 -10.395 
L 15.487885 -10.395 
L 15.949628 -10.395 
L 16.411371 -10.395 
L 16.873114 -10.395 
L 17.334857 -10.395 
L 17.796599 -10.395 
L 18.258342 -10.395 
L 18.720085 -10.395 
L 19.181828 -10.395 
L 19.643571 -10.395 
L 20.105314 -10.395 
L 20.567056 -10.395 
L 21.028799 -10.395 
L 21.490542 -10.395 
L 21.952285 -10.395 
L 22.414028 -10.395 
L 22.875771 -10.395 
L 23.337513 -10.395 
L 23.799256 -10.395 
L 24.260999 -10.395 
L 24.722742 -10.395 
L 25.184485 -10.395 
L 25.646228 -10.395 
L 26.10797 -10.395 
L 26.569713 -10.395 
L 27.031456 -10.395 
L 27.493199 -10.395 
L 27.954942 -10.395 
L 28.416685 -10.395 
L 28.878427 -10.395 
L 29.34017 -10.395 
L 29.801913 -10.395 
L 30.263656 -10.395 
L 30.725399 -10.395 
L 31.187141 -10.395 
L 31.648884 -10.395 
L 32.110627 -10.395 
L 32.57237 -10.395001 
L 33.034113 -10.395007 
L 33.495856 -10.395033 
L 33.957598 -10.39513 
L 34.419341 -10.395422 
L 34.881084 -10.396134 
L 35.342827 -10.397535 
L 35.80457 -10.399754 
L 36.266313 -10.40257 
L 36.728055 -10.405444 
L 37.189798 -10.407898 
L 37.651541 -10.410076 
L 38.113284 -10.413153 
L 38.575027 -10.419404 
L 39.03677 -10.431689 
L 39.498512 -10.452265 
L 39.960255 -10.481412 
L 40.421998 -10.516679 
L 40.883741 -10.553244 
L 41.345484 -10.585619 
L 41.807227 -10.610657 
L 42.268969 -10.630525 
L 42.730712 -10.652924 
L 43.192455 -10.687272 
L 43.654198 -10.739598 
L 44.115941 -10.810798 
L 44.577684 -10.89953 
L 45.039426 -11.00597 
L 45.501169 -11.131817 
L 45.962912 -11.276148 
L 46.424655 -11.430946 
L 46.886398 -11.580488 
L 47.348141 -11.705294 
L 47.809883 -11.787368 
L 48.271626 -11.813308 
L 48.733369 -11.776314 
L 49.195112 -11.680228 
L 49.656855 -11.544496 
L 50.118598 -11.4055 
L 50.58034 -11.314588 
L 51.042083 -11.339735 
L 51.503826 -11.570243 
L 51.965569 -12.097963 
L 52.427312 -12.938133 
L 52.889054 -13.915918 
L 53.350797 -14.65222 
L 53.81254 -14.7609 
L 53.81254 -6.0291 
L 53.81254 -6.0291 
L 53.350797 -6.13778 
L 52.889054 -6.874082 
L 52.427312 -7.851867 
L 51.965569 -8.692037 
L 51.503826 -9.219757 
L 51.042083 -9.450265 
L 50.58034 -9.475412 
L 50.118598 -9.3845 
L 49.656855 -9.245504 
L 49.195112 -9.109772 
L 48.733369 -9.013686 
L 48.271626 -8.976692 
L 47.809883 -9.002632 
L 47.348141 -9.084706 
L 46.886398 -9.209512 
L 46.424655 -9.359054 
L 45.962912 -9.513852 
L 45.501169 -9.658183 
L 45.039426 -9.78403 
L 44.577684 -9.89047 
L 44.115941 -9.979202 
L 43.654198 -10.050402 
L 43.192455 -10.102728 
L 42.730712 -10.137076 
L 42.268969 -10.159475 
L 41.807227 -10.179343 
L 41.345484 -10.204381 
L 40.883741 -10.236756 
L 40.421998 -10.273321 
L 39.960255 -10.308588 
L 39.498512 -10.337735 
L 39.03677 -10.358311 
L 38.575027 -10.370596 
L 38.113284 -10.376847 
L 37.651541 -10.379924 
L 37.189798 -10.382102 
L 36.728055 -10.384556 
L 36.266313 -10.38743 
L 35.80457 -10.390246 
L 35.342827 -10.392465 
L 34.881084 -10.393866 
L 34.419341 -10.394578 
L 33.957598 -10.39487 
L 33.495856 -10.394967 
L 33.034113 -10.394993 
L 32.57237 -10.394999 
L 32.110627 -10.395 
L 31.648884 -10.395 
L 31.187141 -10.395 
L 30.725399 -10.395 
L 30.263656 -10.395 
L 29.801913 -10.395 
L 29.34017 -10.395 
L 28.878427 -10.395 
L 28.416685 -10.395 
L 27.954942 -10.395 
L 27.493199 -10.395 
L 27.031456 -10.395 
L 26.569713 -10.395 
L 26.10797 -10.395 
L 25.646228 -10.395 
L 25.184485 -10.395 
L 24.722742 -10.395 
L 24.260999 -10.395 
L 23.799256 -10.395 
L 23.337513 -10.395 
L 22.875771 -10.395 
L 22.414028 -10.395 
L 21.952285 -10.395 
L 21.490542 -10.395 
L 21.028799 -10.395 
L 20.567056 -10.395 
L 20.105314 -10.395 
L 19.643571 -10.395 
L 19.181828 -10.395 
L 18.720085 -10.395 
L 18.258342 -10.395 
L 17.796599 -10.395 
L 17.334857 -10.395 
L 16.873114 -10.395 
L 16.411371 -10.395 
L 15.949628 -10.395 
L 15.487885 -10.395 
L 15.026142 -10.395 
L 14.5644 -10.395 
L 14.102657 -10.395 
L 13.640914 -10.395 
L 13.179171 -10.395 
L 12.717428 -10.394999 
L 12.255685 -10.394991 
L 11.793943 -10.394954 
L 11.3322 -10.394803 
L 10.870457 -10.394302 
L 10.408714 -10.392961 
L 9.946971 -10.390098 
L 9.485228 -10.385305 
L 9.023486 -10.379219 
L 8.561743 -10.373861 
L 8.1 -10.371698 
z
"/>
    </defs>
    <g clip-path="url(#p22a31c8dc8)">
     <use xlink:href="#maba6b41a7b" x="0" y="50.4" style="fill: #126175; fill-opacity: 0.5"/>
    </g>
   </g>
   <g id="matplotlib.axis_1">
    <g id="xtick_1">
     <g id="line2d_1">
      <defs>
       <path id="m29dcb1d4b7" d="M 0 0 
L 0 1.7 
" style="stroke: #000000; stroke-width: 0.25"/>
      </defs>
      <g>
       <use xlink:href="#m29dcb1d4b7" x="8.1" y="45.856" style="stroke: #000000; stroke-width: 0.25"/>
      </g>
     </g>
     <g id="text_1">
      <text style="font-size: 6px; font-family: 'Arial'; text-anchor: middle" x="8.1" y="53.350687" transform="rotate(-0 8.1 53.350687)">0.0</text>
     </g>
    </g>
    <g id="xtick_2">
     <g id="line2d_2">
      <g>
       <use xlink:href="#m29dcb1d4b7" x="30.927273" y="45.856" style="stroke: #000000; stroke-width: 0.25"/>
      </g>
     </g>
     <g id="text_2">
      <text style="font-size: 6px; font-family: 'Arial'; text-anchor: middle" x="30.927273" y="53.350687" transform="rotate(-0 30.927273 53.350687)">0.5</text>
     </g>
    </g>
    <g id="xtick_3">
     <g id="line2d_3">
      <g>
       <use xlink:href="#m29dcb1d4b7" x="53.754545" y="45.856" style="stroke: #000000; stroke-width: 0.25"/>
      </g>
     </g>
     <g id="text_3">
      <text style="font-size: 6px; font-family: 'Arial'; text-anchor: middle" x="53.754545" y="53.350687" transform="rotate(-0 53.754545 53.350687)">1.0</text>
     </g>
    </g>
    <g id="text_4">
     <text style="font-size: 8px; font-family: 'Arial'" transform="translate(2.7625 61.769437)">motor rhythmicity</text>
     <text style="font-size: 8px; font-family: 'Arial'" transform="translate(23.429375 70.324687)">score</text>
    </g>
   </g>
   <g id="matplotlib.axis_2">
    <g id="ytick_1">
     <g id="line2d_4">
      <defs>
       <path id="me8329deb3b" d="M 0 0 
L -1.7 0 
" style="stroke: #000000; stroke-width: 0.25"/>
      </defs>
      <g>
       <use xlink:href="#me8329deb3b" x="6.1" y="10.899" style="stroke: #000000; stroke-width: 0.25"/>
      </g>
     </g>
     <g id="text_5">
      <text style="font-size: 6px; font-family: 'Arial'; text-anchor: end" x="2.9" y="13.046344" transform="rotate(-0 2.9 13.046344)">none</text>
     </g>
    </g>
    <g id="ytick_2">
     <g id="line2d_5">
      <g>
       <use xlink:href="#me8329deb3b" x="6.1" y="20.601" style="stroke: #000000; stroke-width: 0.25"/>
      </g>
     </g>
     <g id="text_6">
      <text style="font-size: 6px; font-family: 'Arial'; text-anchor: end" x="2.9" y="22.748344" transform="rotate(-0 2.9 22.748344)">E1</text>
     </g>
    </g>
    <g id="ytick_3">
     <g id="line2d_6">
      <g>
       <use xlink:href="#me8329deb3b" x="6.1" y="30.303" style="stroke: #000000; stroke-width: 0.25"/>
      </g>
     </g>
     <g id="text_7">
      <text style="font-size: 6px; font-family: 'Arial'; text-anchor: end" x="2.9" y="32.450344" transform="rotate(-0 2.9 32.450344)">E2</text>
     </g>
    </g>
    <g id="ytick_4">
     <g id="line2d_7">
      <g>
       <use xlink:href="#me8329deb3b" x="6.1" y="40.005" style="stroke: #000000; stroke-width: 0.25"/>
      </g>
     </g>
     <g id="text_8">
      <text style="font-size: 6px; font-family: 'Arial'; text-anchor: end" x="2.9" y="42.152344" transform="rotate(-0 2.9 42.152344)">I1</text>
     </g>
    </g>
    <g id="text_9">
     <text style="font-size: 8px; font-family: 'Arial'; text-anchor: middle" x="-13.53625" y="25.452" transform="rotate(-90 -13.53625 25.452)">silenced neuron</text>
    </g>
   </g>
   <g id="line2d_8">
    <path d="M 8.1 16.2351 
L 8.1 24.9669 
" clip-path="url(#p22a31c8dc8)" style="fill: none"/>
   </g>
   <g id="patch_3">
    <path d="M 52.300408 9.9288 
L 52.300408 11.8692 
L 53.736494 11.8692 
L 53.736494 9.9288 
L 52.300408 9.9288 
z
" clip-path="url(#p22a31c8dc8)" style="fill: #306c53; stroke: #282828; stroke-width: 0.75; stroke-linejoin: miter"/>
   </g>
   <g id="line2d_9">
    <path d="M 52.300408 10.899 
L 50.205216 10.899 
" clip-path="url(#p22a31c8dc8)" style="fill: none; stroke: #282828; stroke-width: 0.75"/>
   </g>
   <g id="line2d_10">
    <path d="M 53.736494 10.899 
L 53.827975 10.899 
" clip-path="url(#p22a31c8dc8)" style="fill: none; stroke: #282828; stroke-width: 0.75"/>
   </g>
   <g id="line2d_11">
    <path d="M 50.205216 10.4139 
L 50.205216 11.3841 
" clip-path="url(#p22a31c8dc8)" style="fill: none; stroke: #282828; stroke-width: 0.75; stroke-linecap: square"/>
   </g>
   <g id="line2d_12">
    <path d="M 53.827975 10.4139 
L 53.827975 11.3841 
" clip-path="url(#p22a31c8dc8)" style="fill: none; stroke: #282828; stroke-width: 0.75; stroke-linecap: square"/>
   </g>
   <g id="patch_4">
    <path d="M 8.1 19.6308 
L 8.1 21.5712 
L 8.1 21.5712 
L 8.1 19.6308 
L 8.1 19.6308 
z
" clip-path="url(#p22a31c8dc8)" style="fill: #c35843; stroke: #282828; stroke-width: 0.75; stroke-linejoin: miter"/>
   </g>
   <g id="line2d_13">
    <path d="M 8.1 20.601 
L 8.1 20.601 
" clip-path="url(#p22a31c8dc8)" style="fill: none; stroke: #282828; stroke-width: 0.75"/>
   </g>
   <g id="line2d_14">
    <path d="M 8.1 20.601 
L 8.1 20.601 
" clip-path="url(#p22a31c8dc8)" style="fill: none; stroke: #282828; stroke-width: 0.75"/>
   </g>
   <g id="line2d_15">
    <path d="M 8.1 20.1159 
L 8.1 21.0861 
" clip-path="url(#p22a31c8dc8)" style="fill: none; stroke: #282828; stroke-width: 0.75; stroke-linecap: square"/>
   </g>
   <g id="line2d_16">
    <path d="M 8.1 20.1159 
L 8.1 21.0861 
" clip-path="url(#p22a31c8dc8)" style="fill: none; stroke: #282828; stroke-width: 0.75; stroke-linecap: square"/>
   </g>
   <g id="patch_5">
    <path d="M 8.1 29.3328 
L 8.1 31.2732 
L 8.1 31.2732 
L 8.1 29.3328 
L 8.1 29.3328 
z
" clip-path="url(#p22a31c8dc8)" style="fill: #f0a394; stroke: #282828; stroke-width: 0.75; stroke-linejoin: miter"/>
   </g>
   <g id="line2d_17">
    <path d="M 8.1 30.303 
L 8.1 30.303 
" clip-path="url(#p22a31c8dc8)" style="fill: none; stroke: #282828; stroke-width: 0.75"/>
   </g>
   <g id="line2d_18">
    <path d="M 8.1 30.303 
L 8.1 30.303 
" clip-path="url(#p22a31c8dc8)" style="fill: none; stroke: #282828; stroke-width: 0.75"/>
   </g>
   <g id="line2d_19">
    <path d="M 8.1 29.8179 
L 8.1 30.7881 
" clip-path="url(#p22a31c8dc8)" style="fill: none; stroke: #282828; stroke-width: 0.75; stroke-linecap: square"/>
   </g>
   <g id="line2d_20">
    <path d="M 8.1 29.8179 
L 8.1 30.7881 
" clip-path="url(#p22a31c8dc8)" style="fill: none; stroke: #282828; stroke-width: 0.75; stroke-linecap: square"/>
   </g>
   <g id="patch_6">
    <path d="M 48.408915 39.0348 
L 48.408915 40.9752 
L 53.737554 40.9752 
L 53.737554 39.0348 
L 48.408915 39.0348 
z
" clip-path="url(#p22a31c8dc8)" style="fill: #126175; stroke: #282828; stroke-width: 0.75; stroke-linejoin: miter"/>
   </g>
   <g id="line2d_21">
    <path d="M 48.408915 40.005 
L 40.427068 40.005 
" clip-path="url(#p22a31c8dc8)" style="fill: none; stroke: #282828; stroke-width: 0.75"/>
   </g>
   <g id="line2d_22">
    <path d="M 53.737554 40.005 
L 53.81254 40.005 
" clip-path="url(#p22a31c8dc8)" style="fill: none; stroke: #282828; stroke-width: 0.75"/>
   </g>
   <g id="line2d_23">
    <path d="M 40.427068 39.5199 
L 40.427068 40.4901 
" clip-path="url(#p22a31c8dc8)" style="fill: none; stroke: #282828; stroke-width: 0.75; stroke-linecap: square"/>
   </g>
   <g id="line2d_24">
    <path d="M 53.81254 39.5199 
L 53.81254 40.4901 
" clip-path="url(#p22a31c8dc8)" style="fill: none; stroke: #282828; stroke-width: 0.75; stroke-linecap: square"/>
   </g>
   <g id="line2d_25">
    <path d="M 53.712986 9.9288 
L 53.712986 11.8692 
" clip-path="url(#p22a31c8dc8)" style="fill: none; stroke: #282828; stroke-width: 0.75"/>
   </g>
   <g id="line2d_26">
    <path d="M 8.1 19.6308 
L 8.1 21.5712 
" clip-path="url(#p22a31c8dc8)" style="fill: none; stroke: #282828; stroke-width: 0.75"/>
   </g>
   <g id="line2d_27">
    <path d="M 8.1 29.3328 
L 8.1 31.2732 
" clip-path="url(#p22a31c8dc8)" style="fill: none; stroke: #282828; stroke-width: 0.75"/>
   </g>
   <g id="line2d_28">
    <path d="M 53.6661 39.0348 
L 53.6661 40.9752 
" clip-path="url(#p22a31c8dc8)" style="fill: none; stroke: #282828; stroke-width: 0.75"/>
   </g>
   <g id="patch_7">
    <path d="M 6.1 44.856 
L 6.1 6.048 
" style="fill: none; stroke: #000000; stroke-width: 0.25; stroke-linejoin: miter; stroke-linecap: square"/>
   </g>
   <g id="patch_8">
    <path d="M 8.1 45.856 
L 58.32 45.856 
" style="fill: none; stroke: #000000; stroke-width: 0.25; stroke-linejoin: miter; stroke-linecap: square"/>
   </g>
  </g>
 </g>
 <defs>
  <clipPath id="p22a31c8dc8">
   <rect x="8.1" y="6.048" width="50.22" height="38.808"/>
  </clipPath>
 </defs>
</svg>
