<?xml version="1.0" encoding="utf-8" standalone="no"?>
<!DOCTYPE svg PUBLIC "-//W3C//DTD SVG 1.1//EN"
  "http://www.w3.org/Graphics/SVG/1.1/DTD/svg11.dtd">
<svg xmlns:xlink="http://www.w3.org/1999/xlink" width="93.6pt" height="66.24pt" viewBox="0 0 93.6 66.24" xmlns="http://www.w3.org/2000/svg" version="1.1">
 <metadata>
  <rdf:RDF xmlns:dc="http://purl.org/dc/elements/1.1/" xmlns:cc="http://creativecommons.org/ns#" xmlns:rdf="http://www.w3.org/1999/02/22-rdf-syntax-ns#">
   <cc:Work>
    <dc:type rdf:resource="http://purl.org/dc/dcmitype/StillImage"/>
    <dc:date>2025-09-12T10:00:19.706456</dc:date>
    <dc:format>image/svg+xml</dc:format>
    <dc:creator>
     <cc:Agent>
      <dc:title>Matplotlib v3.10.3, https://matplotlib.org/</dc:title>
     </cc:Agent>
    </dc:creator>
   </cc:Work>
  </rdf:RDF>
 </metadata>
 <defs>
  <style type="text/css">*{stroke-linejoin: round; stroke-linecap: butt}</style>
 </defs>
 <g id="figure_1">
  <g id="patch_1">
   <path d="M 0 66.24 
L 93.6 66.24 
L 93.6 0 
L 0 0 
L 0 66.24 
z
" style="fill: none; opacity: 0"/>
  </g>
  <g id="axes_1">
   <g id="patch_2">
    <path d="M 11.7 20.239113 
L 84.24 20.239113 
L 84.24 7.9488 
L 11.7 7.9488 
L 11.7 20.239113 
z
" style="fill: none; opacity: 0"/>
   </g>
   <g id="patch_3">
    <path d="M 11.7 20.239113 
L 18.294545 20.239113 
L 18.294545 20.216252 
L 11.7 20.216252 
z
" clip-path="url(#pcd13fec655)" style="fill: #267655"/>
   </g>
   <g id="patch_4">
    <path d="M 18.294545 20.239113 
L 24.889091 20.239113 
L 24.889091 20.239113 
L 18.294545 20.239113 
z
" clip-path="url(#pcd13fec655)" style="fill: #267655"/>
   </g>
   <g id="patch_5">
    <path d="M 24.889091 20.239113 
L 31.483636 20.239113 
L 31.483636 20.239113 
L 24.889091 20.239113 
z
" clip-path="url(#pcd13fec655)" style="fill: #267655"/>
   </g>
   <g id="patch_6">
    <path d="M 31.483636 20.239113 
L 38.078182 20.239113 
L 38.078182 20.239113 
L 31.483636 20.239113 
z
" clip-path="url(#pcd13fec655)" style="fill: #267655"/>
   </g>
   <g id="patch_7">
    <path d="M 38.078182 20.239113 
L 44.672727 20.239113 
L 44.672727 20.239113 
L 38.078182 20.239113 
z
" clip-path="url(#pcd13fec655)" style="fill: #267655"/>
   </g>
   <g id="patch_8">
    <path d="M 44.672727 20.239113 
L 51.267273 20.239113 
L 51.267273 20.239113 
L 44.672727 20.239113 
z
" clip-path="url(#pcd13fec655)" style="fill: #267655"/>
   </g>
   <g id="patch_9">
    <path d="M 51.267273 20.239113 
L 57.861818 20.239113 
L 57.861818 20.216252 
L 51.267273 20.216252 
z
" clip-path="url(#pcd13fec655)" style="fill: #267655"/>
   </g>
   <g id="patch_10">
    <path d="M 57.861818 20.239113 
L 64.456364 20.239113 
L 64.456364 20.147667 
L 57.861818 20.147667 
z
" clip-path="url(#pcd13fec655)" style="fill: #267655"/>
   </g>
   <g id="patch_11">
    <path d="M 64.456364 20.239113 
L 71.050909 20.239113 
L 71.050909 19.644716 
L 64.456364 19.644716 
z
" clip-path="url(#pcd13fec655)" style="fill: #267655"/>
   </g>
   <g id="patch_12">
    <path d="M 71.050909 20.239113 
L 77.645455 20.239113 
L 77.645455 10.237231 
L 71.050909 10.237231 
z
" clip-path="url(#pcd13fec655)" style="fill: #267655"/>
   </g>
   <g id="patch_13">
    <path d="M 77.645455 20.239113 
L 84.24 20.239113 
L 84.24 19.267502 
L 77.645455 19.267502 
z
" clip-path="url(#pcd13fec655)" style="fill: #267655"/>
   </g>
   <g id="patch_14">
    <path d="M 84.24 20.239113 
L 90.834545 20.239113 
L 90.834545 20.239113 
L 84.24 20.239113 
z
" clip-path="url(#pcd13fec655)" style="fill: #267655"/>
   </g>
   <g id="patch_15">
    <path d="M 90.834545 20.239113 
L 97.429091 20.239113 
L 97.429091 20.239113 
L 90.834545 20.239113 
z
" clip-path="url(#pcd13fec655)" style="fill: #267655"/>
   </g>
   <g id="patch_16">
    <path d="M 97.429091 20.239113 
L 104.023636 20.239113 
L 104.023636 20.239113 
L 97.429091 20.239113 
z
" clip-path="url(#pcd13fec655)" style="fill: #267655"/>
   </g>
   <g id="matplotlib.axis_1">
    <g id="xtick_1">
     <g id="line2d_1">
      <defs>
       <path id="m2d2fd86c4a" d="M 0 0 
L 0 1.7 
" style="stroke: #000000; stroke-opacity: 0; stroke-width: 0.25"/>
      </defs>
      <g>
       <use xlink:href="#m2d2fd86c4a" x="11.7" y="21.239113" style="fill-opacity: 0; stroke: #000000; stroke-opacity: 0; stroke-width: 0.25"/>
      </g>
     </g>
    </g>
    <g id="xtick_2">
     <g id="line2d_2">
      <g>
       <use xlink:href="#m2d2fd86c4a" x="44.672727" y="21.239113" style="fill-opacity: 0; stroke: #000000; stroke-opacity: 0; stroke-width: 0.25"/>
      </g>
     </g>
    </g>
    <g id="xtick_3">
     <g id="line2d_3">
      <g>
       <use xlink:href="#m2d2fd86c4a" x="77.645455" y="21.239113" style="fill-opacity: 0; stroke: #000000; stroke-opacity: 0; stroke-width: 0.25"/>
      </g>
     </g>
    </g>
   </g>
   <g id="matplotlib.axis_2">
    <g id="ytick_1">
     <g id="line2d_4">
      <defs>
       <path id="m6b2bb4feca" d="M 0 0 
L -1.7 0 
" style="stroke: #000000; stroke-width: 0.25"/>
      </defs>
      <g>
       <use xlink:href="#m6b2bb4feca" x="10.7" y="20.239113" style="stroke: #000000; stroke-width: 0.25"/>
      </g>
     </g>
    </g>
   </g>
   <g id="patch_17">
    <path d="M 10.7 20.239113 
L 10.7 7.9488 
" style="fill: none; stroke: #000000; stroke-width: 0.25; stroke-linejoin: miter; stroke-linecap: square"/>
   </g>
  </g>
  <g id="axes_2">
   <g id="patch_18">
    <path d="M 11.7 33.143942 
L 84.24 33.143942 
L 84.24 20.853629 
L 11.7 20.853629 
L 11.7 33.143942 
z
" style="fill: none; opacity: 0"/>
   </g>
   <g id="patch_19">
    <path d="M 11.7 33.143942 
L 18.294545 33.143942 
L 18.294545 21.438882 
L 11.7 21.438882 
z
" clip-path="url(#pbc695e3077)" style="fill: #d84a2e"/>
   </g>
   <g id="patch_20">
    <path d="M 18.294545 33.143942 
L 24.889091 33.143942 
L 24.889091 33.143942 
L 18.294545 33.143942 
z
" clip-path="url(#pbc695e3077)" style="fill: #d84a2e"/>
   </g>
   <g id="patch_21">
    <path d="M 24.889091 33.143942 
L 31.483636 33.143942 
L 31.483636 33.143942 
L 24.889091 33.143942 
z
" clip-path="url(#pbc695e3077)" style="fill: #d84a2e"/>
   </g>
   <g id="patch_22">
    <path d="M 31.483636 33.143942 
L 38.078182 33.143942 
L 38.078182 33.143942 
L 31.483636 33.143942 
z
" clip-path="url(#pbc695e3077)" style="fill: #d84a2e"/>
   </g>
   <g id="patch_23">
    <path d="M 38.078182 33.143942 
L 44.672727 33.143942 
L 44.672727 33.143942 
L 38.078182 33.143942 
z
" clip-path="url(#pbc695e3077)" style="fill: #d84a2e"/>
   </g>
   <g id="patch_24">
    <path d="M 44.672727 33.143942 
L 51.267273 33.143942 
L 51.267273 33.143942 
L 44.672727 33.143942 
z
" clip-path="url(#pbc695e3077)" style="fill: #d84a2e"/>
   </g>
   <g id="patch_25">
    <path d="M 51.267273 33.143942 
L 57.861818 33.143942 
L 57.861818 33.143942 
L 51.267273 33.143942 
z
" clip-path="url(#pbc695e3077)" style="fill: #d84a2e"/>
   </g>
   <g id="patch_26">
    <path d="M 57.861818 33.143942 
L 64.456364 33.143942 
L 64.456364 33.143942 
L 57.861818 33.143942 
z
" clip-path="url(#pbc695e3077)" style="fill: #d84a2e"/>
   </g>
   <g id="patch_27">
    <path d="M 64.456364 33.143942 
L 71.050909 33.143942 
L 71.050909 33.143942 
L 64.456364 33.143942 
z
" clip-path="url(#pbc695e3077)" style="fill: #d84a2e"/>
   </g>
   <g id="patch_28">
    <path d="M 71.050909 33.143942 
L 77.645455 33.143942 
L 77.645455 33.143942 
L 71.050909 33.143942 
z
" clip-path="url(#pbc695e3077)" style="fill: #d84a2e"/>
   </g>
   <g id="patch_29">
    <path d="M 77.645455 33.143942 
L 84.24 33.143942 
L 84.24 33.143942 
L 77.645455 33.143942 
z
" clip-path="url(#pbc695e3077)" style="fill: #d84a2e"/>
   </g>
   <g id="patch_30">
    <path d="M 84.24 33.143942 
L 90.834545 33.143942 
L 90.834545 33.143942 
L 84.24 33.143942 
z
" clip-path="url(#pbc695e3077)" style="fill: #d84a2e"/>
   </g>
   <g id="patch_31">
    <path d="M 90.834545 33.143942 
L 97.429091 33.143942 
L 97.429091 33.143942 
L 90.834545 33.143942 
z
" clip-path="url(#pbc695e3077)" style="fill: #d84a2e"/>
   </g>
   <g id="patch_32">
    <path d="M 97.429091 33.143942 
L 104.023636 33.143942 
L 104.023636 33.143942 
L 97.429091 33.143942 
z
" clip-path="url(#pbc695e3077)" style="fill: #d84a2e"/>
   </g>
   <g id="matplotlib.axis_3">
    <g id="xtick_4">
     <g id="line2d_5">
      <g>
       <use xlink:href="#m2d2fd86c4a" x="11.7" y="34.143942" style="fill-opacity: 0; stroke: #000000; stroke-opacity: 0; stroke-width: 0.25"/>
      </g>
     </g>
    </g>
    <g id="xtick_5">
     <g id="line2d_6">
      <g>
       <use xlink:href="#m2d2fd86c4a" x="44.672727" y="34.143942" style="fill-opacity: 0; stroke: #000000; stroke-opacity: 0; stroke-width: 0.25"/>
      </g>
     </g>
    </g>
    <g id="xtick_6">
     <g id="line2d_7">
      <g>
       <use xlink:href="#m2d2fd86c4a" x="77.645455" y="34.143942" style="fill-opacity: 0; stroke: #000000; stroke-opacity: 0; stroke-width: 0.25"/>
      </g>
     </g>
    </g>
   </g>
   <g id="matplotlib.axis_4">
    <g id="ytick_2">
     <g id="line2d_8">
      <g>
       <use xlink:href="#m6b2bb4feca" x="10.7" y="33.143942" style="stroke: #000000; stroke-width: 0.25"/>
      </g>
     </g>
    </g>
   </g>
   <g id="patch_33">
    <path d="M 10.7 33.143942 
L 10.7 20.853629 
" style="fill: none; stroke: #000000; stroke-width: 0.25; stroke-linejoin: miter; stroke-linecap: square"/>
   </g>
  </g>
  <g id="axes_3">
   <g id="patch_34">
    <path d="M 11.7 46.048771 
L 84.24 46.048771 
L 84.24 33.758458 
L 11.7 33.758458 
L 11.7 46.048771 
z
" style="fill: none; opacity: 0"/>
   </g>
   <g id="patch_35">
    <path d="M 11.7 46.048771 
L 18.294545 46.048771 
L 18.294545 34.49231 
L 11.7 34.49231 
z
" clip-path="url(#p57bae4d370)" style="fill: #ff9985"/>
   </g>
   <g id="patch_36">
    <path d="M 18.294545 46.048771 
L 24.889091 46.048771 
L 24.889091 46.02591 
L 18.294545 46.02591 
z
" clip-path="url(#p57bae4d370)" style="fill: #ff9985"/>
   </g>
   <g id="patch_37">
    <path d="M 24.889091 46.048771 
L 31.483636 46.048771 
L 31.483636 45.980187 
L 24.889091 45.980187 
z
" clip-path="url(#p57bae4d370)" style="fill: #ff9985"/>
   </g>
   <g id="patch_38">
    <path d="M 31.483636 46.048771 
L 38.078182 46.048771 
L 38.078182 46.03734 
L 31.483636 46.03734 
z
" clip-path="url(#p57bae4d370)" style="fill: #ff9985"/>
   </g>
   <g id="patch_39">
    <path d="M 38.078182 46.048771 
L 44.672727 46.048771 
L 44.672727 46.02591 
L 38.078182 46.02591 
z
" clip-path="url(#p57bae4d370)" style="fill: #ff9985"/>
   </g>
   <g id="patch_40">
    <path d="M 44.672727 46.048771 
L 51.267273 46.048771 
L 51.267273 46.048771 
L 44.672727 46.048771 
z
" clip-path="url(#p57bae4d370)" style="fill: #ff9985"/>
   </g>
   <g id="patch_41">
    <path d="M 51.267273 46.048771 
L 57.861818 46.048771 
L 57.861818 46.02591 
L 51.267273 46.02591 
z
" clip-path="url(#p57bae4d370)" style="fill: #ff9985"/>
   </g>
   <g id="patch_42">
    <path d="M 57.861818 46.048771 
L 64.456364 46.048771 
L 64.456364 46.048771 
L 57.861818 46.048771 
z
" clip-path="url(#p57bae4d370)" style="fill: #ff9985"/>
   </g>
   <g id="patch_43">
    <path d="M 64.456364 46.048771 
L 71.050909 46.048771 
L 71.050909 46.048771 
L 64.456364 46.048771 
z
" clip-path="url(#p57bae4d370)" style="fill: #ff9985"/>
   </g>
   <g id="patch_44">
    <path d="M 71.050909 46.048771 
L 77.645455 46.048771 
L 77.645455 46.048771 
L 71.050909 46.048771 
z
" clip-path="url(#p57bae4d370)" style="fill: #ff9985"/>
   </g>
   <g id="patch_45">
    <path d="M 77.645455 46.048771 
L 84.24 46.048771 
L 84.24 46.048771 
L 77.645455 46.048771 
z
" clip-path="url(#p57bae4d370)" style="fill: #ff9985"/>
   </g>
   <g id="patch_46">
    <path d="M 84.24 46.048771 
L 90.834545 46.048771 
L 90.834545 46.048771 
L 84.24 46.048771 
z
" clip-path="url(#p57bae4d370)" style="fill: #ff9985"/>
   </g>
   <g id="patch_47">
    <path d="M 90.834545 46.048771 
L 97.429091 46.048771 
L 97.429091 46.048771 
L 90.834545 46.048771 
z
" clip-path="url(#p57bae4d370)" style="fill: #ff9985"/>
   </g>
   <g id="patch_48">
    <path d="M 97.429091 46.048771 
L 104.023636 46.048771 
L 104.023636 46.048771 
L 97.429091 46.048771 
z
" clip-path="url(#p57bae4d370)" style="fill: #ff9985"/>
   </g>
   <g id="matplotlib.axis_5">
    <g id="xtick_7">
     <g id="line2d_9">
      <g>
       <use xlink:href="#m2d2fd86c4a" x="11.7" y="47.048771" style="fill-opacity: 0; stroke: #000000; stroke-opacity: 0; stroke-width: 0.25"/>
      </g>
     </g>
    </g>
    <g id="xtick_8">
     <g id="line2d_10">
      <g>
       <use xlink:href="#m2d2fd86c4a" x="44.672727" y="47.048771" style="fill-opacity: 0; stroke: #000000; stroke-opacity: 0; stroke-width: 0.25"/>
      </g>
     </g>
    </g>
    <g id="xtick_9">
     <g id="line2d_11">
      <g>
       <use xlink:href="#m2d2fd86c4a" x="77.645455" y="47.048771" style="fill-opacity: 0; stroke: #000000; stroke-opacity: 0; stroke-width: 0.25"/>
      </g>
     </g>
    </g>
   </g>
   <g id="matplotlib.axis_6">
    <g id="ytick_3">
     <g id="line2d_12">
      <g>
       <use xlink:href="#m6b2bb4feca" x="10.7" y="46.048771" style="stroke: #000000; stroke-width: 0.25"/>
      </g>
     </g>
    </g>
   </g>
   <g id="patch_49">
    <path d="M 10.7 46.048771 
L 10.7 33.758458 
" style="fill: none; stroke: #000000; stroke-width: 0.25; stroke-linejoin: miter; stroke-linecap: square"/>
   </g>
  </g>
  <g id="axes_4">
   <g id="patch_50">
    <path d="M 11.7 58.9536 
L 84.24 58.9536 
L 84.24 46.663287 
L 11.7 46.663287 
L 11.7 58.9536 
z
" style="fill: none; opacity: 0"/>
   </g>
   <g id="patch_51">
    <path d="M 11.7 58.9536 
L 18.294545 58.9536 
L 18.294545 58.919308 
L 11.7 58.919308 
z
" clip-path="url(#p1968cfd05a)" style="fill: #026b85"/>
   </g>
   <g id="patch_52">
    <path d="M 18.294545 58.9536 
L 24.889091 58.9536 
L 24.889091 58.9536 
L 18.294545 58.9536 
z
" clip-path="url(#p1968cfd05a)" style="fill: #026b85"/>
   </g>
   <g id="patch_53">
    <path d="M 24.889091 58.9536 
L 31.483636 58.9536 
L 31.483636 58.9536 
L 24.889091 58.9536 
z
" clip-path="url(#p1968cfd05a)" style="fill: #026b85"/>
   </g>
   <g id="patch_54">
    <path d="M 31.483636 58.9536 
L 38.078182 58.9536 
L 38.078182 58.9536 
L 31.483636 58.9536 
z
" clip-path="url(#p1968cfd05a)" style="fill: #026b85"/>
   </g>
   <g id="patch_55">
    <path d="M 38.078182 58.9536 
L 44.672727 58.9536 
L 44.672727 58.9536 
L 38.078182 58.9536 
z
" clip-path="url(#p1968cfd05a)" style="fill: #026b85"/>
   </g>
   <g id="patch_56">
    <path d="M 44.672727 58.9536 
L 51.267273 58.9536 
L 51.267273 58.9536 
L 44.672727 58.9536 
z
" clip-path="url(#p1968cfd05a)" style="fill: #026b85"/>
   </g>
   <g id="patch_57">
    <path d="M 51.267273 58.9536 
L 57.861818 58.9536 
L 57.861818 58.919308 
L 51.267273 58.919308 
z
" clip-path="url(#p1968cfd05a)" style="fill: #026b85"/>
   </g>
   <g id="patch_58">
    <path d="M 57.861818 58.9536 
L 64.456364 58.9536 
L 64.456364 58.31348 
L 57.861818 58.31348 
z
" clip-path="url(#p1968cfd05a)" style="fill: #026b85"/>
   </g>
   <g id="patch_59">
    <path d="M 64.456364 58.9536 
L 71.050909 58.9536 
L 71.050909 55.981612 
L 64.456364 55.981612 
z
" clip-path="url(#p1968cfd05a)" style="fill: #026b85"/>
   </g>
   <g id="patch_60">
    <path d="M 71.050909 58.9536 
L 77.645455 58.9536 
L 77.645455 52.346642 
L 71.050909 52.346642 
z
" clip-path="url(#p1968cfd05a)" style="fill: #026b85"/>
   </g>
   <g id="patch_61">
    <path d="M 77.645455 58.9536 
L 84.24 58.9536 
L 84.24 57.53619 
L 77.645455 57.53619 
z
" clip-path="url(#p1968cfd05a)" style="fill: #026b85"/>
   </g>
   <g id="patch_62">
    <path d="M 84.24 58.9536 
L 90.834545 58.9536 
L 90.834545 58.9536 
L 84.24 58.9536 
z
" clip-path="url(#p1968cfd05a)" style="fill: #026b85"/>
   </g>
   <g id="patch_63">
    <path d="M 90.834545 58.9536 
L 97.429091 58.9536 
L 97.429091 58.9536 
L 90.834545 58.9536 
z
" clip-path="url(#p1968cfd05a)" style="fill: #026b85"/>
   </g>
   <g id="patch_64">
    <path d="M 97.429091 58.9536 
L 104.023636 58.9536 
L 104.023636 58.9536 
L 97.429091 58.9536 
z
" clip-path="url(#p1968cfd05a)" style="fill: #026b85"/>
   </g>
   <g id="matplotlib.axis_7">
    <g id="xtick_10">
     <g id="line2d_13">
      <defs>
       <path id="m881e5dfd00" d="M 0 0 
L 0 1.7 
" style="stroke: #000000; stroke-width: 0.25"/>
      </defs>
      <g>
       <use xlink:href="#m881e5dfd00" x="11.7" y="59.9536" style="stroke: #000000; stroke-width: 0.25"/>
      </g>
     </g>
     <g id="text_1">
      <text style="font-size: 6px; font-family: 'Arial'; text-anchor: middle" x="11.7" y="67.448288" transform="rotate(-0 11.7 67.448288)">0.0</text>
     </g>
    </g>
    <g id="xtick_11">
     <g id="line2d_14">
      <g>
       <use xlink:href="#m881e5dfd00" x="44.672727" y="59.9536" style="stroke: #000000; stroke-width: 0.25"/>
      </g>
     </g>
     <g id="text_2">
      <text style="font-size: 6px; font-family: 'Arial'; text-anchor: middle" x="44.672727" y="67.448288" transform="rotate(-0 44.672727 67.448288)">0.5</text>
     </g>
    </g>
    <g id="xtick_12">
     <g id="line2d_15">
      <g>
       <use xlink:href="#m881e5dfd00" x="77.645455" y="59.9536" style="stroke: #000000; stroke-width: 0.25"/>
      </g>
     </g>
     <g id="text_3">
      <text style="font-size: 6px; font-family: 'Arial'; text-anchor: middle" x="77.645455" y="67.448288" transform="rotate(-0 77.645455 67.448288)">1.0</text>
     </g>
    </g>
    <g id="text_4">
     <text style="font-size: 8px; font-family: 'Arial'; text-anchor: middle" x="47.97" y="75.867038" transform="rotate(-0 47.97 75.867038)">motor rhythmicity score</text>
    </g>
   </g>
   <g id="matplotlib.axis_8">
    <g id="ytick_4">
     <g id="line2d_16">
      <g>
       <use xlink:href="#m6b2bb4feca" x="10.7" y="58.9536" style="stroke: #000000; stroke-width: 0.25"/>
      </g>
     </g>
    </g>
   </g>
   <g id="patch_65">
    <path d="M 10.7 58.9536 
L 10.7 46.663287 
" style="fill: none; stroke: #000000; stroke-width: 0.25; stroke-linejoin: miter; stroke-linecap: square"/>
   </g>
   <g id="patch_66">
    <path d="M 11.7 59.9536 
L 84.24 59.9536 
" style="fill: none; stroke: #000000; stroke-width: 0.25; stroke-linejoin: miter; stroke-linecap: square"/>
   </g>
  </g>
 </g>
 <defs>
  <clipPath id="pcd13fec655">
   <rect x="11.7" y="7.9488" width="72.54" height="12.290313"/>
  </clipPath>
  <clipPath id="pbc695e3077">
   <rect x="11.7" y="20.853629" width="72.54" height="12.290313"/>
  </clipPath>
  <clipPath id="p57bae4d370">
   <rect x="11.7" y="33.758458" width="72.54" height="12.290313"/>
  </clipPath>
  <clipPath id="p1968cfd05a">
   <rect x="11.7" y="46.663287" width="72.54" height="12.290313"/>
  </clipPath>
 </defs>
</svg>
