<?xml version="1.0" encoding="utf-8" standalone="no"?>
<!DOCTYPE svg PUBLIC "-//W3C//DTD SVG 1.1//EN"
  "http://www.w3.org/Graphics/SVG/1.1/DTD/svg11.dtd">
<svg xmlns:xlink="http://www.w3.org/1999/xlink" width="57.6pt" height="50.4pt" viewBox="0 0 57.6 50.4" xmlns="http://www.w3.org/2000/svg" version="1.1">
 <metadata>
  <rdf:RDF xmlns:dc="http://purl.org/dc/elements/1.1/" xmlns:cc="http://creativecommons.org/ns#" xmlns:rdf="http://www.w3.org/1999/02/22-rdf-syntax-ns#">
   <cc:Work>
    <dc:type rdf:resource="http://purl.org/dc/dcmitype/StillImage"/>
    <dc:date>2025-09-04T00:25:03.024032</dc:date>
    <dc:format>image/svg+xml</dc:format>
    <dc:creator>
     <cc:Agent>
      <dc:title>Matplotlib v3.10.3, https://matplotlib.org/</dc:title>
     </cc:Agent>
    </dc:creator>
   </cc:Work>
  </rdf:RDF>
 </metadata>
 <defs>
  <style type="text/css">*{stroke-linejoin: round; stroke-linecap: butt}</style>
 </defs>
 <g id="figure_1">
  <g id="patch_1">
   <path d="M 0 50.4 
L 57.6 50.4 
L 57.6 0 
L 0 0 
L 0 50.4 
z
" style="fill: none"/>
  </g>
  <g id="axes_1">
   <g id="patch_2">
    <path d="M 7.2 44.856 
L 51.84 44.856 
L 51.84 6.048 
L 7.2 6.048 
L 7.2 44.856 
z
" style="fill: none"/>
   </g>
   <g id="FillBetweenPolyCollection_1">
    <defs>
     <path id="m973ea4c053" d="M 7.2 -39.488749 
L 7.2 -39.513251 
L 7.610577 -39.510892 
L 8.021153 -39.506208 
L 8.43173 -39.502788 
L 8.842307 -39.5014 
L 9.252883 -39.501058 
L 9.66346 -39.501006 
L 10.074037 -39.501 
L 10.484613 -39.501 
L 10.89519 -39.501 
L 11.305767 -39.501 
L 11.716343 -39.501 
L 12.12692 -39.501 
L 12.537497 -39.501 
L 12.948073 -39.501 
L 13.35865 -39.501 
L 13.769226 -39.501 
L 14.179803 -39.501 
L 14.59038 -39.501 
L 15.000956 -39.501 
L 15.411533 -39.501 
L 15.82211 -39.501 
L 16.232686 -39.501 
L 16.643263 -39.501 
L 17.05384 -39.501 
L 17.464416 -39.501 
L 17.874993 -39.501 
L 18.28557 -39.501 
L 18.696146 -39.501 
L 19.106723 -39.501 
L 19.5173 -39.501 
L 19.927876 -39.501 
L 20.338453 -39.501 
L 20.74903 -39.501 
L 21.159606 -39.501 
L 21.570183 -39.501 
L 21.98076 -39.501 
L 22.391336 -39.501 
L 22.801913 -39.501 
L 23.21249 -39.501 
L 23.623066 -39.501 
L 24.033643 -39.501 
L 24.44422 -39.501 
L 24.854796 -39.501 
L 25.265373 -39.501 
L 25.675949 -39.501 
L 26.086526 -39.501 
L 26.497103 -39.501 
L 26.907679 -39.501 
L 27.318256 -39.501 
L 27.728833 -39.501 
L 28.139409 -39.501 
L 28.549986 -39.501 
L 28.960563 -39.501 
L 29.371139 -39.501005 
L 29.781716 -39.50105 
L 30.192293 -39.501308 
L 30.602869 -39.502231 
L 31.013446 -39.504207 
L 31.424023 -39.506449 
L 31.834599 -39.507037 
L 32.245176 -39.505361 
L 32.655753 -39.503056 
L 33.066329 -39.501657 
L 33.476906 -39.501311 
L 33.887483 -39.501857 
L 34.298059 -39.503502 
L 34.708636 -39.505865 
L 35.119213 -39.507273 
L 35.529789 -39.506772 
L 35.940366 -39.506018 
L 36.350942 -39.506887 
L 36.761519 -39.508808 
L 37.172096 -39.510867 
L 37.582672 -39.514538 
L 37.993249 -39.521805 
L 38.403826 -39.531152 
L 38.814402 -39.536939 
L 39.224979 -39.535994 
L 39.635556 -39.534549 
L 40.046132 -39.542967 
L 40.456709 -39.563853 
L 40.867286 -39.588902 
L 41.277862 -39.606419 
L 41.688439 -39.614493 
L 42.099016 -39.626404 
L 42.509592 -39.659994 
L 42.920169 -39.730888 
L 43.330746 -39.847644 
L 43.741322 -39.989065 
L 44.151899 -40.101196 
L 44.562476 -40.150127 
L 44.973052 -40.159035 
L 45.383629 -40.169494 
L 45.794206 -40.212304 
L 46.204782 -40.386317 
L 46.615359 -40.970815 
L 47.025936 -42.207908 
L 47.436512 -43.589389 
L 47.847089 -43.8669 
L 47.847089 -35.1351 
L 47.847089 -35.1351 
L 47.436512 -35.412611 
L 47.025936 -36.794092 
L 46.615359 -38.031185 
L 46.204782 -38.615683 
L 45.794206 -38.789696 
L 45.383629 -38.832506 
L 44.973052 -38.842965 
L 44.562476 -38.851873 
L 44.151899 -38.900804 
L 43.741322 -39.012935 
L 43.330746 -39.154356 
L 42.920169 -39.271112 
L 42.509592 -39.342006 
L 42.099016 -39.375596 
L 41.688439 -39.387507 
L 41.277862 -39.395581 
L 40.867286 -39.413098 
L 40.456709 -39.438147 
L 40.046132 -39.459033 
L 39.635556 -39.467451 
L 39.224979 -39.466006 
L 38.814402 -39.465061 
L 38.403826 -39.470848 
L 37.993249 -39.480195 
L 37.582672 -39.487462 
L 37.172096 -39.491133 
L 36.761519 -39.493192 
L 36.350942 -39.495113 
L 35.940366 -39.495982 
L 35.529789 -39.495228 
L 35.119213 -39.494727 
L 34.708636 -39.496135 
L 34.298059 -39.498498 
L 33.887483 -39.500143 
L 33.476906 -39.500689 
L 33.066329 -39.500343 
L 32.655753 -39.498944 
L 32.245176 -39.496639 
L 31.834599 -39.494963 
L 31.424023 -39.495551 
L 31.013446 -39.497793 
L 30.602869 -39.499769 
L 30.192293 -39.500692 
L 29.781716 -39.50095 
L 29.371139 -39.500995 
L 28.960563 -39.501 
L 28.549986 -39.501 
L 28.139409 -39.501 
L 27.728833 -39.501 
L 27.318256 -39.501 
L 26.907679 -39.501 
L 26.497103 -39.501 
L 26.086526 -39.501 
L 25.675949 -39.501 
L 25.265373 -39.501 
L 24.854796 -39.501 
L 24.44422 -39.501 
L 24.033643 -39.501 
L 23.623066 -39.501 
L 23.21249 -39.501 
L 22.801913 -39.501 
L 22.391336 -39.501 
L 21.98076 -39.501 
L 21.570183 -39.501 
L 21.159606 -39.501 
L 20.74903 -39.501 
L 20.338453 -39.501 
L 19.927876 -39.501 
L 19.5173 -39.501 
L 19.106723 -39.501 
L 18.696146 -39.501 
L 18.28557 -39.501 
L 17.874993 -39.501 
L 17.464416 -39.501 
L 17.05384 -39.501 
L 16.643263 -39.501 
L 16.232686 -39.501 
L 15.82211 -39.501 
L 15.411533 -39.501 
L 15.000956 -39.501 
L 14.59038 -39.501 
L 14.179803 -39.501 
L 13.769226 -39.501 
L 13.35865 -39.501 
L 12.948073 -39.501 
L 12.537497 -39.501 
L 12.12692 -39.501 
L 11.716343 -39.501 
L 11.305767 -39.501 
L 10.89519 -39.501 
L 10.484613 -39.501 
L 10.074037 -39.501 
L 9.66346 -39.500994 
L 9.252883 -39.500942 
L 8.842307 -39.5006 
L 8.43173 -39.499212 
L 8.021153 -39.495792 
L 7.610577 -39.491108 
L 7.2 -39.488749 
z
"/>
    </defs>
    <g clip-path="url(#pa4390796f5)">
     <use xlink:href="#m973ea4c053" x="0" y="50.4" style="fill: #306c53; fill-opacity: 0.5"/>
    </g>
   </g>
   <g id="FillBetweenPolyCollection_2">
    <defs>
     <path id="m68df86d782" d="M 7.2 -15.7311 
L 7.2 -24.4629 
L 7.484113 -23.589565 
L 7.768225 -21.884958 
L 8.052338 -20.682775 
L 8.33645 -20.220011 
L 8.620563 -20.114519 
L 8.904675 -20.101894 
L 9.188788 -20.10499 
L 9.4729 -20.109835 
L 9.757013 -20.113184 
L 10.041126 -20.114785 
L 10.325238 -20.114981 
L 10.609351 -20.113419 
L 10.893463 -20.110977 
L 11.177576 -20.109159 
L 11.461688 -20.107686 
L 11.745801 -20.10528 
L 12.029914 -20.101966 
L 12.314026 -20.099128 
L 12.598139 -20.097623 
L 12.882251 -20.097121 
L 13.166364 -20.097015 
L 13.450476 -20.097001 
L 13.734589 -20.097 
L 14.018701 -20.097002 
L 14.302814 -20.097022 
L 14.586927 -20.097179 
L 14.871039 -20.097934 
L 15.155152 -20.100238 
L 15.439264 -20.104533 
L 15.723377 -20.109002 
L 16.007489 -20.110631 
L 16.291602 -20.108945 
L 16.575715 -20.106188 
L 16.859827 -20.104203 
L 17.14394 -20.103117 
L 17.428052 -20.101896 
L 17.712165 -20.100056 
L 17.996277 -20.098557 
L 18.28039 -20.098451 
L 18.564502 -20.09973 
L 18.848615 -20.101138 
L 19.132728 -20.101094 
L 19.41684 -20.099595 
L 19.700953 -20.098053 
L 19.985065 -20.097276 
L 20.269178 -20.097077 
L 20.55329 -20.09721 
L 20.837403 -20.097855 
L 21.121515 -20.099282 
L 21.405628 -20.100898 
L 21.689741 -20.101262 
L 21.973853 -20.099982 
L 22.257966 -20.098335 
L 22.542078 -20.097383 
L 22.826191 -20.097079 
L 23.110303 -20.097091 
L 23.394416 -20.097488 
L 23.678529 -20.098866 
L 23.962641 -20.10167 
L 24.246754 -20.104666 
L 24.530866 -20.105263 
L 24.814979 -20.102851 
L 25.099091 -20.099718 
L 25.383204 -20.097827 
L 25.667316 -20.097164 
L 25.951429 -20.097021 
L 26.235542 -20.097002 
L 26.519654 -20.097 
L 26.803767 -20.097 
L 27.087879 -20.097 
L 27.371992 -20.097 
L 27.656104 -20.097 
L 27.940217 -20.097 
L 28.224329 -20.097 
L 28.508442 -20.097 
L 28.792555 -20.097 
L 29.076667 -20.097 
L 29.36078 -20.097 
L 29.644892 -20.097 
L 29.929005 -20.097 
L 30.213117 -20.097 
L 30.49723 -20.097 
L 30.781343 -20.097 
L 31.065455 -20.097 
L 31.349568 -20.097 
L 31.63368 -20.097 
L 31.917793 -20.097 
L 32.201905 -20.097 
L 32.486018 -20.097 
L 32.77013 -20.097001 
L 33.054243 -20.097013 
L 33.338356 -20.097102 
L 33.622468 -20.097511 
L 33.906581 -20.098643 
L 34.190693 -20.100443 
L 34.474806 -20.101922 
L 34.758918 -20.102409 
L 35.043031 -20.10242 
L 35.327144 -20.102013 
L 35.327144 -20.091987 
L 35.327144 -20.091987 
L 35.043031 -20.09158 
L 34.758918 -20.091591 
L 34.474806 -20.092078 
L 34.190693 -20.093557 
L 33.906581 -20.095357 
L 33.622468 -20.096489 
L 33.338356 -20.096898 
L 33.054243 -20.096987 
L 32.77013 -20.096999 
L 32.486018 -20.097 
L 32.201905 -20.097 
L 31.917793 -20.097 
L 31.63368 -20.097 
L 31.349568 -20.097 
L 31.065455 -20.097 
L 30.781343 -20.097 
L 30.49723 -20.097 
L 30.213117 -20.097 
L 29.929005 -20.097 
L 29.644892 -20.097 
L 29.36078 -20.097 
L 29.076667 -20.097 
L 28.792555 -20.097 
L 28.508442 -20.097 
L 28.224329 -20.097 
L 27.940217 -20.097 
L 27.656104 -20.097 
L 27.371992 -20.097 
L 27.087879 -20.097 
L 26.803767 -20.097 
L 26.519654 -20.097 
L 26.235542 -20.096998 
L 25.951429 -20.096979 
L 25.667316 -20.096836 
L 25.383204 -20.096173 
L 25.099091 -20.094282 
L 24.814979 -20.091149 
L 24.530866 -20.088737 
L 24.246754 -20.089334 
L 23.962641 -20.09233 
L 23.678529 -20.095134 
L 23.394416 -20.096512 
L 23.110303 -20.096909 
L 22.826191 -20.096921 
L 22.542078 -20.096617 
L 22.257966 -20.095665 
L 21.973853 -20.094018 
L 21.689741 -20.092738 
L 21.405628 -20.093102 
L 21.121515 -20.094718 
L 20.837403 -20.096145 
L 20.55329 -20.09679 
L 20.269178 -20.096923 
L 19.985065 -20.096724 
L 19.700953 -20.095947 
L 19.41684 -20.094405 
L 19.132728 -20.092906 
L 18.848615 -20.092862 
L 18.564502 -20.09427 
L 18.28039 -20.095549 
L 17.996277 -20.095443 
L 17.712165 -20.093944 
L 17.428052 -20.092104 
L 17.14394 -20.090883 
L 16.859827 -20.089797 
L 16.575715 -20.087812 
L 16.291602 -20.085055 
L 16.007489 -20.083369 
L 15.723377 -20.084998 
L 15.439264 -20.089467 
L 15.155152 -20.093762 
L 14.871039 -20.096066 
L 14.586927 -20.096821 
L 14.302814 -20.096978 
L 14.018701 -20.096998 
L 13.734589 -20.097 
L 13.450476 -20.096999 
L 13.166364 -20.096985 
L 12.882251 -20.096879 
L 12.598139 -20.096377 
L 12.314026 -20.094872 
L 12.029914 -20.092034 
L 11.745801 -20.08872 
L 11.461688 -20.086314 
L 11.177576 -20.084841 
L 10.893463 -20.083023 
L 10.609351 -20.080581 
L 10.325238 -20.079019 
L 10.041126 -20.079215 
L 9.757013 -20.080816 
L 9.4729 -20.084165 
L 9.188788 -20.08901 
L 8.904675 -20.092106 
L 8.620563 -20.079481 
L 8.33645 -19.973989 
L 8.052338 -19.511225 
L 7.768225 -18.309042 
L 7.484113 -16.604435 
L 7.2 -15.7311 
z
"/>
    </defs>
    <g clip-path="url(#pa4390796f5)">
     <use xlink:href="#m68df86d782" x="0" y="50.4" style="fill: #f0a394; fill-opacity: 0.5"/>
    </g>
   </g>
   <g id="FillBetweenPolyCollection_3">
    <defs>
     <path id="m99eb202598" d="M 7.2 -10.371698 
L 7.2 -10.418302 
L 7.610438 -10.416139 
L 8.020876 -10.410781 
L 8.431314 -10.404695 
L 8.841752 -10.399902 
L 9.25219 -10.397039 
L 9.662628 -10.395698 
L 10.073066 -10.395197 
L 10.483505 -10.395046 
L 10.893943 -10.395009 
L 11.304381 -10.395001 
L 11.714819 -10.395 
L 12.125257 -10.395 
L 12.535695 -10.395 
L 12.946133 -10.395 
L 13.356571 -10.395 
L 13.767009 -10.395 
L 14.177447 -10.395 
L 14.587885 -10.395 
L 14.998323 -10.395 
L 15.408761 -10.395 
L 15.819199 -10.395 
L 16.229638 -10.395 
L 16.640076 -10.395 
L 17.050514 -10.395 
L 17.460952 -10.395 
L 17.87139 -10.395 
L 18.281828 -10.395 
L 18.692266 -10.395 
L 19.102704 -10.395 
L 19.513142 -10.395 
L 19.92358 -10.395 
L 20.334018 -10.395 
L 20.744456 -10.395 
L 21.154894 -10.395 
L 21.565332 -10.395 
L 21.975771 -10.395 
L 22.386209 -10.395 
L 22.796647 -10.395 
L 23.207085 -10.395 
L 23.617523 -10.395 
L 24.027961 -10.395 
L 24.438399 -10.395 
L 24.848837 -10.395 
L 25.259275 -10.395 
L 25.669713 -10.395 
L 26.080151 -10.395 
L 26.490589 -10.395 
L 26.901027 -10.395 
L 27.311465 -10.395 
L 27.721904 -10.395 
L 28.132342 -10.395 
L 28.54278 -10.395 
L 28.953218 -10.395001 
L 29.363656 -10.395007 
L 29.774094 -10.395033 
L 30.184532 -10.39513 
L 30.59497 -10.395422 
L 31.005408 -10.396134 
L 31.415846 -10.397535 
L 31.826284 -10.399754 
L 32.236722 -10.40257 
L 32.64716 -10.405444 
L 33.057598 -10.407898 
L 33.468037 -10.410076 
L 33.878475 -10.413153 
L 34.288913 -10.419404 
L 34.699351 -10.431689 
L 35.109789 -10.452265 
L 35.520227 -10.481412 
L 35.930665 -10.516679 
L 36.341103 -10.553244 
L 36.751541 -10.585619 
L 37.161979 -10.610657 
L 37.572417 -10.630525 
L 37.982855 -10.652924 
L 38.393293 -10.687272 
L 38.803731 -10.739598 
L 39.21417 -10.810798 
L 39.624608 -10.89953 
L 40.035046 -11.00597 
L 40.445484 -11.131817 
L 40.855922 -11.276148 
L 41.26636 -11.430946 
L 41.676798 -11.580488 
L 42.087236 -11.705294 
L 42.497674 -11.787368 
L 42.908112 -11.813308 
L 43.31855 -11.776314 
L 43.728988 -11.680228 
L 44.139426 -11.544496 
L 44.549864 -11.4055 
L 44.960303 -11.314588 
L 45.370741 -11.339735 
L 45.781179 -11.570243 
L 46.191617 -12.097963 
L 46.602055 -12.938133 
L 47.012493 -13.915918 
L 47.422931 -14.65222 
L 47.833369 -14.7609 
L 47.833369 -6.0291 
L 47.833369 -6.0291 
L 47.422931 -6.13778 
L 47.012493 -6.874082 
L 46.602055 -7.851867 
L 46.191617 -8.692037 
L 45.781179 -9.219757 
L 45.370741 -9.450265 
L 44.960303 -9.475412 
L 44.549864 -9.3845 
L 44.139426 -9.245504 
L 43.728988 -9.109772 
L 43.31855 -9.013686 
L 42.908112 -8.976692 
L 42.497674 -9.002632 
L 42.087236 -9.084706 
L 41.676798 -9.209512 
L 41.26636 -9.359054 
L 40.855922 -9.513852 
L 40.445484 -9.658183 
L 40.035046 -9.78403 
L 39.624608 -9.89047 
L 39.21417 -9.979202 
L 38.803731 -10.050402 
L 38.393293 -10.102728 
L 37.982855 -10.137076 
L 37.572417 -10.159475 
L 37.161979 -10.179343 
L 36.751541 -10.204381 
L 36.341103 -10.236756 
L 35.930665 -10.273321 
L 35.520227 -10.308588 
L 35.109789 -10.337735 
L 34.699351 -10.358311 
L 34.288913 -10.370596 
L 33.878475 -10.376847 
L 33.468037 -10.379924 
L 33.057598 -10.382102 
L 32.64716 -10.384556 
L 32.236722 -10.38743 
L 31.826284 -10.390246 
L 31.415846 -10.392465 
L 31.005408 -10.393866 
L 30.59497 -10.394578 
L 30.184532 -10.39487 
L 29.774094 -10.394967 
L 29.363656 -10.394993 
L 28.953218 -10.394999 
L 28.54278 -10.395 
L 28.132342 -10.395 
L 27.721904 -10.395 
L 27.311465 -10.395 
L 26.901027 -10.395 
L 26.490589 -10.395 
L 26.080151 -10.395 
L 25.669713 -10.395 
L 25.259275 -10.395 
L 24.848837 -10.395 
L 24.438399 -10.395 
L 24.027961 -10.395 
L 23.617523 -10.395 
L 23.207085 -10.395 
L 22.796647 -10.395 
L 22.386209 -10.395 
L 21.975771 -10.395 
L 21.565332 -10.395 
L 21.154894 -10.395 
L 20.744456 -10.395 
L 20.334018 -10.395 
L 19.92358 -10.395 
L 19.513142 -10.395 
L 19.102704 -10.395 
L 18.692266 -10.395 
L 18.281828 -10.395 
L 17.87139 -10.395 
L 17.460952 -10.395 
L 17.050514 -10.395 
L 16.640076 -10.395 
L 16.229638 -10.395 
L 15.819199 -10.395 
L 15.408761 -10.395 
L 14.998323 -10.395 
L 14.587885 -10.395 
L 14.177447 -10.395 
L 13.767009 -10.395 
L 13.356571 -10.395 
L 12.946133 -10.395 
L 12.535695 -10.395 
L 12.125257 -10.395 
L 11.714819 -10.395 
L 11.304381 -10.394999 
L 10.893943 -10.394991 
L 10.483505 -10.394954 
L 10.073066 -10.394803 
L 9.662628 -10.394302 
L 9.25219 -10.392961 
L 8.841752 -10.390098 
L 8.431314 -10.385305 
L 8.020876 -10.379219 
L 7.610438 -10.373861 
L 7.2 -10.371698 
z
"/>
    </defs>
    <g clip-path="url(#pa4390796f5)">
     <use xlink:href="#m99eb202598" x="0" y="50.4" style="fill: #126175; fill-opacity: 0.5"/>
    </g>
   </g>
   <g id="matplotlib.axis_1">
    <g id="xtick_1">
     <g id="line2d_1">
      <defs>
       <path id="mad4e1ce0c9" d="M 0 0 
L 0 1.7 
" style="stroke: #000000; stroke-width: 0.25"/>
      </defs>
      <g>
       <use xlink:href="#mad4e1ce0c9" x="7.2" y="45.856" style="stroke: #000000; stroke-width: 0.25"/>
      </g>
     </g>
     <g id="text_1">
      <text style="font-size: 6px; font-family: 'Arial'; text-anchor: middle" x="7.2" y="53.350687" transform="rotate(-0 7.2 53.350687)">0.0</text>
     </g>
    </g>
    <g id="xtick_2">
     <g id="line2d_2">
      <g>
       <use xlink:href="#mad4e1ce0c9" x="27.490909" y="45.856" style="stroke: #000000; stroke-width: 0.25"/>
      </g>
     </g>
     <g id="text_2">
      <text style="font-size: 6px; font-family: 'Arial'; text-anchor: middle" x="27.490909" y="53.350687" transform="rotate(-0 27.490909 53.350687)">0.5</text>
     </g>
    </g>
    <g id="xtick_3">
     <g id="line2d_3">
      <g>
       <use xlink:href="#mad4e1ce0c9" x="47.781818" y="45.856" style="stroke: #000000; stroke-width: 0.25"/>
      </g>
     </g>
     <g id="text_3">
      <text style="font-size: 6px; font-family: 'Arial'; text-anchor: middle" x="47.781818" y="53.350687" transform="rotate(-0 47.781818 53.350687)">1.0</text>
     </g>
    </g>
    <g id="text_4">
     <text style="font-size: 8px; font-family: 'Arial'" transform="translate(-0.9275 61.769437)">motor rhythmicity</text>
     <text style="font-size: 8px; font-family: 'Arial'" transform="translate(19.739375 70.324687)">score</text>
    </g>
   </g>
   <g id="matplotlib.axis_2">
    <g id="ytick_1">
     <g id="line2d_4">
      <defs>
       <path id="m0a8e289434" d="M 0 0 
L -1.7 0 
" style="stroke: #000000; stroke-width: 0.25"/>
      </defs>
      <g>
       <use xlink:href="#m0a8e289434" x="5.2" y="10.899" style="stroke: #000000; stroke-width: 0.25"/>
      </g>
     </g>
     <g id="text_5">
      <text style="font-size: 6px; font-family: 'Arial'; text-anchor: end" x="2" y="13.046344" transform="rotate(-0 2 13.046344)">none</text>
     </g>
    </g>
    <g id="ytick_2">
     <g id="line2d_5">
      <g>
       <use xlink:href="#m0a8e289434" x="5.2" y="20.601" style="stroke: #000000; stroke-width: 0.25"/>
      </g>
     </g>
     <g id="text_6">
      <text style="font-size: 6px; font-family: 'Arial'; text-anchor: end" x="2" y="22.748344" transform="rotate(-0 2 22.748344)">E1</text>
     </g>
    </g>
    <g id="ytick_3">
     <g id="line2d_6">
      <g>
       <use xlink:href="#m0a8e289434" x="5.2" y="30.303" style="stroke: #000000; stroke-width: 0.25"/>
      </g>
     </g>
     <g id="text_7">
      <text style="font-size: 6px; font-family: 'Arial'; text-anchor: end" x="2" y="32.450344" transform="rotate(-0 2 32.450344)">E2</text>
     </g>
    </g>
    <g id="ytick_4">
     <g id="line2d_7">
      <g>
       <use xlink:href="#m0a8e289434" x="5.2" y="40.005" style="stroke: #000000; stroke-width: 0.25"/>
      </g>
     </g>
     <g id="text_8">
      <text style="font-size: 6px; font-family: 'Arial'; text-anchor: end" x="2" y="42.152344" transform="rotate(-0 2 42.152344)">I1</text>
     </g>
    </g>
    <g id="text_9">
     <text style="font-size: 8px; font-family: 'Arial'; text-anchor: middle" x="-14.43625" y="25.452" transform="rotate(-90 -14.43625 25.452)">silenced neuron</text>
    </g>
   </g>
   <g id="line2d_8">
    <path d="M 7.2 16.2351 
L 7.2 24.9669 
" clip-path="url(#pa4390796f5)" style="fill: none"/>
   </g>
   <g id="patch_3">
    <path d="M 46.489251 9.9288 
L 46.489251 11.8692 
L 47.765773 11.8692 
L 47.765773 9.9288 
L 46.489251 9.9288 
z
" clip-path="url(#pa4390796f5)" style="fill: #306c53; stroke: #282828; stroke-width: 0.75; stroke-linejoin: miter"/>
   </g>
   <g id="line2d_9">
    <path d="M 46.489251 10.899 
L 44.626859 10.899 
" clip-path="url(#pa4390796f5)" style="fill: none; stroke: #282828; stroke-width: 0.75"/>
   </g>
   <g id="line2d_10">
    <path d="M 47.765773 10.899 
L 47.847089 10.899 
" clip-path="url(#pa4390796f5)" style="fill: none; stroke: #282828; stroke-width: 0.75"/>
   </g>
   <g id="line2d_11">
    <path d="M 44.626859 10.4139 
L 44.626859 11.3841 
" clip-path="url(#pa4390796f5)" style="fill: none; stroke: #282828; stroke-width: 0.75; stroke-linecap: square"/>
   </g>
   <g id="line2d_12">
    <path d="M 47.847089 10.4139 
L 47.847089 11.3841 
" clip-path="url(#pa4390796f5)" style="fill: none; stroke: #282828; stroke-width: 0.75; stroke-linecap: square"/>
   </g>
   <g id="patch_4">
    <path d="M 7.2 19.6308 
L 7.2 21.5712 
L 7.2 21.5712 
L 7.2 19.6308 
L 7.2 19.6308 
z
" clip-path="url(#pa4390796f5)" style="fill: #c35843; stroke: #282828; stroke-width: 0.75; stroke-linejoin: miter"/>
   </g>
   <g id="line2d_13">
    <path d="M 7.2 20.601 
L 7.2 20.601 
" clip-path="url(#pa4390796f5)" style="fill: none; stroke: #282828; stroke-width: 0.75"/>
   </g>
   <g id="line2d_14">
    <path d="M 7.2 20.601 
L 7.2 20.601 
" clip-path="url(#pa4390796f5)" style="fill: none; stroke: #282828; stroke-width: 0.75"/>
   </g>
   <g id="line2d_15">
    <path d="M 7.2 20.1159 
L 7.2 21.0861 
" clip-path="url(#pa4390796f5)" style="fill: none; stroke: #282828; stroke-width: 0.75; stroke-linecap: square"/>
   </g>
   <g id="line2d_16">
    <path d="M 7.2 20.1159 
L 7.2 21.0861 
" clip-path="url(#pa4390796f5)" style="fill: none; stroke: #282828; stroke-width: 0.75; stroke-linecap: square"/>
   </g>
   <g id="patch_5">
    <path d="M 7.2 29.3328 
L 7.2 31.2732 
L 7.2 31.2732 
L 7.2 29.3328 
L 7.2 29.3328 
z
" clip-path="url(#pa4390796f5)" style="fill: #f0a394; stroke: #282828; stroke-width: 0.75; stroke-linejoin: miter"/>
   </g>
   <g id="line2d_17">
    <path d="M 7.2 30.303 
L 7.2 30.303 
" clip-path="url(#pa4390796f5)" style="fill: none; stroke: #282828; stroke-width: 0.75"/>
   </g>
   <g id="line2d_18">
    <path d="M 7.2 30.303 
L 7.2 30.303 
" clip-path="url(#pa4390796f5)" style="fill: none; stroke: #282828; stroke-width: 0.75"/>
   </g>
   <g id="line2d_19">
    <path d="M 7.2 29.8179 
L 7.2 30.7881 
" clip-path="url(#pa4390796f5)" style="fill: none; stroke: #282828; stroke-width: 0.75; stroke-linecap: square"/>
   </g>
   <g id="line2d_20">
    <path d="M 7.2 29.8179 
L 7.2 30.7881 
" clip-path="url(#pa4390796f5)" style="fill: none; stroke: #282828; stroke-width: 0.75; stroke-linecap: square"/>
   </g>
   <g id="patch_6">
    <path d="M 43.030146 39.0348 
L 43.030146 40.9752 
L 47.766715 40.9752 
L 47.766715 39.0348 
L 43.030146 39.0348 
z
" clip-path="url(#pa4390796f5)" style="fill: #126175; stroke: #282828; stroke-width: 0.75; stroke-linejoin: miter"/>
   </g>
   <g id="line2d_21">
    <path d="M 43.030146 40.005 
L 35.935171 40.005 
" clip-path="url(#pa4390796f5)" style="fill: none; stroke: #282828; stroke-width: 0.75"/>
   </g>
   <g id="line2d_22">
    <path d="M 47.766715 40.005 
L 47.833369 40.005 
" clip-path="url(#pa4390796f5)" style="fill: none; stroke: #282828; stroke-width: 0.75"/>
   </g>
   <g id="line2d_23">
    <path d="M 35.935171 39.5199 
L 35.935171 40.4901 
" clip-path="url(#pa4390796f5)" style="fill: none; stroke: #282828; stroke-width: 0.75; stroke-linecap: square"/>
   </g>
   <g id="line2d_24">
    <path d="M 47.833369 39.5199 
L 47.833369 40.4901 
" clip-path="url(#pa4390796f5)" style="fill: none; stroke: #282828; stroke-width: 0.75; stroke-linecap: square"/>
   </g>
   <g id="line2d_25">
    <path d="M 47.744876 9.9288 
L 47.744876 11.8692 
" clip-path="url(#pa4390796f5)" style="fill: none; stroke: #282828; stroke-width: 0.75"/>
   </g>
   <g id="line2d_26">
    <path d="M 7.2 19.6308 
L 7.2 21.5712 
" clip-path="url(#pa4390796f5)" style="fill: none; stroke: #282828; stroke-width: 0.75"/>
   </g>
   <g id="line2d_27">
    <path d="M 7.2 29.3328 
L 7.2 31.2732 
" clip-path="url(#pa4390796f5)" style="fill: none; stroke: #282828; stroke-width: 0.75"/>
   </g>
   <g id="line2d_28">
    <path d="M 47.7032 39.0348 
L 47.7032 40.9752 
" clip-path="url(#pa4390796f5)" style="fill: none; stroke: #282828; stroke-width: 0.75"/>
   </g>
   <g id="patch_7">
    <path d="M 5.2 44.856 
L 5.2 6.048 
" style="fill: none; stroke: #000000; stroke-width: 0.25; stroke-linejoin: miter; stroke-linecap: square"/>
   </g>
   <g id="patch_8">
    <path d="M 7.2 45.856 
L 51.84 45.856 
" style="fill: none; stroke: #000000; stroke-width: 0.25; stroke-linejoin: miter; stroke-linecap: square"/>
   </g>
  </g>
 </g>
 <defs>
  <clipPath id="pa4390796f5">
   <rect x="7.2" y="6.048" width="44.64" height="38.808"/>
  </clipPath>
 </defs>
</svg>
