<?xml version="1.0" encoding="utf-8" standalone="no"?>
<!DOCTYPE svg PUBLIC "-//W3C//DTD SVG 1.1//EN"
  "http://www.w3.org/Graphics/SVG/1.1/DTD/svg11.dtd">
<svg xmlns:xlink="http://www.w3.org/1999/xlink" width="57.6pt" height="64.8pt" viewBox="0 0 57.6 64.8" xmlns="http://www.w3.org/2000/svg" version="1.1">
 <metadata>
  <rdf:RDF xmlns:dc="http://purl.org/dc/elements/1.1/" xmlns:cc="http://creativecommons.org/ns#" xmlns:rdf="http://www.w3.org/1999/02/22-rdf-syntax-ns#">
   <cc:Work>
    <dc:type rdf:resource="http://purl.org/dc/dcmitype/StillImage"/>
    <dc:date>2025-09-04T00:39:09.367239</dc:date>
    <dc:format>image/svg+xml</dc:format>
    <dc:creator>
     <cc:Agent>
      <dc:title>Matplotlib v3.10.3, https://matplotlib.org/</dc:title>
     </cc:Agent>
    </dc:creator>
   </cc:Work>
  </rdf:RDF>
 </metadata>
 <defs>
  <style type="text/css">*{stroke-linejoin: round; stroke-linecap: butt}</style>
 </defs>
 <g id="figure_1">
  <g id="patch_1">
   <path d="M 0 64.8 
L 57.6 64.8 
L 57.6 0 
L 0 0 
L 0 64.8 
z
" style="fill: none"/>
  </g>
  <g id="axes_1">
   <g id="patch_2">
    <path d="M 7.2 57.672 
L 51.84 57.672 
L 51.84 7.776 
L 7.2 7.776 
L 7.2 57.672 
z
" style="fill: none"/>
   </g>
   <g id="FillBetweenPolyCollection_1">
    <defs>
     <path id="m7ebee17d15" d="M 7.2 -50.771249 
L 7.2 -50.802751 
L 7.610577 -50.799719 
L 8.021153 -50.793696 
L 8.43173 -50.789299 
L 8.842307 -50.787515 
L 9.252883 -50.787075 
L 9.66346 -50.787007 
L 10.074037 -50.787 
L 10.484613 -50.787 
L 10.89519 -50.787 
L 11.305767 -50.787 
L 11.716343 -50.787 
L 12.12692 -50.787 
L 12.537497 -50.787 
L 12.948073 -50.787 
L 13.35865 -50.787 
L 13.769226 -50.787 
L 14.179803 -50.787 
L 14.59038 -50.787 
L 15.000956 -50.787 
L 15.411533 -50.787 
L 15.82211 -50.787 
L 16.232686 -50.787 
L 16.643263 -50.787 
L 17.05384 -50.787 
L 17.464416 -50.787 
L 17.874993 -50.787 
L 18.28557 -50.787 
L 18.696146 -50.787 
L 19.106723 -50.787 
L 19.5173 -50.787 
L 19.927876 -50.787 
L 20.338453 -50.787 
L 20.74903 -50.787 
L 21.159606 -50.787 
L 21.570183 -50.787 
L 21.98076 -50.787 
L 22.391336 -50.787 
L 22.801913 -50.787 
L 23.21249 -50.787 
L 23.623066 -50.787 
L 24.033643 -50.787 
L 24.44422 -50.787 
L 24.854796 -50.787 
L 25.265373 -50.787 
L 25.675949 -50.787 
L 26.086526 -50.787 
L 26.497103 -50.787 
L 26.907679 -50.787 
L 27.318256 -50.787 
L 27.728833 -50.787 
L 28.139409 -50.787 
L 28.549986 -50.787 
L 28.960563 -50.787 
L 29.371139 -50.787007 
L 29.781716 -50.787065 
L 30.192293 -50.787396 
L 30.602869 -50.788582 
L 31.013446 -50.791123 
L 31.424023 -50.794006 
L 31.834599 -50.794762 
L 32.245176 -50.792607 
L 32.655753 -50.789644 
L 33.066329 -50.787845 
L 33.476906 -50.787399 
L 33.887483 -50.788102 
L 34.298059 -50.790217 
L 34.708636 -50.793255 
L 35.119213 -50.795066 
L 35.529789 -50.794421 
L 35.940366 -50.793452 
L 36.350942 -50.79457 
L 36.761519 -50.797039 
L 37.172096 -50.799686 
L 37.582672 -50.804406 
L 37.993249 -50.81375 
L 38.403826 -50.825767 
L 38.814402 -50.833207 
L 39.224979 -50.831993 
L 39.635556 -50.830135 
L 40.046132 -50.840958 
L 40.456709 -50.867811 
L 40.867286 -50.900017 
L 41.277862 -50.922539 
L 41.688439 -50.93292 
L 42.099016 -50.948233 
L 42.509592 -50.991421 
L 42.920169 -51.08257 
L 43.330746 -51.232686 
L 43.741322 -51.414512 
L 44.151899 -51.55868 
L 44.562476 -51.621592 
L 44.973052 -51.633045 
L 45.383629 -51.646492 
L 45.794206 -51.701534 
L 46.204782 -51.925265 
L 46.615359 -52.676762 
L 47.025936 -54.26731 
L 47.436512 -56.0435 
L 47.847089 -56.4003 
L 47.847089 -45.1737 
L 47.847089 -45.1737 
L 47.436512 -45.5305 
L 47.025936 -47.30669 
L 46.615359 -48.897238 
L 46.204782 -49.648735 
L 45.794206 -49.872466 
L 45.383629 -49.927508 
L 44.973052 -49.940955 
L 44.562476 -49.952408 
L 44.151899 -50.01532 
L 43.741322 -50.159488 
L 43.330746 -50.341314 
L 42.920169 -50.49143 
L 42.509592 -50.582579 
L 42.099016 -50.625767 
L 41.688439 -50.64108 
L 41.277862 -50.651461 
L 40.867286 -50.673983 
L 40.456709 -50.706189 
L 40.046132 -50.733042 
L 39.635556 -50.743865 
L 39.224979 -50.742007 
L 38.814402 -50.740793 
L 38.403826 -50.748233 
L 37.993249 -50.76025 
L 37.582672 -50.769594 
L 37.172096 -50.774314 
L 36.761519 -50.776961 
L 36.350942 -50.77943 
L 35.940366 -50.780548 
L 35.529789 -50.779579 
L 35.119213 -50.778934 
L 34.708636 -50.780745 
L 34.298059 -50.783783 
L 33.887483 -50.785898 
L 33.476906 -50.786601 
L 33.066329 -50.786155 
L 32.655753 -50.784356 
L 32.245176 -50.781393 
L 31.834599 -50.779238 
L 31.424023 -50.779994 
L 31.013446 -50.782877 
L 30.602869 -50.785418 
L 30.192293 -50.786604 
L 29.781716 -50.786935 
L 29.371139 -50.786993 
L 28.960563 -50.787 
L 28.549986 -50.787 
L 28.139409 -50.787 
L 27.728833 -50.787 
L 27.318256 -50.787 
L 26.907679 -50.787 
L 26.497103 -50.787 
L 26.086526 -50.787 
L 25.675949 -50.787 
L 25.265373 -50.787 
L 24.854796 -50.787 
L 24.44422 -50.787 
L 24.033643 -50.787 
L 23.623066 -50.787 
L 23.21249 -50.787 
L 22.801913 -50.787 
L 22.391336 -50.787 
L 21.98076 -50.787 
L 21.570183 -50.787 
L 21.159606 -50.787 
L 20.74903 -50.787 
L 20.338453 -50.787 
L 19.927876 -50.787 
L 19.5173 -50.787 
L 19.106723 -50.787 
L 18.696146 -50.787 
L 18.28557 -50.787 
L 17.874993 -50.787 
L 17.464416 -50.787 
L 17.05384 -50.787 
L 16.643263 -50.787 
L 16.232686 -50.787 
L 15.82211 -50.787 
L 15.411533 -50.787 
L 15.000956 -50.787 
L 14.59038 -50.787 
L 14.179803 -50.787 
L 13.769226 -50.787 
L 13.35865 -50.787 
L 12.948073 -50.787 
L 12.537497 -50.787 
L 12.12692 -50.787 
L 11.716343 -50.787 
L 11.305767 -50.787 
L 10.89519 -50.787 
L 10.484613 -50.787 
L 10.074037 -50.787 
L 9.66346 -50.786993 
L 9.252883 -50.786925 
L 8.842307 -50.786485 
L 8.43173 -50.784701 
L 8.021153 -50.780304 
L 7.610577 -50.774281 
L 7.2 -50.771249 
z
"/>
    </defs>
    <g clip-path="url(#p9d2c18567e)">
     <use xlink:href="#m7ebee17d15" x="0" y="64.8" style="fill: #306c53; fill-opacity: 0.5"/>
    </g>
   </g>
   <g id="FillBetweenPolyCollection_2">
    <defs>
     <path id="mce4e1840f5" d="M 7.2 -20.2257 
L 7.2 -31.4523 
L 7.484113 -30.329441 
L 7.768225 -28.137803 
L 8.052338 -26.592139 
L 8.33645 -25.997156 
L 8.620563 -25.861524 
L 8.904675 -25.845293 
L 9.188788 -25.849273 
L 9.4729 -25.855502 
L 9.757013 -25.859808 
L 10.041126 -25.861866 
L 10.325238 -25.862119 
L 10.609351 -25.86011 
L 10.893463 -25.85697 
L 11.177576 -25.854633 
L 11.461688 -25.85274 
L 11.745801 -25.849646 
L 12.029914 -25.845385 
L 12.314026 -25.841736 
L 12.598139 -25.8398 
L 12.882251 -25.839156 
L 13.166364 -25.83902 
L 13.450476 -25.839002 
L 13.734589 -25.839 
L 14.018701 -25.839002 
L 14.302814 -25.839029 
L 14.586927 -25.83923 
L 14.871039 -25.840201 
L 15.155152 -25.843163 
L 15.439264 -25.848686 
L 15.723377 -25.854432 
L 16.007489 -25.856526 
L 16.291602 -25.854358 
L 16.575715 -25.850813 
L 16.859827 -25.848261 
L 17.14394 -25.846864 
L 17.428052 -25.845295 
L 17.712165 -25.842929 
L 17.996277 -25.841002 
L 18.28039 -25.840866 
L 18.564502 -25.84251 
L 18.848615 -25.844321 
L 19.132728 -25.844263 
L 19.41684 -25.842337 
L 19.700953 -25.840354 
L 19.985065 -25.839355 
L 20.269178 -25.839099 
L 20.55329 -25.83927 
L 20.837403 -25.8401 
L 21.121515 -25.841934 
L 21.405628 -25.844012 
L 21.689741 -25.844479 
L 21.973853 -25.842833 
L 22.257966 -25.840716 
L 22.542078 -25.839493 
L 22.826191 -25.839102 
L 23.110303 -25.839117 
L 23.394416 -25.839628 
L 23.678529 -25.841399 
L 23.962641 -25.845005 
L 24.246754 -25.848856 
L 24.530866 -25.849624 
L 24.814979 -25.846523 
L 25.099091 -25.842495 
L 25.383204 -25.840063 
L 25.667316 -25.839211 
L 25.951429 -25.839027 
L 26.235542 -25.839002 
L 26.519654 -25.839 
L 26.803767 -25.839 
L 27.087879 -25.839 
L 27.371992 -25.839 
L 27.656104 -25.839 
L 27.940217 -25.839 
L 28.224329 -25.839 
L 28.508442 -25.839 
L 28.792555 -25.839 
L 29.076667 -25.839 
L 29.36078 -25.839 
L 29.644892 -25.839 
L 29.929005 -25.839 
L 30.213117 -25.839 
L 30.49723 -25.839 
L 30.781343 -25.839 
L 31.065455 -25.839 
L 31.349568 -25.839 
L 31.63368 -25.839 
L 31.917793 -25.839 
L 32.201905 -25.839 
L 32.486018 -25.839 
L 32.77013 -25.839001 
L 33.054243 -25.839017 
L 33.338356 -25.839132 
L 33.622468 -25.839657 
L 33.906581 -25.841113 
L 34.190693 -25.843427 
L 34.474806 -25.845329 
L 34.758918 -25.845954 
L 35.043031 -25.845968 
L 35.327144 -25.845445 
L 35.327144 -25.832555 
L 35.327144 -25.832555 
L 35.043031 -25.832032 
L 34.758918 -25.832046 
L 34.474806 -25.832671 
L 34.190693 -25.834573 
L 33.906581 -25.836887 
L 33.622468 -25.838343 
L 33.338356 -25.838868 
L 33.054243 -25.838983 
L 32.77013 -25.838999 
L 32.486018 -25.839 
L 32.201905 -25.839 
L 31.917793 -25.839 
L 31.63368 -25.839 
L 31.349568 -25.839 
L 31.065455 -25.839 
L 30.781343 -25.839 
L 30.49723 -25.839 
L 30.213117 -25.839 
L 29.929005 -25.839 
L 29.644892 -25.839 
L 29.36078 -25.839 
L 29.076667 -25.839 
L 28.792555 -25.839 
L 28.508442 -25.839 
L 28.224329 -25.839 
L 27.940217 -25.839 
L 27.656104 -25.839 
L 27.371992 -25.839 
L 27.087879 -25.839 
L 26.803767 -25.839 
L 26.519654 -25.839 
L 26.235542 -25.838998 
L 25.951429 -25.838973 
L 25.667316 -25.838789 
L 25.383204 -25.837937 
L 25.099091 -25.835505 
L 24.814979 -25.831477 
L 24.530866 -25.828376 
L 24.246754 -25.829144 
L 23.962641 -25.832995 
L 23.678529 -25.836601 
L 23.394416 -25.838372 
L 23.110303 -25.838883 
L 22.826191 -25.838898 
L 22.542078 -25.838507 
L 22.257966 -25.837284 
L 21.973853 -25.835167 
L 21.689741 -25.833521 
L 21.405628 -25.833988 
L 21.121515 -25.836066 
L 20.837403 -25.8379 
L 20.55329 -25.83873 
L 20.269178 -25.838901 
L 19.985065 -25.838645 
L 19.700953 -25.837646 
L 19.41684 -25.835663 
L 19.132728 -25.833737 
L 18.848615 -25.833679 
L 18.564502 -25.83549 
L 18.28039 -25.837134 
L 17.996277 -25.836998 
L 17.712165 -25.835071 
L 17.428052 -25.832705 
L 17.14394 -25.831136 
L 16.859827 -25.829739 
L 16.575715 -25.827187 
L 16.291602 -25.823642 
L 16.007489 -25.821474 
L 15.723377 -25.823568 
L 15.439264 -25.829314 
L 15.155152 -25.834837 
L 14.871039 -25.837799 
L 14.586927 -25.83877 
L 14.302814 -25.838971 
L 14.018701 -25.838998 
L 13.734589 -25.839 
L 13.450476 -25.838998 
L 13.166364 -25.83898 
L 12.882251 -25.838844 
L 12.598139 -25.8382 
L 12.314026 -25.836264 
L 12.029914 -25.832615 
L 11.745801 -25.828354 
L 11.461688 -25.82526 
L 11.177576 -25.823367 
L 10.893463 -25.82103 
L 10.609351 -25.81789 
L 10.325238 -25.815881 
L 10.041126 -25.816134 
L 9.757013 -25.818192 
L 9.4729 -25.822498 
L 9.188788 -25.828727 
L 8.904675 -25.832707 
L 8.620563 -25.816476 
L 8.33645 -25.680844 
L 8.052338 -25.085861 
L 7.768225 -23.540197 
L 7.484113 -21.348559 
L 7.2 -20.2257 
z
"/>
    </defs>
    <g clip-path="url(#p9d2c18567e)">
     <use xlink:href="#mce4e1840f5" x="0" y="64.8" style="fill: #f0a394; fill-opacity: 0.5"/>
    </g>
   </g>
   <g id="FillBetweenPolyCollection_3">
    <defs>
     <path id="m366650ebfb" d="M 7.2 -13.33504 
L 7.2 -13.39496 
L 7.610438 -13.392178 
L 8.020876 -13.38529 
L 8.431314 -13.377465 
L 8.841752 -13.371302 
L 9.25219 -13.367622 
L 9.662628 -13.365898 
L 10.073066 -13.365253 
L 10.483505 -13.365059 
L 10.893943 -13.365011 
L 11.304381 -13.365002 
L 11.714819 -13.365 
L 12.125257 -13.365 
L 12.535695 -13.365 
L 12.946133 -13.365 
L 13.356571 -13.365 
L 13.767009 -13.365 
L 14.177447 -13.365 
L 14.587885 -13.365 
L 14.998323 -13.365 
L 15.408761 -13.365 
L 15.819199 -13.365 
L 16.229638 -13.365 
L 16.640076 -13.365 
L 17.050514 -13.365 
L 17.460952 -13.365 
L 17.87139 -13.365 
L 18.281828 -13.365 
L 18.692266 -13.365 
L 19.102704 -13.365 
L 19.513142 -13.365 
L 19.92358 -13.365 
L 20.334018 -13.365 
L 20.744456 -13.365 
L 21.154894 -13.365 
L 21.565332 -13.365 
L 21.975771 -13.365 
L 22.386209 -13.365 
L 22.796647 -13.365 
L 23.207085 -13.365 
L 23.617523 -13.365 
L 24.027961 -13.365 
L 24.438399 -13.365 
L 24.848837 -13.365 
L 25.259275 -13.365 
L 25.669713 -13.365 
L 26.080151 -13.365 
L 26.490589 -13.365 
L 26.901027 -13.365 
L 27.311465 -13.365 
L 27.721904 -13.365 
L 28.132342 -13.365 
L 28.54278 -13.365 
L 28.953218 -13.365002 
L 29.363656 -13.365009 
L 29.774094 -13.365043 
L 30.184532 -13.365167 
L 30.59497 -13.365543 
L 31.005408 -13.366458 
L 31.415846 -13.368259 
L 31.826284 -13.371112 
L 32.236722 -13.374733 
L 32.64716 -13.378427 
L 33.057598 -13.381583 
L 33.468037 -13.384383 
L 33.878475 -13.388339 
L 34.288913 -13.396377 
L 34.699351 -13.412172 
L 35.109789 -13.438626 
L 35.520227 -13.476101 
L 35.930665 -13.521445 
L 36.341103 -13.568457 
L 36.751541 -13.610081 
L 37.161979 -13.642273 
L 37.572417 -13.667818 
L 37.982855 -13.696617 
L 38.393293 -13.740778 
L 38.803731 -13.808054 
L 39.21417 -13.899597 
L 39.624608 -14.013682 
L 40.035046 -14.150532 
L 40.445484 -14.312336 
L 40.855922 -14.497904 
L 41.26636 -14.696931 
L 41.676798 -14.889198 
L 42.087236 -15.049664 
L 42.497674 -15.155188 
L 42.908112 -15.188539 
L 43.31855 -15.140975 
L 43.728988 -15.017436 
L 44.139426 -14.842923 
L 44.549864 -14.664214 
L 44.960303 -14.547327 
L 45.370741 -14.579659 
L 45.781179 -14.876027 
L 46.191617 -15.554524 
L 46.602055 -16.634742 
L 47.012493 -17.891894 
L 47.422931 -18.838568 
L 47.833369 -18.9783 
L 47.833369 -7.7517 
L 47.833369 -7.7517 
L 47.422931 -7.891432 
L 47.012493 -8.838106 
L 46.602055 -10.095258 
L 46.191617 -11.175476 
L 45.781179 -11.853973 
L 45.370741 -12.150341 
L 44.960303 -12.182673 
L 44.549864 -12.065786 
L 44.139426 -11.887077 
L 43.728988 -11.712564 
L 43.31855 -11.589025 
L 42.908112 -11.541461 
L 42.497674 -11.574812 
L 42.087236 -11.680336 
L 41.676798 -11.840802 
L 41.26636 -12.033069 
L 40.855922 -12.232096 
L 40.445484 -12.417664 
L 40.035046 -12.579468 
L 39.624608 -12.716318 
L 39.21417 -12.830403 
L 38.803731 -12.921946 
L 38.393293 -12.989222 
L 37.982855 -13.033383 
L 37.572417 -13.062182 
L 37.161979 -13.087727 
L 36.751541 -13.119919 
L 36.341103 -13.161543 
L 35.930665 -13.208555 
L 35.520227 -13.253899 
L 35.109789 -13.291374 
L 34.699351 -13.317828 
L 34.288913 -13.333623 
L 33.878475 -13.341661 
L 33.468037 -13.345617 
L 33.057598 -13.348417 
L 32.64716 -13.351573 
L 32.236722 -13.355267 
L 31.826284 -13.358888 
L 31.415846 -13.361741 
L 31.005408 -13.363542 
L 30.59497 -13.364457 
L 30.184532 -13.364833 
L 29.774094 -13.364957 
L 29.363656 -13.364991 
L 28.953218 -13.364998 
L 28.54278 -13.365 
L 28.132342 -13.365 
L 27.721904 -13.365 
L 27.311465 -13.365 
L 26.901027 -13.365 
L 26.490589 -13.365 
L 26.080151 -13.365 
L 25.669713 -13.365 
L 25.259275 -13.365 
L 24.848837 -13.365 
L 24.438399 -13.365 
L 24.027961 -13.365 
L 23.617523 -13.365 
L 23.207085 -13.365 
L 22.796647 -13.365 
L 22.386209 -13.365 
L 21.975771 -13.365 
L 21.565332 -13.365 
L 21.154894 -13.365 
L 20.744456 -13.365 
L 20.334018 -13.365 
L 19.92358 -13.365 
L 19.513142 -13.365 
L 19.102704 -13.365 
L 18.692266 -13.365 
L 18.281828 -13.365 
L 17.87139 -13.365 
L 17.460952 -13.365 
L 17.050514 -13.365 
L 16.640076 -13.365 
L 16.229638 -13.365 
L 15.819199 -13.365 
L 15.408761 -13.365 
L 14.998323 -13.365 
L 14.587885 -13.365 
L 14.177447 -13.365 
L 13.767009 -13.365 
L 13.356571 -13.365 
L 12.946133 -13.365 
L 12.535695 -13.365 
L 12.125257 -13.365 
L 11.714819 -13.365 
L 11.304381 -13.364998 
L 10.893943 -13.364989 
L 10.483505 -13.364941 
L 10.073066 -13.364747 
L 9.662628 -13.364102 
L 9.25219 -13.362378 
L 8.841752 -13.358698 
L 8.431314 -13.352535 
L 8.020876 -13.34471 
L 7.610438 -13.337822 
L 7.2 -13.33504 
z
"/>
    </defs>
    <g clip-path="url(#p9d2c18567e)">
     <use xlink:href="#m366650ebfb" x="0" y="64.8" style="fill: #126175; fill-opacity: 0.5"/>
    </g>
   </g>
   <g id="matplotlib.axis_1">
    <g id="xtick_1">
     <g id="line2d_1">
      <defs>
       <path id="m83a7b8d2fa" d="M 0 0 
L 0 1.7 
" style="stroke: #000000; stroke-width: 0.25"/>
      </defs>
      <g>
       <use xlink:href="#m83a7b8d2fa" x="7.2" y="58.672" style="stroke: #000000; stroke-width: 0.25"/>
      </g>
     </g>
     <g id="text_1">
      <text style="font-size: 6px; font-family: 'Arial'; text-anchor: middle" x="7.2" y="66.166687" transform="rotate(-0 7.2 66.166687)">0.0</text>
     </g>
    </g>
    <g id="xtick_2">
     <g id="line2d_2">
      <g>
       <use xlink:href="#m83a7b8d2fa" x="27.490909" y="58.672" style="stroke: #000000; stroke-width: 0.25"/>
      </g>
     </g>
     <g id="text_2">
      <text style="font-size: 6px; font-family: 'Arial'; text-anchor: middle" x="27.490909" y="66.166687" transform="rotate(-0 27.490909 66.166687)">0.5</text>
     </g>
    </g>
    <g id="xtick_3">
     <g id="line2d_3">
      <g>
       <use xlink:href="#m83a7b8d2fa" x="47.781818" y="58.672" style="stroke: #000000; stroke-width: 0.25"/>
      </g>
     </g>
     <g id="text_3">
      <text style="font-size: 6px; font-family: 'Arial'; text-anchor: middle" x="47.781818" y="66.166687" transform="rotate(-0 47.781818 66.166687)">1.0</text>
     </g>
    </g>
    <g id="text_4">
     <text style="font-size: 8px; font-family: 'Arial'" transform="translate(-0.9275 74.585437)">motor rhythmicity</text>
     <text style="font-size: 8px; font-family: 'Arial'" transform="translate(19.739375 83.140687)">score</text>
    </g>
   </g>
   <g id="matplotlib.axis_2">
    <g id="ytick_1">
     <g id="line2d_4">
      <defs>
       <path id="ma96723e448" d="M 0 0 
L -1.7 0 
" style="stroke: #000000; stroke-width: 0.25"/>
      </defs>
      <g>
       <use xlink:href="#ma96723e448" x="5.2" y="14.013" style="stroke: #000000; stroke-width: 0.25"/>
      </g>
     </g>
     <g id="text_5">
      <text style="font-size: 6px; font-family: 'Arial'; text-anchor: end" x="2" y="16.160344" transform="rotate(-0 2 16.160344)">none</text>
     </g>
    </g>
    <g id="ytick_2">
     <g id="line2d_5">
      <g>
       <use xlink:href="#ma96723e448" x="5.2" y="26.487" style="stroke: #000000; stroke-width: 0.25"/>
      </g>
     </g>
     <g id="text_6">
      <text style="font-size: 6px; font-family: 'Arial'; text-anchor: end" x="2" y="28.634344" transform="rotate(-0 2 28.634344)">E1</text>
     </g>
    </g>
    <g id="ytick_3">
     <g id="line2d_6">
      <g>
       <use xlink:href="#ma96723e448" x="5.2" y="38.961" style="stroke: #000000; stroke-width: 0.25"/>
      </g>
     </g>
     <g id="text_7">
      <text style="font-size: 6px; font-family: 'Arial'; text-anchor: end" x="2" y="41.108344" transform="rotate(-0 2 41.108344)">E2</text>
     </g>
    </g>
    <g id="ytick_4">
     <g id="line2d_7">
      <g>
       <use xlink:href="#ma96723e448" x="5.2" y="51.435" style="stroke: #000000; stroke-width: 0.25"/>
      </g>
     </g>
     <g id="text_8">
      <text style="font-size: 6px; font-family: 'Arial'; text-anchor: end" x="2" y="53.582344" transform="rotate(-0 2 53.582344)">I1</text>
     </g>
    </g>
    <g id="text_9">
     <text style="font-size: 8px; font-family: 'Arial'; text-anchor: middle" x="-14.43625" y="32.724" transform="rotate(-90 -14.43625 32.724)">silenced neuron</text>
    </g>
   </g>
   <g id="line2d_8">
    <path d="M 7.2 20.8737 
L 7.2 32.1003 
" clip-path="url(#p9d2c18567e)" style="fill: none"/>
   </g>
   <g id="patch_3">
    <path d="M 46.489251 12.7656 
L 46.489251 15.2604 
L 47.765773 15.2604 
L 47.765773 12.7656 
L 46.489251 12.7656 
z
" clip-path="url(#p9d2c18567e)" style="fill: #306c53; stroke: #282828; stroke-width: 0.75; stroke-linejoin: miter"/>
   </g>
   <g id="line2d_9">
    <path d="M 46.489251 14.013 
L 44.626859 14.013 
" clip-path="url(#p9d2c18567e)" style="fill: none; stroke: #282828; stroke-width: 0.75"/>
   </g>
   <g id="line2d_10">
    <path d="M 47.765773 14.013 
L 47.847089 14.013 
" clip-path="url(#p9d2c18567e)" style="fill: none; stroke: #282828; stroke-width: 0.75"/>
   </g>
   <g id="line2d_11">
    <path d="M 44.626859 13.3893 
L 44.626859 14.6367 
" clip-path="url(#p9d2c18567e)" style="fill: none; stroke: #282828; stroke-width: 0.75; stroke-linecap: square"/>
   </g>
   <g id="line2d_12">
    <path d="M 47.847089 13.3893 
L 47.847089 14.6367 
" clip-path="url(#p9d2c18567e)" style="fill: none; stroke: #282828; stroke-width: 0.75; stroke-linecap: square"/>
   </g>
   <g id="patch_4">
    <path d="M 7.2 25.2396 
L 7.2 27.7344 
L 7.2 27.7344 
L 7.2 25.2396 
L 7.2 25.2396 
z
" clip-path="url(#p9d2c18567e)" style="fill: #c35843; stroke: #282828; stroke-width: 0.75; stroke-linejoin: miter"/>
   </g>
   <g id="line2d_13">
    <path d="M 7.2 26.487 
L 7.2 26.487 
" clip-path="url(#p9d2c18567e)" style="fill: none; stroke: #282828; stroke-width: 0.75"/>
   </g>
   <g id="line2d_14">
    <path d="M 7.2 26.487 
L 7.2 26.487 
" clip-path="url(#p9d2c18567e)" style="fill: none; stroke: #282828; stroke-width: 0.75"/>
   </g>
   <g id="line2d_15">
    <path d="M 7.2 25.8633 
L 7.2 27.1107 
" clip-path="url(#p9d2c18567e)" style="fill: none; stroke: #282828; stroke-width: 0.75; stroke-linecap: square"/>
   </g>
   <g id="line2d_16">
    <path d="M 7.2 25.8633 
L 7.2 27.1107 
" clip-path="url(#p9d2c18567e)" style="fill: none; stroke: #282828; stroke-width: 0.75; stroke-linecap: square"/>
   </g>
   <g id="patch_5">
    <path d="M 7.2 37.7136 
L 7.2 40.2084 
L 7.2 40.2084 
L 7.2 37.7136 
L 7.2 37.7136 
z
" clip-path="url(#p9d2c18567e)" style="fill: #f0a394; stroke: #282828; stroke-width: 0.75; stroke-linejoin: miter"/>
   </g>
   <g id="line2d_17">
    <path d="M 7.2 38.961 
L 7.2 38.961 
" clip-path="url(#p9d2c18567e)" style="fill: none; stroke: #282828; stroke-width: 0.75"/>
   </g>
   <g id="line2d_18">
    <path d="M 7.2 38.961 
L 7.2 38.961 
" clip-path="url(#p9d2c18567e)" style="fill: none; stroke: #282828; stroke-width: 0.75"/>
   </g>
   <g id="line2d_19">
    <path d="M 7.2 38.3373 
L 7.2 39.5847 
" clip-path="url(#p9d2c18567e)" style="fill: none; stroke: #282828; stroke-width: 0.75; stroke-linecap: square"/>
   </g>
   <g id="line2d_20">
    <path d="M 7.2 38.3373 
L 7.2 39.5847 
" clip-path="url(#p9d2c18567e)" style="fill: none; stroke: #282828; stroke-width: 0.75; stroke-linecap: square"/>
   </g>
   <g id="patch_6">
    <path d="M 43.030146 50.1876 
L 43.030146 52.6824 
L 47.766715 52.6824 
L 47.766715 50.1876 
L 43.030146 50.1876 
z
" clip-path="url(#p9d2c18567e)" style="fill: #126175; stroke: #282828; stroke-width: 0.75; stroke-linejoin: miter"/>
   </g>
   <g id="line2d_21">
    <path d="M 43.030146 51.435 
L 35.935171 51.435 
" clip-path="url(#p9d2c18567e)" style="fill: none; stroke: #282828; stroke-width: 0.75"/>
   </g>
   <g id="line2d_22">
    <path d="M 47.766715 51.435 
L 47.833369 51.435 
" clip-path="url(#p9d2c18567e)" style="fill: none; stroke: #282828; stroke-width: 0.75"/>
   </g>
   <g id="line2d_23">
    <path d="M 35.935171 50.8113 
L 35.935171 52.0587 
" clip-path="url(#p9d2c18567e)" style="fill: none; stroke: #282828; stroke-width: 0.75; stroke-linecap: square"/>
   </g>
   <g id="line2d_24">
    <path d="M 47.833369 50.8113 
L 47.833369 52.0587 
" clip-path="url(#p9d2c18567e)" style="fill: none; stroke: #282828; stroke-width: 0.75; stroke-linecap: square"/>
   </g>
   <g id="line2d_25">
    <path d="M 47.744876 12.7656 
L 47.744876 15.2604 
" clip-path="url(#p9d2c18567e)" style="fill: none; stroke: #282828; stroke-width: 0.75"/>
   </g>
   <g id="line2d_26">
    <path d="M 7.2 25.2396 
L 7.2 27.7344 
" clip-path="url(#p9d2c18567e)" style="fill: none; stroke: #282828; stroke-width: 0.75"/>
   </g>
   <g id="line2d_27">
    <path d="M 7.2 37.7136 
L 7.2 40.2084 
" clip-path="url(#p9d2c18567e)" style="fill: none; stroke: #282828; stroke-width: 0.75"/>
   </g>
   <g id="line2d_28">
    <path d="M 47.7032 50.1876 
L 47.7032 52.6824 
" clip-path="url(#p9d2c18567e)" style="fill: none; stroke: #282828; stroke-width: 0.75"/>
   </g>
   <g id="patch_7">
    <path d="M 5.2 57.672 
L 5.2 7.776 
" style="fill: none; stroke: #000000; stroke-width: 0.25; stroke-linejoin: miter; stroke-linecap: square"/>
   </g>
   <g id="patch_8">
    <path d="M 7.2 58.672 
L 51.84 58.672 
" style="fill: none; stroke: #000000; stroke-width: 0.25; stroke-linejoin: miter; stroke-linecap: square"/>
   </g>
  </g>
 </g>
 <defs>
  <clipPath id="p9d2c18567e">
   <rect x="7.2" y="7.776" width="44.64" height="49.896"/>
  </clipPath>
 </defs>
</svg>
