<?xml version="1.0" encoding="utf-8" standalone="no"?>
<!DOCTYPE svg PUBLIC "-//W3C//DTD SVG 1.1//EN"
  "http://www.w3.org/Graphics/SVG/1.1/DTD/svg11.dtd">
<svg xmlns:xlink="http://www.w3.org/1999/xlink" width="43.2pt" height="54pt" viewBox="0 0 43.2 54" xmlns="http://www.w3.org/2000/svg" version="1.1">
 <metadata>
  <rdf:RDF xmlns:dc="http://purl.org/dc/elements/1.1/" xmlns:cc="http://creativecommons.org/ns#" xmlns:rdf="http://www.w3.org/1999/02/22-rdf-syntax-ns#">
   <cc:Work>
    <dc:type rdf:resource="http://purl.org/dc/dcmitype/StillImage"/>
    <dc:date>2025-09-08T16:40:20.090210</dc:date>
    <dc:format>image/svg+xml</dc:format>
    <dc:creator>
     <cc:Agent>
      <dc:title>Matplotlib v3.10.3, https://matplotlib.org/</dc:title>
     </cc:Agent>
    </dc:creator>
   </cc:Work>
  </rdf:RDF>
 </metadata>
 <defs>
  <style type="text/css">*{stroke-linejoin: round; stroke-linecap: butt}</style>
 </defs>
 <g id="figure_1">
  <g id="patch_1">
   <path d="M 0 54 
L 43.2 54 
L 43.2 0 
L 0 0 
L 0 54 
z
" style="fill: none"/>
  </g>
  <g id="axes_1">
   <g id="patch_2">
    <path d="M 5.4 48.06 
L 38.88 48.06 
L 38.88 6.48 
L 5.4 6.48 
L 5.4 48.06 
z
" style="fill: none"/>
   </g>
   <g id="FillBetweenPolyCollection_1">
    <defs>
     <path id="me8d3684a0d" d="M 5.4 -42.309374 
L 5.4 -42.335626 
L 5.707932 -42.333099 
L 6.015865 -42.32808 
L 6.323797 -42.324416 
L 6.63173 -42.322929 
L 6.939662 -42.322563 
L 7.247595 -42.322506 
L 7.555527 -42.3225 
L 7.86346 -42.3225 
L 8.171392 -42.3225 
L 8.479325 -42.3225 
L 8.787257 -42.3225 
L 9.09519 -42.3225 
L 9.403122 -42.3225 
L 9.711055 -42.3225 
L 10.018987 -42.3225 
L 10.32692 -42.3225 
L 10.634852 -42.3225 
L 10.942785 -42.3225 
L 11.250717 -42.3225 
L 11.55865 -42.3225 
L 11.866582 -42.3225 
L 12.174515 -42.3225 
L 12.482447 -42.3225 
L 12.79038 -42.3225 
L 13.098312 -42.3225 
L 13.406245 -42.3225 
L 13.714177 -42.3225 
L 14.02211 -42.3225 
L 14.330042 -42.3225 
L 14.637975 -42.3225 
L 14.945907 -42.3225 
L 15.25384 -42.3225 
L 15.561772 -42.3225 
L 15.869705 -42.3225 
L 16.177637 -42.3225 
L 16.48557 -42.3225 
L 16.793502 -42.3225 
L 17.101435 -42.3225 
L 17.409367 -42.3225 
L 17.7173 -42.3225 
L 18.025232 -42.3225 
L 18.333165 -42.3225 
L 18.641097 -42.3225 
L 18.94903 -42.3225 
L 19.256962 -42.3225 
L 19.564895 -42.3225 
L 19.872827 -42.3225 
L 20.18076 -42.3225 
L 20.488692 -42.3225 
L 20.796625 -42.3225 
L 21.104557 -42.3225 
L 21.41249 -42.3225 
L 21.720422 -42.3225 
L 22.028355 -42.322506 
L 22.336287 -42.322554 
L 22.64422 -42.32283 
L 22.952152 -42.323819 
L 23.260084 -42.325936 
L 23.568017 -42.328339 
L 23.875949 -42.328968 
L 24.183882 -42.327173 
L 24.491814 -42.324703 
L 24.799747 -42.323204 
L 25.107679 -42.322833 
L 25.415612 -42.323418 
L 25.723544 -42.325181 
L 26.031477 -42.327712 
L 26.339409 -42.329221 
L 26.647342 -42.328684 
L 26.955274 -42.327877 
L 27.263207 -42.328808 
L 27.571139 -42.330866 
L 27.879072 -42.333072 
L 28.187004 -42.337005 
L 28.494937 -42.344792 
L 28.802869 -42.354805 
L 29.110802 -42.361006 
L 29.418734 -42.359994 
L 29.726667 -42.358446 
L 30.034599 -42.367465 
L 30.342532 -42.389843 
L 30.650464 -42.416681 
L 30.958397 -42.435449 
L 31.266329 -42.4441 
L 31.574262 -42.456861 
L 31.882194 -42.492851 
L 32.190127 -42.568808 
L 32.498059 -42.693905 
L 32.805992 -42.845427 
L 33.113924 -42.965567 
L 33.421857 -43.017994 
L 33.729789 -43.027538 
L 34.037722 -43.038744 
L 34.345654 -43.084611 
L 34.653587 -43.271054 
L 34.961519 -43.897302 
L 35.269452 -45.222758 
L 35.577384 -46.702916 
L 35.885317 -47.00025 
L 35.885317 -37.64475 
L 35.885317 -37.64475 
L 35.577384 -37.942084 
L 35.269452 -39.422242 
L 34.961519 -40.747698 
L 34.653587 -41.373946 
L 34.345654 -41.560389 
L 34.037722 -41.606256 
L 33.729789 -41.617462 
L 33.421857 -41.627006 
L 33.113924 -41.679433 
L 32.805992 -41.799573 
L 32.498059 -41.951095 
L 32.190127 -42.076192 
L 31.882194 -42.152149 
L 31.574262 -42.188139 
L 31.266329 -42.2009 
L 30.958397 -42.209551 
L 30.650464 -42.228319 
L 30.342532 -42.255157 
L 30.034599 -42.277535 
L 29.726667 -42.286554 
L 29.418734 -42.285006 
L 29.110802 -42.283994 
L 28.802869 -42.290195 
L 28.494937 -42.300208 
L 28.187004 -42.307995 
L 27.879072 -42.311928 
L 27.571139 -42.314134 
L 27.263207 -42.316192 
L 26.955274 -42.317123 
L 26.647342 -42.316316 
L 26.339409 -42.315779 
L 26.031477 -42.317288 
L 25.723544 -42.319819 
L 25.415612 -42.321582 
L 25.107679 -42.322167 
L 24.799747 -42.321796 
L 24.491814 -42.320297 
L 24.183882 -42.317827 
L 23.875949 -42.316032 
L 23.568017 -42.316661 
L 23.260084 -42.319064 
L 22.952152 -42.321181 
L 22.64422 -42.32217 
L 22.336287 -42.322446 
L 22.028355 -42.322494 
L 21.720422 -42.3225 
L 21.41249 -42.3225 
L 21.104557 -42.3225 
L 20.796625 -42.3225 
L 20.488692 -42.3225 
L 20.18076 -42.3225 
L 19.872827 -42.3225 
L 19.564895 -42.3225 
L 19.256962 -42.3225 
L 18.94903 -42.3225 
L 18.641097 -42.3225 
L 18.333165 -42.3225 
L 18.025232 -42.3225 
L 17.7173 -42.3225 
L 17.409367 -42.3225 
L 17.101435 -42.3225 
L 16.793502 -42.3225 
L 16.48557 -42.3225 
L 16.177637 -42.3225 
L 15.869705 -42.3225 
L 15.561772 -42.3225 
L 15.25384 -42.3225 
L 14.945907 -42.3225 
L 14.637975 -42.3225 
L 14.330042 -42.3225 
L 14.02211 -42.3225 
L 13.714177 -42.3225 
L 13.406245 -42.3225 
L 13.098312 -42.3225 
L 12.79038 -42.3225 
L 12.482447 -42.3225 
L 12.174515 -42.3225 
L 11.866582 -42.3225 
L 11.55865 -42.3225 
L 11.250717 -42.3225 
L 10.942785 -42.3225 
L 10.634852 -42.3225 
L 10.32692 -42.3225 
L 10.018987 -42.3225 
L 9.711055 -42.3225 
L 9.403122 -42.3225 
L 9.09519 -42.3225 
L 8.787257 -42.3225 
L 8.479325 -42.3225 
L 8.171392 -42.3225 
L 7.86346 -42.3225 
L 7.555527 -42.3225 
L 7.247595 -42.322494 
L 6.939662 -42.322437 
L 6.63173 -42.322071 
L 6.323797 -42.320584 
L 6.015865 -42.31692 
L 5.707932 -42.311901 
L 5.4 -42.309374 
z
"/>
    </defs>
    <g clip-path="url(#pc73a1f58ba)">
     <use xlink:href="#me8d3684a0d" x="0" y="54" style="fill: #306c53"/>
    </g>
   </g>
   <g id="FillBetweenPolyCollection_2">
    <defs>
     <path id="mb22c907cb8" d="M 5.4 -16.85475 
L 5.4 -26.21025 
L 5.613084 -25.274534 
L 5.826169 -23.448169 
L 6.039253 -22.160116 
L 6.252338 -21.664297 
L 6.465422 -21.55127 
L 6.678507 -21.537744 
L 6.891591 -21.541061 
L 7.104675 -21.546252 
L 7.31776 -21.54984 
L 7.530844 -21.551555 
L 7.743929 -21.551766 
L 7.957013 -21.550091 
L 8.170097 -21.547475 
L 8.383182 -21.545527 
L 8.596266 -21.54395 
L 8.809351 -21.541372 
L 9.022435 -21.537821 
L 9.23552 -21.53478 
L 9.448604 -21.533167 
L 9.661688 -21.53263 
L 9.874773 -21.532517 
L 10.087857 -21.532501 
L 10.300942 -21.5325 
L 10.514026 -21.532502 
L 10.727111 -21.532524 
L 10.940195 -21.532691 
L 11.153279 -21.533501 
L 11.366364 -21.535969 
L 11.579448 -21.540571 
L 11.792533 -21.54536 
L 12.005617 -21.547105 
L 12.218701 -21.545298 
L 12.431786 -21.542344 
L 12.64487 -21.540218 
L 12.857955 -21.539053 
L 13.071039 -21.537746 
L 13.284124 -21.535774 
L 13.497208 -21.534168 
L 13.710292 -21.534055 
L 13.923377 -21.535425 
L 14.136461 -21.536934 
L 14.349546 -21.536886 
L 14.56263 -21.535281 
L 14.775715 -21.533628 
L 14.988799 -21.532796 
L 15.201883 -21.532582 
L 15.414968 -21.532725 
L 15.628052 -21.533416 
L 15.841137 -21.534945 
L 16.054221 -21.536677 
L 16.267305 -21.537066 
L 16.48039 -21.535694 
L 16.693474 -21.53393 
L 16.906559 -21.53291 
L 17.119643 -21.532585 
L 17.332728 -21.532598 
L 17.545812 -21.533023 
L 17.758896 -21.534499 
L 17.971981 -21.537504 
L 18.185065 -21.540714 
L 18.39815 -21.541354 
L 18.611234 -21.538769 
L 18.824318 -21.535413 
L 19.037403 -21.533386 
L 19.250487 -21.532676 
L 19.463572 -21.532523 
L 19.676656 -21.532502 
L 19.889741 -21.5325 
L 20.102825 -21.5325 
L 20.315909 -21.5325 
L 20.528994 -21.5325 
L 20.742078 -21.5325 
L 20.955163 -21.5325 
L 21.168247 -21.5325 
L 21.381332 -21.5325 
L 21.594416 -21.5325 
L 21.8075 -21.5325 
L 22.020585 -21.5325 
L 22.233669 -21.5325 
L 22.446754 -21.5325 
L 22.659838 -21.5325 
L 22.872922 -21.5325 
L 23.086007 -21.5325 
L 23.299091 -21.5325 
L 23.512176 -21.5325 
L 23.72526 -21.5325 
L 23.938345 -21.5325 
L 24.151429 -21.5325 
L 24.364513 -21.5325 
L 24.577598 -21.532501 
L 24.790682 -21.532514 
L 25.003767 -21.53261 
L 25.216851 -21.533048 
L 25.429936 -21.534261 
L 25.64302 -21.536189 
L 25.856104 -21.537774 
L 26.069189 -21.538295 
L 26.282273 -21.538307 
L 26.495358 -21.537871 
L 26.495358 -21.527129 
L 26.495358 -21.527129 
L 26.282273 -21.526693 
L 26.069189 -21.526705 
L 25.856104 -21.527226 
L 25.64302 -21.528811 
L 25.429936 -21.530739 
L 25.216851 -21.531952 
L 25.003767 -21.53239 
L 24.790682 -21.532486 
L 24.577598 -21.532499 
L 24.364513 -21.5325 
L 24.151429 -21.5325 
L 23.938345 -21.5325 
L 23.72526 -21.5325 
L 23.512176 -21.5325 
L 23.299091 -21.5325 
L 23.086007 -21.5325 
L 22.872922 -21.5325 
L 22.659838 -21.5325 
L 22.446754 -21.5325 
L 22.233669 -21.5325 
L 22.020585 -21.5325 
L 21.8075 -21.5325 
L 21.594416 -21.5325 
L 21.381332 -21.5325 
L 21.168247 -21.5325 
L 20.955163 -21.5325 
L 20.742078 -21.5325 
L 20.528994 -21.5325 
L 20.315909 -21.5325 
L 20.102825 -21.5325 
L 19.889741 -21.5325 
L 19.676656 -21.532498 
L 19.463572 -21.532477 
L 19.250487 -21.532324 
L 19.037403 -21.531614 
L 18.824318 -21.529587 
L 18.611234 -21.526231 
L 18.39815 -21.523646 
L 18.185065 -21.524286 
L 17.971981 -21.527496 
L 17.758896 -21.530501 
L 17.545812 -21.531977 
L 17.332728 -21.532402 
L 17.119643 -21.532415 
L 16.906559 -21.53209 
L 16.693474 -21.53107 
L 16.48039 -21.529306 
L 16.267305 -21.527934 
L 16.054221 -21.528323 
L 15.841137 -21.530055 
L 15.628052 -21.531584 
L 15.414968 -21.532275 
L 15.201883 -21.532418 
L 14.988799 -21.532204 
L 14.775715 -21.531372 
L 14.56263 -21.529719 
L 14.349546 -21.528114 
L 14.136461 -21.528066 
L 13.923377 -21.529575 
L 13.710292 -21.530945 
L 13.497208 -21.530832 
L 13.284124 -21.529226 
L 13.071039 -21.527254 
L 12.857955 -21.525947 
L 12.64487 -21.524782 
L 12.431786 -21.522656 
L 12.218701 -21.519702 
L 12.005617 -21.517895 
L 11.792533 -21.51964 
L 11.579448 -21.524429 
L 11.366364 -21.529031 
L 11.153279 -21.531499 
L 10.940195 -21.532309 
L 10.727111 -21.532476 
L 10.514026 -21.532498 
L 10.300942 -21.5325 
L 10.087857 -21.532499 
L 9.874773 -21.532483 
L 9.661688 -21.53237 
L 9.448604 -21.531833 
L 9.23552 -21.53022 
L 9.022435 -21.527179 
L 8.809351 -21.523628 
L 8.596266 -21.52105 
L 8.383182 -21.519473 
L 8.170097 -21.517525 
L 7.957013 -21.514909 
L 7.743929 -21.513234 
L 7.530844 -21.513445 
L 7.31776 -21.51516 
L 7.104675 -21.518748 
L 6.891591 -21.523939 
L 6.678507 -21.527256 
L 6.465422 -21.51373 
L 6.252338 -21.400703 
L 6.039253 -20.904884 
L 5.826169 -19.616831 
L 5.613084 -17.790466 
L 5.4 -16.85475 
z
"/>
    </defs>
    <g clip-path="url(#pc73a1f58ba)">
     <use xlink:href="#mb22c907cb8" x="0" y="54" style="fill: #f0a394"/>
    </g>
   </g>
   <g id="FillBetweenPolyCollection_3">
    <defs>
     <path id="m08c2a19f00" d="M 5.4 -11.112534 
L 5.4 -11.162466 
L 5.707829 -11.160148 
L 6.015657 -11.154408 
L 6.323486 -11.147887 
L 6.631314 -11.142752 
L 6.939143 -11.139685 
L 7.246971 -11.138248 
L 7.5548 -11.137711 
L 7.862628 -11.137549 
L 8.170457 -11.137509 
L 8.478286 -11.137501 
L 8.786114 -11.1375 
L 9.093943 -11.1375 
L 9.401771 -11.1375 
L 9.7096 -11.1375 
L 10.017428 -11.1375 
L 10.325257 -11.1375 
L 10.633085 -11.1375 
L 10.940914 -11.1375 
L 11.248743 -11.1375 
L 11.556571 -11.1375 
L 11.8644 -11.1375 
L 12.172228 -11.1375 
L 12.480057 -11.1375 
L 12.787885 -11.1375 
L 13.095714 -11.1375 
L 13.403542 -11.1375 
L 13.711371 -11.1375 
L 14.019199 -11.1375 
L 14.327028 -11.1375 
L 14.634857 -11.1375 
L 14.942685 -11.1375 
L 15.250514 -11.1375 
L 15.558342 -11.1375 
L 15.866171 -11.1375 
L 16.173999 -11.1375 
L 16.481828 -11.1375 
L 16.789656 -11.1375 
L 17.097485 -11.1375 
L 17.405314 -11.1375 
L 17.713142 -11.1375 
L 18.020971 -11.1375 
L 18.328799 -11.1375 
L 18.636628 -11.1375 
L 18.944456 -11.1375 
L 19.252285 -11.1375 
L 19.560113 -11.1375 
L 19.867942 -11.1375 
L 20.175771 -11.1375 
L 20.483599 -11.1375 
L 20.791428 -11.1375 
L 21.099256 -11.1375 
L 21.407085 -11.1375 
L 21.714913 -11.137501 
L 22.022742 -11.137507 
L 22.33057 -11.137536 
L 22.638399 -11.137639 
L 22.946228 -11.137952 
L 23.254056 -11.138715 
L 23.561885 -11.140216 
L 23.869713 -11.142593 
L 24.177542 -11.145611 
L 24.48537 -11.14869 
L 24.793199 -11.15132 
L 25.101027 -11.153653 
L 25.408856 -11.156949 
L 25.716685 -11.163647 
L 26.024513 -11.17681 
L 26.332342 -11.198855 
L 26.64017 -11.230084 
L 26.947999 -11.267871 
L 27.255827 -11.307048 
L 27.563656 -11.341734 
L 27.871484 -11.368561 
L 28.179313 -11.389849 
L 28.487141 -11.413847 
L 28.79497 -11.450648 
L 29.102799 -11.506712 
L 29.410627 -11.582998 
L 29.718456 -11.678068 
L 30.026284 -11.79211 
L 30.334113 -11.926947 
L 30.641941 -12.081587 
L 30.94977 -12.247443 
L 31.257598 -12.407665 
L 31.565427 -12.541387 
L 31.873256 -12.629323 
L 32.181084 -12.657116 
L 32.488913 -12.617479 
L 32.796741 -12.51453 
L 33.10457 -12.369103 
L 33.412398 -12.220178 
L 33.720227 -12.122773 
L 34.028055 -12.149716 
L 34.335884 -12.396689 
L 34.643713 -12.962103 
L 34.951541 -13.862285 
L 35.25937 -14.909912 
L 35.567198 -15.698807 
L 35.875027 -15.81525 
L 35.875027 -6.45975 
L 35.875027 -6.45975 
L 35.567198 -6.576193 
L 35.25937 -7.365088 
L 34.951541 -8.412715 
L 34.643713 -9.312897 
L 34.335884 -9.878311 
L 34.028055 -10.125284 
L 33.720227 -10.152227 
L 33.412398 -10.054822 
L 33.10457 -9.905897 
L 32.796741 -9.76047 
L 32.488913 -9.657521 
L 32.181084 -9.617884 
L 31.873256 -9.645677 
L 31.565427 -9.733613 
L 31.257598 -9.867335 
L 30.94977 -10.027557 
L 30.641941 -10.193413 
L 30.334113 -10.348053 
L 30.026284 -10.48289 
L 29.718456 -10.596932 
L 29.410627 -10.692002 
L 29.102799 -10.768288 
L 28.79497 -10.824352 
L 28.487141 -10.861153 
L 28.179313 -10.885151 
L 27.871484 -10.906439 
L 27.563656 -10.933266 
L 27.255827 -10.967952 
L 26.947999 -11.007129 
L 26.64017 -11.044916 
L 26.332342 -11.076145 
L 26.024513 -11.09819 
L 25.716685 -11.111353 
L 25.408856 -11.118051 
L 25.101027 -11.121347 
L 24.793199 -11.12368 
L 24.48537 -11.12631 
L 24.177542 -11.129389 
L 23.869713 -11.132407 
L 23.561885 -11.134784 
L 23.254056 -11.136285 
L 22.946228 -11.137048 
L 22.638399 -11.137361 
L 22.33057 -11.137464 
L 22.022742 -11.137493 
L 21.714913 -11.137499 
L 21.407085 -11.1375 
L 21.099256 -11.1375 
L 20.791428 -11.1375 
L 20.483599 -11.1375 
L 20.175771 -11.1375 
L 19.867942 -11.1375 
L 19.560113 -11.1375 
L 19.252285 -11.1375 
L 18.944456 -11.1375 
L 18.636628 -11.1375 
L 18.328799 -11.1375 
L 18.020971 -11.1375 
L 17.713142 -11.1375 
L 17.405314 -11.1375 
L 17.097485 -11.1375 
L 16.789656 -11.1375 
L 16.481828 -11.1375 
L 16.173999 -11.1375 
L 15.866171 -11.1375 
L 15.558342 -11.1375 
L 15.250514 -11.1375 
L 14.942685 -11.1375 
L 14.634857 -11.1375 
L 14.327028 -11.1375 
L 14.019199 -11.1375 
L 13.711371 -11.1375 
L 13.403542 -11.1375 
L 13.095714 -11.1375 
L 12.787885 -11.1375 
L 12.480057 -11.1375 
L 12.172228 -11.1375 
L 11.8644 -11.1375 
L 11.556571 -11.1375 
L 11.248743 -11.1375 
L 10.940914 -11.1375 
L 10.633085 -11.1375 
L 10.325257 -11.1375 
L 10.017428 -11.1375 
L 9.7096 -11.1375 
L 9.401771 -11.1375 
L 9.093943 -11.1375 
L 8.786114 -11.1375 
L 8.478286 -11.137499 
L 8.170457 -11.137491 
L 7.862628 -11.137451 
L 7.5548 -11.137289 
L 7.246971 -11.136752 
L 6.939143 -11.135315 
L 6.631314 -11.132248 
L 6.323486 -11.127113 
L 6.015657 -11.120592 
L 5.707829 -11.114852 
L 5.4 -11.112534 
z
"/>
    </defs>
    <g clip-path="url(#pc73a1f58ba)">
     <use xlink:href="#m08c2a19f00" x="0" y="54" style="fill: #126175"/>
    </g>
   </g>
   <g id="matplotlib.axis_1">
    <g id="xtick_1">
     <g id="line2d_1">
      <defs>
       <path id="m3dbb7ca541" d="M 0 0 
L 0 1.7 
" style="stroke: #000000; stroke-width: 0.25"/>
      </defs>
      <g>
       <use xlink:href="#m3dbb7ca541" x="5.4" y="49.06" style="stroke: #000000; stroke-width: 0.25"/>
      </g>
     </g>
     <g id="text_1">
      <text style="font-size: 6px; font-family: 'Arial'; text-anchor: middle" x="5.4" y="56.554688" transform="rotate(-0 5.4 56.554688)">0.0</text>
     </g>
    </g>
    <g id="xtick_2">
     <g id="line2d_2">
      <g>
       <use xlink:href="#m3dbb7ca541" x="20.618182" y="49.06" style="stroke: #000000; stroke-width: 0.25"/>
      </g>
     </g>
     <g id="text_2">
      <text style="font-size: 6px; font-family: 'Arial'; text-anchor: middle" x="20.618182" y="56.554688" transform="rotate(-0 20.618182 56.554688)">0.5</text>
     </g>
    </g>
    <g id="xtick_3">
     <g id="line2d_3">
      <g>
       <use xlink:href="#m3dbb7ca541" x="35.836364" y="49.06" style="stroke: #000000; stroke-width: 0.25"/>
      </g>
     </g>
     <g id="text_3">
      <text style="font-size: 6px; font-family: 'Arial'; text-anchor: middle" x="35.836364" y="56.554688" transform="rotate(-0 35.836364 56.554688)">1.0</text>
     </g>
    </g>
    <g id="text_4">
     <text style="font-size: 8px; font-family: 'Arial'; text-anchor: middle" x="22.14" y="64.973438" transform="rotate(-0 22.14 64.973438)">motor rhythmicity score</text>
    </g>
   </g>
   <g id="matplotlib.axis_2">
    <g id="ytick_1">
     <g id="line2d_4">
      <defs>
       <path id="mbbf30b6030" d="M 0 0 
L -1.7 0 
" style="stroke: #000000; stroke-width: 0.25"/>
      </defs>
      <g>
       <use xlink:href="#mbbf30b6030" x="3.4" y="11.6775" style="stroke: #000000; stroke-width: 0.25"/>
      </g>
     </g>
     <g id="text_5">
      <text style="font-size: 6px; font-family: 'Arial'; text-anchor: end" x="0.2" y="13.824844" transform="rotate(-0 0.2 13.824844)">none</text>
     </g>
    </g>
    <g id="ytick_2">
     <g id="line2d_5">
      <g>
       <use xlink:href="#mbbf30b6030" x="3.4" y="22.0725" style="stroke: #000000; stroke-width: 0.25"/>
      </g>
     </g>
     <g id="text_6">
      <text style="font-size: 6px; font-family: 'Arial'; text-anchor: end" x="0.2" y="24.219844" transform="rotate(-0 0.2 24.219844)">E1</text>
     </g>
    </g>
    <g id="ytick_3">
     <g id="line2d_6">
      <g>
       <use xlink:href="#mbbf30b6030" x="3.4" y="32.4675" style="stroke: #000000; stroke-width: 0.25"/>
      </g>
     </g>
     <g id="text_7">
      <text style="font-size: 6px; font-family: 'Arial'; text-anchor: end" x="0.2" y="34.614844" transform="rotate(-0 0.2 34.614844)">E2</text>
     </g>
    </g>
    <g id="ytick_4">
     <g id="line2d_7">
      <g>
       <use xlink:href="#mbbf30b6030" x="3.4" y="42.8625" style="stroke: #000000; stroke-width: 0.25"/>
      </g>
     </g>
     <g id="text_8">
      <text style="font-size: 6px; font-family: 'Arial'; text-anchor: end" x="0.2" y="45.009844" transform="rotate(-0 0.2 45.009844)">I1</text>
     </g>
    </g>
    <g id="text_9">
     <text style="font-size: 8px; font-family: 'Arial'; text-anchor: middle" x="-16.23625" y="27.27" transform="rotate(-90 -16.23625 27.27)">silenced neuron</text>
    </g>
   </g>
   <g id="line2d_8">
    <path d="M 5.4 17.39475 
L 5.4 26.75025 
" clip-path="url(#pc73a1f58ba)" style="fill: none"/>
   </g>
   <g id="patch_3">
    <path d="M 3.4 48.06 
L 3.4 6.48 
" style="fill: none; stroke: #000000; stroke-width: 0.25; stroke-linejoin: miter; stroke-linecap: square"/>
   </g>
   <g id="patch_4">
    <path d="M 5.4 49.06 
L 38.88 49.06 
" style="fill: none; stroke: #000000; stroke-width: 0.25; stroke-linejoin: miter; stroke-linecap: square"/>
   </g>
  </g>
 </g>
 <defs>
  <clipPath id="pc73a1f58ba">
   <rect x="5.4" y="6.48" width="33.48" height="41.58"/>
  </clipPath>
 </defs>
</svg>
