<?xml version="1.0" encoding="utf-8" standalone="no"?>
<!DOCTYPE svg PUBLIC "-//W3C//DTD SVG 1.1//EN"
  "http://www.w3.org/Graphics/SVG/1.1/DTD/svg11.dtd">
<svg xmlns:xlink="http://www.w3.org/1999/xlink" width="102.672pt" height="66.204pt" viewBox="0 0 102.672 66.204" xmlns="http://www.w3.org/2000/svg" version="1.1">
 <metadata>
  <rdf:RDF xmlns:dc="http://purl.org/dc/elements/1.1/" xmlns:cc="http://creativecommons.org/ns#" xmlns:rdf="http://www.w3.org/1999/02/22-rdf-syntax-ns#">
   <cc:Work>
    <dc:type rdf:resource="http://purl.org/dc/dcmitype/StillImage"/>
    <dc:date>2026-02-24T16:59:59.517184</dc:date>
    <dc:format>image/svg+xml</dc:format>
    <dc:creator>
     <cc:Agent>
      <dc:title>Matplotlib v3.10.7, https://matplotlib.org/</dc:title>
     </cc:Agent>
    </dc:creator>
   </cc:Work>
  </rdf:RDF>
 </metadata>
 <defs>
  <style type="text/css">*{stroke-linejoin: round; stroke-linecap: butt}</style>
 </defs>
 <g id="figure_1">
  <g id="patch_1">
   <path d="M 0 66.204 
L 102.672 66.204 
L 102.672 0 
L 0 0 
L 0 66.204 
z
" style="fill: none"/>
  </g>
  <g id="axes_1">
   <g id="patch_2">
    <path d="M 12.834 58.92156 
L 92.4048 58.92156 
L 92.4048 7.94448 
L 12.834 7.94448 
L 12.834 58.92156 
z
" style="fill: none"/>
   </g>
   <g id="matplotlib.axis_1">
    <g id="xtick_1">
     <g id="line2d_1">
      <defs>
       <path id="mcc4e1a38c3" d="M 0 0 
L 0 1.7 
" style="stroke: #000000; stroke-width: 0.25"/>
      </defs>
      <g>
       <use xlink:href="#mcc4e1a38c3" x="16.450855" y="58.92156" style="stroke: #000000; stroke-width: 0.25"/>
      </g>
     </g>
     <g id="text_1">
      <text style="font-size: 6px; font-family: 'Arial'; text-anchor: middle" x="16.450855" y="66.416247" transform="rotate(-0 16.450855 66.416247)">0.0</text>
     </g>
    </g>
    <g id="xtick_2">
     <g id="line2d_2">
      <g>
       <use xlink:href="#mcc4e1a38c3" x="40.498833" y="58.92156" style="stroke: #000000; stroke-width: 0.25"/>
      </g>
     </g>
     <g id="text_2">
      <text style="font-size: 6px; font-family: 'Arial'; text-anchor: middle" x="40.498833" y="66.416247" transform="rotate(-0 40.498833 66.416247)">0.25</text>
     </g>
    </g>
    <g id="xtick_3">
     <g id="line2d_3">
      <g>
       <use xlink:href="#mcc4e1a38c3" x="64.546811" y="58.92156" style="stroke: #000000; stroke-width: 0.25"/>
      </g>
     </g>
     <g id="text_3">
      <text style="font-size: 6px; font-family: 'Arial'; text-anchor: middle" x="64.546811" y="66.416247" transform="rotate(-0 64.546811 66.416247)">0.5</text>
     </g>
    </g>
    <g id="xtick_4">
     <g id="line2d_4">
      <g>
       <use xlink:href="#mcc4e1a38c3" x="88.594789" y="58.92156" style="stroke: #000000; stroke-width: 0.25"/>
      </g>
     </g>
     <g id="text_4">
      <text style="font-size: 6px; font-family: 'Arial'; text-anchor: middle" x="88.594789" y="66.416247" transform="rotate(-0 88.594789 66.416247)">0.75</text>
     </g>
    </g>
    <g id="text_5">
     <text style="font-size: 8px; font-family: 'Arial'; text-anchor: middle" x="52.6194" y="74.932497" transform="rotate(-0 52.6194 74.932497)">time (s)</text>
    </g>
   </g>
   <g id="matplotlib.axis_2">
    <g id="ytick_1">
     <g id="line2d_5">
      <defs>
       <path id="m6d920d3626" d="M 0 0 
L -1.7 0 
" style="stroke: #000000; stroke-width: 0.25"/>
      </defs>
      <g>
       <use xlink:href="#m6d920d3626" x="12.834" y="56.60442" style="stroke: #000000; stroke-width: 0.25"/>
      </g>
     </g>
     <g id="text_6">
      <text style="font-size: 6px; font-family: 'Arial'; text-anchor: end" x="9.634" y="58.751764" transform="rotate(-0 9.634 58.751764)">0</text>
     </g>
    </g>
    <g id="ytick_2">
     <g id="line2d_6">
      <g>
       <use xlink:href="#m6d920d3626" x="12.834" y="50.002752" style="stroke: #000000; stroke-width: 0.25"/>
      </g>
     </g>
     <g id="text_7">
      <text style="font-size: 6px; font-family: 'Arial'; text-anchor: end" x="9.634" y="52.150096" transform="rotate(-0 9.634 52.150096)">10</text>
     </g>
    </g>
    <g id="text_8">
     <text style="font-size: 8px; font-family: 'Arial'; text-anchor: middle" x="-0.222875" y="33.43302" transform="rotate(-90 -0.222875 33.43302)">firing rate</text>
    </g>
   </g>
   <g id="line2d_7">
    <path d="M 16.450855 26.896914 
L 18.285841 26.896914 
L 18.382419 26.682594 
L 19.348201 20.017635 
L 20.024249 17.044442 
L 20.700296 14.977346 
L 21.376344 13.540212 
L 22.14897 12.425672 
L 22.921596 11.690066 
L 23.7908 11.156778 
L 24.85316 10.767257 
L 26.301834 10.49366 
L 28.523133 10.331912 
L 33.255466 10.267135 
L 72.466225 10.26163 
L 88.787945 10.26163 
L 88.787945 10.26163 
" clip-path="url(#pb2cb84a184)" style="fill: none; stroke: #f77189; stroke-width: 0.75; stroke-linecap: square"/>
   </g>
   <g id="line2d_8">
    <path d="M 16.450855 32.838416 
L 23.694221 32.752795 
L 24.177113 32.440659 
L 24.756582 31.805512 
L 25.529208 30.581941 
L 26.301834 29.417691 
L 26.688146 29.128324 
L 26.977881 29.124998 
L 27.267616 29.340625 
L 28.619711 30.990609 
L 29.488915 31.622802 
L 30.551275 32.10976 
L 31.903371 32.45855 
L 32.965731 32.563811 
L 33.448622 32.320092 
L 34.028092 31.717086 
L 34.993874 30.249712 
L 35.669921 29.427319 
L 36.056234 29.270857 
L 36.345969 29.368488 
L 36.732282 29.811287 
L 37.504908 30.754714 
L 38.374112 31.467612 
L 39.339894 31.977603 
L 40.595411 32.368285 
L 41.850928 32.562215 
L 42.333819 32.376643 
L 42.913288 31.831763 
L 43.685914 30.709308 
L 44.555118 29.526519 
L 44.941431 29.301286 
L 45.231166 29.333846 
L 45.5209 29.56854 
L 46.679839 30.950509 
L 47.549043 31.596422 
L 48.611404 32.093947 
L 49.963499 32.450307 
L 50.929281 32.536412 
L 51.412172 32.281564 
L 51.991642 31.668323 
L 53.826628 29.322264 
L 54.116362 29.313722 
L 54.406097 29.503106 
L 56.241083 31.429552 
L 57.206866 31.953704 
L 58.365804 32.332217 
L 59.7179 32.563403 
L 60.104212 32.455037 
L 60.587104 32.087644 
L 61.166573 31.366108 
L 62.615246 29.405298 
L 63.001559 29.295262 
L 63.291294 29.431817 
L 63.677607 29.919205 
L 64.450233 30.826481 
L 65.319437 31.514828 
L 66.285219 32.007254 
L 67.540736 32.384475 
L 68.796253 32.547704 
L 69.279144 32.312199 
L 69.858613 31.718864 
L 70.824396 30.267957 
L 71.500443 29.451623 
L 71.886756 29.293504 
L 72.176491 29.387149 
L 72.562804 29.815127 
L 73.432008 30.849751 
L 74.301212 31.530135 
L 75.363572 32.054213 
L 76.619089 32.410122 
L 77.778028 32.542579 
L 78.260919 32.292486 
L 78.840388 31.684811 
L 80.675375 29.324427 
L 80.965109 29.308378 
L 81.254844 29.488026 
L 83.186408 31.491418 
L 84.152191 31.992552 
L 85.407708 32.376447 
L 86.663224 32.55441 
L 87.146116 32.338216 
L 87.725585 31.763902 
L 88.594789 30.470572 
L 88.787945 30.17637 
L 88.787945 30.17637 
" clip-path="url(#pb2cb84a184)" style="fill: none; stroke: #bd9732; stroke-width: 0.75; stroke-linecap: square"/>
   </g>
   <g id="line2d_9">
    <path d="M 16.450855 38.779917 
L 24.756582 38.68155 
L 25.046317 38.231329 
L 25.43263 37.086556 
L 26.012099 34.491414 
L 26.977881 30.093263 
L 27.267616 29.43162 
L 27.460772 29.298121 
L 27.653929 29.424957 
L 27.943663 30.014207 
L 28.426555 31.688437 
L 29.19918 34.358703 
L 29.875228 35.864036 
L 30.551275 36.856865 
L 31.323901 37.584838 
L 32.193105 38.080118 
L 33.255466 38.416075 
L 33.931513 38.504321 
L 34.221248 38.20815 
L 34.607561 37.267245 
L 35.18703 34.966161 
L 36.249391 30.57219 
L 36.539125 30.042014 
L 36.732282 29.978424 
L 36.925438 30.153436 
L 37.215173 30.772201 
L 37.794642 32.786367 
L 38.47069 34.827143 
L 39.146738 36.172984 
L 39.822785 37.060612 
L 40.595411 37.711478 
L 41.464615 38.15425 
L 42.623554 38.473407 
L 43.009867 38.434145 
L 43.299601 38.017653 
L 43.685914 36.944311 
L 44.265383 34.541924 
L 45.134588 30.904882 
L 45.5209 30.109924 
L 45.714057 30.050295 
L 45.907213 30.226619 
L 46.196948 30.841657 
L 46.776417 32.822691 
L 47.452465 34.852563 
L 48.128513 36.18975 
L 48.80456 37.071657 
L 49.577186 37.718335 
L 50.44639 38.158283 
L 51.605329 38.475376 
L 51.895063 38.469535 
L 52.184798 38.134516 
L 52.571111 37.154871 
L 53.15058 34.835013 
L 54.116362 30.816667 
L 54.502675 30.093673 
L 54.695832 30.071497 
L 54.888988 30.277509 
L 55.275301 31.213348 
L 56.723975 35.556642 
L 57.400022 36.654111 
L 58.172648 37.458843 
L 59.041852 38.006333 
L 60.104212 38.377723 
L 60.876838 38.466764 
L 61.166573 38.098212 
L 61.552886 37.081201 
L 62.132355 34.726652 
L 63.098137 30.742444 
L 63.387872 30.155231 
L 63.581029 30.044155 
L 63.774185 30.176887 
L 64.06392 30.744696 
L 64.546811 32.331731 
L 65.222858 34.525651 
L 65.898906 35.974154 
L 66.574954 36.929478 
L 67.347579 37.629988 
L 68.216783 38.106548 
L 69.279144 38.429818 
L 69.762035 38.48812 
L 70.05177 38.201281 
L 70.438083 37.278281 
L 71.017552 35.00894 
L 72.079912 30.654313 
L 72.369647 30.123528 
L 72.562804 30.053987 
L 72.75596 30.216832 
L 73.045695 30.818367 
L 73.625164 32.794589 
L 74.301212 34.832517 
L 74.977259 36.17652 
L 75.653307 37.062939 
L 76.425933 37.712923 
L 77.295137 38.155102 
L 78.454075 38.474923 
L 78.74381 38.475916 
L 79.033545 38.155698 
L 79.419858 37.192911 
L 79.999327 34.886342 
L 80.965109 30.845034 
L 81.351422 30.095841 
L 81.544579 30.064032 
L 81.737735 30.266162 
L 82.02747 30.909836 
L 82.606939 32.925213 
L 83.282987 34.918642 
L 83.959034 36.23333 
L 84.635082 37.100398 
L 85.407708 37.736198 
L 86.276912 38.168737 
L 87.43585 38.480509 
L 87.725585 38.459787 
L 88.01532 38.095968 
L 88.401633 37.082571 
L 88.787945 35.591539 
L 88.787945 35.591539 
" clip-path="url(#pb2cb84a184)" style="fill: none; stroke: #52b031; stroke-width: 0.75; stroke-linecap: square"/>
   </g>
   <g id="line2d_10">
    <path d="M 16.450855 44.721418 
L 20.50714 44.637655 
L 21.279766 44.215609 
L 22.728439 43.076182 
L 25.142895 41.222012 
L 26.49499 40.406077 
L 27.267616 40.18111 
L 27.943663 40.207709 
L 28.909446 40.517279 
L 30.164963 40.869928 
L 31.323901 40.954291 
L 32.579418 40.807288 
L 34.221248 40.35999 
L 36.152813 39.825429 
L 36.925438 39.868335 
L 37.794642 40.162125 
L 39.339894 40.701989 
L 40.402254 40.824818 
L 41.561193 40.731741 
L 43.106445 40.356164 
L 45.134588 39.81545 
L 45.907213 39.861925 
L 46.776417 40.155943 
L 48.321669 40.694731 
L 49.384029 40.816466 
L 50.542968 40.721309 
L 52.08822 40.343819 
L 54.116362 39.81282 
L 54.888988 39.868795 
L 55.758192 40.169473 
L 57.206866 40.680573 
L 58.269226 40.815847 
L 59.428165 40.733219 
L 60.876838 40.395301 
L 63.194716 39.806621 
L 63.967341 39.897206 
L 65.029702 40.302138 
L 66.285219 40.705364 
L 67.347579 40.81546 
L 68.506518 40.710278 
L 70.05177 40.324958 
L 71.983334 39.815243 
L 72.75596 39.860371 
L 73.625164 40.153038 
L 75.170416 40.693618 
L 76.232776 40.816747 
L 77.391715 40.723234 
L 78.936966 40.347334 
L 80.965109 39.813224 
L 81.737735 39.866019 
L 82.606939 40.164538 
L 84.055612 40.676972 
L 85.117973 40.813424 
L 86.276912 40.732054 
L 87.725585 40.395155 
L 88.787945 40.055769 
L 88.787945 40.055769 
" clip-path="url(#pb2cb84a184)" style="fill: none; stroke: #36ada4; stroke-width: 0.75; stroke-linecap: square"/>
   </g>
   <g id="line2d_11">
    <path d="M 16.450855 50.662919 
L 21.472922 50.566209 
L 22.245548 50.191433 
L 23.501065 49.275803 
L 24.756582 48.127893 
L 25.529208 47.124768 
L 26.591568 45.701636 
L 26.977881 45.478585 
L 27.267616 45.503172 
L 27.55735 45.720511 
L 27.943663 46.295748 
L 29.006024 48.144654 
L 29.77865 48.986872 
L 30.647854 49.589285 
L 31.130745 49.675787 
L 31.710214 49.541166 
L 32.579418 49.067976 
L 33.738357 48.176563 
L 34.607561 47.23355 
L 35.863078 45.750299 
L 36.249391 45.590347 
L 36.539125 45.650358 
L 36.925438 46.005419 
L 37.408329 46.827356 
L 38.180955 48.109561 
L 38.953581 48.963514 
L 39.726207 49.504929 
L 40.209098 49.578275 
L 40.788567 49.439624 
L 41.657771 48.970225 
L 42.720132 48.162883 
L 43.589336 47.231897 
L 44.844853 45.765915 
L 45.231166 45.608242 
L 45.5209 45.668262 
L 45.907213 46.021199 
L 46.390104 46.837149 
L 47.16273 48.116366 
L 47.935356 48.968042 
L 48.707982 49.505863 
L 49.190873 49.567298 
L 49.770342 49.420341 
L 50.639546 48.945685 
L 51.701907 48.132503 
L 52.571111 47.190105 
L 53.826628 45.745977 
L 54.212941 45.609787 
L 54.502675 45.689209 
L 54.888988 46.066373 
L 55.468458 47.085669 
L 56.241083 48.282591 
L 57.013709 49.078214 
L 57.689757 49.514202 
L 58.172648 49.565108 
L 58.848696 49.368299 
L 59.814478 48.799597 
L 60.876838 47.929384 
L 61.746042 46.908716 
L 62.711825 45.795858 
L 63.098137 45.613449 
L 63.48445 45.700743 
L 63.870763 46.099012 
L 64.546811 47.309412 
L 65.319437 48.430711 
L 66.092062 49.177251 
L 66.671532 49.520048 
L 67.154423 49.558455 
L 67.830471 49.351054 
L 68.796253 48.775548 
L 69.858613 47.895855 
L 70.727817 46.86338 
L 71.6936 45.771512 
L 72.079912 45.610748 
L 72.369647 45.66769 
L 72.75596 46.014511 
L 73.238851 46.82338 
L 74.011477 48.106629 
L 74.784103 48.96156 
L 75.556729 49.498736 
L 76.03962 49.566384 
L 76.619089 49.423805 
L 77.488293 48.952445 
L 78.550654 48.143077 
L 79.419858 47.204378 
L 80.675375 45.752012 
L 81.061687 45.60819 
L 81.351422 45.680726 
L 81.737735 46.050929 
L 82.317204 47.0665 
L 83.08983 48.270084 
L 83.862456 49.070346 
L 84.538504 49.508458 
L 85.021395 49.561967 
L 85.600864 49.40886 
L 86.470068 48.929715 
L 87.532429 48.111844 
L 88.305054 47.283032 
L 88.787945 46.655677 
L 88.787945 46.655677 
" clip-path="url(#pb2cb84a184)" style="fill: none; stroke: #3ba3ea; stroke-width: 0.75; stroke-linecap: square"/>
   </g>
   <g id="line2d_12">
    <path d="M 16.450855 56.60442 
L 25.239473 56.50469 
L 25.625786 56.112251 
L 26.108677 55.166284 
L 26.784725 53.159032 
L 27.750507 50.311783 
L 28.13682 49.745959 
L 28.426555 49.62835 
L 28.716289 49.748117 
L 29.102602 50.185819 
L 29.77865 51.396182 
L 30.937588 53.533229 
L 31.710214 54.46223 
L 32.579418 55.17601 
L 33.5452 55.693892 
L 34.221248 55.899503 
L 34.607561 55.768332 
L 34.993874 55.349152 
L 35.476765 54.409657 
L 36.249391 52.26271 
L 36.925438 50.54317 
L 37.311751 50.007042 
L 37.601486 49.889016 
L 37.891221 50.00202 
L 38.277534 50.425603 
L 38.953581 51.603124 
L 40.015942 53.523253 
L 40.788567 54.455272 
L 41.657771 55.171366 
L 42.623554 55.690936 
L 43.299601 55.856313 
L 43.685914 55.660876 
L 44.072227 55.172574 
L 44.555118 54.160709 
L 46.196948 50.138201 
L 46.486683 49.942504 
L 46.776417 49.984823 
L 47.16273 50.339684 
L 47.7422 51.270699 
L 49.190873 53.817042 
L 50.060077 54.745801 
L 51.025859 55.419661 
L 51.991642 55.841785 
L 52.377954 55.817751 
L 52.764267 55.527368 
L 53.15058 54.93975 
L 53.73005 53.564971 
L 54.985567 50.354635 
L 55.371879 49.966279 
L 55.661614 49.956905 
L 56.047927 50.261237 
L 56.627396 51.150674 
L 58.269226 53.972651 
L 59.13843 54.849558 
L 60.104212 55.485802 
L 61.069995 55.860447 
L 61.456308 55.760129 
L 61.842621 55.378258 
L 62.325512 54.486458 
L 63.098137 52.388297 
L 63.870763 50.472071 
L 64.257076 50.006665 
L 64.546811 49.940931 
L 64.836546 50.096728 
L 65.319437 50.705884 
L 66.092062 52.15384 
L 66.864688 53.498964 
L 67.637314 54.438329 
L 68.506518 55.160074 
L 69.4723 55.683734 
L 70.148348 55.85414 
L 70.534661 55.662781 
L 70.920974 55.179324 
L 71.403865 54.173316 
L 73.045695 50.145693 
L 73.335429 49.943308 
L 73.625164 49.979559 
L 74.011477 50.328747 
L 74.590946 51.255195 
L 76.03962 53.802957 
L 76.908824 54.736403 
L 77.874606 55.413672 
L 78.840388 55.841054 
L 79.226701 55.824009 
L 79.613014 55.541968 
L 79.999327 54.962587 
L 80.578796 53.596538 
L 81.834313 50.37141 
L 82.220626 49.973379 
L 82.510361 49.957528 
L 82.896674 50.25627 
L 83.476143 51.140909 
L 85.117973 53.967577 
L 85.987177 54.846168 
L 86.952959 55.483641 
L 87.918741 55.860191 
L 88.305054 55.760169 
L 88.691367 55.378955 
L 88.787945 55.23672 
L 88.787945 55.23672 
" clip-path="url(#pb2cb84a184)" style="fill: none; stroke: #e667f4; stroke-width: 0.75; stroke-linecap: square"/>
   </g>
   <g id="LineCollection_1">
    <path d="M 12.834 56.60442 
L 12.834 50.002752 
" clip-path="url(#pb2cb84a184)" style="fill: none; stroke: #000000; stroke-width: 0.25"/>
   </g>
   <g id="patch_3">
    <path d="M 12.834 58.92156 
L 92.4048 58.92156 
" style="fill: none; stroke: #000000; stroke-width: 0.25; stroke-linejoin: miter; stroke-linecap: square"/>
   </g>
   <g id="legend_1">
    <g id="patch_4">
     <path d="M 187.927456 73.958855 
Q 189.327456 73.958855 189.327456 72.558855 
Q 189.327456 11.44448 187.927456 11.44448 
M 103.672 11.44448 
L 97.3048 11.44448 
Q 95.9048 11.44448 95.9048 12.84448 
L 95.9048 67.204 
Q 95.9048 73.958855 97.3048 73.958855 
" style="fill: none; opacity: 0.8"/>
    </g>
    <g id="line2d_13">
     <path d="M 98.7048 16.890261 
L 103.672 16.890261 
" style="fill: none; stroke: #f77189; stroke-width: 0.75; stroke-linecap: square"/>
    </g>
    <g id="text_9">
     <text style="font-size: 7px; font-family: 'Arial'; text-anchor: start" x="118.3048" y="19.340261" transform="rotate(-0 118.3048 19.340261)"> DNb08 (14061)</text>
    </g>
    <g id="line2d_14">
     <path d="M 98.7048 26.959324 
L 103.672 26.959324 
" style="fill: none; stroke: #bd9732; stroke-width: 0.75; stroke-linecap: square"/>
    </g>
    <g id="text_10">
     <text style="font-size: 7px; font-family: 'Arial'; text-anchor: start" x="118.3048" y="29.409324" transform="rotate(-0 118.3048 29.409324)">L IN17A001 (10707)</text>
    </g>
    <g id="line2d_15">
     <path d="M 98.7048 37.028386 
L 103.672 37.028386 
" style="fill: none; stroke: #52b031; stroke-width: 0.75; stroke-linecap: square"/>
    </g>
    <g id="text_11">
     <text style="font-size: 7px; font-family: 'Arial'; text-anchor: start" x="118.3048" y="39.478386" transform="rotate(-0 118.3048 39.478386)">L INXXX466 (11751)</text>
    </g>
    <g id="line2d_16">
     <path d="M 98.7048 47.097449 
L 103.672 47.097449 
" style="fill: none; stroke: #36ada4; stroke-width: 0.75; stroke-linecap: square"/>
    </g>
    <g id="text_12">
     <text style="font-size: 7px; font-family: 'Arial'; text-anchor: start" x="118.3048" y="49.547449" transform="rotate(-0 118.3048 49.547449)">L IN03A006 (12021)</text>
    </g>
    <g id="line2d_17">
     <path d="M 98.7048 57.166511 
L 103.672 57.166511 
" style="fill: none; stroke: #3ba3ea; stroke-width: 0.75; stroke-linecap: square"/>
    </g>
    <g id="text_13">
     <text style="font-size: 7px; font-family: 'Arial'; text-anchor: start" x="118.3048" y="59.616511" transform="rotate(-0 118.3048 59.616511)">L INXXX464 (162543)</text>
    </g>
    <g id="line2d_18">
     <path style="fill: none; stroke: #e667f4; stroke-width: 0.75; stroke-linecap: square"/>
    </g>
    <g id="text_14">
     <text style="font-size: 7px; font-family: 'Arial'; text-anchor: start" x="118.3048" y="69.685574" transform="rotate(-0 118.3048 69.685574)">L IN19A007 (10242)</text>
    </g>
   </g>
  </g>
 </g>
 <defs>
  <clipPath id="pb2cb84a184">
   <rect x="12.834" y="7.94448" width="79.5708" height="50.97708"/>
  </clipPath>
 </defs>
</svg>
