<?xml version="1.0" encoding="utf-8" standalone="no"?>
<!DOCTYPE svg PUBLIC "-//W3C//DTD SVG 1.1//EN"
  "http://www.w3.org/Graphics/SVG/1.1/DTD/svg11.dtd">
<svg xmlns:xlink="http://www.w3.org/1999/xlink" width="50.4pt" height="50.4pt" viewBox="0 0 50.4 50.4" xmlns="http://www.w3.org/2000/svg" version="1.1">
 <metadata>
  <rdf:RDF xmlns:dc="http://purl.org/dc/elements/1.1/" xmlns:cc="http://creativecommons.org/ns#" xmlns:rdf="http://www.w3.org/1999/02/22-rdf-syntax-ns#">
   <cc:Work>
    <dc:type rdf:resource="http://purl.org/dc/dcmitype/StillImage"/>
    <dc:date>2025-09-04T00:16:24.350439</dc:date>
    <dc:format>image/svg+xml</dc:format>
    <dc:creator>
     <cc:Agent>
      <dc:title>Matplotlib v3.10.3, https://matplotlib.org/</dc:title>
     </cc:Agent>
    </dc:creator>
   </cc:Work>
  </rdf:RDF>
 </metadata>
 <defs>
  <style type="text/css">*{stroke-linejoin: round; stroke-linecap: butt}</style>
 </defs>
 <g id="figure_1">
  <g id="patch_1">
   <path d="M 0 50.4 
L 50.4 50.4 
L 50.4 0 
L 0 0 
L 0 50.4 
z
" style="fill: none"/>
  </g>
  <g id="axes_1">
   <g id="patch_2">
    <path d="M 6.3 44.856 
L 45.36 44.856 
L 45.36 6.048 
L 6.3 6.048 
L 6.3 44.856 
z
" style="fill: none"/>
   </g>
   <g id="FillBetweenPolyCollection_1">
    <path d="M 16.952727 10.908932 
L 16.952727 10.889068 
L 17.203802 10.888823 
L 17.454876 10.88868 
L 17.70595 10.888603 
L 17.957025 10.888545 
L 18.208099 10.888451 
L 18.459174 10.888255 
L 18.710248 10.88789 
L 18.961322 10.887275 
L 19.212397 10.886321 
L 19.463471 10.884919 
L 19.714545 10.882937 
L 19.96562 10.880216 
L 20.216694 10.876567 
L 20.467769 10.871774 
L 20.718843 10.865609 
L 20.969917 10.857851 
L 21.220992 10.848305 
L 21.472066 10.836833 
L 21.72314 10.823374 
L 21.974215 10.807959 
L 22.225289 10.790702 
L 22.476364 10.771776 
L 22.727438 10.751363 
L 22.978512 10.729577 
L 23.229587 10.706384 
L 23.480661 10.68152 
L 23.731736 10.654431 
L 23.98281 10.624254 
L 24.233884 10.589854 
L 24.484959 10.54993 
L 24.736033 10.503177 
L 24.987107 10.448493 
L 25.238182 10.385202 
L 25.489256 10.313238 
L 25.740331 10.233255 
L 25.991405 10.146622 
L 26.242479 10.055267 
L 26.493554 9.961385 
L 26.744628 9.867028 
L 26.995702 9.773647 
L 27.246777 9.681665 
L 27.497851 9.590178 
L 27.748926 9.49687 
L 28 9.3982 
L 28.251074 9.289874 
L 28.502149 9.167564 
L 28.753223 9.027766 
L 29.004298 8.868662 
L 29.255372 8.690815 
L 29.506446 8.497537 
L 29.757521 8.294814 
L 30.008595 8.090748 
L 30.259669 7.89455 
L 30.510744 7.715227 
L 30.761818 7.560172 
L 31.012893 7.433909 
L 31.263967 7.337239 
L 31.515041 7.266983 
L 31.766116 7.216409 
L 32.01719 7.17633 
L 32.268264 7.136707 
L 32.519339 7.088495 
L 32.770413 7.025431 
L 33.021488 6.945415 
L 33.272562 6.851235 
L 33.523636 6.750484 
L 33.774711 6.654647 
L 34.025785 6.577503 
L 34.27686 6.5331 
L 34.527934 6.533652 
L 34.779008 6.587692 
L 35.030083 6.6988 
L 35.281157 6.865095 
L 35.532231 7.079544 
L 35.783306 7.331008 
L 36.03438 7.605819 
L 36.285455 7.889597 
L 36.536529 8.169012 
L 36.787603 8.433219 
L 37.038678 8.674783 
L 37.289752 8.890005 
L 37.540826 9.078673 
L 37.791901 9.243371 
L 38.042975 9.388497 
L 38.29405 9.519205 
L 38.545124 9.640434 
L 38.796198 9.75618 
L 39.047273 9.869057 
L 39.298347 9.980182 
L 39.549421 10.089328 
L 39.800496 10.195264 
L 40.05157 10.296195 
L 40.302645 10.390198 
L 40.553719 10.475597 
L 40.804793 10.551216 
L 41.055868 10.6165 
L 41.306942 10.671524 
L 41.558017 10.716901 
L 41.809091 10.753632 
L 41.809091 11.044368 
L 41.809091 11.044368 
L 41.558017 11.081099 
L 41.306942 11.126476 
L 41.055868 11.1815 
L 40.804793 11.246784 
L 40.553719 11.322403 
L 40.302645 11.407802 
L 40.05157 11.501805 
L 39.800496 11.602736 
L 39.549421 11.708672 
L 39.298347 11.817818 
L 39.047273 11.928943 
L 38.796198 12.04182 
L 38.545124 12.157566 
L 38.29405 12.278795 
L 38.042975 12.409503 
L 37.791901 12.554629 
L 37.540826 12.719327 
L 37.289752 12.907995 
L 37.038678 13.123217 
L 36.787603 13.364781 
L 36.536529 13.628988 
L 36.285455 13.908403 
L 36.03438 14.192181 
L 35.783306 14.466992 
L 35.532231 14.718456 
L 35.281157 14.932905 
L 35.030083 15.0992 
L 34.779008 15.210308 
L 34.527934 15.264348 
L 34.27686 15.2649 
L 34.025785 15.220497 
L 33.774711 15.143353 
L 33.523636 15.047516 
L 33.272562 14.946765 
L 33.021488 14.852585 
L 32.770413 14.772569 
L 32.519339 14.709505 
L 32.268264 14.661293 
L 32.01719 14.62167 
L 31.766116 14.581591 
L 31.515041 14.531017 
L 31.263967 14.460761 
L 31.012893 14.364091 
L 30.761818 14.237828 
L 30.510744 14.082773 
L 30.259669 13.90345 
L 30.008595 13.707252 
L 29.757521 13.503186 
L 29.506446 13.300463 
L 29.255372 13.107185 
L 29.004298 12.929338 
L 28.753223 12.770234 
L 28.502149 12.630436 
L 28.251074 12.508126 
L 28 12.3998 
L 27.748926 12.30113 
L 27.497851 12.207822 
L 27.246777 12.116335 
L 26.995702 12.024353 
L 26.744628 11.930972 
L 26.493554 11.836615 
L 26.242479 11.742733 
L 25.991405 11.651378 
L 25.740331 11.564745 
L 25.489256 11.484762 
L 25.238182 11.412798 
L 24.987107 11.349507 
L 24.736033 11.294823 
L 24.484959 11.24807 
L 24.233884 11.208146 
L 23.98281 11.173746 
L 23.731736 11.143569 
L 23.480661 11.11648 
L 23.229587 11.091616 
L 22.978512 11.068423 
L 22.727438 11.046637 
L 22.476364 11.026224 
L 22.225289 11.007298 
L 21.974215 10.990041 
L 21.72314 10.974626 
L 21.472066 10.961167 
L 21.220992 10.949695 
L 20.969917 10.940149 
L 20.718843 10.932391 
L 20.467769 10.926226 
L 20.216694 10.921433 
L 19.96562 10.917784 
L 19.714545 10.915063 
L 19.463471 10.913081 
L 19.212397 10.911679 
L 18.961322 10.910725 
L 18.710248 10.91011 
L 18.459174 10.909745 
L 18.208099 10.909549 
L 17.957025 10.909455 
L 17.70595 10.909397 
L 17.454876 10.90932 
L 17.203802 10.909177 
L 16.952727 10.908932 
z
" clip-path="url(#p951a8fb2d2)" style="fill: #306c53; fill-opacity: 0.5"/>
   </g>
   <g id="FillBetweenPolyCollection_2">
    <path d="M 6.3 21.093434 
L 6.3 20.108566 
L 6.371736 20.11167 
L 6.443471 20.120868 
L 6.515207 20.135814 
L 6.586942 20.155959 
L 6.658678 20.180582 
L 6.730413 20.208829 
L 6.802149 20.239767 
L 6.873884 20.27243 
L 6.94562 20.305867 
L 7.017355 20.339186 
L 7.089091 20.371583 
L 7.160826 20.402368 
L 7.232562 20.430978 
L 7.304298 20.456971 
L 7.376033 20.480018 
L 7.447769 20.499881 
L 7.519504 20.516381 
L 7.59124 20.529363 
L 7.662975 20.538651 
L 7.734711 20.544007 
L 7.806446 20.545085 
L 7.878182 20.541381 
L 7.949917 20.532201 
L 8.021653 20.516616 
L 8.093388 20.493447 
L 8.165124 20.461246 
L 8.23686 20.418303 
L 8.308595 20.362678 
L 8.380331 20.292247 
L 8.452066 20.204792 
L 8.523802 20.09811 
L 8.595537 19.970155 
L 8.667273 19.819214 
L 8.739008 19.644089 
L 8.810744 19.444299 
L 8.882479 19.220271 
L 8.954215 18.97351 
L 9.02595 18.706726 
L 9.097686 18.423904 
L 9.169421 18.130297 
L 9.241157 17.832336 
L 9.312893 17.537442 
L 9.384628 17.253752 
L 9.456364 16.98977 
L 9.528099 16.753949 
L 9.599835 16.554251 
L 9.67157 16.397703 
L 9.743306 16.289988 
L 9.815041 16.2351 
L 9.886777 16.2351 
L 9.958512 16.289988 
L 10.030248 16.397704 
L 10.101983 16.554251 
L 10.173719 16.75395 
L 10.245455 16.989772 
L 10.31719 17.253755 
L 10.388926 17.537446 
L 10.460661 17.832344 
L 10.532397 18.13031 
L 10.604132 18.423925 
L 10.675868 18.70676 
L 10.747603 18.973565 
L 10.819339 19.220358 
L 10.891074 19.444435 
L 10.96281 19.644299 
L 11.034545 19.819535 
L 11.106281 19.97064 
L 11.178017 20.098832 
L 11.249752 20.205854 
L 11.321488 20.293789 
L 11.393223 20.364889 
L 11.464959 20.421435 
L 11.536694 20.465624 
L 11.60843 20.499493 
L 11.680165 20.524859 
L 11.751901 20.543298 
L 11.823636 20.556133 
L 11.895372 20.564448 
L 11.967107 20.569104 
L 12.038843 20.570769 
L 12.110579 20.569951 
L 12.182314 20.567029 
L 12.25405 20.562286 
L 12.325785 20.555944 
L 12.397521 20.548184 
L 12.469256 20.53918 
L 12.540992 20.529109 
L 12.612727 20.518173 
L 12.684463 20.506602 
L 12.756198 20.494665 
L 12.827934 20.482663 
L 12.899669 20.470926 
L 12.971405 20.459801 
L 13.04314 20.449639 
L 13.114876 20.44078 
L 13.186612 20.43353 
L 13.258347 20.428151 
L 13.330083 20.42484 
L 13.401818 20.423723 
L 13.401818 20.778277 
L 13.401818 20.778277 
L 13.330083 20.77716 
L 13.258347 20.773849 
L 13.186612 20.76847 
L 13.114876 20.76122 
L 13.04314 20.752361 
L 12.971405 20.742199 
L 12.899669 20.731074 
L 12.827934 20.719337 
L 12.756198 20.707335 
L 12.684463 20.695398 
L 12.612727 20.683827 
L 12.540992 20.672891 
L 12.469256 20.66282 
L 12.397521 20.653816 
L 12.325785 20.646056 
L 12.25405 20.639714 
L 12.182314 20.634971 
L 12.110579 20.632049 
L 12.038843 20.631231 
L 11.967107 20.632896 
L 11.895372 20.637552 
L 11.823636 20.645867 
L 11.751901 20.658702 
L 11.680165 20.677141 
L 11.60843 20.702507 
L 11.536694 20.736376 
L 11.464959 20.780565 
L 11.393223 20.837111 
L 11.321488 20.908211 
L 11.249752 20.996146 
L 11.178017 21.103168 
L 11.106281 21.23136 
L 11.034545 21.382465 
L 10.96281 21.557701 
L 10.891074 21.757565 
L 10.819339 21.981642 
L 10.747603 22.228435 
L 10.675868 22.49524 
L 10.604132 22.778075 
L 10.532397 23.07169 
L 10.460661 23.369656 
L 10.388926 23.664554 
L 10.31719 23.948245 
L 10.245455 24.212228 
L 10.173719 24.44805 
L 10.101983 24.647749 
L 10.030248 24.804296 
L 9.958512 24.912012 
L 9.886777 24.9669 
L 9.815041 24.9669 
L 9.743306 24.912012 
L 9.67157 24.804297 
L 9.599835 24.647749 
L 9.528099 24.448051 
L 9.456364 24.21223 
L 9.384628 23.948248 
L 9.312893 23.664558 
L 9.241157 23.369664 
L 9.169421 23.071703 
L 9.097686 22.778096 
L 9.02595 22.495274 
L 8.954215 22.22849 
L 8.882479 21.981729 
L 8.810744 21.757701 
L 8.739008 21.557911 
L 8.667273 21.382786 
L 8.595537 21.231845 
L 8.523802 21.10389 
L 8.452066 20.997208 
L 8.380331 20.909753 
L 8.308595 20.839322 
L 8.23686 20.783697 
L 8.165124 20.740754 
L 8.093388 20.708553 
L 8.021653 20.685384 
L 7.949917 20.669799 
L 7.878182 20.660619 
L 7.806446 20.656915 
L 7.734711 20.657993 
L 7.662975 20.663349 
L 7.59124 20.672637 
L 7.519504 20.685619 
L 7.447769 20.702119 
L 7.376033 20.721982 
L 7.304298 20.745029 
L 7.232562 20.771022 
L 7.160826 20.799632 
L 7.089091 20.830417 
L 7.017355 20.862814 
L 6.94562 20.896133 
L 6.873884 20.92957 
L 6.802149 20.962233 
L 6.730413 20.993171 
L 6.658678 21.021418 
L 6.586942 21.046041 
L 6.515207 21.066186 
L 6.443471 21.081132 
L 6.371736 21.09033 
L 6.3 21.093434 
z
" clip-path="url(#p951a8fb2d2)" style="fill: #c35843; fill-opacity: 0.5"/>
   </g>
   <g id="FillBetweenPolyCollection_3">
    <path d="M 6.3 32.864361 
L 6.3 27.741639 
L 6.371736 27.75017 
L 6.443471 27.776156 
L 6.515207 27.819004 
L 6.586942 27.877768 
L 6.658678 27.951168 
L 6.730413 28.037634 
L 6.802149 28.135346 
L 6.873884 28.242287 
L 6.94562 28.356292 
L 7.017355 28.475108 
L 7.089091 28.596436 
L 7.160826 28.71799 
L 7.232562 28.83753 
L 7.304298 28.952903 
L 7.376033 29.06207 
L 7.447769 29.163128 
L 7.519504 29.254319 
L 7.59124 29.334044 
L 7.662975 29.40086 
L 7.734711 29.453481 
L 7.806446 29.490773 
L 7.878182 29.511754 
L 7.949917 29.515587 
L 8.021653 29.501588 
L 8.093388 29.469225 
L 8.165124 29.418133 
L 8.23686 29.348127 
L 8.308595 29.259224 
L 8.380331 29.151668 
L 8.452066 29.025952 
L 8.523802 28.882851 
L 8.595537 28.723445 
L 8.667273 28.549138 
L 8.739008 28.36168 
L 8.810744 28.163164 
L 8.882479 27.956029 
L 8.954215 27.743036 
L 9.02595 27.52724 
L 9.097686 27.311941 
L 9.169421 27.100625 
L 9.241157 26.896887 
L 9.312893 26.704352 
L 9.384628 26.52658 
L 9.456364 26.366968 
L 9.528099 26.228656 
L 9.599835 26.114428 
L 9.67157 26.026632 
L 9.743306 25.967102 
L 9.815041 25.9371 
L 9.886777 25.937276 
L 9.958512 25.967648 
L 10.030248 26.027601 
L 10.101983 26.115912 
L 10.173719 26.230793 
L 10.245455 26.369949 
L 10.31719 26.53066 
L 10.388926 26.709867 
L 10.460661 26.904267 
L 10.532397 27.110419 
L 10.604132 27.32484 
L 10.675868 27.544104 
L 10.747603 27.764927 
L 10.819339 27.984246 
L 10.891074 28.199282 
L 10.96281 28.407589 
L 11.034545 28.607089 
L 11.106281 28.796088 
L 11.178017 28.973281 
L 11.249752 29.137742 
L 11.321488 29.288907 
L 11.393223 29.426539 
L 11.464959 29.550694 
L 11.536694 29.661682 
L 11.60843 29.760018 
L 11.680165 29.846383 
L 11.751901 29.921581 
L 11.823636 29.986496 
L 11.895372 30.042058 
L 11.967107 30.089215 
L 12.038843 30.1289 
L 12.110579 30.162017 
L 12.182314 30.189417 
L 12.25405 30.211893 
L 12.325785 30.230171 
L 12.397521 30.244904 
L 12.469256 30.256672 
L 12.540992 30.265985 
L 12.612727 30.273284 
L 12.684463 30.278948 
L 12.756198 30.283299 
L 12.827934 30.286607 
L 12.899669 30.289095 
L 12.971405 30.290948 
L 13.04314 30.292316 
L 13.114876 30.29332 
L 13.186612 30.294058 
L 13.258347 30.294606 
L 13.330083 30.295022 
L 13.401818 30.295353 
L 13.401818 30.310647 
L 13.401818 30.310647 
L 13.330083 30.310978 
L 13.258347 30.311394 
L 13.186612 30.311942 
L 13.114876 30.31268 
L 13.04314 30.313684 
L 12.971405 30.315052 
L 12.899669 30.316905 
L 12.827934 30.319393 
L 12.756198 30.322701 
L 12.684463 30.327052 
L 12.612727 30.332716 
L 12.540992 30.340015 
L 12.469256 30.349328 
L 12.397521 30.361096 
L 12.325785 30.375829 
L 12.25405 30.394107 
L 12.182314 30.416583 
L 12.110579 30.443983 
L 12.038843 30.4771 
L 11.967107 30.516785 
L 11.895372 30.563942 
L 11.823636 30.619504 
L 11.751901 30.684419 
L 11.680165 30.759617 
L 11.60843 30.845982 
L 11.536694 30.944318 
L 11.464959 31.055306 
L 11.393223 31.179461 
L 11.321488 31.317093 
L 11.249752 31.468258 
L 11.178017 31.632719 
L 11.106281 31.809912 
L 11.034545 31.998911 
L 10.96281 32.198411 
L 10.891074 32.406718 
L 10.819339 32.621754 
L 10.747603 32.841073 
L 10.675868 33.061896 
L 10.604132 33.28116 
L 10.532397 33.495581 
L 10.460661 33.701733 
L 10.388926 33.896133 
L 10.31719 34.07534 
L 10.245455 34.236051 
L 10.173719 34.375207 
L 10.101983 34.490088 
L 10.030248 34.578399 
L 9.958512 34.638352 
L 9.886777 34.668724 
L 9.815041 34.6689 
L 9.743306 34.638898 
L 9.67157 34.579368 
L 9.599835 34.491572 
L 9.528099 34.377344 
L 9.456364 34.239032 
L 9.384628 34.07942 
L 9.312893 33.901648 
L 9.241157 33.709113 
L 9.169421 33.505375 
L 9.097686 33.294059 
L 9.02595 33.07876 
L 8.954215 32.862964 
L 8.882479 32.649971 
L 8.810744 32.442836 
L 8.739008 32.24432 
L 8.667273 32.056862 
L 8.595537 31.882555 
L 8.523802 31.723149 
L 8.452066 31.580048 
L 8.380331 31.454332 
L 8.308595 31.346776 
L 8.23686 31.257873 
L 8.165124 31.187867 
L 8.093388 31.136775 
L 8.021653 31.104412 
L 7.949917 31.090413 
L 7.878182 31.094246 
L 7.806446 31.115227 
L 7.734711 31.152519 
L 7.662975 31.20514 
L 7.59124 31.271956 
L 7.519504 31.351681 
L 7.447769 31.442872 
L 7.376033 31.54393 
L 7.304298 31.653097 
L 7.232562 31.76847 
L 7.160826 31.88801 
L 7.089091 32.009564 
L 7.017355 32.130892 
L 6.94562 32.249708 
L 6.873884 32.363713 
L 6.802149 32.470654 
L 6.730413 32.568366 
L 6.658678 32.654832 
L 6.586942 32.728232 
L 6.515207 32.786996 
L 6.443471 32.829844 
L 6.371736 32.85583 
L 6.3 32.864361 
z
" clip-path="url(#p951a8fb2d2)" style="fill: #f0a394; fill-opacity: 0.5"/>
   </g>
   <g id="FillBetweenPolyCollection_4">
    <path d="M 24.054545 40.267133 
L 24.054545 39.742867 
L 24.233884 39.723146 
L 24.413223 39.701548 
L 24.592562 39.677586 
L 24.771901 39.650778 
L 24.95124 39.620694 
L 25.130579 39.586997 
L 25.309917 39.54948 
L 25.489256 39.508098 
L 25.668595 39.462985 
L 25.847934 39.414455 
L 26.027273 39.362984 
L 26.206612 39.30917 
L 26.38595 39.253674 
L 26.565289 39.19715 
L 26.744628 39.140157 
L 26.923967 39.083073 
L 27.103306 39.026019 
L 27.282645 38.96879 
L 27.461983 38.91082 
L 27.641322 38.851174 
L 27.820661 38.788584 
L 28 38.721522 
L 28.179339 38.648312 
L 28.358678 38.567276 
L 28.538017 38.476902 
L 28.717355 38.37602 
L 28.896694 38.26397 
L 29.076033 38.140742 
L 29.255372 38.007077 
L 29.434711 37.864504 
L 29.61405 37.715319 
L 29.793388 37.562482 
L 29.972727 37.409449 
L 30.152066 37.259942 
L 30.331405 37.117678 
L 30.510744 36.986072 
L 30.690083 36.867948 
L 30.869421 36.765283 
L 31.04876 36.679007 
L 31.228099 36.608894 
L 31.407438 36.553539 
L 31.586777 36.510455 
L 31.766116 36.476263 
L 31.945455 36.446985 
L 32.124793 36.418393 
L 32.304132 36.38641 
L 32.483471 36.347506 
L 32.66281 36.299073 
L 32.842149 36.239715 
L 33.021488 36.169461 
L 33.200826 36.08984 
L 33.380165 36.003839 
L 33.559504 35.915725 
L 33.738843 35.830752 
L 33.918182 35.75478 
L 34.097521 35.693828 
L 34.27686 35.653612 
L 34.456198 35.6391 
L 34.635537 35.65413 
L 34.814876 35.701112 
L 34.994215 35.78085 
L 35.173554 35.892493 
L 35.352893 36.033607 
L 35.532231 36.200376 
L 35.71157 36.387892 
L 35.890909 36.590515 
L 36.070248 36.80227 
L 36.249587 37.017242 
L 36.428926 37.229943 
L 36.608264 37.435609 
L 36.787603 37.630429 
L 36.966942 37.811675 
L 37.146281 37.977742 
L 37.32562 38.128096 
L 37.504959 38.26315 
L 37.684298 38.384085 
L 37.863636 38.492633 
L 38.042975 38.590851 
L 38.222314 38.680896 
L 38.401653 38.764835 
L 38.580992 38.844485 
L 38.760331 38.921304 
L 38.939669 38.996332 
L 39.119008 39.07017 
L 39.298347 39.143017 
L 39.477686 39.214722 
L 39.657025 39.284868 
L 39.836364 39.352868 
L 40.015702 39.418051 
L 40.195041 39.479758 
L 40.37438 39.537404 
L 40.553719 39.590537 
L 40.733058 39.638867 
L 40.912397 39.682281 
L 41.091736 39.720837 
L 41.271074 39.754744 
L 41.450413 39.784334 
L 41.629752 39.810024 
L 41.809091 39.832284 
L 41.809091 40.177716 
L 41.809091 40.177716 
L 41.629752 40.199976 
L 41.450413 40.225666 
L 41.271074 40.255256 
L 41.091736 40.289163 
L 40.912397 40.327719 
L 40.733058 40.371133 
L 40.553719 40.419463 
L 40.37438 40.472596 
L 40.195041 40.530242 
L 40.015702 40.591949 
L 39.836364 40.657132 
L 39.657025 40.725132 
L 39.477686 40.795278 
L 39.298347 40.866983 
L 39.119008 40.93983 
L 38.939669 41.013668 
L 38.760331 41.088696 
L 38.580992 41.165515 
L 38.401653 41.245165 
L 38.222314 41.329104 
L 38.042975 41.419149 
L 37.863636 41.517367 
L 37.684298 41.625915 
L 37.504959 41.74685 
L 37.32562 41.881904 
L 37.146281 42.032258 
L 36.966942 42.198325 
L 36.787603 42.379571 
L 36.608264 42.574391 
L 36.428926 42.780057 
L 36.249587 42.992758 
L 36.070248 43.20773 
L 35.890909 43.419485 
L 35.71157 43.622108 
L 35.532231 43.809624 
L 35.352893 43.976393 
L 35.173554 44.117507 
L 34.994215 44.22915 
L 34.814876 44.308888 
L 34.635537 44.35587 
L 34.456198 44.3709 
L 34.27686 44.356388 
L 34.097521 44.316172 
L 33.918182 44.25522 
L 33.738843 44.179248 
L 33.559504 44.094275 
L 33.380165 44.006161 
L 33.200826 43.92016 
L 33.021488 43.840539 
L 32.842149 43.770285 
L 32.66281 43.710927 
L 32.483471 43.662494 
L 32.304132 43.62359 
L 32.124793 43.591607 
L 31.945455 43.563015 
L 31.766116 43.533737 
L 31.586777 43.499545 
L 31.407438 43.456461 
L 31.228099 43.401106 
L 31.04876 43.330993 
L 30.869421 43.244717 
L 30.690083 43.142052 
L 30.510744 43.023928 
L 30.331405 42.892322 
L 30.152066 42.750058 
L 29.972727 42.600551 
L 29.793388 42.447518 
L 29.61405 42.294681 
L 29.434711 42.145496 
L 29.255372 42.002923 
L 29.076033 41.869258 
L 28.896694 41.74603 
L 28.717355 41.63398 
L 28.538017 41.533098 
L 28.358678 41.442724 
L 28.179339 41.361688 
L 28 41.288478 
L 27.820661 41.221416 
L 27.641322 41.158826 
L 27.461983 41.09918 
L 27.282645 41.04121 
L 27.103306 40.983981 
L 26.923967 40.926927 
L 26.744628 40.869843 
L 26.565289 40.81285 
L 26.38595 40.756326 
L 26.206612 40.70083 
L 26.027273 40.647016 
L 25.847934 40.595545 
L 25.668595 40.547015 
L 25.489256 40.501902 
L 25.309917 40.46052 
L 25.130579 40.423003 
L 24.95124 40.389306 
L 24.771901 40.359222 
L 24.592562 40.332414 
L 24.413223 40.308452 
L 24.233884 40.286854 
L 24.054545 40.267133 
z
" clip-path="url(#p951a8fb2d2)" style="fill: #126175; fill-opacity: 0.5"/>
   </g>
   <g id="matplotlib.axis_1">
    <g id="xtick_1">
     <g id="line2d_1">
      <defs>
       <path id="m5876d2b7fc" d="M 0 0 
L 0 1.7 
" style="stroke: #000000; stroke-width: 0.25"/>
      </defs>
      <g>
       <use xlink:href="#m5876d2b7fc" x="6.3" y="45.856" style="stroke: #000000; stroke-width: 0.25"/>
      </g>
     </g>
     <g id="text_1">
      <text style="font-size: 6px; font-family: 'Arial'; text-anchor: middle" x="6.3" y="53.350687" transform="rotate(-0 6.3 53.350687)">0</text>
     </g>
    </g>
    <g id="xtick_2">
     <g id="line2d_2">
      <g>
       <use xlink:href="#m5876d2b7fc" x="24.054545" y="45.856" style="stroke: #000000; stroke-width: 0.25"/>
      </g>
     </g>
     <g id="text_2">
      <text style="font-size: 6px; font-family: 'Arial'; text-anchor: middle" x="24.054545" y="53.350687" transform="rotate(-0 24.054545 53.350687)">5</text>
     </g>
    </g>
    <g id="xtick_3">
     <g id="line2d_3">
      <g>
       <use xlink:href="#m5876d2b7fc" x="41.809091" y="45.856" style="stroke: #000000; stroke-width: 0.25"/>
      </g>
     </g>
     <g id="text_3">
      <text style="font-size: 6px; font-family: 'Arial'; text-anchor: middle" x="41.809091" y="53.350687" transform="rotate(-0 41.809091 53.350687)">10</text>
     </g>
    </g>
    <g id="text_4">
     <text style="font-size: 8px; font-family: 'Arial'; text-anchor: middle" x="25.83" y="61.769437" transform="rotate(-0 25.83 61.769437)"># MNs active</text>
    </g>
   </g>
   <g id="matplotlib.axis_2">
    <g id="ytick_1">
     <g id="line2d_4">
      <defs>
       <path id="m3b136aec16" d="M 0 0 
L -1.7 0 
" style="stroke: #000000; stroke-width: 0.25"/>
      </defs>
      <g>
       <use xlink:href="#m3b136aec16" x="5.3" y="10.899" style="stroke: #000000; stroke-width: 0.25"/>
      </g>
     </g>
     <g id="text_5">
      <text style="font-size: 6px; font-family: 'Arial'; text-anchor: end" x="2.1" y="13.046344" transform="rotate(-0 2.1 13.046344)">none</text>
     </g>
    </g>
    <g id="ytick_2">
     <g id="line2d_5">
      <g>
       <use xlink:href="#m3b136aec16" x="5.3" y="20.601" style="stroke: #000000; stroke-width: 0.25"/>
      </g>
     </g>
     <g id="text_6">
      <text style="font-size: 6px; font-family: 'Arial'; text-anchor: end" x="2.1" y="22.748344" transform="rotate(-0 2.1 22.748344)">E1</text>
     </g>
    </g>
    <g id="ytick_3">
     <g id="line2d_6">
      <g>
       <use xlink:href="#m3b136aec16" x="5.3" y="30.303" style="stroke: #000000; stroke-width: 0.25"/>
      </g>
     </g>
     <g id="text_7">
      <text style="font-size: 6px; font-family: 'Arial'; text-anchor: end" x="2.1" y="32.450344" transform="rotate(-0 2.1 32.450344)">E2</text>
     </g>
    </g>
    <g id="ytick_4">
     <g id="line2d_7">
      <g>
       <use xlink:href="#m3b136aec16" x="5.3" y="40.005" style="stroke: #000000; stroke-width: 0.25"/>
      </g>
     </g>
     <g id="text_8">
      <text style="font-size: 6px; font-family: 'Arial'; text-anchor: end" x="2.1" y="42.152344" transform="rotate(-0 2.1 42.152344)">I1</text>
     </g>
    </g>
    <g id="text_9">
     <text style="font-size: 8px; font-family: 'Arial'; text-anchor: middle" x="-14.33625" y="25.452" transform="rotate(-90 -14.33625 25.452)">silenced neuron</text>
    </g>
   </g>
   <g id="patch_3">
    <path d="M 31.156364 9.9288 
L 31.156364 11.8692 
L 34.707273 11.8692 
L 34.707273 9.9288 
L 31.156364 9.9288 
z
" clip-path="url(#p951a8fb2d2)" style="fill: #306c53; stroke: #282828; stroke-width: 0.75; stroke-linejoin: miter"/>
   </g>
   <g id="line2d_8">
    <path d="M 31.156364 10.899 
L 27.605455 10.899 
" clip-path="url(#p951a8fb2d2)" style="fill: none; stroke: #282828; stroke-width: 0.75"/>
   </g>
   <g id="line2d_9">
    <path d="M 34.707273 10.899 
L 38.258182 10.899 
" clip-path="url(#p951a8fb2d2)" style="fill: none; stroke: #282828; stroke-width: 0.75"/>
   </g>
   <g id="line2d_10">
    <path d="M 27.605455 10.4139 
L 27.605455 11.3841 
" clip-path="url(#p951a8fb2d2)" style="fill: none; stroke: #282828; stroke-width: 0.75; stroke-linecap: square"/>
   </g>
   <g id="line2d_11">
    <path d="M 38.258182 10.4139 
L 38.258182 11.3841 
" clip-path="url(#p951a8fb2d2)" style="fill: none; stroke: #282828; stroke-width: 0.75; stroke-linecap: square"/>
   </g>
   <g id="patch_4">
    <path d="M 9.850909 19.6308 
L 9.850909 21.5712 
L 9.850909 21.5712 
L 9.850909 19.6308 
L 9.850909 19.6308 
z
" clip-path="url(#p951a8fb2d2)" style="fill: #c35843; stroke: #282828; stroke-width: 0.75; stroke-linejoin: miter"/>
   </g>
   <g id="line2d_12">
    <path d="M 9.850909 20.601 
L 9.850909 20.601 
" clip-path="url(#p951a8fb2d2)" style="fill: none; stroke: #282828; stroke-width: 0.75"/>
   </g>
   <g id="line2d_13">
    <path d="M 9.850909 20.601 
L 9.850909 20.601 
" clip-path="url(#p951a8fb2d2)" style="fill: none; stroke: #282828; stroke-width: 0.75"/>
   </g>
   <g id="line2d_14">
    <path d="M 9.850909 20.1159 
L 9.850909 21.0861 
" clip-path="url(#p951a8fb2d2)" style="fill: none; stroke: #282828; stroke-width: 0.75; stroke-linecap: square"/>
   </g>
   <g id="line2d_15">
    <path d="M 9.850909 20.1159 
L 9.850909 21.0861 
" clip-path="url(#p951a8fb2d2)" style="fill: none; stroke: #282828; stroke-width: 0.75; stroke-linecap: square"/>
   </g>
   <g id="patch_5">
    <path d="M 6.3 29.3328 
L 6.3 31.2732 
L 9.850909 31.2732 
L 9.850909 29.3328 
L 6.3 29.3328 
z
" clip-path="url(#p951a8fb2d2)" style="fill: #f0a394; stroke: #282828; stroke-width: 0.75; stroke-linejoin: miter"/>
   </g>
   <g id="line2d_16">
    <path d="M 6.3 30.303 
L 6.3 30.303 
" clip-path="url(#p951a8fb2d2)" style="fill: none; stroke: #282828; stroke-width: 0.75"/>
   </g>
   <g id="line2d_17">
    <path d="M 9.850909 30.303 
L 13.401818 30.303 
" clip-path="url(#p951a8fb2d2)" style="fill: none; stroke: #282828; stroke-width: 0.75"/>
   </g>
   <g id="line2d_18">
    <path d="M 6.3 29.8179 
L 6.3 30.7881 
" clip-path="url(#p951a8fb2d2)" style="fill: none; stroke: #282828; stroke-width: 0.75; stroke-linecap: square"/>
   </g>
   <g id="line2d_19">
    <path d="M 13.401818 29.8179 
L 13.401818 30.7881 
" clip-path="url(#p951a8fb2d2)" style="fill: none; stroke: #282828; stroke-width: 0.75; stroke-linecap: square"/>
   </g>
   <g id="patch_6">
    <path d="M 31.156364 39.0348 
L 31.156364 40.9752 
L 34.707273 40.9752 
L 34.707273 39.0348 
L 31.156364 39.0348 
z
" clip-path="url(#p951a8fb2d2)" style="fill: #126175; stroke: #282828; stroke-width: 0.75; stroke-linejoin: miter"/>
   </g>
   <g id="line2d_20">
    <path d="M 31.156364 40.005 
L 27.605455 40.005 
" clip-path="url(#p951a8fb2d2)" style="fill: none; stroke: #282828; stroke-width: 0.75"/>
   </g>
   <g id="line2d_21">
    <path d="M 34.707273 40.005 
L 38.258182 40.005 
" clip-path="url(#p951a8fb2d2)" style="fill: none; stroke: #282828; stroke-width: 0.75"/>
   </g>
   <g id="line2d_22">
    <path d="M 27.605455 39.5199 
L 27.605455 40.4901 
" clip-path="url(#p951a8fb2d2)" style="fill: none; stroke: #282828; stroke-width: 0.75; stroke-linecap: square"/>
   </g>
   <g id="line2d_23">
    <path d="M 38.258182 39.5199 
L 38.258182 40.4901 
" clip-path="url(#p951a8fb2d2)" style="fill: none; stroke: #282828; stroke-width: 0.75; stroke-linecap: square"/>
   </g>
   <g id="line2d_24">
    <path d="M 34.707273 9.9288 
L 34.707273 11.8692 
" clip-path="url(#p951a8fb2d2)" style="fill: none; stroke: #282828; stroke-width: 0.75"/>
   </g>
   <g id="line2d_25">
    <path d="M 9.850909 19.6308 
L 9.850909 21.5712 
" clip-path="url(#p951a8fb2d2)" style="fill: none; stroke: #282828; stroke-width: 0.75"/>
   </g>
   <g id="line2d_26">
    <path d="M 9.850909 29.3328 
L 9.850909 31.2732 
" clip-path="url(#p951a8fb2d2)" style="fill: none; stroke: #282828; stroke-width: 0.75"/>
   </g>
   <g id="line2d_27">
    <path d="M 34.707273 39.0348 
L 34.707273 40.9752 
" clip-path="url(#p951a8fb2d2)" style="fill: none; stroke: #282828; stroke-width: 0.75"/>
   </g>
   <g id="patch_7">
    <path d="M 5.3 44.856 
L 5.3 6.048 
" style="fill: none; stroke: #000000; stroke-width: 0.25; stroke-linejoin: miter; stroke-linecap: square"/>
   </g>
   <g id="patch_8">
    <path d="M 6.3 45.856 
L 45.36 45.856 
" style="fill: none; stroke: #000000; stroke-width: 0.25; stroke-linejoin: miter; stroke-linecap: square"/>
   </g>
  </g>
 </g>
 <defs>
  <clipPath id="p951a8fb2d2">
   <rect x="6.3" y="6.048" width="39.06" height="38.808"/>
  </clipPath>
 </defs>
</svg>
