<?xml version="1.0" encoding="utf-8" standalone="no"?>
<!DOCTYPE svg PUBLIC "-//W3C//DTD SVG 1.1//EN"
  "http://www.w3.org/Graphics/SVG/1.1/DTD/svg11.dtd">
<svg xmlns:xlink="http://www.w3.org/1999/xlink" width="50.4pt" height="64.8pt" viewBox="0 0 50.4 64.8" xmlns="http://www.w3.org/2000/svg" version="1.1">
 <metadata>
  <rdf:RDF xmlns:dc="http://purl.org/dc/elements/1.1/" xmlns:cc="http://creativecommons.org/ns#" xmlns:rdf="http://www.w3.org/1999/02/22-rdf-syntax-ns#">
   <cc:Work>
    <dc:type rdf:resource="http://purl.org/dc/dcmitype/StillImage"/>
    <dc:date>2025-09-09T01:05:21.273000</dc:date>
    <dc:format>image/svg+xml</dc:format>
    <dc:creator>
     <cc:Agent>
      <dc:title>Matplotlib v3.10.3, https://matplotlib.org/</dc:title>
     </cc:Agent>
    </dc:creator>
   </cc:Work>
  </rdf:RDF>
 </metadata>
 <defs>
  <style type="text/css">*{stroke-linejoin: round; stroke-linecap: butt}</style>
 </defs>
 <g id="figure_1">
  <g id="patch_1">
   <path d="M 0 64.8 
L 50.4 64.8 
L 50.4 0 
L 0 0 
L 0 64.8 
z
" style="fill: none"/>
  </g>
  <g id="axes_1">
   <g id="patch_2">
    <path d="M 6.3 57.672 
L 45.36 57.672 
L 45.36 7.776 
L 6.3 7.776 
L 6.3 57.672 
z
" style="fill: none"/>
   </g>
   <g id="FillBetweenPolyCollection_1">
    <path d="M 8.075455 12.792528 
L 8.075455 12.738672 
L 8.246253 12.739205 
L 8.417052 12.740739 
L 8.587851 12.743101 
L 8.75865 12.746036 
L 8.929449 12.749254 
L 9.100248 12.752477 
L 9.271047 12.755477 
L 9.441846 12.758097 
L 9.612645 12.760256 
L 9.783444 12.761943 
L 9.954242 12.763196 
L 10.125041 12.764081 
L 10.29584 12.764678 
L 10.466639 12.765062 
L 10.637438 12.765299 
L 10.808237 12.765438 
L 10.979036 12.765516 
L 11.149835 12.765558 
L 11.320634 12.76558 
L 11.491433 12.765591 
L 11.662231 12.765596 
L 11.83303 12.765598 
L 12.003829 12.765599 
L 12.174628 12.765599 
L 12.345427 12.765599 
L 12.516226 12.765597 
L 12.687025 12.765592 
L 12.857824 12.76558 
L 13.028623 12.765553 
L 13.199421 12.765496 
L 13.37022 12.765377 
L 13.541019 12.765143 
L 13.711818 12.764699 
L 13.882617 12.763893 
L 14.053416 12.76249 
L 14.224215 12.760155 
L 14.395014 12.756435 
L 14.565813 12.750766 
L 14.736612 12.742503 
L 14.90741 12.730986 
L 15.078209 12.715634 
L 15.249008 12.696042 
L 15.419807 12.672067 
L 15.590606 12.643832 
L 15.761405 12.611638 
L 15.932204 12.575755 
L 16.103003 12.536138 
L 16.273802 12.492139 
L 16.444601 12.442341 
L 16.615399 12.38462 
L 16.786198 12.316506 
L 16.956997 12.23578 
L 17.127796 12.141164 
L 17.298595 12.032828 
L 17.469394 11.912459 
L 17.640193 11.782728 
L 17.810992 11.64619 
L 17.981791 11.503948 
L 18.15259 11.354559 
L 18.323388 11.193738 
L 18.494187 11.01524 
L 18.664986 10.812881 
L 18.835785 10.583231 
L 19.006584 10.32808 
L 19.177383 10.055698 
L 19.348182 9.780135 
L 19.518981 9.518446 
L 19.68978 9.286464 
L 19.860579 9.094426 
L 20.031377 8.943987 
L 20.202176 8.827852 
L 20.372975 8.732459 
L 20.543774 8.643046 
L 20.714573 8.54954 
L 20.885372 8.451267 
L 21.056171 8.358771 
L 21.22697 8.291952 
L 21.397769 8.27496 
L 21.568567 8.329419 
L 21.739366 8.468107 
L 21.910165 8.691054 
L 22.080964 8.985199 
L 22.251763 9.327532 
L 22.422562 9.690586 
L 22.593361 10.048486 
L 22.76416 10.381806 
L 22.934959 10.680041 
L 23.105758 10.941409 
L 23.276556 11.170526 
L 23.447355 11.375045 
L 23.618154 11.562424 
L 23.788953 11.737703 
L 23.959752 11.90268 
L 24.130551 12.056332 
L 24.30135 12.196015 
L 24.472149 12.318875 
L 24.642948 12.422966 
L 24.813747 12.507845 
L 24.984545 12.574598 
L 24.984545 12.956602 
L 24.984545 12.956602 
L 24.813747 13.023355 
L 24.642948 13.108234 
L 24.472149 13.212325 
L 24.30135 13.335185 
L 24.130551 13.474868 
L 23.959752 13.62852 
L 23.788953 13.793497 
L 23.618154 13.968776 
L 23.447355 14.156155 
L 23.276556 14.360674 
L 23.105758 14.589791 
L 22.934959 14.851159 
L 22.76416 15.149394 
L 22.593361 15.482714 
L 22.422562 15.840614 
L 22.251763 16.203668 
L 22.080964 16.546001 
L 21.910165 16.840146 
L 21.739366 17.063093 
L 21.568567 17.201781 
L 21.397769 17.25624 
L 21.22697 17.239248 
L 21.056171 17.172429 
L 20.885372 17.079933 
L 20.714573 16.98166 
L 20.543774 16.888154 
L 20.372975 16.798741 
L 20.202176 16.703348 
L 20.031377 16.587213 
L 19.860579 16.436774 
L 19.68978 16.244736 
L 19.518981 16.012754 
L 19.348182 15.751065 
L 19.177383 15.475502 
L 19.006584 15.20312 
L 18.835785 14.947969 
L 18.664986 14.718319 
L 18.494187 14.51596 
L 18.323388 14.337462 
L 18.15259 14.176641 
L 17.981791 14.027252 
L 17.810992 13.88501 
L 17.640193 13.748472 
L 17.469394 13.618741 
L 17.298595 13.498372 
L 17.127796 13.390036 
L 16.956997 13.29542 
L 16.786198 13.214694 
L 16.615399 13.14658 
L 16.444601 13.088859 
L 16.273802 13.039061 
L 16.103003 12.995062 
L 15.932204 12.955445 
L 15.761405 12.919562 
L 15.590606 12.887368 
L 15.419807 12.859133 
L 15.249008 12.835158 
L 15.078209 12.815566 
L 14.90741 12.800214 
L 14.736612 12.788697 
L 14.565813 12.780434 
L 14.395014 12.774765 
L 14.224215 12.771045 
L 14.053416 12.76871 
L 13.882617 12.767307 
L 13.711818 12.766501 
L 13.541019 12.766057 
L 13.37022 12.765823 
L 13.199421 12.765704 
L 13.028623 12.765647 
L 12.857824 12.76562 
L 12.687025 12.765608 
L 12.516226 12.765603 
L 12.345427 12.765601 
L 12.174628 12.765601 
L 12.003829 12.765601 
L 11.83303 12.765602 
L 11.662231 12.765604 
L 11.491433 12.765609 
L 11.320634 12.76562 
L 11.149835 12.765642 
L 10.979036 12.765684 
L 10.808237 12.765762 
L 10.637438 12.765901 
L 10.466639 12.766138 
L 10.29584 12.766522 
L 10.125041 12.767119 
L 9.954242 12.768004 
L 9.783444 12.769257 
L 9.612645 12.770944 
L 9.441846 12.773103 
L 9.271047 12.775723 
L 9.100248 12.778723 
L 8.929449 12.781946 
L 8.75865 12.785164 
L 8.587851 12.788099 
L 8.417052 12.790461 
L 8.246253 12.791995 
L 8.075455 12.792528 
z
" clip-path="url(#pe96a5cb2e3)" style="fill: #306c53"/>
   </g>
   <g id="FillBetweenPolyCollection_2">
    <path d="M 8.075455 23.214125 
L 8.075455 22.275475 
L 8.109614 22.27876 
L 8.143774 22.288477 
L 8.177934 22.304226 
L 8.212094 22.325364 
L 8.246253 22.351058 
L 8.280413 22.380332 
L 8.314573 22.412133 
L 8.348733 22.445388 
L 8.382893 22.479068 
L 8.417052 22.512229 
L 8.451212 22.544058 
L 8.485372 22.57389 
L 8.519532 22.601222 
L 8.553691 22.625704 
L 8.587851 22.647126 
L 8.622011 22.665388 
L 8.656171 22.680467 
L 8.690331 22.692371 
L 8.72449 22.701096 
L 8.75865 22.706578 
L 8.79281 22.708641 
L 8.82697 22.706951 
L 8.861129 22.700964 
L 8.895289 22.689884 
L 8.929449 22.67262 
L 8.963609 22.647762 
L 8.997769 22.613564 
L 9.031928 22.567948 
L 9.066088 22.508542 
L 9.100248 22.432742 
L 9.134408 22.337821 
L 9.168567 22.221077 
L 9.202727 22.080021 
L 9.236887 21.912606 
L 9.271047 21.717475 
L 9.305207 21.494231 
L 9.339366 21.243679 
L 9.373526 20.968048 
L 9.407686 20.671134 
L 9.441846 20.358359 
L 9.476006 20.036717 
L 9.510165 19.714595 
L 9.544325 19.401456 
L 9.578485 19.107419 
L 9.612645 18.842728 
L 9.646804 18.617173 
L 9.680964 18.439491 
L 9.715124 18.316807 
L 9.749284 18.25416 
L 9.783444 18.25416 
L 9.817603 18.316807 
L 9.851763 18.439491 
L 9.885923 18.617173 
L 9.920083 18.842729 
L 9.954242 19.10742 
L 9.988402 19.401457 
L 10.022562 19.714596 
L 10.056722 20.03672 
L 10.090882 20.358363 
L 10.125041 20.671141 
L 10.159201 20.968061 
L 10.193361 21.243701 
L 10.227521 21.494267 
L 10.26168 21.717535 
L 10.29584 21.912702 
L 10.33 22.080176 
L 10.36416 22.221321 
L 10.39832 22.338201 
L 10.432479 22.433325 
L 10.466639 22.509424 
L 10.500799 22.569265 
L 10.534959 22.615502 
L 10.569118 22.650574 
L 10.603278 22.676643 
L 10.637438 22.69556 
L 10.671598 22.708861 
L 10.705758 22.717784 
L 10.739917 22.723294 
L 10.774077 22.726121 
L 10.808237 22.726798 
L 10.842397 22.725702 
L 10.876556 22.723088 
L 10.910716 22.719128 
L 10.944876 22.713939 
L 10.979036 22.707613 
L 11.013196 22.700236 
L 11.047355 22.691913 
L 11.081515 22.682775 
L 11.115675 22.672995 
L 11.149835 22.662788 
L 11.183994 22.652411 
L 11.218154 22.642159 
L 11.252314 22.632352 
L 11.286474 22.623323 
L 11.320634 22.615398 
L 11.354793 22.608877 
L 11.388953 22.604019 
L 11.423113 22.601021 
L 11.457273 22.600008 
L 11.457273 22.889592 
L 11.457273 22.889592 
L 11.423113 22.888579 
L 11.388953 22.885581 
L 11.354793 22.880723 
L 11.320634 22.874202 
L 11.286474 22.866277 
L 11.252314 22.857248 
L 11.218154 22.847441 
L 11.183994 22.837189 
L 11.149835 22.826812 
L 11.115675 22.816605 
L 11.081515 22.806825 
L 11.047355 22.797687 
L 11.013196 22.789364 
L 10.979036 22.781987 
L 10.944876 22.775661 
L 10.910716 22.770472 
L 10.876556 22.766512 
L 10.842397 22.763898 
L 10.808237 22.762802 
L 10.774077 22.763479 
L 10.739917 22.766306 
L 10.705758 22.771816 
L 10.671598 22.780739 
L 10.637438 22.79404 
L 10.603278 22.812957 
L 10.569118 22.839026 
L 10.534959 22.874098 
L 10.500799 22.920335 
L 10.466639 22.980176 
L 10.432479 23.056275 
L 10.39832 23.151399 
L 10.36416 23.268279 
L 10.33 23.409424 
L 10.29584 23.576898 
L 10.26168 23.772065 
L 10.227521 23.995333 
L 10.193361 24.245899 
L 10.159201 24.521539 
L 10.125041 24.818459 
L 10.090882 25.131237 
L 10.056722 25.45288 
L 10.022562 25.775004 
L 9.988402 26.088143 
L 9.954242 26.38218 
L 9.920083 26.646871 
L 9.885923 26.872427 
L 9.851763 27.050109 
L 9.817603 27.172793 
L 9.783444 27.23544 
L 9.749284 27.23544 
L 9.715124 27.172793 
L 9.680964 27.050109 
L 9.646804 26.872427 
L 9.612645 26.646872 
L 9.578485 26.382181 
L 9.544325 26.088144 
L 9.510165 25.775005 
L 9.476006 25.452883 
L 9.441846 25.131241 
L 9.407686 24.818466 
L 9.373526 24.521552 
L 9.339366 24.245921 
L 9.305207 23.995369 
L 9.271047 23.772125 
L 9.236887 23.576994 
L 9.202727 23.409579 
L 9.168567 23.268523 
L 9.134408 23.151779 
L 9.100248 23.056858 
L 9.066088 22.981058 
L 9.031928 22.921652 
L 8.997769 22.876036 
L 8.963609 22.841838 
L 8.929449 22.81698 
L 8.895289 22.799716 
L 8.861129 22.788636 
L 8.82697 22.782649 
L 8.79281 22.780959 
L 8.75865 22.783022 
L 8.72449 22.788504 
L 8.690331 22.797229 
L 8.656171 22.809133 
L 8.622011 22.824212 
L 8.587851 22.842474 
L 8.553691 22.863896 
L 8.519532 22.888378 
L 8.485372 22.91571 
L 8.451212 22.945542 
L 8.417052 22.977371 
L 8.382893 23.010532 
L 8.348733 23.044212 
L 8.314573 23.077467 
L 8.280413 23.109268 
L 8.246253 23.138542 
L 8.212094 23.164236 
L 8.177934 23.185374 
L 8.143774 23.201123 
L 8.109614 23.21084 
L 8.075455 23.214125 
z
" clip-path="url(#pe96a5cb2e3)" style="fill: #c35843"/>
   </g>
   <g id="FillBetweenPolyCollection_3">
    <path d="M 8.075455 35.391852 
L 8.075455 30.056148 
L 8.109614 30.064999 
L 8.143774 30.091972 
L 8.177934 30.136452 
L 8.212094 30.197458 
L 8.246253 30.273666 
L 8.280413 30.36345 
L 8.314573 30.464925 
L 8.348733 30.576001 
L 8.382893 30.694436 
L 8.417052 30.817893 
L 8.451212 30.943991 
L 8.485372 31.070358 
L 8.519532 31.194671 
L 8.553691 31.314697 
L 8.587851 31.42832 
L 8.622011 31.533565 
L 8.656171 31.62861 
L 8.690331 31.711795 
L 8.72449 31.781625 
L 8.75865 31.836769 
L 8.79281 31.876054 
L 8.82697 31.898468 
L 8.861129 31.903151 
L 8.895289 31.889401 
L 8.929449 31.856678 
L 8.963609 31.804615 
L 8.997769 31.733034 
L 9.031928 31.641964 
L 9.066088 31.53167 
L 9.100248 31.402674 
L 9.134408 31.255788 
L 9.168567 31.092134 
L 9.202727 30.913173 
L 9.236887 30.72071 
L 9.271047 30.516909 
L 9.305207 30.304281 
L 9.339366 30.085668 
L 9.373526 29.86421 
L 9.407686 29.643294 
L 9.441846 29.426496 
L 9.476006 29.217503 
L 9.510165 29.02003 
L 9.544325 28.83772 
L 9.578485 28.674053 
L 9.612645 28.532241 
L 9.646804 28.415133 
L 9.680964 28.32513 
L 9.715124 28.264109 
L 9.749284 28.23336 
L 9.783444 28.233548 
L 9.817603 28.264692 
L 9.851763 28.326164 
L 9.885923 28.416715 
L 9.920083 28.534517 
L 9.954242 28.677226 
L 9.988402 28.842059 
L 10.022562 29.025888 
L 10.056722 29.225337 
L 10.090882 29.436883 
L 10.125041 29.656961 
L 10.159201 29.882063 
L 10.193361 30.108824 
L 10.227521 30.334104 
L 10.26168 30.555052 
L 10.29584 30.769157 
L 10.33 30.97428 
L 10.36416 31.168678 
L 10.39832 31.351005 
L 10.432479 31.520302 
L 10.466639 31.67598 
L 10.500799 31.817787 
L 10.534959 31.94577 
L 10.569118 32.060237 
L 10.603278 32.161709 
L 10.637438 32.250879 
L 10.671598 32.328562 
L 10.705758 32.395663 
L 10.739917 32.453133 
L 10.774077 32.50194 
L 10.808237 32.543042 
L 10.842397 32.577364 
L 10.876556 32.605782 
L 10.910716 32.629112 
L 10.944876 32.648098 
L 10.979036 32.663415 
L 11.013196 32.67566 
L 11.047355 32.685359 
L 11.081515 32.692969 
L 11.115675 32.698881 
L 11.149835 32.703427 
L 11.183994 32.706887 
L 11.218154 32.709493 
L 11.252314 32.711437 
L 11.286474 32.712875 
L 11.320634 32.713932 
L 11.354793 32.71471 
L 11.388953 32.715288 
L 11.423113 32.715728 
L 11.457273 32.716077 
L 11.457273 32.731923 
L 11.457273 32.731923 
L 11.423113 32.732272 
L 11.388953 32.732712 
L 11.354793 32.73329 
L 11.320634 32.734068 
L 11.286474 32.735125 
L 11.252314 32.736563 
L 11.218154 32.738507 
L 11.183994 32.741113 
L 11.149835 32.744573 
L 11.115675 32.749119 
L 11.081515 32.755031 
L 11.047355 32.762641 
L 11.013196 32.77234 
L 10.979036 32.784585 
L 10.944876 32.799902 
L 10.910716 32.818888 
L 10.876556 32.842218 
L 10.842397 32.870636 
L 10.808237 32.904958 
L 10.774077 32.94606 
L 10.739917 32.994867 
L 10.705758 33.052337 
L 10.671598 33.119438 
L 10.637438 33.197121 
L 10.603278 33.286291 
L 10.569118 33.387763 
L 10.534959 33.50223 
L 10.500799 33.630213 
L 10.466639 33.77202 
L 10.432479 33.927698 
L 10.39832 34.096995 
L 10.36416 34.279322 
L 10.33 34.47372 
L 10.29584 34.678843 
L 10.26168 34.892948 
L 10.227521 35.113896 
L 10.193361 35.339176 
L 10.159201 35.565937 
L 10.125041 35.791039 
L 10.090882 36.011117 
L 10.056722 36.222663 
L 10.022562 36.422112 
L 9.988402 36.605941 
L 9.954242 36.770774 
L 9.920083 36.913483 
L 9.885923 37.031285 
L 9.851763 37.121836 
L 9.817603 37.183308 
L 9.783444 37.214452 
L 9.749284 37.21464 
L 9.715124 37.183891 
L 9.680964 37.12287 
L 9.646804 37.032867 
L 9.612645 36.915759 
L 9.578485 36.773947 
L 9.544325 36.61028 
L 9.510165 36.42797 
L 9.476006 36.230497 
L 9.441846 36.021504 
L 9.407686 35.804706 
L 9.373526 35.58379 
L 9.339366 35.362332 
L 9.305207 35.143719 
L 9.271047 34.931091 
L 9.236887 34.72729 
L 9.202727 34.534827 
L 9.168567 34.355866 
L 9.134408 34.192212 
L 9.100248 34.045326 
L 9.066088 33.91633 
L 9.031928 33.806036 
L 8.997769 33.714966 
L 8.963609 33.643385 
L 8.929449 33.591322 
L 8.895289 33.558599 
L 8.861129 33.544849 
L 8.82697 33.549532 
L 8.79281 33.571946 
L 8.75865 33.611231 
L 8.72449 33.666375 
L 8.690331 33.736205 
L 8.656171 33.81939 
L 8.622011 33.914435 
L 8.587851 34.01968 
L 8.553691 34.133303 
L 8.519532 34.253329 
L 8.485372 34.377642 
L 8.451212 34.504009 
L 8.417052 34.630107 
L 8.382893 34.753564 
L 8.348733 34.871999 
L 8.314573 34.983075 
L 8.280413 35.08455 
L 8.246253 35.174334 
L 8.212094 35.250542 
L 8.177934 35.311548 
L 8.143774 35.356028 
L 8.109614 35.383001 
L 8.075455 35.391852 
z
" clip-path="url(#pe96a5cb2e3)" style="fill: #f0a394"/>
   </g>
   <g id="FillBetweenPolyCollection_4">
    <path d="M 21.602727 44.95201 
L 21.602727 40.45439 
L 21.824766 40.250572 
L 22.046804 40.045376 
L 22.268843 39.841129 
L 22.490882 39.640241 
L 22.71292 39.44514 
L 22.934959 39.258208 
L 23.156997 39.081718 
L 23.379036 38.917769 
L 23.601074 38.768235 
L 23.823113 38.634714 
L 24.045152 38.518489 
L 24.26719 38.420506 
L 24.489229 38.341353 
L 24.711267 38.281261 
L 24.933306 38.240112 
L 25.155344 38.21746 
L 25.377383 38.21256 
L 25.599421 38.224404 
L 25.82146 38.251766 
L 26.043499 38.29325 
L 26.265537 38.347332 
L 26.487576 38.412414 
L 26.709614 38.486866 
L 26.931653 38.569066 
L 27.153691 38.657438 
L 27.37573 38.750484 
L 27.597769 38.846803 
L 27.819807 38.945113 
L 28.041846 39.044263 
L 28.263884 39.143238 
L 28.485923 39.241163 
L 28.707961 39.337299 
L 28.93 39.431038 
L 29.152039 39.521898 
L 29.374077 39.60951 
L 29.596116 39.693611 
L 29.818154 39.774033 
L 30.040193 39.850692 
L 30.262231 39.92358 
L 30.48427 39.992753 
L 30.706309 40.058325 
L 30.928347 40.120457 
L 31.150386 40.179354 
L 31.372424 40.235252 
L 31.594463 40.288419 
L 31.816501 40.339143 
L 32.03854 40.387728 
L 32.260579 40.434488 
L 32.482617 40.479744 
L 32.704656 40.523817 
L 32.926694 40.56702 
L 33.148733 40.609657 
L 33.370771 40.652018 
L 33.59281 40.694373 
L 33.814848 40.736969 
L 34.036887 40.780025 
L 34.258926 40.82373 
L 34.480964 40.868244 
L 34.703003 40.913688 
L 34.925041 40.960153 
L 35.14708 41.00769 
L 35.369118 41.056319 
L 35.591157 41.106022 
L 35.813196 41.156751 
L 36.035234 41.208427 
L 36.257273 41.260943 
L 36.479311 41.314167 
L 36.70135 41.367948 
L 36.923388 41.422116 
L 37.145427 41.476489 
L 37.367466 41.530876 
L 37.589504 41.58508 
L 37.811543 41.638905 
L 38.033581 41.692156 
L 38.25562 41.744648 
L 38.477658 41.796202 
L 38.699697 41.846655 
L 38.921736 41.895858 
L 39.143774 41.943681 
L 39.365813 41.990012 
L 39.587851 42.034758 
L 39.80989 42.077847 
L 40.031928 42.119229 
L 40.253967 42.158869 
L 40.476006 42.196754 
L 40.698044 42.232883 
L 40.920083 42.267273 
L 41.142121 42.299949 
L 41.36416 42.330948 
L 41.586198 42.360311 
L 41.808237 42.388085 
L 42.030275 42.414318 
L 42.252314 42.439061 
L 42.474353 42.46236 
L 42.696391 42.484262 
L 42.91843 42.50481 
L 43.140468 42.524045 
L 43.362507 42.542006 
L 43.584545 42.558728 
L 43.584545 42.847672 
L 43.584545 42.847672 
L 43.362507 42.864394 
L 43.140468 42.882355 
L 42.91843 42.90159 
L 42.696391 42.922138 
L 42.474353 42.94404 
L 42.252314 42.967339 
L 42.030275 42.992082 
L 41.808237 43.018315 
L 41.586198 43.046089 
L 41.36416 43.075452 
L 41.142121 43.106451 
L 40.920083 43.139127 
L 40.698044 43.173517 
L 40.476006 43.209646 
L 40.253967 43.247531 
L 40.031928 43.287171 
L 39.80989 43.328553 
L 39.587851 43.371642 
L 39.365813 43.416388 
L 39.143774 43.462719 
L 38.921736 43.510542 
L 38.699697 43.559745 
L 38.477658 43.610198 
L 38.25562 43.661752 
L 38.033581 43.714244 
L 37.811543 43.767495 
L 37.589504 43.82132 
L 37.367466 43.875524 
L 37.145427 43.929911 
L 36.923388 43.984284 
L 36.70135 44.038452 
L 36.479311 44.092233 
L 36.257273 44.145457 
L 36.035234 44.197973 
L 35.813196 44.249649 
L 35.591157 44.300378 
L 35.369118 44.350081 
L 35.14708 44.39871 
L 34.925041 44.446247 
L 34.703003 44.492712 
L 34.480964 44.538156 
L 34.258926 44.58267 
L 34.036887 44.626375 
L 33.814848 44.669431 
L 33.59281 44.712027 
L 33.370771 44.754382 
L 33.148733 44.796743 
L 32.926694 44.83938 
L 32.704656 44.882583 
L 32.482617 44.926656 
L 32.260579 44.971912 
L 32.03854 45.018672 
L 31.816501 45.067257 
L 31.594463 45.117981 
L 31.372424 45.171148 
L 31.150386 45.227046 
L 30.928347 45.285943 
L 30.706309 45.348075 
L 30.48427 45.413647 
L 30.262231 45.48282 
L 30.040193 45.555708 
L 29.818154 45.632367 
L 29.596116 45.712789 
L 29.374077 45.79689 
L 29.152039 45.884502 
L 28.93 45.975362 
L 28.707961 46.069101 
L 28.485923 46.165237 
L 28.263884 46.263162 
L 28.041846 46.362137 
L 27.819807 46.461287 
L 27.597769 46.559597 
L 27.37573 46.655916 
L 27.153691 46.748962 
L 26.931653 46.837334 
L 26.709614 46.919534 
L 26.487576 46.993986 
L 26.265537 47.059068 
L 26.043499 47.11315 
L 25.82146 47.154634 
L 25.599421 47.181996 
L 25.377383 47.19384 
L 25.155344 47.18894 
L 24.933306 47.166288 
L 24.711267 47.125139 
L 24.489229 47.065047 
L 24.26719 46.985894 
L 24.045152 46.887911 
L 23.823113 46.771686 
L 23.601074 46.638165 
L 23.379036 46.488631 
L 23.156997 46.324682 
L 22.934959 46.148192 
L 22.71292 45.96126 
L 22.490882 45.766159 
L 22.268843 45.565271 
L 22.046804 45.361024 
L 21.824766 45.155828 
L 21.602727 44.95201 
z
" clip-path="url(#pe96a5cb2e3)" style="fill: #126175"/>
   </g>
   <g id="FillBetweenPolyCollection_5">
    <path d="M 9.766364 52.964921 
L 9.766364 52.399879 
L 9.868843 52.356822 
L 9.971322 52.309201 
L 10.073802 52.256834 
L 10.176281 52.199562 
L 10.27876 52.137241 
L 10.38124 52.06975 
L 10.483719 51.996978 
L 10.586198 51.91883 
L 10.688678 51.835221 
L 10.791157 51.746082 
L 10.893636 51.651357 
L 10.996116 51.551014 
L 11.098595 51.445056 
L 11.201074 51.333526 
L 11.303554 51.216533 
L 11.406033 51.094261 
L 11.508512 50.96699 
L 11.610992 50.835116 
L 11.713471 50.699162 
L 11.81595 50.559788 
L 11.91843 50.417798 
L 12.020909 50.274138 
L 12.123388 50.129878 
L 12.225868 49.9862 
L 12.328347 49.844362 
L 12.430826 49.705664 
L 12.533306 49.571407 
L 12.635785 49.442847 
L 12.738264 49.321145 
L 12.840744 49.207328 
L 12.943223 49.102247 
L 13.045702 49.006545 
L 13.148182 48.92064 
L 13.250661 48.844709 
L 13.35314 48.778695 
L 13.45562 48.722315 
L 13.558099 48.675088 
L 13.660579 48.636362 
L 13.763058 48.60535 
L 13.865537 48.581175 
L 13.968017 48.5629 
L 14.070496 48.549571 
L 14.172975 48.54025 
L 14.275455 48.534033 
L 14.377934 48.530081 
L 14.480413 48.527622 
L 14.582893 48.525966 
L 14.685372 48.524503 
L 14.787851 48.522706 
L 14.890331 48.520124 
L 14.99281 48.51638 
L 15.095289 48.511171 
L 15.197769 48.50426 
L 15.300248 48.495478 
L 15.402727 48.484726 
L 15.505207 48.47197 
L 15.607686 48.457243 
L 15.710165 48.440645 
L 15.812645 48.422338 
L 15.915124 48.402546 
L 16.017603 48.381542 
L 16.120083 48.359654 
L 16.222562 48.337246 
L 16.325041 48.314724 
L 16.427521 48.292528 
L 16.53 48.271132 
L 16.632479 48.251048 
L 16.734959 48.232835 
L 16.837438 48.217097 
L 16.939917 48.204504 
L 17.042397 48.19579 
L 17.144876 48.19176 
L 17.247355 48.193292 
L 17.349835 48.201328 
L 17.452314 48.216856 
L 17.554793 48.240891 
L 17.657273 48.274436 
L 17.759752 48.31845 
L 17.862231 48.373793 
L 17.964711 48.441188 
L 18.06719 48.521166 
L 18.169669 48.614027 
L 18.272149 48.719806 
L 18.374628 48.838244 
L 18.477107 48.968781 
L 18.579587 49.110558 
L 18.682066 49.26243 
L 18.784545 49.423006 
L 18.887025 49.590684 
L 18.989504 49.763712 
L 19.091983 49.940242 
L 19.194463 50.118396 
L 19.296942 50.296325 
L 19.399421 50.47227 
L 19.501901 50.644606 
L 19.60438 50.811888 
L 19.70686 50.972878 
L 19.809339 51.126564 
L 19.911818 51.272165 
L 19.911818 54.092635 
L 19.911818 54.092635 
L 19.809339 54.238236 
L 19.70686 54.391922 
L 19.60438 54.552912 
L 19.501901 54.720194 
L 19.399421 54.89253 
L 19.296942 55.068475 
L 19.194463 55.246404 
L 19.091983 55.424558 
L 18.989504 55.601088 
L 18.887025 55.774116 
L 18.784545 55.941794 
L 18.682066 56.10237 
L 18.579587 56.254242 
L 18.477107 56.396019 
L 18.374628 56.526556 
L 18.272149 56.644994 
L 18.169669 56.750773 
L 18.06719 56.843634 
L 17.964711 56.923612 
L 17.862231 56.991007 
L 17.759752 57.04635 
L 17.657273 57.090364 
L 17.554793 57.123909 
L 17.452314 57.147944 
L 17.349835 57.163472 
L 17.247355 57.171508 
L 17.144876 57.17304 
L 17.042397 57.16901 
L 16.939917 57.160296 
L 16.837438 57.147703 
L 16.734959 57.131965 
L 16.632479 57.113752 
L 16.53 57.093668 
L 16.427521 57.072272 
L 16.325041 57.050076 
L 16.222562 57.027554 
L 16.120083 57.005146 
L 16.017603 56.983258 
L 15.915124 56.962254 
L 15.812645 56.942462 
L 15.710165 56.924155 
L 15.607686 56.907557 
L 15.505207 56.89283 
L 15.402727 56.880074 
L 15.300248 56.869322 
L 15.197769 56.86054 
L 15.095289 56.853629 
L 14.99281 56.84842 
L 14.890331 56.844676 
L 14.787851 56.842094 
L 14.685372 56.840297 
L 14.582893 56.838834 
L 14.480413 56.837178 
L 14.377934 56.834719 
L 14.275455 56.830767 
L 14.172975 56.82455 
L 14.070496 56.815229 
L 13.968017 56.8019 
L 13.865537 56.783625 
L 13.763058 56.75945 
L 13.660579 56.728438 
L 13.558099 56.689712 
L 13.45562 56.642485 
L 13.35314 56.586105 
L 13.250661 56.520091 
L 13.148182 56.44416 
L 13.045702 56.358255 
L 12.943223 56.262553 
L 12.840744 56.157472 
L 12.738264 56.043655 
L 12.635785 55.921953 
L 12.533306 55.793393 
L 12.430826 55.659136 
L 12.328347 55.520438 
L 12.225868 55.3786 
L 12.123388 55.234922 
L 12.020909 55.090662 
L 11.91843 54.947002 
L 11.81595 54.805012 
L 11.713471 54.665638 
L 11.610992 54.529684 
L 11.508512 54.39781 
L 11.406033 54.270539 
L 11.303554 54.148267 
L 11.201074 54.031274 
L 11.098595 53.919744 
L 10.996116 53.813786 
L 10.893636 53.713443 
L 10.791157 53.618718 
L 10.688678 53.529579 
L 10.586198 53.44597 
L 10.483719 53.367822 
L 10.38124 53.29505 
L 10.27876 53.227559 
L 10.176281 53.165238 
L 10.073802 53.107966 
L 9.971322 53.055599 
L 9.868843 53.007978 
L 9.766364 52.964921 
z
" clip-path="url(#pe96a5cb2e3)" style="fill: #cccccc"/>
   </g>
   <g id="matplotlib.axis_1">
    <g id="xtick_1">
     <g id="line2d_1">
      <defs>
       <path id="ma9f2ecb3eb" d="M 0 0 
L 0 1.7 
" style="stroke: #000000; stroke-width: 0.25"/>
      </defs>
      <g>
       <use xlink:href="#ma9f2ecb3eb" x="8.075455" y="58.672" style="stroke: #000000; stroke-width: 0.25"/>
      </g>
     </g>
     <g id="text_1">
      <text style="font-size: 6px; font-family: 'Arial'; text-anchor: middle" x="8.075455" y="66.166687" transform="rotate(-0 8.075455 66.166687)">0</text>
     </g>
    </g>
    <g id="xtick_2">
     <g id="line2d_2">
      <g>
       <use xlink:href="#ma9f2ecb3eb" x="41.893636" y="58.672" style="stroke: #000000; stroke-width: 0.25"/>
      </g>
     </g>
     <g id="text_2">
      <text style="font-size: 6px; font-family: 'Arial'; text-anchor: middle" x="41.893636" y="66.166687" transform="rotate(-0 41.893636 66.166687)">20</text>
     </g>
    </g>
    <g id="text_3">
     <text style="font-size: 8px; font-family: 'Arial'; text-anchor: middle" x="25.83" y="74.585437" transform="rotate(-0 25.83 74.585437)"># MNs active</text>
    </g>
   </g>
   <g id="matplotlib.axis_2">
    <g id="ytick_1">
     <g id="line2d_3">
      <defs>
       <path id="me4d7032987" d="M 0 0 
L -1.7 0 
" style="stroke: #000000; stroke-width: 0.25"/>
      </defs>
      <g>
       <use xlink:href="#me4d7032987" x="4.3" y="12.7656" style="stroke: #000000; stroke-width: 0.25"/>
      </g>
     </g>
     <g id="text_4">
      <text style="font-size: 6px; font-family: 'Arial'; text-anchor: end" x="1.1" y="14.912944" transform="rotate(-0 1.1 14.912944)">none</text>
     </g>
    </g>
    <g id="ytick_2">
     <g id="line2d_4">
      <g>
       <use xlink:href="#me4d7032987" x="4.3" y="22.7448" style="stroke: #000000; stroke-width: 0.25"/>
      </g>
     </g>
     <g id="text_5">
      <text style="font-size: 6px; font-family: 'Arial'; text-anchor: end" x="1.1" y="24.892144" transform="rotate(-0 1.1 24.892144)">E1</text>
     </g>
    </g>
    <g id="ytick_3">
     <g id="line2d_5">
      <g>
       <use xlink:href="#me4d7032987" x="4.3" y="32.724" style="stroke: #000000; stroke-width: 0.25"/>
      </g>
     </g>
     <g id="text_6">
      <text style="font-size: 6px; font-family: 'Arial'; text-anchor: end" x="1.1" y="34.871344" transform="rotate(-0 1.1 34.871344)">E2</text>
     </g>
    </g>
    <g id="ytick_4">
     <g id="line2d_6">
      <g>
       <use xlink:href="#me4d7032987" x="4.3" y="42.7032" style="stroke: #000000; stroke-width: 0.25"/>
      </g>
     </g>
     <g id="text_7">
      <text style="font-size: 6px; font-family: 'Arial'; text-anchor: end" x="1.1" y="44.850544" transform="rotate(-0 1.1 44.850544)">I2</text>
     </g>
    </g>
    <g id="ytick_5">
     <g id="line2d_7">
      <g>
       <use xlink:href="#me4d7032987" x="4.3" y="52.6824" style="stroke: #000000; stroke-width: 0.25"/>
      </g>
     </g>
     <g id="text_8">
      <text style="font-size: 6px; font-family: 'Arial'; text-anchor: end" x="1.1" y="54.829744" transform="rotate(-0 1.1 54.829744)">19B</text>
     </g>
    </g>
    <g id="text_9">
     <text style="font-size: 8px; font-family: 'Arial'; text-anchor: middle" x="-15.33625" y="32.724" transform="rotate(-90 -15.33625 32.724)">silenced neuron</text>
    </g>
   </g>
   <g id="patch_3">
    <path d="M 4.3 57.672 
L 4.3 7.776 
" style="fill: none; stroke: #000000; stroke-width: 0.25; stroke-linejoin: miter; stroke-linecap: square"/>
   </g>
   <g id="patch_4">
    <path d="M 6.3 58.672 
L 45.36 58.672 
" style="fill: none; stroke: #000000; stroke-width: 0.25; stroke-linejoin: miter; stroke-linecap: square"/>
   </g>
  </g>
 </g>
 <defs>
  <clipPath id="pe96a5cb2e3">
   <rect x="6.3" y="7.776" width="39.06" height="49.896"/>
  </clipPath>
 </defs>
</svg>
