<?xml version="1.0" encoding="utf-8" standalone="no"?>
<!DOCTYPE svg PUBLIC "-//W3C//DTD SVG 1.1//EN"
  "http://www.w3.org/Graphics/SVG/1.1/DTD/svg11.dtd">
<svg xmlns:xlink="http://www.w3.org/1999/xlink" width="43.2pt" height="54pt" viewBox="0 0 43.2 54" xmlns="http://www.w3.org/2000/svg" version="1.1">
 <metadata>
  <rdf:RDF xmlns:dc="http://purl.org/dc/elements/1.1/" xmlns:cc="http://creativecommons.org/ns#" xmlns:rdf="http://www.w3.org/1999/02/22-rdf-syntax-ns#">
   <cc:Work>
    <dc:type rdf:resource="http://purl.org/dc/dcmitype/StillImage"/>
    <dc:date>2025-09-09T20:20:36.881588</dc:date>
    <dc:format>image/svg+xml</dc:format>
    <dc:creator>
     <cc:Agent>
      <dc:title>Matplotlib v3.10.3, https://matplotlib.org/</dc:title>
     </cc:Agent>
    </dc:creator>
   </cc:Work>
  </rdf:RDF>
 </metadata>
 <defs>
  <style type="text/css">*{stroke-linejoin: round; stroke-linecap: butt}</style>
 </defs>
 <g id="figure_1">
  <g id="patch_1">
   <path d="M 0 54 
L 43.2 54 
L 43.2 0 
L 0 0 
L 0 54 
z
" style="fill: none; opacity: 0"/>
  </g>
  <g id="axes_1">
   <g id="patch_2">
    <path d="M 5.4 14.476154 
L 38.88 14.476154 
L 38.88 6.48 
L 5.4 6.48 
L 5.4 14.476154 
z
" style="fill: none; opacity: 0"/>
   </g>
   <g id="patch_3">
    <path d="M 5.4 14.476154 
L 8.443636 14.476154 
L 8.443636 14.453843 
L 5.4 14.453843 
z
" clip-path="url(#pc6079eaf26)" style="fill: #267655; fill-opacity: 0.75"/>
   </g>
   <g id="patch_4">
    <path d="M 8.443636 14.476154 
L 11.487273 14.476154 
L 11.487273 14.476154 
L 8.443636 14.476154 
z
" clip-path="url(#pc6079eaf26)" style="fill: #267655; fill-opacity: 0.75"/>
   </g>
   <g id="patch_5">
    <path d="M 11.487273 14.476154 
L 14.530909 14.476154 
L 14.530909 14.476154 
L 11.487273 14.476154 
z
" clip-path="url(#pc6079eaf26)" style="fill: #267655; fill-opacity: 0.75"/>
   </g>
   <g id="patch_6">
    <path d="M 14.530909 14.476154 
L 17.574545 14.476154 
L 17.574545 14.476154 
L 14.530909 14.476154 
z
" clip-path="url(#pc6079eaf26)" style="fill: #267655; fill-opacity: 0.75"/>
   </g>
   <g id="patch_7">
    <path d="M 17.574545 14.476154 
L 20.618182 14.476154 
L 20.618182 14.468717 
L 17.574545 14.468717 
z
" clip-path="url(#pc6079eaf26)" style="fill: #267655; fill-opacity: 0.75"/>
   </g>
   <g id="patch_8">
    <path d="M 20.618182 14.476154 
L 23.661818 14.476154 
L 23.661818 14.476154 
L 20.618182 14.476154 
z
" clip-path="url(#pc6079eaf26)" style="fill: #267655; fill-opacity: 0.75"/>
   </g>
   <g id="patch_9">
    <path d="M 23.661818 14.476154 
L 26.705455 14.476154 
L 26.705455 14.476154 
L 23.661818 14.476154 
z
" clip-path="url(#pc6079eaf26)" style="fill: #267655; fill-opacity: 0.75"/>
   </g>
   <g id="patch_10">
    <path d="M 26.705455 14.476154 
L 29.749091 14.476154 
L 29.749091 14.446406 
L 26.705455 14.446406 
z
" clip-path="url(#pc6079eaf26)" style="fill: #267655; fill-opacity: 0.75"/>
   </g>
   <g id="patch_11">
    <path d="M 29.749091 14.476154 
L 32.792727 14.476154 
L 32.792727 14.290231 
L 29.749091 14.290231 
z
" clip-path="url(#pc6079eaf26)" style="fill: #267655; fill-opacity: 0.75"/>
   </g>
   <g id="patch_12">
    <path d="M 32.792727 14.476154 
L 35.836364 14.476154 
L 35.836364 7.135934 
L 32.792727 7.135934 
z
" clip-path="url(#pc6079eaf26)" style="fill: #267655; fill-opacity: 0.75"/>
   </g>
   <g id="patch_13">
    <path d="M 35.836364 14.476154 
L 38.88 14.476154 
L 38.88 14.446406 
L 35.836364 14.446406 
z
" clip-path="url(#pc6079eaf26)" style="fill: #267655; fill-opacity: 0.75"/>
   </g>
   <g id="patch_14">
    <path d="M 38.88 14.476154 
L 41.923636 14.476154 
L 41.923636 14.476154 
L 38.88 14.476154 
z
" clip-path="url(#pc6079eaf26)" style="fill: #267655; fill-opacity: 0.75"/>
   </g>
   <g id="patch_15">
    <path d="M 41.923636 14.476154 
L 44.967273 14.476154 
L 44.967273 14.476154 
L 41.923636 14.476154 
z
" clip-path="url(#pc6079eaf26)" style="fill: #267655; fill-opacity: 0.75"/>
   </g>
   <g id="patch_16">
    <path d="M 44.967273 14.476154 
L 48.010909 14.476154 
L 48.010909 14.476154 
L 44.967273 14.476154 
z
" clip-path="url(#pc6079eaf26)" style="fill: #267655; fill-opacity: 0.75"/>
   </g>
   <g id="matplotlib.axis_1">
    <g id="xtick_1">
     <g id="line2d_1">
      <defs>
       <path id="mdd1504909b" d="M 0 0 
L 0 1.7 
" style="stroke: #000000; stroke-width: 0.25"/>
      </defs>
      <g>
       <use xlink:href="#mdd1504909b" x="5.4" y="15.476154" style="stroke: #000000; stroke-width: 0.25"/>
      </g>
     </g>
    </g>
    <g id="xtick_2">
     <g id="line2d_2">
      <g>
       <use xlink:href="#mdd1504909b" x="20.618182" y="15.476154" style="stroke: #000000; stroke-width: 0.25"/>
      </g>
     </g>
    </g>
    <g id="xtick_3">
     <g id="line2d_3">
      <g>
       <use xlink:href="#mdd1504909b" x="35.836364" y="15.476154" style="stroke: #000000; stroke-width: 0.25"/>
      </g>
     </g>
    </g>
   </g>
   <g id="matplotlib.axis_2">
    <g id="ytick_1">
     <g id="line2d_4">
      <defs>
       <path id="m2d5458e7e4" d="M 0 0 
L -1.7 0 
" style="stroke: #000000; stroke-width: 0.25"/>
      </defs>
      <g>
       <use xlink:href="#m2d5458e7e4" x="4.4" y="14.476154" style="stroke: #000000; stroke-width: 0.25"/>
      </g>
     </g>
    </g>
    <g id="ytick_2">
     <g id="line2d_5">
      <g>
       <use xlink:href="#m2d5458e7e4" x="4.4" y="7.039255" style="stroke: #000000; stroke-width: 0.25"/>
      </g>
     </g>
    </g>
    <g id="text_1">
     <text style="font-size: 8px; font-family: 'Arial'; text-anchor: middle" x="-1.89" y="10.478077" transform="rotate(-90 -1.89 10.478077)">Count</text>
    </g>
   </g>
   <g id="patch_17">
    <path d="M 4.4 14.476154 
L 4.4 6.48 
" style="fill: none; stroke: #000000; stroke-width: 0.25; stroke-linejoin: miter; stroke-linecap: square"/>
   </g>
   <g id="patch_18">
    <path d="M 5.4 15.476154 
L 38.88 15.476154 
" style="fill: none; stroke: #000000; stroke-width: 0.25; stroke-linejoin: miter; stroke-linecap: square"/>
   </g>
  </g>
  <g id="axes_2">
   <g id="patch_19">
    <path d="M 5.4 22.872115 
L 38.88 22.872115 
L 38.88 14.875962 
L 5.4 14.875962 
L 5.4 22.872115 
z
" style="fill: none; opacity: 0"/>
   </g>
   <g id="patch_20">
    <path d="M 5.4 22.872115 
L 8.443636 22.872115 
L 8.443636 15.256731 
L 5.4 15.256731 
z
" clip-path="url(#p62df5a65db)" style="fill: #d84a2e; fill-opacity: 0.75"/>
   </g>
   <g id="patch_21">
    <path d="M 8.443636 22.872115 
L 11.487273 22.872115 
L 11.487273 22.872115 
L 8.443636 22.872115 
z
" clip-path="url(#p62df5a65db)" style="fill: #d84a2e; fill-opacity: 0.75"/>
   </g>
   <g id="patch_22">
    <path d="M 11.487273 22.872115 
L 14.530909 22.872115 
L 14.530909 22.872115 
L 11.487273 22.872115 
z
" clip-path="url(#p62df5a65db)" style="fill: #d84a2e; fill-opacity: 0.75"/>
   </g>
   <g id="patch_23">
    <path d="M 14.530909 22.872115 
L 17.574545 22.872115 
L 17.574545 22.872115 
L 14.530909 22.872115 
z
" clip-path="url(#p62df5a65db)" style="fill: #d84a2e; fill-opacity: 0.75"/>
   </g>
   <g id="patch_24">
    <path d="M 17.574545 22.872115 
L 20.618182 22.872115 
L 20.618182 22.872115 
L 17.574545 22.872115 
z
" clip-path="url(#p62df5a65db)" style="fill: #d84a2e; fill-opacity: 0.75"/>
   </g>
   <g id="patch_25">
    <path d="M 20.618182 22.872115 
L 23.661818 22.872115 
L 23.661818 22.872115 
L 20.618182 22.872115 
z
" clip-path="url(#p62df5a65db)" style="fill: #d84a2e; fill-opacity: 0.75"/>
   </g>
   <g id="patch_26">
    <path d="M 23.661818 22.872115 
L 26.705455 22.872115 
L 26.705455 22.872115 
L 23.661818 22.872115 
z
" clip-path="url(#p62df5a65db)" style="fill: #d84a2e; fill-opacity: 0.75"/>
   </g>
   <g id="patch_27">
    <path d="M 26.705455 22.872115 
L 29.749091 22.872115 
L 29.749091 22.872115 
L 26.705455 22.872115 
z
" clip-path="url(#p62df5a65db)" style="fill: #d84a2e; fill-opacity: 0.75"/>
   </g>
   <g id="patch_28">
    <path d="M 29.749091 22.872115 
L 32.792727 22.872115 
L 32.792727 22.872115 
L 29.749091 22.872115 
z
" clip-path="url(#p62df5a65db)" style="fill: #d84a2e; fill-opacity: 0.75"/>
   </g>
   <g id="patch_29">
    <path d="M 32.792727 22.872115 
L 35.836364 22.872115 
L 35.836364 22.872115 
L 32.792727 22.872115 
z
" clip-path="url(#p62df5a65db)" style="fill: #d84a2e; fill-opacity: 0.75"/>
   </g>
   <g id="patch_30">
    <path d="M 35.836364 22.872115 
L 38.88 22.872115 
L 38.88 22.872115 
L 35.836364 22.872115 
z
" clip-path="url(#p62df5a65db)" style="fill: #d84a2e; fill-opacity: 0.75"/>
   </g>
   <g id="patch_31">
    <path d="M 38.88 22.872115 
L 41.923636 22.872115 
L 41.923636 22.872115 
L 38.88 22.872115 
z
" clip-path="url(#p62df5a65db)" style="fill: #d84a2e; fill-opacity: 0.75"/>
   </g>
   <g id="patch_32">
    <path d="M 41.923636 22.872115 
L 44.967273 22.872115 
L 44.967273 22.872115 
L 41.923636 22.872115 
z
" clip-path="url(#p62df5a65db)" style="fill: #d84a2e; fill-opacity: 0.75"/>
   </g>
   <g id="patch_33">
    <path d="M 44.967273 22.872115 
L 48.010909 22.872115 
L 48.010909 22.872115 
L 44.967273 22.872115 
z
" clip-path="url(#p62df5a65db)" style="fill: #d84a2e; fill-opacity: 0.75"/>
   </g>
   <g id="matplotlib.axis_3">
    <g id="xtick_4">
     <g id="line2d_6">
      <g>
       <use xlink:href="#mdd1504909b" x="5.4" y="23.872115" style="stroke: #000000; stroke-width: 0.25"/>
      </g>
     </g>
    </g>
    <g id="xtick_5">
     <g id="line2d_7">
      <g>
       <use xlink:href="#mdd1504909b" x="20.618182" y="23.872115" style="stroke: #000000; stroke-width: 0.25"/>
      </g>
     </g>
    </g>
    <g id="xtick_6">
     <g id="line2d_8">
      <g>
       <use xlink:href="#mdd1504909b" x="35.836364" y="23.872115" style="stroke: #000000; stroke-width: 0.25"/>
      </g>
     </g>
    </g>
   </g>
   <g id="matplotlib.axis_4">
    <g id="ytick_3">
     <g id="line2d_9">
      <g>
       <use xlink:href="#m2d5458e7e4" x="4.4" y="22.872115" style="stroke: #000000; stroke-width: 0.25"/>
      </g>
     </g>
    </g>
    <g id="ytick_4">
     <g id="line2d_10">
      <g>
       <use xlink:href="#m2d5458e7e4" x="4.4" y="15.435216" style="stroke: #000000; stroke-width: 0.25"/>
      </g>
     </g>
    </g>
    <g id="text_2">
     <text style="font-size: 8px; font-family: 'Arial'; text-anchor: middle" x="-1.89" y="18.874038" transform="rotate(-90 -1.89 18.874038)">Count</text>
    </g>
   </g>
   <g id="patch_34">
    <path d="M 4.4 22.872115 
L 4.4 14.875962 
" style="fill: none; stroke: #000000; stroke-width: 0.25; stroke-linejoin: miter; stroke-linecap: square"/>
   </g>
   <g id="patch_35">
    <path d="M 5.4 23.872115 
L 38.88 23.872115 
" style="fill: none; stroke: #000000; stroke-width: 0.25; stroke-linejoin: miter; stroke-linecap: square"/>
   </g>
  </g>
  <g id="axes_3">
   <g id="patch_36">
    <path d="M 5.4 31.268077 
L 38.88 31.268077 
L 38.88 23.271923 
L 5.4 23.271923 
L 5.4 31.268077 
z
" style="fill: none; opacity: 0"/>
   </g>
   <g id="patch_37">
    <path d="M 5.4 31.268077 
L 8.443636 31.268077 
L 8.443636 23.808867 
L 5.4 23.808867 
z
" clip-path="url(#ped387598c7)" style="fill: #ff9985; fill-opacity: 0.75"/>
   </g>
   <g id="patch_38">
    <path d="M 8.443636 31.268077 
L 11.487273 31.268077 
L 11.487273 31.193708 
L 8.443636 31.193708 
z
" clip-path="url(#ped387598c7)" style="fill: #ff9985; fill-opacity: 0.75"/>
   </g>
   <g id="patch_39">
    <path d="M 11.487273 31.268077 
L 14.530909 31.268077 
L 14.530909 31.208582 
L 11.487273 31.208582 
z
" clip-path="url(#ped387598c7)" style="fill: #ff9985; fill-opacity: 0.75"/>
   </g>
   <g id="patch_40">
    <path d="M 14.530909 31.268077 
L 17.574545 31.268077 
L 17.574545 31.245766 
L 14.530909 31.245766 
z
" clip-path="url(#ped387598c7)" style="fill: #ff9985; fill-opacity: 0.75"/>
   </g>
   <g id="patch_41">
    <path d="M 17.574545 31.268077 
L 20.618182 31.268077 
L 20.618182 31.268077 
L 17.574545 31.268077 
z
" clip-path="url(#ped387598c7)" style="fill: #ff9985; fill-opacity: 0.75"/>
   </g>
   <g id="patch_42">
    <path d="M 20.618182 31.268077 
L 23.661818 31.268077 
L 23.661818 31.268077 
L 20.618182 31.268077 
z
" clip-path="url(#ped387598c7)" style="fill: #ff9985; fill-opacity: 0.75"/>
   </g>
   <g id="patch_43">
    <path d="M 23.661818 31.268077 
L 26.705455 31.268077 
L 26.705455 31.268077 
L 23.661818 31.268077 
z
" clip-path="url(#ped387598c7)" style="fill: #ff9985; fill-opacity: 0.75"/>
   </g>
   <g id="patch_44">
    <path d="M 26.705455 31.268077 
L 29.749091 31.268077 
L 29.749091 31.268077 
L 26.705455 31.268077 
z
" clip-path="url(#ped387598c7)" style="fill: #ff9985; fill-opacity: 0.75"/>
   </g>
   <g id="patch_45">
    <path d="M 29.749091 31.268077 
L 32.792727 31.268077 
L 32.792727 31.268077 
L 29.749091 31.268077 
z
" clip-path="url(#ped387598c7)" style="fill: #ff9985; fill-opacity: 0.75"/>
   </g>
   <g id="patch_46">
    <path d="M 32.792727 31.268077 
L 35.836364 31.268077 
L 35.836364 31.268077 
L 32.792727 31.268077 
z
" clip-path="url(#ped387598c7)" style="fill: #ff9985; fill-opacity: 0.75"/>
   </g>
   <g id="patch_47">
    <path d="M 35.836364 31.268077 
L 38.88 31.268077 
L 38.88 31.268077 
L 35.836364 31.268077 
z
" clip-path="url(#ped387598c7)" style="fill: #ff9985; fill-opacity: 0.75"/>
   </g>
   <g id="patch_48">
    <path d="M 38.88 31.268077 
L 41.923636 31.268077 
L 41.923636 31.268077 
L 38.88 31.268077 
z
" clip-path="url(#ped387598c7)" style="fill: #ff9985; fill-opacity: 0.75"/>
   </g>
   <g id="patch_49">
    <path d="M 41.923636 31.268077 
L 44.967273 31.268077 
L 44.967273 31.268077 
L 41.923636 31.268077 
z
" clip-path="url(#ped387598c7)" style="fill: #ff9985; fill-opacity: 0.75"/>
   </g>
   <g id="patch_50">
    <path d="M 44.967273 31.268077 
L 48.010909 31.268077 
L 48.010909 31.268077 
L 44.967273 31.268077 
z
" clip-path="url(#ped387598c7)" style="fill: #ff9985; fill-opacity: 0.75"/>
   </g>
   <g id="matplotlib.axis_5">
    <g id="xtick_7">
     <g id="line2d_11">
      <g>
       <use xlink:href="#mdd1504909b" x="5.4" y="32.268077" style="stroke: #000000; stroke-width: 0.25"/>
      </g>
     </g>
    </g>
    <g id="xtick_8">
     <g id="line2d_12">
      <g>
       <use xlink:href="#mdd1504909b" x="20.618182" y="32.268077" style="stroke: #000000; stroke-width: 0.25"/>
      </g>
     </g>
    </g>
    <g id="xtick_9">
     <g id="line2d_13">
      <g>
       <use xlink:href="#mdd1504909b" x="35.836364" y="32.268077" style="stroke: #000000; stroke-width: 0.25"/>
      </g>
     </g>
    </g>
   </g>
   <g id="matplotlib.axis_6">
    <g id="ytick_5">
     <g id="line2d_14">
      <g>
       <use xlink:href="#m2d5458e7e4" x="4.4" y="31.268077" style="stroke: #000000; stroke-width: 0.25"/>
      </g>
     </g>
    </g>
    <g id="ytick_6">
     <g id="line2d_15">
      <g>
       <use xlink:href="#m2d5458e7e4" x="4.4" y="23.831178" style="stroke: #000000; stroke-width: 0.25"/>
      </g>
     </g>
    </g>
    <g id="text_3">
     <text style="font-size: 8px; font-family: 'Arial'; text-anchor: middle" x="-1.89" y="27.27" transform="rotate(-90 -1.89 27.27)">Count</text>
    </g>
   </g>
   <g id="patch_51">
    <path d="M 4.4 31.268077 
L 4.4 23.271923 
" style="fill: none; stroke: #000000; stroke-width: 0.25; stroke-linejoin: miter; stroke-linecap: square"/>
   </g>
   <g id="patch_52">
    <path d="M 5.4 32.268077 
L 38.88 32.268077 
" style="fill: none; stroke: #000000; stroke-width: 0.25; stroke-linejoin: miter; stroke-linecap: square"/>
   </g>
  </g>
  <g id="axes_4">
   <g id="patch_53">
    <path d="M 5.4 39.664038 
L 38.88 39.664038 
L 38.88 31.667885 
L 5.4 31.667885 
L 5.4 39.664038 
z
" style="fill: none; opacity: 0"/>
   </g>
   <g id="patch_54">
    <path d="M 5.4 39.664038 
L 8.443636 39.664038 
L 8.443636 39.664038 
L 5.4 39.664038 
z
" clip-path="url(#pe9f9298b8a)" style="fill: #026b85; fill-opacity: 0.75"/>
   </g>
   <g id="patch_55">
    <path d="M 8.443636 39.664038 
L 11.487273 39.664038 
L 11.487273 39.664038 
L 8.443636 39.664038 
z
" clip-path="url(#pe9f9298b8a)" style="fill: #026b85; fill-opacity: 0.75"/>
   </g>
   <g id="patch_56">
    <path d="M 11.487273 39.664038 
L 14.530909 39.664038 
L 14.530909 39.664038 
L 11.487273 39.664038 
z
" clip-path="url(#pe9f9298b8a)" style="fill: #026b85; fill-opacity: 0.75"/>
   </g>
   <g id="patch_57">
    <path d="M 14.530909 39.664038 
L 17.574545 39.664038 
L 17.574545 39.664038 
L 14.530909 39.664038 
z
" clip-path="url(#pe9f9298b8a)" style="fill: #026b85; fill-opacity: 0.75"/>
   </g>
   <g id="patch_58">
    <path d="M 17.574545 39.664038 
L 20.618182 39.664038 
L 20.618182 39.664038 
L 17.574545 39.664038 
z
" clip-path="url(#pe9f9298b8a)" style="fill: #026b85; fill-opacity: 0.75"/>
   </g>
   <g id="patch_59">
    <path d="M 20.618182 39.664038 
L 23.661818 39.664038 
L 23.661818 39.664038 
L 20.618182 39.664038 
z
" clip-path="url(#pe9f9298b8a)" style="fill: #026b85; fill-opacity: 0.75"/>
   </g>
   <g id="patch_60">
    <path d="M 23.661818 39.664038 
L 26.705455 39.664038 
L 26.705455 39.664038 
L 23.661818 39.664038 
z
" clip-path="url(#pe9f9298b8a)" style="fill: #026b85; fill-opacity: 0.75"/>
   </g>
   <g id="patch_61">
    <path d="M 26.705455 39.664038 
L 29.749091 39.664038 
L 29.749091 39.634291 
L 26.705455 39.634291 
z
" clip-path="url(#pe9f9298b8a)" style="fill: #026b85; fill-opacity: 0.75"/>
   </g>
   <g id="patch_62">
    <path d="M 29.749091 39.664038 
L 32.792727 39.664038 
L 32.792727 39.373999 
L 29.749091 39.373999 
z
" clip-path="url(#pe9f9298b8a)" style="fill: #026b85; fill-opacity: 0.75"/>
   </g>
   <g id="patch_63">
    <path d="M 32.792727 39.664038 
L 35.836364 39.664038 
L 35.836364 32.65848 
L 32.792727 32.65848 
z
" clip-path="url(#pe9f9298b8a)" style="fill: #026b85; fill-opacity: 0.75"/>
   </g>
   <g id="patch_64">
    <path d="M 35.836364 39.664038 
L 38.88 39.664038 
L 38.88 39.373999 
L 35.836364 39.373999 
z
" clip-path="url(#pe9f9298b8a)" style="fill: #026b85; fill-opacity: 0.75"/>
   </g>
   <g id="patch_65">
    <path d="M 38.88 39.664038 
L 41.923636 39.664038 
L 41.923636 39.664038 
L 38.88 39.664038 
z
" clip-path="url(#pe9f9298b8a)" style="fill: #026b85; fill-opacity: 0.75"/>
   </g>
   <g id="patch_66">
    <path d="M 41.923636 39.664038 
L 44.967273 39.664038 
L 44.967273 39.664038 
L 41.923636 39.664038 
z
" clip-path="url(#pe9f9298b8a)" style="fill: #026b85; fill-opacity: 0.75"/>
   </g>
   <g id="patch_67">
    <path d="M 44.967273 39.664038 
L 48.010909 39.664038 
L 48.010909 39.664038 
L 44.967273 39.664038 
z
" clip-path="url(#pe9f9298b8a)" style="fill: #026b85; fill-opacity: 0.75"/>
   </g>
   <g id="matplotlib.axis_7">
    <g id="xtick_10">
     <g id="line2d_16">
      <g>
       <use xlink:href="#mdd1504909b" x="5.4" y="40.664038" style="stroke: #000000; stroke-width: 0.25"/>
      </g>
     </g>
    </g>
    <g id="xtick_11">
     <g id="line2d_17">
      <g>
       <use xlink:href="#mdd1504909b" x="20.618182" y="40.664038" style="stroke: #000000; stroke-width: 0.25"/>
      </g>
     </g>
    </g>
    <g id="xtick_12">
     <g id="line2d_18">
      <g>
       <use xlink:href="#mdd1504909b" x="35.836364" y="40.664038" style="stroke: #000000; stroke-width: 0.25"/>
      </g>
     </g>
    </g>
   </g>
   <g id="matplotlib.axis_8">
    <g id="ytick_7">
     <g id="line2d_19">
      <g>
       <use xlink:href="#m2d5458e7e4" x="4.4" y="39.664038" style="stroke: #000000; stroke-width: 0.25"/>
      </g>
     </g>
    </g>
    <g id="ytick_8">
     <g id="line2d_20">
      <g>
       <use xlink:href="#m2d5458e7e4" x="4.4" y="32.227139" style="stroke: #000000; stroke-width: 0.25"/>
      </g>
     </g>
    </g>
    <g id="text_4">
     <text style="font-size: 8px; font-family: 'Arial'; text-anchor: middle" x="-1.89" y="35.665962" transform="rotate(-90 -1.89 35.665962)">Count</text>
    </g>
   </g>
   <g id="patch_68">
    <path d="M 4.4 39.664038 
L 4.4 31.667885 
" style="fill: none; stroke: #000000; stroke-width: 0.25; stroke-linejoin: miter; stroke-linecap: square"/>
   </g>
   <g id="patch_69">
    <path d="M 5.4 40.664038 
L 38.88 40.664038 
" style="fill: none; stroke: #000000; stroke-width: 0.25; stroke-linejoin: miter; stroke-linecap: square"/>
   </g>
  </g>
  <g id="axes_5">
   <g id="patch_70">
    <path d="M 5.4 48.06 
L 38.88 48.06 
L 38.88 40.063846 
L 5.4 40.063846 
L 5.4 48.06 
z
" style="fill: none; opacity: 0"/>
   </g>
   <g id="patch_71">
    <path d="M 5.4 48.06 
L 8.443636 48.06 
L 8.443636 47.323747 
L 5.4 47.323747 
z
" clip-path="url(#p57e40fe712)" style="fill: #cccccc; fill-opacity: 0.75"/>
   </g>
   <g id="patch_72">
    <path d="M 8.443636 48.06 
L 11.487273 48.06 
L 11.487273 47.807145 
L 8.443636 47.807145 
z
" clip-path="url(#p57e40fe712)" style="fill: #cccccc; fill-opacity: 0.75"/>
   </g>
   <g id="patch_73">
    <path d="M 11.487273 48.06 
L 14.530909 48.06 
L 14.530909 47.539417 
L 11.487273 47.539417 
z
" clip-path="url(#p57e40fe712)" style="fill: #cccccc; fill-opacity: 0.75"/>
   </g>
   <g id="patch_74">
    <path d="M 14.530909 48.06 
L 17.574545 48.06 
L 17.574545 47.130388 
L 14.530909 47.130388 
z
" clip-path="url(#p57e40fe712)" style="fill: #cccccc; fill-opacity: 0.75"/>
   </g>
   <g id="patch_75">
    <path d="M 17.574545 48.06 
L 20.618182 48.06 
L 20.618182 46.907281 
L 17.574545 46.907281 
z
" clip-path="url(#p57e40fe712)" style="fill: #cccccc; fill-opacity: 0.75"/>
   </g>
   <g id="patch_76">
    <path d="M 20.618182 48.06 
L 23.661818 48.06 
L 23.661818 47.115514 
L 20.618182 47.115514 
z
" clip-path="url(#p57e40fe712)" style="fill: #cccccc; fill-opacity: 0.75"/>
   </g>
   <g id="patch_77">
    <path d="M 23.661818 48.06 
L 26.705455 48.06 
L 26.705455 46.840349 
L 23.661818 46.840349 
z
" clip-path="url(#p57e40fe712)" style="fill: #cccccc; fill-opacity: 0.75"/>
   </g>
   <g id="patch_78">
    <path d="M 26.705455 48.06 
L 29.749091 48.06 
L 29.749091 47.160135 
L 26.705455 47.160135 
z
" clip-path="url(#p57e40fe712)" style="fill: #cccccc; fill-opacity: 0.75"/>
   </g>
   <g id="patch_79">
    <path d="M 29.749091 48.06 
L 32.792727 48.06 
L 32.792727 47.569165 
L 29.749091 47.569165 
z
" clip-path="url(#p57e40fe712)" style="fill: #cccccc; fill-opacity: 0.75"/>
   </g>
   <g id="patch_80">
    <path d="M 32.792727 48.06 
L 35.836364 48.06 
L 35.836364 47.591475 
L 32.792727 47.591475 
z
" clip-path="url(#p57e40fe712)" style="fill: #cccccc; fill-opacity: 0.75"/>
   </g>
   <g id="patch_81">
    <path d="M 35.836364 48.06 
L 38.88 48.06 
L 38.88 48.06 
L 35.836364 48.06 
z
" clip-path="url(#p57e40fe712)" style="fill: #cccccc; fill-opacity: 0.75"/>
   </g>
   <g id="patch_82">
    <path d="M 38.88 48.06 
L 41.923636 48.06 
L 41.923636 48.06 
L 38.88 48.06 
z
" clip-path="url(#p57e40fe712)" style="fill: #cccccc; fill-opacity: 0.75"/>
   </g>
   <g id="patch_83">
    <path d="M 41.923636 48.06 
L 44.967273 48.06 
L 44.967273 48.06 
L 41.923636 48.06 
z
" clip-path="url(#p57e40fe712)" style="fill: #cccccc; fill-opacity: 0.75"/>
   </g>
   <g id="patch_84">
    <path d="M 44.967273 48.06 
L 48.010909 48.06 
L 48.010909 48.06 
L 44.967273 48.06 
z
" clip-path="url(#p57e40fe712)" style="fill: #cccccc; fill-opacity: 0.75"/>
   </g>
   <g id="matplotlib.axis_9">
    <g id="xtick_13">
     <g id="line2d_21">
      <g>
       <use xlink:href="#mdd1504909b" x="5.4" y="49.06" style="stroke: #000000; stroke-width: 0.25"/>
      </g>
     </g>
     <g id="text_5">
      <text style="font-size: 6px; font-family: 'Arial'; text-anchor: middle" x="5.4" y="56.554688" transform="rotate(-0 5.4 56.554688)">0.0</text>
     </g>
    </g>
    <g id="xtick_14">
     <g id="line2d_22">
      <g>
       <use xlink:href="#mdd1504909b" x="20.618182" y="49.06" style="stroke: #000000; stroke-width: 0.25"/>
      </g>
     </g>
     <g id="text_6">
      <text style="font-size: 6px; font-family: 'Arial'; text-anchor: middle" x="20.618182" y="56.554688" transform="rotate(-0 20.618182 56.554688)">0.5</text>
     </g>
    </g>
    <g id="xtick_15">
     <g id="line2d_23">
      <g>
       <use xlink:href="#mdd1504909b" x="35.836364" y="49.06" style="stroke: #000000; stroke-width: 0.25"/>
      </g>
     </g>
     <g id="text_7">
      <text style="font-size: 6px; font-family: 'Arial'; text-anchor: middle" x="35.836364" y="56.554688" transform="rotate(-0 35.836364 56.554688)">1.0</text>
     </g>
    </g>
    <g id="text_8">
     <text style="font-size: 8px; font-family: 'Arial'; text-anchor: middle" x="22.14" y="64.973438" transform="rotate(-0 22.14 64.973438)">motor rhythmicity score</text>
    </g>
   </g>
   <g id="matplotlib.axis_10">
    <g id="ytick_9">
     <g id="line2d_24">
      <g>
       <use xlink:href="#m2d5458e7e4" x="4.4" y="48.06" style="stroke: #000000; stroke-width: 0.25"/>
      </g>
     </g>
    </g>
    <g id="ytick_10">
     <g id="line2d_25">
      <g>
       <use xlink:href="#m2d5458e7e4" x="4.4" y="40.623101" style="stroke: #000000; stroke-width: 0.25"/>
      </g>
     </g>
    </g>
    <g id="text_9">
     <text style="font-size: 8px; font-family: 'Arial'; text-anchor: middle" x="-1.89" y="44.061923" transform="rotate(-90 -1.89 44.061923)">Count</text>
    </g>
   </g>
   <g id="patch_85">
    <path d="M 4.4 48.06 
L 4.4 40.063846 
" style="fill: none; stroke: #000000; stroke-width: 0.25; stroke-linejoin: miter; stroke-linecap: square"/>
   </g>
   <g id="patch_86">
    <path d="M 5.4 49.06 
L 38.88 49.06 
" style="fill: none; stroke: #000000; stroke-width: 0.25; stroke-linejoin: miter; stroke-linecap: square"/>
   </g>
  </g>
 </g>
 <defs>
  <clipPath id="pc6079eaf26">
   <rect x="5.4" y="6.48" width="33.48" height="7.996154"/>
  </clipPath>
  <clipPath id="p62df5a65db">
   <rect x="5.4" y="14.875962" width="33.48" height="7.996154"/>
  </clipPath>
  <clipPath id="ped387598c7">
   <rect x="5.4" y="23.271923" width="33.48" height="7.996154"/>
  </clipPath>
  <clipPath id="pe9f9298b8a">
   <rect x="5.4" y="31.667885" width="33.48" height="7.996154"/>
  </clipPath>
  <clipPath id="p57e40fe712">
   <rect x="5.4" y="40.063846" width="33.48" height="7.996154"/>
  </clipPath>
 </defs>
</svg>
