<?xml version="1.0" encoding="utf-8" standalone="no"?>
<!DOCTYPE svg PUBLIC "-//W3C//DTD SVG 1.1//EN"
  "http://www.w3.org/Graphics/SVG/1.1/DTD/svg11.dtd">
<svg xmlns:xlink="http://www.w3.org/1999/xlink" width="57.6pt" height="64.8pt" viewBox="0 0 57.6 64.8" xmlns="http://www.w3.org/2000/svg" version="1.1">
 <metadata>
  <rdf:RDF xmlns:dc="http://purl.org/dc/elements/1.1/" xmlns:cc="http://creativecommons.org/ns#" xmlns:rdf="http://www.w3.org/1999/02/22-rdf-syntax-ns#">
   <cc:Work>
    <dc:type rdf:resource="http://purl.org/dc/dcmitype/StillImage"/>
    <dc:date>2025-09-04T00:45:09.302557</dc:date>
    <dc:format>image/svg+xml</dc:format>
    <dc:creator>
     <cc:Agent>
      <dc:title>Matplotlib v3.10.3, https://matplotlib.org/</dc:title>
     </cc:Agent>
    </dc:creator>
   </cc:Work>
  </rdf:RDF>
 </metadata>
 <defs>
  <style type="text/css">*{stroke-linejoin: round; stroke-linecap: butt}</style>
 </defs>
 <g id="figure_1">
  <g id="patch_1">
   <path d="M 0 64.8 
L 57.6 64.8 
L 57.6 0 
L 0 0 
L 0 64.8 
z
" style="fill: none"/>
  </g>
  <g id="axes_1">
   <g id="patch_2">
    <path d="M 7.2 57.672 
L 51.84 57.672 
L 51.84 7.776 
L 7.2 7.776 
L 7.2 57.672 
z
" style="fill: none"/>
   </g>
   <g id="FillBetweenPolyCollection_1">
    <defs>
     <path id="m987fffe39d" d="M 30.698638 -50.777865 
L 30.698638 -50.796135 
L 30.871302 -50.795368 
L 31.043966 -50.793431 
L 31.21663 -50.791147 
L 31.389295 -50.789243 
L 31.561959 -50.788018 
L 31.734623 -50.787388 
L 31.907287 -50.787124 
L 32.079951 -50.787033 
L 32.252615 -50.787008 
L 32.425279 -50.787002 
L 32.597943 -50.787002 
L 32.770607 -50.787009 
L 32.943271 -50.787041 
L 33.115935 -50.787149 
L 33.288599 -50.787453 
L 33.461263 -50.788159 
L 33.633927 -50.789488 
L 33.806591 -50.79148 
L 33.979255 -50.793774 
L 34.151919 -50.795615 
L 34.324583 -50.796266 
L 34.497247 -50.795595 
L 34.669911 -50.794292 
L 34.842575 -50.793487 
L 35.01524 -50.794048 
L 35.187904 -50.796095 
L 35.360568 -50.799034 
L 35.533232 -50.80199 
L 35.705896 -50.804283 
L 35.87856 -50.805595 
L 36.051224 -50.805826 
L 36.223888 -50.80493 
L 36.396552 -50.803018 
L 36.569216 -50.800649 
L 36.74188 -50.798993 
L 36.914544 -50.799477 
L 37.087208 -50.802914 
L 37.259872 -50.808651 
L 37.432536 -50.814582 
L 37.6052 -50.818371 
L 37.777864 -50.818998 
L 37.950528 -50.817169 
L 38.123192 -50.814224 
L 38.295856 -50.810859 
L 38.46852 -50.807017 
L 38.641184 -50.802796 
L 38.813849 -50.799144 
L 38.986513 -50.79765 
L 39.159177 -50.799744 
L 39.331841 -50.805876 
L 39.504505 -50.815077 
L 39.677169 -50.825191 
L 39.849833 -50.833927 
L 40.022497 -50.840159 
L 40.195161 -50.844345 
L 40.367825 -50.847544 
L 40.540489 -50.849931 
L 40.713153 -50.850428 
L 40.885817 -50.847856 
L 41.058481 -50.842353 
L 41.231145 -50.835538 
L 41.403809 -50.829474 
L 41.576473 -50.825697 
L 41.749137 -50.825186 
L 41.921801 -50.828777 
L 42.094465 -50.836919 
L 42.267129 -50.848783 
L 42.439794 -50.861994 
L 42.612458 -50.873837 
L 42.785122 -50.883037 
L 42.957786 -50.890561 
L 43.13045 -50.898986 
L 43.303114 -50.911144 
L 43.475778 -50.928803 
L 43.648442 -50.951997 
L 43.821106 -50.979513 
L 43.99377 -51.010344 
L 44.166434 -51.044681 
L 44.339098 -51.083233 
L 44.511762 -51.125738 
L 44.684426 -51.17097 
L 44.85709 -51.218826 
L 45.029754 -51.27219 
L 45.202418 -51.336451 
L 45.375082 -51.417645 
L 45.547746 -51.521807 
L 45.72041 -51.655762 
L 45.893074 -51.826624 
L 46.065738 -52.038163 
L 46.238403 -52.28722 
L 46.411067 -52.567434 
L 46.583731 -52.884134 
L 46.756395 -53.272228 
L 46.929059 -53.794918 
L 47.101723 -54.499084 
L 47.274387 -55.330925 
L 47.447051 -56.073406 
L 47.619715 -56.4003 
L 47.792379 -56.066645 
L 47.792379 -45.507355 
L 47.792379 -45.507355 
L 47.619715 -45.1737 
L 47.447051 -45.500594 
L 47.274387 -46.243075 
L 47.101723 -47.074916 
L 46.929059 -47.779082 
L 46.756395 -48.301772 
L 46.583731 -48.689866 
L 46.411067 -49.006566 
L 46.238403 -49.28678 
L 46.065738 -49.535837 
L 45.893074 -49.747376 
L 45.72041 -49.918238 
L 45.547746 -50.052193 
L 45.375082 -50.156355 
L 45.202418 -50.237549 
L 45.029754 -50.30181 
L 44.85709 -50.355174 
L 44.684426 -50.40303 
L 44.511762 -50.448262 
L 44.339098 -50.490767 
L 44.166434 -50.529319 
L 43.99377 -50.563656 
L 43.821106 -50.594487 
L 43.648442 -50.622003 
L 43.475778 -50.645197 
L 43.303114 -50.662856 
L 43.13045 -50.675014 
L 42.957786 -50.683439 
L 42.785122 -50.690963 
L 42.612458 -50.700163 
L 42.439794 -50.712006 
L 42.267129 -50.725217 
L 42.094465 -50.737081 
L 41.921801 -50.745223 
L 41.749137 -50.748814 
L 41.576473 -50.748303 
L 41.403809 -50.744526 
L 41.231145 -50.738462 
L 41.058481 -50.731647 
L 40.885817 -50.726144 
L 40.713153 -50.723572 
L 40.540489 -50.724069 
L 40.367825 -50.726456 
L 40.195161 -50.729655 
L 40.022497 -50.733841 
L 39.849833 -50.740073 
L 39.677169 -50.748809 
L 39.504505 -50.758923 
L 39.331841 -50.768124 
L 39.159177 -50.774256 
L 38.986513 -50.77635 
L 38.813849 -50.774856 
L 38.641184 -50.771204 
L 38.46852 -50.766983 
L 38.295856 -50.763141 
L 38.123192 -50.759776 
L 37.950528 -50.756831 
L 37.777864 -50.755002 
L 37.6052 -50.755629 
L 37.432536 -50.759418 
L 37.259872 -50.765349 
L 37.087208 -50.771086 
L 36.914544 -50.774523 
L 36.74188 -50.775007 
L 36.569216 -50.773351 
L 36.396552 -50.770982 
L 36.223888 -50.76907 
L 36.051224 -50.768174 
L 35.87856 -50.768405 
L 35.705896 -50.769717 
L 35.533232 -50.77201 
L 35.360568 -50.774966 
L 35.187904 -50.777905 
L 35.01524 -50.779952 
L 34.842575 -50.780513 
L 34.669911 -50.779708 
L 34.497247 -50.778405 
L 34.324583 -50.777734 
L 34.151919 -50.778385 
L 33.979255 -50.780226 
L 33.806591 -50.78252 
L 33.633927 -50.784512 
L 33.461263 -50.785841 
L 33.288599 -50.786547 
L 33.115935 -50.786851 
L 32.943271 -50.786959 
L 32.770607 -50.786991 
L 32.597943 -50.786998 
L 32.425279 -50.786998 
L 32.252615 -50.786992 
L 32.079951 -50.786967 
L 31.907287 -50.786876 
L 31.734623 -50.786612 
L 31.561959 -50.785982 
L 31.389295 -50.784757 
L 31.21663 -50.782853 
L 31.043966 -50.780569 
L 30.871302 -50.778632 
L 30.698638 -50.777865 
z
"/>
    </defs>
    <g clip-path="url(#p99e4efb33f)">
     <use xlink:href="#m987fffe39d" x="0" y="64.8" style="fill: #306c53; fill-opacity: 0.5"/>
    </g>
   </g>
   <g id="FillBetweenPolyCollection_2">
    <defs>
     <path id="mfedf6487eb" d="M 7.2 -20.2257 
L 7.2 -31.4523 
L 7.379397 -30.659943 
L 7.558793 -28.891507 
L 7.73819 -27.264467 
L 7.917586 -26.330299 
L 8.096983 -25.964146 
L 8.27638 -25.86262 
L 8.455776 -25.84232 
L 8.635173 -25.839358 
L 8.814569 -25.83908 
L 8.993966 -25.839244 
L 9.173363 -25.839832 
L 9.352759 -25.841102 
L 9.532156 -25.842921 
L 9.711552 -25.844429 
L 9.890949 -25.844756 
L 10.070346 -25.844368 
L 10.249742 -25.84517 
L 10.429139 -25.848621 
L 10.608535 -25.853595 
L 10.787932 -25.856835 
L 10.967329 -25.856396 
L 11.146725 -25.853801 
L 11.326122 -25.851663 
L 11.505518 -25.850518 
L 11.684915 -25.849287 
L 11.864312 -25.847707 
L 12.043708 -25.84705 
L 12.223105 -25.848415 
L 12.402501 -25.850936 
L 12.581898 -25.852558 
L 12.761295 -25.852574 
L 12.940691 -25.852319 
L 13.120088 -25.853321 
L 13.299484 -25.855664 
L 13.478881 -25.85789 
L 13.658278 -25.858154 
L 13.837674 -25.855896 
L 14.017071 -25.852267 
L 14.196467 -25.848972 
L 14.375864 -25.84702 
L 14.555261 -25.846193 
L 14.734657 -25.845495 
L 14.914054 -25.844598 
L 15.093451 -25.844525 
L 15.272847 -25.846259 
L 15.452244 -25.848926 
L 15.63164 -25.850148 
L 15.811037 -25.848515 
L 15.990434 -25.845065 
L 16.16983 -25.841888 
L 16.349227 -25.8401 
L 16.528623 -25.839658 
L 16.70802 -25.840367 
L 16.887417 -25.842393 
L 17.066813 -25.845899 
L 17.24621 -25.850467 
L 17.425606 -25.854908 
L 17.605003 -25.857454 
L 17.7844 -25.856557 
L 17.963796 -25.852323 
L 18.143193 -25.846867 
L 18.322589 -25.842551 
L 18.501986 -25.840211 
L 18.681383 -25.83931 
L 18.860779 -25.839059 
L 19.040176 -25.83901 
L 19.219572 -25.839012 
L 19.398969 -25.839067 
L 19.578366 -25.839296 
L 19.757762 -25.83997 
L 19.937159 -25.841345 
L 20.116555 -25.843176 
L 20.295952 -25.844481 
L 20.475349 -25.844302 
L 20.654745 -25.842779 
L 20.834142 -25.840985 
L 21.013538 -25.839768 
L 21.192935 -25.839219 
L 21.372332 -25.839046 
L 21.551728 -25.839007 
L 21.731125 -25.839001 
L 21.910521 -25.839 
L 22.089918 -25.839 
L 22.269315 -25.839 
L 22.448711 -25.839 
L 22.628108 -25.839 
L 22.807504 -25.839 
L 22.986901 -25.839002 
L 23.166298 -25.839016 
L 23.345694 -25.839089 
L 23.525091 -25.839375 
L 23.704487 -25.840167 
L 23.883884 -25.841685 
L 24.063281 -25.84361 
L 24.242677 -25.845061 
L 24.422074 -25.845521 
L 24.60147 -25.845488 
L 24.780867 -25.845527 
L 24.960264 -25.845237 
L 24.960264 -25.832763 
L 24.960264 -25.832763 
L 24.780867 -25.832473 
L 24.60147 -25.832512 
L 24.422074 -25.832479 
L 24.242677 -25.832939 
L 24.063281 -25.83439 
L 23.883884 -25.836315 
L 23.704487 -25.837833 
L 23.525091 -25.838625 
L 23.345694 -25.838911 
L 23.166298 -25.838984 
L 22.986901 -25.838998 
L 22.807504 -25.839 
L 22.628108 -25.839 
L 22.448711 -25.839 
L 22.269315 -25.839 
L 22.089918 -25.839 
L 21.910521 -25.839 
L 21.731125 -25.838999 
L 21.551728 -25.838993 
L 21.372332 -25.838954 
L 21.192935 -25.838781 
L 21.013538 -25.838232 
L 20.834142 -25.837015 
L 20.654745 -25.835221 
L 20.475349 -25.833698 
L 20.295952 -25.833519 
L 20.116555 -25.834824 
L 19.937159 -25.836655 
L 19.757762 -25.83803 
L 19.578366 -25.838704 
L 19.398969 -25.838933 
L 19.219572 -25.838988 
L 19.040176 -25.83899 
L 18.860779 -25.838941 
L 18.681383 -25.83869 
L 18.501986 -25.837789 
L 18.322589 -25.835449 
L 18.143193 -25.831133 
L 17.963796 -25.825677 
L 17.7844 -25.821443 
L 17.605003 -25.820546 
L 17.425606 -25.823092 
L 17.24621 -25.827533 
L 17.066813 -25.832101 
L 16.887417 -25.835607 
L 16.70802 -25.837633 
L 16.528623 -25.838342 
L 16.349227 -25.8379 
L 16.16983 -25.836112 
L 15.990434 -25.832935 
L 15.811037 -25.829485 
L 15.63164 -25.827852 
L 15.452244 -25.829074 
L 15.272847 -25.831741 
L 15.093451 -25.833475 
L 14.914054 -25.833402 
L 14.734657 -25.832505 
L 14.555261 -25.831807 
L 14.375864 -25.83098 
L 14.196467 -25.829028 
L 14.017071 -25.825733 
L 13.837674 -25.822104 
L 13.658278 -25.819846 
L 13.478881 -25.82011 
L 13.299484 -25.822336 
L 13.120088 -25.824679 
L 12.940691 -25.825681 
L 12.761295 -25.825426 
L 12.581898 -25.825442 
L 12.402501 -25.827064 
L 12.223105 -25.829585 
L 12.043708 -25.83095 
L 11.864312 -25.830293 
L 11.684915 -25.828713 
L 11.505518 -25.827482 
L 11.326122 -25.826337 
L 11.146725 -25.824199 
L 10.967329 -25.821604 
L 10.787932 -25.821165 
L 10.608535 -25.824405 
L 10.429139 -25.829379 
L 10.249742 -25.83283 
L 10.070346 -25.833632 
L 9.890949 -25.833244 
L 9.711552 -25.833571 
L 9.532156 -25.835079 
L 9.352759 -25.836898 
L 9.173363 -25.838168 
L 8.993966 -25.838756 
L 8.814569 -25.83892 
L 8.635173 -25.838642 
L 8.455776 -25.83568 
L 8.27638 -25.81538 
L 8.096983 -25.713854 
L 7.917586 -25.347701 
L 7.73819 -24.413533 
L 7.558793 -22.786493 
L 7.379397 -21.018057 
L 7.2 -20.2257 
z
"/>
    </defs>
    <g clip-path="url(#p99e4efb33f)">
     <use xlink:href="#mfedf6487eb" x="0" y="64.8" style="fill: #f0a394; fill-opacity: 0.5"/>
    </g>
   </g>
   <g id="FillBetweenPolyCollection_3">
    <defs>
     <path id="madf304bc2d" d="M 33.129211 -13.342702 
L 33.129211 -13.387298 
L 33.277363 -13.387996 
L 33.425515 -13.386607 
L 33.573668 -13.383822 
L 33.72182 -13.380334 
L 33.869973 -13.376646 
L 34.018125 -13.373191 
L 34.166278 -13.370442 
L 34.31443 -13.368832 
L 34.462582 -13.368597 
L 34.610735 -13.369653 
L 34.758887 -13.371537 
L 34.90704 -13.373461 
L 35.055192 -13.374561 
L 35.203345 -13.374306 
L 35.351497 -13.372777 
L 35.49965 -13.370575 
L 35.647802 -13.368429 
L 35.795954 -13.366809 
L 35.944107 -13.365822 
L 36.092259 -13.365336 
L 36.240412 -13.365187 
L 36.388564 -13.365335 
L 36.536717 -13.365984 
L 36.684869 -13.367686 
L 36.833022 -13.371339 
L 36.981174 -13.377855 
L 37.129326 -13.387398 
L 37.277479 -13.398531 
L 37.425631 -13.408136 
L 37.573784 -13.412692 
L 37.721936 -13.410323 
L 37.870089 -13.402028 
L 38.018241 -13.391008 
L 38.166394 -13.380709 
L 38.314546 -13.373159 
L 38.462698 -13.368645 
L 38.610851 -13.366402 
L 38.759003 -13.365468 
L 38.907156 -13.365152 
L 39.055308 -13.365105 
L 39.203461 -13.365236 
L 39.351613 -13.365622 
L 39.499766 -13.366444 
L 39.647918 -13.367885 
L 39.79607 -13.369981 
L 39.944223 -13.372488 
L 40.092375 -13.374986 
L 40.240528 -13.377238 
L 40.38868 -13.379563 
L 40.536833 -13.382776 
L 40.684985 -13.387592 
L 40.833138 -13.393987 
L 40.98129 -13.401154 
L 41.129442 -13.408111 
L 41.277595 -13.414256 
L 41.425747 -13.419276 
L 41.5739 -13.422658 
L 41.722052 -13.423611 
L 41.870205 -13.421734 
L 42.018357 -13.417918 
L 42.16651 -13.414578 
L 42.314662 -13.414777 
L 42.462814 -13.420547 
L 42.610967 -13.431409 
L 42.759119 -13.444257 
L 42.907272 -13.455079 
L 43.055424 -13.46152 
L 43.203577 -13.464338 
L 43.351729 -13.466614 
L 43.499882 -13.471641 
L 43.648034 -13.48151 
L 43.796186 -13.497225 
L 43.944339 -13.519292 
L 44.092491 -13.547524 
L 44.240644 -13.580363 
L 44.388796 -13.615146 
L 44.536949 -13.649913 
L 44.685101 -13.685585 
L 44.833253 -13.726802 
L 44.981406 -13.780607 
L 45.129558 -13.853482 
L 45.277711 -13.948022 
L 45.425863 -14.061194 
L 45.574016 -14.186066 
L 45.722168 -14.316863 
L 45.870321 -14.454137 
L 46.018473 -14.60618 
L 46.166625 -14.785769 
L 46.314778 -15.004591 
L 46.46293 -15.26875 
L 46.611083 -15.578829 
L 46.759235 -15.937662 
L 46.907388 -16.362902 
L 47.05554 -16.888104 
L 47.203693 -17.530277 
L 47.351845 -18.22681 
L 47.499997 -18.794176 
L 47.64815 -18.9783 
L 47.796302 -18.59959 
L 47.796302 -8.13041 
L 47.796302 -8.13041 
L 47.64815 -7.7517 
L 47.499997 -7.935824 
L 47.351845 -8.50319 
L 47.203693 -9.199723 
L 47.05554 -9.841896 
L 46.907388 -10.367098 
L 46.759235 -10.792338 
L 46.611083 -11.151171 
L 46.46293 -11.46125 
L 46.314778 -11.725409 
L 46.166625 -11.944231 
L 46.018473 -12.12382 
L 45.870321 -12.275863 
L 45.722168 -12.413137 
L 45.574016 -12.543934 
L 45.425863 -12.668806 
L 45.277711 -12.781978 
L 45.129558 -12.876518 
L 44.981406 -12.949393 
L 44.833253 -13.003198 
L 44.685101 -13.044415 
L 44.536949 -13.080087 
L 44.388796 -13.114854 
L 44.240644 -13.149637 
L 44.092491 -13.182476 
L 43.944339 -13.210708 
L 43.796186 -13.232775 
L 43.648034 -13.24849 
L 43.499882 -13.258359 
L 43.351729 -13.263386 
L 43.203577 -13.265662 
L 43.055424 -13.26848 
L 42.907272 -13.274921 
L 42.759119 -13.285743 
L 42.610967 -13.298591 
L 42.462814 -13.309453 
L 42.314662 -13.315223 
L 42.16651 -13.315422 
L 42.018357 -13.312082 
L 41.870205 -13.308266 
L 41.722052 -13.306389 
L 41.5739 -13.307342 
L 41.425747 -13.310724 
L 41.277595 -13.315744 
L 41.129442 -13.321889 
L 40.98129 -13.328846 
L 40.833138 -13.336013 
L 40.684985 -13.342408 
L 40.536833 -13.347224 
L 40.38868 -13.350437 
L 40.240528 -13.352762 
L 40.092375 -13.355014 
L 39.944223 -13.357512 
L 39.79607 -13.360019 
L 39.647918 -13.362115 
L 39.499766 -13.363556 
L 39.351613 -13.364378 
L 39.203461 -13.364764 
L 39.055308 -13.364895 
L 38.907156 -13.364848 
L 38.759003 -13.364532 
L 38.610851 -13.363598 
L 38.462698 -13.361355 
L 38.314546 -13.356841 
L 38.166394 -13.349291 
L 38.018241 -13.338992 
L 37.870089 -13.327972 
L 37.721936 -13.319677 
L 37.573784 -13.317308 
L 37.425631 -13.321864 
L 37.277479 -13.331469 
L 37.129326 -13.342602 
L 36.981174 -13.352145 
L 36.833022 -13.358661 
L 36.684869 -13.362314 
L 36.536717 -13.364016 
L 36.388564 -13.364665 
L 36.240412 -13.364813 
L 36.092259 -13.364664 
L 35.944107 -13.364178 
L 35.795954 -13.363191 
L 35.647802 -13.361571 
L 35.49965 -13.359425 
L 35.351497 -13.357223 
L 35.203345 -13.355694 
L 35.055192 -13.355439 
L 34.90704 -13.356539 
L 34.758887 -13.358463 
L 34.610735 -13.360347 
L 34.462582 -13.361403 
L 34.31443 -13.361168 
L 34.166278 -13.359558 
L 34.018125 -13.356809 
L 33.869973 -13.353354 
L 33.72182 -13.349666 
L 33.573668 -13.346178 
L 33.425515 -13.343393 
L 33.277363 -13.342004 
L 33.129211 -13.342702 
z
"/>
    </defs>
    <g clip-path="url(#p99e4efb33f)">
     <use xlink:href="#madf304bc2d" x="0" y="64.8" style="fill: #126175; fill-opacity: 0.5"/>
    </g>
   </g>
   <g id="matplotlib.axis_1">
    <g id="xtick_1">
     <g id="line2d_1">
      <defs>
       <path id="m506eb49af6" d="M 0 0 
L 0 1.7 
" style="stroke: #000000; stroke-width: 0.25"/>
      </defs>
      <g>
       <use xlink:href="#m506eb49af6" x="7.2" y="58.672" style="stroke: #000000; stroke-width: 0.25"/>
      </g>
     </g>
     <g id="text_1">
      <text style="font-size: 6px; font-family: 'Arial'; text-anchor: middle" x="7.2" y="66.166687" transform="rotate(-0 7.2 66.166687)">0.0</text>
     </g>
    </g>
    <g id="xtick_2">
     <g id="line2d_2">
      <g>
       <use xlink:href="#m506eb49af6" x="27.490909" y="58.672" style="stroke: #000000; stroke-width: 0.25"/>
      </g>
     </g>
     <g id="text_2">
      <text style="font-size: 6px; font-family: 'Arial'; text-anchor: middle" x="27.490909" y="66.166687" transform="rotate(-0 27.490909 66.166687)">0.5</text>
     </g>
    </g>
    <g id="xtick_3">
     <g id="line2d_3">
      <g>
       <use xlink:href="#m506eb49af6" x="47.781818" y="58.672" style="stroke: #000000; stroke-width: 0.25"/>
      </g>
     </g>
     <g id="text_3">
      <text style="font-size: 6px; font-family: 'Arial'; text-anchor: middle" x="47.781818" y="66.166687" transform="rotate(-0 47.781818 66.166687)">1.0</text>
     </g>
    </g>
    <g id="text_4">
     <text style="font-size: 8px; font-family: 'Arial'" transform="translate(-0.9275 74.585437)">motor rhythmicity</text>
     <text style="font-size: 8px; font-family: 'Arial'" transform="translate(19.739375 83.140687)">score</text>
    </g>
   </g>
   <g id="matplotlib.axis_2">
    <g id="ytick_1">
     <g id="line2d_4">
      <defs>
       <path id="m6a86698315" d="M 0 0 
L -1.7 0 
" style="stroke: #000000; stroke-width: 0.25"/>
      </defs>
      <g>
       <use xlink:href="#m6a86698315" x="5.2" y="14.013" style="stroke: #000000; stroke-width: 0.25"/>
      </g>
     </g>
     <g id="text_5">
      <text style="font-size: 6px; font-family: 'Arial'; text-anchor: end" x="2" y="16.160344" transform="rotate(-0 2 16.160344)">none</text>
     </g>
    </g>
    <g id="ytick_2">
     <g id="line2d_5">
      <g>
       <use xlink:href="#m6a86698315" x="5.2" y="26.487" style="stroke: #000000; stroke-width: 0.25"/>
      </g>
     </g>
     <g id="text_6">
      <text style="font-size: 6px; font-family: 'Arial'; text-anchor: end" x="2" y="28.634344" transform="rotate(-0 2 28.634344)">E1</text>
     </g>
    </g>
    <g id="ytick_3">
     <g id="line2d_6">
      <g>
       <use xlink:href="#m6a86698315" x="5.2" y="38.961" style="stroke: #000000; stroke-width: 0.25"/>
      </g>
     </g>
     <g id="text_7">
      <text style="font-size: 6px; font-family: 'Arial'; text-anchor: end" x="2" y="41.108344" transform="rotate(-0 2 41.108344)">E2</text>
     </g>
    </g>
    <g id="ytick_4">
     <g id="line2d_7">
      <g>
       <use xlink:href="#m6a86698315" x="5.2" y="51.435" style="stroke: #000000; stroke-width: 0.25"/>
      </g>
     </g>
     <g id="text_8">
      <text style="font-size: 6px; font-family: 'Arial'; text-anchor: end" x="2" y="53.582344" transform="rotate(-0 2 53.582344)">I1</text>
     </g>
    </g>
    <g id="text_9">
     <text style="font-size: 8px; font-family: 'Arial'; text-anchor: middle" x="-14.43625" y="32.724" transform="rotate(-90 -14.43625 32.724)">silenced neuron</text>
    </g>
   </g>
   <g id="line2d_8">
    <path d="M 7.2 20.8737 
L 7.2 32.1003 
" clip-path="url(#p99e4efb33f)" style="fill: none"/>
   </g>
   <g id="patch_3">
    <path d="M 46.626254 12.7656 
L 46.626254 15.2604 
L 47.750704 15.2604 
L 47.750704 12.7656 
L 46.626254 12.7656 
z
" clip-path="url(#p99e4efb33f)" style="fill: #306c53; stroke: #282828; stroke-width: 0.75; stroke-linejoin: miter"/>
   </g>
   <g id="line2d_9">
    <path d="M 46.626254 14.013 
L 44.976286 14.013 
" clip-path="url(#p99e4efb33f)" style="fill: none; stroke: #282828; stroke-width: 0.75"/>
   </g>
   <g id="line2d_10">
    <path d="M 47.750704 14.013 
L 47.792379 14.013 
" clip-path="url(#p99e4efb33f)" style="fill: none; stroke: #282828; stroke-width: 0.75"/>
   </g>
   <g id="line2d_11">
    <path d="M 44.976286 13.3893 
L 44.976286 14.6367 
" clip-path="url(#p99e4efb33f)" style="fill: none; stroke: #282828; stroke-width: 0.75; stroke-linecap: square"/>
   </g>
   <g id="line2d_12">
    <path d="M 47.792379 13.3893 
L 47.792379 14.6367 
" clip-path="url(#p99e4efb33f)" style="fill: none; stroke: #282828; stroke-width: 0.75; stroke-linecap: square"/>
   </g>
   <g id="patch_4">
    <path d="M 7.2 25.2396 
L 7.2 27.7344 
L 7.2 27.7344 
L 7.2 25.2396 
L 7.2 25.2396 
z
" clip-path="url(#p99e4efb33f)" style="fill: #c35843; stroke: #282828; stroke-width: 0.75; stroke-linejoin: miter"/>
   </g>
   <g id="line2d_13">
    <path d="M 7.2 26.487 
L 7.2 26.487 
" clip-path="url(#p99e4efb33f)" style="fill: none; stroke: #282828; stroke-width: 0.75"/>
   </g>
   <g id="line2d_14">
    <path d="M 7.2 26.487 
L 7.2 26.487 
" clip-path="url(#p99e4efb33f)" style="fill: none; stroke: #282828; stroke-width: 0.75"/>
   </g>
   <g id="line2d_15">
    <path d="M 7.2 25.8633 
L 7.2 27.1107 
" clip-path="url(#p99e4efb33f)" style="fill: none; stroke: #282828; stroke-width: 0.75; stroke-linecap: square"/>
   </g>
   <g id="line2d_16">
    <path d="M 7.2 25.8633 
L 7.2 27.1107 
" clip-path="url(#p99e4efb33f)" style="fill: none; stroke: #282828; stroke-width: 0.75; stroke-linecap: square"/>
   </g>
   <g id="patch_5">
    <path d="M 7.2 37.7136 
L 7.2 40.2084 
L 7.2 40.2084 
L 7.2 37.7136 
L 7.2 37.7136 
z
" clip-path="url(#p99e4efb33f)" style="fill: #f0a394; stroke: #282828; stroke-width: 0.75; stroke-linejoin: miter"/>
   </g>
   <g id="line2d_17">
    <path d="M 7.2 38.961 
L 7.2 38.961 
" clip-path="url(#p99e4efb33f)" style="fill: none; stroke: #282828; stroke-width: 0.75"/>
   </g>
   <g id="line2d_18">
    <path d="M 7.2 38.961 
L 7.2 38.961 
" clip-path="url(#p99e4efb33f)" style="fill: none; stroke: #282828; stroke-width: 0.75"/>
   </g>
   <g id="line2d_19">
    <path d="M 7.2 38.3373 
L 7.2 39.5847 
" clip-path="url(#p99e4efb33f)" style="fill: none; stroke: #282828; stroke-width: 0.75; stroke-linecap: square"/>
   </g>
   <g id="line2d_20">
    <path d="M 7.2 38.3373 
L 7.2 39.5847 
" clip-path="url(#p99e4efb33f)" style="fill: none; stroke: #282828; stroke-width: 0.75; stroke-linecap: square"/>
   </g>
   <g id="patch_6">
    <path d="M 46.668156 50.1876 
L 46.668156 52.6824 
L 47.747392 52.6824 
L 47.747392 50.1876 
L 46.668156 50.1876 
z
" clip-path="url(#p99e4efb33f)" style="fill: #126175; stroke: #282828; stroke-width: 0.75; stroke-linejoin: miter"/>
   </g>
   <g id="line2d_21">
    <path d="M 46.668156 51.435 
L 45.081954 51.435 
" clip-path="url(#p99e4efb33f)" style="fill: none; stroke: #282828; stroke-width: 0.75"/>
   </g>
   <g id="line2d_22">
    <path d="M 47.747392 51.435 
L 47.796302 51.435 
" clip-path="url(#p99e4efb33f)" style="fill: none; stroke: #282828; stroke-width: 0.75"/>
   </g>
   <g id="line2d_23">
    <path d="M 45.081954 50.8113 
L 45.081954 52.0587 
" clip-path="url(#p99e4efb33f)" style="fill: none; stroke: #282828; stroke-width: 0.75; stroke-linecap: square"/>
   </g>
   <g id="line2d_24">
    <path d="M 47.796302 50.8113 
L 47.796302 52.0587 
" clip-path="url(#p99e4efb33f)" style="fill: none; stroke: #282828; stroke-width: 0.75; stroke-linecap: square"/>
   </g>
   <g id="line2d_25">
    <path d="M 47.474171 12.7656 
L 47.474171 15.2604 
" clip-path="url(#p99e4efb33f)" style="fill: none; stroke: #282828; stroke-width: 0.75"/>
   </g>
   <g id="line2d_26">
    <path d="M 7.2 25.2396 
L 7.2 27.7344 
" clip-path="url(#p99e4efb33f)" style="fill: none; stroke: #282828; stroke-width: 0.75"/>
   </g>
   <g id="line2d_27">
    <path d="M 7.2 37.7136 
L 7.2 40.2084 
" clip-path="url(#p99e4efb33f)" style="fill: none; stroke: #282828; stroke-width: 0.75"/>
   </g>
   <g id="line2d_28">
    <path d="M 47.440512 50.1876 
L 47.440512 52.6824 
" clip-path="url(#p99e4efb33f)" style="fill: none; stroke: #282828; stroke-width: 0.75"/>
   </g>
   <g id="patch_7">
    <path d="M 5.2 57.672 
L 5.2 7.776 
" style="fill: none; stroke: #000000; stroke-width: 0.25; stroke-linejoin: miter; stroke-linecap: square"/>
   </g>
   <g id="patch_8">
    <path d="M 7.2 58.672 
L 51.84 58.672 
" style="fill: none; stroke: #000000; stroke-width: 0.25; stroke-linejoin: miter; stroke-linecap: square"/>
   </g>
  </g>
 </g>
 <defs>
  <clipPath id="p99e4efb33f">
   <rect x="7.2" y="7.776" width="44.64" height="49.896"/>
  </clipPath>
 </defs>
</svg>
