<?xml version="1.0" encoding="utf-8" standalone="no"?>
<!DOCTYPE svg PUBLIC "-//W3C//DTD SVG 1.1//EN"
  "http://www.w3.org/Graphics/SVG/1.1/DTD/svg11.dtd">
<svg xmlns:xlink="http://www.w3.org/1999/xlink" width="57.6pt" height="50.4pt" viewBox="0 0 57.6 50.4" xmlns="http://www.w3.org/2000/svg" version="1.1">
 <metadata>
  <rdf:RDF xmlns:dc="http://purl.org/dc/elements/1.1/" xmlns:cc="http://creativecommons.org/ns#" xmlns:rdf="http://www.w3.org/1999/02/22-rdf-syntax-ns#">
   <cc:Work>
    <dc:type rdf:resource="http://purl.org/dc/dcmitype/StillImage"/>
    <dc:date>2025-09-04T00:16:24.541882</dc:date>
    <dc:format>image/svg+xml</dc:format>
    <dc:creator>
     <cc:Agent>
      <dc:title>Matplotlib v3.10.3, https://matplotlib.org/</dc:title>
     </cc:Agent>
    </dc:creator>
   </cc:Work>
  </rdf:RDF>
 </metadata>
 <defs>
  <style type="text/css">*{stroke-linejoin: round; stroke-linecap: butt}</style>
 </defs>
 <g id="figure_1">
  <g id="patch_1">
   <path d="M 0 50.4 
L 57.6 50.4 
L 57.6 0 
L 0 0 
L 0 50.4 
z
" style="fill: none"/>
  </g>
  <g id="axes_1">
   <g id="patch_2">
    <path d="M 7.2 44.856 
L 51.84 44.856 
L 51.84 6.048 
L 7.2 6.048 
L 7.2 44.856 
z
" style="fill: none"/>
   </g>
   <g id="FillBetweenPolyCollection_1">
    <defs>
     <path id="me07e591291" d="M 30.698638 -39.493895 
L 30.698638 -39.508105 
L 30.871302 -39.507508 
L 31.043966 -39.506002 
L 31.21663 -39.504225 
L 31.389295 -39.502745 
L 31.561959 -39.501792 
L 31.734623 -39.501302 
L 31.907287 -39.501096 
L 32.079951 -39.501026 
L 32.252615 -39.501006 
L 32.425279 -39.501001 
L 32.597943 -39.501002 
L 32.770607 -39.501007 
L 32.943271 -39.501032 
L 33.115935 -39.501116 
L 33.288599 -39.501353 
L 33.461263 -39.501902 
L 33.633927 -39.502935 
L 33.806591 -39.504485 
L 33.979255 -39.506269 
L 34.151919 -39.5077 
L 34.324583 -39.508207 
L 34.497247 -39.507685 
L 34.669911 -39.506672 
L 34.842575 -39.506045 
L 35.01524 -39.506482 
L 35.187904 -39.508074 
L 35.360568 -39.51036 
L 35.533232 -39.512659 
L 35.705896 -39.514442 
L 35.87856 -39.515463 
L 36.051224 -39.515642 
L 36.223888 -39.514946 
L 36.396552 -39.513458 
L 36.569216 -39.511616 
L 36.74188 -39.510328 
L 36.914544 -39.510704 
L 37.087208 -39.513378 
L 37.259872 -39.51784 
L 37.432536 -39.522452 
L 37.6052 -39.525399 
L 37.777864 -39.525887 
L 37.950528 -39.524464 
L 38.123192 -39.522175 
L 38.295856 -39.519557 
L 38.46852 -39.516569 
L 38.641184 -39.513285 
L 38.813849 -39.510445 
L 38.986513 -39.509284 
L 39.159177 -39.510912 
L 39.331841 -39.515682 
L 39.504505 -39.522837 
L 39.677169 -39.530704 
L 39.849833 -39.537499 
L 40.022497 -39.542346 
L 40.195161 -39.545602 
L 40.367825 -39.54809 
L 40.540489 -39.549947 
L 40.713153 -39.550333 
L 40.885817 -39.548332 
L 41.058481 -39.544052 
L 41.231145 -39.538751 
L 41.403809 -39.534036 
L 41.576473 -39.531097 
L 41.749137 -39.5307 
L 41.921801 -39.533494 
L 42.094465 -39.539826 
L 42.267129 -39.549053 
L 42.439794 -39.559328 
L 42.612458 -39.56854 
L 42.785122 -39.575696 
L 42.957786 -39.581547 
L 43.13045 -39.5881 
L 43.303114 -39.597556 
L 43.475778 -39.611292 
L 43.648442 -39.629331 
L 43.821106 -39.650733 
L 43.99377 -39.674712 
L 44.166434 -39.701419 
L 44.339098 -39.731403 
L 44.511762 -39.764463 
L 44.684426 -39.799643 
L 44.85709 -39.836864 
L 45.029754 -39.87837 
L 45.202418 -39.928351 
L 45.375082 -39.991502 
L 45.547746 -40.072517 
L 45.72041 -40.176704 
L 45.893074 -40.309597 
L 46.065738 -40.474127 
L 46.238403 -40.667838 
L 46.411067 -40.885782 
L 46.583731 -41.132104 
L 46.756395 -41.433955 
L 46.929059 -41.840492 
L 47.101723 -42.388177 
L 47.274387 -43.035164 
L 47.447051 -43.612649 
L 47.619715 -43.8669 
L 47.792379 -43.607391 
L 47.792379 -35.394609 
L 47.792379 -35.394609 
L 47.619715 -35.1351 
L 47.447051 -35.389351 
L 47.274387 -35.966836 
L 47.101723 -36.613823 
L 46.929059 -37.161508 
L 46.756395 -37.568045 
L 46.583731 -37.869896 
L 46.411067 -38.116218 
L 46.238403 -38.334162 
L 46.065738 -38.527873 
L 45.893074 -38.692403 
L 45.72041 -38.825296 
L 45.547746 -38.929483 
L 45.375082 -39.010498 
L 45.202418 -39.073649 
L 45.029754 -39.12363 
L 44.85709 -39.165136 
L 44.684426 -39.202357 
L 44.511762 -39.237537 
L 44.339098 -39.270597 
L 44.166434 -39.300581 
L 43.99377 -39.327288 
L 43.821106 -39.351267 
L 43.648442 -39.372669 
L 43.475778 -39.390708 
L 43.303114 -39.404444 
L 43.13045 -39.4139 
L 42.957786 -39.420453 
L 42.785122 -39.426304 
L 42.612458 -39.43346 
L 42.439794 -39.442672 
L 42.267129 -39.452947 
L 42.094465 -39.462174 
L 41.921801 -39.468506 
L 41.749137 -39.4713 
L 41.576473 -39.470903 
L 41.403809 -39.467964 
L 41.231145 -39.463249 
L 41.058481 -39.457948 
L 40.885817 -39.453668 
L 40.713153 -39.451667 
L 40.540489 -39.452053 
L 40.367825 -39.45391 
L 40.195161 -39.456398 
L 40.022497 -39.459654 
L 39.849833 -39.464501 
L 39.677169 -39.471296 
L 39.504505 -39.479163 
L 39.331841 -39.486318 
L 39.159177 -39.491088 
L 38.986513 -39.492716 
L 38.813849 -39.491555 
L 38.641184 -39.488715 
L 38.46852 -39.485431 
L 38.295856 -39.482443 
L 38.123192 -39.479825 
L 37.950528 -39.477536 
L 37.777864 -39.476113 
L 37.6052 -39.476601 
L 37.432536 -39.479548 
L 37.259872 -39.48416 
L 37.087208 -39.488622 
L 36.914544 -39.491296 
L 36.74188 -39.491672 
L 36.569216 -39.490384 
L 36.396552 -39.488542 
L 36.223888 -39.487054 
L 36.051224 -39.486358 
L 35.87856 -39.486537 
L 35.705896 -39.487558 
L 35.533232 -39.489341 
L 35.360568 -39.49164 
L 35.187904 -39.493926 
L 35.01524 -39.495518 
L 34.842575 -39.495955 
L 34.669911 -39.495328 
L 34.497247 -39.494315 
L 34.324583 -39.493793 
L 34.151919 -39.4943 
L 33.979255 -39.495731 
L 33.806591 -39.497515 
L 33.633927 -39.499065 
L 33.461263 -39.500098 
L 33.288599 -39.500647 
L 33.115935 -39.500884 
L 32.943271 -39.500968 
L 32.770607 -39.500993 
L 32.597943 -39.500998 
L 32.425279 -39.500999 
L 32.252615 -39.500994 
L 32.079951 -39.500974 
L 31.907287 -39.500904 
L 31.734623 -39.500698 
L 31.561959 -39.500208 
L 31.389295 -39.499255 
L 31.21663 -39.497775 
L 31.043966 -39.495998 
L 30.871302 -39.494492 
L 30.698638 -39.493895 
z
"/>
    </defs>
    <g clip-path="url(#pcb2a03ae88)">
     <use xlink:href="#me07e591291" x="0" y="50.4" style="fill: #306c53; fill-opacity: 0.5"/>
    </g>
   </g>
   <g id="FillBetweenPolyCollection_2">
    <defs>
     <path id="m18c7a0ea3c" d="M 7.2 -15.7311 
L 7.2 -24.4629 
L 7.379397 -23.846622 
L 7.558793 -22.471172 
L 7.73819 -21.205696 
L 7.917586 -20.479122 
L 8.096983 -20.194336 
L 8.27638 -20.115371 
L 8.455776 -20.099582 
L 8.635173 -20.097279 
L 8.814569 -20.097062 
L 8.993966 -20.09719 
L 9.173363 -20.097647 
L 9.352759 -20.098635 
L 9.532156 -20.100049 
L 9.711552 -20.101222 
L 9.890949 -20.101477 
L 10.070346 -20.101175 
L 10.249742 -20.101799 
L 10.429139 -20.104483 
L 10.608535 -20.108351 
L 10.787932 -20.110871 
L 10.967329 -20.11053 
L 11.146725 -20.108512 
L 11.326122 -20.106849 
L 11.505518 -20.105958 
L 11.684915 -20.105001 
L 11.864312 -20.103772 
L 12.043708 -20.103261 
L 12.223105 -20.104323 
L 12.402501 -20.106284 
L 12.581898 -20.107545 
L 12.761295 -20.107558 
L 12.940691 -20.107359 
L 13.120088 -20.108138 
L 13.299484 -20.109961 
L 13.478881 -20.111692 
L 13.658278 -20.111898 
L 13.837674 -20.110141 
L 14.017071 -20.107319 
L 14.196467 -20.104756 
L 14.375864 -20.103238 
L 14.555261 -20.102595 
L 14.734657 -20.102052 
L 14.914054 -20.101354 
L 15.093451 -20.101297 
L 15.272847 -20.102646 
L 15.452244 -20.10472 
L 15.63164 -20.105671 
L 15.811037 -20.104401 
L 15.990434 -20.101717 
L 16.16983 -20.099246 
L 16.349227 -20.097856 
L 16.528623 -20.097512 
L 16.70802 -20.098063 
L 16.887417 -20.099639 
L 17.066813 -20.102366 
L 17.24621 -20.105918 
L 17.425606 -20.109373 
L 17.605003 -20.111353 
L 17.7844 -20.110656 
L 17.963796 -20.107363 
L 18.143193 -20.103119 
L 18.322589 -20.099762 
L 18.501986 -20.097942 
L 18.681383 -20.097241 
L 18.860779 -20.097046 
L 19.040176 -20.097008 
L 19.219572 -20.097009 
L 19.398969 -20.097052 
L 19.578366 -20.09723 
L 19.757762 -20.097755 
L 19.937159 -20.098824 
L 20.116555 -20.100248 
L 20.295952 -20.101263 
L 20.475349 -20.101123 
L 20.654745 -20.099939 
L 20.834142 -20.098544 
L 21.013538 -20.097598 
L 21.192935 -20.09717 
L 21.372332 -20.097036 
L 21.551728 -20.097006 
L 21.731125 -20.097001 
L 21.910521 -20.097 
L 22.089918 -20.097 
L 22.269315 -20.097 
L 22.448711 -20.097 
L 22.628108 -20.097 
L 22.807504 -20.097 
L 22.986901 -20.097002 
L 23.166298 -20.097012 
L 23.345694 -20.097069 
L 23.525091 -20.097292 
L 23.704487 -20.097908 
L 23.883884 -20.099088 
L 24.063281 -20.100586 
L 24.242677 -20.101714 
L 24.422074 -20.102072 
L 24.60147 -20.102046 
L 24.780867 -20.102076 
L 24.960264 -20.101851 
L 24.960264 -20.092149 
L 24.960264 -20.092149 
L 24.780867 -20.091924 
L 24.60147 -20.091954 
L 24.422074 -20.091928 
L 24.242677 -20.092286 
L 24.063281 -20.093414 
L 23.883884 -20.094912 
L 23.704487 -20.096092 
L 23.525091 -20.096708 
L 23.345694 -20.096931 
L 23.166298 -20.096988 
L 22.986901 -20.096998 
L 22.807504 -20.097 
L 22.628108 -20.097 
L 22.448711 -20.097 
L 22.269315 -20.097 
L 22.089918 -20.097 
L 21.910521 -20.097 
L 21.731125 -20.096999 
L 21.551728 -20.096994 
L 21.372332 -20.096964 
L 21.192935 -20.09683 
L 21.013538 -20.096402 
L 20.834142 -20.095456 
L 20.654745 -20.094061 
L 20.475349 -20.092877 
L 20.295952 -20.092737 
L 20.116555 -20.093752 
L 19.937159 -20.095176 
L 19.757762 -20.096245 
L 19.578366 -20.09677 
L 19.398969 -20.096948 
L 19.219572 -20.096991 
L 19.040176 -20.096992 
L 18.860779 -20.096954 
L 18.681383 -20.096759 
L 18.501986 -20.096058 
L 18.322589 -20.094238 
L 18.143193 -20.090881 
L 17.963796 -20.086637 
L 17.7844 -20.083344 
L 17.605003 -20.082647 
L 17.425606 -20.084627 
L 17.24621 -20.088082 
L 17.066813 -20.091634 
L 16.887417 -20.094361 
L 16.70802 -20.095937 
L 16.528623 -20.096488 
L 16.349227 -20.096144 
L 16.16983 -20.094754 
L 15.990434 -20.092283 
L 15.811037 -20.089599 
L 15.63164 -20.088329 
L 15.452244 -20.08928 
L 15.272847 -20.091354 
L 15.093451 -20.092703 
L 14.914054 -20.092646 
L 14.734657 -20.091948 
L 14.555261 -20.091405 
L 14.375864 -20.090762 
L 14.196467 -20.089244 
L 14.017071 -20.086681 
L 13.837674 -20.083859 
L 13.658278 -20.082102 
L 13.478881 -20.082308 
L 13.299484 -20.084039 
L 13.120088 -20.085862 
L 12.940691 -20.086641 
L 12.761295 -20.086442 
L 12.581898 -20.086455 
L 12.402501 -20.087716 
L 12.223105 -20.089677 
L 12.043708 -20.090739 
L 11.864312 -20.090228 
L 11.684915 -20.088999 
L 11.505518 -20.088042 
L 11.326122 -20.087151 
L 11.146725 -20.085488 
L 10.967329 -20.08347 
L 10.787932 -20.083129 
L 10.608535 -20.085649 
L 10.429139 -20.089517 
L 10.249742 -20.092201 
L 10.070346 -20.092825 
L 9.890949 -20.092523 
L 9.711552 -20.092778 
L 9.532156 -20.093951 
L 9.352759 -20.095365 
L 9.173363 -20.096353 
L 8.993966 -20.09681 
L 8.814569 -20.096938 
L 8.635173 -20.096721 
L 8.455776 -20.094418 
L 8.27638 -20.078629 
L 8.096983 -19.999664 
L 7.917586 -19.714878 
L 7.73819 -18.988304 
L 7.558793 -17.722828 
L 7.379397 -16.347378 
L 7.2 -15.7311 
z
"/>
    </defs>
    <g clip-path="url(#pcb2a03ae88)">
     <use xlink:href="#m18c7a0ea3c" x="0" y="50.4" style="fill: #f0a394; fill-opacity: 0.5"/>
    </g>
   </g>
   <g id="FillBetweenPolyCollection_3">
    <defs>
     <path id="mfbee3732eb" d="M 33.129211 -10.377657 
L 33.129211 -10.412343 
L 33.277363 -10.412886 
L 33.425515 -10.411806 
L 33.573668 -10.409639 
L 33.72182 -10.406926 
L 33.869973 -10.404058 
L 34.018125 -10.401371 
L 34.166278 -10.399233 
L 34.31443 -10.397981 
L 34.462582 -10.397798 
L 34.610735 -10.398619 
L 34.758887 -10.400084 
L 34.90704 -10.40158 
L 35.055192 -10.402436 
L 35.203345 -10.402238 
L 35.351497 -10.401049 
L 35.49965 -10.399336 
L 35.647802 -10.397667 
L 35.795954 -10.396407 
L 35.944107 -10.395639 
L 36.092259 -10.395262 
L 36.240412 -10.395146 
L 36.388564 -10.395261 
L 36.536717 -10.395765 
L 36.684869 -10.397089 
L 36.833022 -10.39993 
L 36.981174 -10.404998 
L 37.129326 -10.412421 
L 37.277479 -10.42108 
L 37.425631 -10.42855 
L 37.573784 -10.432094 
L 37.721936 -10.430251 
L 37.870089 -10.423799 
L 38.018241 -10.415229 
L 38.166394 -10.407218 
L 38.314546 -10.401346 
L 38.462698 -10.397835 
L 38.610851 -10.39609 
L 38.759003 -10.395364 
L 38.907156 -10.395118 
L 39.055308 -10.395082 
L 39.203461 -10.395184 
L 39.351613 -10.395484 
L 39.499766 -10.396123 
L 39.647918 -10.397244 
L 39.79607 -10.398874 
L 39.944223 -10.400824 
L 40.092375 -10.402767 
L 40.240528 -10.404519 
L 40.38868 -10.406327 
L 40.536833 -10.408826 
L 40.684985 -10.412572 
L 40.833138 -10.417545 
L 40.98129 -10.42312 
L 41.129442 -10.428531 
L 41.277595 -10.43331 
L 41.425747 -10.437214 
L 41.5739 -10.439845 
L 41.722052 -10.440586 
L 41.870205 -10.439127 
L 42.018357 -10.436158 
L 42.16651 -10.43356 
L 42.314662 -10.433715 
L 42.462814 -10.438203 
L 42.610967 -10.446651 
L 42.759119 -10.456644 
L 42.907272 -10.465061 
L 43.055424 -10.470071 
L 43.203577 -10.472263 
L 43.351729 -10.474033 
L 43.499882 -10.477943 
L 43.648034 -10.485619 
L 43.796186 -10.497842 
L 43.944339 -10.515005 
L 44.092491 -10.536963 
L 44.240644 -10.562504 
L 44.388796 -10.589558 
L 44.536949 -10.616599 
L 44.685101 -10.644344 
L 44.833253 -10.676401 
L 44.981406 -10.71825 
L 45.129558 -10.774931 
L 45.277711 -10.848462 
L 45.425863 -10.936484 
L 45.574016 -11.033607 
L 45.722168 -11.135338 
L 45.870321 -11.242107 
L 46.018473 -11.360363 
L 46.166625 -11.500042 
L 46.314778 -11.670238 
L 46.46293 -11.875695 
L 46.611083 -12.116867 
L 46.759235 -12.395959 
L 46.907388 -12.726701 
L 47.05554 -13.135192 
L 47.203693 -13.63466 
L 47.351845 -14.176408 
L 47.499997 -14.617693 
L 47.64815 -14.7609 
L 47.796302 -14.466348 
L 47.796302 -6.323652 
L 47.796302 -6.323652 
L 47.64815 -6.0291 
L 47.499997 -6.172307 
L 47.351845 -6.613592 
L 47.203693 -7.15534 
L 47.05554 -7.654808 
L 46.907388 -8.063299 
L 46.759235 -8.394041 
L 46.611083 -8.673133 
L 46.46293 -8.914305 
L 46.314778 -9.119762 
L 46.166625 -9.289958 
L 46.018473 -9.429637 
L 45.870321 -9.547893 
L 45.722168 -9.654662 
L 45.574016 -9.756393 
L 45.425863 -9.853516 
L 45.277711 -9.941538 
L 45.129558 -10.015069 
L 44.981406 -10.07175 
L 44.833253 -10.113599 
L 44.685101 -10.145656 
L 44.536949 -10.173401 
L 44.388796 -10.200442 
L 44.240644 -10.227496 
L 44.092491 -10.253037 
L 43.944339 -10.274995 
L 43.796186 -10.292158 
L 43.648034 -10.304381 
L 43.499882 -10.312057 
L 43.351729 -10.315967 
L 43.203577 -10.317737 
L 43.055424 -10.319929 
L 42.907272 -10.324939 
L 42.759119 -10.333356 
L 42.610967 -10.343349 
L 42.462814 -10.351797 
L 42.314662 -10.356285 
L 42.16651 -10.35644 
L 42.018357 -10.353842 
L 41.870205 -10.350873 
L 41.722052 -10.349414 
L 41.5739 -10.350155 
L 41.425747 -10.352786 
L 41.277595 -10.35669 
L 41.129442 -10.361469 
L 40.98129 -10.36688 
L 40.833138 -10.372455 
L 40.684985 -10.377428 
L 40.536833 -10.381174 
L 40.38868 -10.383673 
L 40.240528 -10.385481 
L 40.092375 -10.387233 
L 39.944223 -10.389176 
L 39.79607 -10.391126 
L 39.647918 -10.392756 
L 39.499766 -10.393877 
L 39.351613 -10.394516 
L 39.203461 -10.394816 
L 39.055308 -10.394918 
L 38.907156 -10.394882 
L 38.759003 -10.394636 
L 38.610851 -10.39391 
L 38.462698 -10.392165 
L 38.314546 -10.388654 
L 38.166394 -10.382782 
L 38.018241 -10.374771 
L 37.870089 -10.366201 
L 37.721936 -10.359749 
L 37.573784 -10.357906 
L 37.425631 -10.36145 
L 37.277479 -10.36892 
L 37.129326 -10.377579 
L 36.981174 -10.385002 
L 36.833022 -10.39007 
L 36.684869 -10.392911 
L 36.536717 -10.394235 
L 36.388564 -10.394739 
L 36.240412 -10.394854 
L 36.092259 -10.394738 
L 35.944107 -10.394361 
L 35.795954 -10.393593 
L 35.647802 -10.392333 
L 35.49965 -10.390664 
L 35.351497 -10.388951 
L 35.203345 -10.387762 
L 35.055192 -10.387564 
L 34.90704 -10.38842 
L 34.758887 -10.389916 
L 34.610735 -10.391381 
L 34.462582 -10.392202 
L 34.31443 -10.392019 
L 34.166278 -10.390767 
L 34.018125 -10.388629 
L 33.869973 -10.385942 
L 33.72182 -10.383074 
L 33.573668 -10.380361 
L 33.425515 -10.378194 
L 33.277363 -10.377114 
L 33.129211 -10.377657 
z
"/>
    </defs>
    <g clip-path="url(#pcb2a03ae88)">
     <use xlink:href="#mfbee3732eb" x="0" y="50.4" style="fill: #126175; fill-opacity: 0.5"/>
    </g>
   </g>
   <g id="matplotlib.axis_1">
    <g id="xtick_1">
     <g id="line2d_1">
      <defs>
       <path id="m690e12bfc4" d="M 0 0 
L 0 1.7 
" style="stroke: #000000; stroke-width: 0.25"/>
      </defs>
      <g>
       <use xlink:href="#m690e12bfc4" x="7.2" y="45.856" style="stroke: #000000; stroke-width: 0.25"/>
      </g>
     </g>
     <g id="text_1">
      <text style="font-size: 6px; font-family: 'Arial'; text-anchor: middle" x="7.2" y="53.350687" transform="rotate(-0 7.2 53.350687)">0.0</text>
     </g>
    </g>
    <g id="xtick_2">
     <g id="line2d_2">
      <g>
       <use xlink:href="#m690e12bfc4" x="27.490909" y="45.856" style="stroke: #000000; stroke-width: 0.25"/>
      </g>
     </g>
     <g id="text_2">
      <text style="font-size: 6px; font-family: 'Arial'; text-anchor: middle" x="27.490909" y="53.350687" transform="rotate(-0 27.490909 53.350687)">0.5</text>
     </g>
    </g>
    <g id="xtick_3">
     <g id="line2d_3">
      <g>
       <use xlink:href="#m690e12bfc4" x="47.781818" y="45.856" style="stroke: #000000; stroke-width: 0.25"/>
      </g>
     </g>
     <g id="text_3">
      <text style="font-size: 6px; font-family: 'Arial'; text-anchor: middle" x="47.781818" y="53.350687" transform="rotate(-0 47.781818 53.350687)">1.0</text>
     </g>
    </g>
    <g id="text_4">
     <text style="font-size: 8px; font-family: 'Arial'" transform="translate(-0.9275 61.769437)">motor rhythmicity</text>
     <text style="font-size: 8px; font-family: 'Arial'" transform="translate(19.739375 70.324687)">score</text>
    </g>
   </g>
   <g id="matplotlib.axis_2">
    <g id="ytick_1">
     <g id="line2d_4">
      <defs>
       <path id="m419da22091" d="M 0 0 
L -1.7 0 
" style="stroke: #000000; stroke-width: 0.25"/>
      </defs>
      <g>
       <use xlink:href="#m419da22091" x="5.2" y="10.899" style="stroke: #000000; stroke-width: 0.25"/>
      </g>
     </g>
     <g id="text_5">
      <text style="font-size: 6px; font-family: 'Arial'; text-anchor: end" x="2" y="13.046344" transform="rotate(-0 2 13.046344)">none</text>
     </g>
    </g>
    <g id="ytick_2">
     <g id="line2d_5">
      <g>
       <use xlink:href="#m419da22091" x="5.2" y="20.601" style="stroke: #000000; stroke-width: 0.25"/>
      </g>
     </g>
     <g id="text_6">
      <text style="font-size: 6px; font-family: 'Arial'; text-anchor: end" x="2" y="22.748344" transform="rotate(-0 2 22.748344)">E1</text>
     </g>
    </g>
    <g id="ytick_3">
     <g id="line2d_6">
      <g>
       <use xlink:href="#m419da22091" x="5.2" y="30.303" style="stroke: #000000; stroke-width: 0.25"/>
      </g>
     </g>
     <g id="text_7">
      <text style="font-size: 6px; font-family: 'Arial'; text-anchor: end" x="2" y="32.450344" transform="rotate(-0 2 32.450344)">E2</text>
     </g>
    </g>
    <g id="ytick_4">
     <g id="line2d_7">
      <g>
       <use xlink:href="#m419da22091" x="5.2" y="40.005" style="stroke: #000000; stroke-width: 0.25"/>
      </g>
     </g>
     <g id="text_8">
      <text style="font-size: 6px; font-family: 'Arial'; text-anchor: end" x="2" y="42.152344" transform="rotate(-0 2 42.152344)">I1</text>
     </g>
    </g>
    <g id="text_9">
     <text style="font-size: 8px; font-family: 'Arial'; text-anchor: middle" x="-14.43625" y="25.452" transform="rotate(-90 -14.43625 25.452)">silenced neuron</text>
    </g>
   </g>
   <g id="line2d_8">
    <path d="M 7.2 16.2351 
L 7.2 24.9669 
" clip-path="url(#pcb2a03ae88)" style="fill: none"/>
   </g>
   <g id="patch_3">
    <path d="M 46.626254 9.9288 
L 46.626254 11.8692 
L 47.750704 11.8692 
L 47.750704 9.9288 
L 46.626254 9.9288 
z
" clip-path="url(#pcb2a03ae88)" style="fill: #306c53; stroke: #282828; stroke-width: 0.75; stroke-linejoin: miter"/>
   </g>
   <g id="line2d_9">
    <path d="M 46.626254 10.899 
L 44.976286 10.899 
" clip-path="url(#pcb2a03ae88)" style="fill: none; stroke: #282828; stroke-width: 0.75"/>
   </g>
   <g id="line2d_10">
    <path d="M 47.750704 10.899 
L 47.792379 10.899 
" clip-path="url(#pcb2a03ae88)" style="fill: none; stroke: #282828; stroke-width: 0.75"/>
   </g>
   <g id="line2d_11">
    <path d="M 44.976286 10.4139 
L 44.976286 11.3841 
" clip-path="url(#pcb2a03ae88)" style="fill: none; stroke: #282828; stroke-width: 0.75; stroke-linecap: square"/>
   </g>
   <g id="line2d_12">
    <path d="M 47.792379 10.4139 
L 47.792379 11.3841 
" clip-path="url(#pcb2a03ae88)" style="fill: none; stroke: #282828; stroke-width: 0.75; stroke-linecap: square"/>
   </g>
   <g id="patch_4">
    <path d="M 7.2 19.6308 
L 7.2 21.5712 
L 7.2 21.5712 
L 7.2 19.6308 
L 7.2 19.6308 
z
" clip-path="url(#pcb2a03ae88)" style="fill: #c35843; stroke: #282828; stroke-width: 0.75; stroke-linejoin: miter"/>
   </g>
   <g id="line2d_13">
    <path d="M 7.2 20.601 
L 7.2 20.601 
" clip-path="url(#pcb2a03ae88)" style="fill: none; stroke: #282828; stroke-width: 0.75"/>
   </g>
   <g id="line2d_14">
    <path d="M 7.2 20.601 
L 7.2 20.601 
" clip-path="url(#pcb2a03ae88)" style="fill: none; stroke: #282828; stroke-width: 0.75"/>
   </g>
   <g id="line2d_15">
    <path d="M 7.2 20.1159 
L 7.2 21.0861 
" clip-path="url(#pcb2a03ae88)" style="fill: none; stroke: #282828; stroke-width: 0.75; stroke-linecap: square"/>
   </g>
   <g id="line2d_16">
    <path d="M 7.2 20.1159 
L 7.2 21.0861 
" clip-path="url(#pcb2a03ae88)" style="fill: none; stroke: #282828; stroke-width: 0.75; stroke-linecap: square"/>
   </g>
   <g id="patch_5">
    <path d="M 7.2 29.3328 
L 7.2 31.2732 
L 7.2 31.2732 
L 7.2 29.3328 
L 7.2 29.3328 
z
" clip-path="url(#pcb2a03ae88)" style="fill: #f0a394; stroke: #282828; stroke-width: 0.75; stroke-linejoin: miter"/>
   </g>
   <g id="line2d_17">
    <path d="M 7.2 30.303 
L 7.2 30.303 
" clip-path="url(#pcb2a03ae88)" style="fill: none; stroke: #282828; stroke-width: 0.75"/>
   </g>
   <g id="line2d_18">
    <path d="M 7.2 30.303 
L 7.2 30.303 
" clip-path="url(#pcb2a03ae88)" style="fill: none; stroke: #282828; stroke-width: 0.75"/>
   </g>
   <g id="line2d_19">
    <path d="M 7.2 29.8179 
L 7.2 30.7881 
" clip-path="url(#pcb2a03ae88)" style="fill: none; stroke: #282828; stroke-width: 0.75; stroke-linecap: square"/>
   </g>
   <g id="line2d_20">
    <path d="M 7.2 29.8179 
L 7.2 30.7881 
" clip-path="url(#pcb2a03ae88)" style="fill: none; stroke: #282828; stroke-width: 0.75; stroke-linecap: square"/>
   </g>
   <g id="patch_6">
    <path d="M 46.668156 39.0348 
L 46.668156 40.9752 
L 47.747392 40.9752 
L 47.747392 39.0348 
L 46.668156 39.0348 
z
" clip-path="url(#pcb2a03ae88)" style="fill: #126175; stroke: #282828; stroke-width: 0.75; stroke-linejoin: miter"/>
   </g>
   <g id="line2d_21">
    <path d="M 46.668156 40.005 
L 45.081954 40.005 
" clip-path="url(#pcb2a03ae88)" style="fill: none; stroke: #282828; stroke-width: 0.75"/>
   </g>
   <g id="line2d_22">
    <path d="M 47.747392 40.005 
L 47.796302 40.005 
" clip-path="url(#pcb2a03ae88)" style="fill: none; stroke: #282828; stroke-width: 0.75"/>
   </g>
   <g id="line2d_23">
    <path d="M 45.081954 39.5199 
L 45.081954 40.4901 
" clip-path="url(#pcb2a03ae88)" style="fill: none; stroke: #282828; stroke-width: 0.75; stroke-linecap: square"/>
   </g>
   <g id="line2d_24">
    <path d="M 47.796302 39.5199 
L 47.796302 40.4901 
" clip-path="url(#pcb2a03ae88)" style="fill: none; stroke: #282828; stroke-width: 0.75; stroke-linecap: square"/>
   </g>
   <g id="line2d_25">
    <path d="M 47.474171 9.9288 
L 47.474171 11.8692 
" clip-path="url(#pcb2a03ae88)" style="fill: none; stroke: #282828; stroke-width: 0.75"/>
   </g>
   <g id="line2d_26">
    <path d="M 7.2 19.6308 
L 7.2 21.5712 
" clip-path="url(#pcb2a03ae88)" style="fill: none; stroke: #282828; stroke-width: 0.75"/>
   </g>
   <g id="line2d_27">
    <path d="M 7.2 29.3328 
L 7.2 31.2732 
" clip-path="url(#pcb2a03ae88)" style="fill: none; stroke: #282828; stroke-width: 0.75"/>
   </g>
   <g id="line2d_28">
    <path d="M 47.440512 39.0348 
L 47.440512 40.9752 
" clip-path="url(#pcb2a03ae88)" style="fill: none; stroke: #282828; stroke-width: 0.75"/>
   </g>
   <g id="patch_7">
    <path d="M 5.2 44.856 
L 5.2 6.048 
" style="fill: none; stroke: #000000; stroke-width: 0.25; stroke-linejoin: miter; stroke-linecap: square"/>
   </g>
   <g id="patch_8">
    <path d="M 7.2 45.856 
L 51.84 45.856 
" style="fill: none; stroke: #000000; stroke-width: 0.25; stroke-linejoin: miter; stroke-linecap: square"/>
   </g>
  </g>
 </g>
 <defs>
  <clipPath id="pcb2a03ae88">
   <rect x="7.2" y="6.048" width="44.64" height="38.808"/>
  </clipPath>
 </defs>
</svg>
