<?xml version="1.0" encoding="utf-8" standalone="no"?>
<!DOCTYPE svg PUBLIC "-//W3C//DTD SVG 1.1//EN"
  "http://www.w3.org/Graphics/SVG/1.1/DTD/svg11.dtd">
<svg xmlns:xlink="http://www.w3.org/1999/xlink" width="43.2pt" height="54pt" viewBox="0 0 43.2 54" xmlns="http://www.w3.org/2000/svg" version="1.1">
 <metadata>
  <rdf:RDF xmlns:dc="http://purl.org/dc/elements/1.1/" xmlns:cc="http://creativecommons.org/ns#" xmlns:rdf="http://www.w3.org/1999/02/22-rdf-syntax-ns#">
   <cc:Work>
    <dc:type rdf:resource="http://purl.org/dc/dcmitype/StillImage"/>
    <dc:date>2025-09-09T01:11:35.419192</dc:date>
    <dc:format>image/svg+xml</dc:format>
    <dc:creator>
     <cc:Agent>
      <dc:title>Matplotlib v3.10.3, https://matplotlib.org/</dc:title>
     </cc:Agent>
    </dc:creator>
   </cc:Work>
  </rdf:RDF>
 </metadata>
 <defs>
  <style type="text/css">*{stroke-linejoin: round; stroke-linecap: butt}</style>
 </defs>
 <g id="figure_1">
  <g id="patch_1">
   <path d="M 0 54 
L 43.2 54 
L 43.2 0 
L 0 0 
L 0 54 
z
" style="fill: none"/>
  </g>
  <g id="axes_1">
   <g id="patch_2">
    <path d="M 5.4 48.06 
L 38.88 48.06 
L 38.88 6.48 
L 5.4 6.48 
L 5.4 48.06 
z
" style="fill: none"/>
   </g>
   <g id="FillBetweenPolyCollection_1">
    <defs>
     <path id="m97cd590c9c" d="M 5.4 -43.345511 
L 5.4 -43.378489 
L 5.707438 -43.375465 
L 6.014876 -43.369331 
L 6.322314 -43.364662 
L 6.629752 -43.362644 
L 6.93719 -43.362104 
L 7.244628 -43.362011 
L 7.552066 -43.362001 
L 7.859504 -43.362 
L 8.166942 -43.362 
L 8.47438 -43.362 
L 8.781818 -43.362 
L 9.089256 -43.362 
L 9.396694 -43.362 
L 9.704132 -43.362 
L 10.01157 -43.362 
L 10.319008 -43.362 
L 10.626446 -43.362 
L 10.933884 -43.362 
L 11.241322 -43.362 
L 11.54876 -43.362 
L 11.856198 -43.362 
L 12.163636 -43.362 
L 12.471074 -43.362 
L 12.778512 -43.362 
L 13.08595 -43.362 
L 13.393388 -43.362 
L 13.700826 -43.362 
L 14.008264 -43.362 
L 14.315702 -43.362 
L 14.62314 -43.362 
L 14.930579 -43.362 
L 15.238017 -43.362 
L 15.545455 -43.362 
L 15.852893 -43.362 
L 16.160331 -43.362 
L 16.467769 -43.362 
L 16.775207 -43.362 
L 17.082645 -43.362 
L 17.390083 -43.362 
L 17.697521 -43.362 
L 18.004959 -43.362 
L 18.312397 -43.362003 
L 18.619835 -43.362026 
L 18.927273 -43.362173 
L 19.234711 -43.362753 
L 19.542149 -43.364187 
L 19.849587 -43.366239 
L 20.157025 -43.367477 
L 20.464463 -43.366719 
L 20.771901 -43.364711 
L 21.079339 -43.363039 
L 21.386777 -43.362265 
L 21.694215 -43.362045 
L 22.001653 -43.362005 
L 22.309091 -43.362 
L 22.616529 -43.362 
L 22.923967 -43.362 
L 23.231405 -43.362 
L 23.538843 -43.362 
L 23.846281 -43.362 
L 24.153719 -43.362 
L 24.461157 -43.362 
L 24.768595 -43.362001 
L 25.076033 -43.36201 
L 25.383471 -43.362077 
L 25.690909 -43.362408 
L 25.998347 -43.363463 
L 26.305785 -43.365603 
L 26.613223 -43.368325 
L 26.920661 -43.370487 
L 27.228099 -43.3717 
L 27.535537 -43.372689 
L 27.842975 -43.374044 
L 28.150413 -43.374705 
L 28.457851 -43.372811 
L 28.765289 -43.369003 
L 29.072727 -43.366599 
L 29.380165 -43.36813 
L 29.687603 -43.373307 
L 29.995041 -43.379719 
L 30.302479 -43.385151 
L 30.609917 -43.389125 
L 30.917355 -43.393128 
L 31.224793 -43.400884 
L 31.532231 -43.415544 
L 31.839669 -43.434686 
L 32.147107 -43.45281 
L 32.454545 -43.472334 
L 32.761983 -43.507676 
L 33.069421 -43.576014 
L 33.37686 -43.690892 
L 33.684298 -43.868579 
L 33.991736 -44.131308 
L 34.299174 -44.500394 
L 34.606612 -45.006393 
L 34.91405 -45.699971 
L 35.221488 -46.530231 
L 35.528926 -47.1042 
L 35.836364 -46.849467 
L 35.836364 -39.874533 
L 35.836364 -39.874533 
L 35.528926 -39.6198 
L 35.221488 -40.193769 
L 34.91405 -41.024029 
L 34.606612 -41.717607 
L 34.299174 -42.223606 
L 33.991736 -42.592692 
L 33.684298 -42.855421 
L 33.37686 -43.033108 
L 33.069421 -43.147986 
L 32.761983 -43.216324 
L 32.454545 -43.251666 
L 32.147107 -43.27119 
L 31.839669 -43.289314 
L 31.532231 -43.308456 
L 31.224793 -43.323116 
L 30.917355 -43.330872 
L 30.609917 -43.334875 
L 30.302479 -43.338849 
L 29.995041 -43.344281 
L 29.687603 -43.350693 
L 29.380165 -43.35587 
L 29.072727 -43.357401 
L 28.765289 -43.354997 
L 28.457851 -43.351189 
L 28.150413 -43.349295 
L 27.842975 -43.349956 
L 27.535537 -43.351311 
L 27.228099 -43.3523 
L 26.920661 -43.353513 
L 26.613223 -43.355675 
L 26.305785 -43.358397 
L 25.998347 -43.360537 
L 25.690909 -43.361592 
L 25.383471 -43.361923 
L 25.076033 -43.36199 
L 24.768595 -43.361999 
L 24.461157 -43.362 
L 24.153719 -43.362 
L 23.846281 -43.362 
L 23.538843 -43.362 
L 23.231405 -43.362 
L 22.923967 -43.362 
L 22.616529 -43.362 
L 22.309091 -43.362 
L 22.001653 -43.361995 
L 21.694215 -43.361955 
L 21.386777 -43.361735 
L 21.079339 -43.360961 
L 20.771901 -43.359289 
L 20.464463 -43.357281 
L 20.157025 -43.356523 
L 19.849587 -43.357761 
L 19.542149 -43.359813 
L 19.234711 -43.361247 
L 18.927273 -43.361827 
L 18.619835 -43.361974 
L 18.312397 -43.361997 
L 18.004959 -43.362 
L 17.697521 -43.362 
L 17.390083 -43.362 
L 17.082645 -43.362 
L 16.775207 -43.362 
L 16.467769 -43.362 
L 16.160331 -43.362 
L 15.852893 -43.362 
L 15.545455 -43.362 
L 15.238017 -43.362 
L 14.930579 -43.362 
L 14.62314 -43.362 
L 14.315702 -43.362 
L 14.008264 -43.362 
L 13.700826 -43.362 
L 13.393388 -43.362 
L 13.08595 -43.362 
L 12.778512 -43.362 
L 12.471074 -43.362 
L 12.163636 -43.362 
L 11.856198 -43.362 
L 11.54876 -43.362 
L 11.241322 -43.362 
L 10.933884 -43.362 
L 10.626446 -43.362 
L 10.319008 -43.362 
L 10.01157 -43.362 
L 9.704132 -43.362 
L 9.396694 -43.362 
L 9.089256 -43.362 
L 8.781818 -43.362 
L 8.47438 -43.362 
L 8.166942 -43.362 
L 7.859504 -43.362 
L 7.552066 -43.361999 
L 7.244628 -43.361989 
L 6.93719 -43.361896 
L 6.629752 -43.361356 
L 6.322314 -43.359338 
L 6.014876 -43.354669 
L 5.707438 -43.348535 
L 5.4 -43.345511 
z
"/>
    </defs>
    <g clip-path="url(#p73d1fa93a9)">
     <use xlink:href="#m97cd590c9c" x="0" y="54" style="fill: #306c53"/>
    </g>
   </g>
   <g id="FillBetweenPolyCollection_2">
    <defs>
     <path id="me5454e4cda" d="M 5.4 -22.9878 
L 5.4 -30.4722 
L 5.505006 -30.138675 
L 5.610012 -29.306093 
L 5.715017 -28.345306 
L 5.820023 -27.57036 
L 5.925029 -27.092738 
L 6.030035 -26.85991 
L 6.13504 -26.768606 
L 6.240046 -26.739539 
L 6.345052 -26.732032 
L 6.450058 -26.730607 
L 6.555063 -26.730808 
L 6.660069 -26.731812 
L 6.765075 -26.73375 
L 6.870081 -26.736911 
L 6.975086 -26.741464 
L 7.080092 -26.747235 
L 7.185098 -26.753486 
L 7.290104 -26.758872 
L 7.39511 -26.761905 
L 7.500115 -26.761836 
L 7.605121 -26.759269 
L 7.710127 -26.7558 
L 7.815133 -26.75286 
L 7.920138 -26.750798 
L 8.025144 -26.748982 
L 8.13015 -26.746633 
L 8.235156 -26.74352 
L 8.340161 -26.74006 
L 8.445167 -26.737012 
L 8.550173 -26.735163 
L 8.655179 -26.735167 
L 8.760184 -26.737425 
L 8.86519 -26.741884 
L 8.970196 -26.747752 
L 9.075202 -26.753394 
L 9.180207 -26.756779 
L 9.285213 -26.756465 
L 9.390219 -26.752491 
L 9.495225 -26.7464 
L 9.600231 -26.740312 
L 9.705236 -26.7358 
L 9.810242 -26.73339 
L 9.915248 -26.732744 
L 10.020254 -26.733106 
L 10.125259 -26.733656 
L 10.230265 -26.73379 
L 10.335271 -26.733309 
L 10.440277 -26.732431 
L 10.545282 -26.731572 
L 10.650288 -26.731093 
L 10.755294 -26.731176 
L 10.8603 -26.731827 
L 10.965305 -26.732892 
L 11.070311 -26.734084 
L 11.175317 -26.735093 
L 11.280323 -26.735742 
L 11.385329 -26.73604 
L 11.490334 -26.736121 
L 11.59534 -26.736174 
L 11.700346 -26.736405 
L 11.805352 -26.736899 
L 11.910357 -26.737475 
L 12.015363 -26.737746 
L 12.120369 -26.737445 
L 12.225375 -26.736695 
L 12.33038 -26.735929 
L 12.435386 -26.735518 
L 12.540392 -26.735502 
L 12.645398 -26.735659 
L 12.750403 -26.735744 
L 12.855409 -26.7356 
L 12.960415 -26.735141 
L 13.065421 -26.734393 
L 13.170427 -26.733614 
L 13.275432 -26.733286 
L 13.380438 -26.733852 
L 13.485444 -26.73538 
L 13.59045 -26.737395 
L 13.695455 -26.739082 
L 13.800461 -26.739746 
L 13.905467 -26.739175 
L 14.010473 -26.737646 
L 14.115478 -26.735681 
L 14.220484 -26.733804 
L 14.32549 -26.732426 
L 14.430496 -26.731792 
L 14.535501 -26.731936 
L 14.640507 -26.732669 
L 14.745513 -26.733622 
L 14.850519 -26.734412 
L 14.955525 -26.734858 
L 15.06053 -26.735035 
L 15.165536 -26.735091 
L 15.270542 -26.73507 
L 15.375548 -26.734946 
L 15.480553 -26.734777 
L 15.585559 -26.73467 
L 15.690565 -26.734591 
L 15.795571 -26.734315 
L 15.795571 -26.725685 
L 15.795571 -26.725685 
L 15.690565 -26.725409 
L 15.585559 -26.72533 
L 15.480553 -26.725223 
L 15.375548 -26.725054 
L 15.270542 -26.72493 
L 15.165536 -26.724909 
L 15.06053 -26.724965 
L 14.955525 -26.725142 
L 14.850519 -26.725588 
L 14.745513 -26.726378 
L 14.640507 -26.727331 
L 14.535501 -26.728064 
L 14.430496 -26.728208 
L 14.32549 -26.727574 
L 14.220484 -26.726196 
L 14.115478 -26.724319 
L 14.010473 -26.722354 
L 13.905467 -26.720825 
L 13.800461 -26.720254 
L 13.695455 -26.720918 
L 13.59045 -26.722605 
L 13.485444 -26.72462 
L 13.380438 -26.726148 
L 13.275432 -26.726714 
L 13.170427 -26.726386 
L 13.065421 -26.725607 
L 12.960415 -26.724859 
L 12.855409 -26.7244 
L 12.750403 -26.724256 
L 12.645398 -26.724341 
L 12.540392 -26.724498 
L 12.435386 -26.724482 
L 12.33038 -26.724071 
L 12.225375 -26.723305 
L 12.120369 -26.722555 
L 12.015363 -26.722254 
L 11.910357 -26.722525 
L 11.805352 -26.723101 
L 11.700346 -26.723595 
L 11.59534 -26.723826 
L 11.490334 -26.723879 
L 11.385329 -26.72396 
L 11.280323 -26.724258 
L 11.175317 -26.724907 
L 11.070311 -26.725916 
L 10.965305 -26.727108 
L 10.8603 -26.728173 
L 10.755294 -26.728824 
L 10.650288 -26.728907 
L 10.545282 -26.728428 
L 10.440277 -26.727569 
L 10.335271 -26.726691 
L 10.230265 -26.72621 
L 10.125259 -26.726344 
L 10.020254 -26.726894 
L 9.915248 -26.727256 
L 9.810242 -26.72661 
L 9.705236 -26.7242 
L 9.600231 -26.719688 
L 9.495225 -26.7136 
L 9.390219 -26.707509 
L 9.285213 -26.703535 
L 9.180207 -26.703221 
L 9.075202 -26.706606 
L 8.970196 -26.712248 
L 8.86519 -26.718116 
L 8.760184 -26.722575 
L 8.655179 -26.724833 
L 8.550173 -26.724837 
L 8.445167 -26.722988 
L 8.340161 -26.71994 
L 8.235156 -26.71648 
L 8.13015 -26.713367 
L 8.025144 -26.711018 
L 7.920138 -26.709202 
L 7.815133 -26.70714 
L 7.710127 -26.7042 
L 7.605121 -26.700731 
L 7.500115 -26.698164 
L 7.39511 -26.698095 
L 7.290104 -26.701128 
L 7.185098 -26.706514 
L 7.080092 -26.712765 
L 6.975086 -26.718536 
L 6.870081 -26.723089 
L 6.765075 -26.72625 
L 6.660069 -26.728188 
L 6.555063 -26.729192 
L 6.450058 -26.729393 
L 6.345052 -26.727968 
L 6.240046 -26.720461 
L 6.13504 -26.691394 
L 6.030035 -26.60009 
L 5.925029 -26.367262 
L 5.820023 -25.88964 
L 5.715017 -25.114694 
L 5.610012 -24.153907 
L 5.505006 -23.321325 
L 5.4 -22.9878 
z
"/>
    </defs>
    <g clip-path="url(#p73d1fa93a9)">
     <use xlink:href="#me5454e4cda" x="0" y="54" style="fill: #f0a394"/>
    </g>
   </g>
   <g id="FillBetweenPolyCollection_3">
    <defs>
     <path id="m4acf74dd04" d="M 28.463174 -18.401689 
L 28.463174 -18.426311 
L 28.53765 -18.427619 
L 28.612127 -18.428776 
L 28.686604 -18.429912 
L 28.76108 -18.431105 
L 28.835557 -18.43233 
L 28.910034 -18.43346 
L 28.98451 -18.43432 
L 29.058987 -18.434759 
L 29.133464 -18.434696 
L 29.20794 -18.434115 
L 29.282417 -18.433045 
L 29.356894 -18.431527 
L 29.43137 -18.42962 
L 29.505847 -18.42742 
L 29.580324 -18.425088 
L 29.6548 -18.422849 
L 29.729277 -18.420965 
L 29.803754 -18.419672 
L 29.87823 -18.419123 
L 29.952707 -18.419335 
L 30.027184 -18.42017 
L 30.10166 -18.421353 
L 30.176137 -18.422527 
L 30.250614 -18.42334 
L 30.32509 -18.423549 
L 30.399567 -18.423093 
L 30.474044 -18.422117 
L 30.54852 -18.420925 
L 30.622997 -18.419897 
L 30.697474 -18.419394 
L 30.77195 -18.419688 
L 30.846427 -18.420932 
L 30.920904 -18.423173 
L 30.99538 -18.426386 
L 31.069857 -18.430523 
L 31.144334 -18.435547 
L 31.21881 -18.441457 
L 31.293287 -18.448286 
L 31.367764 -18.456106 
L 31.44224 -18.465033 
L 31.516717 -18.475233 
L 31.591194 -18.486899 
L 31.66567 -18.500152 
L 31.740147 -18.514913 
L 31.814624 -18.530793 
L 31.8891 -18.54709 
L 31.963577 -18.562937 
L 32.038054 -18.577555 
L 32.11253 -18.590506 
L 32.187007 -18.601881 
L 32.261484 -18.612342 
L 32.33596 -18.623027 
L 32.410437 -18.635332 
L 32.484914 -18.650611 
L 32.55939 -18.669843 
L 32.633867 -18.693386 
L 32.708344 -18.720941 
L 32.78282 -18.751802 
L 32.857297 -18.785363 
L 32.931774 -18.821705 
L 33.00625 -18.86199 
L 33.080727 -18.908436 
L 33.155204 -18.963776 
L 33.22968 -19.030319 
L 33.304157 -19.10891 
L 33.378634 -19.198177 
L 33.45311 -19.294402 
L 33.527587 -19.392155 
L 33.602064 -19.485561 
L 33.67654 -19.569768 
L 33.751017 -19.642105 
L 33.825494 -19.702481 
L 33.89997 -19.752919 
L 33.974447 -19.796511 
L 34.048924 -19.836312 
L 34.1234 -19.87467 
L 34.197877 -19.913185 
L 34.272354 -19.95313 
L 34.34683 -19.995936 
L 34.421307 -20.043329 
L 34.495784 -20.096937 
L 34.57026 -20.157443 
L 34.644737 -20.223618 
L 34.719214 -20.291767 
L 34.79369 -20.356063 
L 34.868167 -20.410052 
L 34.942644 -20.449157 
L 35.01712 -20.473604 
L 35.091597 -20.490902 
L 35.166074 -20.516948 
L 35.24055 -20.57477 
L 35.315027 -20.689937 
L 35.389504 -20.882176 
L 35.46398 -21.154248 
L 35.538457 -21.481738 
L 35.612934 -21.809582 
L 35.68741 -22.060552 
L 35.761887 -22.1562 
L 35.836364 -22.043577 
L 35.836364 -14.784423 
L 35.836364 -14.784423 
L 35.761887 -14.6718 
L 35.68741 -14.767448 
L 35.612934 -15.018418 
L 35.538457 -15.346262 
L 35.46398 -15.673752 
L 35.389504 -15.945824 
L 35.315027 -16.138063 
L 35.24055 -16.25323 
L 35.166074 -16.311052 
L 35.091597 -16.337098 
L 35.01712 -16.354396 
L 34.942644 -16.378843 
L 34.868167 -16.417948 
L 34.79369 -16.471937 
L 34.719214 -16.536233 
L 34.644737 -16.604382 
L 34.57026 -16.670557 
L 34.495784 -16.731063 
L 34.421307 -16.784671 
L 34.34683 -16.832064 
L 34.272354 -16.87487 
L 34.197877 -16.914815 
L 34.1234 -16.95333 
L 34.048924 -16.991688 
L 33.974447 -17.031489 
L 33.89997 -17.075081 
L 33.825494 -17.125519 
L 33.751017 -17.185895 
L 33.67654 -17.258232 
L 33.602064 -17.342439 
L 33.527587 -17.435845 
L 33.45311 -17.533598 
L 33.378634 -17.629823 
L 33.304157 -17.71909 
L 33.22968 -17.797681 
L 33.155204 -17.864224 
L 33.080727 -17.919564 
L 33.00625 -17.96601 
L 32.931774 -18.006295 
L 32.857297 -18.042637 
L 32.78282 -18.076198 
L 32.708344 -18.107059 
L 32.633867 -18.134614 
L 32.55939 -18.158157 
L 32.484914 -18.177389 
L 32.410437 -18.192668 
L 32.33596 -18.204973 
L 32.261484 -18.215658 
L 32.187007 -18.226119 
L 32.11253 -18.237494 
L 32.038054 -18.250445 
L 31.963577 -18.265063 
L 31.8891 -18.28091 
L 31.814624 -18.297207 
L 31.740147 -18.313087 
L 31.66567 -18.327848 
L 31.591194 -18.341101 
L 31.516717 -18.352767 
L 31.44224 -18.362967 
L 31.367764 -18.371894 
L 31.293287 -18.379714 
L 31.21881 -18.386543 
L 31.144334 -18.392453 
L 31.069857 -18.397477 
L 30.99538 -18.401614 
L 30.920904 -18.404827 
L 30.846427 -18.407068 
L 30.77195 -18.408312 
L 30.697474 -18.408606 
L 30.622997 -18.408103 
L 30.54852 -18.407075 
L 30.474044 -18.405883 
L 30.399567 -18.404907 
L 30.32509 -18.404451 
L 30.250614 -18.40466 
L 30.176137 -18.405473 
L 30.10166 -18.406647 
L 30.027184 -18.40783 
L 29.952707 -18.408665 
L 29.87823 -18.408877 
L 29.803754 -18.408328 
L 29.729277 -18.407035 
L 29.6548 -18.405151 
L 29.580324 -18.402912 
L 29.505847 -18.40058 
L 29.43137 -18.39838 
L 29.356894 -18.396473 
L 29.282417 -18.394955 
L 29.20794 -18.393885 
L 29.133464 -18.393304 
L 29.058987 -18.393241 
L 28.98451 -18.39368 
L 28.910034 -18.39454 
L 28.835557 -18.39567 
L 28.76108 -18.396895 
L 28.686604 -18.398088 
L 28.612127 -18.399224 
L 28.53765 -18.400381 
L 28.463174 -18.401689 
z
"/>
    </defs>
    <g clip-path="url(#p73d1fa93a9)">
     <use xlink:href="#m4acf74dd04" x="0" y="54" style="fill: #126175"/>
    </g>
   </g>
   <g id="FillBetweenPolyCollection_4">
    <defs>
     <path id="m02db80bd72" d="M 5.4 -8.684697 
L 5.4 -11.511303 
L 5.70692 -11.551751 
L 6.013841 -11.56832 
L 6.320761 -11.562503 
L 6.627681 -11.537297 
L 6.934601 -11.496829 
L 7.241522 -11.445906 
L 7.548442 -11.389533 
L 7.855362 -11.332494 
L 8.162283 -11.279019 
L 8.469203 -11.232589 
L 8.776123 -11.195855 
L 9.083043 -11.170666 
L 9.389964 -11.158171 
L 9.696884 -11.158953 
L 10.003804 -11.173162 
L 10.310725 -11.200635 
L 10.617645 -11.240976 
L 10.924565 -11.293609 
L 11.231485 -11.357804 
L 11.538406 -11.432706 
L 11.845326 -11.517352 
L 12.152246 -11.610709 
L 12.459167 -11.711723 
L 12.766087 -11.819369 
L 13.073007 -11.9327 
L 13.379927 -12.050875 
L 13.686848 -12.173164 
L 13.993768 -12.298911 
L 14.300688 -12.427468 
L 14.607609 -12.558103 
L 14.914529 -12.689889 
L 15.221449 -12.82161 
L 15.528369 -12.951688 
L 15.83529 -13.078157 
L 16.14221 -13.198699 
L 16.44913 -13.310745 
L 16.756051 -13.411635 
L 17.062971 -13.498835 
L 17.369891 -13.57017 
L 17.676812 -13.624068 
L 17.983732 -13.659761 
L 18.290652 -13.677431 
L 18.597572 -13.678276 
L 18.904493 -13.664471 
L 19.211413 -13.63905 
L 19.518333 -13.605693 
L 19.825254 -13.568464 
L 20.132174 -13.531511 
L 20.439094 -13.498764 
L 20.746014 -13.473655 
L 21.052935 -13.45889 
L 21.359855 -13.456268 
L 21.666775 -13.466576 
L 21.973696 -13.48955 
L 22.280616 -13.523906 
L 22.587536 -13.567435 
L 22.894456 -13.617157 
L 23.201377 -13.669529 
L 23.508297 -13.72069 
L 23.815217 -13.766738 
L 24.122138 -13.804005 
L 24.429058 -13.829315 
L 24.735978 -13.8402 
L 25.042898 -13.835046 
L 25.349819 -13.813158 
L 25.656739 -13.774733 
L 25.963659 -13.720753 
L 26.27058 -13.652812 
L 26.5775 -13.572901 
L 26.88442 -13.483186 
L 27.19134 -13.385817 
L 27.498261 -13.282767 
L 27.805181 -13.175744 
L 28.112101 -13.066153 
L 28.419022 -12.955121 
L 28.725942 -12.843542 
L 29.032862 -12.732157 
L 29.339782 -12.621619 
L 29.646703 -12.512552 
L 29.953623 -12.405586 
L 30.260543 -12.30137 
L 30.567464 -12.20056 
L 30.874384 -12.103792 
L 31.181304 -12.011636 
L 31.488224 -11.924545 
L 31.795145 -11.842788 
L 32.102065 -11.766394 
L 32.408985 -11.695094 
L 32.715906 -11.628284 
L 33.022826 -11.565017 
L 33.329746 -11.504034 
L 33.636666 -11.443839 
L 33.943587 -11.382824 
L 34.250507 -11.319423 
L 34.557427 -11.25229 
L 34.864348 -11.180471 
L 35.171268 -11.103542 
L 35.478188 -11.021693 
L 35.785108 -10.93574 
L 35.785108 -9.26026 
L 35.785108 -9.26026 
L 35.478188 -9.174307 
L 35.171268 -9.092458 
L 34.864348 -9.015529 
L 34.557427 -8.94371 
L 34.250507 -8.876577 
L 33.943587 -8.813176 
L 33.636666 -8.752161 
L 33.329746 -8.691966 
L 33.022826 -8.630983 
L 32.715906 -8.567716 
L 32.408985 -8.500906 
L 32.102065 -8.429606 
L 31.795145 -8.353212 
L 31.488224 -8.271455 
L 31.181304 -8.184364 
L 30.874384 -8.092208 
L 30.567464 -7.99544 
L 30.260543 -7.89463 
L 29.953623 -7.790414 
L 29.646703 -7.683448 
L 29.339782 -7.574381 
L 29.032862 -7.463843 
L 28.725942 -7.352458 
L 28.419022 -7.240879 
L 28.112101 -7.129847 
L 27.805181 -7.020256 
L 27.498261 -6.913233 
L 27.19134 -6.810183 
L 26.88442 -6.712814 
L 26.5775 -6.623099 
L 26.27058 -6.543188 
L 25.963659 -6.475247 
L 25.656739 -6.421267 
L 25.349819 -6.382842 
L 25.042898 -6.360954 
L 24.735978 -6.3558 
L 24.429058 -6.366685 
L 24.122138 -6.391995 
L 23.815217 -6.429262 
L 23.508297 -6.47531 
L 23.201377 -6.526471 
L 22.894456 -6.578843 
L 22.587536 -6.628565 
L 22.280616 -6.672094 
L 21.973696 -6.70645 
L 21.666775 -6.729424 
L 21.359855 -6.739732 
L 21.052935 -6.73711 
L 20.746014 -6.722345 
L 20.439094 -6.697236 
L 20.132174 -6.664489 
L 19.825254 -6.627536 
L 19.518333 -6.590307 
L 19.211413 -6.55695 
L 18.904493 -6.531529 
L 18.597572 -6.517724 
L 18.290652 -6.518569 
L 17.983732 -6.536239 
L 17.676812 -6.571932 
L 17.369891 -6.62583 
L 17.062971 -6.697165 
L 16.756051 -6.784365 
L 16.44913 -6.885255 
L 16.14221 -6.997301 
L 15.83529 -7.117843 
L 15.528369 -7.244312 
L 15.221449 -7.37439 
L 14.914529 -7.506111 
L 14.607609 -7.637897 
L 14.300688 -7.768532 
L 13.993768 -7.897089 
L 13.686848 -8.022836 
L 13.379927 -8.145125 
L 13.073007 -8.2633 
L 12.766087 -8.376631 
L 12.459167 -8.484277 
L 12.152246 -8.585291 
L 11.845326 -8.678648 
L 11.538406 -8.763294 
L 11.231485 -8.838196 
L 10.924565 -8.902391 
L 10.617645 -8.955024 
L 10.310725 -8.995365 
L 10.003804 -9.022838 
L 9.696884 -9.037047 
L 9.389964 -9.037829 
L 9.083043 -9.025334 
L 8.776123 -9.000145 
L 8.469203 -8.963411 
L 8.162283 -8.916981 
L 7.855362 -8.863506 
L 7.548442 -8.806467 
L 7.241522 -8.750094 
L 6.934601 -8.699171 
L 6.627681 -8.658703 
L 6.320761 -8.633497 
L 6.013841 -8.62768 
L 5.70692 -8.644249 
L 5.4 -8.684697 
z
"/>
    </defs>
    <g clip-path="url(#p73d1fa93a9)">
     <use xlink:href="#m02db80bd72" x="0" y="54" style="fill: #cccccc"/>
    </g>
   </g>
   <g id="matplotlib.axis_1">
    <g id="xtick_1">
     <g id="line2d_1">
      <defs>
       <path id="m05b8f87cdd" d="M 0 0 
L 0 1.7 
" style="stroke: #000000; stroke-width: 0.25"/>
      </defs>
      <g>
       <use xlink:href="#m05b8f87cdd" x="5.4" y="49.06" style="stroke: #000000; stroke-width: 0.25"/>
      </g>
     </g>
     <g id="text_1">
      <text style="font-size: 6px; font-family: 'Arial'; text-anchor: middle" x="5.4" y="56.554688" transform="rotate(-0 5.4 56.554688)">0.0</text>
     </g>
    </g>
    <g id="xtick_2">
     <g id="line2d_2">
      <g>
       <use xlink:href="#m05b8f87cdd" x="20.618182" y="49.06" style="stroke: #000000; stroke-width: 0.25"/>
      </g>
     </g>
     <g id="text_2">
      <text style="font-size: 6px; font-family: 'Arial'; text-anchor: middle" x="20.618182" y="56.554688" transform="rotate(-0 20.618182 56.554688)">0.5</text>
     </g>
    </g>
    <g id="xtick_3">
     <g id="line2d_3">
      <g>
       <use xlink:href="#m05b8f87cdd" x="35.836364" y="49.06" style="stroke: #000000; stroke-width: 0.25"/>
      </g>
     </g>
     <g id="text_3">
      <text style="font-size: 6px; font-family: 'Arial'; text-anchor: middle" x="35.836364" y="56.554688" transform="rotate(-0 35.836364 56.554688)">1.0</text>
     </g>
    </g>
    <g id="text_4">
     <text style="font-size: 8px; font-family: 'Arial'; text-anchor: middle" x="22.14" y="64.973438" transform="rotate(-0 22.14 64.973438)">motor rhythmicity score</text>
    </g>
   </g>
   <g id="matplotlib.axis_2">
    <g id="ytick_1">
     <g id="line2d_4">
      <defs>
       <path id="m950855fc64" d="M 0 0 
L -1.7 0 
" style="stroke: #000000; stroke-width: 0.25"/>
      </defs>
      <g>
       <use xlink:href="#m950855fc64" x="3.4" y="10.638" style="stroke: #000000; stroke-width: 0.25"/>
      </g>
     </g>
     <g id="text_5">
      <text style="font-size: 6px; font-family: 'Arial'; text-anchor: end" x="0.2" y="12.785344" transform="rotate(-0 0.2 12.785344)">none</text>
     </g>
    </g>
    <g id="ytick_2">
     <g id="line2d_5">
      <g>
       <use xlink:href="#m950855fc64" x="3.4" y="18.954" style="stroke: #000000; stroke-width: 0.25"/>
      </g>
     </g>
     <g id="text_6">
      <text style="font-size: 6px; font-family: 'Arial'; text-anchor: end" x="0.2" y="21.101344" transform="rotate(-0 0.2 21.101344)">E1</text>
     </g>
    </g>
    <g id="ytick_3">
     <g id="line2d_6">
      <g>
       <use xlink:href="#m950855fc64" x="3.4" y="27.27" style="stroke: #000000; stroke-width: 0.25"/>
      </g>
     </g>
     <g id="text_7">
      <text style="font-size: 6px; font-family: 'Arial'; text-anchor: end" x="0.2" y="29.417344" transform="rotate(-0 0.2 29.417344)">E2</text>
     </g>
    </g>
    <g id="ytick_4">
     <g id="line2d_7">
      <g>
       <use xlink:href="#m950855fc64" x="3.4" y="35.586" style="stroke: #000000; stroke-width: 0.25"/>
      </g>
     </g>
     <g id="text_8">
      <text style="font-size: 6px; font-family: 'Arial'; text-anchor: end" x="0.2" y="37.733344" transform="rotate(-0 0.2 37.733344)">I2</text>
     </g>
    </g>
    <g id="ytick_5">
     <g id="line2d_8">
      <g>
       <use xlink:href="#m950855fc64" x="3.4" y="43.902" style="stroke: #000000; stroke-width: 0.25"/>
      </g>
     </g>
     <g id="text_9">
      <text style="font-size: 6px; font-family: 'Arial'; text-anchor: end" x="0.2" y="46.049344" transform="rotate(-0 0.2 46.049344)">19B</text>
     </g>
    </g>
    <g id="text_10">
     <text style="font-size: 8px; font-family: 'Arial'; text-anchor: middle" x="-16.23625" y="27.27" transform="rotate(-90 -16.23625 27.27)">silenced neuron</text>
    </g>
   </g>
   <g id="line2d_9">
    <path d="M 5.4 15.2118 
L 5.4 22.6962 
" clip-path="url(#p73d1fa93a9)" style="fill: none"/>
   </g>
   <g id="patch_3">
    <path d="M 3.4 48.06 
L 3.4 6.48 
" style="fill: none; stroke: #000000; stroke-width: 0.25; stroke-linejoin: miter; stroke-linecap: square"/>
   </g>
   <g id="patch_4">
    <path d="M 5.4 49.06 
L 38.88 49.06 
" style="fill: none; stroke: #000000; stroke-width: 0.25; stroke-linejoin: miter; stroke-linecap: square"/>
   </g>
  </g>
 </g>
 <defs>
  <clipPath id="p73d1fa93a9">
   <rect x="5.4" y="6.48" width="33.48" height="41.58"/>
  </clipPath>
 </defs>
</svg>
