<?xml version="1.0" encoding="utf-8" standalone="no"?>
<!DOCTYPE svg PUBLIC "-//W3C//DTD SVG 1.1//EN"
  "http://www.w3.org/Graphics/SVG/1.1/DTD/svg11.dtd">
<svg xmlns:xlink="http://www.w3.org/1999/xlink" width="43.2pt" height="41.04pt" viewBox="0 0 43.2 41.04" xmlns="http://www.w3.org/2000/svg" version="1.1">
 <metadata>
  <rdf:RDF xmlns:dc="http://purl.org/dc/elements/1.1/" xmlns:cc="http://creativecommons.org/ns#" xmlns:rdf="http://www.w3.org/1999/02/22-rdf-syntax-ns#">
   <cc:Work>
    <dc:type rdf:resource="http://purl.org/dc/dcmitype/StillImage"/>
    <dc:date>2025-09-09T00:59:45.232396</dc:date>
    <dc:format>image/svg+xml</dc:format>
    <dc:creator>
     <cc:Agent>
      <dc:title>Matplotlib v3.10.3, https://matplotlib.org/</dc:title>
     </cc:Agent>
    </dc:creator>
   </cc:Work>
  </rdf:RDF>
 </metadata>
 <defs>
  <style type="text/css">*{stroke-linejoin: round; stroke-linecap: butt}</style>
 </defs>
 <g id="figure_1">
  <g id="patch_1">
   <path d="M 0 41.04 
L 43.2 41.04 
L 43.2 0 
L 0 0 
L 0 41.04 
z
" style="fill: none"/>
  </g>
  <g id="axes_1">
   <g id="patch_2">
    <path d="M 5.4 36.5256 
L 38.88 36.5256 
L 38.88 4.9248 
L 5.4 4.9248 
L 5.4 36.5256 
z
" style="fill: none"/>
   </g>
   <g id="patch_3">
    <path d="M 7.975385 36.5256 
L 10.550769 36.5256 
L 10.550769 36.459765 
L 7.975385 36.459765 
z
" clip-path="url(#p0ff4942dd5)" style="fill: #267655"/>
   </g>
   <g id="patch_4">
    <path d="M 10.550769 36.5256 
L 13.126154 36.5256 
L 13.126154 32.377995 
L 10.550769 32.377995 
z
" clip-path="url(#p0ff4942dd5)" style="fill: #267655"/>
   </g>
   <g id="patch_5">
    <path d="M 13.126154 36.5256 
L 15.701538 36.5256 
L 15.701538 21.054375 
L 13.126154 21.054375 
z
" clip-path="url(#p0ff4942dd5)" style="fill: #267655"/>
   </g>
   <g id="patch_6">
    <path d="M 15.701538 36.5256 
L 18.276923 36.5256 
L 18.276923 23.029425 
L 15.701538 23.029425 
z
" clip-path="url(#p0ff4942dd5)" style="fill: #267655"/>
   </g>
   <g id="patch_7">
    <path d="M 18.276923 36.5256 
L 20.852308 36.5256 
L 20.852308 21.64689 
L 18.276923 21.64689 
z
" clip-path="url(#p0ff4942dd5)" style="fill: #267655"/>
   </g>
   <g id="patch_8">
    <path d="M 20.852308 36.5256 
L 23.427692 36.5256 
L 23.427692 19.4085 
L 20.852308 19.4085 
z
" clip-path="url(#p0ff4942dd5)" style="fill: #267655"/>
   </g>
   <g id="patch_9">
    <path d="M 23.427692 36.5256 
L 26.003077 36.5256 
L 26.003077 34.28721 
L 23.427692 34.28721 
z
" clip-path="url(#p0ff4942dd5)" style="fill: #267655"/>
   </g>
   <g id="matplotlib.axis_1">
    <g id="xtick_1">
     <g id="line2d_1">
      <defs>
       <path id="m06c07e585c" d="M 0 0 
L 0 1.7 
" style="stroke: #000000; stroke-width: 0.25"/>
      </defs>
      <g>
       <use xlink:href="#m06c07e585c" x="6.687692" y="37.5256" style="stroke: #000000; stroke-width: 0.25"/>
      </g>
     </g>
     <g id="text_1">
      <text style="font-size: 6px; font-family: 'Arial'; text-anchor: middle" x="6.687692" y="45.020288" transform="rotate(-0 6.687692 45.020288)">0</text>
     </g>
    </g>
    <g id="xtick_2">
     <g id="line2d_2">
      <g>
       <use xlink:href="#m06c07e585c" x="32.441538" y="37.5256" style="stroke: #000000; stroke-width: 0.25"/>
      </g>
     </g>
     <g id="text_2">
      <text style="font-size: 6px; font-family: 'Arial'; text-anchor: middle" x="32.441538" y="45.020288" transform="rotate(-0 32.441538 45.020288)">10</text>
     </g>
    </g>
    <g id="text_3">
     <text style="font-size: 8px; font-family: 'Arial'; text-anchor: middle" x="22.14" y="53.439037" transform="rotate(-0 22.14 53.439037)"># MNs active</text>
    </g>
   </g>
   <g id="matplotlib.axis_2">
    <g id="ytick_1">
     <g id="line2d_3">
      <defs>
       <path id="mb06f5c6afa" d="M 0 0 
L -1.7 0 
" style="stroke: #000000; stroke-width: 0.25"/>
      </defs>
      <g>
       <use xlink:href="#mb06f5c6afa" x="4.4" y="36.5256" style="stroke: #000000; stroke-width: 0.25"/>
      </g>
     </g>
     <g id="text_4">
      <text style="font-size: 6px; font-family: 'Arial'; text-anchor: end" x="1.2" y="38.672944" transform="rotate(-0 1.2 38.672944)">0</text>
     </g>
    </g>
    <g id="ytick_2">
     <g id="line2d_4">
      <g>
       <use xlink:href="#mb06f5c6afa" x="4.4" y="20.06685" style="stroke: #000000; stroke-width: 0.25"/>
      </g>
     </g>
     <g id="text_5">
      <text style="font-size: 6px; font-family: 'Arial'; text-anchor: end" x="1.2" y="22.214194" transform="rotate(-0 1.2 22.214194)">250</text>
     </g>
    </g>
    <g id="text_6">
     <text style="font-size: 8px; font-family: 'Arial'; text-anchor: middle" x="-11.899688" y="20.7252" transform="rotate(-90 -11.899688 20.7252)"># replicates</text>
    </g>
   </g>
   <g id="patch_10">
    <path d="M 4.4 36.5256 
L 4.4 4.9248 
" style="fill: none; stroke: #000000; stroke-width: 0.25; stroke-linejoin: miter; stroke-linecap: square"/>
   </g>
   <g id="patch_11">
    <path d="M 5.4 37.5256 
L 38.88 37.5256 
" style="fill: none; stroke: #000000; stroke-width: 0.25; stroke-linejoin: miter; stroke-linecap: square"/>
   </g>
  </g>
 </g>
 <defs>
  <clipPath id="p0ff4942dd5">
   <rect x="5.4" y="4.9248" width="33.48" height="31.6008"/>
  </clipPath>
 </defs>
</svg>
