<?xml version="1.0" encoding="utf-8" standalone="no"?>
<!DOCTYPE svg PUBLIC "-//W3C//DTD SVG 1.1//EN"
  "http://www.w3.org/Graphics/SVG/1.1/DTD/svg11.dtd">
<svg xmlns:xlink="http://www.w3.org/1999/xlink" width="60.48pt" height="102.672pt" viewBox="0 0 60.48 102.672" xmlns="http://www.w3.org/2000/svg" version="1.1">
 <metadata>
  <rdf:RDF xmlns:dc="http://purl.org/dc/elements/1.1/" xmlns:cc="http://creativecommons.org/ns#" xmlns:rdf="http://www.w3.org/1999/02/22-rdf-syntax-ns#">
   <cc:Work>
    <dc:type rdf:resource="http://purl.org/dc/dcmitype/StillImage"/>
    <dc:date>2025-09-05T14:49:53.434715</dc:date>
    <dc:format>image/svg+xml</dc:format>
    <dc:creator>
     <cc:Agent>
      <dc:title>Matplotlib v3.10.3, https://matplotlib.org/</dc:title>
     </cc:Agent>
    </dc:creator>
   </cc:Work>
  </rdf:RDF>
 </metadata>
 <defs>
  <style type="text/css">*{stroke-linejoin: round; stroke-linecap: butt}</style>
 </defs>
 <g id="figure_1">
  <g id="patch_1">
   <path d="M 0 102.672 
L 60.48 102.672 
L 60.48 0 
L 0 0 
L 0 102.672 
z
" style="fill: none"/>
  </g>
  <g id="axes_1">
   <g id="patch_2">
    <path d="M 7.56 91.37808 
L 54.432 91.37808 
L 54.432 12.32064 
L 7.56 12.32064 
L 7.56 91.37808 
z
" style="fill: none"/>
   </g>
   <g id="FillBetweenPolyCollection_1">
    <path d="M 13.623394 87.78456 
L 13.214606 87.78456 
L 13.220722 87.17632 
L 13.237996 86.56808 
L 13.263507 85.959841 
L 13.293297 85.351601 
L 13.323371 84.743361 
L 13.350539 84.135121 
L 13.372878 83.526881 
L 13.38976 82.918642 
L 13.401555 82.310402 
L 13.409206 81.702162 
L 13.413826 81.093922 
L 13.416427 80.485682 
L 13.417796 79.877443 
L 13.41847 79.269203 
L 13.41878 78.660963 
L 13.418914 78.052723 
L 13.418968 77.444483 
L 13.418988 76.836244 
L 13.418993 76.228004 
L 13.418988 75.619764 
L 13.418972 75.011524 
L 13.418933 74.403284 
L 13.418846 73.795045 
L 13.418666 73.186805 
L 13.418313 72.578565 
L 13.417663 71.970325 
L 13.416529 71.362085 
L 13.414653 70.753846 
L 13.411703 70.145606 
L 13.407278 69.537366 
L 13.400929 68.929126 
L 13.39218 68.320887 
L 13.38058 67.712647 
L 13.365758 67.104407 
L 13.347513 66.496167 
L 13.325921 65.887927 
L 13.301432 65.279688 
L 13.274914 64.671448 
L 13.247595 64.063208 
L 13.220842 63.454968 
L 13.195817 62.846728 
L 13.173056 62.238489 
L 13.152104 61.630249 
L 13.131336 61.022009 
L 13.108043 60.413769 
L 13.078806 59.805529 
L 13.040077 59.19729 
L 12.988834 58.58905 
L 12.92315 57.98081 
L 12.842524 57.37257 
L 12.747886 56.76433 
L 12.641229 56.156091 
L 12.524943 55.547851 
L 12.401004 54.939611 
L 12.270255 54.331371 
L 12.132014 53.723131 
L 11.984156 53.114892 
L 11.823664 52.506652 
L 11.647482 51.898412 
L 11.453433 51.290172 
L 11.240957 50.681932 
L 11.011531 50.073693 
L 10.768773 49.465453 
L 10.518276 48.857213 
L 10.267268 48.248973 
L 10.024148 47.640733 
L 9.79789 47.032494 
L 9.597352 46.424254 
L 9.430508 45.816014 
L 9.303757 45.207774 
L 9.221443 44.599534 
L 9.185731 43.991295 
L 9.196829 43.383055 
L 9.25345 42.774815 
L 9.353291 42.166575 
L 9.493333 41.558335 
L 9.669891 40.950096 
L 9.878475 40.341856 
L 10.113616 39.733616 
L 10.368836 39.125376 
L 10.636857 38.517136 
L 10.910077 37.908897 
L 11.181228 37.300657 
L 11.444088 36.692417 
L 11.694022 36.084177 
L 11.928208 35.475938 
L 12.145412 34.867698 
L 12.345403 34.259458 
L 12.52821 33.651218 
L 12.693524 33.042978 
L 12.84047 32.434739 
L 12.967823 31.826499 
L 13.074548 31.218259 
L 13.1604 30.610019 
L 13.226359 30.001779 
L 13.274703 29.39354 
L 13.308724 28.7853 
L 13.332179 28.17706 
L 13.348664 27.56882 
L 13.489336 27.56882 
L 13.489336 27.56882 
L 13.505821 28.17706 
L 13.529276 28.7853 
L 13.563297 29.39354 
L 13.611641 30.001779 
L 13.6776 30.610019 
L 13.763452 31.218259 
L 13.870177 31.826499 
L 13.99753 32.434739 
L 14.144476 33.042978 
L 14.30979 33.651218 
L 14.492597 34.259458 
L 14.692588 34.867698 
L 14.909792 35.475938 
L 15.143978 36.084177 
L 15.393912 36.692417 
L 15.656772 37.300657 
L 15.927923 37.908897 
L 16.201143 38.517136 
L 16.469164 39.125376 
L 16.724384 39.733616 
L 16.959525 40.341856 
L 17.168109 40.950096 
L 17.344667 41.558335 
L 17.484709 42.166575 
L 17.58455 42.774815 
L 17.641171 43.383055 
L 17.652269 43.991295 
L 17.616557 44.599534 
L 17.534243 45.207774 
L 17.407492 45.816014 
L 17.240648 46.424254 
L 17.04011 47.032494 
L 16.813852 47.640733 
L 16.570732 48.248973 
L 16.319724 48.857213 
L 16.069227 49.465453 
L 15.826469 50.073693 
L 15.597043 50.681932 
L 15.384567 51.290172 
L 15.190518 51.898412 
L 15.014336 52.506652 
L 14.853844 53.114892 
L 14.705986 53.723131 
L 14.567745 54.331371 
L 14.436996 54.939611 
L 14.313057 55.547851 
L 14.196771 56.156091 
L 14.090114 56.76433 
L 13.995476 57.37257 
L 13.91485 57.98081 
L 13.849166 58.58905 
L 13.797923 59.19729 
L 13.759194 59.805529 
L 13.729957 60.413769 
L 13.706664 61.022009 
L 13.685896 61.630249 
L 13.664944 62.238489 
L 13.642183 62.846728 
L 13.617158 63.454968 
L 13.590405 64.063208 
L 13.563086 64.671448 
L 13.536568 65.279688 
L 13.512079 65.887927 
L 13.490487 66.496167 
L 13.472242 67.104407 
L 13.45742 67.712647 
L 13.44582 68.320887 
L 13.437071 68.929126 
L 13.430722 69.537366 
L 13.426297 70.145606 
L 13.423347 70.753846 
L 13.421471 71.362085 
L 13.420337 71.970325 
L 13.419687 72.578565 
L 13.419334 73.186805 
L 13.419154 73.795045 
L 13.419067 74.403284 
L 13.419028 75.011524 
L 13.419012 75.619764 
L 13.419007 76.228004 
L 13.419012 76.836244 
L 13.419032 77.444483 
L 13.419086 78.052723 
L 13.41922 78.660963 
L 13.41953 79.269203 
L 13.420204 79.877443 
L 13.421573 80.485682 
L 13.424174 81.093922 
L 13.428794 81.702162 
L 13.436445 82.310402 
L 13.44824 82.918642 
L 13.465122 83.526881 
L 13.487461 84.135121 
L 13.514629 84.743361 
L 13.544703 85.351601 
L 13.574493 85.959841 
L 13.600004 86.56808 
L 13.617278 87.17632 
L 13.623394 87.78456 
z
" clip-path="url(#pfddbb56715)" style="fill: #306c53; fill-opacity: 0.5"/>
   </g>
   <g id="FillBetweenPolyCollection_2">
    <path d="M 25.171688 87.78456 
L 25.102312 87.78456 
L 25.105237 87.159425 
L 25.112615 86.534289 
L 25.121303 85.909154 
L 25.128528 85.284018 
L 25.133166 84.658883 
L 25.135546 84.033747 
L 25.136537 83.408612 
L 25.136877 82.783476 
L 25.136972 82.158341 
L 25.136995 81.533205 
L 25.136999 80.90807 
L 25.137 80.282935 
L 25.137 79.657799 
L 25.137 79.032664 
L 25.137 78.407528 
L 25.137 77.782393 
L 25.137 77.157257 
L 25.137 76.532122 
L 25.137 75.906986 
L 25.137 75.281851 
L 25.137 74.656716 
L 25.137 74.03158 
L 25.137 73.406445 
L 25.137 72.781309 
L 25.137 72.156174 
L 25.137 71.531038 
L 25.137 70.905903 
L 25.137 70.280767 
L 25.137 69.655632 
L 25.137 69.030496 
L 25.137 68.405361 
L 25.137 67.780226 
L 25.137 67.15509 
L 25.137 66.529955 
L 25.137 65.904819 
L 25.137 65.279684 
L 25.137 64.654548 
L 25.137 64.029413 
L 25.137 63.404277 
L 25.137 62.779142 
L 25.137 62.154006 
L 25.137 61.528871 
L 25.137 60.903736 
L 25.137 60.2786 
L 25.137 59.653465 
L 25.137 59.028329 
L 25.137 58.403194 
L 25.136999 57.778058 
L 25.136992 57.152923 
L 25.136956 56.527787 
L 25.136793 55.902652 
L 25.136187 55.277517 
L 25.134282 54.652381 
L 25.129257 54.027246 
L 25.118057 53.40211 
L 25.096732 52.776975 
L 25.061262 52.151839 
L 25.007833 51.526704 
L 24.931794 50.901568 
L 24.826962 50.276433 
L 24.688358 49.651297 
L 24.517799 49.026162 
L 24.325999 48.401027 
L 24.125543 47.775891 
L 23.917782 47.150756 
L 23.684067 46.52562 
L 23.389938 45.900485 
L 23.002401 45.275349 
L 22.51197 44.650214 
L 21.947392 44.025078 
L 21.373702 43.399943 
L 20.872102 42.774808 
L 20.508766 42.149672 
L 20.306239 41.524537 
L 20.233846 40.899401 
L 20.226997 40.274266 
L 20.227989 39.64913 
L 20.222313 39.023995 
L 20.241241 38.398859 
L 20.325522 37.773724 
L 20.48342 37.148588 
L 20.686378 36.523453 
L 20.904041 35.898318 
L 21.133482 35.273182 
L 21.389393 34.648047 
L 21.676034 34.022911 
L 21.980668 33.397776 
L 22.291183 32.77264 
L 22.608278 32.147505 
L 22.937024 31.522369 
L 23.273081 30.897234 
L 23.601792 30.272098 
L 23.908086 29.646963 
L 24.183425 29.021828 
L 24.424131 28.396692 
L 24.627147 27.771557 
L 24.789612 27.146421 
L 24.911546 26.521286 
L 24.997398 25.89615 
L 25.276602 25.89615 
L 25.276602 25.89615 
L 25.362454 26.521286 
L 25.484388 27.146421 
L 25.646853 27.771557 
L 25.849869 28.396692 
L 26.090575 29.021828 
L 26.365914 29.646963 
L 26.672208 30.272098 
L 27.000919 30.897234 
L 27.336976 31.522369 
L 27.665722 32.147505 
L 27.982817 32.77264 
L 28.293332 33.397776 
L 28.597966 34.022911 
L 28.884607 34.648047 
L 29.140518 35.273182 
L 29.369959 35.898318 
L 29.587622 36.523453 
L 29.79058 37.148588 
L 29.948478 37.773724 
L 30.032759 38.398859 
L 30.051687 39.023995 
L 30.046011 39.64913 
L 30.047003 40.274266 
L 30.040154 40.899401 
L 29.967761 41.524537 
L 29.765234 42.149672 
L 29.401898 42.774808 
L 28.900298 43.399943 
L 28.326608 44.025078 
L 27.76203 44.650214 
L 27.271599 45.275349 
L 26.884062 45.900485 
L 26.589933 46.52562 
L 26.356218 47.150756 
L 26.148457 47.775891 
L 25.948001 48.401027 
L 25.756201 49.026162 
L 25.585642 49.651297 
L 25.447038 50.276433 
L 25.342206 50.901568 
L 25.266167 51.526704 
L 25.212738 52.151839 
L 25.177268 52.776975 
L 25.155943 53.40211 
L 25.144743 54.027246 
L 25.139718 54.652381 
L 25.137813 55.277517 
L 25.137207 55.902652 
L 25.137044 56.527787 
L 25.137008 57.152923 
L 25.137001 57.778058 
L 25.137 58.403194 
L 25.137 59.028329 
L 25.137 59.653465 
L 25.137 60.2786 
L 25.137 60.903736 
L 25.137 61.528871 
L 25.137 62.154006 
L 25.137 62.779142 
L 25.137 63.404277 
L 25.137 64.029413 
L 25.137 64.654548 
L 25.137 65.279684 
L 25.137 65.904819 
L 25.137 66.529955 
L 25.137 67.15509 
L 25.137 67.780226 
L 25.137 68.405361 
L 25.137 69.030496 
L 25.137 69.655632 
L 25.137 70.280767 
L 25.137 70.905903 
L 25.137 71.531038 
L 25.137 72.156174 
L 25.137 72.781309 
L 25.137 73.406445 
L 25.137 74.03158 
L 25.137 74.656716 
L 25.137 75.281851 
L 25.137 75.906986 
L 25.137 76.532122 
L 25.137 77.157257 
L 25.137 77.782393 
L 25.137 78.407528 
L 25.137 79.032664 
L 25.137 79.657799 
L 25.137 80.282935 
L 25.137001 80.90807 
L 25.137005 81.533205 
L 25.137028 82.158341 
L 25.137123 82.783476 
L 25.137463 83.408612 
L 25.138454 84.033747 
L 25.140834 84.658883 
L 25.145472 85.284018 
L 25.152697 85.909154 
L 25.161385 86.534289 
L 25.168763 87.159425 
L 25.171688 87.78456 
z
" clip-path="url(#pfddbb56715)" style="fill: #306c53; fill-opacity: 0.5"/>
   </g>
   <g id="FillBetweenPolyCollection_3">
    <path d="M 36.893824 50.651517 
L 36.816176 50.651517 
L 36.817062 50.344632 
L 36.819668 50.037747 
L 36.823426 49.730863 
L 36.8275 49.423978 
L 36.830871 49.117094 
L 36.832419 48.810209 
L 36.830973 48.503324 
L 36.825348 48.19644 
L 36.814393 47.889555 
L 36.797082 47.58267 
L 36.772662 47.275786 
L 36.740823 46.968901 
L 36.701828 46.662017 
L 36.656537 46.355132 
L 36.606265 46.048247 
L 36.552471 45.741363 
L 36.496373 45.434478 
L 36.43859 45.127593 
L 36.378966 44.820709 
L 36.316628 44.513824 
L 36.250277 44.206939 
L 36.178583 43.900055 
L 36.100523 43.59317 
L 36.015507 43.286286 
L 35.923232 42.979401 
L 35.823281 42.672516 
L 35.714621 42.365632 
L 35.595129 42.058747 
L 35.461343 41.751862 
L 35.308531 41.444978 
L 35.131168 41.138093 
L 34.923825 40.831209 
L 34.682406 40.524324 
L 34.405545 40.217439 
L 34.095883 39.910555 
L 33.760833 39.60367 
L 33.412513 39.296785 
L 33.066632 38.989901 
L 32.740451 38.683016 
L 32.450192 38.376131 
L 32.208508 38.069247 
L 32.022629 37.762362 
L 31.893617 37.455478 
L 31.81683 37.148593 
L 31.783345 36.841708 
L 31.781868 36.534824 
L 31.800607 36.227939 
L 31.828732 35.921054 
L 31.85725 35.61417 
L 31.879401 35.307285 
L 31.890773 35.000401 
L 31.889408 34.693516 
L 31.875975 34.386631 
L 31.853974 34.079747 
L 31.829697 33.772862 
L 31.81168 33.465977 
L 31.809498 33.159093 
L 31.83203 32.852208 
L 31.885591 32.545323 
L 31.972503 32.238439 
L 32.090595 31.931554 
L 32.233846 31.62467 
L 32.393996 31.317785 
L 32.562636 31.0109 
L 32.733123 30.704016 
L 32.901789 30.397131 
L 33.068143 30.090246 
L 33.234149 29.783362 
L 33.402891 29.476477 
L 33.577136 29.169593 
L 33.758224 28.862708 
L 33.945572 28.555823 
L 34.136841 28.248939 
L 34.328608 27.942054 
L 34.51726 27.635169 
L 34.699811 27.328285 
L 34.87442 27.0214 
L 35.040497 26.714515 
L 35.198443 26.407631 
L 35.349163 26.100746 
L 35.493557 25.793862 
L 35.632165 25.486977 
L 35.765057 25.180092 
L 35.891945 24.873208 
L 36.012388 24.566323 
L 36.125945 24.259438 
L 36.232192 23.952554 
L 36.330611 23.645669 
L 36.420454 23.338785 
L 36.500706 23.0319 
L 36.570214 22.725015 
L 36.627988 22.418131 
L 36.673568 22.111246 
L 36.707318 21.804361 
L 36.730562 21.497477 
L 36.745464 21.190592 
L 36.754711 20.883707 
L 36.761048 20.576823 
L 36.76682 20.269938 
L 36.94318 20.269938 
L 36.94318 20.269938 
L 36.948952 20.576823 
L 36.955289 20.883707 
L 36.964536 21.190592 
L 36.979438 21.497477 
L 37.002682 21.804361 
L 37.036432 22.111246 
L 37.082012 22.418131 
L 37.139786 22.725015 
L 37.209294 23.0319 
L 37.289546 23.338785 
L 37.379389 23.645669 
L 37.477808 23.952554 
L 37.584055 24.259438 
L 37.697612 24.566323 
L 37.818055 24.873208 
L 37.944943 25.180092 
L 38.077835 25.486977 
L 38.216443 25.793862 
L 38.360837 26.100746 
L 38.511557 26.407631 
L 38.669503 26.714515 
L 38.83558 27.0214 
L 39.010189 27.328285 
L 39.19274 27.635169 
L 39.381392 27.942054 
L 39.573159 28.248939 
L 39.764428 28.555823 
L 39.951776 28.862708 
L 40.132864 29.169593 
L 40.307109 29.476477 
L 40.475851 29.783362 
L 40.641857 30.090246 
L 40.808211 30.397131 
L 40.976877 30.704016 
L 41.147364 31.0109 
L 41.316004 31.317785 
L 41.476154 31.62467 
L 41.619405 31.931554 
L 41.737497 32.238439 
L 41.824409 32.545323 
L 41.87797 32.852208 
L 41.900502 33.159093 
L 41.89832 33.465977 
L 41.880303 33.772862 
L 41.856026 34.079747 
L 41.834025 34.386631 
L 41.820592 34.693516 
L 41.819227 35.000401 
L 41.830599 35.307285 
L 41.85275 35.61417 
L 41.881268 35.921054 
L 41.909393 36.227939 
L 41.928132 36.534824 
L 41.926655 36.841708 
L 41.89317 37.148593 
L 41.816383 37.455478 
L 41.687371 37.762362 
L 41.501492 38.069247 
L 41.259808 38.376131 
L 40.969549 38.683016 
L 40.643368 38.989901 
L 40.297487 39.296785 
L 39.949167 39.60367 
L 39.614117 39.910555 
L 39.304455 40.217439 
L 39.027594 40.524324 
L 38.786175 40.831209 
L 38.578832 41.138093 
L 38.401469 41.444978 
L 38.248657 41.751862 
L 38.114871 42.058747 
L 37.995379 42.365632 
L 37.886719 42.672516 
L 37.786768 42.979401 
L 37.694493 43.286286 
L 37.609477 43.59317 
L 37.531417 43.900055 
L 37.459723 44.206939 
L 37.393372 44.513824 
L 37.331034 44.820709 
L 37.27141 45.127593 
L 37.213627 45.434478 
L 37.157529 45.741363 
L 37.103735 46.048247 
L 37.053463 46.355132 
L 37.008172 46.662017 
L 36.969177 46.968901 
L 36.937338 47.275786 
L 36.912918 47.58267 
L 36.895607 47.889555 
L 36.884652 48.19644 
L 36.879027 48.503324 
L 36.877581 48.810209 
L 36.879129 49.117094 
L 36.8825 49.423978 
L 36.886574 49.730863 
L 36.890332 50.037747 
L 36.892938 50.344632 
L 36.893824 50.651517 
z
" clip-path="url(#pfddbb56715)" style="fill: #306c53; fill-opacity: 0.5"/>
   </g>
   <g id="FillBetweenPolyCollection_4">
    <path d="M 48.758895 42.774812 
L 48.387105 42.774812 
L 48.351551 42.503492 
L 48.31267 42.232173 
L 48.269858 41.960853 
L 48.222185 41.689533 
L 48.1685 41.418214 
L 48.107604 41.146894 
L 48.038469 40.875574 
L 47.960429 40.604254 
L 47.873286 40.332935 
L 47.777267 40.061615 
L 47.672817 39.790295 
L 47.560237 39.518976 
L 47.439258 39.247656 
L 47.308665 38.976336 
L 47.166111 38.705016 
L 47.008241 38.433697 
L 46.831164 38.162377 
L 46.631258 37.891057 
L 46.406133 37.619737 
L 46.155581 37.348418 
L 45.882232 37.077098 
L 45.591751 36.805778 
L 45.292463 36.534459 
L 44.994442 36.263139 
L 44.708261 35.991819 
L 44.443629 35.720499 
L 44.208216 35.44918 
L 44.006863 35.17786 
L 43.841282 34.90654 
L 43.710231 34.635221 
L 43.610058 34.363901 
L 43.535484 34.092581 
L 43.480472 33.821261 
L 43.439088 33.549942 
L 43.406256 33.278622 
L 43.378339 33.007302 
L 43.353452 32.735983 
L 43.331474 32.464663 
L 43.313728 32.193343 
L 43.302411 31.922023 
L 43.2999 31.650704 
L 43.308121 31.379384 
L 43.328124 31.108064 
L 43.359964 30.836745 
L 43.402866 30.565425 
L 43.455572 30.294105 
L 43.516729 30.022785 
L 43.585205 29.751466 
L 43.66024 29.480146 
L 43.741472 29.208826 
L 43.828883 28.937506 
L 43.922722 28.666187 
L 44.023474 28.394867 
L 44.131846 28.123547 
L 44.24873 27.852228 
L 44.375127 27.580908 
L 44.511992 27.309588 
L 44.660048 27.038268 
L 44.819594 26.766949 
L 44.990386 26.495629 
L 45.171577 26.224309 
L 45.361731 25.95299 
L 45.558864 25.68167 
L 45.760496 25.41035 
L 45.963708 25.13903 
L 46.165236 24.867711 
L 46.361641 24.596391 
L 46.549587 24.325071 
L 46.726208 24.053752 
L 46.8895 23.782432 
L 47.03864 23.511112 
L 47.1741 23.239792 
L 47.297512 22.968473 
L 47.411256 22.697153 
L 47.517887 22.425833 
L 47.61954 22.154514 
L 47.717488 21.883194 
L 47.811956 21.611874 
L 47.902244 21.340554 
L 47.987083 21.069235 
L 48.065096 20.797915 
L 48.135216 20.526595 
L 48.196942 20.255275 
L 48.250399 19.983956 
L 48.296202 19.712636 
L 48.335221 19.441316 
L 48.368341 19.169997 
L 48.396288 18.898677 
L 48.419568 18.627357 
L 48.438522 18.356037 
L 48.453444 18.084718 
L 48.464716 17.813398 
L 48.472899 17.542078 
L 48.478751 17.270759 
L 48.483166 16.999439 
L 48.487066 16.728119 
L 48.491259 16.456799 
L 48.496331 16.18548 
L 48.502573 15.91416 
L 48.643427 15.91416 
L 48.643427 15.91416 
L 48.649669 16.18548 
L 48.654741 16.456799 
L 48.658934 16.728119 
L 48.662834 16.999439 
L 48.667249 17.270759 
L 48.673101 17.542078 
L 48.681284 17.813398 
L 48.692556 18.084718 
L 48.707478 18.356037 
L 48.726432 18.627357 
L 48.749712 18.898677 
L 48.777659 19.169997 
L 48.810779 19.441316 
L 48.849798 19.712636 
L 48.895601 19.983956 
L 48.949058 20.255275 
L 49.010784 20.526595 
L 49.080904 20.797915 
L 49.158917 21.069235 
L 49.243756 21.340554 
L 49.334044 21.611874 
L 49.428512 21.883194 
L 49.52646 22.154514 
L 49.628113 22.425833 
L 49.734744 22.697153 
L 49.848488 22.968473 
L 49.9719 23.239792 
L 50.10736 23.511112 
L 50.2565 23.782432 
L 50.419792 24.053752 
L 50.596413 24.325071 
L 50.784359 24.596391 
L 50.980764 24.867711 
L 51.182292 25.13903 
L 51.385504 25.41035 
L 51.587136 25.68167 
L 51.784269 25.95299 
L 51.974423 26.224309 
L 52.155614 26.495629 
L 52.326406 26.766949 
L 52.485952 27.038268 
L 52.634008 27.309588 
L 52.770873 27.580908 
L 52.89727 27.852228 
L 53.014154 28.123547 
L 53.122526 28.394867 
L 53.223278 28.666187 
L 53.317117 28.937506 
L 53.404528 29.208826 
L 53.48576 29.480146 
L 53.560795 29.751466 
L 53.629271 30.022785 
L 53.690428 30.294105 
L 53.743134 30.565425 
L 53.786036 30.836745 
L 53.817876 31.108064 
L 53.837879 31.379384 
L 53.8461 31.650704 
L 53.843589 31.922023 
L 53.832272 32.193343 
L 53.814526 32.464663 
L 53.792548 32.735983 
L 53.767661 33.007302 
L 53.739744 33.278622 
L 53.706912 33.549942 
L 53.665528 33.821261 
L 53.610516 34.092581 
L 53.535942 34.363901 
L 53.435769 34.635221 
L 53.304718 34.90654 
L 53.139137 35.17786 
L 52.937784 35.44918 
L 52.702371 35.720499 
L 52.437739 35.991819 
L 52.151558 36.263139 
L 51.853537 36.534459 
L 51.554249 36.805778 
L 51.263768 37.077098 
L 50.990419 37.348418 
L 50.739867 37.619737 
L 50.514742 37.891057 
L 50.314836 38.162377 
L 50.137759 38.433697 
L 49.979889 38.705016 
L 49.837335 38.976336 
L 49.706742 39.247656 
L 49.585763 39.518976 
L 49.473183 39.790295 
L 49.368733 40.061615 
L 49.272714 40.332935 
L 49.185571 40.604254 
L 49.107531 40.875574 
L 49.038396 41.146894 
L 48.9775 41.418214 
L 48.923815 41.689533 
L 48.876142 41.960853 
L 48.83333 42.232173 
L 48.794449 42.503492 
L 48.758895 42.774812 
z
" clip-path="url(#pfddbb56715)" style="fill: #306c53; fill-opacity: 0.5"/>
   </g>
   <g id="matplotlib.axis_1">
    <g id="xtick_1">
     <g id="line2d_1">
      <defs>
       <path id="m14ca3db3b4" d="M 0 0 
L 0 1.7 
" style="stroke: #000000; stroke-width: 0.25"/>
      </defs>
      <g>
       <use xlink:href="#m14ca3db3b4" x="13.419" y="93.37808" style="stroke: #000000; stroke-width: 0.25"/>
      </g>
     </g>
     <g id="text_1">
      <text style="font-size: 6px; font-family: 'Arial'" transform="translate(10.97683 106.692801) rotate(-45)">220</text>
     </g>
    </g>
    <g id="xtick_2">
     <g id="line2d_2">
      <g>
       <use xlink:href="#m14ca3db3b4" x="25.137" y="93.37808" style="stroke: #000000; stroke-width: 0.25"/>
      </g>
     </g>
     <g id="text_2">
      <text style="font-size: 6px; font-family: 'Arial'" transform="translate(22.69483 106.692801) rotate(-45)">260</text>
     </g>
    </g>
    <g id="xtick_3">
     <g id="line2d_3">
      <g>
       <use xlink:href="#m14ca3db3b4" x="36.855" y="93.37808" style="stroke: #000000; stroke-width: 0.25"/>
      </g>
     </g>
     <g id="text_3">
      <text style="font-size: 6px; font-family: 'Arial'" transform="translate(34.41283 106.692801) rotate(-45)">300</text>
     </g>
    </g>
    <g id="xtick_4">
     <g id="line2d_4">
      <g>
       <use xlink:href="#m14ca3db3b4" x="48.573" y="93.37808" style="stroke: #000000; stroke-width: 0.25"/>
      </g>
     </g>
     <g id="text_4">
      <text style="font-size: 6px; font-family: 'Arial'" transform="translate(46.13083 106.692801) rotate(-45)">340</text>
     </g>
    </g>
    <g id="text_5">
     <text style="font-size: 8px; font-family: 'Arial'; text-anchor: middle" x="30.996" y="114.859775" transform="rotate(-0 30.996 114.859775)">|input to DNg100s|</text>
    </g>
   </g>
   <g id="matplotlib.axis_2">
    <g id="ytick_1">
     <g id="line2d_5">
      <defs>
       <path id="m6b67db438b" d="M 0 0 
L -1.7 0 
" style="stroke: #000000; stroke-width: 0.25"/>
      </defs>
      <g>
       <use xlink:href="#m6b67db438b" x="5.56" y="87.78456" style="stroke: #000000; stroke-width: 0.25"/>
      </g>
     </g>
     <g id="text_6">
      <text style="font-size: 6px; font-family: 'Arial'; text-anchor: end" x="2.36" y="89.931904" transform="rotate(-0 2.36 89.931904)">0</text>
     </g>
    </g>
    <g id="ytick_2">
     <g id="line2d_6">
      <g>
       <use xlink:href="#m6b67db438b" x="5.56" y="65.504733" style="stroke: #000000; stroke-width: 0.25"/>
      </g>
     </g>
     <g id="text_7">
      <text style="font-size: 6px; font-family: 'Arial'; text-anchor: end" x="2.36" y="67.652077" transform="rotate(-0 2.36 67.652077)">5</text>
     </g>
    </g>
    <g id="ytick_3">
     <g id="line2d_7">
      <g>
       <use xlink:href="#m6b67db438b" x="5.56" y="43.224906" style="stroke: #000000; stroke-width: 0.25"/>
      </g>
     </g>
     <g id="text_8">
      <text style="font-size: 6px; font-family: 'Arial'; text-anchor: end" x="2.36" y="45.37225" transform="rotate(-0 2.36 45.37225)">10</text>
     </g>
    </g>
    <g id="ytick_4">
     <g id="line2d_8">
      <g>
       <use xlink:href="#m6b67db438b" x="5.56" y="20.94508" style="stroke: #000000; stroke-width: 0.25"/>
      </g>
     </g>
     <g id="text_9">
      <text style="font-size: 6px; font-family: 'Arial'; text-anchor: end" x="2.36" y="23.092423" transform="rotate(-0 2.36 23.092423)">15</text>
     </g>
    </g>
    <g id="text_10">
     <text style="font-size: 8px; font-family: 'Arial'" transform="translate(-16.075375 75.63811) rotate(-90)">motor neuron</text>
     <text style="font-size: 8px; font-family: 'Arial'" transform="translate(-7.496875 78.07811) rotate(-90)">frequency (Hz)</text>
    </g>
   </g>
   <g id="patch_3">
    <path d="M 12.2472 48.524194 
L 14.5908 48.524194 
L 14.5908 40.879658 
L 12.2472 40.879658 
L 12.2472 48.524194 
z
" clip-path="url(#pfddbb56715)" style="fill: #306c53; opacity: 0.5; stroke: #2f2f2f; stroke-width: 0.75; stroke-linejoin: miter"/>
   </g>
   <g id="line2d_9">
    <path d="M 13.419 48.524194 
L 13.419 58.469 
" clip-path="url(#pfddbb56715)" style="fill: none; stroke: #2f2f2f; stroke-width: 0.75"/>
   </g>
   <g id="line2d_10">
    <path d="M 13.419 40.879658 
L 13.419 32.084997 
" clip-path="url(#pfddbb56715)" style="fill: none; stroke: #2f2f2f; stroke-width: 0.75"/>
   </g>
   <g id="line2d_11">
    <path d="M 12.8331 58.469 
L 14.0049 58.469 
" clip-path="url(#pfddbb56715)" style="fill: none; stroke: #2f2f2f; stroke-width: 0.75; stroke-linecap: square"/>
   </g>
   <g id="line2d_12">
    <path d="M 12.8331 32.084997 
L 14.0049 32.084997 
" clip-path="url(#pfddbb56715)" style="fill: none; stroke: #2f2f2f; stroke-width: 0.75; stroke-linecap: square"/>
   </g>
   <g id="patch_4">
    <path d="M 23.9652 41.846772 
L 26.3088 41.846772 
L 26.3088 35.361435 
L 23.9652 35.361435 
L 23.9652 41.846772 
z
" clip-path="url(#pfddbb56715)" style="fill: #306c53; opacity: 0.5; stroke: #2f2f2f; stroke-width: 0.75; stroke-linejoin: miter"/>
   </g>
   <g id="line2d_13">
    <path d="M 25.137 41.846772 
L 25.137 50.958406 
" clip-path="url(#pfddbb56715)" style="fill: none; stroke: #2f2f2f; stroke-width: 0.75"/>
   </g>
   <g id="line2d_14">
    <path d="M 25.137 35.361435 
L 25.137 25.89615 
" clip-path="url(#pfddbb56715)" style="fill: none; stroke: #2f2f2f; stroke-width: 0.75"/>
   </g>
   <g id="line2d_15">
    <path d="M 24.5511 50.958406 
L 25.7229 50.958406 
" clip-path="url(#pfddbb56715)" style="fill: none; stroke: #2f2f2f; stroke-width: 0.75; stroke-linecap: square"/>
   </g>
   <g id="line2d_16">
    <path d="M 24.5511 25.89615 
L 25.7229 25.89615 
" clip-path="url(#pfddbb56715)" style="fill: none; stroke: #2f2f2f; stroke-width: 0.75; stroke-linecap: square"/>
   </g>
   <g id="patch_5">
    <path d="M 35.6832 37.717537 
L 38.0268 37.717537 
L 38.0268 30.656803 
L 35.6832 30.656803 
L 35.6832 37.717537 
z
" clip-path="url(#pfddbb56715)" style="fill: #306c53; opacity: 0.5; stroke: #2f2f2f; stroke-width: 0.75; stroke-linejoin: miter"/>
   </g>
   <g id="line2d_17">
    <path d="M 36.855 37.717537 
L 36.855 45.747153 
" clip-path="url(#pfddbb56715)" style="fill: none; stroke: #2f2f2f; stroke-width: 0.75"/>
   </g>
   <g id="line2d_18">
    <path d="M 36.855 30.656803 
L 36.855 20.269938 
" clip-path="url(#pfddbb56715)" style="fill: none; stroke: #2f2f2f; stroke-width: 0.75"/>
   </g>
   <g id="line2d_19">
    <path d="M 36.2691 45.747153 
L 37.4409 45.747153 
" clip-path="url(#pfddbb56715)" style="fill: none; stroke: #2f2f2f; stroke-width: 0.75; stroke-linecap: square"/>
   </g>
   <g id="line2d_20">
    <path d="M 36.2691 20.269938 
L 37.4409 20.269938 
" clip-path="url(#pfddbb56715)" style="fill: none; stroke: #2f2f2f; stroke-width: 0.75; stroke-linecap: square"/>
   </g>
   <g id="patch_6">
    <path d="M 47.4012 34.204749 
L 49.7448 34.204749 
L 49.7448 27.56882 
L 47.4012 27.56882 
L 47.4012 34.204749 
z
" clip-path="url(#pfddbb56715)" style="fill: #306c53; opacity: 0.5; stroke: #2f2f2f; stroke-width: 0.75; stroke-linejoin: miter"/>
   </g>
   <g id="line2d_21">
    <path d="M 48.573 34.204749 
L 48.573 42.774812 
" clip-path="url(#pfddbb56715)" style="fill: none; stroke: #2f2f2f; stroke-width: 0.75"/>
   </g>
   <g id="line2d_22">
    <path d="M 48.573 27.56882 
L 48.573 19.231249 
" clip-path="url(#pfddbb56715)" style="fill: none; stroke: #2f2f2f; stroke-width: 0.75"/>
   </g>
   <g id="line2d_23">
    <path d="M 47.9871 42.774812 
L 49.1589 42.774812 
" clip-path="url(#pfddbb56715)" style="fill: none; stroke: #2f2f2f; stroke-width: 0.75; stroke-linecap: square"/>
   </g>
   <g id="line2d_24">
    <path d="M 47.9871 19.231249 
L 49.1589 19.231249 
" clip-path="url(#pfddbb56715)" style="fill: none; stroke: #2f2f2f; stroke-width: 0.75; stroke-linecap: square"/>
   </g>
   <g id="line2d_25">
    <path d="M 12.2472 44.522763 
L 14.5908 44.522763 
" clip-path="url(#pfddbb56715)" style="fill: none; stroke: #2f2f2f; stroke-width: 0.75"/>
   </g>
   <g id="line2d_26">
    <path d="M 23.9652 38.727225 
L 26.3088 38.727225 
" clip-path="url(#pfddbb56715)" style="fill: none; stroke: #2f2f2f; stroke-width: 0.75"/>
   </g>
   <g id="line2d_27">
    <path d="M 35.6832 34.098229 
L 38.0268 34.098229 
" clip-path="url(#pfddbb56715)" style="fill: none; stroke: #2f2f2f; stroke-width: 0.75"/>
   </g>
   <g id="line2d_28">
    <path d="M 47.4012 31.379939 
L 49.7448 31.379939 
" clip-path="url(#pfddbb56715)" style="fill: none; stroke: #2f2f2f; stroke-width: 0.75"/>
   </g>
   <g id="patch_7">
    <path d="M 5.56 91.37808 
L 5.56 12.32064 
" style="fill: none; stroke: #000000; stroke-width: 0.25; stroke-linejoin: miter; stroke-linecap: square"/>
   </g>
   <g id="patch_8">
    <path d="M 7.56 93.37808 
L 54.432 93.37808 
" style="fill: none; stroke: #000000; stroke-width: 0.25; stroke-linejoin: miter; stroke-linecap: square"/>
   </g>
  </g>
 </g>
 <defs>
  <clipPath id="pfddbb56715">
   <rect x="7.56" y="12.32064" width="46.872" height="79.05744"/>
  </clipPath>
 </defs>
</svg>
