<?xml version="1.0" encoding="utf-8" standalone="no"?>
<!DOCTYPE svg PUBLIC "-//W3C//DTD SVG 1.1//EN"
  "http://www.w3.org/Graphics/SVG/1.1/DTD/svg11.dtd">
<svg xmlns:xlink="http://www.w3.org/1999/xlink" width="60.48pt" height="102.672pt" viewBox="0 0 60.48 102.672" xmlns="http://www.w3.org/2000/svg" version="1.1">
 <metadata>
  <rdf:RDF xmlns:dc="http://purl.org/dc/elements/1.1/" xmlns:cc="http://creativecommons.org/ns#" xmlns:rdf="http://www.w3.org/1999/02/22-rdf-syntax-ns#">
   <cc:Work>
    <dc:type rdf:resource="http://purl.org/dc/dcmitype/StillImage"/>
    <dc:date>2025-09-12T14:36:59.469724</dc:date>
    <dc:format>image/svg+xml</dc:format>
    <dc:creator>
     <cc:Agent>
      <dc:title>Matplotlib v3.10.3, https://matplotlib.org/</dc:title>
     </cc:Agent>
    </dc:creator>
   </cc:Work>
  </rdf:RDF>
 </metadata>
 <defs>
  <style type="text/css">*{stroke-linejoin: round; stroke-linecap: butt}</style>
 </defs>
 <g id="figure_1">
  <g id="patch_1">
   <path d="M 0 102.672 
L 60.48 102.672 
L 60.48 0 
L 0 0 
L 0 102.672 
z
" style="fill: none"/>
  </g>
  <g id="axes_1">
   <g id="patch_2">
    <path d="M 7.56 91.37808 
L 54.432 91.37808 
L 54.432 12.32064 
L 7.56 12.32064 
L 7.56 91.37808 
z
" style="fill: none"/>
   </g>
   <g id="FillBetweenPolyCollection_1">
    <path d="M 13.502364 87.78456 
L 13.335636 87.78456 
L 13.339228 87.17632 
L 13.349101 86.56808 
L 13.362915 85.95984 
L 13.377793 85.351601 
L 13.391277 84.743361 
L 13.401921 84.135121 
L 13.409366 83.526881 
L 13.414023 82.918641 
L 13.416646 82.310401 
L 13.41798 81.702162 
L 13.418596 81.093922 
L 13.418853 80.485682 
L 13.418951 79.877442 
L 13.418985 79.269202 
L 13.418996 78.660962 
L 13.418999 78.052723 
L 13.419 77.444483 
L 13.419 76.836243 
L 13.419 76.228003 
L 13.419 75.619763 
L 13.418998 75.011523 
L 13.418994 74.403284 
L 13.418982 73.795044 
L 13.418945 73.186804 
L 13.418849 72.578564 
L 13.418618 71.970324 
L 13.418109 71.362084 
L 13.417086 70.753844 
L 13.415193 70.145605 
L 13.411969 69.537365 
L 13.406871 68.929125 
L 13.39933 68.320885 
L 13.388779 67.712645 
L 13.374666 67.104405 
L 13.356467 66.496166 
L 13.333802 65.887926 
L 13.306679 65.279686 
L 13.275845 64.671446 
L 13.243019 64.063206 
L 13.210795 63.454966 
L 13.18206 62.846727 
L 13.159024 62.238487 
L 13.142206 61.630247 
L 13.129786 61.022007 
L 13.117638 60.413767 
L 13.100086 59.805527 
L 13.07111 59.197288 
L 13.025596 58.589048 
L 12.960321 57.980808 
L 12.874561 57.372568 
L 12.770284 56.764328 
L 12.651824 56.156088 
L 12.524829 55.547849 
L 12.39451 54.939609 
L 12.263681 54.331369 
L 12.131454 53.723129 
L 11.993283 53.114889 
L 11.842416 52.506649 
L 11.672122 51.898409 
L 11.477727 51.29017 
L 11.257781 50.68193 
L 11.014178 50.07369 
L 10.751589 49.46545 
L 10.476754 48.85721 
L 10.198011 48.24897 
L 9.925114 47.640731 
L 9.669017 47.032491 
L 9.441241 46.424251 
L 9.252665 45.816011 
L 9.111933 45.207771 
L 9.024069 44.599531 
L 8.990002 43.991292 
L 9.007382 43.383052 
L 9.072358 42.774812 
L 9.181356 42.166572 
L 9.331796 41.558332 
L 9.521456 40.950092 
L 9.747152 40.341853 
L 10.003731 39.733613 
L 10.283926 39.125373 
L 10.578834 38.517133 
L 10.878588 37.908893 
L 11.173196 37.300653 
L 11.453795 36.692413 
L 11.714241 36.084174 
L 11.952297 35.475934 
L 12.169479 34.867694 
L 12.369317 34.259454 
L 12.554837 33.651214 
L 12.726601 33.042974 
L 12.882275 32.434735 
L 13.017742 31.826495 
L 13.129016 31.218255 
L 13.21402 30.610015 
L 13.273572 30.001775 
L 13.311377 29.393535 
L 13.333165 28.785296 
L 13.345317 28.177056 
L 13.353432 27.568816 
L 13.484568 27.568816 
L 13.484568 27.568816 
L 13.492683 28.177056 
L 13.504835 28.785296 
L 13.526623 29.393535 
L 13.564428 30.001775 
L 13.62398 30.610015 
L 13.708984 31.218255 
L 13.820258 31.826495 
L 13.955725 32.434735 
L 14.111399 33.042974 
L 14.283163 33.651214 
L 14.468683 34.259454 
L 14.668521 34.867694 
L 14.885703 35.475934 
L 15.123759 36.084174 
L 15.384205 36.692413 
L 15.664804 37.300653 
L 15.959412 37.908893 
L 16.259166 38.517133 
L 16.554074 39.125373 
L 16.834269 39.733613 
L 17.090848 40.341853 
L 17.316544 40.950092 
L 17.506204 41.558332 
L 17.656644 42.166572 
L 17.765642 42.774812 
L 17.830618 43.383052 
L 17.847998 43.991292 
L 17.813931 44.599531 
L 17.726067 45.207771 
L 17.585335 45.816011 
L 17.396759 46.424251 
L 17.168983 47.032491 
L 16.912886 47.640731 
L 16.639989 48.24897 
L 16.361246 48.85721 
L 16.086411 49.46545 
L 15.823822 50.07369 
L 15.580219 50.68193 
L 15.360273 51.29017 
L 15.165878 51.898409 
L 14.995584 52.506649 
L 14.844717 53.114889 
L 14.706546 53.723129 
L 14.574319 54.331369 
L 14.44349 54.939609 
L 14.313171 55.547849 
L 14.186176 56.156088 
L 14.067716 56.764328 
L 13.963439 57.372568 
L 13.877679 57.980808 
L 13.812404 58.589048 
L 13.76689 59.197288 
L 13.737914 59.805527 
L 13.720362 60.413767 
L 13.708214 61.022007 
L 13.695794 61.630247 
L 13.678976 62.238487 
L 13.65594 62.846727 
L 13.627205 63.454966 
L 13.594981 64.063206 
L 13.562155 64.671446 
L 13.531321 65.279686 
L 13.504198 65.887926 
L 13.481533 66.496166 
L 13.463334 67.104405 
L 13.449221 67.712645 
L 13.43867 68.320885 
L 13.431129 68.929125 
L 13.426031 69.537365 
L 13.422807 70.145605 
L 13.420914 70.753844 
L 13.419891 71.362084 
L 13.419382 71.970324 
L 13.419151 72.578564 
L 13.419055 73.186804 
L 13.419018 73.795044 
L 13.419006 74.403284 
L 13.419002 75.011523 
L 13.419 75.619763 
L 13.419 76.228003 
L 13.419 76.836243 
L 13.419 77.444483 
L 13.419001 78.052723 
L 13.419004 78.660962 
L 13.419015 79.269202 
L 13.419049 79.877442 
L 13.419147 80.485682 
L 13.419404 81.093922 
L 13.42002 81.702162 
L 13.421354 82.310401 
L 13.423977 82.918641 
L 13.428634 83.526881 
L 13.436079 84.135121 
L 13.446723 84.743361 
L 13.460207 85.351601 
L 13.475085 85.95984 
L 13.488899 86.56808 
L 13.498772 87.17632 
L 13.502364 87.78456 
z
" clip-path="url(#p6cb5d2aeff)" style="fill: #306c53; fill-opacity: 0.5"/>
   </g>
   <g id="FillBetweenPolyCollection_2">
    <path d="M 25.321439 50.958406 
L 24.952561 50.958406 
L 24.91653 50.705252 
L 24.875299 50.452097 
L 24.828172 50.198943 
L 24.774584 49.945789 
L 24.714255 49.692635 
L 24.647323 49.439481 
L 24.574416 49.186327 
L 24.496633 48.933173 
L 24.415423 48.680019 
L 24.332385 48.426864 
L 24.249007 48.17371 
L 24.166398 47.920556 
L 24.085051 47.667402 
L 24.004677 47.414248 
L 23.924119 47.161094 
L 23.841381 46.90794 
L 23.753746 46.654785 
L 23.657983 46.401631 
L 23.550624 46.148477 
L 23.428292 45.895323 
L 23.288052 45.642169 
L 23.127756 45.389015 
L 22.946348 45.135861 
L 22.744089 44.882706 
L 22.522686 44.629552 
L 22.2853 44.376398 
L 22.036435 44.123244 
L 21.781713 43.87009 
L 21.527567 43.616936 
L 21.280851 43.363782 
L 21.048407 43.110627 
L 20.8366 42.857473 
L 20.650837 42.604319 
L 20.495125 42.351165 
L 20.371698 42.098011 
L 20.280779 41.844857 
L 20.22051 41.591703 
L 20.187099 41.338549 
L 20.175172 41.085394 
L 20.17832 40.83224 
L 20.189781 40.579086 
L 20.203197 40.325932 
L 20.213365 40.072778 
L 20.216884 39.819624 
L 20.212604 39.56647 
L 20.201772 39.313315 
L 20.187833 39.060161 
L 20.17583 38.807007 
L 20.171507 38.553853 
L 20.180219 38.300699 
L 20.205893 38.047545 
L 20.250239 37.794391 
L 20.312435 37.541236 
L 20.38936 37.288082 
L 20.476343 37.034928 
L 20.568252 36.781774 
L 20.660647 36.52862 
L 20.750711 36.275466 
L 20.837718 36.022312 
L 20.922946 35.769157 
L 21.009084 35.516003 
L 21.099319 35.262849 
L 21.196391 35.009695 
L 21.30185 34.756541 
L 21.415724 34.503387 
L 21.536625 34.250233 
L 21.662238 33.997078 
L 21.789998 33.743924 
L 21.917766 33.49077 
L 22.044299 33.237616 
L 22.169436 32.984462 
L 22.293965 32.731308 
L 22.419255 32.478154 
L 22.546783 32.225 
L 22.677674 31.971845 
L 22.812378 31.718691 
L 22.950546 31.465537 
L 23.091096 31.212383 
L 23.232438 30.959229 
L 23.372777 30.706075 
L 23.510417 30.452921 
L 23.643992 30.199766 
L 23.772577 29.946612 
L 23.895691 29.693458 
L 24.01319 29.440304 
L 24.125114 29.18715 
L 24.231526 28.933996 
L 24.332399 28.680842 
L 24.427549 28.427687 
L 24.516657 28.174533 
L 24.599318 27.921379 
L 24.675136 27.668225 
L 24.743804 27.415071 
L 24.805176 27.161917 
L 24.859302 26.908763 
L 24.906433 26.655608 
L 24.946999 26.402454 
L 24.981562 26.1493 
L 25.010768 25.896146 
L 25.263232 25.896146 
L 25.263232 25.896146 
L 25.292438 26.1493 
L 25.327001 26.402454 
L 25.367567 26.655608 
L 25.414698 26.908763 
L 25.468824 27.161917 
L 25.530196 27.415071 
L 25.598864 27.668225 
L 25.674682 27.921379 
L 25.757343 28.174533 
L 25.846451 28.427687 
L 25.941601 28.680842 
L 26.042474 28.933996 
L 26.148886 29.18715 
L 26.26081 29.440304 
L 26.378309 29.693458 
L 26.501423 29.946612 
L 26.630008 30.199766 
L 26.763583 30.452921 
L 26.901223 30.706075 
L 27.041562 30.959229 
L 27.182904 31.212383 
L 27.323454 31.465537 
L 27.461622 31.718691 
L 27.596326 31.971845 
L 27.727217 32.225 
L 27.854745 32.478154 
L 27.980035 32.731308 
L 28.104564 32.984462 
L 28.229701 33.237616 
L 28.356234 33.49077 
L 28.484002 33.743924 
L 28.611762 33.997078 
L 28.737375 34.250233 
L 28.858276 34.503387 
L 28.97215 34.756541 
L 29.077609 35.009695 
L 29.174681 35.262849 
L 29.264916 35.516003 
L 29.351054 35.769157 
L 29.436282 36.022312 
L 29.523289 36.275466 
L 29.613353 36.52862 
L 29.705748 36.781774 
L 29.797657 37.034928 
L 29.88464 37.288082 
L 29.961565 37.541236 
L 30.023761 37.794391 
L 30.068107 38.047545 
L 30.093781 38.300699 
L 30.102493 38.553853 
L 30.09817 38.807007 
L 30.086167 39.060161 
L 30.072228 39.313315 
L 30.061396 39.56647 
L 30.057116 39.819624 
L 30.060635 40.072778 
L 30.070803 40.325932 
L 30.084219 40.579086 
L 30.09568 40.83224 
L 30.098828 41.085394 
L 30.086901 41.338549 
L 30.05349 41.591703 
L 29.993221 41.844857 
L 29.902302 42.098011 
L 29.778875 42.351165 
L 29.623163 42.604319 
L 29.4374 42.857473 
L 29.225593 43.110627 
L 28.993149 43.363782 
L 28.746433 43.616936 
L 28.492287 43.87009 
L 28.237565 44.123244 
L 27.9887 44.376398 
L 27.751314 44.629552 
L 27.529911 44.882706 
L 27.327652 45.135861 
L 27.146244 45.389015 
L 26.985948 45.642169 
L 26.845708 45.895323 
L 26.723376 46.148477 
L 26.616017 46.401631 
L 26.520254 46.654785 
L 26.432619 46.90794 
L 26.349881 47.161094 
L 26.269323 47.414248 
L 26.188949 47.667402 
L 26.107602 47.920556 
L 26.024993 48.17371 
L 25.941615 48.426864 
L 25.858577 48.680019 
L 25.777367 48.933173 
L 25.699584 49.186327 
L 25.626677 49.439481 
L 25.559745 49.692635 
L 25.499416 49.945789 
L 25.445828 50.198943 
L 25.398701 50.452097 
L 25.35747 50.705252 
L 25.321439 50.958406 
z
" clip-path="url(#p6cb5d2aeff)" style="fill: #306c53; fill-opacity: 0.5"/>
   </g>
   <g id="FillBetweenPolyCollection_3">
    <path d="M 37.127744 45.747153 
L 36.582256 45.747153 
L 36.53915 45.489807 
L 36.494125 45.232461 
L 36.446866 44.975116 
L 36.39676 44.71777 
L 36.343022 44.460424 
L 36.284879 44.203079 
L 36.22174 43.945733 
L 36.153305 43.688388 
L 36.079575 43.431042 
L 36.00076 43.173696 
L 35.917081 42.916351 
L 35.828528 42.659005 
L 35.734619 42.401659 
L 35.634199 42.144314 
L 35.525342 41.886968 
L 35.40536 41.629622 
L 35.270967 41.372277 
L 35.118578 41.114931 
L 34.944754 40.857585 
L 34.746761 40.60024 
L 34.523192 40.342894 
L 34.274558 40.085549 
L 34.00374 39.828203 
L 33.716177 39.570857 
L 33.419705 39.313512 
L 33.123991 39.056166 
L 32.839625 38.79882 
L 32.576982 38.541475 
L 32.345051 38.284129 
L 32.150434 38.026783 
L 31.996694 37.769438 
L 31.88416 37.512092 
L 31.810173 37.254746 
L 31.769714 36.997401 
L 31.756224 36.740055 
L 31.762481 36.48271 
L 31.781349 36.225364 
L 31.806336 35.968018 
L 31.831923 35.710673 
L 31.853701 35.453327 
L 31.868407 35.195981 
L 31.87394 34.938636 
L 31.869423 34.68129 
L 31.855324 34.423944 
L 31.833592 34.166599 
L 31.807713 33.909253 
L 31.782585 33.651907 
L 31.764125 33.394562 
L 31.758607 33.137216 
L 31.77181 32.879871 
L 31.808126 32.622525 
L 31.869839 32.365179 
L 31.956741 32.107834 
L 32.066209 31.850488 
L 32.193715 31.593142 
L 32.333689 31.335797 
L 32.480514 31.078451 
L 32.629449 30.821105 
L 32.777285 30.56376 
L 32.922614 30.306414 
L 33.065702 30.049068 
L 33.208025 29.791723 
L 33.351619 29.534377 
L 33.498402 29.277031 
L 33.649632 29.019686 
L 33.805581 28.76234 
L 33.965482 28.504995 
L 34.127712 28.247649 
L 34.290135 27.990303 
L 34.45051 27.732958 
L 34.60687 27.475612 
L 34.757787 27.218266 
L 34.902485 26.960921 
L 35.040808 26.703575 
L 35.173052 26.446229 
L 35.299736 26.188884 
L 35.421374 25.931538 
L 35.538311 25.674192 
L 35.650663 25.416847 
L 35.758351 25.159501 
L 35.861215 24.902156 
L 35.959134 24.64481 
L 36.052109 24.387464 
L 36.140257 24.130119 
L 36.223729 23.872773 
L 36.302585 23.615427 
L 36.37666 23.358082 
L 36.445506 23.100736 
L 36.508414 22.84339 
L 36.564538 22.586045 
L 36.613088 22.328699 
L 36.653544 22.071353 
L 36.685831 21.814008 
L 36.710413 21.556662 
L 36.728287 21.299317 
L 36.740867 21.041971 
L 36.749788 20.784625 
L 36.756682 20.52728 
L 36.762954 20.269934 
L 36.947046 20.269934 
L 36.947046 20.269934 
L 36.953318 20.52728 
L 36.960212 20.784625 
L 36.969133 21.041971 
L 36.981713 21.299317 
L 36.999587 21.556662 
L 37.024169 21.814008 
L 37.056456 22.071353 
L 37.096912 22.328699 
L 37.145462 22.586045 
L 37.201586 22.84339 
L 37.264494 23.100736 
L 37.33334 23.358082 
L 37.407415 23.615427 
L 37.486271 23.872773 
L 37.569743 24.130119 
L 37.657891 24.387464 
L 37.750866 24.64481 
L 37.848785 24.902156 
L 37.951649 25.159501 
L 38.059337 25.416847 
L 38.171689 25.674192 
L 38.288626 25.931538 
L 38.410264 26.188884 
L 38.536948 26.446229 
L 38.669192 26.703575 
L 38.807515 26.960921 
L 38.952213 27.218266 
L 39.10313 27.475612 
L 39.25949 27.732958 
L 39.419865 27.990303 
L 39.582288 28.247649 
L 39.744518 28.504995 
L 39.904419 28.76234 
L 40.060368 29.019686 
L 40.211598 29.277031 
L 40.358381 29.534377 
L 40.501975 29.791723 
L 40.644298 30.049068 
L 40.787386 30.306414 
L 40.932715 30.56376 
L 41.080551 30.821105 
L 41.229486 31.078451 
L 41.376311 31.335797 
L 41.516285 31.593142 
L 41.643791 31.850488 
L 41.753259 32.107834 
L 41.840161 32.365179 
L 41.901874 32.622525 
L 41.93819 32.879871 
L 41.951393 33.137216 
L 41.945875 33.394562 
L 41.927415 33.651907 
L 41.902287 33.909253 
L 41.876408 34.166599 
L 41.854676 34.423944 
L 41.840577 34.68129 
L 41.83606 34.938636 
L 41.841593 35.195981 
L 41.856299 35.453327 
L 41.878077 35.710673 
L 41.903664 35.968018 
L 41.928651 36.225364 
L 41.947519 36.48271 
L 41.953776 36.740055 
L 41.940286 36.997401 
L 41.899827 37.254746 
L 41.82584 37.512092 
L 41.713306 37.769438 
L 41.559566 38.026783 
L 41.364949 38.284129 
L 41.133018 38.541475 
L 40.870375 38.79882 
L 40.586009 39.056166 
L 40.290295 39.313512 
L 39.993823 39.570857 
L 39.70626 39.828203 
L 39.435442 40.085549 
L 39.186808 40.342894 
L 38.963239 40.60024 
L 38.765246 40.857585 
L 38.591422 41.114931 
L 38.439033 41.372277 
L 38.30464 41.629622 
L 38.184658 41.886968 
L 38.075801 42.144314 
L 37.975381 42.401659 
L 37.881472 42.659005 
L 37.792919 42.916351 
L 37.70924 43.173696 
L 37.630425 43.431042 
L 37.556695 43.688388 
L 37.48826 43.945733 
L 37.425121 44.203079 
L 37.366978 44.460424 
L 37.31324 44.71777 
L 37.263134 44.975116 
L 37.215875 45.232461 
L 37.17085 45.489807 
L 37.127744 45.747153 
z
" clip-path="url(#p6cb5d2aeff)" style="fill: #306c53; fill-opacity: 0.5"/>
   </g>
   <g id="FillBetweenPolyCollection_4">
    <path d="M 48.758172 42.774812 
L 48.387828 42.774812 
L 48.353065 42.503492 
L 48.3155 42.232173 
L 48.274725 41.960853 
L 48.230015 41.689533 
L 48.180404 41.418214 
L 48.124824 41.146894 
L 48.062277 40.875574 
L 47.991994 40.604254 
L 47.913526 40.332935 
L 47.826706 40.061615 
L 47.731477 39.790295 
L 47.627587 39.518976 
L 47.51423 39.247656 
L 47.389728 38.976336 
L 47.251388 38.705016 
L 47.095636 38.433697 
L 46.918489 38.162377 
L 46.716335 37.891057 
L 46.486889 37.619737 
L 46.230128 37.348418 
L 45.948965 37.077098 
L 45.649454 36.805778 
L 45.340424 36.534459 
L 45.032557 36.263139 
L 44.737099 35.991819 
L 44.464449 35.720499 
L 44.222908 35.44918 
L 44.017818 35.17786 
L 43.851186 34.90654 
L 43.721803 34.635221 
L 43.625733 34.363901 
L 43.557076 34.092581 
L 43.508857 33.821261 
L 43.473973 33.549942 
L 43.4461 33.278622 
L 43.42047 33.007302 
L 43.394412 32.735983 
L 43.367522 32.464663 
L 43.341428 32.193343 
L 43.319156 31.922023 
L 43.304254 31.650704 
L 43.2999 31.379384 
L 43.308214 31.108064 
L 43.32994 30.836745 
L 43.36453 30.565425 
L 43.410536 30.294105 
L 43.466146 30.022785 
L 43.529671 29.751466 
L 43.59987 29.480146 
L 43.676073 29.208826 
L 43.758154 28.937506 
L 43.846431 28.666187 
L 43.941565 28.394867 
L 44.044485 28.123547 
L 44.156328 27.852228 
L 44.278344 27.580908 
L 44.411751 27.309588 
L 44.557547 27.038268 
L 44.716296 26.766949 
L 44.887951 26.495629 
L 45.071733 26.224309 
L 45.266087 25.95299 
L 45.468698 25.68167 
L 45.676581 25.41035 
L 45.886216 25.13903 
L 46.093761 24.867711 
L 46.295349 24.596391 
L 46.487457 24.325071 
L 46.667298 24.053752 
L 46.833191 23.782432 
L 46.984768 23.511112 
L 47.122977 23.239792 
L 47.249812 22.968473 
L 47.367824 22.697153 
L 47.47952 22.425833 
L 47.586797 22.154514 
L 47.690569 21.883194 
L 47.790674 21.611874 
L 47.886077 21.340554 
L 47.975278 21.069235 
L 48.056795 20.797915 
L 48.129571 20.526595 
L 48.193203 20.255275 
L 48.247958 19.983956 
L 48.294607 19.712636 
L 48.334162 19.441316 
L 48.367618 19.169997 
L 48.395778 18.898677 
L 48.419196 18.627357 
L 48.438238 18.356037 
L 48.45321 18.084718 
L 48.4645 17.813398 
L 48.472676 17.542078 
L 48.478502 17.270759 
L 48.482886 16.999439 
L 48.486757 16.728119 
L 48.490935 16.456799 
L 48.49601 16.18548 
L 48.502274 15.91416 
L 48.643726 15.91416 
L 48.643726 15.91416 
L 48.64999 16.18548 
L 48.655065 16.456799 
L 48.659243 16.728119 
L 48.663114 16.999439 
L 48.667498 17.270759 
L 48.673324 17.542078 
L 48.6815 17.813398 
L 48.69279 18.084718 
L 48.707762 18.356037 
L 48.726804 18.627357 
L 48.750222 18.898677 
L 48.778382 19.169997 
L 48.811838 19.441316 
L 48.851393 19.712636 
L 48.898042 19.983956 
L 48.952797 20.255275 
L 49.016429 20.526595 
L 49.089205 20.797915 
L 49.170722 21.069235 
L 49.259923 21.340554 
L 49.355326 21.611874 
L 49.455431 21.883194 
L 49.559203 22.154514 
L 49.66648 22.425833 
L 49.778176 22.697153 
L 49.896188 22.968473 
L 50.023023 23.239792 
L 50.161232 23.511112 
L 50.312809 23.782432 
L 50.478702 24.053752 
L 50.658543 24.325071 
L 50.850651 24.596391 
L 51.052239 24.867711 
L 51.259784 25.13903 
L 51.469419 25.41035 
L 51.677302 25.68167 
L 51.879913 25.95299 
L 52.074267 26.224309 
L 52.258049 26.495629 
L 52.429704 26.766949 
L 52.588453 27.038268 
L 52.734249 27.309588 
L 52.867656 27.580908 
L 52.989672 27.852228 
L 53.101515 28.123547 
L 53.204435 28.394867 
L 53.299569 28.666187 
L 53.387846 28.937506 
L 53.469927 29.208826 
L 53.54613 29.480146 
L 53.616329 29.751466 
L 53.679854 30.022785 
L 53.735464 30.294105 
L 53.78147 30.565425 
L 53.81606 30.836745 
L 53.837786 31.108064 
L 53.8461 31.379384 
L 53.841746 31.650704 
L 53.826844 31.922023 
L 53.804572 32.193343 
L 53.778478 32.464663 
L 53.751588 32.735983 
L 53.72553 33.007302 
L 53.6999 33.278622 
L 53.672027 33.549942 
L 53.637143 33.821261 
L 53.588924 34.092581 
L 53.520267 34.363901 
L 53.424197 34.635221 
L 53.294814 34.90654 
L 53.128182 35.17786 
L 52.923092 35.44918 
L 52.681551 35.720499 
L 52.408901 35.991819 
L 52.113443 36.263139 
L 51.805576 36.534459 
L 51.496546 36.805778 
L 51.197035 37.077098 
L 50.915872 37.348418 
L 50.659111 37.619737 
L 50.429665 37.891057 
L 50.227511 38.162377 
L 50.050364 38.433697 
L 49.894612 38.705016 
L 49.756272 38.976336 
L 49.63177 39.247656 
L 49.518413 39.518976 
L 49.414523 39.790295 
L 49.319294 40.061615 
L 49.232474 40.332935 
L 49.154006 40.604254 
L 49.083723 40.875574 
L 49.021176 41.146894 
L 48.965596 41.418214 
L 48.915985 41.689533 
L 48.871275 41.960853 
L 48.8305 42.232173 
L 48.792935 42.503492 
L 48.758172 42.774812 
z
" clip-path="url(#p6cb5d2aeff)" style="fill: #306c53; fill-opacity: 0.5"/>
   </g>
   <g id="matplotlib.axis_1">
    <g id="xtick_1">
     <g id="line2d_1">
      <defs>
       <path id="m58c041849f" d="M 0 0 
L 0 1.7 
" style="stroke: #000000; stroke-width: 0.25"/>
      </defs>
      <g>
       <use xlink:href="#m58c041849f" x="13.419" y="93.37808" style="stroke: #000000; stroke-width: 0.25"/>
      </g>
     </g>
     <g id="text_1">
      <text style="font-size: 6px; font-family: 'Arial'" transform="translate(10.97683 106.692801) rotate(-45)">220</text>
     </g>
    </g>
    <g id="xtick_2">
     <g id="line2d_2">
      <g>
       <use xlink:href="#m58c041849f" x="25.137" y="93.37808" style="stroke: #000000; stroke-width: 0.25"/>
      </g>
     </g>
     <g id="text_2">
      <text style="font-size: 6px; font-family: 'Arial'" transform="translate(22.69483 106.692801) rotate(-45)">260</text>
     </g>
    </g>
    <g id="xtick_3">
     <g id="line2d_3">
      <g>
       <use xlink:href="#m58c041849f" x="36.855" y="93.37808" style="stroke: #000000; stroke-width: 0.25"/>
      </g>
     </g>
     <g id="text_3">
      <text style="font-size: 6px; font-family: 'Arial'" transform="translate(34.41283 106.692801) rotate(-45)">300</text>
     </g>
    </g>
    <g id="xtick_4">
     <g id="line2d_4">
      <g>
       <use xlink:href="#m58c041849f" x="48.573" y="93.37808" style="stroke: #000000; stroke-width: 0.25"/>
      </g>
     </g>
     <g id="text_4">
      <text style="font-size: 6px; font-family: 'Arial'" transform="translate(46.13083 106.692801) rotate(-45)">340</text>
     </g>
    </g>
    <g id="text_5">
     <text style="font-size: 8px; font-family: 'Arial'; text-anchor: middle" x="30.996" y="114.859775" transform="rotate(-0 30.996 114.859775)">|input to DNg100|</text>
    </g>
   </g>
   <g id="matplotlib.axis_2">
    <g id="ytick_1">
     <g id="line2d_5">
      <defs>
       <path id="m2b3e5ba8a6" d="M 0 0 
L -1.7 0 
" style="stroke: #000000; stroke-width: 0.25"/>
      </defs>
      <g>
       <use xlink:href="#m2b3e5ba8a6" x="5.56" y="87.78456" style="stroke: #000000; stroke-width: 0.25"/>
      </g>
     </g>
     <g id="text_6">
      <text style="font-size: 6px; font-family: 'Arial'; text-anchor: end" x="2.36" y="89.931904" transform="rotate(-0 2.36 89.931904)">0</text>
     </g>
    </g>
    <g id="ytick_2">
     <g id="line2d_6">
      <g>
       <use xlink:href="#m2b3e5ba8a6" x="5.56" y="65.504733" style="stroke: #000000; stroke-width: 0.25"/>
      </g>
     </g>
     <g id="text_7">
      <text style="font-size: 6px; font-family: 'Arial'; text-anchor: end" x="2.36" y="67.652077" transform="rotate(-0 2.36 67.652077)">5</text>
     </g>
    </g>
    <g id="ytick_3">
     <g id="line2d_7">
      <g>
       <use xlink:href="#m2b3e5ba8a6" x="5.56" y="43.224906" style="stroke: #000000; stroke-width: 0.25"/>
      </g>
     </g>
     <g id="text_8">
      <text style="font-size: 6px; font-family: 'Arial'; text-anchor: end" x="2.36" y="45.37225" transform="rotate(-0 2.36 45.37225)">10</text>
     </g>
    </g>
    <g id="ytick_4">
     <g id="line2d_8">
      <g>
       <use xlink:href="#m2b3e5ba8a6" x="5.56" y="20.94508" style="stroke: #000000; stroke-width: 0.25"/>
      </g>
     </g>
     <g id="text_9">
      <text style="font-size: 6px; font-family: 'Arial'; text-anchor: end" x="2.36" y="23.092423" transform="rotate(-0 2.36 23.092423)">15</text>
     </g>
    </g>
    <g id="text_10">
     <text style="font-size: 8px; font-family: 'Arial'" transform="translate(-16.075375 75.63811) rotate(-90)">motor neuron</text>
     <text style="font-size: 8px; font-family: 'Arial'" transform="translate(-7.496875 78.07811) rotate(-90)">frequency (Hz)</text>
    </g>
   </g>
   <g id="patch_3">
    <path d="M 12.2472 48.351241 
L 14.5908 48.351241 
L 14.5908 40.879658 
L 12.2472 40.879658 
L 12.2472 48.351241 
z
" clip-path="url(#p6cb5d2aeff)" style="fill: #306c53; stroke: #2f2f2f; stroke-width: 0.5; stroke-linejoin: miter"/>
   </g>
   <g id="line2d_9">
    <path d="M 13.419 48.351241 
L 13.419 58.468998 
" clip-path="url(#p6cb5d2aeff)" style="fill: none; stroke: #2f2f2f; stroke-width: 0.5"/>
   </g>
   <g id="line2d_10">
    <path d="M 13.419 40.879658 
L 13.419 32.084997 
" clip-path="url(#p6cb5d2aeff)" style="fill: none; stroke: #2f2f2f; stroke-width: 0.5"/>
   </g>
   <g id="line2d_11">
    <path d="M 12.8331 58.468998 
L 14.0049 58.468998 
" clip-path="url(#p6cb5d2aeff)" style="fill: none; stroke: #2f2f2f; stroke-width: 0.5; stroke-linecap: square"/>
   </g>
   <g id="line2d_12">
    <path d="M 12.8331 32.084997 
L 14.0049 32.084997 
" clip-path="url(#p6cb5d2aeff)" style="fill: none; stroke: #2f2f2f; stroke-width: 0.5; stroke-linecap: square"/>
   </g>
   <g id="patch_4">
    <path d="M 23.9652 41.846772 
L 26.3088 41.846772 
L 26.3088 35.361435 
L 23.9652 35.361435 
L 23.9652 41.846772 
z
" clip-path="url(#p6cb5d2aeff)" style="fill: #306c53; stroke: #2f2f2f; stroke-width: 0.5; stroke-linejoin: miter"/>
   </g>
   <g id="line2d_13">
    <path d="M 25.137 41.846772 
L 25.137 50.958406 
" clip-path="url(#p6cb5d2aeff)" style="fill: none; stroke: #2f2f2f; stroke-width: 0.5"/>
   </g>
   <g id="line2d_14">
    <path d="M 25.137 35.361435 
L 25.137 25.896146 
" clip-path="url(#p6cb5d2aeff)" style="fill: none; stroke: #2f2f2f; stroke-width: 0.5"/>
   </g>
   <g id="line2d_15">
    <path d="M 24.5511 50.958406 
L 25.7229 50.958406 
" clip-path="url(#p6cb5d2aeff)" style="fill: none; stroke: #2f2f2f; stroke-width: 0.5; stroke-linecap: square"/>
   </g>
   <g id="line2d_16">
    <path d="M 24.5511 25.896146 
L 25.7229 25.896146 
" clip-path="url(#p6cb5d2aeff)" style="fill: none; stroke: #2f2f2f; stroke-width: 0.5; stroke-linecap: square"/>
   </g>
   <g id="patch_5">
    <path d="M 35.6832 37.717537 
L 38.0268 37.717537 
L 38.0268 30.656803 
L 35.6832 30.656803 
L 35.6832 37.717537 
z
" clip-path="url(#p6cb5d2aeff)" style="fill: #306c53; stroke: #2f2f2f; stroke-width: 0.5; stroke-linejoin: miter"/>
   </g>
   <g id="line2d_17">
    <path d="M 36.855 37.717537 
L 36.855 45.747153 
" clip-path="url(#p6cb5d2aeff)" style="fill: none; stroke: #2f2f2f; stroke-width: 0.5"/>
   </g>
   <g id="line2d_18">
    <path d="M 36.855 30.656803 
L 36.855 20.269934 
" clip-path="url(#p6cb5d2aeff)" style="fill: none; stroke: #2f2f2f; stroke-width: 0.5"/>
   </g>
   <g id="line2d_19">
    <path d="M 36.2691 45.747153 
L 37.4409 45.747153 
" clip-path="url(#p6cb5d2aeff)" style="fill: none; stroke: #2f2f2f; stroke-width: 0.5; stroke-linecap: square"/>
   </g>
   <g id="line2d_20">
    <path d="M 36.2691 20.269934 
L 37.4409 20.269934 
" clip-path="url(#p6cb5d2aeff)" style="fill: none; stroke: #2f2f2f; stroke-width: 0.5; stroke-linecap: square"/>
   </g>
   <g id="patch_6">
    <path d="M 47.4012 34.098229 
L 49.7448 34.098229 
L 49.7448 27.568816 
L 47.4012 27.568816 
L 47.4012 34.098229 
z
" clip-path="url(#p6cb5d2aeff)" style="fill: #306c53; stroke: #2f2f2f; stroke-width: 0.5; stroke-linejoin: miter"/>
   </g>
   <g id="line2d_21">
    <path d="M 48.573 34.098229 
L 48.573 42.774812 
" clip-path="url(#p6cb5d2aeff)" style="fill: none; stroke: #2f2f2f; stroke-width: 0.5"/>
   </g>
   <g id="line2d_22">
    <path d="M 48.573 27.568816 
L 48.573 19.231244 
" clip-path="url(#p6cb5d2aeff)" style="fill: none; stroke: #2f2f2f; stroke-width: 0.5"/>
   </g>
   <g id="line2d_23">
    <path d="M 47.9871 42.774812 
L 49.1589 42.774812 
" clip-path="url(#p6cb5d2aeff)" style="fill: none; stroke: #2f2f2f; stroke-width: 0.5; stroke-linecap: square"/>
   </g>
   <g id="line2d_24">
    <path d="M 47.9871 19.231244 
L 49.1589 19.231244 
" clip-path="url(#p6cb5d2aeff)" style="fill: none; stroke: #2f2f2f; stroke-width: 0.5; stroke-linecap: square"/>
   </g>
   <g id="line2d_25">
    <path d="M 12.2472 44.275348 
L 14.5908 44.275348 
" clip-path="url(#p6cb5d2aeff)" style="fill: none; stroke: #2f2f2f; stroke-width: 0.5"/>
   </g>
   <g id="line2d_26">
    <path d="M 23.9652 38.636547 
L 26.3088 38.636547 
" clip-path="url(#p6cb5d2aeff)" style="fill: none; stroke: #2f2f2f; stroke-width: 0.5"/>
   </g>
   <g id="line2d_27">
    <path d="M 35.6832 34.098229 
L 38.0268 34.098229 
" clip-path="url(#p6cb5d2aeff)" style="fill: none; stroke: #2f2f2f; stroke-width: 0.5"/>
   </g>
   <g id="line2d_28">
    <path d="M 47.4012 31.379935 
L 49.7448 31.379935 
" clip-path="url(#p6cb5d2aeff)" style="fill: none; stroke: #2f2f2f; stroke-width: 0.5"/>
   </g>
   <g id="patch_7">
    <path d="M 5.56 91.37808 
L 5.56 12.32064 
" style="fill: none; stroke: #000000; stroke-width: 0.25; stroke-linejoin: miter; stroke-linecap: square"/>
   </g>
   <g id="patch_8">
    <path d="M 7.56 93.37808 
L 54.432 93.37808 
" style="fill: none; stroke: #000000; stroke-width: 0.25; stroke-linejoin: miter; stroke-linecap: square"/>
   </g>
  </g>
 </g>
 <defs>
  <clipPath id="p6cb5d2aeff">
   <rect x="7.56" y="12.32064" width="46.872" height="79.05744"/>
  </clipPath>
 </defs>
</svg>
