<?xml version="1.0" encoding="utf-8" standalone="no"?>
<!DOCTYPE svg PUBLIC "-//W3C//DTD SVG 1.1//EN"
  "http://www.w3.org/Graphics/SVG/1.1/DTD/svg11.dtd">
<svg xmlns:xlink="http://www.w3.org/1999/xlink" width="50.4pt" height="64.8pt" viewBox="0 0 50.4 64.8" xmlns="http://www.w3.org/2000/svg" version="1.1">
 <metadata>
  <rdf:RDF xmlns:dc="http://purl.org/dc/elements/1.1/" xmlns:cc="http://creativecommons.org/ns#" xmlns:rdf="http://www.w3.org/1999/02/22-rdf-syntax-ns#">
   <cc:Work>
    <dc:type rdf:resource="http://purl.org/dc/dcmitype/StillImage"/>
    <dc:date>2025-09-05T11:11:23.682184</dc:date>
    <dc:format>image/svg+xml</dc:format>
    <dc:creator>
     <cc:Agent>
      <dc:title>Matplotlib v3.10.3, https://matplotlib.org/</dc:title>
     </cc:Agent>
    </dc:creator>
   </cc:Work>
  </rdf:RDF>
 </metadata>
 <defs>
  <style type="text/css">*{stroke-linejoin: round; stroke-linecap: butt}</style>
 </defs>
 <g id="figure_1">
  <g id="patch_1">
   <path d="M 0 64.8 
L 50.4 64.8 
L 50.4 0 
L 0 0 
L 0 64.8 
z
" style="fill: none"/>
  </g>
  <g id="axes_1">
   <g id="patch_2">
    <path d="M 6.3 57.672 
L 45.36 57.672 
L 45.36 7.776 
L 6.3 7.776 
L 6.3 57.672 
z
" style="fill: none"/>
   </g>
   <g id="FillBetweenPolyCollection_1">
    <path d="M 8.74125 12.707684 
L 8.74125 11.160316 
L 9.061818 11.086839 
L 9.382386 11.015692 
L 9.702955 10.946418 
L 10.023523 10.878053 
L 10.344091 10.809214 
L 10.664659 10.738188 
L 10.985227 10.66303 
L 11.305795 10.581654 
L 11.626364 10.49192 
L 11.946932 10.391745 
L 12.2675 10.279238 
L 12.588068 10.152877 
L 12.908636 10.01172 
L 13.229205 9.855643 
L 13.549773 9.685568 
L 13.870341 9.503659 
L 14.190909 9.313409 
L 14.511477 9.119604 
L 14.832045 8.928122 
L 15.152614 8.745586 
L 15.473182 8.578909 
L 15.79375 8.434819 
L 16.114318 8.319431 
L 16.434886 8.237934 
L 16.755455 8.194418 
L 17.076023 8.1918 
L 17.396591 8.231805 
L 17.717159 8.314918 
L 18.037727 8.44027 
L 18.358295 8.605477 
L 18.678864 8.80647 
L 18.999432 9.037444 
L 19.32 9.290977 
L 19.640568 9.558411 
L 19.961136 9.830444 
L 20.281705 10.097884 
L 20.602273 10.352415 
L 20.922841 10.587262 
L 21.243409 10.797631 
L 21.563977 10.980879 
L 21.884545 11.136404 
L 22.205114 11.26533 
L 22.525682 11.370053 
L 22.84625 11.453746 
L 23.166818 11.519911 
L 23.487386 11.572007 
L 23.807955 11.613199 
L 24.128523 11.646218 
L 24.449091 11.673301 
L 24.769659 11.696204 
L 25.090227 11.716251 
L 25.410795 11.734389 
L 25.731364 11.751258 
L 26.051932 11.767242 
L 26.3725 11.782522 
L 26.693068 11.797125 
L 27.013636 11.810963 
L 27.334205 11.823887 
L 27.654773 11.835725 
L 27.975341 11.846326 
L 28.295909 11.855594 
L 28.616477 11.863505 
L 28.937045 11.870118 
L 29.257614 11.875567 
L 29.578182 11.880047 
L 29.89875 11.883786 
L 30.219318 11.88702 
L 30.539886 11.889965 
L 30.860455 11.8928 
L 31.181023 11.89565 
L 31.501591 11.898587 
L 31.822159 11.901626 
L 32.142727 11.904741 
L 32.463295 11.907877 
L 32.783864 11.91096 
L 33.104432 11.913915 
L 33.425 11.916668 
L 33.745568 11.919159 
L 34.066136 11.921341 
L 34.386705 11.923181 
L 34.707273 11.924659 
L 35.027841 11.92577 
L 35.348409 11.926522 
L 35.668977 11.926936 
L 35.989545 11.927043 
L 36.310114 11.926888 
L 36.630682 11.926525 
L 36.95125 11.926014 
L 37.271818 11.925415 
L 37.592386 11.924791 
L 37.912955 11.924196 
L 38.233523 11.923677 
L 38.554091 11.923273 
L 38.874659 11.923013 
L 39.195227 11.922915 
L 39.515795 11.92299 
L 39.836364 11.92324 
L 40.156932 11.923661 
L 40.4775 11.924238 
L 40.4775 11.943762 
L 40.4775 11.943762 
L 40.156932 11.944339 
L 39.836364 11.94476 
L 39.515795 11.94501 
L 39.195227 11.945085 
L 38.874659 11.944987 
L 38.554091 11.944727 
L 38.233523 11.944323 
L 37.912955 11.943804 
L 37.592386 11.943209 
L 37.271818 11.942585 
L 36.95125 11.941986 
L 36.630682 11.941475 
L 36.310114 11.941112 
L 35.989545 11.940957 
L 35.668977 11.941064 
L 35.348409 11.941478 
L 35.027841 11.94223 
L 34.707273 11.943341 
L 34.386705 11.944819 
L 34.066136 11.946659 
L 33.745568 11.948841 
L 33.425 11.951332 
L 33.104432 11.954085 
L 32.783864 11.95704 
L 32.463295 11.960123 
L 32.142727 11.963259 
L 31.822159 11.966374 
L 31.501591 11.969413 
L 31.181023 11.97235 
L 30.860455 11.9752 
L 30.539886 11.978035 
L 30.219318 11.98098 
L 29.89875 11.984214 
L 29.578182 11.987953 
L 29.257614 11.992433 
L 28.937045 11.997882 
L 28.616477 12.004495 
L 28.295909 12.012406 
L 27.975341 12.021674 
L 27.654773 12.032275 
L 27.334205 12.044113 
L 27.013636 12.057037 
L 26.693068 12.070875 
L 26.3725 12.085478 
L 26.051932 12.100758 
L 25.731364 12.116742 
L 25.410795 12.133611 
L 25.090227 12.151749 
L 24.769659 12.171796 
L 24.449091 12.194699 
L 24.128523 12.221782 
L 23.807955 12.254801 
L 23.487386 12.295993 
L 23.166818 12.348089 
L 22.84625 12.414254 
L 22.525682 12.497947 
L 22.205114 12.60267 
L 21.884545 12.731596 
L 21.563977 12.887121 
L 21.243409 13.070369 
L 20.922841 13.280738 
L 20.602273 13.515585 
L 20.281705 13.770116 
L 19.961136 14.037556 
L 19.640568 14.309589 
L 19.32 14.577023 
L 18.999432 14.830556 
L 18.678864 15.06153 
L 18.358295 15.262523 
L 18.037727 15.42773 
L 17.717159 15.553082 
L 17.396591 15.636195 
L 17.076023 15.6762 
L 16.755455 15.673582 
L 16.434886 15.630066 
L 16.114318 15.548569 
L 15.79375 15.433181 
L 15.473182 15.289091 
L 15.152614 15.122414 
L 14.832045 14.939878 
L 14.511477 14.748396 
L 14.190909 14.554591 
L 13.870341 14.364341 
L 13.549773 14.182432 
L 13.229205 14.012357 
L 12.908636 13.85628 
L 12.588068 13.715123 
L 12.2675 13.588762 
L 11.946932 13.476255 
L 11.626364 13.37608 
L 11.305795 13.286346 
L 10.985227 13.20497 
L 10.664659 13.129812 
L 10.344091 13.058786 
L 10.023523 12.989947 
L 9.702955 12.921582 
L 9.382386 12.852308 
L 9.061818 12.781161 
L 8.74125 12.707684 
z
" clip-path="url(#p53f5e2f252)" style="fill: #306c53; fill-opacity: 0.5"/>
   </g>
   <g id="FillBetweenPolyCollection_2">
    <path d="M 8.74125 23.501956 
L 8.74125 16.998044 
L 11.133182 16.731757 
L 13.525114 16.56372 
L 15.917045 16.5078 
L 18.308977 16.567693 
L 20.700909 16.73662 
L 23.092841 16.998543 
L 25.484773 17.330591 
L 27.876705 17.706222 
L 30.268636 18.098524 
L 32.660568 18.483146 
L 35.0525 18.84046 
L 37.444432 19.156752 
L 39.836364 19.424454 
L 42.228295 19.641554 
L 44.620227 19.810458 
L 47.012159 19.936591 
L 49.404091 20.027003 
L 51.796023 20.089183 
L 54.187955 20.130179 
L 56.579886 20.156059 
L 58.971818 20.17167 
L 61.36375 20.18063 
L 63.755682 20.185466 
L 66.147614 20.187829 
L 68.539545 20.188733 
L 70.931477 20.188771 
L 73.323409 20.188294 
L 75.715341 20.187538 
L 78.107273 20.186704 
L 80.499205 20.185995 
L 82.891136 20.185617 
L 85.283068 20.185768 
L 87.675 20.186611 
L 90.066932 20.188257 
L 92.458864 20.190752 
L 94.850795 20.194076 
L 97.242727 20.198146 
L 99.634659 20.202831 
L 102.026591 20.207957 
L 104.418523 20.213333 
L 106.810455 20.218753 
L 109.202386 20.224019 
L 111.594318 20.228956 
L 113.98625 20.233418 
L 116.378182 20.237309 
L 118.770114 20.240577 
L 121.162045 20.243221 
L 123.553977 20.245279 
L 125.945909 20.246822 
L 128.337841 20.247932 
L 130.729773 20.248701 
L 133.121705 20.249213 
L 135.513636 20.24954 
L 137.905568 20.249741 
L 140.2975 20.249859 
L 142.689432 20.249926 
L 145.081364 20.249962 
L 147.473295 20.249981 
L 149.865227 20.249989 
L 152.257159 20.249991 
L 154.649091 20.249988 
L 157.041023 20.24998 
L 159.432955 20.249962 
L 161.824886 20.24993 
L 164.216818 20.249875 
L 166.60875 20.249785 
L 169.000682 20.249644 
L 171.392614 20.249429 
L 173.784545 20.249113 
L 176.176477 20.248667 
L 178.568409 20.248056 
L 180.960341 20.247246 
L 183.352273 20.246204 
L 185.744205 20.244903 
L 188.136136 20.243322 
L 190.528068 20.241449 
L 192.92 20.239286 
L 195.311932 20.236853 
L 197.703864 20.23419 
L 200.095795 20.231363 
L 202.487727 20.228469 
L 204.879659 20.225628 
L 207.271591 20.222985 
L 209.663523 20.220695 
L 212.055455 20.218907 
L 214.447386 20.217743 
L 216.839318 20.217285 
L 219.23125 20.217554 
L 221.623182 20.218511 
L 224.015114 20.220061 
L 226.407045 20.222069 
L 228.798977 20.224378 
L 231.190909 20.226833 
L 233.582841 20.229304 
L 235.974773 20.231691 
L 238.366705 20.233935 
L 240.758636 20.236009 
L 243.150568 20.237913 
L 245.5425 20.239658 
L 245.5425 20.260342 
L 245.5425 20.260342 
L 243.150568 20.262087 
L 240.758636 20.263991 
L 238.366705 20.266065 
L 235.974773 20.268309 
L 233.582841 20.270696 
L 231.190909 20.273167 
L 228.798977 20.275622 
L 226.407045 20.277931 
L 224.015114 20.279939 
L 221.623182 20.281489 
L 219.23125 20.282446 
L 216.839318 20.282715 
L 214.447386 20.282257 
L 212.055455 20.281093 
L 209.663523 20.279305 
L 207.271591 20.277015 
L 204.879659 20.274372 
L 202.487727 20.271531 
L 200.095795 20.268637 
L 197.703864 20.26581 
L 195.311932 20.263147 
L 192.92 20.260714 
L 190.528068 20.258551 
L 188.136136 20.256678 
L 185.744205 20.255097 
L 183.352273 20.253796 
L 180.960341 20.252754 
L 178.568409 20.251944 
L 176.176477 20.251333 
L 173.784545 20.250887 
L 171.392614 20.250571 
L 169.000682 20.250356 
L 166.60875 20.250215 
L 164.216818 20.250125 
L 161.824886 20.25007 
L 159.432955 20.250038 
L 157.041023 20.25002 
L 154.649091 20.250012 
L 152.257159 20.250009 
L 149.865227 20.250011 
L 147.473295 20.250019 
L 145.081364 20.250038 
L 142.689432 20.250074 
L 140.2975 20.250141 
L 137.905568 20.250259 
L 135.513636 20.25046 
L 133.121705 20.250787 
L 130.729773 20.251299 
L 128.337841 20.252068 
L 125.945909 20.253178 
L 123.553977 20.254721 
L 121.162045 20.256779 
L 118.770114 20.259423 
L 116.378182 20.262691 
L 113.98625 20.266582 
L 111.594318 20.271044 
L 109.202386 20.275981 
L 106.810455 20.281247 
L 104.418523 20.286667 
L 102.026591 20.292043 
L 99.634659 20.297169 
L 97.242727 20.301854 
L 94.850795 20.305924 
L 92.458864 20.309248 
L 90.066932 20.311743 
L 87.675 20.313389 
L 85.283068 20.314232 
L 82.891136 20.314383 
L 80.499205 20.314005 
L 78.107273 20.313296 
L 75.715341 20.312462 
L 73.323409 20.311706 
L 70.931477 20.311229 
L 68.539545 20.311267 
L 66.147614 20.312171 
L 63.755682 20.314534 
L 61.36375 20.31937 
L 58.971818 20.32833 
L 56.579886 20.343941 
L 54.187955 20.369821 
L 51.796023 20.410817 
L 49.404091 20.472997 
L 47.012159 20.563409 
L 44.620227 20.689542 
L 42.228295 20.858446 
L 39.836364 21.075546 
L 37.444432 21.343248 
L 35.0525 21.65954 
L 32.660568 22.016854 
L 30.268636 22.401476 
L 27.876705 22.793778 
L 25.484773 23.169409 
L 23.092841 23.501457 
L 20.700909 23.76338 
L 18.308977 23.932307 
L 15.917045 23.9922 
L 13.525114 23.93628 
L 11.133182 23.768243 
L 8.74125 23.501956 
z
" clip-path="url(#p53f5e2f252)" style="fill: #c35843; fill-opacity: 0.5"/>
   </g>
   <g id="FillBetweenPolyCollection_3">
    <path d="M 8.74125 32.040916 
L 8.74125 25.091084 
L 10.590682 24.8238 
L 12.440114 25.223982 
L 14.289545 26.070366 
L 16.138977 26.981738 
L 17.988409 27.677613 
L 19.837841 28.083933 
L 21.687273 28.267184 
L 23.536705 28.32744 
L 25.386136 28.340174 
L 27.235568 28.346769 
L 29.085 28.363738 
L 30.934432 28.39327 
L 32.783864 28.430628 
L 34.633295 28.468596 
L 36.482727 28.500604 
L 38.332159 28.523238 
L 40.181591 28.537112 
L 42.031023 28.545414 
L 43.880455 28.551336 
L 45.729886 28.556391 
L 47.579318 28.560558 
L 49.42875 28.563428 
L 51.278182 28.565004 
L 53.127614 28.565687 
L 54.977045 28.56592 
L 56.826477 28.565984 
L 58.675909 28.565996 
L 60.525341 28.565993 
L 62.374773 28.565969 
L 64.224205 28.565876 
L 66.073636 28.56561 
L 67.923068 28.565014 
L 69.7725 28.564008 
L 71.621932 28.562785 
L 73.471364 28.56185 
L 75.320795 28.561718 
L 77.170227 28.562468 
L 79.019659 28.56367 
L 80.869091 28.564772 
L 82.718523 28.565482 
L 84.567955 28.565826 
L 86.417386 28.565953 
L 88.266818 28.56599 
L 90.11625 28.565998 
L 91.965682 28.566 
L 93.815114 28.566 
L 95.664545 28.566 
L 97.513977 28.566 
L 99.363409 28.566 
L 101.212841 28.566 
L 103.062273 28.566 
L 104.911705 28.566 
L 106.761136 28.566 
L 108.610568 28.566 
L 110.46 28.566 
L 112.309432 28.566 
L 114.158864 28.566 
L 116.008295 28.566 
L 117.857727 28.566 
L 119.707159 28.566 
L 121.556591 28.566 
L 123.406023 28.566 
L 125.255455 28.566 
L 127.104886 28.566 
L 128.954318 28.566 
L 130.80375 28.566 
L 132.653182 28.566 
L 134.502614 28.566 
L 136.352045 28.566 
L 138.201477 28.566 
L 140.050909 28.566 
L 141.900341 28.566 
L 143.749773 28.566 
L 145.599205 28.566 
L 147.448636 28.566 
L 149.298068 28.566 
L 151.1475 28.566 
L 152.996932 28.566 
L 154.846364 28.566 
L 156.695795 28.566 
L 158.545227 28.566 
L 160.394659 28.566 
L 162.244091 28.566 
L 164.093523 28.566 
L 165.942955 28.566 
L 167.792386 28.566 
L 169.641818 28.566 
L 171.49125 28.566 
L 173.340682 28.566 
L 175.190114 28.565999 
L 177.039545 28.565997 
L 178.888977 28.565982 
L 180.738409 28.565923 
L 182.587841 28.565735 
L 184.437273 28.565275 
L 186.286705 28.564413 
L 188.136136 28.563223 
L 189.985568 28.562115 
L 191.835 28.561655 
L 191.835 28.570345 
L 191.835 28.570345 
L 189.985568 28.569885 
L 188.136136 28.568777 
L 186.286705 28.567587 
L 184.437273 28.566725 
L 182.587841 28.566265 
L 180.738409 28.566077 
L 178.888977 28.566018 
L 177.039545 28.566003 
L 175.190114 28.566001 
L 173.340682 28.566 
L 171.49125 28.566 
L 169.641818 28.566 
L 167.792386 28.566 
L 165.942955 28.566 
L 164.093523 28.566 
L 162.244091 28.566 
L 160.394659 28.566 
L 158.545227 28.566 
L 156.695795 28.566 
L 154.846364 28.566 
L 152.996932 28.566 
L 151.1475 28.566 
L 149.298068 28.566 
L 147.448636 28.566 
L 145.599205 28.566 
L 143.749773 28.566 
L 141.900341 28.566 
L 140.050909 28.566 
L 138.201477 28.566 
L 136.352045 28.566 
L 134.502614 28.566 
L 132.653182 28.566 
L 130.80375 28.566 
L 128.954318 28.566 
L 127.104886 28.566 
L 125.255455 28.566 
L 123.406023 28.566 
L 121.556591 28.566 
L 119.707159 28.566 
L 117.857727 28.566 
L 116.008295 28.566 
L 114.158864 28.566 
L 112.309432 28.566 
L 110.46 28.566 
L 108.610568 28.566 
L 106.761136 28.566 
L 104.911705 28.566 
L 103.062273 28.566 
L 101.212841 28.566 
L 99.363409 28.566 
L 97.513977 28.566 
L 95.664545 28.566 
L 93.815114 28.566 
L 91.965682 28.566 
L 90.11625 28.566002 
L 88.266818 28.56601 
L 86.417386 28.566047 
L 84.567955 28.566174 
L 82.718523 28.566518 
L 80.869091 28.567228 
L 79.019659 28.56833 
L 77.170227 28.569532 
L 75.320795 28.570282 
L 73.471364 28.57015 
L 71.621932 28.569215 
L 69.7725 28.567992 
L 67.923068 28.566986 
L 66.073636 28.56639 
L 64.224205 28.566124 
L 62.374773 28.566031 
L 60.525341 28.566007 
L 58.675909 28.566004 
L 56.826477 28.566016 
L 54.977045 28.56608 
L 53.127614 28.566313 
L 51.278182 28.566996 
L 49.42875 28.568572 
L 47.579318 28.571442 
L 45.729886 28.575609 
L 43.880455 28.580664 
L 42.031023 28.586586 
L 40.181591 28.594888 
L 38.332159 28.608762 
L 36.482727 28.631396 
L 34.633295 28.663404 
L 32.783864 28.701372 
L 30.934432 28.73873 
L 29.085 28.768262 
L 27.235568 28.785231 
L 25.386136 28.791826 
L 23.536705 28.80456 
L 21.687273 28.864816 
L 19.837841 29.048067 
L 17.988409 29.454387 
L 16.138977 30.150262 
L 14.289545 31.061634 
L 12.440114 31.908018 
L 10.590682 32.3082 
L 8.74125 32.040916 
z
" clip-path="url(#p53f5e2f252)" style="fill: #f0a394; fill-opacity: 0.5"/>
   </g>
   <g id="FillBetweenPolyCollection_4">
    <path d="M 8.74125 36.936185 
L 8.74125 36.827815 
L 8.790568 36.82783 
L 8.839886 36.828145 
L 8.889205 36.828729 
L 8.938523 36.82954 
L 8.987841 36.830522 
L 9.037159 36.831605 
L 9.086477 36.832706 
L 9.135795 36.833725 
L 9.185114 36.834548 
L 9.234432 36.835043 
L 9.28375 36.835058 
L 9.333068 36.834425 
L 9.382386 36.832953 
L 9.431705 36.83043 
L 9.481023 36.826623 
L 9.530341 36.821274 
L 9.579659 36.814104 
L 9.628977 36.80481 
L 9.678295 36.79307 
L 9.727614 36.778546 
L 9.776932 36.760888 
L 9.82625 36.739738 
L 9.875568 36.714743 
L 9.924886 36.685561 
L 9.974205 36.651872 
L 10.023523 36.613397 
L 10.072841 36.569903 
L 10.122159 36.521229 
L 10.171477 36.467294 
L 10.220795 36.408114 
L 10.270114 36.34382 
L 10.319432 36.274666 
L 10.36875 36.201043 
L 10.418068 36.123481 
L 10.467386 36.042657 
L 10.516705 35.959388 
L 10.566023 35.874625 
L 10.615341 35.789437 
L 10.664659 35.704998 
L 10.713977 35.622557 
L 10.763295 35.543411 
L 10.812614 35.468873 
L 10.861932 35.400237 
L 10.91125 35.338739 
L 10.960568 35.285519 
L 11.009886 35.241589 
L 11.059205 35.207797 
L 11.108523 35.184801 
L 11.157841 35.173043 
L 11.207159 35.172736 
L 11.256477 35.183849 
L 11.305795 35.206113 
L 11.355114 35.239022 
L 11.404432 35.281845 
L 11.45375 35.333647 
L 11.503068 35.393315 
L 11.552386 35.459581 
L 11.601705 35.531062 
L 11.651023 35.606281 
L 11.700341 35.683709 
L 11.749659 35.76179 
L 11.798977 35.83897 
L 11.848295 35.913722 
L 11.897614 35.984568 
L 11.946932 36.050089 
L 11.99625 36.108944 
L 12.045568 36.159875 
L 12.094886 36.201713 
L 12.144205 36.233378 
L 12.193523 36.253888 
L 12.242841 36.262357 
L 12.292159 36.257999 
L 12.341477 36.240134 
L 12.390795 36.208198 
L 12.440114 36.161754 
L 12.489432 36.100508 
L 12.53875 36.024328 
L 12.588068 35.933265 
L 12.637386 35.827577 
L 12.686705 35.707751 
L 12.736023 35.574525 
L 12.785341 35.428911 
L 12.834659 35.272201 
L 12.883977 35.105982 
L 12.933295 34.932126 
L 12.982614 34.752786 
L 13.031932 34.570368 
L 13.08125 34.387499 
L 13.130568 34.206978 
L 13.179886 34.031724 
L 13.229205 33.86471 
L 13.278523 33.708886 
L 13.327841 33.567108 
L 13.377159 33.442053 
L 13.426477 33.336145 
L 13.475795 33.251485 
L 13.525114 33.189778 
L 13.574432 33.15229 
L 13.62375 33.1398 
L 13.62375 40.6242 
L 13.62375 40.6242 
L 13.574432 40.61171 
L 13.525114 40.574222 
L 13.475795 40.512515 
L 13.426477 40.427855 
L 13.377159 40.321947 
L 13.327841 40.196892 
L 13.278523 40.055114 
L 13.229205 39.89929 
L 13.179886 39.732276 
L 13.130568 39.557022 
L 13.08125 39.376501 
L 13.031932 39.193632 
L 12.982614 39.011214 
L 12.933295 38.831874 
L 12.883977 38.658018 
L 12.834659 38.491799 
L 12.785341 38.335089 
L 12.736023 38.189475 
L 12.686705 38.056249 
L 12.637386 37.936423 
L 12.588068 37.830735 
L 12.53875 37.739672 
L 12.489432 37.663492 
L 12.440114 37.602246 
L 12.390795 37.555802 
L 12.341477 37.523866 
L 12.292159 37.506001 
L 12.242841 37.501643 
L 12.193523 37.510112 
L 12.144205 37.530622 
L 12.094886 37.562287 
L 12.045568 37.604125 
L 11.99625 37.655056 
L 11.946932 37.713911 
L 11.897614 37.779432 
L 11.848295 37.850278 
L 11.798977 37.92503 
L 11.749659 38.00221 
L 11.700341 38.080291 
L 11.651023 38.157719 
L 11.601705 38.232938 
L 11.552386 38.304419 
L 11.503068 38.370685 
L 11.45375 38.430353 
L 11.404432 38.482155 
L 11.355114 38.524978 
L 11.305795 38.557887 
L 11.256477 38.580151 
L 11.207159 38.591264 
L 11.157841 38.590957 
L 11.108523 38.579199 
L 11.059205 38.556203 
L 11.009886 38.522411 
L 10.960568 38.478481 
L 10.91125 38.425261 
L 10.861932 38.363763 
L 10.812614 38.295127 
L 10.763295 38.220589 
L 10.713977 38.141443 
L 10.664659 38.059002 
L 10.615341 37.974563 
L 10.566023 37.889375 
L 10.516705 37.804612 
L 10.467386 37.721343 
L 10.418068 37.640519 
L 10.36875 37.562957 
L 10.319432 37.489334 
L 10.270114 37.42018 
L 10.220795 37.355886 
L 10.171477 37.296706 
L 10.122159 37.242771 
L 10.072841 37.194097 
L 10.023523 37.150603 
L 9.974205 37.112128 
L 9.924886 37.078439 
L 9.875568 37.049257 
L 9.82625 37.024262 
L 9.776932 37.003112 
L 9.727614 36.985454 
L 9.678295 36.97093 
L 9.628977 36.95919 
L 9.579659 36.949896 
L 9.530341 36.942726 
L 9.481023 36.937377 
L 9.431705 36.93357 
L 9.382386 36.931047 
L 9.333068 36.929575 
L 9.28375 36.928942 
L 9.234432 36.928957 
L 9.185114 36.929452 
L 9.135795 36.930275 
L 9.086477 36.931294 
L 9.037159 36.932395 
L 8.987841 36.933478 
L 8.938523 36.93446 
L 8.889205 36.935271 
L 8.839886 36.935855 
L 8.790568 36.93617 
L 8.74125 36.936185 
z
" clip-path="url(#p53f5e2f252)" style="fill: #8d3d2d; fill-opacity: 0.5"/>
   </g>
   <g id="FillBetweenPolyCollection_5">
    <path d="M 8.74125 46.498576 
L 8.74125 43.897424 
L 8.987841 43.695935 
L 9.234432 43.48113 
L 9.481023 43.256389 
L 9.727614 43.025949 
L 9.974205 42.794724 
L 10.220795 42.56804 
L 10.467386 42.35132 
L 10.713977 42.149759 
L 10.960568 41.968034 
L 11.207159 41.810089 
L 11.45375 41.679007 
L 11.700341 41.576994 
L 11.946932 41.505434 
L 12.193523 41.465008 
L 12.440114 41.4558 
L 12.686705 41.477389 
L 12.933295 41.528863 
L 13.179886 41.608772 
L 13.426477 41.715021 
L 13.673068 41.844741 
L 13.919659 41.994188 
L 14.16625 42.1587 
L 14.412841 42.332777 
L 14.659432 42.510268 
L 14.906023 42.684692 
L 15.152614 42.849649 
L 15.399205 42.999283 
L 15.645795 43.12875 
L 15.892386 43.234626 
L 16.138977 43.315211 
L 16.385568 43.370702 
L 16.632159 43.403186 
L 16.87875 43.416484 
L 17.125341 43.41583 
L 17.371932 43.407421 
L 17.618523 43.397893 
L 17.865114 43.393747 
L 18.111705 43.400804 
L 18.358295 43.423726 
L 18.604886 43.465668 
L 18.851477 43.528067 
L 19.098068 43.610618 
L 19.344659 43.711406 
L 19.59125 43.827185 
L 19.837841 43.953761 
L 20.084432 44.086431 
L 20.331023 44.220421 
L 20.577614 44.351284 
L 20.824205 44.47521 
L 21.070795 44.589236 
L 21.317386 44.691342 
L 21.563977 44.780448 
L 21.810568 44.856321 
L 22.057159 44.919432 
L 22.30375 44.970774 
L 22.550341 45.01168 
L 22.796932 45.043652 
L 23.043523 45.068222 
L 23.290114 45.08684 
L 23.536705 45.100805 
L 23.783295 45.111229 
L 24.029886 45.119019 
L 24.276477 45.12489 
L 24.523068 45.129384 
L 24.769659 45.132898 
L 25.01625 45.135714 
L 25.262841 45.138027 
L 25.509432 45.139969 
L 25.756023 45.14163 
L 26.002614 45.143074 
L 26.249205 45.14435 
L 26.495795 45.145496 
L 26.742386 45.146551 
L 26.988977 45.147548 
L 27.235568 45.148523 
L 27.482159 45.149508 
L 27.72875 45.150529 
L 27.975341 45.151611 
L 28.221932 45.152764 
L 28.468523 45.153994 
L 28.715114 45.155293 
L 28.961705 45.156641 
L 29.208295 45.158012 
L 29.454886 45.159373 
L 29.701477 45.160686 
L 29.948068 45.161917 
L 30.194659 45.163035 
L 30.44125 45.164018 
L 30.687841 45.164857 
L 30.934432 45.165554 
L 31.181023 45.166126 
L 31.427614 45.166604 
L 31.674205 45.167029 
L 31.920795 45.167452 
L 32.167386 45.167927 
L 32.413977 45.168508 
L 32.660568 45.169244 
L 32.907159 45.170174 
L 33.15375 45.171324 
L 33.15375 45.224676 
L 33.15375 45.224676 
L 32.907159 45.225826 
L 32.660568 45.226756 
L 32.413977 45.227492 
L 32.167386 45.228073 
L 31.920795 45.228548 
L 31.674205 45.228971 
L 31.427614 45.229396 
L 31.181023 45.229874 
L 30.934432 45.230446 
L 30.687841 45.231143 
L 30.44125 45.231982 
L 30.194659 45.232965 
L 29.948068 45.234083 
L 29.701477 45.235314 
L 29.454886 45.236627 
L 29.208295 45.237988 
L 28.961705 45.239359 
L 28.715114 45.240707 
L 28.468523 45.242006 
L 28.221932 45.243236 
L 27.975341 45.244389 
L 27.72875 45.245471 
L 27.482159 45.246492 
L 27.235568 45.247477 
L 26.988977 45.248452 
L 26.742386 45.249449 
L 26.495795 45.250504 
L 26.249205 45.25165 
L 26.002614 45.252926 
L 25.756023 45.25437 
L 25.509432 45.256031 
L 25.262841 45.257973 
L 25.01625 45.260286 
L 24.769659 45.263102 
L 24.523068 45.266616 
L 24.276477 45.27111 
L 24.029886 45.276981 
L 23.783295 45.284771 
L 23.536705 45.295195 
L 23.290114 45.30916 
L 23.043523 45.327778 
L 22.796932 45.352348 
L 22.550341 45.38432 
L 22.30375 45.425226 
L 22.057159 45.476568 
L 21.810568 45.539679 
L 21.563977 45.615552 
L 21.317386 45.704658 
L 21.070795 45.806764 
L 20.824205 45.92079 
L 20.577614 46.044716 
L 20.331023 46.175579 
L 20.084432 46.309569 
L 19.837841 46.442239 
L 19.59125 46.568815 
L 19.344659 46.684594 
L 19.098068 46.785382 
L 18.851477 46.867933 
L 18.604886 46.930332 
L 18.358295 46.972274 
L 18.111705 46.995196 
L 17.865114 47.002253 
L 17.618523 46.998107 
L 17.371932 46.988579 
L 17.125341 46.98017 
L 16.87875 46.979516 
L 16.632159 46.992814 
L 16.385568 47.025298 
L 16.138977 47.080789 
L 15.892386 47.161374 
L 15.645795 47.26725 
L 15.399205 47.396717 
L 15.152614 47.546351 
L 14.906023 47.711308 
L 14.659432 47.885732 
L 14.412841 48.063223 
L 14.16625 48.2373 
L 13.919659 48.401812 
L 13.673068 48.551259 
L 13.426477 48.680979 
L 13.179886 48.787228 
L 12.933295 48.867137 
L 12.686705 48.918611 
L 12.440114 48.9402 
L 12.193523 48.930992 
L 11.946932 48.890566 
L 11.700341 48.819006 
L 11.45375 48.716993 
L 11.207159 48.585911 
L 10.960568 48.427966 
L 10.713977 48.246241 
L 10.467386 48.04468 
L 10.220795 47.82796 
L 9.974205 47.601276 
L 9.727614 47.370051 
L 9.481023 47.139611 
L 9.234432 46.91487 
L 8.987841 46.700065 
L 8.74125 46.498576 
z
" clip-path="url(#p53f5e2f252)" style="fill: #e76f58; fill-opacity: 0.5"/>
   </g>
   <g id="FillBetweenPolyCollection_6">
    <path d="M 8.74125 56.27928 
L 8.74125 50.74872 
L 11.725 50.549791 
L 14.70875 50.366035 
L 17.6925 50.201512 
L 20.67625 50.059856 
L 23.66 49.944121 
L 26.64375 49.85665 
L 29.6275 49.798982 
L 32.61125 49.7718 
L 35.595 49.774918 
L 38.57875 49.80732 
L 41.5625 49.86723 
L 44.54625 49.952223 
L 47.53 50.059364 
L 50.51375 50.185351 
L 53.4975 50.326682 
L 56.48125 50.4798 
L 59.465 50.641241 
L 62.44875 50.807745 
L 65.4325 50.976357 
L 68.41625 51.14449 
L 71.4 51.309962 
L 74.38375 51.471008 
L 77.3675 51.626262 
L 80.35125 51.774732 
L 83.335 51.91575 
L 86.31875 52.048919 
L 89.3025 52.174062 
L 92.28625 52.291163 
L 95.27 52.400319 
L 98.25375 52.501702 
L 101.2375 52.595525 
L 104.22125 52.682017 
L 107.205 52.761411 
L 110.18875 52.833938 
L 113.1725 52.89982 
L 116.15625 52.95928 
L 119.14 53.01254 
L 122.12375 53.059833 
L 125.1075 53.101405 
L 128.09125 53.137518 
L 131.075 53.168453 
L 134.05875 53.194514 
L 137.0425 53.216018 
L 140.02625 53.233298 
L 143.01 53.246696 
L 145.99375 53.256558 
L 148.9775 53.263227 
L 151.96125 53.267041 
L 154.945 53.268328 
L 157.92875 53.267405 
L 160.9125 53.264576 
L 163.89625 53.26013 
L 166.88 53.254348 
L 169.86375 53.247499 
L 172.8475 53.239847 
L 175.83125 53.231647 
L 178.815 53.223153 
L 181.79875 53.214614 
L 184.7825 53.206274 
L 187.76625 53.19837 
L 190.75 53.191128 
L 193.73375 53.184762 
L 196.7175 53.179464 
L 199.70125 53.175403 
L 202.685 53.172721 
L 205.66875 53.171524 
L 208.6525 53.171885 
L 211.63625 53.173839 
L 214.62 53.177384 
L 217.60375 53.182482 
L 220.5875 53.189064 
L 223.57125 53.19703 
L 226.555 53.206258 
L 229.53875 53.216607 
L 232.5225 53.227924 
L 235.50625 53.240047 
L 238.49 53.252814 
L 241.47375 53.266064 
L 244.4575 53.279639 
L 247.44125 53.293392 
L 250.425 53.307185 
L 253.40875 53.320891 
L 256.3925 53.334395 
L 259.37625 53.347595 
L 262.36 53.360402 
L 265.34375 53.37274 
L 268.3275 53.384546 
L 271.31125 53.395767 
L 274.295 53.406367 
L 277.27875 53.416319 
L 280.2625 53.425608 
L 283.24625 53.434231 
L 286.23 53.442194 
L 289.21375 53.449514 
L 292.1975 53.456214 
L 295.18125 53.462324 
L 298.165 53.467878 
L 301.14875 53.472915 
L 304.1325 53.477474 
L 304.1325 53.550526 
L 304.1325 53.550526 
L 301.14875 53.555085 
L 298.165 53.560122 
L 295.18125 53.565676 
L 292.1975 53.571786 
L 289.21375 53.578486 
L 286.23 53.585806 
L 283.24625 53.593769 
L 280.2625 53.602392 
L 277.27875 53.611681 
L 274.295 53.621633 
L 271.31125 53.632233 
L 268.3275 53.643454 
L 265.34375 53.65526 
L 262.36 53.667598 
L 259.37625 53.680405 
L 256.3925 53.693605 
L 253.40875 53.707109 
L 250.425 53.720815 
L 247.44125 53.734608 
L 244.4575 53.748361 
L 241.47375 53.761936 
L 238.49 53.775186 
L 235.50625 53.787953 
L 232.5225 53.800076 
L 229.53875 53.811393 
L 226.555 53.821742 
L 223.57125 53.83097 
L 220.5875 53.838936 
L 217.60375 53.845518 
L 214.62 53.850616 
L 211.63625 53.854161 
L 208.6525 53.856115 
L 205.66875 53.856476 
L 202.685 53.855279 
L 199.70125 53.852597 
L 196.7175 53.848536 
L 193.73375 53.843238 
L 190.75 53.836872 
L 187.76625 53.82963 
L 184.7825 53.821726 
L 181.79875 53.813386 
L 178.815 53.804847 
L 175.83125 53.796353 
L 172.8475 53.788153 
L 169.86375 53.780501 
L 166.88 53.773652 
L 163.89625 53.76787 
L 160.9125 53.763424 
L 157.92875 53.760595 
L 154.945 53.759672 
L 151.96125 53.760959 
L 148.9775 53.764773 
L 145.99375 53.771442 
L 143.01 53.781304 
L 140.02625 53.794702 
L 137.0425 53.811982 
L 134.05875 53.833486 
L 131.075 53.859547 
L 128.09125 53.890482 
L 125.1075 53.926595 
L 122.12375 53.968167 
L 119.14 54.01546 
L 116.15625 54.06872 
L 113.1725 54.12818 
L 110.18875 54.194062 
L 107.205 54.266589 
L 104.22125 54.345983 
L 101.2375 54.432475 
L 98.25375 54.526298 
L 95.27 54.627681 
L 92.28625 54.736837 
L 89.3025 54.853938 
L 86.31875 54.979081 
L 83.335 55.11225 
L 80.35125 55.253268 
L 77.3675 55.401738 
L 74.38375 55.556992 
L 71.4 55.718038 
L 68.41625 55.88351 
L 65.4325 56.051643 
L 62.44875 56.220255 
L 59.465 56.386759 
L 56.48125 56.5482 
L 53.4975 56.701318 
L 50.51375 56.842649 
L 47.53 56.968636 
L 44.54625 57.075777 
L 41.5625 57.16077 
L 38.57875 57.22068 
L 35.595 57.253082 
L 32.61125 57.2562 
L 29.6275 57.229018 
L 26.64375 57.17135 
L 23.66 57.083879 
L 20.67625 56.968144 
L 17.6925 56.826488 
L 14.70875 56.661965 
L 11.725 56.478209 
L 8.74125 56.27928 
z
" clip-path="url(#p53f5e2f252)" style="fill: #126175; fill-opacity: 0.5"/>
   </g>
   <g id="matplotlib.axis_1">
    <g id="xtick_1">
     <g id="line2d_1">
      <defs>
       <path id="m54ce78c9ce" d="M 0 0 
L 0 1.7 
" style="stroke: #000000; stroke-width: 0.25"/>
      </defs>
      <g>
       <use xlink:href="#m54ce78c9ce" x="6.3" y="58.672" style="stroke: #000000; stroke-width: 0.25"/>
      </g>
     </g>
     <g id="text_1">
      <text style="font-size: 6px; font-family: 'Arial'; text-anchor: middle" x="6.3" y="66.166687" transform="rotate(-0 6.3 66.166687)">0</text>
     </g>
    </g>
    <g id="xtick_2">
     <g id="line2d_2">
      <g>
       <use xlink:href="#m54ce78c9ce" x="18.50625" y="58.672" style="stroke: #000000; stroke-width: 0.25"/>
      </g>
     </g>
     <g id="text_2">
      <text style="font-size: 6px; font-family: 'Arial'; text-anchor: middle" x="18.50625" y="66.166687" transform="rotate(-0 18.50625 66.166687)">5</text>
     </g>
    </g>
    <g id="xtick_3">
     <g id="line2d_3">
      <g>
       <use xlink:href="#m54ce78c9ce" x="30.7125" y="58.672" style="stroke: #000000; stroke-width: 0.25"/>
      </g>
     </g>
     <g id="text_3">
      <text style="font-size: 6px; font-family: 'Arial'; text-anchor: middle" x="30.7125" y="66.166687" transform="rotate(-0 30.7125 66.166687)">10</text>
     </g>
    </g>
    <g id="xtick_4">
     <g id="line2d_4">
      <g>
       <use xlink:href="#m54ce78c9ce" x="42.91875" y="58.672" style="stroke: #000000; stroke-width: 0.25"/>
      </g>
     </g>
     <g id="text_4">
      <text style="font-size: 6px; font-family: 'Arial'; text-anchor: middle" x="42.91875" y="66.166687" transform="rotate(-0 42.91875 66.166687)">15</text>
     </g>
    </g>
    <g id="text_5">
     <text style="font-size: 8px; font-family: 'Arial'; text-anchor: middle" x="25.83" y="74.585437" transform="rotate(-0 25.83 74.585437)"># MNs active</text>
    </g>
   </g>
   <g id="matplotlib.axis_2">
    <g id="ytick_1">
     <g id="line2d_5">
      <defs>
       <path id="mba245fd6ba" d="M 0 0 
L -1.7 0 
" style="stroke: #000000; stroke-width: 0.25"/>
      </defs>
      <g>
       <use xlink:href="#mba245fd6ba" x="4.3" y="11.934" style="stroke: #000000; stroke-width: 0.25"/>
      </g>
     </g>
     <g id="text_6">
      <text style="font-size: 6px; font-family: 'Arial'; text-anchor: end" x="1.1" y="14.081344" transform="rotate(-0 1.1 14.081344)">none</text>
     </g>
    </g>
    <g id="ytick_2">
     <g id="line2d_6">
      <g>
       <use xlink:href="#mba245fd6ba" x="4.3" y="20.25" style="stroke: #000000; stroke-width: 0.25"/>
      </g>
     </g>
     <g id="text_7">
      <text style="font-size: 6px; font-family: 'Arial'; text-anchor: end" x="1.1" y="22.397344" transform="rotate(-0 1.1 22.397344)">E1</text>
     </g>
    </g>
    <g id="ytick_3">
     <g id="line2d_7">
      <g>
       <use xlink:href="#mba245fd6ba" x="4.3" y="28.566" style="stroke: #000000; stroke-width: 0.25"/>
      </g>
     </g>
     <g id="text_8">
      <text style="font-size: 6px; font-family: 'Arial'; text-anchor: end" x="1.1" y="30.713344" transform="rotate(-0 1.1 30.713344)">E2</text>
     </g>
    </g>
    <g id="ytick_4">
     <g id="line2d_8">
      <g>
       <use xlink:href="#mba245fd6ba" x="4.3" y="36.882" style="stroke: #000000; stroke-width: 0.25"/>
      </g>
     </g>
     <g id="text_9">
      <text style="font-size: 6px; font-family: 'Arial'; text-anchor: end" x="1.1" y="39.029344" transform="rotate(-0 1.1 39.029344)">E3</text>
     </g>
    </g>
    <g id="ytick_5">
     <g id="line2d_9">
      <g>
       <use xlink:href="#mba245fd6ba" x="4.3" y="45.198" style="stroke: #000000; stroke-width: 0.25"/>
      </g>
     </g>
     <g id="text_10">
      <text style="font-size: 6px; font-family: 'Arial'; text-anchor: end" x="1.1" y="47.345344" transform="rotate(-0 1.1 47.345344)">E4</text>
     </g>
    </g>
    <g id="ytick_6">
     <g id="line2d_10">
      <g>
       <use xlink:href="#mba245fd6ba" x="4.3" y="53.514" style="stroke: #000000; stroke-width: 0.25"/>
      </g>
     </g>
     <g id="text_11">
      <text style="font-size: 6px; font-family: 'Arial'; text-anchor: end" x="1.1" y="55.661344" transform="rotate(-0 1.1 55.661344)">I2</text>
     </g>
    </g>
    <g id="text_12">
     <text style="font-size: 8px; font-family: 'Arial'; text-anchor: middle" x="-15.33625" y="32.724" transform="rotate(-90 -15.33625 32.724)">silenced neuron</text>
    </g>
   </g>
   <g id="patch_3">
    <path d="M 13.62375 11.1024 
L 13.62375 12.7656 
L 18.50625 12.7656 
L 18.50625 11.1024 
L 13.62375 11.1024 
z
" clip-path="url(#p53f5e2f252)" style="fill: #306c53; stroke: #282828; stroke-width: 0.75; stroke-linejoin: miter"/>
   </g>
   <g id="line2d_11">
    <path d="M 13.62375 11.934 
L 8.74125 11.934 
" clip-path="url(#p53f5e2f252)" style="fill: none; stroke: #282828; stroke-width: 0.75"/>
   </g>
   <g id="line2d_12">
    <path d="M 18.50625 11.934 
L 25.83 11.934 
" clip-path="url(#p53f5e2f252)" style="fill: none; stroke: #282828; stroke-width: 0.75"/>
   </g>
   <g id="line2d_13">
    <path d="M 8.74125 11.5182 
L 8.74125 12.3498 
" clip-path="url(#p53f5e2f252)" style="fill: none; stroke: #282828; stroke-width: 0.75; stroke-linecap: square"/>
   </g>
   <g id="line2d_14">
    <path d="M 25.83 11.5182 
L 25.83 12.3498 
" clip-path="url(#p53f5e2f252)" style="fill: none; stroke: #282828; stroke-width: 0.75; stroke-linecap: square"/>
   </g>
   <g id="patch_4">
    <path d="M 11.1825 19.4184 
L 11.1825 21.0816 
L 20.9475 21.0816 
L 20.9475 19.4184 
L 11.1825 19.4184 
z
" clip-path="url(#p53f5e2f252)" style="fill: #c35843; stroke: #282828; stroke-width: 0.75; stroke-linejoin: miter"/>
   </g>
   <g id="line2d_15">
    <path d="M 11.1825 20.25 
L 8.74125 20.25 
" clip-path="url(#p53f5e2f252)" style="fill: none; stroke: #282828; stroke-width: 0.75"/>
   </g>
   <g id="line2d_16">
    <path d="M 20.9475 20.25 
L 35.595 20.25 
" clip-path="url(#p53f5e2f252)" style="fill: none; stroke: #282828; stroke-width: 0.75"/>
   </g>
   <g id="line2d_17">
    <path d="M 8.74125 19.8342 
L 8.74125 20.6658 
" clip-path="url(#p53f5e2f252)" style="fill: none; stroke: #282828; stroke-width: 0.75; stroke-linecap: square"/>
   </g>
   <g id="line2d_18">
    <path d="M 35.595 19.8342 
L 35.595 20.6658 
" clip-path="url(#p53f5e2f252)" style="fill: none; stroke: #282828; stroke-width: 0.75; stroke-linecap: square"/>
   </g>
   <g id="patch_5">
    <path d="M 8.74125 27.7344 
L 8.74125 29.3976 
L 11.1825 29.3976 
L 11.1825 27.7344 
L 8.74125 27.7344 
z
" clip-path="url(#p53f5e2f252)" style="fill: #f0a394; stroke: #282828; stroke-width: 0.75; stroke-linejoin: miter"/>
   </g>
   <g id="line2d_19">
    <path d="M 8.74125 28.566 
L 8.74125 28.566 
" clip-path="url(#p53f5e2f252)" style="fill: none; stroke: #282828; stroke-width: 0.75"/>
   </g>
   <g id="line2d_20">
    <path d="M 11.1825 28.566 
L 13.62375 28.566 
" clip-path="url(#p53f5e2f252)" style="fill: none; stroke: #282828; stroke-width: 0.75"/>
   </g>
   <g id="line2d_21">
    <path d="M 8.74125 28.1502 
L 8.74125 28.9818 
" clip-path="url(#p53f5e2f252)" style="fill: none; stroke: #282828; stroke-width: 0.75; stroke-linecap: square"/>
   </g>
   <g id="line2d_22">
    <path d="M 13.62375 28.1502 
L 13.62375 28.9818 
" clip-path="url(#p53f5e2f252)" style="fill: none; stroke: #282828; stroke-width: 0.75; stroke-linecap: square"/>
   </g>
   <g id="patch_6">
    <path d="M 11.1825 36.0504 
L 11.1825 37.7136 
L 13.62375 37.7136 
L 13.62375 36.0504 
L 11.1825 36.0504 
z
" clip-path="url(#p53f5e2f252)" style="fill: #8d3d2d; stroke: #282828; stroke-width: 0.75; stroke-linejoin: miter"/>
   </g>
   <g id="line2d_23">
    <path d="M 11.1825 36.882 
L 8.74125 36.882 
" clip-path="url(#p53f5e2f252)" style="fill: none; stroke: #282828; stroke-width: 0.75"/>
   </g>
   <g id="line2d_24">
    <path d="M 13.62375 36.882 
L 13.62375 36.882 
" clip-path="url(#p53f5e2f252)" style="fill: none; stroke: #282828; stroke-width: 0.75"/>
   </g>
   <g id="line2d_25">
    <path d="M 8.74125 36.4662 
L 8.74125 37.2978 
" clip-path="url(#p53f5e2f252)" style="fill: none; stroke: #282828; stroke-width: 0.75; stroke-linecap: square"/>
   </g>
   <g id="line2d_26">
    <path d="M 13.62375 36.4662 
L 13.62375 37.2978 
" clip-path="url(#p53f5e2f252)" style="fill: none; stroke: #282828; stroke-width: 0.75; stroke-linecap: square"/>
   </g>
   <g id="patch_7">
    <path d="M 11.1825 44.3664 
L 11.1825 46.0296 
L 16.065 46.0296 
L 16.065 44.3664 
L 11.1825 44.3664 
z
" clip-path="url(#p53f5e2f252)" style="fill: #e76f58; stroke: #282828; stroke-width: 0.75; stroke-linejoin: miter"/>
   </g>
   <g id="line2d_27">
    <path d="M 11.1825 45.198 
L 8.74125 45.198 
" clip-path="url(#p53f5e2f252)" style="fill: none; stroke: #282828; stroke-width: 0.75"/>
   </g>
   <g id="line2d_28">
    <path d="M 16.065 45.198 
L 23.38875 45.198 
" clip-path="url(#p53f5e2f252)" style="fill: none; stroke: #282828; stroke-width: 0.75"/>
   </g>
   <g id="line2d_29">
    <path d="M 8.74125 44.7822 
L 8.74125 45.6138 
" clip-path="url(#p53f5e2f252)" style="fill: none; stroke: #282828; stroke-width: 0.75; stroke-linecap: square"/>
   </g>
   <g id="line2d_30">
    <path d="M 23.38875 44.7822 
L 23.38875 45.6138 
" clip-path="url(#p53f5e2f252)" style="fill: none; stroke: #282828; stroke-width: 0.75; stroke-linecap: square"/>
   </g>
   <g id="patch_8">
    <path d="M 25.83 52.6824 
L 25.83 54.3456 
L 67.33125 54.3456 
L 67.33125 52.6824 
L 25.83 52.6824 
z
" clip-path="url(#p53f5e2f252)" style="fill: #126175; stroke: #282828; stroke-width: 0.75; stroke-linejoin: miter"/>
   </g>
   <g id="line2d_31">
    <path d="M 25.83 53.514 
L 8.74125 53.514 
" clip-path="url(#p53f5e2f252)" style="fill: none; stroke: #282828; stroke-width: 0.75"/>
   </g>
   <g id="line2d_32">
    <path clip-path="url(#p53f5e2f252)" style="fill: none; stroke: #282828; stroke-width: 0.75"/>
   </g>
   <g id="line2d_33">
    <path d="M 8.74125 53.0982 
L 8.74125 53.9298 
" clip-path="url(#p53f5e2f252)" style="fill: none; stroke: #282828; stroke-width: 0.75; stroke-linecap: square"/>
   </g>
   <g id="line2d_34">
    <path clip-path="url(#p53f5e2f252)" style="fill: none; stroke: #282828; stroke-width: 0.75; stroke-linecap: square"/>
   </g>
   <g id="line2d_35">
    <path d="M 16.065 11.1024 
L 16.065 12.7656 
" clip-path="url(#p53f5e2f252)" style="fill: none; stroke: #282828; stroke-width: 0.75"/>
   </g>
   <g id="line2d_36">
    <path d="M 16.065 19.4184 
L 16.065 21.0816 
" clip-path="url(#p53f5e2f252)" style="fill: none; stroke: #282828; stroke-width: 0.75"/>
   </g>
   <g id="line2d_37">
    <path d="M 11.1825 27.7344 
L 11.1825 29.3976 
" clip-path="url(#p53f5e2f252)" style="fill: none; stroke: #282828; stroke-width: 0.75"/>
   </g>
   <g id="line2d_38">
    <path d="M 13.62375 36.0504 
L 13.62375 37.7136 
" clip-path="url(#p53f5e2f252)" style="fill: none; stroke: #282828; stroke-width: 0.75"/>
   </g>
   <g id="line2d_39">
    <path d="M 13.62375 44.3664 
L 13.62375 46.0296 
" clip-path="url(#p53f5e2f252)" style="fill: none; stroke: #282828; stroke-width: 0.75"/>
   </g>
   <g id="line2d_40">
    <path d="M 35.595 52.6824 
L 35.595 54.3456 
" clip-path="url(#p53f5e2f252)" style="fill: none; stroke: #282828; stroke-width: 0.75"/>
   </g>
   <g id="patch_9">
    <path d="M 4.3 57.672 
L 4.3 7.776 
" style="fill: none; stroke: #000000; stroke-width: 0.25; stroke-linejoin: miter; stroke-linecap: square"/>
   </g>
   <g id="patch_10">
    <path d="M 6.3 58.672 
L 45.36 58.672 
" style="fill: none; stroke: #000000; stroke-width: 0.25; stroke-linejoin: miter; stroke-linecap: square"/>
   </g>
  </g>
 </g>
 <defs>
  <clipPath id="p53f5e2f252">
   <rect x="6.3" y="7.776" width="39.06" height="49.896"/>
  </clipPath>
 </defs>
</svg>
