<?xml version="1.0" encoding="utf-8" standalone="no"?>
<!DOCTYPE svg PUBLIC "-//W3C//DTD SVG 1.1//EN"
  "http://www.w3.org/Graphics/SVG/1.1/DTD/svg11.dtd">
<svg xmlns:xlink="http://www.w3.org/1999/xlink" width="50.4pt" height="64.8pt" viewBox="0 0 50.4 64.8" xmlns="http://www.w3.org/2000/svg" version="1.1">
 <metadata>
  <rdf:RDF xmlns:dc="http://purl.org/dc/elements/1.1/" xmlns:cc="http://creativecommons.org/ns#" xmlns:rdf="http://www.w3.org/1999/02/22-rdf-syntax-ns#">
   <cc:Work>
    <dc:type rdf:resource="http://purl.org/dc/dcmitype/StillImage"/>
    <dc:date>2025-09-05T11:11:33.139306</dc:date>
    <dc:format>image/svg+xml</dc:format>
    <dc:creator>
     <cc:Agent>
      <dc:title>Matplotlib v3.10.3, https://matplotlib.org/</dc:title>
     </cc:Agent>
    </dc:creator>
   </cc:Work>
  </rdf:RDF>
 </metadata>
 <defs>
  <style type="text/css">*{stroke-linejoin: round; stroke-linecap: butt}</style>
 </defs>
 <g id="figure_1">
  <g id="patch_1">
   <path d="M 0 64.8 
L 50.4 64.8 
L 50.4 0 
L 0 0 
L 0 64.8 
z
" style="fill: none"/>
  </g>
  <g id="axes_1">
   <g id="patch_2">
    <path d="M 6.3 57.672 
L 45.36 57.672 
L 45.36 7.776 
L 6.3 7.776 
L 6.3 57.672 
z
" style="fill: none"/>
   </g>
   <g id="FillBetweenPolyCollection_1">
    <path d="M 8.74125 12.707684 
L 8.74125 11.160316 
L 9.061818 11.086839 
L 9.382386 11.015692 
L 9.702955 10.946418 
L 10.023523 10.878053 
L 10.344091 10.809214 
L 10.664659 10.738188 
L 10.985227 10.66303 
L 11.305795 10.581654 
L 11.626364 10.49192 
L 11.946932 10.391745 
L 12.2675 10.279238 
L 12.588068 10.152877 
L 12.908636 10.01172 
L 13.229205 9.855643 
L 13.549773 9.685568 
L 13.870341 9.503659 
L 14.190909 9.313409 
L 14.511477 9.119604 
L 14.832045 8.928122 
L 15.152614 8.745586 
L 15.473182 8.578909 
L 15.79375 8.434819 
L 16.114318 8.319431 
L 16.434886 8.237934 
L 16.755455 8.194418 
L 17.076023 8.1918 
L 17.396591 8.231805 
L 17.717159 8.314918 
L 18.037727 8.44027 
L 18.358295 8.605477 
L 18.678864 8.80647 
L 18.999432 9.037444 
L 19.32 9.290977 
L 19.640568 9.558411 
L 19.961136 9.830444 
L 20.281705 10.097884 
L 20.602273 10.352415 
L 20.922841 10.587262 
L 21.243409 10.797631 
L 21.563977 10.980879 
L 21.884545 11.136404 
L 22.205114 11.26533 
L 22.525682 11.370053 
L 22.84625 11.453746 
L 23.166818 11.519911 
L 23.487386 11.572007 
L 23.807955 11.613199 
L 24.128523 11.646218 
L 24.449091 11.673301 
L 24.769659 11.696204 
L 25.090227 11.716251 
L 25.410795 11.734389 
L 25.731364 11.751258 
L 26.051932 11.767242 
L 26.3725 11.782522 
L 26.693068 11.797125 
L 27.013636 11.810963 
L 27.334205 11.823887 
L 27.654773 11.835725 
L 27.975341 11.846326 
L 28.295909 11.855594 
L 28.616477 11.863505 
L 28.937045 11.870118 
L 29.257614 11.875567 
L 29.578182 11.880047 
L 29.89875 11.883786 
L 30.219318 11.88702 
L 30.539886 11.889965 
L 30.860455 11.8928 
L 31.181023 11.89565 
L 31.501591 11.898587 
L 31.822159 11.901626 
L 32.142727 11.904741 
L 32.463295 11.907877 
L 32.783864 11.91096 
L 33.104432 11.913915 
L 33.425 11.916668 
L 33.745568 11.919159 
L 34.066136 11.921341 
L 34.386705 11.923181 
L 34.707273 11.924659 
L 35.027841 11.92577 
L 35.348409 11.926522 
L 35.668977 11.926936 
L 35.989545 11.927043 
L 36.310114 11.926888 
L 36.630682 11.926525 
L 36.95125 11.926014 
L 37.271818 11.925415 
L 37.592386 11.924791 
L 37.912955 11.924196 
L 38.233523 11.923677 
L 38.554091 11.923273 
L 38.874659 11.923013 
L 39.195227 11.922915 
L 39.515795 11.92299 
L 39.836364 11.92324 
L 40.156932 11.923661 
L 40.4775 11.924238 
L 40.4775 11.943762 
L 40.4775 11.943762 
L 40.156932 11.944339 
L 39.836364 11.94476 
L 39.515795 11.94501 
L 39.195227 11.945085 
L 38.874659 11.944987 
L 38.554091 11.944727 
L 38.233523 11.944323 
L 37.912955 11.943804 
L 37.592386 11.943209 
L 37.271818 11.942585 
L 36.95125 11.941986 
L 36.630682 11.941475 
L 36.310114 11.941112 
L 35.989545 11.940957 
L 35.668977 11.941064 
L 35.348409 11.941478 
L 35.027841 11.94223 
L 34.707273 11.943341 
L 34.386705 11.944819 
L 34.066136 11.946659 
L 33.745568 11.948841 
L 33.425 11.951332 
L 33.104432 11.954085 
L 32.783864 11.95704 
L 32.463295 11.960123 
L 32.142727 11.963259 
L 31.822159 11.966374 
L 31.501591 11.969413 
L 31.181023 11.97235 
L 30.860455 11.9752 
L 30.539886 11.978035 
L 30.219318 11.98098 
L 29.89875 11.984214 
L 29.578182 11.987953 
L 29.257614 11.992433 
L 28.937045 11.997882 
L 28.616477 12.004495 
L 28.295909 12.012406 
L 27.975341 12.021674 
L 27.654773 12.032275 
L 27.334205 12.044113 
L 27.013636 12.057037 
L 26.693068 12.070875 
L 26.3725 12.085478 
L 26.051932 12.100758 
L 25.731364 12.116742 
L 25.410795 12.133611 
L 25.090227 12.151749 
L 24.769659 12.171796 
L 24.449091 12.194699 
L 24.128523 12.221782 
L 23.807955 12.254801 
L 23.487386 12.295993 
L 23.166818 12.348089 
L 22.84625 12.414254 
L 22.525682 12.497947 
L 22.205114 12.60267 
L 21.884545 12.731596 
L 21.563977 12.887121 
L 21.243409 13.070369 
L 20.922841 13.280738 
L 20.602273 13.515585 
L 20.281705 13.770116 
L 19.961136 14.037556 
L 19.640568 14.309589 
L 19.32 14.577023 
L 18.999432 14.830556 
L 18.678864 15.06153 
L 18.358295 15.262523 
L 18.037727 15.42773 
L 17.717159 15.553082 
L 17.396591 15.636195 
L 17.076023 15.6762 
L 16.755455 15.673582 
L 16.434886 15.630066 
L 16.114318 15.548569 
L 15.79375 15.433181 
L 15.473182 15.289091 
L 15.152614 15.122414 
L 14.832045 14.939878 
L 14.511477 14.748396 
L 14.190909 14.554591 
L 13.870341 14.364341 
L 13.549773 14.182432 
L 13.229205 14.012357 
L 12.908636 13.85628 
L 12.588068 13.715123 
L 12.2675 13.588762 
L 11.946932 13.476255 
L 11.626364 13.37608 
L 11.305795 13.286346 
L 10.985227 13.20497 
L 10.664659 13.129812 
L 10.344091 13.058786 
L 10.023523 12.989947 
L 9.702955 12.921582 
L 9.382386 12.852308 
L 9.061818 12.781161 
L 8.74125 12.707684 
z
" clip-path="url(#p43877c1194)" style="fill: #306c53; fill-opacity: 0.5"/>
   </g>
   <g id="FillBetweenPolyCollection_2">
    <path d="M 8.74125 23.171108 
L 8.74125 17.328892 
L 9.702955 17.083701 
L 10.664659 16.877176 
L 11.626364 16.714941 
L 12.588068 16.599721 
L 13.549773 16.531459 
L 14.511477 16.5078 
L 15.473182 16.524797 
L 16.434886 16.57772 
L 17.396591 16.661786 
L 18.358295 16.772704 
L 19.32 16.906947 
L 20.281705 17.061756 
L 21.243409 17.234911 
L 22.205114 17.424378 
L 23.166818 17.627932 
L 24.128523 17.842847 
L 25.090227 18.065747 
L 26.051932 18.292612 
L 27.013636 18.518961 
L 27.975341 18.740144 
L 28.937045 18.951696 
L 29.89875 19.149673 
L 30.860455 19.330932 
L 31.822159 19.493306 
L 32.783864 19.635667 
L 33.745568 19.757874 
L 34.707273 19.860645 
L 35.668977 19.945367 
L 36.630682 20.01388 
L 37.592386 20.068275 
L 38.554091 20.110706 
L 39.515795 20.143248 
L 40.4775 20.167797 
L 41.439205 20.186008 
L 42.400909 20.199272 
L 43.362614 20.208719 
L 44.324318 20.215239 
L 45.286023 20.219519 
L 46.247727 20.222078 
L 47.209432 20.223307 
L 48.171136 20.223505 
L 49.132841 20.222904 
L 50.094545 20.221696 
L 51.05625 20.220049 
L 52.017955 20.218115 
L 52.979659 20.216034 
L 53.941364 20.213937 
L 54.903068 20.211942 
L 55.864773 20.210148 
L 56.826477 20.208638 
L 57.788182 20.207468 
L 58.749886 20.206675 
L 59.711591 20.206272 
L 60.673295 20.206254 
L 61.635 20.206598 
L 62.596705 20.207268 
L 63.558409 20.208217 
L 64.520114 20.209388 
L 65.481818 20.210712 
L 66.443523 20.212111 
L 67.405227 20.213501 
L 68.366932 20.214792 
L 69.328636 20.215898 
L 70.290341 20.216737 
L 71.252045 20.217243 
L 72.21375 20.21737 
L 73.175455 20.217094 
L 74.137159 20.216419 
L 75.098864 20.215373 
L 76.060568 20.214004 
L 77.022273 20.212375 
L 77.983977 20.210558 
L 78.945682 20.208633 
L 79.907386 20.20668 
L 80.869091 20.204779 
L 81.830795 20.203009 
L 82.7925 20.201449 
L 83.754205 20.200174 
L 84.715909 20.199253 
L 85.677614 20.198743 
L 86.639318 20.198682 
L 87.601023 20.199083 
L 88.562727 20.199932 
L 89.524432 20.201183 
L 90.486136 20.202762 
L 91.447841 20.204578 
L 92.409545 20.206531 
L 93.37125 20.208528 
L 94.332955 20.210491 
L 95.294659 20.212371 
L 96.256364 20.214147 
L 97.218068 20.215833 
L 98.179773 20.217464 
L 99.141477 20.219092 
L 100.103182 20.220775 
L 101.064886 20.22256 
L 102.026591 20.22448 
L 102.988295 20.226545 
L 103.95 20.22874 
L 103.95 20.27126 
L 103.95 20.27126 
L 102.988295 20.273455 
L 102.026591 20.27552 
L 101.064886 20.27744 
L 100.103182 20.279225 
L 99.141477 20.280908 
L 98.179773 20.282536 
L 97.218068 20.284167 
L 96.256364 20.285853 
L 95.294659 20.287629 
L 94.332955 20.289509 
L 93.37125 20.291472 
L 92.409545 20.293469 
L 91.447841 20.295422 
L 90.486136 20.297238 
L 89.524432 20.298817 
L 88.562727 20.300068 
L 87.601023 20.300917 
L 86.639318 20.301318 
L 85.677614 20.301257 
L 84.715909 20.300747 
L 83.754205 20.299826 
L 82.7925 20.298551 
L 81.830795 20.296991 
L 80.869091 20.295221 
L 79.907386 20.29332 
L 78.945682 20.291367 
L 77.983977 20.289442 
L 77.022273 20.287625 
L 76.060568 20.285996 
L 75.098864 20.284627 
L 74.137159 20.283581 
L 73.175455 20.282906 
L 72.21375 20.28263 
L 71.252045 20.282757 
L 70.290341 20.283263 
L 69.328636 20.284102 
L 68.366932 20.285208 
L 67.405227 20.286499 
L 66.443523 20.287889 
L 65.481818 20.289288 
L 64.520114 20.290612 
L 63.558409 20.291783 
L 62.596705 20.292732 
L 61.635 20.293402 
L 60.673295 20.293746 
L 59.711591 20.293728 
L 58.749886 20.293325 
L 57.788182 20.292532 
L 56.826477 20.291362 
L 55.864773 20.289852 
L 54.903068 20.288058 
L 53.941364 20.286063 
L 52.979659 20.283966 
L 52.017955 20.281885 
L 51.05625 20.279951 
L 50.094545 20.278304 
L 49.132841 20.277096 
L 48.171136 20.276495 
L 47.209432 20.276693 
L 46.247727 20.277922 
L 45.286023 20.280481 
L 44.324318 20.284761 
L 43.362614 20.291281 
L 42.400909 20.300728 
L 41.439205 20.313992 
L 40.4775 20.332203 
L 39.515795 20.356752 
L 38.554091 20.389294 
L 37.592386 20.431725 
L 36.630682 20.48612 
L 35.668977 20.554633 
L 34.707273 20.639355 
L 33.745568 20.742126 
L 32.783864 20.864333 
L 31.822159 21.006694 
L 30.860455 21.169068 
L 29.89875 21.350327 
L 28.937045 21.548304 
L 27.975341 21.759856 
L 27.013636 21.981039 
L 26.051932 22.207388 
L 25.090227 22.434253 
L 24.128523 22.657153 
L 23.166818 22.872068 
L 22.205114 23.075622 
L 21.243409 23.265089 
L 20.281705 23.438244 
L 19.32 23.593053 
L 18.358295 23.727296 
L 17.396591 23.838214 
L 16.434886 23.92228 
L 15.473182 23.975203 
L 14.511477 23.9922 
L 13.549773 23.968541 
L 12.588068 23.900279 
L 11.626364 23.785059 
L 10.664659 23.622824 
L 9.702955 23.416299 
L 8.74125 23.171108 
z
" clip-path="url(#p43877c1194)" style="fill: #c35843; fill-opacity: 0.5"/>
   </g>
   <g id="FillBetweenPolyCollection_3">
    <path d="M 8.74125 31.881755 
L 8.74125 25.250245 
L 9.407045 24.963223 
L 10.072841 24.8238 
L 10.738636 24.847485 
L 11.404432 25.028644 
L 12.070227 25.341823 
L 12.736023 25.747096 
L 13.401818 26.198033 
L 14.067614 26.650189 
L 14.733409 27.067958 
L 15.399205 27.42835 
L 16.065 27.721333 
L 16.730795 27.947477 
L 17.396591 28.11424 
L 18.062386 28.232246 
L 18.728182 28.312455 
L 19.393977 28.364522 
L 20.059773 28.396185 
L 20.725568 28.413313 
L 21.391364 28.420249 
L 22.057159 28.420226 
L 22.722955 28.415723 
L 23.38875 28.40873 
L 24.054545 28.400902 
L 24.720341 28.393615 
L 25.386136 28.387943 
L 26.051932 28.384601 
L 26.717727 28.383911 
L 27.383523 28.385848 
L 28.049318 28.390138 
L 28.715114 28.396416 
L 29.380909 28.404349 
L 30.046705 28.413704 
L 30.7125 28.424338 
L 31.378295 28.436126 
L 32.044091 28.448879 
L 32.709886 28.462288 
L 33.375682 28.475923 
L 34.041477 28.489273 
L 34.707273 28.501823 
L 35.373068 28.513127 
L 36.038864 28.522865 
L 36.704659 28.530872 
L 37.370455 28.537136 
L 38.03625 28.541777 
L 38.702045 28.545015 
L 39.367841 28.547135 
L 40.033636 28.548459 
L 40.699432 28.549314 
L 41.365227 28.550005 
L 42.031023 28.550783 
L 42.696818 28.551821 
L 43.362614 28.55319 
L 44.028409 28.554864 
L 44.694205 28.556736 
L 45.36 28.558654 
L 46.025795 28.560463 
L 46.691591 28.562043 
L 47.357386 28.563321 
L 48.023182 28.564285 
L 48.688977 28.564963 
L 49.354773 28.565408 
L 50.020568 28.565681 
L 50.686364 28.565838 
L 51.352159 28.565922 
L 52.017955 28.565965 
L 52.68375 28.565985 
L 53.349545 28.565994 
L 54.015341 28.565998 
L 54.681136 28.565999 
L 55.346932 28.566 
L 56.012727 28.566 
L 56.678523 28.566 
L 57.344318 28.566 
L 58.010114 28.566 
L 58.675909 28.566 
L 59.341705 28.566 
L 60.0075 28.566 
L 60.673295 28.566 
L 61.339091 28.566 
L 62.004886 28.566 
L 62.670682 28.566 
L 63.336477 28.565999 
L 64.002273 28.565998 
L 64.668068 28.565995 
L 65.333864 28.565987 
L 65.999659 28.565971 
L 66.665455 28.565938 
L 67.33125 28.565876 
L 67.997045 28.565766 
L 68.662841 28.565587 
L 69.328636 28.565312 
L 69.994432 28.564921 
L 70.660227 28.564406 
L 71.326023 28.563783 
L 71.991818 28.563096 
L 72.657614 28.562417 
L 73.323409 28.561837 
L 73.989205 28.561445 
L 74.655 28.561307 
L 74.655 28.570693 
L 74.655 28.570693 
L 73.989205 28.570555 
L 73.323409 28.570163 
L 72.657614 28.569583 
L 71.991818 28.568904 
L 71.326023 28.568217 
L 70.660227 28.567594 
L 69.994432 28.567079 
L 69.328636 28.566688 
L 68.662841 28.566413 
L 67.997045 28.566234 
L 67.33125 28.566124 
L 66.665455 28.566062 
L 65.999659 28.566029 
L 65.333864 28.566013 
L 64.668068 28.566005 
L 64.002273 28.566002 
L 63.336477 28.566001 
L 62.670682 28.566 
L 62.004886 28.566 
L 61.339091 28.566 
L 60.673295 28.566 
L 60.0075 28.566 
L 59.341705 28.566 
L 58.675909 28.566 
L 58.010114 28.566 
L 57.344318 28.566 
L 56.678523 28.566 
L 56.012727 28.566 
L 55.346932 28.566 
L 54.681136 28.566001 
L 54.015341 28.566002 
L 53.349545 28.566006 
L 52.68375 28.566015 
L 52.017955 28.566035 
L 51.352159 28.566078 
L 50.686364 28.566162 
L 50.020568 28.566319 
L 49.354773 28.566592 
L 48.688977 28.567037 
L 48.023182 28.567715 
L 47.357386 28.568679 
L 46.691591 28.569957 
L 46.025795 28.571537 
L 45.36 28.573346 
L 44.694205 28.575264 
L 44.028409 28.577136 
L 43.362614 28.57881 
L 42.696818 28.580179 
L 42.031023 28.581217 
L 41.365227 28.581995 
L 40.699432 28.582686 
L 40.033636 28.583541 
L 39.367841 28.584865 
L 38.702045 28.586985 
L 38.03625 28.590223 
L 37.370455 28.594864 
L 36.704659 28.601128 
L 36.038864 28.609135 
L 35.373068 28.618873 
L 34.707273 28.630177 
L 34.041477 28.642727 
L 33.375682 28.656077 
L 32.709886 28.669712 
L 32.044091 28.683121 
L 31.378295 28.695874 
L 30.7125 28.707662 
L 30.046705 28.718296 
L 29.380909 28.727651 
L 28.715114 28.735584 
L 28.049318 28.741862 
L 27.383523 28.746152 
L 26.717727 28.748089 
L 26.051932 28.747399 
L 25.386136 28.744057 
L 24.720341 28.738385 
L 24.054545 28.731098 
L 23.38875 28.72327 
L 22.722955 28.716277 
L 22.057159 28.711774 
L 21.391364 28.711751 
L 20.725568 28.718687 
L 20.059773 28.735815 
L 19.393977 28.767478 
L 18.728182 28.819545 
L 18.062386 28.899754 
L 17.396591 29.01776 
L 16.730795 29.184523 
L 16.065 29.410667 
L 15.399205 29.70365 
L 14.733409 30.064042 
L 14.067614 30.481811 
L 13.401818 30.933967 
L 12.736023 31.384904 
L 12.070227 31.790177 
L 11.404432 32.103356 
L 10.738636 32.284515 
L 10.072841 32.3082 
L 9.407045 32.168777 
L 8.74125 31.881755 
z
" clip-path="url(#p43877c1194)" style="fill: #f0a394; fill-opacity: 0.5"/>
   </g>
   <g id="FillBetweenPolyCollection_4">
    <path d="M 8.74125 36.936185 
L 8.74125 36.827815 
L 8.790568 36.82783 
L 8.839886 36.828145 
L 8.889205 36.828729 
L 8.938523 36.82954 
L 8.987841 36.830522 
L 9.037159 36.831605 
L 9.086477 36.832706 
L 9.135795 36.833725 
L 9.185114 36.834548 
L 9.234432 36.835043 
L 9.28375 36.835058 
L 9.333068 36.834425 
L 9.382386 36.832953 
L 9.431705 36.83043 
L 9.481023 36.826623 
L 9.530341 36.821274 
L 9.579659 36.814104 
L 9.628977 36.80481 
L 9.678295 36.79307 
L 9.727614 36.778546 
L 9.776932 36.760888 
L 9.82625 36.739738 
L 9.875568 36.714743 
L 9.924886 36.685561 
L 9.974205 36.651872 
L 10.023523 36.613397 
L 10.072841 36.569903 
L 10.122159 36.521229 
L 10.171477 36.467294 
L 10.220795 36.408114 
L 10.270114 36.34382 
L 10.319432 36.274666 
L 10.36875 36.201043 
L 10.418068 36.123481 
L 10.467386 36.042657 
L 10.516705 35.959388 
L 10.566023 35.874625 
L 10.615341 35.789437 
L 10.664659 35.704998 
L 10.713977 35.622557 
L 10.763295 35.543411 
L 10.812614 35.468873 
L 10.861932 35.400237 
L 10.91125 35.338739 
L 10.960568 35.285519 
L 11.009886 35.241589 
L 11.059205 35.207797 
L 11.108523 35.184801 
L 11.157841 35.173043 
L 11.207159 35.172736 
L 11.256477 35.183849 
L 11.305795 35.206113 
L 11.355114 35.239022 
L 11.404432 35.281845 
L 11.45375 35.333647 
L 11.503068 35.393315 
L 11.552386 35.459581 
L 11.601705 35.531062 
L 11.651023 35.606281 
L 11.700341 35.683709 
L 11.749659 35.76179 
L 11.798977 35.83897 
L 11.848295 35.913722 
L 11.897614 35.984568 
L 11.946932 36.050089 
L 11.99625 36.108944 
L 12.045568 36.159875 
L 12.094886 36.201713 
L 12.144205 36.233378 
L 12.193523 36.253888 
L 12.242841 36.262357 
L 12.292159 36.257999 
L 12.341477 36.240134 
L 12.390795 36.208198 
L 12.440114 36.161754 
L 12.489432 36.100508 
L 12.53875 36.024328 
L 12.588068 35.933265 
L 12.637386 35.827577 
L 12.686705 35.707751 
L 12.736023 35.574525 
L 12.785341 35.428911 
L 12.834659 35.272201 
L 12.883977 35.105982 
L 12.933295 34.932126 
L 12.982614 34.752786 
L 13.031932 34.570368 
L 13.08125 34.387499 
L 13.130568 34.206978 
L 13.179886 34.031724 
L 13.229205 33.86471 
L 13.278523 33.708886 
L 13.327841 33.567108 
L 13.377159 33.442053 
L 13.426477 33.336145 
L 13.475795 33.251485 
L 13.525114 33.189778 
L 13.574432 33.15229 
L 13.62375 33.1398 
L 13.62375 40.6242 
L 13.62375 40.6242 
L 13.574432 40.61171 
L 13.525114 40.574222 
L 13.475795 40.512515 
L 13.426477 40.427855 
L 13.377159 40.321947 
L 13.327841 40.196892 
L 13.278523 40.055114 
L 13.229205 39.89929 
L 13.179886 39.732276 
L 13.130568 39.557022 
L 13.08125 39.376501 
L 13.031932 39.193632 
L 12.982614 39.011214 
L 12.933295 38.831874 
L 12.883977 38.658018 
L 12.834659 38.491799 
L 12.785341 38.335089 
L 12.736023 38.189475 
L 12.686705 38.056249 
L 12.637386 37.936423 
L 12.588068 37.830735 
L 12.53875 37.739672 
L 12.489432 37.663492 
L 12.440114 37.602246 
L 12.390795 37.555802 
L 12.341477 37.523866 
L 12.292159 37.506001 
L 12.242841 37.501643 
L 12.193523 37.510112 
L 12.144205 37.530622 
L 12.094886 37.562287 
L 12.045568 37.604125 
L 11.99625 37.655056 
L 11.946932 37.713911 
L 11.897614 37.779432 
L 11.848295 37.850278 
L 11.798977 37.92503 
L 11.749659 38.00221 
L 11.700341 38.080291 
L 11.651023 38.157719 
L 11.601705 38.232938 
L 11.552386 38.304419 
L 11.503068 38.370685 
L 11.45375 38.430353 
L 11.404432 38.482155 
L 11.355114 38.524978 
L 11.305795 38.557887 
L 11.256477 38.580151 
L 11.207159 38.591264 
L 11.157841 38.590957 
L 11.108523 38.579199 
L 11.059205 38.556203 
L 11.009886 38.522411 
L 10.960568 38.478481 
L 10.91125 38.425261 
L 10.861932 38.363763 
L 10.812614 38.295127 
L 10.763295 38.220589 
L 10.713977 38.141443 
L 10.664659 38.059002 
L 10.615341 37.974563 
L 10.566023 37.889375 
L 10.516705 37.804612 
L 10.467386 37.721343 
L 10.418068 37.640519 
L 10.36875 37.562957 
L 10.319432 37.489334 
L 10.270114 37.42018 
L 10.220795 37.355886 
L 10.171477 37.296706 
L 10.122159 37.242771 
L 10.072841 37.194097 
L 10.023523 37.150603 
L 9.974205 37.112128 
L 9.924886 37.078439 
L 9.875568 37.049257 
L 9.82625 37.024262 
L 9.776932 37.003112 
L 9.727614 36.985454 
L 9.678295 36.97093 
L 9.628977 36.95919 
L 9.579659 36.949896 
L 9.530341 36.942726 
L 9.481023 36.937377 
L 9.431705 36.93357 
L 9.382386 36.931047 
L 9.333068 36.929575 
L 9.28375 36.928942 
L 9.234432 36.928957 
L 9.185114 36.929452 
L 9.135795 36.930275 
L 9.086477 36.931294 
L 9.037159 36.932395 
L 8.987841 36.933478 
L 8.938523 36.93446 
L 8.889205 36.935271 
L 8.839886 36.935855 
L 8.790568 36.93617 
L 8.74125 36.936185 
z
" clip-path="url(#p43877c1194)" style="fill: #8d3d2d; fill-opacity: 0.5"/>
   </g>
   <g id="FillBetweenPolyCollection_5">
    <path d="M 8.74125 46.498576 
L 8.74125 43.897424 
L 8.987841 43.695935 
L 9.234432 43.48113 
L 9.481023 43.256389 
L 9.727614 43.025949 
L 9.974205 42.794724 
L 10.220795 42.56804 
L 10.467386 42.35132 
L 10.713977 42.149759 
L 10.960568 41.968034 
L 11.207159 41.810089 
L 11.45375 41.679007 
L 11.700341 41.576994 
L 11.946932 41.505434 
L 12.193523 41.465008 
L 12.440114 41.4558 
L 12.686705 41.477389 
L 12.933295 41.528863 
L 13.179886 41.608772 
L 13.426477 41.715021 
L 13.673068 41.844741 
L 13.919659 41.994188 
L 14.16625 42.1587 
L 14.412841 42.332777 
L 14.659432 42.510268 
L 14.906023 42.684692 
L 15.152614 42.849649 
L 15.399205 42.999283 
L 15.645795 43.12875 
L 15.892386 43.234626 
L 16.138977 43.315211 
L 16.385568 43.370702 
L 16.632159 43.403186 
L 16.87875 43.416484 
L 17.125341 43.41583 
L 17.371932 43.407421 
L 17.618523 43.397893 
L 17.865114 43.393747 
L 18.111705 43.400804 
L 18.358295 43.423726 
L 18.604886 43.465668 
L 18.851477 43.528067 
L 19.098068 43.610618 
L 19.344659 43.711406 
L 19.59125 43.827185 
L 19.837841 43.953761 
L 20.084432 44.086431 
L 20.331023 44.220421 
L 20.577614 44.351284 
L 20.824205 44.47521 
L 21.070795 44.589236 
L 21.317386 44.691342 
L 21.563977 44.780448 
L 21.810568 44.856321 
L 22.057159 44.919432 
L 22.30375 44.970774 
L 22.550341 45.01168 
L 22.796932 45.043652 
L 23.043523 45.068222 
L 23.290114 45.08684 
L 23.536705 45.100805 
L 23.783295 45.111229 
L 24.029886 45.119019 
L 24.276477 45.12489 
L 24.523068 45.129384 
L 24.769659 45.132898 
L 25.01625 45.135714 
L 25.262841 45.138027 
L 25.509432 45.139969 
L 25.756023 45.14163 
L 26.002614 45.143074 
L 26.249205 45.14435 
L 26.495795 45.145496 
L 26.742386 45.146551 
L 26.988977 45.147548 
L 27.235568 45.148523 
L 27.482159 45.149508 
L 27.72875 45.150529 
L 27.975341 45.151611 
L 28.221932 45.152764 
L 28.468523 45.153994 
L 28.715114 45.155293 
L 28.961705 45.156641 
L 29.208295 45.158012 
L 29.454886 45.159373 
L 29.701477 45.160686 
L 29.948068 45.161917 
L 30.194659 45.163035 
L 30.44125 45.164018 
L 30.687841 45.164857 
L 30.934432 45.165554 
L 31.181023 45.166126 
L 31.427614 45.166604 
L 31.674205 45.167029 
L 31.920795 45.167452 
L 32.167386 45.167927 
L 32.413977 45.168508 
L 32.660568 45.169244 
L 32.907159 45.170174 
L 33.15375 45.171324 
L 33.15375 45.224676 
L 33.15375 45.224676 
L 32.907159 45.225826 
L 32.660568 45.226756 
L 32.413977 45.227492 
L 32.167386 45.228073 
L 31.920795 45.228548 
L 31.674205 45.228971 
L 31.427614 45.229396 
L 31.181023 45.229874 
L 30.934432 45.230446 
L 30.687841 45.231143 
L 30.44125 45.231982 
L 30.194659 45.232965 
L 29.948068 45.234083 
L 29.701477 45.235314 
L 29.454886 45.236627 
L 29.208295 45.237988 
L 28.961705 45.239359 
L 28.715114 45.240707 
L 28.468523 45.242006 
L 28.221932 45.243236 
L 27.975341 45.244389 
L 27.72875 45.245471 
L 27.482159 45.246492 
L 27.235568 45.247477 
L 26.988977 45.248452 
L 26.742386 45.249449 
L 26.495795 45.250504 
L 26.249205 45.25165 
L 26.002614 45.252926 
L 25.756023 45.25437 
L 25.509432 45.256031 
L 25.262841 45.257973 
L 25.01625 45.260286 
L 24.769659 45.263102 
L 24.523068 45.266616 
L 24.276477 45.27111 
L 24.029886 45.276981 
L 23.783295 45.284771 
L 23.536705 45.295195 
L 23.290114 45.30916 
L 23.043523 45.327778 
L 22.796932 45.352348 
L 22.550341 45.38432 
L 22.30375 45.425226 
L 22.057159 45.476568 
L 21.810568 45.539679 
L 21.563977 45.615552 
L 21.317386 45.704658 
L 21.070795 45.806764 
L 20.824205 45.92079 
L 20.577614 46.044716 
L 20.331023 46.175579 
L 20.084432 46.309569 
L 19.837841 46.442239 
L 19.59125 46.568815 
L 19.344659 46.684594 
L 19.098068 46.785382 
L 18.851477 46.867933 
L 18.604886 46.930332 
L 18.358295 46.972274 
L 18.111705 46.995196 
L 17.865114 47.002253 
L 17.618523 46.998107 
L 17.371932 46.988579 
L 17.125341 46.98017 
L 16.87875 46.979516 
L 16.632159 46.992814 
L 16.385568 47.025298 
L 16.138977 47.080789 
L 15.892386 47.161374 
L 15.645795 47.26725 
L 15.399205 47.396717 
L 15.152614 47.546351 
L 14.906023 47.711308 
L 14.659432 47.885732 
L 14.412841 48.063223 
L 14.16625 48.2373 
L 13.919659 48.401812 
L 13.673068 48.551259 
L 13.426477 48.680979 
L 13.179886 48.787228 
L 12.933295 48.867137 
L 12.686705 48.918611 
L 12.440114 48.9402 
L 12.193523 48.930992 
L 11.946932 48.890566 
L 11.700341 48.819006 
L 11.45375 48.716993 
L 11.207159 48.585911 
L 10.960568 48.427966 
L 10.713977 48.246241 
L 10.467386 48.04468 
L 10.220795 47.82796 
L 9.974205 47.601276 
L 9.727614 47.370051 
L 9.481023 47.139611 
L 9.234432 46.91487 
L 8.987841 46.700065 
L 8.74125 46.498576 
z
" clip-path="url(#p43877c1194)" style="fill: #e76f58; fill-opacity: 0.5"/>
   </g>
   <g id="FillBetweenPolyCollection_6">
    <path d="M 8.74125 54.893561 
L 8.74125 52.134439 
L 9.82625 51.974959 
L 10.91125 51.807788 
L 11.99625 51.634389 
L 13.08125 51.456518 
L 14.16625 51.2762 
L 15.25125 51.095694 
L 16.33625 50.917438 
L 17.42125 50.743993 
L 18.50625 50.577965 
L 19.59125 50.42193 
L 20.67625 50.278352 
L 21.76125 50.1495 
L 22.84625 50.037377 
L 23.93125 49.943648 
L 25.01625 49.869594 
L 26.10125 49.816069 
L 27.18625 49.783483 
L 28.27125 49.7718 
L 29.35625 49.780552 
L 30.44125 49.808877 
L 31.52625 49.855559 
L 32.61125 49.919089 
L 33.69625 49.997729 
L 34.78125 50.089577 
L 35.86625 50.192635 
L 36.95125 50.304873 
L 38.03625 50.424282 
L 39.12125 50.548927 
L 40.20625 50.676979 
L 41.29125 50.806749 
L 42.37625 50.936705 
L 43.46125 51.065478 
L 44.54625 51.191873 
L 45.63125 51.314859 
L 46.71625 51.433564 
L 47.80125 51.547265 
L 48.88625 51.655378 
L 49.97125 51.757445 
L 51.05625 51.853122 
L 52.14125 51.942172 
L 53.22625 52.024456 
L 54.31125 52.099923 
L 55.39625 52.168608 
L 56.48125 52.23062 
L 57.56625 52.286146 
L 58.65125 52.33544 
L 59.73625 52.378816 
L 60.82125 52.41665 
L 61.90625 52.449365 
L 62.99125 52.477432 
L 64.07625 52.501355 
L 65.16125 52.521665 
L 66.24625 52.538911 
L 67.33125 52.553648 
L 68.41625 52.566432 
L 69.50125 52.5778 
L 70.58625 52.588272 
L 71.67125 52.59833 
L 72.75625 52.608421 
L 73.84125 52.618941 
L 74.92625 52.630233 
L 76.01125 52.642586 
L 77.09625 52.656227 
L 78.18125 52.671323 
L 79.26625 52.687982 
L 80.35125 52.706258 
L 81.43625 52.726149 
L 82.52125 52.74761 
L 83.60625 52.77055 
L 84.69125 52.794848 
L 85.77625 52.820352 
L 86.86125 52.846889 
L 87.94625 52.874274 
L 89.03125 52.902312 
L 90.11625 52.930806 
L 91.20125 52.959562 
L 92.28625 52.988391 
L 93.37125 53.017115 
L 94.45625 53.045569 
L 95.54125 53.073601 
L 96.62625 53.101075 
L 97.71125 53.127872 
L 98.79625 53.153888 
L 99.88125 53.179036 
L 100.96625 53.203246 
L 102.05125 53.226461 
L 103.13625 53.248638 
L 104.22125 53.269749 
L 105.30625 53.289775 
L 106.39125 53.308711 
L 107.47625 53.32656 
L 108.56125 53.343332 
L 109.64625 53.359045 
L 110.73125 53.373724 
L 111.81625 53.387397 
L 112.90125 53.400096 
L 113.98625 53.411856 
L 115.07125 53.422714 
L 116.15625 53.43271 
L 116.15625 53.59529 
L 116.15625 53.59529 
L 115.07125 53.605286 
L 113.98625 53.616144 
L 112.90125 53.627904 
L 111.81625 53.640603 
L 110.73125 53.654276 
L 109.64625 53.668955 
L 108.56125 53.684668 
L 107.47625 53.70144 
L 106.39125 53.719289 
L 105.30625 53.738225 
L 104.22125 53.758251 
L 103.13625 53.779362 
L 102.05125 53.801539 
L 100.96625 53.824754 
L 99.88125 53.848964 
L 98.79625 53.874112 
L 97.71125 53.900128 
L 96.62625 53.926925 
L 95.54125 53.954399 
L 94.45625 53.982431 
L 93.37125 54.010885 
L 92.28625 54.039609 
L 91.20125 54.068438 
L 90.11625 54.097194 
L 89.03125 54.125688 
L 87.94625 54.153726 
L 86.86125 54.181111 
L 85.77625 54.207648 
L 84.69125 54.233152 
L 83.60625 54.25745 
L 82.52125 54.28039 
L 81.43625 54.301851 
L 80.35125 54.321742 
L 79.26625 54.340018 
L 78.18125 54.356677 
L 77.09625 54.371773 
L 76.01125 54.385414 
L 74.92625 54.397767 
L 73.84125 54.409059 
L 72.75625 54.419579 
L 71.67125 54.42967 
L 70.58625 54.439728 
L 69.50125 54.4502 
L 68.41625 54.461568 
L 67.33125 54.474352 
L 66.24625 54.489089 
L 65.16125 54.506335 
L 64.07625 54.526645 
L 62.99125 54.550568 
L 61.90625 54.578635 
L 60.82125 54.61135 
L 59.73625 54.649184 
L 58.65125 54.69256 
L 57.56625 54.741854 
L 56.48125 54.79738 
L 55.39625 54.859392 
L 54.31125 54.928077 
L 53.22625 55.003544 
L 52.14125 55.085828 
L 51.05625 55.174878 
L 49.97125 55.270555 
L 48.88625 55.372622 
L 47.80125 55.480735 
L 46.71625 55.594436 
L 45.63125 55.713141 
L 44.54625 55.836127 
L 43.46125 55.962522 
L 42.37625 56.091295 
L 41.29125 56.221251 
L 40.20625 56.351021 
L 39.12125 56.479073 
L 38.03625 56.603718 
L 36.95125 56.723127 
L 35.86625 56.835365 
L 34.78125 56.938423 
L 33.69625 57.030271 
L 32.61125 57.108911 
L 31.52625 57.172441 
L 30.44125 57.219123 
L 29.35625 57.247448 
L 28.27125 57.2562 
L 27.18625 57.244517 
L 26.10125 57.211931 
L 25.01625 57.158406 
L 23.93125 57.084352 
L 22.84625 56.990623 
L 21.76125 56.8785 
L 20.67625 56.749648 
L 19.59125 56.60607 
L 18.50625 56.450035 
L 17.42125 56.284007 
L 16.33625 56.110562 
L 15.25125 55.932306 
L 14.16625 55.7518 
L 13.08125 55.571482 
L 11.99625 55.393611 
L 10.91125 55.220212 
L 9.82625 55.053041 
L 8.74125 54.893561 
z
" clip-path="url(#p43877c1194)" style="fill: #126175; fill-opacity: 0.5"/>
   </g>
   <g id="matplotlib.axis_1">
    <g id="xtick_1">
     <g id="line2d_1">
      <defs>
       <path id="mbae1a6f1e3" d="M 0 0 
L 0 1.7 
" style="stroke: #000000; stroke-width: 0.25"/>
      </defs>
      <g>
       <use xlink:href="#mbae1a6f1e3" x="6.3" y="58.672" style="stroke: #000000; stroke-width: 0.25"/>
      </g>
     </g>
     <g id="text_1">
      <text style="font-size: 6px; font-family: 'Arial'; text-anchor: middle" x="6.3" y="66.166687" transform="rotate(-0 6.3 66.166687)">0</text>
     </g>
    </g>
    <g id="xtick_2">
     <g id="line2d_2">
      <g>
       <use xlink:href="#mbae1a6f1e3" x="18.50625" y="58.672" style="stroke: #000000; stroke-width: 0.25"/>
      </g>
     </g>
     <g id="text_2">
      <text style="font-size: 6px; font-family: 'Arial'; text-anchor: middle" x="18.50625" y="66.166687" transform="rotate(-0 18.50625 66.166687)">5</text>
     </g>
    </g>
    <g id="xtick_3">
     <g id="line2d_3">
      <g>
       <use xlink:href="#mbae1a6f1e3" x="30.7125" y="58.672" style="stroke: #000000; stroke-width: 0.25"/>
      </g>
     </g>
     <g id="text_3">
      <text style="font-size: 6px; font-family: 'Arial'; text-anchor: middle" x="30.7125" y="66.166687" transform="rotate(-0 30.7125 66.166687)">10</text>
     </g>
    </g>
    <g id="xtick_4">
     <g id="line2d_4">
      <g>
       <use xlink:href="#mbae1a6f1e3" x="42.91875" y="58.672" style="stroke: #000000; stroke-width: 0.25"/>
      </g>
     </g>
     <g id="text_4">
      <text style="font-size: 6px; font-family: 'Arial'; text-anchor: middle" x="42.91875" y="66.166687" transform="rotate(-0 42.91875 66.166687)">15</text>
     </g>
    </g>
    <g id="text_5">
     <text style="font-size: 8px; font-family: 'Arial'; text-anchor: middle" x="25.83" y="74.585437" transform="rotate(-0 25.83 74.585437)"># MNs active</text>
    </g>
   </g>
   <g id="matplotlib.axis_2">
    <g id="ytick_1">
     <g id="line2d_5">
      <defs>
       <path id="mabb3e32f86" d="M 0 0 
L -1.7 0 
" style="stroke: #000000; stroke-width: 0.25"/>
      </defs>
      <g>
       <use xlink:href="#mabb3e32f86" x="4.3" y="11.934" style="stroke: #000000; stroke-width: 0.25"/>
      </g>
     </g>
     <g id="text_6">
      <text style="font-size: 6px; font-family: 'Arial'; text-anchor: end" x="1.1" y="14.081344" transform="rotate(-0 1.1 14.081344)">none</text>
     </g>
    </g>
    <g id="ytick_2">
     <g id="line2d_6">
      <g>
       <use xlink:href="#mabb3e32f86" x="4.3" y="20.25" style="stroke: #000000; stroke-width: 0.25"/>
      </g>
     </g>
     <g id="text_7">
      <text style="font-size: 6px; font-family: 'Arial'; text-anchor: end" x="1.1" y="22.397344" transform="rotate(-0 1.1 22.397344)">E1</text>
     </g>
    </g>
    <g id="ytick_3">
     <g id="line2d_7">
      <g>
       <use xlink:href="#mabb3e32f86" x="4.3" y="28.566" style="stroke: #000000; stroke-width: 0.25"/>
      </g>
     </g>
     <g id="text_8">
      <text style="font-size: 6px; font-family: 'Arial'; text-anchor: end" x="1.1" y="30.713344" transform="rotate(-0 1.1 30.713344)">E2</text>
     </g>
    </g>
    <g id="ytick_4">
     <g id="line2d_8">
      <g>
       <use xlink:href="#mabb3e32f86" x="4.3" y="36.882" style="stroke: #000000; stroke-width: 0.25"/>
      </g>
     </g>
     <g id="text_9">
      <text style="font-size: 6px; font-family: 'Arial'; text-anchor: end" x="1.1" y="39.029344" transform="rotate(-0 1.1 39.029344)">E3</text>
     </g>
    </g>
    <g id="ytick_5">
     <g id="line2d_9">
      <g>
       <use xlink:href="#mabb3e32f86" x="4.3" y="45.198" style="stroke: #000000; stroke-width: 0.25"/>
      </g>
     </g>
     <g id="text_10">
      <text style="font-size: 6px; font-family: 'Arial'; text-anchor: end" x="1.1" y="47.345344" transform="rotate(-0 1.1 47.345344)">E4</text>
     </g>
    </g>
    <g id="ytick_6">
     <g id="line2d_10">
      <g>
       <use xlink:href="#mabb3e32f86" x="4.3" y="53.514" style="stroke: #000000; stroke-width: 0.25"/>
      </g>
     </g>
     <g id="text_11">
      <text style="font-size: 6px; font-family: 'Arial'; text-anchor: end" x="1.1" y="55.661344" transform="rotate(-0 1.1 55.661344)">I2</text>
     </g>
    </g>
    <g id="text_12">
     <text style="font-size: 8px; font-family: 'Arial'; text-anchor: middle" x="-15.33625" y="32.724" transform="rotate(-90 -15.33625 32.724)">silenced neuron</text>
    </g>
   </g>
   <g id="patch_3">
    <path d="M 13.62375 11.1024 
L 13.62375 12.7656 
L 18.50625 12.7656 
L 18.50625 11.1024 
L 13.62375 11.1024 
z
" clip-path="url(#p43877c1194)" style="fill: #306c53; stroke: #282828; stroke-width: 0.75; stroke-linejoin: miter"/>
   </g>
   <g id="line2d_11">
    <path d="M 13.62375 11.934 
L 8.74125 11.934 
" clip-path="url(#p43877c1194)" style="fill: none; stroke: #282828; stroke-width: 0.75"/>
   </g>
   <g id="line2d_12">
    <path d="M 18.50625 11.934 
L 25.83 11.934 
" clip-path="url(#p43877c1194)" style="fill: none; stroke: #282828; stroke-width: 0.75"/>
   </g>
   <g id="line2d_13">
    <path d="M 8.74125 11.5182 
L 8.74125 12.3498 
" clip-path="url(#p43877c1194)" style="fill: none; stroke: #282828; stroke-width: 0.75; stroke-linecap: square"/>
   </g>
   <g id="line2d_14">
    <path d="M 25.83 11.5182 
L 25.83 12.3498 
" clip-path="url(#p43877c1194)" style="fill: none; stroke: #282828; stroke-width: 0.75; stroke-linecap: square"/>
   </g>
   <g id="patch_4">
    <path d="M 11.1825 19.4184 
L 11.1825 21.0816 
L 20.9475 21.0816 
L 20.9475 19.4184 
L 11.1825 19.4184 
z
" clip-path="url(#p43877c1194)" style="fill: #c35843; stroke: #282828; stroke-width: 0.75; stroke-linejoin: miter"/>
   </g>
   <g id="line2d_15">
    <path d="M 11.1825 20.25 
L 8.74125 20.25 
" clip-path="url(#p43877c1194)" style="fill: none; stroke: #282828; stroke-width: 0.75"/>
   </g>
   <g id="line2d_16">
    <path d="M 20.9475 20.25 
L 35.595 20.25 
" clip-path="url(#p43877c1194)" style="fill: none; stroke: #282828; stroke-width: 0.75"/>
   </g>
   <g id="line2d_17">
    <path d="M 8.74125 19.8342 
L 8.74125 20.6658 
" clip-path="url(#p43877c1194)" style="fill: none; stroke: #282828; stroke-width: 0.75; stroke-linecap: square"/>
   </g>
   <g id="line2d_18">
    <path d="M 35.595 19.8342 
L 35.595 20.6658 
" clip-path="url(#p43877c1194)" style="fill: none; stroke: #282828; stroke-width: 0.75; stroke-linecap: square"/>
   </g>
   <g id="patch_5">
    <path d="M 8.74125 27.7344 
L 8.74125 29.3976 
L 11.1825 29.3976 
L 11.1825 27.7344 
L 8.74125 27.7344 
z
" clip-path="url(#p43877c1194)" style="fill: #f0a394; stroke: #282828; stroke-width: 0.75; stroke-linejoin: miter"/>
   </g>
   <g id="line2d_19">
    <path d="M 8.74125 28.566 
L 8.74125 28.566 
" clip-path="url(#p43877c1194)" style="fill: none; stroke: #282828; stroke-width: 0.75"/>
   </g>
   <g id="line2d_20">
    <path d="M 11.1825 28.566 
L 13.62375 28.566 
" clip-path="url(#p43877c1194)" style="fill: none; stroke: #282828; stroke-width: 0.75"/>
   </g>
   <g id="line2d_21">
    <path d="M 8.74125 28.1502 
L 8.74125 28.9818 
" clip-path="url(#p43877c1194)" style="fill: none; stroke: #282828; stroke-width: 0.75; stroke-linecap: square"/>
   </g>
   <g id="line2d_22">
    <path d="M 13.62375 28.1502 
L 13.62375 28.9818 
" clip-path="url(#p43877c1194)" style="fill: none; stroke: #282828; stroke-width: 0.75; stroke-linecap: square"/>
   </g>
   <g id="patch_6">
    <path d="M 11.1825 36.0504 
L 11.1825 37.7136 
L 13.62375 37.7136 
L 13.62375 36.0504 
L 11.1825 36.0504 
z
" clip-path="url(#p43877c1194)" style="fill: #8d3d2d; stroke: #282828; stroke-width: 0.75; stroke-linejoin: miter"/>
   </g>
   <g id="line2d_23">
    <path d="M 11.1825 36.882 
L 8.74125 36.882 
" clip-path="url(#p43877c1194)" style="fill: none; stroke: #282828; stroke-width: 0.75"/>
   </g>
   <g id="line2d_24">
    <path d="M 13.62375 36.882 
L 13.62375 36.882 
" clip-path="url(#p43877c1194)" style="fill: none; stroke: #282828; stroke-width: 0.75"/>
   </g>
   <g id="line2d_25">
    <path d="M 8.74125 36.4662 
L 8.74125 37.2978 
" clip-path="url(#p43877c1194)" style="fill: none; stroke: #282828; stroke-width: 0.75; stroke-linecap: square"/>
   </g>
   <g id="line2d_26">
    <path d="M 13.62375 36.4662 
L 13.62375 37.2978 
" clip-path="url(#p43877c1194)" style="fill: none; stroke: #282828; stroke-width: 0.75; stroke-linecap: square"/>
   </g>
   <g id="patch_7">
    <path d="M 11.1825 44.3664 
L 11.1825 46.0296 
L 16.065 46.0296 
L 16.065 44.3664 
L 11.1825 44.3664 
z
" clip-path="url(#p43877c1194)" style="fill: #e76f58; stroke: #282828; stroke-width: 0.75; stroke-linejoin: miter"/>
   </g>
   <g id="line2d_27">
    <path d="M 11.1825 45.198 
L 8.74125 45.198 
" clip-path="url(#p43877c1194)" style="fill: none; stroke: #282828; stroke-width: 0.75"/>
   </g>
   <g id="line2d_28">
    <path d="M 16.065 45.198 
L 23.38875 45.198 
" clip-path="url(#p43877c1194)" style="fill: none; stroke: #282828; stroke-width: 0.75"/>
   </g>
   <g id="line2d_29">
    <path d="M 8.74125 44.7822 
L 8.74125 45.6138 
" clip-path="url(#p43877c1194)" style="fill: none; stroke: #282828; stroke-width: 0.75; stroke-linecap: square"/>
   </g>
   <g id="line2d_30">
    <path d="M 23.38875 44.7822 
L 23.38875 45.6138 
" clip-path="url(#p43877c1194)" style="fill: none; stroke: #282828; stroke-width: 0.75; stroke-linecap: square"/>
   </g>
   <g id="patch_8">
    <path d="M 25.83 52.6824 
L 25.83 54.3456 
L 47.80125 54.3456 
L 47.80125 52.6824 
L 25.83 52.6824 
z
" clip-path="url(#p43877c1194)" style="fill: #126175; stroke: #282828; stroke-width: 0.75; stroke-linejoin: miter"/>
   </g>
   <g id="line2d_31">
    <path d="M 25.83 53.514 
L 8.74125 53.514 
" clip-path="url(#p43877c1194)" style="fill: none; stroke: #282828; stroke-width: 0.75"/>
   </g>
   <g id="line2d_32">
    <path d="M 47.80125 53.514 
L 51.4 53.514 
" clip-path="url(#p43877c1194)" style="fill: none; stroke: #282828; stroke-width: 0.75"/>
   </g>
   <g id="line2d_33">
    <path d="M 8.74125 53.0982 
L 8.74125 53.9298 
" clip-path="url(#p43877c1194)" style="fill: none; stroke: #282828; stroke-width: 0.75; stroke-linecap: square"/>
   </g>
   <g id="line2d_34">
    <path clip-path="url(#p43877c1194)" style="fill: none; stroke: #282828; stroke-width: 0.75; stroke-linecap: square"/>
   </g>
   <g id="line2d_35">
    <path d="M 16.065 11.1024 
L 16.065 12.7656 
" clip-path="url(#p43877c1194)" style="fill: none; stroke: #282828; stroke-width: 0.75"/>
   </g>
   <g id="line2d_36">
    <path d="M 16.065 19.4184 
L 16.065 21.0816 
" clip-path="url(#p43877c1194)" style="fill: none; stroke: #282828; stroke-width: 0.75"/>
   </g>
   <g id="line2d_37">
    <path d="M 11.1825 27.7344 
L 11.1825 29.3976 
" clip-path="url(#p43877c1194)" style="fill: none; stroke: #282828; stroke-width: 0.75"/>
   </g>
   <g id="line2d_38">
    <path d="M 13.62375 36.0504 
L 13.62375 37.7136 
" clip-path="url(#p43877c1194)" style="fill: none; stroke: #282828; stroke-width: 0.75"/>
   </g>
   <g id="line2d_39">
    <path d="M 13.62375 44.3664 
L 13.62375 46.0296 
" clip-path="url(#p43877c1194)" style="fill: none; stroke: #282828; stroke-width: 0.75"/>
   </g>
   <g id="line2d_40">
    <path d="M 30.7125 52.6824 
L 30.7125 54.3456 
" clip-path="url(#p43877c1194)" style="fill: none; stroke: #282828; stroke-width: 0.75"/>
   </g>
   <g id="patch_9">
    <path d="M 4.3 57.672 
L 4.3 7.776 
" style="fill: none; stroke: #000000; stroke-width: 0.25; stroke-linejoin: miter; stroke-linecap: square"/>
   </g>
   <g id="patch_10">
    <path d="M 6.3 58.672 
L 45.36 58.672 
" style="fill: none; stroke: #000000; stroke-width: 0.25; stroke-linejoin: miter; stroke-linecap: square"/>
   </g>
  </g>
 </g>
 <defs>
  <clipPath id="p43877c1194">
   <rect x="6.3" y="7.776" width="39.06" height="49.896"/>
  </clipPath>
 </defs>
</svg>
