<?xml version="1.0" encoding="utf-8" standalone="no"?>
<!DOCTYPE svg PUBLIC "-//W3C//DTD SVG 1.1//EN"
  "http://www.w3.org/Graphics/SVG/1.1/DTD/svg11.dtd">
<svg xmlns:xlink="http://www.w3.org/1999/xlink" width="50.4pt" height="64.8pt" viewBox="0 0 50.4 64.8" xmlns="http://www.w3.org/2000/svg" version="1.1">
 <metadata>
  <rdf:RDF xmlns:dc="http://purl.org/dc/elements/1.1/" xmlns:cc="http://creativecommons.org/ns#" xmlns:rdf="http://www.w3.org/1999/02/22-rdf-syntax-ns#">
   <cc:Work>
    <dc:type rdf:resource="http://purl.org/dc/dcmitype/StillImage"/>
    <dc:date>2025-09-05T11:26:18.829720</dc:date>
    <dc:format>image/svg+xml</dc:format>
    <dc:creator>
     <cc:Agent>
      <dc:title>Matplotlib v3.10.3, https://matplotlib.org/</dc:title>
     </cc:Agent>
    </dc:creator>
   </cc:Work>
  </rdf:RDF>
 </metadata>
 <defs>
  <style type="text/css">*{stroke-linejoin: round; stroke-linecap: butt}</style>
 </defs>
 <g id="figure_1">
  <g id="patch_1">
   <path d="M 0 64.8 
L 50.4 64.8 
L 50.4 0 
L 0 0 
L 0 64.8 
z
" style="fill: none"/>
  </g>
  <g id="axes_1">
   <g id="patch_2">
    <path d="M 6.3 57.672 
L 45.36 57.672 
L 45.36 7.776 
L 6.3 7.776 
L 6.3 57.672 
z
" style="fill: none"/>
   </g>
   <g id="FillBetweenPolyCollection_1">
    <path d="M 8.075455 12.707684 
L 8.075455 11.160316 
L 8.181427 11.086839 
L 8.2874 11.015692 
L 8.393373 10.946418 
L 8.499346 10.878053 
L 8.605319 10.809214 
L 8.711292 10.738188 
L 8.817265 10.66303 
L 8.923238 10.581654 
L 9.029211 10.49192 
L 9.135184 10.391745 
L 9.241157 10.279238 
L 9.34713 10.152877 
L 9.453103 10.01172 
L 9.559076 9.855643 
L 9.665049 9.685568 
L 9.771022 9.503659 
L 9.876995 9.313409 
L 9.982968 9.119604 
L 10.088941 8.928122 
L 10.194914 8.745586 
L 10.300887 8.578909 
L 10.40686 8.434819 
L 10.512832 8.319431 
L 10.618805 8.237934 
L 10.724778 8.194418 
L 10.830751 8.1918 
L 10.936724 8.231805 
L 11.042697 8.314918 
L 11.14867 8.44027 
L 11.254643 8.605477 
L 11.360616 8.80647 
L 11.466589 9.037444 
L 11.572562 9.290977 
L 11.678535 9.558411 
L 11.784508 9.830444 
L 11.890481 10.097884 
L 11.996454 10.352415 
L 12.102427 10.587262 
L 12.2084 10.797631 
L 12.314373 10.980879 
L 12.420346 11.136404 
L 12.526319 11.26533 
L 12.632292 11.370053 
L 12.738264 11.453746 
L 12.844237 11.519911 
L 12.95021 11.572007 
L 13.056183 11.613199 
L 13.162156 11.646218 
L 13.268129 11.673301 
L 13.374102 11.696204 
L 13.480075 11.716251 
L 13.586048 11.734389 
L 13.692021 11.751258 
L 13.797994 11.767242 
L 13.903967 11.782522 
L 14.00994 11.797125 
L 14.115913 11.810963 
L 14.221886 11.823887 
L 14.327859 11.835725 
L 14.433832 11.846326 
L 14.539805 11.855594 
L 14.645778 11.863505 
L 14.751751 11.870118 
L 14.857724 11.875567 
L 14.963696 11.880047 
L 15.069669 11.883786 
L 15.175642 11.88702 
L 15.281615 11.889965 
L 15.387588 11.8928 
L 15.493561 11.89565 
L 15.599534 11.898587 
L 15.705507 11.901626 
L 15.81148 11.904741 
L 15.917453 11.907877 
L 16.023426 11.91096 
L 16.129399 11.913915 
L 16.235372 11.916668 
L 16.341345 11.919159 
L 16.447318 11.921341 
L 16.553291 11.923181 
L 16.659264 11.924659 
L 16.765237 11.92577 
L 16.87121 11.926522 
L 16.977183 11.926936 
L 17.083156 11.927043 
L 17.189128 11.926888 
L 17.295101 11.926525 
L 17.401074 11.926014 
L 17.507047 11.925415 
L 17.61302 11.924791 
L 17.718993 11.924196 
L 17.824966 11.923677 
L 17.930939 11.923273 
L 18.036912 11.923013 
L 18.142885 11.922915 
L 18.248858 11.92299 
L 18.354831 11.92324 
L 18.460804 11.923661 
L 18.566777 11.924238 
L 18.566777 11.943762 
L 18.566777 11.943762 
L 18.460804 11.944339 
L 18.354831 11.94476 
L 18.248858 11.94501 
L 18.142885 11.945085 
L 18.036912 11.944987 
L 17.930939 11.944727 
L 17.824966 11.944323 
L 17.718993 11.943804 
L 17.61302 11.943209 
L 17.507047 11.942585 
L 17.401074 11.941986 
L 17.295101 11.941475 
L 17.189128 11.941112 
L 17.083156 11.940957 
L 16.977183 11.941064 
L 16.87121 11.941478 
L 16.765237 11.94223 
L 16.659264 11.943341 
L 16.553291 11.944819 
L 16.447318 11.946659 
L 16.341345 11.948841 
L 16.235372 11.951332 
L 16.129399 11.954085 
L 16.023426 11.95704 
L 15.917453 11.960123 
L 15.81148 11.963259 
L 15.705507 11.966374 
L 15.599534 11.969413 
L 15.493561 11.97235 
L 15.387588 11.9752 
L 15.281615 11.978035 
L 15.175642 11.98098 
L 15.069669 11.984214 
L 14.963696 11.987953 
L 14.857724 11.992433 
L 14.751751 11.997882 
L 14.645778 12.004495 
L 14.539805 12.012406 
L 14.433832 12.021674 
L 14.327859 12.032275 
L 14.221886 12.044113 
L 14.115913 12.057037 
L 14.00994 12.070875 
L 13.903967 12.085478 
L 13.797994 12.100758 
L 13.692021 12.116742 
L 13.586048 12.133611 
L 13.480075 12.151749 
L 13.374102 12.171796 
L 13.268129 12.194699 
L 13.162156 12.221782 
L 13.056183 12.254801 
L 12.95021 12.295993 
L 12.844237 12.348089 
L 12.738264 12.414254 
L 12.632292 12.497947 
L 12.526319 12.60267 
L 12.420346 12.731596 
L 12.314373 12.887121 
L 12.2084 13.070369 
L 12.102427 13.280738 
L 11.996454 13.515585 
L 11.890481 13.770116 
L 11.784508 14.037556 
L 11.678535 14.309589 
L 11.572562 14.577023 
L 11.466589 14.830556 
L 11.360616 15.06153 
L 11.254643 15.262523 
L 11.14867 15.42773 
L 11.042697 15.553082 
L 10.936724 15.636195 
L 10.830751 15.6762 
L 10.724778 15.673582 
L 10.618805 15.630066 
L 10.512832 15.548569 
L 10.40686 15.433181 
L 10.300887 15.289091 
L 10.194914 15.122414 
L 10.088941 14.939878 
L 9.982968 14.748396 
L 9.876995 14.554591 
L 9.771022 14.364341 
L 9.665049 14.182432 
L 9.559076 14.012357 
L 9.453103 13.85628 
L 9.34713 13.715123 
L 9.241157 13.588762 
L 9.135184 13.476255 
L 9.029211 13.37608 
L 8.923238 13.286346 
L 8.817265 13.20497 
L 8.711292 13.129812 
L 8.605319 13.058786 
L 8.499346 12.989947 
L 8.393373 12.921582 
L 8.2874 12.852308 
L 8.181427 12.781161 
L 8.075455 12.707684 
z
" clip-path="url(#p82fb57aa08)" style="fill: #306c53; fill-opacity: 0.5"/>
   </g>
   <g id="FillBetweenPolyCollection_2">
    <path d="M 8.075455 23.171108 
L 8.075455 17.328892 
L 8.393373 17.083701 
L 8.711292 16.877176 
L 9.029211 16.714941 
L 9.34713 16.599721 
L 9.665049 16.531459 
L 9.982968 16.5078 
L 10.300887 16.524797 
L 10.618805 16.57772 
L 10.936724 16.661786 
L 11.254643 16.772704 
L 11.572562 16.906947 
L 11.890481 17.061756 
L 12.2084 17.234911 
L 12.526319 17.424378 
L 12.844237 17.627932 
L 13.162156 17.842847 
L 13.480075 18.065747 
L 13.797994 18.292612 
L 14.115913 18.518961 
L 14.433832 18.740144 
L 14.751751 18.951696 
L 15.069669 19.149673 
L 15.387588 19.330932 
L 15.705507 19.493306 
L 16.023426 19.635667 
L 16.341345 19.757874 
L 16.659264 19.860645 
L 16.977183 19.945367 
L 17.295101 20.01388 
L 17.61302 20.068275 
L 17.930939 20.110706 
L 18.248858 20.143248 
L 18.566777 20.167797 
L 18.884696 20.186008 
L 19.202615 20.199272 
L 19.520533 20.208719 
L 19.838452 20.215239 
L 20.156371 20.219519 
L 20.47429 20.222078 
L 20.792209 20.223307 
L 21.110128 20.223505 
L 21.428047 20.222904 
L 21.745965 20.221696 
L 22.063884 20.220049 
L 22.381803 20.218115 
L 22.699722 20.216034 
L 23.017641 20.213937 
L 23.33556 20.211942 
L 23.653479 20.210148 
L 23.971397 20.208638 
L 24.289316 20.207468 
L 24.607235 20.206675 
L 24.925154 20.206272 
L 25.243073 20.206254 
L 25.560992 20.206598 
L 25.878911 20.207268 
L 26.196829 20.208217 
L 26.514748 20.209388 
L 26.832667 20.210712 
L 27.150586 20.212111 
L 27.468505 20.213501 
L 27.786424 20.214792 
L 28.104343 20.215898 
L 28.422261 20.216737 
L 28.74018 20.217243 
L 29.058099 20.21737 
L 29.376018 20.217094 
L 29.693937 20.216419 
L 30.011856 20.215373 
L 30.329775 20.214004 
L 30.647693 20.212375 
L 30.965612 20.210558 
L 31.283531 20.208633 
L 31.60145 20.20668 
L 31.919369 20.204779 
L 32.237288 20.203009 
L 32.555207 20.201449 
L 32.873125 20.200174 
L 33.191044 20.199253 
L 33.508963 20.198743 
L 33.826882 20.198682 
L 34.144801 20.199083 
L 34.46272 20.199932 
L 34.780639 20.201183 
L 35.098557 20.202762 
L 35.416476 20.204578 
L 35.734395 20.206531 
L 36.052314 20.208528 
L 36.370233 20.210491 
L 36.688152 20.212371 
L 37.006071 20.214147 
L 37.323989 20.215833 
L 37.641908 20.217464 
L 37.959827 20.219092 
L 38.277746 20.220775 
L 38.595665 20.22256 
L 38.913584 20.22448 
L 39.231503 20.226545 
L 39.549421 20.22874 
L 39.549421 20.27126 
L 39.549421 20.27126 
L 39.231503 20.273455 
L 38.913584 20.27552 
L 38.595665 20.27744 
L 38.277746 20.279225 
L 37.959827 20.280908 
L 37.641908 20.282536 
L 37.323989 20.284167 
L 37.006071 20.285853 
L 36.688152 20.287629 
L 36.370233 20.289509 
L 36.052314 20.291472 
L 35.734395 20.293469 
L 35.416476 20.295422 
L 35.098557 20.297238 
L 34.780639 20.298817 
L 34.46272 20.300068 
L 34.144801 20.300917 
L 33.826882 20.301318 
L 33.508963 20.301257 
L 33.191044 20.300747 
L 32.873125 20.299826 
L 32.555207 20.298551 
L 32.237288 20.296991 
L 31.919369 20.295221 
L 31.60145 20.29332 
L 31.283531 20.291367 
L 30.965612 20.289442 
L 30.647693 20.287625 
L 30.329775 20.285996 
L 30.011856 20.284627 
L 29.693937 20.283581 
L 29.376018 20.282906 
L 29.058099 20.28263 
L 28.74018 20.282757 
L 28.422261 20.283263 
L 28.104343 20.284102 
L 27.786424 20.285208 
L 27.468505 20.286499 
L 27.150586 20.287889 
L 26.832667 20.289288 
L 26.514748 20.290612 
L 26.196829 20.291783 
L 25.878911 20.292732 
L 25.560992 20.293402 
L 25.243073 20.293746 
L 24.925154 20.293728 
L 24.607235 20.293325 
L 24.289316 20.292532 
L 23.971397 20.291362 
L 23.653479 20.289852 
L 23.33556 20.288058 
L 23.017641 20.286063 
L 22.699722 20.283966 
L 22.381803 20.281885 
L 22.063884 20.279951 
L 21.745965 20.278304 
L 21.428047 20.277096 
L 21.110128 20.276495 
L 20.792209 20.276693 
L 20.47429 20.277922 
L 20.156371 20.280481 
L 19.838452 20.284761 
L 19.520533 20.291281 
L 19.202615 20.300728 
L 18.884696 20.313992 
L 18.566777 20.332203 
L 18.248858 20.356752 
L 17.930939 20.389294 
L 17.61302 20.431725 
L 17.295101 20.48612 
L 16.977183 20.554633 
L 16.659264 20.639355 
L 16.341345 20.742126 
L 16.023426 20.864333 
L 15.705507 21.006694 
L 15.387588 21.169068 
L 15.069669 21.350327 
L 14.751751 21.548304 
L 14.433832 21.759856 
L 14.115913 21.981039 
L 13.797994 22.207388 
L 13.480075 22.434253 
L 13.162156 22.657153 
L 12.844237 22.872068 
L 12.526319 23.075622 
L 12.2084 23.265089 
L 11.890481 23.438244 
L 11.572562 23.593053 
L 11.254643 23.727296 
L 10.936724 23.838214 
L 10.618805 23.92228 
L 10.300887 23.975203 
L 9.982968 23.9922 
L 9.665049 23.968541 
L 9.34713 23.900279 
L 9.029211 23.785059 
L 8.711292 23.622824 
L 8.393373 23.416299 
L 8.075455 23.171108 
z
" clip-path="url(#p82fb57aa08)" style="fill: #c35843; fill-opacity: 0.5"/>
   </g>
   <g id="FillBetweenPolyCollection_3">
    <path d="M 8.075455 31.881755 
L 8.075455 25.250245 
L 8.295552 24.963223 
L 8.51565 24.8238 
L 8.735748 24.847485 
L 8.955845 25.028644 
L 9.175943 25.341823 
L 9.396041 25.747096 
L 9.616138 26.198033 
L 9.836236 26.650189 
L 10.056334 27.067958 
L 10.276431 27.42835 
L 10.496529 27.721333 
L 10.716627 27.947477 
L 10.936724 28.11424 
L 11.156822 28.232246 
L 11.37692 28.312455 
L 11.597017 28.364522 
L 11.817115 28.396185 
L 12.037213 28.413313 
L 12.25731 28.420249 
L 12.477408 28.420226 
L 12.697506 28.415723 
L 12.917603 28.40873 
L 13.137701 28.400902 
L 13.357799 28.393615 
L 13.577896 28.387943 
L 13.797994 28.384601 
L 14.018092 28.383911 
L 14.238189 28.385848 
L 14.458287 28.390138 
L 14.678385 28.396416 
L 14.898482 28.404349 
L 15.11858 28.413704 
L 15.338678 28.424338 
L 15.558775 28.436126 
L 15.778873 28.448879 
L 15.998971 28.462288 
L 16.219068 28.475923 
L 16.439166 28.489273 
L 16.659264 28.501823 
L 16.879361 28.513127 
L 17.099459 28.522865 
L 17.319557 28.530872 
L 17.539654 28.537136 
L 17.759752 28.541777 
L 17.97985 28.545015 
L 18.199947 28.547135 
L 18.420045 28.548459 
L 18.640143 28.549314 
L 18.86024 28.550005 
L 19.080338 28.550783 
L 19.300436 28.551821 
L 19.520533 28.55319 
L 19.740631 28.554864 
L 19.960729 28.556736 
L 20.180826 28.558654 
L 20.400924 28.560463 
L 20.621022 28.562043 
L 20.841119 28.563321 
L 21.061217 28.564285 
L 21.281315 28.564963 
L 21.501412 28.565408 
L 21.72151 28.565681 
L 21.941608 28.565838 
L 22.161705 28.565922 
L 22.381803 28.565965 
L 22.601901 28.565985 
L 22.821998 28.565994 
L 23.042096 28.565998 
L 23.262194 28.565999 
L 23.482292 28.566 
L 23.702389 28.566 
L 23.922487 28.566 
L 24.142585 28.566 
L 24.362682 28.566 
L 24.58278 28.566 
L 24.802878 28.566 
L 25.022975 28.566 
L 25.243073 28.566 
L 25.463171 28.566 
L 25.683268 28.566 
L 25.903366 28.566 
L 26.123464 28.565999 
L 26.343561 28.565998 
L 26.563659 28.565995 
L 26.783757 28.565987 
L 27.003854 28.565971 
L 27.223952 28.565938 
L 27.44405 28.565876 
L 27.664147 28.565766 
L 27.884245 28.565587 
L 28.104343 28.565312 
L 28.32444 28.564921 
L 28.544538 28.564406 
L 28.764636 28.563783 
L 28.984733 28.563096 
L 29.204831 28.562417 
L 29.424929 28.561837 
L 29.645026 28.561445 
L 29.865124 28.561307 
L 29.865124 28.570693 
L 29.865124 28.570693 
L 29.645026 28.570555 
L 29.424929 28.570163 
L 29.204831 28.569583 
L 28.984733 28.568904 
L 28.764636 28.568217 
L 28.544538 28.567594 
L 28.32444 28.567079 
L 28.104343 28.566688 
L 27.884245 28.566413 
L 27.664147 28.566234 
L 27.44405 28.566124 
L 27.223952 28.566062 
L 27.003854 28.566029 
L 26.783757 28.566013 
L 26.563659 28.566005 
L 26.343561 28.566002 
L 26.123464 28.566001 
L 25.903366 28.566 
L 25.683268 28.566 
L 25.463171 28.566 
L 25.243073 28.566 
L 25.022975 28.566 
L 24.802878 28.566 
L 24.58278 28.566 
L 24.362682 28.566 
L 24.142585 28.566 
L 23.922487 28.566 
L 23.702389 28.566 
L 23.482292 28.566 
L 23.262194 28.566001 
L 23.042096 28.566002 
L 22.821998 28.566006 
L 22.601901 28.566015 
L 22.381803 28.566035 
L 22.161705 28.566078 
L 21.941608 28.566162 
L 21.72151 28.566319 
L 21.501412 28.566592 
L 21.281315 28.567037 
L 21.061217 28.567715 
L 20.841119 28.568679 
L 20.621022 28.569957 
L 20.400924 28.571537 
L 20.180826 28.573346 
L 19.960729 28.575264 
L 19.740631 28.577136 
L 19.520533 28.57881 
L 19.300436 28.580179 
L 19.080338 28.581217 
L 18.86024 28.581995 
L 18.640143 28.582686 
L 18.420045 28.583541 
L 18.199947 28.584865 
L 17.97985 28.586985 
L 17.759752 28.590223 
L 17.539654 28.594864 
L 17.319557 28.601128 
L 17.099459 28.609135 
L 16.879361 28.618873 
L 16.659264 28.630177 
L 16.439166 28.642727 
L 16.219068 28.656077 
L 15.998971 28.669712 
L 15.778873 28.683121 
L 15.558775 28.695874 
L 15.338678 28.707662 
L 15.11858 28.718296 
L 14.898482 28.727651 
L 14.678385 28.735584 
L 14.458287 28.741862 
L 14.238189 28.746152 
L 14.018092 28.748089 
L 13.797994 28.747399 
L 13.577896 28.744057 
L 13.357799 28.738385 
L 13.137701 28.731098 
L 12.917603 28.72327 
L 12.697506 28.716277 
L 12.477408 28.711774 
L 12.25731 28.711751 
L 12.037213 28.718687 
L 11.817115 28.735815 
L 11.597017 28.767478 
L 11.37692 28.819545 
L 11.156822 28.899754 
L 10.936724 29.01776 
L 10.716627 29.184523 
L 10.496529 29.410667 
L 10.276431 29.70365 
L 10.056334 30.064042 
L 9.836236 30.481811 
L 9.616138 30.933967 
L 9.396041 31.384904 
L 9.175943 31.790177 
L 8.955845 32.103356 
L 8.735748 32.284515 
L 8.51565 32.3082 
L 8.295552 32.168777 
L 8.075455 31.881755 
z
" clip-path="url(#p82fb57aa08)" style="fill: #f0a394; fill-opacity: 0.5"/>
   </g>
   <g id="FillBetweenPolyCollection_4">
    <path d="M 8.075455 36.936185 
L 8.075455 36.827815 
L 8.091758 36.82783 
L 8.108062 36.828145 
L 8.124365 36.828729 
L 8.140669 36.82954 
L 8.156972 36.830522 
L 8.173276 36.831605 
L 8.189579 36.832706 
L 8.205883 36.833725 
L 8.222186 36.834548 
L 8.23849 36.835043 
L 8.254793 36.835058 
L 8.271097 36.834425 
L 8.2874 36.832953 
L 8.303704 36.83043 
L 8.320008 36.826623 
L 8.336311 36.821274 
L 8.352615 36.814104 
L 8.368918 36.80481 
L 8.385222 36.79307 
L 8.401525 36.778546 
L 8.417829 36.760888 
L 8.434132 36.739738 
L 8.450436 36.714743 
L 8.466739 36.685561 
L 8.483043 36.651872 
L 8.499346 36.613397 
L 8.51565 36.569903 
L 8.531953 36.521229 
L 8.548257 36.467294 
L 8.56456 36.408114 
L 8.580864 36.34382 
L 8.597168 36.274666 
L 8.613471 36.201043 
L 8.629775 36.123481 
L 8.646078 36.042657 
L 8.662382 35.959388 
L 8.678685 35.874625 
L 8.694989 35.789437 
L 8.711292 35.704998 
L 8.727596 35.622557 
L 8.743899 35.543411 
L 8.760203 35.468873 
L 8.776506 35.400237 
L 8.79281 35.338739 
L 8.809113 35.285519 
L 8.825417 35.241589 
L 8.841721 35.207797 
L 8.858024 35.184801 
L 8.874328 35.173043 
L 8.890631 35.172736 
L 8.906935 35.183849 
L 8.923238 35.206113 
L 8.939542 35.239022 
L 8.955845 35.281845 
L 8.972149 35.333647 
L 8.988452 35.393315 
L 9.004756 35.459581 
L 9.021059 35.531062 
L 9.037363 35.606281 
L 9.053666 35.683709 
L 9.06997 35.76179 
L 9.086273 35.83897 
L 9.102577 35.913722 
L 9.118881 35.984568 
L 9.135184 36.050089 
L 9.151488 36.108944 
L 9.167791 36.159875 
L 9.184095 36.201713 
L 9.200398 36.233378 
L 9.216702 36.253888 
L 9.233005 36.262357 
L 9.249309 36.257999 
L 9.265612 36.240134 
L 9.281916 36.208198 
L 9.298219 36.161754 
L 9.314523 36.100508 
L 9.330826 36.024328 
L 9.34713 35.933265 
L 9.363434 35.827577 
L 9.379737 35.707751 
L 9.396041 35.574525 
L 9.412344 35.428911 
L 9.428648 35.272201 
L 9.444951 35.105982 
L 9.461255 34.932126 
L 9.477558 34.752786 
L 9.493862 34.570368 
L 9.510165 34.387499 
L 9.526469 34.206978 
L 9.542772 34.031724 
L 9.559076 33.86471 
L 9.575379 33.708886 
L 9.591683 33.567108 
L 9.607986 33.442053 
L 9.62429 33.336145 
L 9.640594 33.251485 
L 9.656897 33.189778 
L 9.673201 33.15229 
L 9.689504 33.1398 
L 9.689504 40.6242 
L 9.689504 40.6242 
L 9.673201 40.61171 
L 9.656897 40.574222 
L 9.640594 40.512515 
L 9.62429 40.427855 
L 9.607986 40.321947 
L 9.591683 40.196892 
L 9.575379 40.055114 
L 9.559076 39.89929 
L 9.542772 39.732276 
L 9.526469 39.557022 
L 9.510165 39.376501 
L 9.493862 39.193632 
L 9.477558 39.011214 
L 9.461255 38.831874 
L 9.444951 38.658018 
L 9.428648 38.491799 
L 9.412344 38.335089 
L 9.396041 38.189475 
L 9.379737 38.056249 
L 9.363434 37.936423 
L 9.34713 37.830735 
L 9.330826 37.739672 
L 9.314523 37.663492 
L 9.298219 37.602246 
L 9.281916 37.555802 
L 9.265612 37.523866 
L 9.249309 37.506001 
L 9.233005 37.501643 
L 9.216702 37.510112 
L 9.200398 37.530622 
L 9.184095 37.562287 
L 9.167791 37.604125 
L 9.151488 37.655056 
L 9.135184 37.713911 
L 9.118881 37.779432 
L 9.102577 37.850278 
L 9.086273 37.92503 
L 9.06997 38.00221 
L 9.053666 38.080291 
L 9.037363 38.157719 
L 9.021059 38.232938 
L 9.004756 38.304419 
L 8.988452 38.370685 
L 8.972149 38.430353 
L 8.955845 38.482155 
L 8.939542 38.524978 
L 8.923238 38.557887 
L 8.906935 38.580151 
L 8.890631 38.591264 
L 8.874328 38.590957 
L 8.858024 38.579199 
L 8.841721 38.556203 
L 8.825417 38.522411 
L 8.809113 38.478481 
L 8.79281 38.425261 
L 8.776506 38.363763 
L 8.760203 38.295127 
L 8.743899 38.220589 
L 8.727596 38.141443 
L 8.711292 38.059002 
L 8.694989 37.974563 
L 8.678685 37.889375 
L 8.662382 37.804612 
L 8.646078 37.721343 
L 8.629775 37.640519 
L 8.613471 37.562957 
L 8.597168 37.489334 
L 8.580864 37.42018 
L 8.56456 37.355886 
L 8.548257 37.296706 
L 8.531953 37.242771 
L 8.51565 37.194097 
L 8.499346 37.150603 
L 8.483043 37.112128 
L 8.466739 37.078439 
L 8.450436 37.049257 
L 8.434132 37.024262 
L 8.417829 37.003112 
L 8.401525 36.985454 
L 8.385222 36.97093 
L 8.368918 36.95919 
L 8.352615 36.949896 
L 8.336311 36.942726 
L 8.320008 36.937377 
L 8.303704 36.93357 
L 8.2874 36.931047 
L 8.271097 36.929575 
L 8.254793 36.928942 
L 8.23849 36.928957 
L 8.222186 36.929452 
L 8.205883 36.930275 
L 8.189579 36.931294 
L 8.173276 36.932395 
L 8.156972 36.933478 
L 8.140669 36.93446 
L 8.124365 36.935271 
L 8.108062 36.935855 
L 8.091758 36.93617 
L 8.075455 36.936185 
z
" clip-path="url(#p82fb57aa08)" style="fill: #8d3d2d; fill-opacity: 0.5"/>
   </g>
   <g id="FillBetweenPolyCollection_5">
    <path d="M 8.075455 46.498576 
L 8.075455 43.897424 
L 8.156972 43.695935 
L 8.23849 43.48113 
L 8.320008 43.256389 
L 8.401525 43.025949 
L 8.483043 42.794724 
L 8.56456 42.56804 
L 8.646078 42.35132 
L 8.727596 42.149759 
L 8.809113 41.968034 
L 8.890631 41.810089 
L 8.972149 41.679007 
L 9.053666 41.576994 
L 9.135184 41.505434 
L 9.216702 41.465008 
L 9.298219 41.4558 
L 9.379737 41.477389 
L 9.461255 41.528863 
L 9.542772 41.608772 
L 9.62429 41.715021 
L 9.705808 41.844741 
L 9.787325 41.994188 
L 9.868843 42.1587 
L 9.950361 42.332777 
L 10.031878 42.510268 
L 10.113396 42.684692 
L 10.194914 42.849649 
L 10.276431 42.999283 
L 10.357949 43.12875 
L 10.439467 43.234626 
L 10.520984 43.315211 
L 10.602502 43.370702 
L 10.68402 43.403186 
L 10.765537 43.416484 
L 10.847055 43.41583 
L 10.928573 43.407421 
L 11.01009 43.397893 
L 11.091608 43.393747 
L 11.173125 43.400804 
L 11.254643 43.423726 
L 11.336161 43.465668 
L 11.417678 43.528067 
L 11.499196 43.610618 
L 11.580714 43.711406 
L 11.662231 43.827185 
L 11.743749 43.953761 
L 11.825267 44.086431 
L 11.906784 44.220421 
L 11.988302 44.351284 
L 12.06982 44.47521 
L 12.151337 44.589236 
L 12.232855 44.691342 
L 12.314373 44.780448 
L 12.39589 44.856321 
L 12.477408 44.919432 
L 12.558926 44.970774 
L 12.640443 45.01168 
L 12.721961 45.043652 
L 12.803479 45.068222 
L 12.884996 45.08684 
L 12.966514 45.100805 
L 13.048032 45.111229 
L 13.129549 45.119019 
L 13.211067 45.12489 
L 13.292585 45.129384 
L 13.374102 45.132898 
L 13.45562 45.135714 
L 13.537137 45.138027 
L 13.618655 45.139969 
L 13.700173 45.14163 
L 13.78169 45.143074 
L 13.863208 45.14435 
L 13.944726 45.145496 
L 14.026243 45.146551 
L 14.107761 45.147548 
L 14.189279 45.148523 
L 14.270796 45.149508 
L 14.352314 45.150529 
L 14.433832 45.151611 
L 14.515349 45.152764 
L 14.596867 45.153994 
L 14.678385 45.155293 
L 14.759902 45.156641 
L 14.84142 45.158012 
L 14.922938 45.159373 
L 15.004455 45.160686 
L 15.085973 45.161917 
L 15.167491 45.163035 
L 15.249008 45.164018 
L 15.330526 45.164857 
L 15.412044 45.165554 
L 15.493561 45.166126 
L 15.575079 45.166604 
L 15.656597 45.167029 
L 15.738114 45.167452 
L 15.819632 45.167927 
L 15.90115 45.168508 
L 15.982667 45.169244 
L 16.064185 45.170174 
L 16.145702 45.171324 
L 16.145702 45.224676 
L 16.145702 45.224676 
L 16.064185 45.225826 
L 15.982667 45.226756 
L 15.90115 45.227492 
L 15.819632 45.228073 
L 15.738114 45.228548 
L 15.656597 45.228971 
L 15.575079 45.229396 
L 15.493561 45.229874 
L 15.412044 45.230446 
L 15.330526 45.231143 
L 15.249008 45.231982 
L 15.167491 45.232965 
L 15.085973 45.234083 
L 15.004455 45.235314 
L 14.922938 45.236627 
L 14.84142 45.237988 
L 14.759902 45.239359 
L 14.678385 45.240707 
L 14.596867 45.242006 
L 14.515349 45.243236 
L 14.433832 45.244389 
L 14.352314 45.245471 
L 14.270796 45.246492 
L 14.189279 45.247477 
L 14.107761 45.248452 
L 14.026243 45.249449 
L 13.944726 45.250504 
L 13.863208 45.25165 
L 13.78169 45.252926 
L 13.700173 45.25437 
L 13.618655 45.256031 
L 13.537137 45.257973 
L 13.45562 45.260286 
L 13.374102 45.263102 
L 13.292585 45.266616 
L 13.211067 45.27111 
L 13.129549 45.276981 
L 13.048032 45.284771 
L 12.966514 45.295195 
L 12.884996 45.30916 
L 12.803479 45.327778 
L 12.721961 45.352348 
L 12.640443 45.38432 
L 12.558926 45.425226 
L 12.477408 45.476568 
L 12.39589 45.539679 
L 12.314373 45.615552 
L 12.232855 45.704658 
L 12.151337 45.806764 
L 12.06982 45.92079 
L 11.988302 46.044716 
L 11.906784 46.175579 
L 11.825267 46.309569 
L 11.743749 46.442239 
L 11.662231 46.568815 
L 11.580714 46.684594 
L 11.499196 46.785382 
L 11.417678 46.867933 
L 11.336161 46.930332 
L 11.254643 46.972274 
L 11.173125 46.995196 
L 11.091608 47.002253 
L 11.01009 46.998107 
L 10.928573 46.988579 
L 10.847055 46.98017 
L 10.765537 46.979516 
L 10.68402 46.992814 
L 10.602502 47.025298 
L 10.520984 47.080789 
L 10.439467 47.161374 
L 10.357949 47.26725 
L 10.276431 47.396717 
L 10.194914 47.546351 
L 10.113396 47.711308 
L 10.031878 47.885732 
L 9.950361 48.063223 
L 9.868843 48.2373 
L 9.787325 48.401812 
L 9.705808 48.551259 
L 9.62429 48.680979 
L 9.542772 48.787228 
L 9.461255 48.867137 
L 9.379737 48.918611 
L 9.298219 48.9402 
L 9.216702 48.930992 
L 9.135184 48.890566 
L 9.053666 48.819006 
L 8.972149 48.716993 
L 8.890631 48.585911 
L 8.809113 48.427966 
L 8.727596 48.246241 
L 8.646078 48.04468 
L 8.56456 47.82796 
L 8.483043 47.601276 
L 8.401525 47.370051 
L 8.320008 47.139611 
L 8.23849 46.91487 
L 8.156972 46.700065 
L 8.075455 46.498576 
z
" clip-path="url(#p82fb57aa08)" style="fill: #e76f58; fill-opacity: 0.5"/>
   </g>
   <g id="FillBetweenPolyCollection_6">
    <path d="M 8.075455 54.893561 
L 8.075455 52.134439 
L 8.434132 51.974959 
L 8.79281 51.807788 
L 9.151488 51.634389 
L 9.510165 51.456518 
L 9.868843 51.2762 
L 10.227521 51.095694 
L 10.586198 50.917438 
L 10.944876 50.743993 
L 11.303554 50.577965 
L 11.662231 50.42193 
L 12.020909 50.278352 
L 12.379587 50.1495 
L 12.738264 50.037377 
L 13.096942 49.943648 
L 13.45562 49.869594 
L 13.814298 49.816069 
L 14.172975 49.783483 
L 14.531653 49.7718 
L 14.890331 49.780552 
L 15.249008 49.808877 
L 15.607686 49.855559 
L 15.966364 49.919089 
L 16.325041 49.997729 
L 16.683719 50.089577 
L 17.042397 50.192635 
L 17.401074 50.304873 
L 17.759752 50.424282 
L 18.11843 50.548927 
L 18.477107 50.676979 
L 18.835785 50.806749 
L 19.194463 50.936705 
L 19.55314 51.065478 
L 19.911818 51.191873 
L 20.270496 51.314859 
L 20.629174 51.433564 
L 20.987851 51.547265 
L 21.346529 51.655378 
L 21.705207 51.757445 
L 22.063884 51.853122 
L 22.422562 51.942172 
L 22.78124 52.024456 
L 23.139917 52.099923 
L 23.498595 52.168608 
L 23.857273 52.23062 
L 24.21595 52.286146 
L 24.574628 52.33544 
L 24.933306 52.378816 
L 25.291983 52.41665 
L 25.650661 52.449365 
L 26.009339 52.477432 
L 26.368017 52.501355 
L 26.726694 52.521665 
L 27.085372 52.538911 
L 27.44405 52.553648 
L 27.802727 52.566432 
L 28.161405 52.5778 
L 28.520083 52.588272 
L 28.87876 52.59833 
L 29.237438 52.608421 
L 29.596116 52.618941 
L 29.954793 52.630233 
L 30.313471 52.642586 
L 30.672149 52.656227 
L 31.030826 52.671323 
L 31.389504 52.687982 
L 31.748182 52.706258 
L 32.10686 52.726149 
L 32.465537 52.74761 
L 32.824215 52.77055 
L 33.182893 52.794848 
L 33.54157 52.820352 
L 33.900248 52.846889 
L 34.258926 52.874274 
L 34.617603 52.902312 
L 34.976281 52.930806 
L 35.334959 52.959562 
L 35.693636 52.988391 
L 36.052314 53.017115 
L 36.410992 53.045569 
L 36.769669 53.073601 
L 37.128347 53.101075 
L 37.487025 53.127872 
L 37.845702 53.153888 
L 38.20438 53.179036 
L 38.563058 53.203246 
L 38.921736 53.226461 
L 39.280413 53.248638 
L 39.639091 53.269749 
L 39.997769 53.289775 
L 40.356446 53.308711 
L 40.715124 53.32656 
L 41.073802 53.343332 
L 41.432479 53.359045 
L 41.791157 53.373724 
L 42.149835 53.387397 
L 42.508512 53.400096 
L 42.86719 53.411856 
L 43.225868 53.422714 
L 43.584545 53.43271 
L 43.584545 53.59529 
L 43.584545 53.59529 
L 43.225868 53.605286 
L 42.86719 53.616144 
L 42.508512 53.627904 
L 42.149835 53.640603 
L 41.791157 53.654276 
L 41.432479 53.668955 
L 41.073802 53.684668 
L 40.715124 53.70144 
L 40.356446 53.719289 
L 39.997769 53.738225 
L 39.639091 53.758251 
L 39.280413 53.779362 
L 38.921736 53.801539 
L 38.563058 53.824754 
L 38.20438 53.848964 
L 37.845702 53.874112 
L 37.487025 53.900128 
L 37.128347 53.926925 
L 36.769669 53.954399 
L 36.410992 53.982431 
L 36.052314 54.010885 
L 35.693636 54.039609 
L 35.334959 54.068438 
L 34.976281 54.097194 
L 34.617603 54.125688 
L 34.258926 54.153726 
L 33.900248 54.181111 
L 33.54157 54.207648 
L 33.182893 54.233152 
L 32.824215 54.25745 
L 32.465537 54.28039 
L 32.10686 54.301851 
L 31.748182 54.321742 
L 31.389504 54.340018 
L 31.030826 54.356677 
L 30.672149 54.371773 
L 30.313471 54.385414 
L 29.954793 54.397767 
L 29.596116 54.409059 
L 29.237438 54.419579 
L 28.87876 54.42967 
L 28.520083 54.439728 
L 28.161405 54.4502 
L 27.802727 54.461568 
L 27.44405 54.474352 
L 27.085372 54.489089 
L 26.726694 54.506335 
L 26.368017 54.526645 
L 26.009339 54.550568 
L 25.650661 54.578635 
L 25.291983 54.61135 
L 24.933306 54.649184 
L 24.574628 54.69256 
L 24.21595 54.741854 
L 23.857273 54.79738 
L 23.498595 54.859392 
L 23.139917 54.928077 
L 22.78124 55.003544 
L 22.422562 55.085828 
L 22.063884 55.174878 
L 21.705207 55.270555 
L 21.346529 55.372622 
L 20.987851 55.480735 
L 20.629174 55.594436 
L 20.270496 55.713141 
L 19.911818 55.836127 
L 19.55314 55.962522 
L 19.194463 56.091295 
L 18.835785 56.221251 
L 18.477107 56.351021 
L 18.11843 56.479073 
L 17.759752 56.603718 
L 17.401074 56.723127 
L 17.042397 56.835365 
L 16.683719 56.938423 
L 16.325041 57.030271 
L 15.966364 57.108911 
L 15.607686 57.172441 
L 15.249008 57.219123 
L 14.890331 57.247448 
L 14.531653 57.2562 
L 14.172975 57.244517 
L 13.814298 57.211931 
L 13.45562 57.158406 
L 13.096942 57.084352 
L 12.738264 56.990623 
L 12.379587 56.8785 
L 12.020909 56.749648 
L 11.662231 56.60607 
L 11.303554 56.450035 
L 10.944876 56.284007 
L 10.586198 56.110562 
L 10.227521 55.932306 
L 9.868843 55.7518 
L 9.510165 55.571482 
L 9.151488 55.393611 
L 8.79281 55.220212 
L 8.434132 55.053041 
L 8.075455 54.893561 
z
" clip-path="url(#p82fb57aa08)" style="fill: #126175; fill-opacity: 0.5"/>
   </g>
   <g id="matplotlib.axis_1">
    <g id="xtick_1">
     <g id="line2d_1">
      <defs>
       <path id="m21f585db19" d="M 0 0 
L 0 1.7 
" style="stroke: #000000; stroke-width: 0.25"/>
      </defs>
      <g>
       <use xlink:href="#m21f585db19" x="7.26843" y="58.672" style="stroke: #000000; stroke-width: 0.25"/>
      </g>
     </g>
     <g id="text_1">
      <text style="font-size: 6px; font-family: 'Arial'; text-anchor: middle" x="7.26843" y="66.166687" transform="rotate(-0 7.26843 66.166687)">0</text>
     </g>
    </g>
    <g id="xtick_2">
     <g id="line2d_2">
      <g>
       <use xlink:href="#m21f585db19" x="27.44405" y="58.672" style="stroke: #000000; stroke-width: 0.25"/>
      </g>
     </g>
     <g id="text_2">
      <text style="font-size: 6px; font-family: 'Arial'; text-anchor: middle" x="27.44405" y="66.166687" transform="rotate(-0 27.44405 66.166687)">25</text>
     </g>
    </g>
    <g id="text_3">
     <text style="font-size: 8px; font-family: 'Arial'; text-anchor: middle" x="25.83" y="74.585437" transform="rotate(-0 25.83 74.585437)"># MNs active</text>
    </g>
   </g>
   <g id="matplotlib.axis_2">
    <g id="ytick_1">
     <g id="line2d_3">
      <defs>
       <path id="m26593c14da" d="M 0 0 
L -1.7 0 
" style="stroke: #000000; stroke-width: 0.25"/>
      </defs>
      <g>
       <use xlink:href="#m26593c14da" x="4.3" y="11.934" style="stroke: #000000; stroke-width: 0.25"/>
      </g>
     </g>
     <g id="text_4">
      <text style="font-size: 6px; font-family: 'Arial'; text-anchor: end" x="1.1" y="14.081344" transform="rotate(-0 1.1 14.081344)">none</text>
     </g>
    </g>
    <g id="ytick_2">
     <g id="line2d_4">
      <g>
       <use xlink:href="#m26593c14da" x="4.3" y="20.25" style="stroke: #000000; stroke-width: 0.25"/>
      </g>
     </g>
     <g id="text_5">
      <text style="font-size: 6px; font-family: 'Arial'; text-anchor: end" x="1.1" y="22.397344" transform="rotate(-0 1.1 22.397344)">E1</text>
     </g>
    </g>
    <g id="ytick_3">
     <g id="line2d_5">
      <g>
       <use xlink:href="#m26593c14da" x="4.3" y="28.566" style="stroke: #000000; stroke-width: 0.25"/>
      </g>
     </g>
     <g id="text_6">
      <text style="font-size: 6px; font-family: 'Arial'; text-anchor: end" x="1.1" y="30.713344" transform="rotate(-0 1.1 30.713344)">E2</text>
     </g>
    </g>
    <g id="ytick_4">
     <g id="line2d_6">
      <g>
       <use xlink:href="#m26593c14da" x="4.3" y="36.882" style="stroke: #000000; stroke-width: 0.25"/>
      </g>
     </g>
     <g id="text_7">
      <text style="font-size: 6px; font-family: 'Arial'; text-anchor: end" x="1.1" y="39.029344" transform="rotate(-0 1.1 39.029344)">E3</text>
     </g>
    </g>
    <g id="ytick_5">
     <g id="line2d_7">
      <g>
       <use xlink:href="#m26593c14da" x="4.3" y="45.198" style="stroke: #000000; stroke-width: 0.25"/>
      </g>
     </g>
     <g id="text_8">
      <text style="font-size: 6px; font-family: 'Arial'; text-anchor: end" x="1.1" y="47.345344" transform="rotate(-0 1.1 47.345344)">E4</text>
     </g>
    </g>
    <g id="ytick_6">
     <g id="line2d_8">
      <g>
       <use xlink:href="#m26593c14da" x="4.3" y="53.514" style="stroke: #000000; stroke-width: 0.25"/>
      </g>
     </g>
     <g id="text_9">
      <text style="font-size: 6px; font-family: 'Arial'; text-anchor: end" x="1.1" y="55.661344" transform="rotate(-0 1.1 55.661344)">I2</text>
     </g>
    </g>
    <g id="text_10">
     <text style="font-size: 8px; font-family: 'Arial'; text-anchor: middle" x="-15.33625" y="32.724" transform="rotate(-90 -15.33625 32.724)">silenced neuron</text>
    </g>
   </g>
   <g id="patch_3">
    <path d="M 9.689504 11.1024 
L 9.689504 12.7656 
L 11.303554 12.7656 
L 11.303554 11.1024 
L 9.689504 11.1024 
z
" clip-path="url(#p82fb57aa08)" style="fill: #306c53; stroke: #282828; stroke-width: 0.75; stroke-linejoin: miter"/>
   </g>
   <g id="line2d_9">
    <path d="M 9.689504 11.934 
L 8.075455 11.934 
" clip-path="url(#p82fb57aa08)" style="fill: none; stroke: #282828; stroke-width: 0.75"/>
   </g>
   <g id="line2d_10">
    <path d="M 11.303554 11.934 
L 13.724628 11.934 
" clip-path="url(#p82fb57aa08)" style="fill: none; stroke: #282828; stroke-width: 0.75"/>
   </g>
   <g id="line2d_11">
    <path d="M 8.075455 11.5182 
L 8.075455 12.3498 
" clip-path="url(#p82fb57aa08)" style="fill: none; stroke: #282828; stroke-width: 0.75; stroke-linecap: square"/>
   </g>
   <g id="line2d_12">
    <path d="M 13.724628 11.5182 
L 13.724628 12.3498 
" clip-path="url(#p82fb57aa08)" style="fill: none; stroke: #282828; stroke-width: 0.75; stroke-linecap: square"/>
   </g>
   <g id="patch_4">
    <path d="M 8.882479 19.4184 
L 8.882479 21.0816 
L 12.110579 21.0816 
L 12.110579 19.4184 
L 8.882479 19.4184 
z
" clip-path="url(#p82fb57aa08)" style="fill: #c35843; stroke: #282828; stroke-width: 0.75; stroke-linejoin: miter"/>
   </g>
   <g id="line2d_13">
    <path d="M 8.882479 20.25 
L 8.075455 20.25 
" clip-path="url(#p82fb57aa08)" style="fill: none; stroke: #282828; stroke-width: 0.75"/>
   </g>
   <g id="line2d_14">
    <path d="M 12.110579 20.25 
L 16.952727 20.25 
" clip-path="url(#p82fb57aa08)" style="fill: none; stroke: #282828; stroke-width: 0.75"/>
   </g>
   <g id="line2d_15">
    <path d="M 8.075455 19.8342 
L 8.075455 20.6658 
" clip-path="url(#p82fb57aa08)" style="fill: none; stroke: #282828; stroke-width: 0.75; stroke-linecap: square"/>
   </g>
   <g id="line2d_16">
    <path d="M 16.952727 19.8342 
L 16.952727 20.6658 
" clip-path="url(#p82fb57aa08)" style="fill: none; stroke: #282828; stroke-width: 0.75; stroke-linecap: square"/>
   </g>
   <g id="patch_5">
    <path d="M 8.075455 27.7344 
L 8.075455 29.3976 
L 8.882479 29.3976 
L 8.882479 27.7344 
L 8.075455 27.7344 
z
" clip-path="url(#p82fb57aa08)" style="fill: #f0a394; stroke: #282828; stroke-width: 0.75; stroke-linejoin: miter"/>
   </g>
   <g id="line2d_17">
    <path d="M 8.075455 28.566 
L 8.075455 28.566 
" clip-path="url(#p82fb57aa08)" style="fill: none; stroke: #282828; stroke-width: 0.75"/>
   </g>
   <g id="line2d_18">
    <path d="M 8.882479 28.566 
L 9.689504 28.566 
" clip-path="url(#p82fb57aa08)" style="fill: none; stroke: #282828; stroke-width: 0.75"/>
   </g>
   <g id="line2d_19">
    <path d="M 8.075455 28.1502 
L 8.075455 28.9818 
" clip-path="url(#p82fb57aa08)" style="fill: none; stroke: #282828; stroke-width: 0.75; stroke-linecap: square"/>
   </g>
   <g id="line2d_20">
    <path d="M 9.689504 28.1502 
L 9.689504 28.9818 
" clip-path="url(#p82fb57aa08)" style="fill: none; stroke: #282828; stroke-width: 0.75; stroke-linecap: square"/>
   </g>
   <g id="patch_6">
    <path d="M 8.882479 36.0504 
L 8.882479 37.7136 
L 9.689504 37.7136 
L 9.689504 36.0504 
L 8.882479 36.0504 
z
" clip-path="url(#p82fb57aa08)" style="fill: #8d3d2d; stroke: #282828; stroke-width: 0.75; stroke-linejoin: miter"/>
   </g>
   <g id="line2d_21">
    <path d="M 8.882479 36.882 
L 8.075455 36.882 
" clip-path="url(#p82fb57aa08)" style="fill: none; stroke: #282828; stroke-width: 0.75"/>
   </g>
   <g id="line2d_22">
    <path d="M 9.689504 36.882 
L 9.689504 36.882 
" clip-path="url(#p82fb57aa08)" style="fill: none; stroke: #282828; stroke-width: 0.75"/>
   </g>
   <g id="line2d_23">
    <path d="M 8.075455 36.4662 
L 8.075455 37.2978 
" clip-path="url(#p82fb57aa08)" style="fill: none; stroke: #282828; stroke-width: 0.75; stroke-linecap: square"/>
   </g>
   <g id="line2d_24">
    <path d="M 9.689504 36.4662 
L 9.689504 37.2978 
" clip-path="url(#p82fb57aa08)" style="fill: none; stroke: #282828; stroke-width: 0.75; stroke-linecap: square"/>
   </g>
   <g id="patch_7">
    <path d="M 8.882479 44.3664 
L 8.882479 46.0296 
L 10.496529 46.0296 
L 10.496529 44.3664 
L 8.882479 44.3664 
z
" clip-path="url(#p82fb57aa08)" style="fill: #e76f58; stroke: #282828; stroke-width: 0.75; stroke-linejoin: miter"/>
   </g>
   <g id="line2d_25">
    <path d="M 8.882479 45.198 
L 8.075455 45.198 
" clip-path="url(#p82fb57aa08)" style="fill: none; stroke: #282828; stroke-width: 0.75"/>
   </g>
   <g id="line2d_26">
    <path d="M 10.496529 45.198 
L 12.917603 45.198 
" clip-path="url(#p82fb57aa08)" style="fill: none; stroke: #282828; stroke-width: 0.75"/>
   </g>
   <g id="line2d_27">
    <path d="M 8.075455 44.7822 
L 8.075455 45.6138 
" clip-path="url(#p82fb57aa08)" style="fill: none; stroke: #282828; stroke-width: 0.75; stroke-linecap: square"/>
   </g>
   <g id="line2d_28">
    <path d="M 12.917603 44.7822 
L 12.917603 45.6138 
" clip-path="url(#p82fb57aa08)" style="fill: none; stroke: #282828; stroke-width: 0.75; stroke-linecap: square"/>
   </g>
   <g id="patch_8">
    <path d="M 13.724628 52.6824 
L 13.724628 54.3456 
L 20.987851 54.3456 
L 20.987851 52.6824 
L 13.724628 52.6824 
z
" clip-path="url(#p82fb57aa08)" style="fill: #126175; stroke: #282828; stroke-width: 0.75; stroke-linejoin: miter"/>
   </g>
   <g id="line2d_29">
    <path d="M 13.724628 53.514 
L 8.075455 53.514 
" clip-path="url(#p82fb57aa08)" style="fill: none; stroke: #282828; stroke-width: 0.75"/>
   </g>
   <g id="line2d_30">
    <path d="M 20.987851 53.514 
L 31.479174 53.514 
" clip-path="url(#p82fb57aa08)" style="fill: none; stroke: #282828; stroke-width: 0.75"/>
   </g>
   <g id="line2d_31">
    <path d="M 8.075455 53.0982 
L 8.075455 53.9298 
" clip-path="url(#p82fb57aa08)" style="fill: none; stroke: #282828; stroke-width: 0.75; stroke-linecap: square"/>
   </g>
   <g id="line2d_32">
    <path d="M 31.479174 53.0982 
L 31.479174 53.9298 
" clip-path="url(#p82fb57aa08)" style="fill: none; stroke: #282828; stroke-width: 0.75; stroke-linecap: square"/>
   </g>
   <g id="line2d_33">
    <path d="M 10.496529 11.1024 
L 10.496529 12.7656 
" clip-path="url(#p82fb57aa08)" style="fill: none; stroke: #282828; stroke-width: 0.75"/>
   </g>
   <g id="line2d_34">
    <path d="M 10.496529 19.4184 
L 10.496529 21.0816 
" clip-path="url(#p82fb57aa08)" style="fill: none; stroke: #282828; stroke-width: 0.75"/>
   </g>
   <g id="line2d_35">
    <path d="M 8.882479 27.7344 
L 8.882479 29.3976 
" clip-path="url(#p82fb57aa08)" style="fill: none; stroke: #282828; stroke-width: 0.75"/>
   </g>
   <g id="line2d_36">
    <path d="M 9.689504 36.0504 
L 9.689504 37.7136 
" clip-path="url(#p82fb57aa08)" style="fill: none; stroke: #282828; stroke-width: 0.75"/>
   </g>
   <g id="line2d_37">
    <path d="M 9.689504 44.3664 
L 9.689504 46.0296 
" clip-path="url(#p82fb57aa08)" style="fill: none; stroke: #282828; stroke-width: 0.75"/>
   </g>
   <g id="line2d_38">
    <path d="M 15.338678 52.6824 
L 15.338678 54.3456 
" clip-path="url(#p82fb57aa08)" style="fill: none; stroke: #282828; stroke-width: 0.75"/>
   </g>
   <g id="patch_9">
    <path d="M 4.3 57.672 
L 4.3 7.776 
" style="fill: none; stroke: #000000; stroke-width: 0.25; stroke-linejoin: miter; stroke-linecap: square"/>
   </g>
   <g id="patch_10">
    <path d="M 6.3 58.672 
L 45.36 58.672 
" style="fill: none; stroke: #000000; stroke-width: 0.25; stroke-linejoin: miter; stroke-linecap: square"/>
   </g>
  </g>
 </g>
 <defs>
  <clipPath id="p82fb57aa08">
   <rect x="6.3" y="7.776" width="39.06" height="49.896"/>
  </clipPath>
 </defs>
</svg>
