<?xml version="1.0" encoding="utf-8" standalone="no"?>
<!DOCTYPE svg PUBLIC "-//W3C//DTD SVG 1.1//EN"
  "http://www.w3.org/Graphics/SVG/1.1/DTD/svg11.dtd">
<svg xmlns:xlink="http://www.w3.org/1999/xlink" width="72pt" height="50.4pt" viewBox="0 0 72 50.4" xmlns="http://www.w3.org/2000/svg" version="1.1">
 <metadata>
  <rdf:RDF xmlns:dc="http://purl.org/dc/elements/1.1/" xmlns:cc="http://creativecommons.org/ns#" xmlns:rdf="http://www.w3.org/1999/02/22-rdf-syntax-ns#">
   <cc:Work>
    <dc:type rdf:resource="http://purl.org/dc/dcmitype/StillImage"/>
    <dc:date>2025-09-05T12:11:20.364535</dc:date>
    <dc:format>image/svg+xml</dc:format>
    <dc:creator>
     <cc:Agent>
      <dc:title>Matplotlib v3.10.3, https://matplotlib.org/</dc:title>
     </cc:Agent>
    </dc:creator>
   </cc:Work>
  </rdf:RDF>
 </metadata>
 <defs>
  <style type="text/css">*{stroke-linejoin: round; stroke-linecap: butt}</style>
 </defs>
 <g id="figure_1">
  <g id="patch_1">
   <path d="M 0 50.4 
L 72 50.4 
L 72 0 
L 0 0 
L 0 50.4 
z
" style="fill: none"/>
  </g>
  <g id="axes_1">
   <g id="patch_2">
    <path d="M 9 44.856 
L 64.8 44.856 
L 64.8 6.048 
L 9 6.048 
L 9 44.856 
z
" style="fill: none"/>
   </g>
   <g id="FillBetweenPolyCollection_1">
    <path d="M 11.536364 9.883754 
L 11.536364 8.680246 
L 11.687754 8.623097 
L 11.839144 8.56776 
L 11.990533 8.51388 
L 12.141923 8.460708 
L 12.293313 8.407166 
L 12.444703 8.351924 
L 12.596093 8.293468 
L 12.747483 8.230176 
L 12.898873 8.160382 
L 13.050263 8.082468 
L 13.201653 7.994963 
L 13.353043 7.896682 
L 13.504433 7.786894 
L 13.655823 7.6655 
L 13.807213 7.53322 
L 13.958603 7.391735 
L 14.109992 7.243762 
L 14.261382 7.093025 
L 14.412772 6.944095 
L 14.564162 6.802122 
L 14.715552 6.672485 
L 14.866942 6.560415 
L 15.018332 6.470669 
L 15.169722 6.407282 
L 15.321112 6.373436 
L 15.472502 6.3714 
L 15.623892 6.402515 
L 15.775282 6.467158 
L 15.926672 6.564655 
L 16.078062 6.693149 
L 16.229452 6.849477 
L 16.380841 7.029123 
L 16.532231 7.226316 
L 16.683621 7.43432 
L 16.835011 7.645901 
L 16.986401 7.85391 
L 17.137791 8.051878 
L 17.289181 8.234537 
L 17.440571 8.398158 
L 17.591961 8.540683 
L 17.743351 8.661647 
L 17.894741 8.761923 
L 18.046131 8.843374 
L 18.197521 8.908469 
L 18.348911 8.959931 
L 18.500301 9.00045 
L 18.65169 9.032488 
L 18.80308 9.05817 
L 18.95447 9.079234 
L 19.10586 9.097048 
L 19.25725 9.112639 
L 19.40864 9.126747 
L 19.56003 9.139867 
L 19.71142 9.152299 
L 19.86281 9.164184 
L 20.0142 9.175541 
L 20.16559 9.186305 
L 20.31698 9.196356 
L 20.46837 9.205564 
L 20.61976 9.213809 
L 20.77115 9.221017 
L 20.922539 9.22717 
L 21.073929 9.232314 
L 21.225319 9.236552 
L 21.376709 9.240037 
L 21.528099 9.242945 
L 21.679489 9.24546 
L 21.830879 9.24775 
L 21.982269 9.249955 
L 22.133659 9.252173 
L 22.285049 9.254456 
L 22.436439 9.25682 
L 22.587829 9.259243 
L 22.739219 9.261682 
L 22.890609 9.26408 
L 23.041998 9.266378 
L 23.193388 9.268519 
L 23.344778 9.270457 
L 23.496168 9.272154 
L 23.647558 9.273585 
L 23.798948 9.274735 
L 23.950338 9.275599 
L 24.101728 9.276184 
L 24.253118 9.276506 
L 24.404508 9.276589 
L 24.555898 9.276469 
L 24.707288 9.276186 
L 24.858678 9.275789 
L 25.010068 9.275323 
L 25.161458 9.274837 
L 25.312847 9.274374 
L 25.464237 9.273971 
L 25.615627 9.273657 
L 25.767017 9.273454 
L 25.918407 9.273378 
L 26.069797 9.273437 
L 26.221187 9.273631 
L 26.372577 9.273958 
L 26.523967 9.274407 
L 26.523967 9.289593 
L 26.523967 9.289593 
L 26.372577 9.290042 
L 26.221187 9.290369 
L 26.069797 9.290563 
L 25.918407 9.290622 
L 25.767017 9.290546 
L 25.615627 9.290343 
L 25.464237 9.290029 
L 25.312847 9.289626 
L 25.161458 9.289163 
L 25.010068 9.288677 
L 24.858678 9.288211 
L 24.707288 9.287814 
L 24.555898 9.287531 
L 24.404508 9.287411 
L 24.253118 9.287494 
L 24.101728 9.287816 
L 23.950338 9.288401 
L 23.798948 9.289265 
L 23.647558 9.290415 
L 23.496168 9.291846 
L 23.344778 9.293543 
L 23.193388 9.295481 
L 23.041998 9.297622 
L 22.890609 9.29992 
L 22.739219 9.302318 
L 22.587829 9.304757 
L 22.436439 9.30718 
L 22.285049 9.309544 
L 22.133659 9.311827 
L 21.982269 9.314045 
L 21.830879 9.31625 
L 21.679489 9.31854 
L 21.528099 9.321055 
L 21.376709 9.323963 
L 21.225319 9.327448 
L 21.073929 9.331686 
L 20.922539 9.33683 
L 20.77115 9.342983 
L 20.61976 9.350191 
L 20.46837 9.358436 
L 20.31698 9.367644 
L 20.16559 9.377695 
L 20.0142 9.388459 
L 19.86281 9.399816 
L 19.71142 9.411701 
L 19.56003 9.424133 
L 19.40864 9.437253 
L 19.25725 9.451361 
L 19.10586 9.466952 
L 18.95447 9.484766 
L 18.80308 9.50583 
L 18.65169 9.531512 
L 18.500301 9.56355 
L 18.348911 9.604069 
L 18.197521 9.655531 
L 18.046131 9.720626 
L 17.894741 9.802077 
L 17.743351 9.902353 
L 17.591961 10.023317 
L 17.440571 10.165842 
L 17.289181 10.329463 
L 17.137791 10.512122 
L 16.986401 10.71009 
L 16.835011 10.918099 
L 16.683621 11.12968 
L 16.532231 11.337684 
L 16.380841 11.534877 
L 16.229452 11.714523 
L 16.078062 11.870851 
L 15.926672 11.999345 
L 15.775282 12.096842 
L 15.623892 12.161485 
L 15.472502 12.1926 
L 15.321112 12.190564 
L 15.169722 12.156718 
L 15.018332 12.093331 
L 14.866942 12.003585 
L 14.715552 11.891515 
L 14.564162 11.761878 
L 14.412772 11.619905 
L 14.261382 11.470975 
L 14.109992 11.320238 
L 13.958603 11.172265 
L 13.807213 11.03078 
L 13.655823 10.8985 
L 13.504433 10.777106 
L 13.353043 10.667318 
L 13.201653 10.569037 
L 13.050263 10.481532 
L 12.898873 10.403618 
L 12.747483 10.333824 
L 12.596093 10.270532 
L 12.444703 10.212076 
L 12.293313 10.156834 
L 12.141923 10.103292 
L 11.990533 10.05012 
L 11.839144 9.99624 
L 11.687754 9.940903 
L 11.536364 9.883754 
z
" clip-path="url(#p50b0a09bc0)" style="fill: #306c53"/>
   </g>
   <g id="FillBetweenPolyCollection_2">
    <path d="M 11.536364 18.021973 
L 11.536364 13.478027 
L 11.990533 13.287323 
L 12.444703 13.126692 
L 12.898873 13.00051 
L 13.353043 12.910894 
L 13.807213 12.857802 
L 14.261382 12.8394 
L 14.715552 12.85262 
L 15.169722 12.893782 
L 15.623892 12.959167 
L 16.078062 13.045436 
L 16.532231 13.149848 
L 16.986401 13.270255 
L 17.440571 13.404931 
L 17.894741 13.552294 
L 18.348911 13.710614 
L 18.80308 13.87777 
L 19.25725 14.051136 
L 19.71142 14.227587 
L 20.16559 14.403636 
L 20.61976 14.575668 
L 21.073929 14.740208 
L 21.528099 14.89419 
L 21.982269 15.035169 
L 22.436439 15.161461 
L 22.890609 15.272185 
L 23.344778 15.367235 
L 23.798948 15.447168 
L 24.253118 15.513063 
L 24.707288 15.566351 
L 25.161458 15.608659 
L 25.615627 15.64166 
L 26.069797 15.666971 
L 26.523967 15.686065 
L 26.978137 15.700229 
L 27.432307 15.710545 
L 27.886476 15.717892 
L 28.340646 15.722963 
L 28.794816 15.726292 
L 29.248986 15.728283 
L 29.703156 15.729239 
L 30.157325 15.729393 
L 30.611495 15.728925 
L 31.065665 15.727986 
L 31.519835 15.726705 
L 31.974005 15.7252 
L 32.428174 15.723582 
L 32.882344 15.721951 
L 33.336514 15.720399 
L 33.790684 15.719004 
L 34.244853 15.717829 
L 34.699023 15.71692 
L 35.153193 15.716303 
L 35.607363 15.71599 
L 36.061533 15.715975 
L 36.515702 15.716243 
L 36.969872 15.716764 
L 37.424042 15.717502 
L 37.878212 15.718413 
L 38.332382 15.719442 
L 38.786551 15.720531 
L 39.240721 15.721612 
L 39.694891 15.722616 
L 40.149061 15.723476 
L 40.603231 15.724129 
L 41.0574 15.724523 
L 41.51157 15.724621 
L 41.96574 15.724406 
L 42.41991 15.723882 
L 42.87408 15.723068 
L 43.328249 15.722003 
L 43.782419 15.720736 
L 44.236589 15.719323 
L 44.690759 15.717826 
L 45.144929 15.716307 
L 45.599098 15.714828 
L 46.053268 15.713451 
L 46.507438 15.712238 
L 46.961608 15.711247 
L 47.415778 15.71053 
L 47.869947 15.710133 
L 48.324117 15.710086 
L 48.778287 15.710398 
L 49.232457 15.711059 
L 49.686627 15.712031 
L 50.140796 15.713259 
L 50.594966 15.714672 
L 51.049136 15.716191 
L 51.503306 15.717744 
L 51.957476 15.719271 
L 52.411645 15.720733 
L 52.865815 15.722115 
L 53.319985 15.723425 
L 53.774155 15.724694 
L 54.228325 15.725961 
L 54.682494 15.72727 
L 55.136664 15.728658 
L 55.590834 15.730151 
L 56.045004 15.731757 
L 56.499174 15.733464 
L 56.499174 15.766536 
L 56.499174 15.766536 
L 56.045004 15.768243 
L 55.590834 15.769849 
L 55.136664 15.771342 
L 54.682494 15.77273 
L 54.228325 15.774039 
L 53.774155 15.775306 
L 53.319985 15.776575 
L 52.865815 15.777885 
L 52.411645 15.779267 
L 51.957476 15.780729 
L 51.503306 15.782256 
L 51.049136 15.783809 
L 50.594966 15.785328 
L 50.140796 15.786741 
L 49.686627 15.787969 
L 49.232457 15.788941 
L 48.778287 15.789602 
L 48.324117 15.789914 
L 47.869947 15.789867 
L 47.415778 15.78947 
L 46.961608 15.788753 
L 46.507438 15.787762 
L 46.053268 15.786549 
L 45.599098 15.785172 
L 45.144929 15.783693 
L 44.690759 15.782174 
L 44.236589 15.780677 
L 43.782419 15.779264 
L 43.328249 15.777997 
L 42.87408 15.776932 
L 42.41991 15.776118 
L 41.96574 15.775594 
L 41.51157 15.775379 
L 41.0574 15.775477 
L 40.603231 15.775871 
L 40.149061 15.776524 
L 39.694891 15.777384 
L 39.240721 15.778388 
L 38.786551 15.779469 
L 38.332382 15.780558 
L 37.878212 15.781587 
L 37.424042 15.782498 
L 36.969872 15.783236 
L 36.515702 15.783757 
L 36.061533 15.784025 
L 35.607363 15.78401 
L 35.153193 15.783697 
L 34.699023 15.78308 
L 34.244853 15.782171 
L 33.790684 15.780996 
L 33.336514 15.779601 
L 32.882344 15.778049 
L 32.428174 15.776418 
L 31.974005 15.7748 
L 31.519835 15.773295 
L 31.065665 15.772014 
L 30.611495 15.771075 
L 30.157325 15.770607 
L 29.703156 15.770761 
L 29.248986 15.771717 
L 28.794816 15.773708 
L 28.340646 15.777037 
L 27.886476 15.782108 
L 27.432307 15.789455 
L 26.978137 15.799771 
L 26.523967 15.813935 
L 26.069797 15.833029 
L 25.615627 15.85834 
L 25.161458 15.891341 
L 24.707288 15.933649 
L 24.253118 15.986937 
L 23.798948 16.052832 
L 23.344778 16.132765 
L 22.890609 16.227815 
L 22.436439 16.338539 
L 21.982269 16.464831 
L 21.528099 16.60581 
L 21.073929 16.759792 
L 20.61976 16.924332 
L 20.16559 17.096364 
L 19.71142 17.272413 
L 19.25725 17.448864 
L 18.80308 17.62223 
L 18.348911 17.789386 
L 17.894741 17.947706 
L 17.440571 18.095069 
L 16.986401 18.229745 
L 16.532231 18.350152 
L 16.078062 18.454564 
L 15.623892 18.540833 
L 15.169722 18.606218 
L 14.715552 18.64738 
L 14.261382 18.6606 
L 13.807213 18.642198 
L 13.353043 18.589106 
L 12.898873 18.49949 
L 12.444703 18.373308 
L 11.990533 18.212677 
L 11.536364 18.021973 
z
" clip-path="url(#p50b0a09bc0)" style="fill: #c35843"/>
   </g>
   <g id="FillBetweenPolyCollection_3">
    <path d="M 11.536364 24.796921 
L 11.536364 19.639079 
L 11.850789 19.41584 
L 12.165214 19.3074 
L 12.479639 19.325822 
L 12.794065 19.466723 
L 13.10849 19.710307 
L 13.422915 20.025519 
L 13.73734 20.376248 
L 14.051766 20.727925 
L 14.366191 21.052856 
L 14.680616 21.333161 
L 14.995041 21.561037 
L 15.309467 21.736926 
L 15.623892 21.866631 
L 15.938317 21.958413 
L 16.252742 22.020798 
L 16.567168 22.061295 
L 16.881593 22.085922 
L 17.196018 22.099243 
L 17.510443 22.104638 
L 17.824869 22.10462 
L 18.139294 22.101118 
L 18.453719 22.095679 
L 18.768144 22.08959 
L 19.082569 22.083923 
L 19.396995 22.079512 
L 19.71142 22.076912 
L 20.025845 22.076376 
L 20.34027 22.077882 
L 20.654696 22.081219 
L 20.969121 22.086101 
L 21.283546 22.092271 
L 21.597971 22.099547 
L 21.912397 22.107818 
L 22.226822 22.116987 
L 22.541247 22.126906 
L 22.855672 22.137335 
L 23.170098 22.14794 
L 23.484523 22.158324 
L 23.798948 22.168085 
L 24.113373 22.176876 
L 24.427799 22.18445 
L 24.742224 22.190678 
L 25.056649 22.19555 
L 25.371074 22.19916 
L 25.6855 22.201678 
L 25.999925 22.203327 
L 26.31435 22.204357 
L 26.628775 22.205022 
L 26.943201 22.205559 
L 27.257626 22.206165 
L 27.572051 22.206972 
L 27.886476 22.208037 
L 28.200902 22.209339 
L 28.515327 22.210795 
L 28.829752 22.212286 
L 29.144177 22.213694 
L 29.458603 22.214922 
L 29.773028 22.215917 
L 30.087453 22.216666 
L 30.401878 22.217193 
L 30.716304 22.217539 
L 31.030729 22.217752 
L 31.345154 22.217874 
L 31.659579 22.21794 
L 31.974005 22.217973 
L 32.28843 22.217988 
L 32.602855 22.217995 
L 32.91728 22.217998 
L 33.231705 22.217999 
L 33.546131 22.218 
L 33.860556 22.218 
L 34.174981 22.218 
L 34.489406 22.218 
L 34.803832 22.218 
L 35.118257 22.218 
L 35.432682 22.218 
L 35.747107 22.218 
L 36.061533 22.218 
L 36.375958 22.218 
L 36.690383 22.218 
L 37.004808 22.218 
L 37.319234 22.217999 
L 37.633659 22.217998 
L 37.948084 22.217996 
L 38.262509 22.21799 
L 38.576935 22.217977 
L 38.89136 22.217951 
L 39.205785 22.217903 
L 39.52021 22.217818 
L 39.834636 22.217679 
L 40.149061 22.217465 
L 40.463486 22.217161 
L 40.777911 22.21676 
L 41.092337 22.216276 
L 41.406762 22.215741 
L 41.721187 22.215213 
L 42.035612 22.214762 
L 42.350038 22.214458 
L 42.664463 22.21435 
L 42.664463 22.22165 
L 42.664463 22.22165 
L 42.350038 22.221542 
L 42.035612 22.221238 
L 41.721187 22.220787 
L 41.406762 22.220259 
L 41.092337 22.219724 
L 40.777911 22.21924 
L 40.463486 22.218839 
L 40.149061 22.218535 
L 39.834636 22.218321 
L 39.52021 22.218182 
L 39.205785 22.218097 
L 38.89136 22.218049 
L 38.576935 22.218023 
L 38.262509 22.21801 
L 37.948084 22.218004 
L 37.633659 22.218002 
L 37.319234 22.218001 
L 37.004808 22.218 
L 36.690383 22.218 
L 36.375958 22.218 
L 36.061533 22.218 
L 35.747107 22.218 
L 35.432682 22.218 
L 35.118257 22.218 
L 34.803832 22.218 
L 34.489406 22.218 
L 34.174981 22.218 
L 33.860556 22.218 
L 33.546131 22.218 
L 33.231705 22.218001 
L 32.91728 22.218002 
L 32.602855 22.218005 
L 32.28843 22.218012 
L 31.974005 22.218027 
L 31.659579 22.21806 
L 31.345154 22.218126 
L 31.030729 22.218248 
L 30.716304 22.218461 
L 30.401878 22.218807 
L 30.087453 22.219334 
L 29.773028 22.220083 
L 29.458603 22.221078 
L 29.144177 22.222306 
L 28.829752 22.223714 
L 28.515327 22.225205 
L 28.200902 22.226661 
L 27.886476 22.227963 
L 27.572051 22.229028 
L 27.257626 22.229835 
L 26.943201 22.230441 
L 26.628775 22.230978 
L 26.31435 22.231643 
L 25.999925 22.232673 
L 25.6855 22.234322 
L 25.371074 22.23684 
L 25.056649 22.24045 
L 24.742224 22.245322 
L 24.427799 22.25155 
L 24.113373 22.259124 
L 23.798948 22.267915 
L 23.484523 22.277676 
L 23.170098 22.28806 
L 22.855672 22.298665 
L 22.541247 22.309094 
L 22.226822 22.319013 
L 21.912397 22.328182 
L 21.597971 22.336453 
L 21.283546 22.343729 
L 20.969121 22.349899 
L 20.654696 22.354781 
L 20.34027 22.358118 
L 20.025845 22.359624 
L 19.71142 22.359088 
L 19.396995 22.356488 
L 19.082569 22.352077 
L 18.768144 22.34641 
L 18.453719 22.340321 
L 18.139294 22.334882 
L 17.824869 22.33138 
L 17.510443 22.331362 
L 17.196018 22.336757 
L 16.881593 22.350078 
L 16.567168 22.374705 
L 16.252742 22.415202 
L 15.938317 22.477587 
L 15.623892 22.569369 
L 15.309467 22.699074 
L 14.995041 22.874963 
L 14.680616 23.102839 
L 14.366191 23.383144 
L 14.051766 23.708075 
L 13.73734 24.059752 
L 13.422915 24.410481 
L 13.10849 24.725693 
L 12.794065 24.969277 
L 12.479639 25.110178 
L 12.165214 25.1286 
L 11.850789 25.02016 
L 11.536364 24.796921 
z
" clip-path="url(#p50b0a09bc0)" style="fill: #f0a394"/>
   </g>
   <g id="FillBetweenPolyCollection_4">
    <path d="M 11.536364 28.728144 
L 11.536364 28.643856 
L 11.559654 28.643868 
L 11.582945 28.644113 
L 11.606236 28.644567 
L 11.629527 28.645198 
L 11.652817 28.645961 
L 11.676108 28.646804 
L 11.699399 28.64766 
L 11.72269 28.648453 
L 11.74598 28.649093 
L 11.769271 28.649478 
L 11.792562 28.64949 
L 11.815853 28.648997 
L 11.839144 28.647852 
L 11.862434 28.64589 
L 11.885725 28.642929 
L 11.909016 28.638769 
L 11.932307 28.633192 
L 11.955597 28.625963 
L 11.978888 28.616832 
L 12.002179 28.605536 
L 12.02547 28.591802 
L 12.04876 28.575352 
L 12.072051 28.555911 
L 12.095342 28.533214 
L 12.118633 28.507012 
L 12.141923 28.477086 
L 12.165214 28.443258 
L 12.188505 28.405401 
L 12.211796 28.363451 
L 12.235086 28.317422 
L 12.258377 28.267415 
L 12.281668 28.213629 
L 12.304959 28.156366 
L 12.328249 28.096041 
L 12.35154 28.033178 
L 12.374831 27.968413 
L 12.398122 27.902486 
L 12.421412 27.836229 
L 12.444703 27.770554 
L 12.467994 27.706433 
L 12.491285 27.644875 
L 12.514576 27.586902 
L 12.537866 27.533518 
L 12.561157 27.485686 
L 12.584448 27.444292 
L 12.607739 27.410124 
L 12.631029 27.383842 
L 12.65432 27.365957 
L 12.677611 27.356812 
L 12.700902 27.356572 
L 12.724192 27.365216 
L 12.747483 27.382533 
L 12.770774 27.408128 
L 12.794065 27.441435 
L 12.817355 27.481725 
L 12.840646 27.528134 
L 12.863937 27.579674 
L 12.887228 27.63527 
L 12.910518 27.693774 
L 12.933809 27.753996 
L 12.9571 27.814725 
L 12.980391 27.874754 
L 13.003681 27.932895 
L 13.026972 27.987997 
L 13.050263 28.038958 
L 13.073554 28.084735 
L 13.096844 28.124348 
L 13.120135 28.156888 
L 13.143426 28.181516 
L 13.166717 28.197469 
L 13.190008 28.204056 
L 13.213298 28.200666 
L 13.236589 28.186771 
L 13.25988 28.161932 
L 13.283171 28.125809 
L 13.306461 28.078173 
L 13.329752 28.018922 
L 13.353043 27.948095 
L 13.376334 27.865893 
L 13.399624 27.772695 
L 13.422915 27.669075 
L 13.446206 27.55582 
L 13.469497 27.433934 
L 13.492787 27.304652 
L 13.516078 27.169431 
L 13.539369 27.029945 
L 13.56266 26.888064 
L 13.58595 26.745832 
L 13.609241 26.605427 
L 13.632532 26.469119 
L 13.655823 26.339219 
L 13.679113 26.218023 
L 13.702404 26.10775 
L 13.725695 26.010485 
L 13.748986 25.928113 
L 13.772276 25.862266 
L 13.795567 25.814272 
L 13.818858 25.785115 
L 13.842149 25.7754 
L 13.842149 31.5966 
L 13.842149 31.5966 
L 13.818858 31.586885 
L 13.795567 31.557728 
L 13.772276 31.509734 
L 13.748986 31.443887 
L 13.725695 31.361515 
L 13.702404 31.26425 
L 13.679113 31.153977 
L 13.655823 31.032781 
L 13.632532 30.902881 
L 13.609241 30.766573 
L 13.58595 30.626168 
L 13.56266 30.483936 
L 13.539369 30.342055 
L 13.516078 30.202569 
L 13.492787 30.067348 
L 13.469497 29.938066 
L 13.446206 29.81618 
L 13.422915 29.702925 
L 13.399624 29.599305 
L 13.376334 29.506107 
L 13.353043 29.423905 
L 13.329752 29.353078 
L 13.306461 29.293827 
L 13.283171 29.246191 
L 13.25988 29.210068 
L 13.236589 29.185229 
L 13.213298 29.171334 
L 13.190008 29.167944 
L 13.166717 29.174531 
L 13.143426 29.190484 
L 13.120135 29.215112 
L 13.096844 29.247652 
L 13.073554 29.287265 
L 13.050263 29.333042 
L 13.026972 29.384003 
L 13.003681 29.439105 
L 12.980391 29.497246 
L 12.9571 29.557275 
L 12.933809 29.618004 
L 12.910518 29.678226 
L 12.887228 29.73673 
L 12.863937 29.792326 
L 12.840646 29.843866 
L 12.817355 29.890275 
L 12.794065 29.930565 
L 12.770774 29.963872 
L 12.747483 29.989467 
L 12.724192 30.006784 
L 12.700902 30.015428 
L 12.677611 30.015188 
L 12.65432 30.006043 
L 12.631029 29.988158 
L 12.607739 29.961876 
L 12.584448 29.927708 
L 12.561157 29.886314 
L 12.537866 29.838482 
L 12.514576 29.785098 
L 12.491285 29.727125 
L 12.467994 29.665567 
L 12.444703 29.601446 
L 12.421412 29.535771 
L 12.398122 29.469514 
L 12.374831 29.403587 
L 12.35154 29.338822 
L 12.328249 29.275959 
L 12.304959 29.215634 
L 12.281668 29.158371 
L 12.258377 29.104585 
L 12.235086 29.054578 
L 12.211796 29.008549 
L 12.188505 28.966599 
L 12.165214 28.928742 
L 12.141923 28.894914 
L 12.118633 28.864988 
L 12.095342 28.838786 
L 12.072051 28.816089 
L 12.04876 28.796648 
L 12.02547 28.780198 
L 12.002179 28.766464 
L 11.978888 28.755168 
L 11.955597 28.746037 
L 11.932307 28.738808 
L 11.909016 28.733231 
L 11.885725 28.729071 
L 11.862434 28.72611 
L 11.839144 28.724148 
L 11.815853 28.723003 
L 11.792562 28.72251 
L 11.769271 28.722522 
L 11.74598 28.722907 
L 11.72269 28.723547 
L 11.699399 28.72434 
L 11.676108 28.725196 
L 11.652817 28.726039 
L 11.629527 28.726802 
L 11.606236 28.727433 
L 11.582945 28.727887 
L 11.559654 28.728132 
L 11.536364 28.728144 
z
" clip-path="url(#p50b0a09bc0)" style="fill: #8d3d2d"/>
   </g>
   <g id="FillBetweenPolyCollection_5">
    <path d="M 11.536364 36.165559 
L 11.536364 34.142441 
L 11.652817 33.985727 
L 11.769271 33.818657 
L 11.885725 33.643858 
L 12.002179 33.464627 
L 12.118633 33.284785 
L 12.235086 33.108475 
L 12.35154 32.939915 
L 12.467994 32.783146 
L 12.584448 32.641805 
L 12.700902 32.518958 
L 12.817355 32.417006 
L 12.933809 32.337662 
L 13.050263 32.282004 
L 13.166717 32.250561 
L 13.283171 32.2434 
L 13.399624 32.260192 
L 13.516078 32.300227 
L 13.632532 32.362379 
L 13.748986 32.445016 
L 13.86544 32.54591 
L 13.981893 32.662146 
L 14.098347 32.7901 
L 14.214801 32.925493 
L 14.331255 33.063542 
L 14.447708 33.199205 
L 14.564162 33.327504 
L 14.680616 33.443887 
L 14.79707 33.544583 
L 14.913524 33.626931 
L 15.029977 33.689609 
L 15.146431 33.732768 
L 15.262885 33.758033 
L 15.379339 33.768377 
L 15.495793 33.767867 
L 15.612246 33.761328 
L 15.7287 33.753917 
L 15.845154 33.750692 
L 15.961608 33.756181 
L 16.078062 33.774009 
L 16.194515 33.806631 
L 16.310969 33.855163 
L 16.427423 33.91937 
L 16.543877 33.99776 
L 16.660331 34.08781 
L 16.776784 34.186258 
L 16.893238 34.289446 
L 17.009692 34.393661 
L 17.126146 34.495443 
L 17.2426 34.59183 
L 17.359053 34.680517 
L 17.475507 34.759933 
L 17.591961 34.829237 
L 17.708415 34.88825 
L 17.824869 34.937336 
L 17.941322 34.977269 
L 18.057776 35.009084 
L 18.17423 35.033952 
L 18.290684 35.053061 
L 18.407137 35.067542 
L 18.523591 35.078404 
L 18.640045 35.086511 
L 18.756499 35.09257 
L 18.872953 35.097137 
L 18.989406 35.100632 
L 19.10586 35.103365 
L 19.222314 35.105556 
L 19.338768 35.107354 
L 19.455222 35.108865 
L 19.571675 35.110157 
L 19.688129 35.11128 
L 19.804583 35.112272 
L 19.921037 35.113164 
L 20.037491 35.113984 
L 20.153944 35.11476 
L 20.270398 35.115518 
L 20.386852 35.116284 
L 20.503306 35.117078 
L 20.61976 35.117919 
L 20.736213 35.118817 
L 20.852667 35.119773 
L 20.969121 35.120783 
L 21.085575 35.121832 
L 21.202029 35.122899 
L 21.318482 35.123957 
L 21.434936 35.124978 
L 21.55139 35.125936 
L 21.667844 35.126805 
L 21.784298 35.12757 
L 21.900751 35.128222 
L 22.017205 35.128764 
L 22.133659 35.129209 
L 22.250113 35.129581 
L 22.366566 35.129912 
L 22.48302 35.130241 
L 22.599474 35.13061 
L 22.715928 35.131062 
L 22.832382 35.131634 
L 22.948835 35.132358 
L 23.065289 35.133252 
L 23.065289 35.174748 
L 23.065289 35.174748 
L 22.948835 35.175642 
L 22.832382 35.176366 
L 22.715928 35.176938 
L 22.599474 35.17739 
L 22.48302 35.177759 
L 22.366566 35.178088 
L 22.250113 35.178419 
L 22.133659 35.178791 
L 22.017205 35.179236 
L 21.900751 35.179778 
L 21.784298 35.18043 
L 21.667844 35.181195 
L 21.55139 35.182064 
L 21.434936 35.183022 
L 21.318482 35.184043 
L 21.202029 35.185101 
L 21.085575 35.186168 
L 20.969121 35.187217 
L 20.852667 35.188227 
L 20.736213 35.189183 
L 20.61976 35.190081 
L 20.503306 35.190922 
L 20.386852 35.191716 
L 20.270398 35.192482 
L 20.153944 35.19324 
L 20.037491 35.194016 
L 19.921037 35.194836 
L 19.804583 35.195728 
L 19.688129 35.19672 
L 19.571675 35.197843 
L 19.455222 35.199135 
L 19.338768 35.200646 
L 19.222314 35.202444 
L 19.10586 35.204635 
L 18.989406 35.207368 
L 18.872953 35.210863 
L 18.756499 35.21543 
L 18.640045 35.221489 
L 18.523591 35.229596 
L 18.407137 35.240458 
L 18.290684 35.254939 
L 18.17423 35.274048 
L 18.057776 35.298916 
L 17.941322 35.330731 
L 17.824869 35.370664 
L 17.708415 35.41975 
L 17.591961 35.478763 
L 17.475507 35.548067 
L 17.359053 35.627483 
L 17.2426 35.71617 
L 17.126146 35.812557 
L 17.009692 35.914339 
L 16.893238 36.018554 
L 16.776784 36.121742 
L 16.660331 36.22019 
L 16.543877 36.31024 
L 16.427423 36.38863 
L 16.310969 36.452837 
L 16.194515 36.501369 
L 16.078062 36.533991 
L 15.961608 36.551819 
L 15.845154 36.557308 
L 15.7287 36.554083 
L 15.612246 36.546672 
L 15.495793 36.540133 
L 15.379339 36.539623 
L 15.262885 36.549967 
L 15.146431 36.575232 
L 15.029977 36.618391 
L 14.913524 36.681069 
L 14.79707 36.763417 
L 14.680616 36.864113 
L 14.564162 36.980496 
L 14.447708 37.108795 
L 14.331255 37.244458 
L 14.214801 37.382507 
L 14.098347 37.5179 
L 13.981893 37.645854 
L 13.86544 37.76209 
L 13.748986 37.862984 
L 13.632532 37.945621 
L 13.516078 38.007773 
L 13.399624 38.047808 
L 13.283171 38.0646 
L 13.166717 38.057439 
L 13.050263 38.025996 
L 12.933809 37.970338 
L 12.817355 37.890994 
L 12.700902 37.789042 
L 12.584448 37.666195 
L 12.467994 37.524854 
L 12.35154 37.368085 
L 12.235086 37.199525 
L 12.118633 37.023215 
L 12.002179 36.843373 
L 11.885725 36.664142 
L 11.769271 36.489343 
L 11.652817 36.322273 
L 11.536364 36.165559 
z
" clip-path="url(#p50b0a09bc0)" style="fill: #e76f58"/>
   </g>
   <g id="FillBetweenPolyCollection_6">
    <path d="M 11.536364 42.694992 
L 11.536364 40.549008 
L 12.04876 40.424968 
L 12.561157 40.294946 
L 13.073554 40.16008 
L 13.58595 40.021736 
L 14.098347 39.881489 
L 14.610744 39.741095 
L 15.12314 39.602452 
L 15.635537 39.46755 
L 16.147934 39.338417 
L 16.660331 39.217057 
L 17.172727 39.105385 
L 17.685124 39.005167 
L 18.197521 38.91796 
L 18.709917 38.84506 
L 19.222314 38.787462 
L 19.734711 38.745832 
L 20.247107 38.720487 
L 20.759504 38.7114 
L 21.271901 38.718207 
L 21.784298 38.740238 
L 22.296694 38.776546 
L 22.809091 38.825958 
L 23.321488 38.887122 
L 23.833884 38.95856 
L 24.346281 39.038716 
L 24.858678 39.126012 
L 25.371074 39.218886 
L 25.883471 39.315832 
L 26.395868 39.415428 
L 26.908264 39.516361 
L 27.420661 39.617437 
L 27.933058 39.717594 
L 28.445455 39.815901 
L 28.957851 39.911557 
L 29.470248 40.003883 
L 29.982645 40.092317 
L 30.495041 40.176405 
L 31.007438 40.25579 
L 31.519835 40.330206 
L 32.032231 40.399467 
L 32.544628 40.463466 
L 33.057025 40.522163 
L 33.569421 40.575584 
L 34.081818 40.623816 
L 34.594215 40.667003 
L 35.106612 40.705342 
L 35.619008 40.739079 
L 36.131405 40.768505 
L 36.643802 40.793951 
L 37.156198 40.815781 
L 37.668595 40.834387 
L 38.180992 40.850184 
L 38.693388 40.863597 
L 39.205785 40.87506 
L 39.718182 40.885002 
L 40.230579 40.893845 
L 40.742975 40.901989 
L 41.255372 40.909812 
L 41.767769 40.917661 
L 42.280165 40.925843 
L 42.792562 40.934626 
L 43.304959 40.944234 
L 43.817355 40.954843 
L 44.329752 40.966584 
L 44.842149 40.979542 
L 45.354545 40.993756 
L 45.866942 41.009227 
L 46.379339 41.025919 
L 46.891736 41.043761 
L 47.404132 41.06266 
L 47.916529 41.082496 
L 48.428926 41.103136 
L 48.941322 41.124435 
L 49.453719 41.146243 
L 49.966116 41.168405 
L 50.478512 41.19077 
L 50.990909 41.213193 
L 51.503306 41.235534 
L 52.015702 41.257665 
L 52.528099 41.279467 
L 53.040496 41.300836 
L 53.552893 41.321678 
L 54.065289 41.341913 
L 54.577686 41.361473 
L 55.090083 41.380303 
L 55.602479 41.398358 
L 56.114876 41.415607 
L 56.627273 41.432027 
L 57.139669 41.447603 
L 57.652066 41.462331 
L 58.164463 41.476213 
L 58.67686 41.489258 
L 59.189256 41.50148 
L 59.701653 41.512897 
L 60.21405 41.523531 
L 60.726446 41.533408 
L 61.238843 41.542554 
L 61.75124 41.551 
L 62.263636 41.558774 
L 62.263636 41.685226 
L 62.263636 41.685226 
L 61.75124 41.693 
L 61.238843 41.701446 
L 60.726446 41.710592 
L 60.21405 41.720469 
L 59.701653 41.731103 
L 59.189256 41.74252 
L 58.67686 41.754742 
L 58.164463 41.767787 
L 57.652066 41.781669 
L 57.139669 41.796397 
L 56.627273 41.811973 
L 56.114876 41.828393 
L 55.602479 41.845642 
L 55.090083 41.863697 
L 54.577686 41.882527 
L 54.065289 41.902087 
L 53.552893 41.922322 
L 53.040496 41.943164 
L 52.528099 41.964533 
L 52.015702 41.986335 
L 51.503306 42.008466 
L 50.990909 42.030807 
L 50.478512 42.05323 
L 49.966116 42.075595 
L 49.453719 42.097757 
L 48.941322 42.119565 
L 48.428926 42.140864 
L 47.916529 42.161504 
L 47.404132 42.18134 
L 46.891736 42.200239 
L 46.379339 42.218081 
L 45.866942 42.234773 
L 45.354545 42.250244 
L 44.842149 42.264458 
L 44.329752 42.277416 
L 43.817355 42.289157 
L 43.304959 42.299766 
L 42.792562 42.309374 
L 42.280165 42.318157 
L 41.767769 42.326339 
L 41.255372 42.334188 
L 40.742975 42.342011 
L 40.230579 42.350155 
L 39.718182 42.358998 
L 39.205785 42.36894 
L 38.693388 42.380403 
L 38.180992 42.393816 
L 37.668595 42.409613 
L 37.156198 42.428219 
L 36.643802 42.450049 
L 36.131405 42.475495 
L 35.619008 42.504921 
L 35.106612 42.538658 
L 34.594215 42.576997 
L 34.081818 42.620184 
L 33.569421 42.668416 
L 33.057025 42.721837 
L 32.544628 42.780534 
L 32.032231 42.844533 
L 31.519835 42.913794 
L 31.007438 42.98821 
L 30.495041 43.067595 
L 29.982645 43.151683 
L 29.470248 43.240117 
L 28.957851 43.332443 
L 28.445455 43.428099 
L 27.933058 43.526406 
L 27.420661 43.626563 
L 26.908264 43.727639 
L 26.395868 43.828572 
L 25.883471 43.928168 
L 25.371074 44.025114 
L 24.858678 44.117988 
L 24.346281 44.205284 
L 23.833884 44.28544 
L 23.321488 44.356878 
L 22.809091 44.418042 
L 22.296694 44.467454 
L 21.784298 44.503762 
L 21.271901 44.525793 
L 20.759504 44.5326 
L 20.247107 44.523513 
L 19.734711 44.498168 
L 19.222314 44.456538 
L 18.709917 44.39894 
L 18.197521 44.32604 
L 17.685124 44.238833 
L 17.172727 44.138615 
L 16.660331 44.026943 
L 16.147934 43.905583 
L 15.635537 43.77645 
L 15.12314 43.641548 
L 14.610744 43.502905 
L 14.098347 43.362511 
L 13.58595 43.222264 
L 13.073554 43.08392 
L 12.561157 42.949054 
L 12.04876 42.819032 
L 11.536364 42.694992 
z
" clip-path="url(#p50b0a09bc0)" style="fill: #126175"/>
   </g>
   <g id="matplotlib.axis_1">
    <g id="xtick_1">
     <g id="line2d_1">
      <defs>
       <path id="m9ffb063287" d="M 0 0 
L 0 1.7 
" style="stroke: #000000; stroke-width: 0.25"/>
      </defs>
      <g>
       <use xlink:href="#m9ffb063287" x="10.383471" y="45.856" style="stroke: #000000; stroke-width: 0.25"/>
      </g>
     </g>
     <g id="text_1">
      <text style="font-size: 6px; font-family: 'Arial'; text-anchor: middle" x="10.383471" y="53.350687" transform="rotate(-0 10.383471 53.350687)">0</text>
     </g>
    </g>
    <g id="xtick_2">
     <g id="line2d_2">
      <g>
       <use xlink:href="#m9ffb063287" x="33.441322" y="45.856" style="stroke: #000000; stroke-width: 0.25"/>
      </g>
     </g>
     <g id="text_2">
      <text style="font-size: 6px; font-family: 'Arial'; text-anchor: middle" x="33.441322" y="53.350687" transform="rotate(-0 33.441322 53.350687)">20</text>
     </g>
    </g>
    <g id="xtick_3">
     <g id="line2d_3">
      <g>
       <use xlink:href="#m9ffb063287" x="56.499174" y="45.856" style="stroke: #000000; stroke-width: 0.25"/>
      </g>
     </g>
     <g id="text_3">
      <text style="font-size: 6px; font-family: 'Arial'; text-anchor: middle" x="56.499174" y="53.350687" transform="rotate(-0 56.499174 53.350687)">40</text>
     </g>
    </g>
    <g id="text_4">
     <text style="font-size: 8px; font-family: 'Arial'; text-anchor: middle" x="36.9" y="61.769437" transform="rotate(-0 36.9 61.769437)"># MNs active</text>
    </g>
   </g>
   <g id="matplotlib.axis_2">
    <g id="ytick_1">
     <g id="line2d_4">
      <defs>
       <path id="m15583bec28" d="M 0 0 
L -1.7 0 
" style="stroke: #000000; stroke-width: 0.25"/>
      </defs>
      <g>
       <use xlink:href="#m15583bec28" x="7" y="9.282" style="stroke: #000000; stroke-width: 0.25"/>
      </g>
     </g>
     <g id="text_5">
      <text style="font-size: 6px; font-family: 'Arial'; text-anchor: end" x="3.8" y="11.429344" transform="rotate(-0 3.8 11.429344)">none</text>
     </g>
    </g>
    <g id="ytick_2">
     <g id="line2d_5">
      <g>
       <use xlink:href="#m15583bec28" x="7" y="15.75" style="stroke: #000000; stroke-width: 0.25"/>
      </g>
     </g>
     <g id="text_6">
      <text style="font-size: 6px; font-family: 'Arial'; text-anchor: end" x="3.8" y="17.897344" transform="rotate(-0 3.8 17.897344)">E1</text>
     </g>
    </g>
    <g id="ytick_3">
     <g id="line2d_6">
      <g>
       <use xlink:href="#m15583bec28" x="7" y="22.218" style="stroke: #000000; stroke-width: 0.25"/>
      </g>
     </g>
     <g id="text_7">
      <text style="font-size: 6px; font-family: 'Arial'; text-anchor: end" x="3.8" y="24.365344" transform="rotate(-0 3.8 24.365344)">E2</text>
     </g>
    </g>
    <g id="ytick_4">
     <g id="line2d_7">
      <g>
       <use xlink:href="#m15583bec28" x="7" y="28.686" style="stroke: #000000; stroke-width: 0.25"/>
      </g>
     </g>
     <g id="text_8">
      <text style="font-size: 6px; font-family: 'Arial'; text-anchor: end" x="3.8" y="30.833344" transform="rotate(-0 3.8 30.833344)">E3</text>
     </g>
    </g>
    <g id="ytick_5">
     <g id="line2d_8">
      <g>
       <use xlink:href="#m15583bec28" x="7" y="35.154" style="stroke: #000000; stroke-width: 0.25"/>
      </g>
     </g>
     <g id="text_9">
      <text style="font-size: 6px; font-family: 'Arial'; text-anchor: end" x="3.8" y="37.301344" transform="rotate(-0 3.8 37.301344)">E4</text>
     </g>
    </g>
    <g id="ytick_6">
     <g id="line2d_9">
      <g>
       <use xlink:href="#m15583bec28" x="7" y="41.622" style="stroke: #000000; stroke-width: 0.25"/>
      </g>
     </g>
     <g id="text_10">
      <text style="font-size: 6px; font-family: 'Arial'; text-anchor: end" x="3.8" y="43.769344" transform="rotate(-0 3.8 43.769344)">I2</text>
     </g>
    </g>
    <g id="text_11">
     <text style="font-size: 8px; font-family: 'Arial'; text-anchor: middle" x="-12.63625" y="25.452" transform="rotate(-90 -12.63625 25.452)">silenced neuron</text>
    </g>
   </g>
   <g id="patch_3">
    <path d="M 7 44.856 
L 7 6.048 
" style="fill: none; stroke: #000000; stroke-width: 0.25; stroke-linejoin: miter; stroke-linecap: square"/>
   </g>
   <g id="patch_4">
    <path d="M 9 45.856 
L 64.8 45.856 
" style="fill: none; stroke: #000000; stroke-width: 0.25; stroke-linejoin: miter; stroke-linecap: square"/>
   </g>
  </g>
 </g>
 <defs>
  <clipPath id="p50b0a09bc0">
   <rect x="9" y="6.048" width="55.8" height="38.808"/>
  </clipPath>
 </defs>
</svg>
