<?xml version="1.0" encoding="utf-8" standalone="no"?>
<!DOCTYPE svg PUBLIC "-//W3C//DTD SVG 1.1//EN"
  "http://www.w3.org/Graphics/SVG/1.1/DTD/svg11.dtd">
<svg xmlns:xlink="http://www.w3.org/1999/xlink" width="57.6pt" height="64.8pt" viewBox="0 0 57.6 64.8" xmlns="http://www.w3.org/2000/svg" version="1.1">
 <metadata>
  <rdf:RDF xmlns:dc="http://purl.org/dc/elements/1.1/" xmlns:cc="http://creativecommons.org/ns#" xmlns:rdf="http://www.w3.org/1999/02/22-rdf-syntax-ns#">
   <cc:Work>
    <dc:type rdf:resource="http://purl.org/dc/dcmitype/StillImage"/>
    <dc:date>2025-09-05T11:12:16.462094</dc:date>
    <dc:format>image/svg+xml</dc:format>
    <dc:creator>
     <cc:Agent>
      <dc:title>Matplotlib v3.10.3, https://matplotlib.org/</dc:title>
     </cc:Agent>
    </dc:creator>
   </cc:Work>
  </rdf:RDF>
 </metadata>
 <defs>
  <style type="text/css">*{stroke-linejoin: round; stroke-linecap: butt}</style>
 </defs>
 <g id="figure_1">
  <g id="patch_1">
   <path d="M 0 64.8 
L 57.6 64.8 
L 57.6 0 
L 0 0 
L 0 64.8 
z
" style="fill: none"/>
  </g>
  <g id="axes_1">
   <g id="patch_2">
    <path d="M 7.2 57.672 
L 51.84 57.672 
L 51.84 7.776 
L 7.2 7.776 
L 7.2 57.672 
z
" style="fill: none"/>
   </g>
   <g id="FillBetweenPolyCollection_1">
    <defs>
     <path id="mc862c791fc" d="M 7.2 -52.736201 
L 7.2 -52.995799 
L 7.611192 -52.993123 
L 8.022384 -52.984805 
L 8.433576 -52.972079 
L 8.844768 -52.956667 
L 9.255961 -52.940412 
L 9.667153 -52.924933 
L 10.078345 -52.911386 
L 10.489537 -52.900379 
L 10.900729 -52.892017 
L 11.311921 -52.886039 
L 11.723113 -52.881988 
L 12.134305 -52.879355 
L 12.545498 -52.877682 
L 12.95669 -52.876612 
L 13.367882 -52.875898 
L 13.779074 -52.87538 
L 14.190266 -52.874965 
L 14.601458 -52.874594 
L 15.01265 -52.874236 
L 15.423842 -52.873871 
L 15.835035 -52.8735 
L 16.246227 -52.873138 
L 16.657419 -52.872812 
L 17.068611 -52.872556 
L 17.479803 -52.872398 
L 17.890995 -52.872349 
L 18.302187 -52.872395 
L 18.713379 -52.872509 
L 19.124572 -52.872653 
L 19.535764 -52.8728 
L 19.946956 -52.872943 
L 20.358148 -52.873101 
L 20.76934 -52.873318 
L 21.180532 -52.873657 
L 21.591724 -52.874194 
L 22.002916 -52.875019 
L 22.414108 -52.876241 
L 22.825301 -52.878005 
L 23.236493 -52.880495 
L 23.647685 -52.883927 
L 24.058877 -52.888515 
L 24.470069 -52.894419 
L 24.881261 -52.901662 
L 25.292453 -52.910066 
L 25.703645 -52.919207 
L 26.114838 -52.928431 
L 26.52603 -52.936931 
L 26.937222 -52.943886 
L 27.348414 -52.948632 
L 27.759606 -52.950814 
L 28.170798 -52.950482 
L 28.58199 -52.948107 
L 28.993182 -52.944513 
L 29.404375 -52.940745 
L 29.815567 -52.937906 
L 30.226759 -52.937008 
L 30.637951 -52.938844 
L 31.049143 -52.943907 
L 31.460335 -52.952353 
L 31.871527 -52.964008 
L 32.282719 -52.978409 
L 32.693912 -52.994901 
L 33.105104 -53.012743 
L 33.516296 -53.031248 
L 33.927488 -53.049889 
L 34.33868 -53.068362 
L 34.749872 -53.086589 
L 35.161064 -53.104641 
L 35.572256 -53.122629 
L 35.983449 -53.140583 
L 36.394641 -53.158376 
L 36.805833 -53.175717 
L 37.217025 -53.192225 
L 37.628217 -53.20755 
L 38.039409 -53.221523 
L 38.450601 -53.234286 
L 38.861793 -53.246368 
L 39.272985 -53.258719 
L 39.684178 -53.272699 
L 40.09537 -53.290055 
L 40.506562 -53.312944 
L 40.917754 -53.344007 
L 41.328946 -53.386534 
L 41.740138 -53.444673 
L 42.15133 -53.523639 
L 42.562522 -53.629784 
L 42.973715 -53.770379 
L 43.384907 -53.9529 
L 43.796099 -54.18368 
L 44.207291 -54.465879 
L 44.618483 -54.79697 
L 45.029675 -55.166273 
L 45.440867 -55.553349 
L 45.852059 -55.928179 
L 46.263252 -56.253827 
L 46.674444 -56.491644 
L 47.085636 -56.6082 
L 47.496828 -56.582319 
L 47.90802 -56.410217 
L 47.90802 -49.321783 
L 47.90802 -49.321783 
L 47.496828 -49.149681 
L 47.085636 -49.1238 
L 46.674444 -49.240356 
L 46.263252 -49.478173 
L 45.852059 -49.803821 
L 45.440867 -50.178651 
L 45.029675 -50.565727 
L 44.618483 -50.93503 
L 44.207291 -51.266121 
L 43.796099 -51.54832 
L 43.384907 -51.7791 
L 42.973715 -51.961621 
L 42.562522 -52.102216 
L 42.15133 -52.208361 
L 41.740138 -52.287327 
L 41.328946 -52.345466 
L 40.917754 -52.387993 
L 40.506562 -52.419056 
L 40.09537 -52.441945 
L 39.684178 -52.459301 
L 39.272985 -52.473281 
L 38.861793 -52.485632 
L 38.450601 -52.497714 
L 38.039409 -52.510477 
L 37.628217 -52.52445 
L 37.217025 -52.539775 
L 36.805833 -52.556283 
L 36.394641 -52.573624 
L 35.983449 -52.591417 
L 35.572256 -52.609371 
L 35.161064 -52.627359 
L 34.749872 -52.645411 
L 34.33868 -52.663638 
L 33.927488 -52.682111 
L 33.516296 -52.700752 
L 33.105104 -52.719257 
L 32.693912 -52.737099 
L 32.282719 -52.753591 
L 31.871527 -52.767992 
L 31.460335 -52.779647 
L 31.049143 -52.788093 
L 30.637951 -52.793156 
L 30.226759 -52.794992 
L 29.815567 -52.794094 
L 29.404375 -52.791255 
L 28.993182 -52.787487 
L 28.58199 -52.783893 
L 28.170798 -52.781518 
L 27.759606 -52.781186 
L 27.348414 -52.783368 
L 26.937222 -52.788114 
L 26.52603 -52.795069 
L 26.114838 -52.803569 
L 25.703645 -52.812793 
L 25.292453 -52.821934 
L 24.881261 -52.830338 
L 24.470069 -52.837581 
L 24.058877 -52.843485 
L 23.647685 -52.848073 
L 23.236493 -52.851505 
L 22.825301 -52.853995 
L 22.414108 -52.855759 
L 22.002916 -52.856981 
L 21.591724 -52.857806 
L 21.180532 -52.858343 
L 20.76934 -52.858682 
L 20.358148 -52.858899 
L 19.946956 -52.859057 
L 19.535764 -52.8592 
L 19.124572 -52.859347 
L 18.713379 -52.859491 
L 18.302187 -52.859605 
L 17.890995 -52.859651 
L 17.479803 -52.859602 
L 17.068611 -52.859444 
L 16.657419 -52.859188 
L 16.246227 -52.858862 
L 15.835035 -52.8585 
L 15.423842 -52.858129 
L 15.01265 -52.857764 
L 14.601458 -52.857406 
L 14.190266 -52.857035 
L 13.779074 -52.85662 
L 13.367882 -52.856102 
L 12.95669 -52.855388 
L 12.545498 -52.854318 
L 12.134305 -52.852645 
L 11.723113 -52.850012 
L 11.311921 -52.845961 
L 10.900729 -52.839983 
L 10.489537 -52.831621 
L 10.078345 -52.820614 
L 9.667153 -52.807067 
L 9.255961 -52.791588 
L 8.844768 -52.775333 
L 8.433576 -52.759921 
L 8.022384 -52.747195 
L 7.611192 -52.738877 
L 7.2 -52.736201 
z
"/>
    </defs>
    <g clip-path="url(#p41f050a157)">
     <use xlink:href="#mc862c791fc" x="0" y="64.8" style="fill: #306c53; fill-opacity: 0.5"/>
    </g>
   </g>
   <g id="FillBetweenPolyCollection_2">
    <defs>
     <path id="m07b70a601b" d="M 7.2 -40.8078 
L 7.2 -48.2922 
L 7.610019 -48.289103 
L 8.020039 -48.212426 
L 8.430058 -48.068376 
L 8.840077 -47.8671 
L 9.250097 -47.62162 
L 9.660116 -47.346538 
L 10.070135 -47.056701 
L 10.480155 -46.765986 
L 10.890174 -46.486338 
L 11.300193 -46.227141 
L 11.710213 -45.994946 
L 12.120232 -45.793532 
L 12.530251 -45.624207 
L 12.940271 -45.486286 
L 13.35029 -45.377637 
L 13.760309 -45.295215 
L 14.170329 -45.235533 
L 14.580348 -45.195032 
L 14.990367 -45.170333 
L 15.400387 -45.158397 
L 15.810406 -45.156596 
L 16.220425 -45.162721 
L 16.630445 -45.174959 
L 17.040464 -45.19185 
L 17.450483 -45.212234 
L 17.860503 -45.23521 
L 18.270522 -45.260092 
L 18.680541 -45.286372 
L 19.090561 -45.313688 
L 19.50058 -45.341791 
L 19.910599 -45.370512 
L 20.320619 -45.399726 
L 20.730638 -45.429321 
L 21.140658 -45.459161 
L 21.550677 -45.489065 
L 21.960696 -45.518784 
L 22.370716 -45.547992 
L 22.780735 -45.576292 
L 23.190754 -45.603229 
L 23.600774 -45.628312 
L 24.010793 -45.651048 
L 24.420812 -45.670971 
L 24.830832 -45.68767 
L 25.240851 -45.700819 
L 25.65087 -45.710184 
L 26.06089 -45.715636 
L 26.470909 -45.717138 
L 26.880928 -45.714744 
L 27.290948 -45.708573 
L 27.700967 -45.698796 
L 28.110986 -45.685617 
L 28.521006 -45.669261 
L 28.931025 -45.649963 
L 29.341044 -45.627964 
L 29.751064 -45.603514 
L 30.161083 -45.576876 
L 30.571102 -45.548327 
L 30.981122 -45.518166 
L 31.391141 -45.486713 
L 31.80116 -45.454302 
L 32.21118 -45.421277 
L 32.621199 -45.387978 
L 33.031218 -45.354721 
L 33.441238 -45.321787 
L 33.851257 -45.289404 
L 34.261276 -45.257733 
L 34.671296 -45.22686 
L 35.081315 -45.196795 
L 35.491334 -45.167475 
L 35.901354 -45.138775 
L 36.311373 -45.110524 
L 36.721392 -45.082529 
L 37.131412 -45.054601 
L 37.541431 -45.026583 
L 37.95145 -44.998376 
L 38.36147 -44.969959 
L 38.771489 -44.941402 
L 39.181508 -44.912871 
L 39.591528 -44.884622 
L 40.001547 -44.856982 
L 40.411566 -44.830323 
L 40.821586 -44.805035 
L 41.231605 -44.78149 
L 41.641624 -44.760011 
L 42.051644 -44.740843 
L 42.461663 -44.724134 
L 42.871682 -44.70992 
L 43.281702 -44.698122 
L 43.691721 -44.688554 
L 44.10174 -44.680934 
L 44.51176 -44.674905 
L 44.921779 -44.670062 
L 45.331798 -44.665983 
L 45.741818 -44.662254 
L 46.151837 -44.658504 
L 46.561857 -44.654421 
L 46.971876 -44.649777 
L 47.381895 -44.644436 
L 47.791915 -44.638357 
L 47.791915 -44.461643 
L 47.791915 -44.461643 
L 47.381895 -44.455564 
L 46.971876 -44.450223 
L 46.561857 -44.445579 
L 46.151837 -44.441496 
L 45.741818 -44.437746 
L 45.331798 -44.434017 
L 44.921779 -44.429938 
L 44.51176 -44.425095 
L 44.10174 -44.419066 
L 43.691721 -44.411446 
L 43.281702 -44.401878 
L 42.871682 -44.39008 
L 42.461663 -44.375866 
L 42.051644 -44.359157 
L 41.641624 -44.339989 
L 41.231605 -44.31851 
L 40.821586 -44.294965 
L 40.411566 -44.269677 
L 40.001547 -44.243018 
L 39.591528 -44.215378 
L 39.181508 -44.187129 
L 38.771489 -44.158598 
L 38.36147 -44.130041 
L 37.95145 -44.101624 
L 37.541431 -44.073417 
L 37.131412 -44.045399 
L 36.721392 -44.017471 
L 36.311373 -43.989476 
L 35.901354 -43.961225 
L 35.491334 -43.932525 
L 35.081315 -43.903205 
L 34.671296 -43.87314 
L 34.261276 -43.842267 
L 33.851257 -43.810596 
L 33.441238 -43.778213 
L 33.031218 -43.745279 
L 32.621199 -43.712022 
L 32.21118 -43.678723 
L 31.80116 -43.645698 
L 31.391141 -43.613287 
L 30.981122 -43.581834 
L 30.571102 -43.551673 
L 30.161083 -43.523124 
L 29.751064 -43.496486 
L 29.341044 -43.472036 
L 28.931025 -43.450037 
L 28.521006 -43.430739 
L 28.110986 -43.414383 
L 27.700967 -43.401204 
L 27.290948 -43.391427 
L 26.880928 -43.385256 
L 26.470909 -43.382862 
L 26.06089 -43.384364 
L 25.65087 -43.389816 
L 25.240851 -43.399181 
L 24.830832 -43.41233 
L 24.420812 -43.429029 
L 24.010793 -43.448952 
L 23.600774 -43.471688 
L 23.190754 -43.496771 
L 22.780735 -43.523708 
L 22.370716 -43.552008 
L 21.960696 -43.581216 
L 21.550677 -43.610935 
L 21.140658 -43.640839 
L 20.730638 -43.670679 
L 20.320619 -43.700274 
L 19.910599 -43.729488 
L 19.50058 -43.758209 
L 19.090561 -43.786312 
L 18.680541 -43.813628 
L 18.270522 -43.839908 
L 17.860503 -43.86479 
L 17.450483 -43.887766 
L 17.040464 -43.90815 
L 16.630445 -43.925041 
L 16.220425 -43.937279 
L 15.810406 -43.943404 
L 15.400387 -43.941603 
L 14.990367 -43.929667 
L 14.580348 -43.904968 
L 14.170329 -43.864467 
L 13.760309 -43.804785 
L 13.35029 -43.722363 
L 12.940271 -43.613714 
L 12.530251 -43.475793 
L 12.120232 -43.306468 
L 11.710213 -43.105054 
L 11.300193 -42.872859 
L 10.890174 -42.613662 
L 10.480155 -42.334014 
L 10.070135 -42.043299 
L 9.660116 -41.753462 
L 9.250097 -41.47838 
L 8.840077 -41.2329 
L 8.430058 -41.031624 
L 8.020039 -40.887574 
L 7.610019 -40.810897 
L 7.2 -40.8078 
z
"/>
    </defs>
    <g clip-path="url(#p41f050a157)">
     <use xlink:href="#m07b70a601b" x="0" y="64.8" style="fill: #c35843; fill-opacity: 0.5"/>
    </g>
   </g>
   <g id="FillBetweenPolyCollection_3">
    <defs>
     <path id="m58e075b027" d="M 7.2 -32.513192 
L 7.2 -39.954808 
L 7.613571 -39.9762 
L 8.027141 -39.97083 
L 8.440712 -39.939226 
L 8.854282 -39.882519 
L 9.267853 -39.802394 
L 9.681423 -39.701022 
L 10.094994 -39.580973 
L 10.508564 -39.445122 
L 10.922135 -39.296539 
L 11.335705 -39.138391 
L 11.749276 -38.973836 
L 12.162846 -38.805924 
L 12.576417 -38.637522 
L 12.989987 -38.471238 
L 13.403558 -38.30937 
L 13.817128 -38.15387 
L 14.230699 -38.006325 
L 14.644269 -37.867951 
L 15.05784 -37.739606 
L 15.471411 -37.621808 
L 15.884981 -37.514771 
L 16.298552 -37.418438 
L 16.712122 -37.332527 
L 17.125693 -37.256572 
L 17.539263 -37.189966 
L 17.952834 -37.132002 
L 18.366404 -37.081913 
L 18.779975 -37.0389 
L 19.193545 -37.002159 
L 19.607116 -36.970911 
L 20.020686 -36.944412 
L 20.434257 -36.921966 
L 20.847827 -36.902938 
L 21.261398 -36.886755 
L 21.674968 -36.87291 
L 22.088539 -36.860959 
L 22.502109 -36.850521 
L 22.91568 -36.841272 
L 23.32925 -36.832944 
L 23.742821 -36.825316 
L 24.156392 -36.818213 
L 24.569962 -36.811499 
L 24.983533 -36.805071 
L 25.397103 -36.798857 
L 25.810674 -36.792809 
L 26.224244 -36.786902 
L 26.637815 -36.781127 
L 27.051385 -36.775492 
L 27.464956 -36.770015 
L 27.878526 -36.764725 
L 28.292097 -36.759658 
L 28.705667 -36.754859 
L 29.119238 -36.750379 
L 29.532808 -36.746278 
L 29.946379 -36.742625 
L 30.359949 -36.739502 
L 30.77352 -36.737005 
L 31.18709 -36.735252 
L 31.600661 -36.734386 
L 32.014232 -36.734583 
L 32.427802 -36.736057 
L 32.841373 -36.739067 
L 33.254943 -36.743924 
L 33.668514 -36.751001 
L 34.082084 -36.76073 
L 34.495655 -36.773614 
L 34.909225 -36.790222 
L 35.322796 -36.81119 
L 35.736366 -36.837212 
L 36.149937 -36.869035 
L 36.563507 -36.907437 
L 36.977078 -36.953212 
L 37.390648 -37.007142 
L 37.804219 -37.069965 
L 38.217789 -37.14234 
L 38.63136 -37.224807 
L 39.04493 -37.317746 
L 39.458501 -37.421331 
L 39.872072 -37.535491 
L 40.285642 -37.659867 
L 40.699213 -37.793785 
L 41.112783 -37.936226 
L 41.526354 -38.085817 
L 41.939924 -38.240828 
L 42.353495 -38.399188 
L 42.767065 -38.558516 
L 43.180636 -38.716167 
L 43.594206 -38.869296 
L 44.007777 -39.01493 
L 44.421347 -39.150061 
L 44.834918 -39.271739 
L 45.248488 -39.37717 
L 45.662059 -39.463817 
L 46.075629 -39.529494 
L 46.4892 -39.572446 
L 46.90277 -39.591423 
L 47.316341 -39.585723 
L 47.729911 -39.555227 
L 48.143482 -39.500406 
L 48.143482 -32.967594 
L 48.143482 -32.967594 
L 47.729911 -32.912773 
L 47.316341 -32.882277 
L 46.90277 -32.876577 
L 46.4892 -32.895554 
L 46.075629 -32.938506 
L 45.662059 -33.004183 
L 45.248488 -33.09083 
L 44.834918 -33.196261 
L 44.421347 -33.317939 
L 44.007777 -33.45307 
L 43.594206 -33.598704 
L 43.180636 -33.751833 
L 42.767065 -33.909484 
L 42.353495 -34.068812 
L 41.939924 -34.227172 
L 41.526354 -34.382183 
L 41.112783 -34.531774 
L 40.699213 -34.674215 
L 40.285642 -34.808133 
L 39.872072 -34.932509 
L 39.458501 -35.046669 
L 39.04493 -35.150254 
L 38.63136 -35.243193 
L 38.217789 -35.32566 
L 37.804219 -35.398035 
L 37.390648 -35.460858 
L 36.977078 -35.514788 
L 36.563507 -35.560563 
L 36.149937 -35.598965 
L 35.736366 -35.630788 
L 35.322796 -35.65681 
L 34.909225 -35.677778 
L 34.495655 -35.694386 
L 34.082084 -35.70727 
L 33.668514 -35.716999 
L 33.254943 -35.724076 
L 32.841373 -35.728933 
L 32.427802 -35.731943 
L 32.014232 -35.733417 
L 31.600661 -35.733614 
L 31.18709 -35.732748 
L 30.77352 -35.730995 
L 30.359949 -35.728498 
L 29.946379 -35.725375 
L 29.532808 -35.721722 
L 29.119238 -35.717621 
L 28.705667 -35.713141 
L 28.292097 -35.708342 
L 27.878526 -35.703275 
L 27.464956 -35.697985 
L 27.051385 -35.692508 
L 26.637815 -35.686873 
L 26.224244 -35.681098 
L 25.810674 -35.675191 
L 25.397103 -35.669143 
L 24.983533 -35.662929 
L 24.569962 -35.656501 
L 24.156392 -35.649787 
L 23.742821 -35.642684 
L 23.32925 -35.635056 
L 22.91568 -35.626728 
L 22.502109 -35.617479 
L 22.088539 -35.607041 
L 21.674968 -35.59509 
L 21.261398 -35.581245 
L 20.847827 -35.565062 
L 20.434257 -35.546034 
L 20.020686 -35.523588 
L 19.607116 -35.497089 
L 19.193545 -35.465841 
L 18.779975 -35.4291 
L 18.366404 -35.386087 
L 17.952834 -35.335998 
L 17.539263 -35.278034 
L 17.125693 -35.211428 
L 16.712122 -35.135473 
L 16.298552 -35.049562 
L 15.884981 -34.953229 
L 15.471411 -34.846192 
L 15.05784 -34.728394 
L 14.644269 -34.600049 
L 14.230699 -34.461675 
L 13.817128 -34.31413 
L 13.403558 -34.15863 
L 12.989987 -33.996762 
L 12.576417 -33.830478 
L 12.162846 -33.662076 
L 11.749276 -33.494164 
L 11.335705 -33.329609 
L 10.922135 -33.171461 
L 10.508564 -33.022878 
L 10.094994 -32.887027 
L 9.681423 -32.766978 
L 9.267853 -32.665606 
L 8.854282 -32.585481 
L 8.440712 -32.528774 
L 8.027141 -32.49717 
L 7.613571 -32.4918 
L 7.2 -32.513192 
z
"/>
    </defs>
    <g clip-path="url(#p41f050a157)">
     <use xlink:href="#m58e075b027" x="0" y="64.8" style="fill: #f0a394; fill-opacity: 0.5"/>
    </g>
   </g>
   <g id="FillBetweenPolyCollection_4">
    <defs>
     <path id="me8ed043dc9" d="M 7.2 -24.1758 
L 7.2 -31.6602 
L 7.611898 -31.639005 
L 8.023796 -31.542416 
L 8.435693 -31.376868 
L 8.847591 -31.15276 
L 9.259489 -30.883405 
L 9.671387 -30.583739 
L 10.083285 -30.268988 
L 10.495182 -29.953427 
L 10.90708 -29.649394 
L 11.318978 -29.36662 
L 11.730876 -29.111918 
L 12.142774 -28.889199 
L 12.554671 -28.699764 
L 12.966569 -28.54277 
L 13.378467 -28.415798 
L 13.790365 -28.31542 
L 14.202263 -28.237717 
L 14.61416 -28.178702 
L 15.026058 -28.13462 
L 15.437956 -28.102151 
L 15.849854 -28.078502 
L 16.261751 -28.061429 
L 16.673649 -28.0492 
L 17.085547 -28.040536 
L 17.497445 -28.034524 
L 17.909343 -28.03054 
L 18.32124 -28.028166 
L 18.733138 -28.027127 
L 19.145036 -28.02723 
L 19.556934 -28.028325 
L 19.968832 -28.030271 
L 20.380729 -28.032915 
L 20.792627 -28.036083 
L 21.204525 -28.039575 
L 21.616423 -28.043173 
L 22.028321 -28.046652 
L 22.440218 -28.04979 
L 22.852116 -28.052384 
L 23.264014 -28.054265 
L 23.675912 -28.055304 
L 24.08781 -28.055424 
L 24.499707 -28.054596 
L 24.911605 -28.052845 
L 25.323503 -28.050236 
L 25.735401 -28.046875 
L 26.147299 -28.042897 
L 26.559196 -28.038457 
L 26.971094 -28.033723 
L 27.382992 -28.028866 
L 27.79489 -28.024051 
L 28.206788 -28.019432 
L 28.618685 -28.015143 
L 29.030583 -28.011293 
L 29.442481 -28.007959 
L 29.854379 -28.00519 
L 30.266277 -28.002998 
L 30.678174 -28.001365 
L 31.090072 -28.000246 
L 31.50197 -27.999577 
L 31.913868 -27.999278 
L 32.325765 -27.999262 
L 32.737663 -27.999443 
L 33.149561 -27.999739 
L 33.561459 -28.00008 
L 33.973357 -28.000405 
L 34.385254 -28.000668 
L 34.797152 -28.000835 
L 35.20905 -28.000888 
L 35.620948 -28.000819 
L 36.032846 -28.000634 
L 36.444743 -28.000351 
L 36.856641 -27.999997 
L 37.268539 -27.999615 
L 37.680437 -27.999262 
L 38.092335 -27.999008 
L 38.504232 -27.998946 
L 38.91613 -27.999193 
L 39.328028 -27.999894 
L 39.739926 -28.001227 
L 40.151824 -28.003404 
L 40.563721 -28.006667 
L 40.975619 -28.011281 
L 41.387517 -28.01752 
L 41.799415 -28.025637 
L 42.211313 -28.035839 
L 42.62321 -28.048246 
L 43.035108 -28.062854 
L 43.447006 -28.079497 
L 43.858904 -28.097821 
L 44.270802 -28.117273 
L 44.682699 -28.137106 
L 45.094597 -28.156415 
L 45.506495 -28.174187 
L 45.918393 -28.18938 
L 46.330291 -28.20101 
L 46.742188 -28.208242 
L 47.154086 -28.210469 
L 47.565984 -28.207383 
L 47.977882 -28.199 
L 47.977882 -27.637 
L 47.977882 -27.637 
L 47.565984 -27.628617 
L 47.154086 -27.625531 
L 46.742188 -27.627758 
L 46.330291 -27.63499 
L 45.918393 -27.64662 
L 45.506495 -27.661813 
L 45.094597 -27.679585 
L 44.682699 -27.698894 
L 44.270802 -27.718727 
L 43.858904 -27.738179 
L 43.447006 -27.756503 
L 43.035108 -27.773146 
L 42.62321 -27.787754 
L 42.211313 -27.800161 
L 41.799415 -27.810363 
L 41.387517 -27.81848 
L 40.975619 -27.824719 
L 40.563721 -27.829333 
L 40.151824 -27.832596 
L 39.739926 -27.834773 
L 39.328028 -27.836106 
L 38.91613 -27.836807 
L 38.504232 -27.837054 
L 38.092335 -27.836992 
L 37.680437 -27.836738 
L 37.268539 -27.836385 
L 36.856641 -27.836003 
L 36.444743 -27.835649 
L 36.032846 -27.835366 
L 35.620948 -27.835181 
L 35.20905 -27.835112 
L 34.797152 -27.835165 
L 34.385254 -27.835332 
L 33.973357 -27.835595 
L 33.561459 -27.83592 
L 33.149561 -27.836261 
L 32.737663 -27.836557 
L 32.325765 -27.836738 
L 31.913868 -27.836722 
L 31.50197 -27.836423 
L 31.090072 -27.835754 
L 30.678174 -27.834635 
L 30.266277 -27.833002 
L 29.854379 -27.83081 
L 29.442481 -27.828041 
L 29.030583 -27.824707 
L 28.618685 -27.820857 
L 28.206788 -27.816568 
L 27.79489 -27.811949 
L 27.382992 -27.807134 
L 26.971094 -27.802277 
L 26.559196 -27.797543 
L 26.147299 -27.793103 
L 25.735401 -27.789125 
L 25.323503 -27.785764 
L 24.911605 -27.783155 
L 24.499707 -27.781404 
L 24.08781 -27.780576 
L 23.675912 -27.780696 
L 23.264014 -27.781735 
L 22.852116 -27.783616 
L 22.440218 -27.78621 
L 22.028321 -27.789348 
L 21.616423 -27.792827 
L 21.204525 -27.796425 
L 20.792627 -27.799917 
L 20.380729 -27.803085 
L 19.968832 -27.805729 
L 19.556934 -27.807675 
L 19.145036 -27.80877 
L 18.733138 -27.808873 
L 18.32124 -27.807834 
L 17.909343 -27.80546 
L 17.497445 -27.801476 
L 17.085547 -27.795464 
L 16.673649 -27.7868 
L 16.261751 -27.774571 
L 15.849854 -27.757498 
L 15.437956 -27.733849 
L 15.026058 -27.70138 
L 14.61416 -27.657298 
L 14.202263 -27.598283 
L 13.790365 -27.52058 
L 13.378467 -27.420202 
L 12.966569 -27.29323 
L 12.554671 -27.136236 
L 12.142774 -26.946801 
L 11.730876 -26.724082 
L 11.318978 -26.46938 
L 10.90708 -26.186606 
L 10.495182 -25.882573 
L 10.083285 -25.567012 
L 9.671387 -25.252261 
L 9.259489 -24.952595 
L 8.847591 -24.68324 
L 8.435693 -24.459132 
L 8.023796 -24.293584 
L 7.611898 -24.196995 
L 7.2 -24.1758 
z
"/>
    </defs>
    <g clip-path="url(#p41f050a157)">
     <use xlink:href="#me8ed043dc9" x="0" y="64.8" style="fill: #8d3d2d; fill-opacity: 0.5"/>
    </g>
   </g>
   <g id="FillBetweenPolyCollection_5">
    <defs>
     <path id="mdf5455eae1" d="M 7.2 -15.8598 
L 7.2 -23.3442 
L 7.609869 -23.326585 
L 8.019737 -23.270164 
L 8.429606 -23.176713 
L 8.839475 -23.049125 
L 9.249344 -22.891261 
L 9.659212 -22.707757 
L 10.069081 -22.503799 
L 10.47895 -22.284881 
L 10.888819 -22.05656 
L 11.298687 -21.824231 
L 11.708556 -21.592925 
L 12.118425 -21.367138 
L 12.528294 -21.150715 
L 12.938162 -20.946768 
L 13.348031 -20.757649 
L 13.7579 -20.584953 
L 14.167768 -20.429568 
L 14.577637 -20.291746 
L 14.987506 -20.171192 
L 15.397375 -20.067171 
L 15.807243 -19.978609 
L 16.217112 -19.904201 
L 16.626981 -19.842503 
L 17.03685 -19.792012 
L 17.446718 -19.751239 
L 17.856587 -19.718755 
L 18.266456 -19.693237 
L 18.676325 -19.673488 
L 19.086193 -19.658451 
L 19.496062 -19.647213 
L 19.905931 -19.639005 
L 20.315799 -19.633187 
L 20.725668 -19.629244 
L 21.135537 -19.626764 
L 21.545406 -19.625433 
L 21.955274 -19.625013 
L 22.365143 -19.625335 
L 22.775012 -19.626285 
L 23.184881 -19.627793 
L 23.594749 -19.62983 
L 24.004618 -19.632393 
L 24.414487 -19.635507 
L 24.824356 -19.639214 
L 25.234224 -19.643573 
L 25.644093 -19.648653 
L 26.053962 -19.654532 
L 26.46383 -19.661295 
L 26.873699 -19.669029 
L 27.283568 -19.67782 
L 27.693437 -19.687755 
L 28.103305 -19.698913 
L 28.513174 -19.711369 
L 28.923043 -19.725187 
L 29.332912 -19.740422 
L 29.74278 -19.757114 
L 30.152649 -19.775291 
L 30.562518 -19.794962 
L 30.972387 -19.816125 
L 31.382255 -19.838757 
L 31.792124 -19.862822 
L 32.201993 -19.888268 
L 32.611861 -19.915031 
L 33.02173 -19.943034 
L 33.431599 -19.97219 
L 33.841468 -20.002407 
L 34.251336 -20.033589 
L 34.661205 -20.065636 
L 35.071074 -20.098449 
L 35.480943 -20.13193 
L 35.890811 -20.165981 
L 36.30068 -20.200501 
L 36.710549 -20.235387 
L 37.120418 -20.270526 
L 37.530286 -20.305791 
L 37.940155 -20.341033 
L 38.350024 -20.376077 
L 38.759892 -20.410709 
L 39.169761 -20.444674 
L 39.57963 -20.477672 
L 39.989499 -20.509349 
L 40.399367 -20.539303 
L 40.809236 -20.567085 
L 41.219105 -20.592207 
L 41.628974 -20.614153 
L 42.038842 -20.632395 
L 42.448711 -20.64641 
L 42.85858 -20.6557 
L 43.268449 -20.659819 
L 43.678317 -20.65839 
L 44.088186 -20.651129 
L 44.498055 -20.637864 
L 44.907924 -20.618548 
L 45.317792 -20.593271 
L 45.727661 -20.562265 
L 46.13753 -20.525898 
L 46.547398 -20.48467 
L 46.957267 -20.439195 
L 47.367136 -20.390185 
L 47.777005 -20.338424 
L 47.777005 -18.865576 
L 47.777005 -18.865576 
L 47.367136 -18.813815 
L 46.957267 -18.764805 
L 46.547398 -18.71933 
L 46.13753 -18.678102 
L 45.727661 -18.641735 
L 45.317792 -18.610729 
L 44.907924 -18.585452 
L 44.498055 -18.566136 
L 44.088186 -18.552871 
L 43.678317 -18.54561 
L 43.268449 -18.544181 
L 42.85858 -18.5483 
L 42.448711 -18.55759 
L 42.038842 -18.571605 
L 41.628974 -18.589847 
L 41.219105 -18.611793 
L 40.809236 -18.636915 
L 40.399367 -18.664697 
L 39.989499 -18.694651 
L 39.57963 -18.726328 
L 39.169761 -18.759326 
L 38.759892 -18.793291 
L 38.350024 -18.827923 
L 37.940155 -18.862967 
L 37.530286 -18.898209 
L 37.120418 -18.933474 
L 36.710549 -18.968613 
L 36.30068 -19.003499 
L 35.890811 -19.038019 
L 35.480943 -19.07207 
L 35.071074 -19.105551 
L 34.661205 -19.138364 
L 34.251336 -19.170411 
L 33.841468 -19.201593 
L 33.431599 -19.23181 
L 33.02173 -19.260966 
L 32.611861 -19.288969 
L 32.201993 -19.315732 
L 31.792124 -19.341178 
L 31.382255 -19.365243 
L 30.972387 -19.387875 
L 30.562518 -19.409038 
L 30.152649 -19.428709 
L 29.74278 -19.446886 
L 29.332912 -19.463578 
L 28.923043 -19.478813 
L 28.513174 -19.492631 
L 28.103305 -19.505087 
L 27.693437 -19.516245 
L 27.283568 -19.52618 
L 26.873699 -19.534971 
L 26.46383 -19.542705 
L 26.053962 -19.549468 
L 25.644093 -19.555347 
L 25.234224 -19.560427 
L 24.824356 -19.564786 
L 24.414487 -19.568493 
L 24.004618 -19.571607 
L 23.594749 -19.57417 
L 23.184881 -19.576207 
L 22.775012 -19.577715 
L 22.365143 -19.578665 
L 21.955274 -19.578987 
L 21.545406 -19.578567 
L 21.135537 -19.577236 
L 20.725668 -19.574756 
L 20.315799 -19.570813 
L 19.905931 -19.564995 
L 19.496062 -19.556787 
L 19.086193 -19.545549 
L 18.676325 -19.530512 
L 18.266456 -19.510763 
L 17.856587 -19.485245 
L 17.446718 -19.452761 
L 17.03685 -19.411988 
L 16.626981 -19.361497 
L 16.217112 -19.299799 
L 15.807243 -19.225391 
L 15.397375 -19.136829 
L 14.987506 -19.032808 
L 14.577637 -18.912254 
L 14.167768 -18.774432 
L 13.7579 -18.619047 
L 13.348031 -18.446351 
L 12.938162 -18.257232 
L 12.528294 -18.053285 
L 12.118425 -17.836862 
L 11.708556 -17.611075 
L 11.298687 -17.379769 
L 10.888819 -17.14744 
L 10.47895 -16.919119 
L 10.069081 -16.700201 
L 9.659212 -16.496243 
L 9.249344 -16.312739 
L 8.839475 -16.154875 
L 8.429606 -16.027287 
L 8.019737 -15.933836 
L 7.609869 -15.877415 
L 7.2 -15.8598 
z
"/>
    </defs>
    <g clip-path="url(#p41f050a157)">
     <use xlink:href="#mdf5455eae1" x="0" y="64.8" style="fill: #e76f58; fill-opacity: 0.5"/>
    </g>
   </g>
   <g id="FillBetweenPolyCollection_6">
    <defs>
     <path id="md4c6d84d17" d="M 7.2 -10.529073 
L 7.2 -12.042927 
L 7.61027 -12.118377 
L 8.02054 -12.192748 
L 8.430811 -12.264749 
L 8.841081 -12.333127 
L 9.251351 -12.396717 
L 9.661621 -12.454493 
L 10.071891 -12.505604 
L 10.482161 -12.549412 
L 10.892432 -12.585514 
L 11.302702 -12.613749 
L 11.712972 -12.634201 
L 12.123242 -12.647187 
L 12.533512 -12.65323 
L 12.943782 -12.653038 
L 13.354053 -12.647458 
L 13.764323 -12.637442 
L 14.174593 -12.624002 
L 14.584863 -12.608168 
L 14.995133 -12.590951 
L 15.405403 -12.573302 
L 15.815674 -12.556088 
L 16.225944 -12.540057 
L 16.636214 -12.525827 
L 17.046484 -12.513868 
L 17.456754 -12.504496 
L 17.867024 -12.497874 
L 18.277295 -12.494022 
L 18.687565 -12.492823 
L 19.097835 -12.494045 
L 19.508105 -12.497364 
L 19.918375 -12.502386 
L 20.328645 -12.508678 
L 20.738916 -12.515791 
L 21.149186 -12.523285 
L 21.559456 -12.530757 
L 21.969726 -12.537853 
L 22.379996 -12.544284 
L 22.790266 -12.549834 
L 23.200537 -12.554359 
L 23.610807 -12.557788 
L 24.021077 -12.560112 
L 24.431347 -12.561375 
L 24.841617 -12.56166 
L 25.251887 -12.561075 
L 25.662158 -12.559738 
L 26.072428 -12.557768 
L 26.482698 -12.555267 
L 26.892968 -12.552323 
L 27.303238 -12.548994 
L 27.713508 -12.545315 
L 28.123779 -12.541298 
L 28.534049 -12.536936 
L 28.944319 -12.53221 
L 29.354589 -12.527102 
L 29.764859 -12.521603 
L 30.175129 -12.515724 
L 30.5854 -12.509504 
L 30.99567 -12.503023 
L 31.40594 -12.496406 
L 31.81621 -12.489826 
L 32.22648 -12.483509 
L 32.63675 -12.477735 
L 33.047021 -12.472836 
L 33.457291 -12.469197 
L 33.867561 -12.467259 
L 34.277831 -12.467522 
L 34.688101 -12.470546 
L 35.098371 -12.476968 
L 35.508642 -12.487501 
L 35.918912 -12.50295 
L 36.329182 -12.524217 
L 36.739452 -12.552305 
L 37.149722 -12.588306 
L 37.559992 -12.633389 
L 37.970263 -12.688763 
L 38.380533 -12.755632 
L 38.790803 -12.835116 
L 39.201073 -12.928174 
L 39.611343 -13.03549 
L 40.021613 -13.157365 
L 40.431884 -13.293588 
L 40.842154 -13.443324 
L 41.252424 -13.605012 
L 41.662694 -13.77629 
L 42.072964 -13.953964 
L 42.483234 -14.134026 
L 42.893505 -14.311733 
L 43.303775 -14.481753 
L 43.714045 -14.638362 
L 44.124315 -14.775711 
L 44.534585 -14.888122 
L 44.944855 -14.97041 
L 45.355126 -15.018197 
L 45.765396 -15.0282 
L 46.175666 -14.998467 
L 46.585936 -14.928531 
L 46.996206 -14.819476 
L 47.406476 -14.673899 
L 47.816747 -14.495781 
L 47.816747 -8.076219 
L 47.816747 -8.076219 
L 47.406476 -7.898101 
L 46.996206 -7.752524 
L 46.585936 -7.643469 
L 46.175666 -7.573533 
L 45.765396 -7.5438 
L 45.355126 -7.553803 
L 44.944855 -7.60159 
L 44.534585 -7.683878 
L 44.124315 -7.796289 
L 43.714045 -7.933638 
L 43.303775 -8.090247 
L 42.893505 -8.260267 
L 42.483234 -8.437974 
L 42.072964 -8.618036 
L 41.662694 -8.79571 
L 41.252424 -8.966988 
L 40.842154 -9.128676 
L 40.431884 -9.278412 
L 40.021613 -9.414635 
L 39.611343 -9.53651 
L 39.201073 -9.643826 
L 38.790803 -9.736884 
L 38.380533 -9.816368 
L 37.970263 -9.883237 
L 37.559992 -9.938611 
L 37.149722 -9.983694 
L 36.739452 -10.019695 
L 36.329182 -10.047783 
L 35.918912 -10.06905 
L 35.508642 -10.084499 
L 35.098371 -10.095032 
L 34.688101 -10.101454 
L 34.277831 -10.104478 
L 33.867561 -10.104741 
L 33.457291 -10.102803 
L 33.047021 -10.099164 
L 32.63675 -10.094265 
L 32.22648 -10.088491 
L 31.81621 -10.082174 
L 31.40594 -10.075594 
L 30.99567 -10.068977 
L 30.5854 -10.062496 
L 30.175129 -10.056276 
L 29.764859 -10.050397 
L 29.354589 -10.044898 
L 28.944319 -10.03979 
L 28.534049 -10.035064 
L 28.123779 -10.030702 
L 27.713508 -10.026685 
L 27.303238 -10.023006 
L 26.892968 -10.019677 
L 26.482698 -10.016733 
L 26.072428 -10.014232 
L 25.662158 -10.012262 
L 25.251887 -10.010925 
L 24.841617 -10.01034 
L 24.431347 -10.010625 
L 24.021077 -10.011888 
L 23.610807 -10.014212 
L 23.200537 -10.017641 
L 22.790266 -10.022166 
L 22.379996 -10.027716 
L 21.969726 -10.034147 
L 21.559456 -10.041243 
L 21.149186 -10.048715 
L 20.738916 -10.056209 
L 20.328645 -10.063322 
L 19.918375 -10.069614 
L 19.508105 -10.074636 
L 19.097835 -10.077955 
L 18.687565 -10.079177 
L 18.277295 -10.077978 
L 17.867024 -10.074126 
L 17.456754 -10.067504 
L 17.046484 -10.058132 
L 16.636214 -10.046173 
L 16.225944 -10.031943 
L 15.815674 -10.015912 
L 15.405403 -9.998698 
L 14.995133 -9.981049 
L 14.584863 -9.963832 
L 14.174593 -9.947998 
L 13.764323 -9.934558 
L 13.354053 -9.924542 
L 12.943782 -9.918962 
L 12.533512 -9.91877 
L 12.123242 -9.924813 
L 11.712972 -9.937799 
L 11.302702 -9.958251 
L 10.892432 -9.986486 
L 10.482161 -10.022588 
L 10.071891 -10.066396 
L 9.661621 -10.117507 
L 9.251351 -10.175283 
L 8.841081 -10.238873 
L 8.430811 -10.307251 
L 8.02054 -10.379252 
L 7.61027 -10.453623 
L 7.2 -10.529073 
z
"/>
    </defs>
    <g clip-path="url(#p41f050a157)">
     <use xlink:href="#md4c6d84d17" x="0" y="64.8" style="fill: #126175; fill-opacity: 0.5"/>
    </g>
   </g>
   <g id="matplotlib.axis_1">
    <g id="xtick_1">
     <g id="line2d_1">
      <defs>
       <path id="m4f86860826" d="M 0 0 
L 0 1.7 
" style="stroke: #000000; stroke-width: 0.25"/>
      </defs>
      <g>
       <use xlink:href="#m4f86860826" x="7.2" y="58.672" style="stroke: #000000; stroke-width: 0.25"/>
      </g>
     </g>
     <g id="text_1">
      <text style="font-size: 6px; font-family: 'Arial'; text-anchor: middle" x="7.2" y="66.166687" transform="rotate(-0 7.2 66.166687)">0.0</text>
     </g>
    </g>
    <g id="xtick_2">
     <g id="line2d_2">
      <g>
       <use xlink:href="#m4f86860826" x="27.490909" y="58.672" style="stroke: #000000; stroke-width: 0.25"/>
      </g>
     </g>
     <g id="text_2">
      <text style="font-size: 6px; font-family: 'Arial'; text-anchor: middle" x="27.490909" y="66.166687" transform="rotate(-0 27.490909 66.166687)">0.5</text>
     </g>
    </g>
    <g id="xtick_3">
     <g id="line2d_3">
      <g>
       <use xlink:href="#m4f86860826" x="47.781818" y="58.672" style="stroke: #000000; stroke-width: 0.25"/>
      </g>
     </g>
     <g id="text_3">
      <text style="font-size: 6px; font-family: 'Arial'; text-anchor: middle" x="47.781818" y="66.166687" transform="rotate(-0 47.781818 66.166687)">1.0</text>
     </g>
    </g>
    <g id="text_4">
     <text style="font-size: 8px; font-family: 'Arial'" transform="translate(-0.9275 74.585437)">motor rhythmicity</text>
     <text style="font-size: 8px; font-family: 'Arial'" transform="translate(19.739375 83.140687)">score</text>
    </g>
   </g>
   <g id="matplotlib.axis_2">
    <g id="ytick_1">
     <g id="line2d_4">
      <defs>
       <path id="m5204b3e3f6" d="M 0 0 
L -1.7 0 
" style="stroke: #000000; stroke-width: 0.25"/>
      </defs>
      <g>
       <use xlink:href="#m5204b3e3f6" x="5.2" y="11.934" style="stroke: #000000; stroke-width: 0.25"/>
      </g>
     </g>
     <g id="text_5">
      <text style="font-size: 6px; font-family: 'Arial'; text-anchor: end" x="2" y="14.081344" transform="rotate(-0 2 14.081344)">none</text>
     </g>
    </g>
    <g id="ytick_2">
     <g id="line2d_5">
      <g>
       <use xlink:href="#m5204b3e3f6" x="5.2" y="20.25" style="stroke: #000000; stroke-width: 0.25"/>
      </g>
     </g>
     <g id="text_6">
      <text style="font-size: 6px; font-family: 'Arial'; text-anchor: end" x="2" y="22.397344" transform="rotate(-0 2 22.397344)">E1</text>
     </g>
    </g>
    <g id="ytick_3">
     <g id="line2d_6">
      <g>
       <use xlink:href="#m5204b3e3f6" x="5.2" y="28.566" style="stroke: #000000; stroke-width: 0.25"/>
      </g>
     </g>
     <g id="text_7">
      <text style="font-size: 6px; font-family: 'Arial'; text-anchor: end" x="2" y="30.713344" transform="rotate(-0 2 30.713344)">E2</text>
     </g>
    </g>
    <g id="ytick_4">
     <g id="line2d_7">
      <g>
       <use xlink:href="#m5204b3e3f6" x="5.2" y="36.882" style="stroke: #000000; stroke-width: 0.25"/>
      </g>
     </g>
     <g id="text_8">
      <text style="font-size: 6px; font-family: 'Arial'; text-anchor: end" x="2" y="39.029344" transform="rotate(-0 2 39.029344)">E3</text>
     </g>
    </g>
    <g id="ytick_5">
     <g id="line2d_8">
      <g>
       <use xlink:href="#m5204b3e3f6" x="5.2" y="45.198" style="stroke: #000000; stroke-width: 0.25"/>
      </g>
     </g>
     <g id="text_9">
      <text style="font-size: 6px; font-family: 'Arial'; text-anchor: end" x="2" y="47.345344" transform="rotate(-0 2 47.345344)">E4</text>
     </g>
    </g>
    <g id="ytick_6">
     <g id="line2d_9">
      <g>
       <use xlink:href="#m5204b3e3f6" x="5.2" y="53.514" style="stroke: #000000; stroke-width: 0.25"/>
      </g>
     </g>
     <g id="text_10">
      <text style="font-size: 6px; font-family: 'Arial'; text-anchor: end" x="2" y="55.661344" transform="rotate(-0 2 55.661344)">I2</text>
     </g>
    </g>
    <g id="text_11">
     <text style="font-size: 8px; font-family: 'Arial'; text-anchor: middle" x="-14.43625" y="32.724" transform="rotate(-90 -14.43625 32.724)">silenced neuron</text>
    </g>
   </g>
   <g id="patch_3">
    <path d="M 44.751947 11.1024 
L 44.751947 12.7656 
L 47.722843 12.7656 
L 47.722843 11.1024 
L 44.751947 11.1024 
z
" clip-path="url(#p41f050a157)" style="fill: #306c53; stroke: #282828; stroke-width: 0.75; stroke-linejoin: miter"/>
   </g>
   <g id="line2d_10">
    <path d="M 44.751947 11.934 
L 40.327897 11.934 
" clip-path="url(#p41f050a157)" style="fill: none; stroke: #282828; stroke-width: 0.75"/>
   </g>
   <g id="line2d_11">
    <path d="M 47.722843 11.934 
L 47.90802 11.934 
" clip-path="url(#p41f050a157)" style="fill: none; stroke: #282828; stroke-width: 0.75"/>
   </g>
   <g id="line2d_12">
    <path d="M 40.327897 11.5182 
L 40.327897 12.3498 
" clip-path="url(#p41f050a157)" style="fill: none; stroke: #282828; stroke-width: 0.75; stroke-linecap: square"/>
   </g>
   <g id="line2d_13">
    <path d="M 47.90802 11.5182 
L 47.90802 12.3498 
" clip-path="url(#p41f050a157)" style="fill: none; stroke: #282828; stroke-width: 0.75; stroke-linecap: square"/>
   </g>
   <g id="patch_4">
    <path d="M 7.2 19.4184 
L 7.2 21.0816 
L 26.008981 21.0816 
L 26.008981 19.4184 
L 7.2 19.4184 
z
" clip-path="url(#p41f050a157)" style="fill: #c35843; stroke: #282828; stroke-width: 0.75; stroke-linejoin: miter"/>
   </g>
   <g id="line2d_14">
    <path d="M 7.2 20.25 
L 7.2 20.25 
" clip-path="url(#p41f050a157)" style="fill: none; stroke: #282828; stroke-width: 0.75"/>
   </g>
   <g id="line2d_15">
    <path d="M 26.008981 20.25 
L 47.791915 20.25 
" clip-path="url(#p41f050a157)" style="fill: none; stroke: #282828; stroke-width: 0.75"/>
   </g>
   <g id="line2d_16">
    <path d="M 7.2 19.8342 
L 7.2 20.6658 
" clip-path="url(#p41f050a157)" style="fill: none; stroke: #282828; stroke-width: 0.75; stroke-linecap: square"/>
   </g>
   <g id="line2d_17">
    <path d="M 47.791915 19.8342 
L 47.791915 20.6658 
" clip-path="url(#p41f050a157)" style="fill: none; stroke: #282828; stroke-width: 0.75; stroke-linecap: square"/>
   </g>
   <g id="patch_5">
    <path d="M 7.2 27.7344 
L 7.2 29.3976 
L 47.172931 29.3976 
L 47.172931 27.7344 
L 7.2 27.7344 
z
" clip-path="url(#p41f050a157)" style="fill: #f0a394; stroke: #282828; stroke-width: 0.75; stroke-linejoin: miter"/>
   </g>
   <g id="line2d_18">
    <path d="M 7.2 28.566 
L 7.2 28.566 
" clip-path="url(#p41f050a157)" style="fill: none; stroke: #282828; stroke-width: 0.75"/>
   </g>
   <g id="line2d_19">
    <path d="M 47.172931 28.566 
L 48.143482 28.566 
" clip-path="url(#p41f050a157)" style="fill: none; stroke: #282828; stroke-width: 0.75"/>
   </g>
   <g id="line2d_20">
    <path d="M 7.2 28.1502 
L 7.2 28.9818 
" clip-path="url(#p41f050a157)" style="fill: none; stroke: #282828; stroke-width: 0.75; stroke-linecap: square"/>
   </g>
   <g id="line2d_21">
    <path d="M 48.143482 28.1502 
L 48.143482 28.9818 
" clip-path="url(#p41f050a157)" style="fill: none; stroke: #282828; stroke-width: 0.75; stroke-linecap: square"/>
   </g>
   <g id="patch_6">
    <path d="M 7.2 36.0504 
L 7.2 37.7136 
L 7.2 37.7136 
L 7.2 36.0504 
L 7.2 36.0504 
z
" clip-path="url(#p41f050a157)" style="fill: #8d3d2d; stroke: #282828; stroke-width: 0.75; stroke-linejoin: miter"/>
   </g>
   <g id="line2d_22">
    <path d="M 7.2 36.882 
L 7.2 36.882 
" clip-path="url(#p41f050a157)" style="fill: none; stroke: #282828; stroke-width: 0.75"/>
   </g>
   <g id="line2d_23">
    <path d="M 7.2 36.882 
L 7.2 36.882 
" clip-path="url(#p41f050a157)" style="fill: none; stroke: #282828; stroke-width: 0.75"/>
   </g>
   <g id="line2d_24">
    <path d="M 7.2 36.4662 
L 7.2 37.2978 
" clip-path="url(#p41f050a157)" style="fill: none; stroke: #282828; stroke-width: 0.75; stroke-linecap: square"/>
   </g>
   <g id="line2d_25">
    <path d="M 7.2 36.4662 
L 7.2 37.2978 
" clip-path="url(#p41f050a157)" style="fill: none; stroke: #282828; stroke-width: 0.75; stroke-linecap: square"/>
   </g>
   <g id="patch_7">
    <path d="M 7.2 44.3664 
L 7.2 46.0296 
L 36.634877 46.0296 
L 36.634877 44.3664 
L 7.2 44.3664 
z
" clip-path="url(#p41f050a157)" style="fill: #e76f58; stroke: #282828; stroke-width: 0.75; stroke-linejoin: miter"/>
   </g>
   <g id="line2d_26">
    <path d="M 7.2 45.198 
L 7.2 45.198 
" clip-path="url(#p41f050a157)" style="fill: none; stroke: #282828; stroke-width: 0.75"/>
   </g>
   <g id="line2d_27">
    <path d="M 36.634877 45.198 
L 47.777005 45.198 
" clip-path="url(#p41f050a157)" style="fill: none; stroke: #282828; stroke-width: 0.75"/>
   </g>
   <g id="line2d_28">
    <path d="M 7.2 44.7822 
L 7.2 45.6138 
" clip-path="url(#p41f050a157)" style="fill: none; stroke: #282828; stroke-width: 0.75; stroke-linecap: square"/>
   </g>
   <g id="line2d_29">
    <path d="M 47.777005 44.7822 
L 47.777005 45.6138 
" clip-path="url(#p41f050a157)" style="fill: none; stroke: #282828; stroke-width: 0.75; stroke-linecap: square"/>
   </g>
   <g id="patch_8">
    <path d="M 21.678714 52.6824 
L 21.678714 54.3456 
L 45.741302 54.3456 
L 45.741302 52.6824 
L 21.678714 52.6824 
z
" clip-path="url(#p41f050a157)" style="fill: #126175; stroke: #282828; stroke-width: 0.75; stroke-linejoin: miter"/>
   </g>
   <g id="line2d_30">
    <path d="M 21.678714 53.514 
L 7.2 53.514 
" clip-path="url(#p41f050a157)" style="fill: none; stroke: #282828; stroke-width: 0.75"/>
   </g>
   <g id="line2d_31">
    <path d="M 45.741302 53.514 
L 47.816747 53.514 
" clip-path="url(#p41f050a157)" style="fill: none; stroke: #282828; stroke-width: 0.75"/>
   </g>
   <g id="line2d_32">
    <path d="M 7.2 53.0982 
L 7.2 53.9298 
" clip-path="url(#p41f050a157)" style="fill: none; stroke: #282828; stroke-width: 0.75; stroke-linecap: square"/>
   </g>
   <g id="line2d_33">
    <path d="M 47.816747 53.0982 
L 47.816747 53.9298 
" clip-path="url(#p41f050a157)" style="fill: none; stroke: #282828; stroke-width: 0.75; stroke-linecap: square"/>
   </g>
   <g id="line2d_34">
    <path d="M 47.217509 11.1024 
L 47.217509 12.7656 
" clip-path="url(#p41f050a157)" style="fill: none; stroke: #282828; stroke-width: 0.75"/>
   </g>
   <g id="line2d_35">
    <path d="M 9.468422 19.4184 
L 9.468422 21.0816 
" clip-path="url(#p41f050a157)" style="fill: none; stroke: #282828; stroke-width: 0.75"/>
   </g>
   <g id="line2d_36">
    <path d="M 21.346342 27.7344 
L 21.346342 29.3976 
" clip-path="url(#p41f050a157)" style="fill: none; stroke: #282828; stroke-width: 0.75"/>
   </g>
   <g id="line2d_37">
    <path d="M 7.2 36.0504 
L 7.2 37.7136 
" clip-path="url(#p41f050a157)" style="fill: none; stroke: #282828; stroke-width: 0.75"/>
   </g>
   <g id="line2d_38">
    <path d="M 7.2 44.3664 
L 7.2 46.0296 
" clip-path="url(#p41f050a157)" style="fill: none; stroke: #282828; stroke-width: 0.75"/>
   </g>
   <g id="line2d_39">
    <path d="M 37.212755 52.6824 
L 37.212755 54.3456 
" clip-path="url(#p41f050a157)" style="fill: none; stroke: #282828; stroke-width: 0.75"/>
   </g>
   <g id="patch_9">
    <path d="M 5.2 57.672 
L 5.2 7.776 
" style="fill: none; stroke: #000000; stroke-width: 0.25; stroke-linejoin: miter; stroke-linecap: square"/>
   </g>
   <g id="patch_10">
    <path d="M 7.2 58.672 
L 51.84 58.672 
" style="fill: none; stroke: #000000; stroke-width: 0.25; stroke-linejoin: miter; stroke-linecap: square"/>
   </g>
  </g>
 </g>
 <defs>
  <clipPath id="p41f050a157">
   <rect x="7.2" y="7.776" width="44.64" height="49.896"/>
  </clipPath>
 </defs>
</svg>
