<?xml version="1.0" encoding="utf-8" standalone="no"?>
<!DOCTYPE svg PUBLIC "-//W3C//DTD SVG 1.1//EN"
  "http://www.w3.org/Graphics/SVG/1.1/DTD/svg11.dtd">
<svg xmlns:xlink="http://www.w3.org/1999/xlink" width="57.6pt" height="64.8pt" viewBox="0 0 57.6 64.8" xmlns="http://www.w3.org/2000/svg" version="1.1">
 <metadata>
  <rdf:RDF xmlns:dc="http://purl.org/dc/elements/1.1/" xmlns:cc="http://creativecommons.org/ns#" xmlns:rdf="http://www.w3.org/1999/02/22-rdf-syntax-ns#">
   <cc:Work>
    <dc:type rdf:resource="http://purl.org/dc/dcmitype/StillImage"/>
    <dc:date>2025-09-05T11:12:29.323722</dc:date>
    <dc:format>image/svg+xml</dc:format>
    <dc:creator>
     <cc:Agent>
      <dc:title>Matplotlib v3.10.3, https://matplotlib.org/</dc:title>
     </cc:Agent>
    </dc:creator>
   </cc:Work>
  </rdf:RDF>
 </metadata>
 <defs>
  <style type="text/css">*{stroke-linejoin: round; stroke-linecap: butt}</style>
 </defs>
 <g id="figure_1">
  <g id="patch_1">
   <path d="M 0 64.8 
L 57.6 64.8 
L 57.6 0 
L 0 0 
L 0 64.8 
z
" style="fill: none"/>
  </g>
  <g id="axes_1">
   <g id="patch_2">
    <path d="M 7.2 57.672 
L 51.84 57.672 
L 51.84 7.776 
L 7.2 7.776 
L 7.2 57.672 
z
" style="fill: none"/>
   </g>
   <g id="FillBetweenPolyCollection_1">
    <defs>
     <path id="mc774e774a9" d="M 7.2 -52.736201 
L 7.2 -52.995799 
L 7.611192 -52.993123 
L 8.022384 -52.984805 
L 8.433576 -52.972079 
L 8.844768 -52.956667 
L 9.255961 -52.940412 
L 9.667153 -52.924933 
L 10.078345 -52.911386 
L 10.489537 -52.900379 
L 10.900729 -52.892017 
L 11.311921 -52.886039 
L 11.723113 -52.881988 
L 12.134305 -52.879355 
L 12.545498 -52.877682 
L 12.95669 -52.876612 
L 13.367882 -52.875898 
L 13.779074 -52.87538 
L 14.190266 -52.874965 
L 14.601458 -52.874594 
L 15.01265 -52.874236 
L 15.423842 -52.873871 
L 15.835035 -52.8735 
L 16.246227 -52.873138 
L 16.657419 -52.872812 
L 17.068611 -52.872556 
L 17.479803 -52.872398 
L 17.890995 -52.872349 
L 18.302187 -52.872395 
L 18.713379 -52.872509 
L 19.124572 -52.872653 
L 19.535764 -52.8728 
L 19.946956 -52.872943 
L 20.358148 -52.873101 
L 20.76934 -52.873318 
L 21.180532 -52.873657 
L 21.591724 -52.874194 
L 22.002916 -52.875019 
L 22.414108 -52.876241 
L 22.825301 -52.878005 
L 23.236493 -52.880495 
L 23.647685 -52.883927 
L 24.058877 -52.888515 
L 24.470069 -52.894419 
L 24.881261 -52.901662 
L 25.292453 -52.910066 
L 25.703645 -52.919207 
L 26.114838 -52.928431 
L 26.52603 -52.936931 
L 26.937222 -52.943886 
L 27.348414 -52.948632 
L 27.759606 -52.950814 
L 28.170798 -52.950482 
L 28.58199 -52.948107 
L 28.993182 -52.944513 
L 29.404375 -52.940745 
L 29.815567 -52.937906 
L 30.226759 -52.937008 
L 30.637951 -52.938844 
L 31.049143 -52.943907 
L 31.460335 -52.952353 
L 31.871527 -52.964008 
L 32.282719 -52.978409 
L 32.693912 -52.994901 
L 33.105104 -53.012743 
L 33.516296 -53.031248 
L 33.927488 -53.049889 
L 34.33868 -53.068362 
L 34.749872 -53.086589 
L 35.161064 -53.104641 
L 35.572256 -53.122629 
L 35.983449 -53.140583 
L 36.394641 -53.158376 
L 36.805833 -53.175717 
L 37.217025 -53.192225 
L 37.628217 -53.20755 
L 38.039409 -53.221523 
L 38.450601 -53.234286 
L 38.861793 -53.246368 
L 39.272985 -53.258719 
L 39.684178 -53.272699 
L 40.09537 -53.290055 
L 40.506562 -53.312944 
L 40.917754 -53.344007 
L 41.328946 -53.386534 
L 41.740138 -53.444673 
L 42.15133 -53.523639 
L 42.562522 -53.629784 
L 42.973715 -53.770379 
L 43.384907 -53.9529 
L 43.796099 -54.18368 
L 44.207291 -54.465879 
L 44.618483 -54.79697 
L 45.029675 -55.166273 
L 45.440867 -55.553349 
L 45.852059 -55.928179 
L 46.263252 -56.253827 
L 46.674444 -56.491644 
L 47.085636 -56.6082 
L 47.496828 -56.582319 
L 47.90802 -56.410217 
L 47.90802 -49.321783 
L 47.90802 -49.321783 
L 47.496828 -49.149681 
L 47.085636 -49.1238 
L 46.674444 -49.240356 
L 46.263252 -49.478173 
L 45.852059 -49.803821 
L 45.440867 -50.178651 
L 45.029675 -50.565727 
L 44.618483 -50.93503 
L 44.207291 -51.266121 
L 43.796099 -51.54832 
L 43.384907 -51.7791 
L 42.973715 -51.961621 
L 42.562522 -52.102216 
L 42.15133 -52.208361 
L 41.740138 -52.287327 
L 41.328946 -52.345466 
L 40.917754 -52.387993 
L 40.506562 -52.419056 
L 40.09537 -52.441945 
L 39.684178 -52.459301 
L 39.272985 -52.473281 
L 38.861793 -52.485632 
L 38.450601 -52.497714 
L 38.039409 -52.510477 
L 37.628217 -52.52445 
L 37.217025 -52.539775 
L 36.805833 -52.556283 
L 36.394641 -52.573624 
L 35.983449 -52.591417 
L 35.572256 -52.609371 
L 35.161064 -52.627359 
L 34.749872 -52.645411 
L 34.33868 -52.663638 
L 33.927488 -52.682111 
L 33.516296 -52.700752 
L 33.105104 -52.719257 
L 32.693912 -52.737099 
L 32.282719 -52.753591 
L 31.871527 -52.767992 
L 31.460335 -52.779647 
L 31.049143 -52.788093 
L 30.637951 -52.793156 
L 30.226759 -52.794992 
L 29.815567 -52.794094 
L 29.404375 -52.791255 
L 28.993182 -52.787487 
L 28.58199 -52.783893 
L 28.170798 -52.781518 
L 27.759606 -52.781186 
L 27.348414 -52.783368 
L 26.937222 -52.788114 
L 26.52603 -52.795069 
L 26.114838 -52.803569 
L 25.703645 -52.812793 
L 25.292453 -52.821934 
L 24.881261 -52.830338 
L 24.470069 -52.837581 
L 24.058877 -52.843485 
L 23.647685 -52.848073 
L 23.236493 -52.851505 
L 22.825301 -52.853995 
L 22.414108 -52.855759 
L 22.002916 -52.856981 
L 21.591724 -52.857806 
L 21.180532 -52.858343 
L 20.76934 -52.858682 
L 20.358148 -52.858899 
L 19.946956 -52.859057 
L 19.535764 -52.8592 
L 19.124572 -52.859347 
L 18.713379 -52.859491 
L 18.302187 -52.859605 
L 17.890995 -52.859651 
L 17.479803 -52.859602 
L 17.068611 -52.859444 
L 16.657419 -52.859188 
L 16.246227 -52.858862 
L 15.835035 -52.8585 
L 15.423842 -52.858129 
L 15.01265 -52.857764 
L 14.601458 -52.857406 
L 14.190266 -52.857035 
L 13.779074 -52.85662 
L 13.367882 -52.856102 
L 12.95669 -52.855388 
L 12.545498 -52.854318 
L 12.134305 -52.852645 
L 11.723113 -52.850012 
L 11.311921 -52.845961 
L 10.900729 -52.839983 
L 10.489537 -52.831621 
L 10.078345 -52.820614 
L 9.667153 -52.807067 
L 9.255961 -52.791588 
L 8.844768 -52.775333 
L 8.433576 -52.759921 
L 8.022384 -52.747195 
L 7.611192 -52.738877 
L 7.2 -52.736201 
z
"/>
    </defs>
    <g clip-path="url(#p153b0da84d)">
     <use xlink:href="#mc774e774a9" x="0" y="64.8" style="fill: #306c53; fill-opacity: 0.5"/>
    </g>
   </g>
   <g id="FillBetweenPolyCollection_2">
    <defs>
     <path id="me718c00d3f" d="M 7.2 -40.8078 
L 7.2 -48.2922 
L 7.610019 -48.284781 
L 8.020039 -48.204013 
L 8.430058 -48.056095 
L 8.840077 -47.851123 
L 9.250097 -47.602051 
L 9.660116 -47.323433 
L 10.070135 -47.030105 
L 10.480155 -46.735986 
L 10.890174 -46.453118 
L 11.300193 -46.191026 
L 11.710213 -45.956423 
L 12.120232 -45.753241 
L 12.530251 -45.582916 
L 12.940271 -45.44484 
L 13.35029 -45.336898 
L 13.760309 -45.256001 
L 14.170329 -45.198562 
L 14.580348 -45.160883 
L 14.990367 -45.139425 
L 15.400387 -45.130984 
L 15.810406 -45.132777 
L 16.220425 -45.142467 
L 16.630445 -45.158143 
L 17.040464 -45.178277 
L 17.450483 -45.201675 
L 17.860503 -45.227425 
L 18.270522 -45.254847 
L 18.680541 -45.283452 
L 19.090561 -45.312898 
L 19.50058 -45.342958 
L 19.910599 -45.373478 
L 20.320619 -45.404343 
L 20.730638 -45.435446 
L 21.140658 -45.466652 
L 21.550677 -45.497778 
L 21.960696 -45.528576 
L 22.370716 -45.558722 
L 22.780735 -45.587824 
L 23.190754 -45.615436 
L 23.600774 -45.64108 
L 24.010793 -45.664276 
L 24.420812 -45.684571 
L 24.830832 -45.70157 
L 25.240851 -45.714955 
L 25.65087 -45.724502 
L 26.06089 -45.730085 
L 26.470909 -45.731673 
L 26.880928 -45.729317 
L 27.290948 -45.723139 
L 27.700967 -45.71331 
L 28.110986 -45.700034 
L 28.521006 -45.683538 
L 28.931025 -45.66406 
L 29.341044 -45.641845 
L 29.751064 -45.61715 
L 30.161083 -45.590241 
L 30.571102 -45.561401 
L 30.981122 -45.530935 
L 31.391141 -45.499163 
L 31.80116 -45.466423 
L 32.21118 -45.43306 
L 32.621199 -45.399411 
L 33.031218 -45.365792 
L 33.441238 -45.332484 
L 33.851257 -45.299713 
L 34.261276 -45.267638 
L 34.671296 -45.236348 
L 35.081315 -45.205853 
L 35.491334 -45.176093 
L 35.901354 -45.146946 
L 36.311373 -45.118247 
L 36.721392 -45.089809 
L 37.131412 -45.061449 
L 37.541431 -45.033018 
L 37.95145 -45.00442 
L 38.36147 -44.975638 
L 38.771489 -44.946747 
L 39.181508 -44.917911 
L 39.591528 -44.889384 
L 40.001547 -44.861489 
L 40.411566 -44.834594 
L 40.821586 -44.809083 
L 41.231605 -44.785323 
L 41.641624 -44.763631 
L 42.051644 -44.74425 
L 42.461663 -44.727325 
L 42.871682 -44.712892 
L 43.281702 -44.700872 
L 43.691721 -44.691082 
L 44.10174 -44.683241 
L 44.51176 -44.676997 
L 44.921779 -44.67195 
L 45.331798 -44.66768 
L 45.741818 -44.663778 
L 46.151837 -44.659875 
L 46.561857 -44.655662 
L 46.971876 -44.65091 
L 47.381895 -44.645483 
L 47.791915 -44.639336 
L 47.791915 -44.460664 
L 47.791915 -44.460664 
L 47.381895 -44.454517 
L 46.971876 -44.44909 
L 46.561857 -44.444338 
L 46.151837 -44.440125 
L 45.741818 -44.436222 
L 45.331798 -44.43232 
L 44.921779 -44.42805 
L 44.51176 -44.423003 
L 44.10174 -44.416759 
L 43.691721 -44.408918 
L 43.281702 -44.399128 
L 42.871682 -44.387108 
L 42.461663 -44.372675 
L 42.051644 -44.35575 
L 41.641624 -44.336369 
L 41.231605 -44.314677 
L 40.821586 -44.290917 
L 40.411566 -44.265406 
L 40.001547 -44.238511 
L 39.591528 -44.210616 
L 39.181508 -44.182089 
L 38.771489 -44.153253 
L 38.36147 -44.124362 
L 37.95145 -44.09558 
L 37.541431 -44.066982 
L 37.131412 -44.038551 
L 36.721392 -44.010191 
L 36.311373 -43.981753 
L 35.901354 -43.953054 
L 35.491334 -43.923907 
L 35.081315 -43.894147 
L 34.671296 -43.863652 
L 34.261276 -43.832362 
L 33.851257 -43.800287 
L 33.441238 -43.767516 
L 33.031218 -43.734208 
L 32.621199 -43.700589 
L 32.21118 -43.66694 
L 31.80116 -43.633577 
L 31.391141 -43.600837 
L 30.981122 -43.569065 
L 30.571102 -43.538599 
L 30.161083 -43.509759 
L 29.751064 -43.48285 
L 29.341044 -43.458155 
L 28.931025 -43.43594 
L 28.521006 -43.416462 
L 28.110986 -43.399966 
L 27.700967 -43.38669 
L 27.290948 -43.376861 
L 26.880928 -43.370683 
L 26.470909 -43.368327 
L 26.06089 -43.369915 
L 25.65087 -43.375498 
L 25.240851 -43.385045 
L 24.830832 -43.39843 
L 24.420812 -43.415429 
L 24.010793 -43.435724 
L 23.600774 -43.45892 
L 23.190754 -43.484564 
L 22.780735 -43.512176 
L 22.370716 -43.541278 
L 21.960696 -43.571424 
L 21.550677 -43.602222 
L 21.140658 -43.633348 
L 20.730638 -43.664554 
L 20.320619 -43.695657 
L 19.910599 -43.726522 
L 19.50058 -43.757042 
L 19.090561 -43.787102 
L 18.680541 -43.816548 
L 18.270522 -43.845153 
L 17.860503 -43.872575 
L 17.450483 -43.898325 
L 17.040464 -43.921723 
L 16.630445 -43.941857 
L 16.220425 -43.957533 
L 15.810406 -43.967223 
L 15.400387 -43.969016 
L 14.990367 -43.960575 
L 14.580348 -43.939117 
L 14.170329 -43.901438 
L 13.760309 -43.843999 
L 13.35029 -43.763102 
L 12.940271 -43.65516 
L 12.530251 -43.517084 
L 12.120232 -43.346759 
L 11.710213 -43.143577 
L 11.300193 -42.908974 
L 10.890174 -42.646882 
L 10.480155 -42.364014 
L 10.070135 -42.069895 
L 9.660116 -41.776567 
L 9.250097 -41.497949 
L 8.840077 -41.248877 
L 8.430058 -41.043905 
L 8.020039 -40.895987 
L 7.610019 -40.815219 
L 7.2 -40.8078 
z
"/>
    </defs>
    <g clip-path="url(#p153b0da84d)">
     <use xlink:href="#me718c00d3f" x="0" y="64.8" style="fill: #c35843; fill-opacity: 0.5"/>
    </g>
   </g>
   <g id="FillBetweenPolyCollection_3">
    <defs>
     <path id="mde86a02b7a" d="M 7.2 -32.512801 
L 7.2 -39.955199 
L 7.613571 -39.9762 
L 8.027141 -39.970436 
L 8.440712 -39.938444 
L 8.854282 -39.881363 
L 9.267853 -39.800885 
L 9.681423 -39.699189 
L 10.094994 -39.57885 
L 10.508564 -39.442749 
L 10.922135 -39.293962 
L 11.335705 -39.135657 
L 11.749276 -38.970993 
L 12.162846 -38.803022 
L 12.576417 -38.63461 
L 12.989987 -38.468362 
L 13.403558 -38.306574 
L 13.817128 -38.151193 
L 14.230699 -38.003801 
L 14.644269 -37.865609 
L 15.05784 -37.73747 
L 15.471411 -37.619896 
L 15.884981 -37.513094 
L 16.298552 -37.417004 
L 16.712122 -37.331336 
L 17.125693 -37.255622 
L 17.539263 -37.189249 
L 17.952834 -37.131509 
L 18.366404 -37.08163 
L 18.779975 -37.038812 
L 19.193545 -37.00225 
L 19.607116 -36.971164 
L 20.020686 -36.944808 
L 20.434257 -36.922489 
L 20.847827 -36.903571 
L 21.261398 -36.887483 
L 21.674968 -36.873718 
L 22.088539 -36.861834 
L 22.502109 -36.85145 
L 22.91568 -36.842244 
L 23.32925 -36.83395 
L 23.742821 -36.826349 
L 24.156392 -36.819266 
L 24.569962 -36.812565 
L 24.983533 -36.806146 
L 25.397103 -36.799937 
L 25.810674 -36.793891 
L 26.224244 -36.787984 
L 26.637815 -36.782207 
L 27.051385 -36.776568 
L 27.464956 -36.771086 
L 27.878526 -36.765791 
L 28.292097 -36.760718 
L 28.705667 -36.755914 
L 29.119238 -36.751429 
L 29.532808 -36.747324 
L 29.946379 -36.743668 
L 30.359949 -36.740543 
L 30.77352 -36.738046 
L 31.18709 -36.736296 
L 31.600661 -36.735437 
L 32.014232 -36.735643 
L 32.427802 -36.737131 
L 32.841373 -36.74016 
L 33.254943 -36.745044 
L 33.668514 -36.752153 
L 34.082084 -36.761924 
L 34.495655 -36.774858 
L 34.909225 -36.791527 
L 35.322796 -36.812566 
L 35.736366 -36.838673 
L 36.149937 -36.870594 
L 36.563507 -36.909107 
L 36.977078 -36.955008 
L 37.390648 -37.009078 
L 37.804219 -37.072055 
L 38.217789 -37.144599 
L 38.63136 -37.227248 
L 39.04493 -37.320381 
L 39.458501 -37.424172 
L 39.872072 -37.538545 
L 40.285642 -37.663143 
L 40.699213 -37.797286 
L 41.112783 -37.939954 
L 41.526354 -38.089771 
L 41.939924 -38.245004 
L 42.353495 -38.403579 
L 42.767065 -38.563113 
L 43.180636 -38.720959 
L 43.594206 -38.874267 
L 44.007777 -39.020064 
L 44.421347 -39.15534 
L 44.834918 -39.277141 
L 45.248488 -39.382675 
L 45.662059 -39.469401 
L 46.075629 -39.535134 
L 46.4892 -39.578119 
L 46.90277 -39.597104 
L 47.316341 -39.591387 
L 47.729911 -39.560851 
L 48.143482 -39.505965 
L 48.143482 -32.962035 
L 48.143482 -32.962035 
L 47.729911 -32.907149 
L 47.316341 -32.876613 
L 46.90277 -32.870896 
L 46.4892 -32.889881 
L 46.075629 -32.932866 
L 45.662059 -32.998599 
L 45.248488 -33.085325 
L 44.834918 -33.190859 
L 44.421347 -33.31266 
L 44.007777 -33.447936 
L 43.594206 -33.593733 
L 43.180636 -33.747041 
L 42.767065 -33.904887 
L 42.353495 -34.064421 
L 41.939924 -34.222996 
L 41.526354 -34.378229 
L 41.112783 -34.528046 
L 40.699213 -34.670714 
L 40.285642 -34.804857 
L 39.872072 -34.929455 
L 39.458501 -35.043828 
L 39.04493 -35.147619 
L 38.63136 -35.240752 
L 38.217789 -35.323401 
L 37.804219 -35.395945 
L 37.390648 -35.458922 
L 36.977078 -35.512992 
L 36.563507 -35.558893 
L 36.149937 -35.597406 
L 35.736366 -35.629327 
L 35.322796 -35.655434 
L 34.909225 -35.676473 
L 34.495655 -35.693142 
L 34.082084 -35.706076 
L 33.668514 -35.715847 
L 33.254943 -35.722956 
L 32.841373 -35.72784 
L 32.427802 -35.730869 
L 32.014232 -35.732357 
L 31.600661 -35.732563 
L 31.18709 -35.731704 
L 30.77352 -35.729954 
L 30.359949 -35.727457 
L 29.946379 -35.724332 
L 29.532808 -35.720676 
L 29.119238 -35.716571 
L 28.705667 -35.712086 
L 28.292097 -35.707282 
L 27.878526 -35.702209 
L 27.464956 -35.696914 
L 27.051385 -35.691432 
L 26.637815 -35.685793 
L 26.224244 -35.680016 
L 25.810674 -35.674109 
L 25.397103 -35.668063 
L 24.983533 -35.661854 
L 24.569962 -35.655435 
L 24.156392 -35.648734 
L 23.742821 -35.641651 
L 23.32925 -35.63405 
L 22.91568 -35.625756 
L 22.502109 -35.61655 
L 22.088539 -35.606166 
L 21.674968 -35.594282 
L 21.261398 -35.580517 
L 20.847827 -35.564429 
L 20.434257 -35.545511 
L 20.020686 -35.523192 
L 19.607116 -35.496836 
L 19.193545 -35.46575 
L 18.779975 -35.429188 
L 18.366404 -35.38637 
L 17.952834 -35.336491 
L 17.539263 -35.278751 
L 17.125693 -35.212378 
L 16.712122 -35.136664 
L 16.298552 -35.050996 
L 15.884981 -34.954906 
L 15.471411 -34.848104 
L 15.05784 -34.73053 
L 14.644269 -34.602391 
L 14.230699 -34.464199 
L 13.817128 -34.316807 
L 13.403558 -34.161426 
L 12.989987 -33.999638 
L 12.576417 -33.83339 
L 12.162846 -33.664978 
L 11.749276 -33.497007 
L 11.335705 -33.332343 
L 10.922135 -33.174038 
L 10.508564 -33.025251 
L 10.094994 -32.88915 
L 9.681423 -32.768811 
L 9.267853 -32.667115 
L 8.854282 -32.586637 
L 8.440712 -32.529556 
L 8.027141 -32.497564 
L 7.613571 -32.4918 
L 7.2 -32.512801 
z
"/>
    </defs>
    <g clip-path="url(#p153b0da84d)">
     <use xlink:href="#mde86a02b7a" x="0" y="64.8" style="fill: #f0a394; fill-opacity: 0.5"/>
    </g>
   </g>
   <g id="FillBetweenPolyCollection_4">
    <defs>
     <path id="mb8dee4c371" d="M 7.2 -24.1758 
L 7.2 -31.6602 
L 7.611898 -31.639005 
L 8.023796 -31.542416 
L 8.435693 -31.376868 
L 8.847591 -31.15276 
L 9.259489 -30.883405 
L 9.671387 -30.583739 
L 10.083285 -30.268988 
L 10.495182 -29.953427 
L 10.90708 -29.649394 
L 11.318978 -29.36662 
L 11.730876 -29.111918 
L 12.142774 -28.889199 
L 12.554671 -28.699764 
L 12.966569 -28.54277 
L 13.378467 -28.415798 
L 13.790365 -28.31542 
L 14.202263 -28.237717 
L 14.61416 -28.178702 
L 15.026058 -28.13462 
L 15.437956 -28.102151 
L 15.849854 -28.078502 
L 16.261751 -28.061429 
L 16.673649 -28.0492 
L 17.085547 -28.040536 
L 17.497445 -28.034524 
L 17.909343 -28.03054 
L 18.32124 -28.028166 
L 18.733138 -28.027127 
L 19.145036 -28.02723 
L 19.556934 -28.028325 
L 19.968832 -28.030271 
L 20.380729 -28.032915 
L 20.792627 -28.036083 
L 21.204525 -28.039575 
L 21.616423 -28.043173 
L 22.028321 -28.046652 
L 22.440218 -28.04979 
L 22.852116 -28.052384 
L 23.264014 -28.054265 
L 23.675912 -28.055304 
L 24.08781 -28.055424 
L 24.499707 -28.054596 
L 24.911605 -28.052845 
L 25.323503 -28.050236 
L 25.735401 -28.046875 
L 26.147299 -28.042897 
L 26.559196 -28.038457 
L 26.971094 -28.033723 
L 27.382992 -28.028866 
L 27.79489 -28.024051 
L 28.206788 -28.019432 
L 28.618685 -28.015143 
L 29.030583 -28.011293 
L 29.442481 -28.007959 
L 29.854379 -28.00519 
L 30.266277 -28.002998 
L 30.678174 -28.001365 
L 31.090072 -28.000246 
L 31.50197 -27.999577 
L 31.913868 -27.999278 
L 32.325765 -27.999262 
L 32.737663 -27.999443 
L 33.149561 -27.999739 
L 33.561459 -28.00008 
L 33.973357 -28.000405 
L 34.385254 -28.000668 
L 34.797152 -28.000835 
L 35.20905 -28.000888 
L 35.620948 -28.000819 
L 36.032846 -28.000634 
L 36.444743 -28.000351 
L 36.856641 -27.999997 
L 37.268539 -27.999615 
L 37.680437 -27.999262 
L 38.092335 -27.999008 
L 38.504232 -27.998946 
L 38.91613 -27.999193 
L 39.328028 -27.999894 
L 39.739926 -28.001227 
L 40.151824 -28.003404 
L 40.563721 -28.006667 
L 40.975619 -28.011281 
L 41.387517 -28.01752 
L 41.799415 -28.025637 
L 42.211313 -28.035839 
L 42.62321 -28.048246 
L 43.035108 -28.062854 
L 43.447006 -28.079497 
L 43.858904 -28.097821 
L 44.270802 -28.117273 
L 44.682699 -28.137106 
L 45.094597 -28.156415 
L 45.506495 -28.174187 
L 45.918393 -28.18938 
L 46.330291 -28.20101 
L 46.742188 -28.208242 
L 47.154086 -28.210469 
L 47.565984 -28.207383 
L 47.977882 -28.199 
L 47.977882 -27.637 
L 47.977882 -27.637 
L 47.565984 -27.628617 
L 47.154086 -27.625531 
L 46.742188 -27.627758 
L 46.330291 -27.63499 
L 45.918393 -27.64662 
L 45.506495 -27.661813 
L 45.094597 -27.679585 
L 44.682699 -27.698894 
L 44.270802 -27.718727 
L 43.858904 -27.738179 
L 43.447006 -27.756503 
L 43.035108 -27.773146 
L 42.62321 -27.787754 
L 42.211313 -27.800161 
L 41.799415 -27.810363 
L 41.387517 -27.81848 
L 40.975619 -27.824719 
L 40.563721 -27.829333 
L 40.151824 -27.832596 
L 39.739926 -27.834773 
L 39.328028 -27.836106 
L 38.91613 -27.836807 
L 38.504232 -27.837054 
L 38.092335 -27.836992 
L 37.680437 -27.836738 
L 37.268539 -27.836385 
L 36.856641 -27.836003 
L 36.444743 -27.835649 
L 36.032846 -27.835366 
L 35.620948 -27.835181 
L 35.20905 -27.835112 
L 34.797152 -27.835165 
L 34.385254 -27.835332 
L 33.973357 -27.835595 
L 33.561459 -27.83592 
L 33.149561 -27.836261 
L 32.737663 -27.836557 
L 32.325765 -27.836738 
L 31.913868 -27.836722 
L 31.50197 -27.836423 
L 31.090072 -27.835754 
L 30.678174 -27.834635 
L 30.266277 -27.833002 
L 29.854379 -27.83081 
L 29.442481 -27.828041 
L 29.030583 -27.824707 
L 28.618685 -27.820857 
L 28.206788 -27.816568 
L 27.79489 -27.811949 
L 27.382992 -27.807134 
L 26.971094 -27.802277 
L 26.559196 -27.797543 
L 26.147299 -27.793103 
L 25.735401 -27.789125 
L 25.323503 -27.785764 
L 24.911605 -27.783155 
L 24.499707 -27.781404 
L 24.08781 -27.780576 
L 23.675912 -27.780696 
L 23.264014 -27.781735 
L 22.852116 -27.783616 
L 22.440218 -27.78621 
L 22.028321 -27.789348 
L 21.616423 -27.792827 
L 21.204525 -27.796425 
L 20.792627 -27.799917 
L 20.380729 -27.803085 
L 19.968832 -27.805729 
L 19.556934 -27.807675 
L 19.145036 -27.80877 
L 18.733138 -27.808873 
L 18.32124 -27.807834 
L 17.909343 -27.80546 
L 17.497445 -27.801476 
L 17.085547 -27.795464 
L 16.673649 -27.7868 
L 16.261751 -27.774571 
L 15.849854 -27.757498 
L 15.437956 -27.733849 
L 15.026058 -27.70138 
L 14.61416 -27.657298 
L 14.202263 -27.598283 
L 13.790365 -27.52058 
L 13.378467 -27.420202 
L 12.966569 -27.29323 
L 12.554671 -27.136236 
L 12.142774 -26.946801 
L 11.730876 -26.724082 
L 11.318978 -26.46938 
L 10.90708 -26.186606 
L 10.495182 -25.882573 
L 10.083285 -25.567012 
L 9.671387 -25.252261 
L 9.259489 -24.952595 
L 8.847591 -24.68324 
L 8.435693 -24.459132 
L 8.023796 -24.293584 
L 7.611898 -24.196995 
L 7.2 -24.1758 
z
"/>
    </defs>
    <g clip-path="url(#p153b0da84d)">
     <use xlink:href="#mb8dee4c371" x="0" y="64.8" style="fill: #8d3d2d; fill-opacity: 0.5"/>
    </g>
   </g>
   <g id="FillBetweenPolyCollection_5">
    <defs>
     <path id="mbf001a456a" d="M 7.2 -15.8598 
L 7.2 -23.3442 
L 7.609869 -23.326585 
L 8.019737 -23.270164 
L 8.429606 -23.176713 
L 8.839475 -23.049125 
L 9.249344 -22.891261 
L 9.659212 -22.707757 
L 10.069081 -22.503799 
L 10.47895 -22.284881 
L 10.888819 -22.05656 
L 11.298687 -21.824231 
L 11.708556 -21.592925 
L 12.118425 -21.367138 
L 12.528294 -21.150715 
L 12.938162 -20.946768 
L 13.348031 -20.757649 
L 13.7579 -20.584953 
L 14.167768 -20.429568 
L 14.577637 -20.291746 
L 14.987506 -20.171192 
L 15.397375 -20.067171 
L 15.807243 -19.978609 
L 16.217112 -19.904201 
L 16.626981 -19.842503 
L 17.03685 -19.792012 
L 17.446718 -19.751239 
L 17.856587 -19.718755 
L 18.266456 -19.693237 
L 18.676325 -19.673488 
L 19.086193 -19.658451 
L 19.496062 -19.647213 
L 19.905931 -19.639005 
L 20.315799 -19.633187 
L 20.725668 -19.629244 
L 21.135537 -19.626764 
L 21.545406 -19.625433 
L 21.955274 -19.625013 
L 22.365143 -19.625335 
L 22.775012 -19.626285 
L 23.184881 -19.627793 
L 23.594749 -19.62983 
L 24.004618 -19.632393 
L 24.414487 -19.635507 
L 24.824356 -19.639214 
L 25.234224 -19.643573 
L 25.644093 -19.648653 
L 26.053962 -19.654532 
L 26.46383 -19.661295 
L 26.873699 -19.669029 
L 27.283568 -19.67782 
L 27.693437 -19.687755 
L 28.103305 -19.698913 
L 28.513174 -19.711369 
L 28.923043 -19.725187 
L 29.332912 -19.740422 
L 29.74278 -19.757114 
L 30.152649 -19.775291 
L 30.562518 -19.794962 
L 30.972387 -19.816125 
L 31.382255 -19.838757 
L 31.792124 -19.862822 
L 32.201993 -19.888268 
L 32.611861 -19.915031 
L 33.02173 -19.943034 
L 33.431599 -19.97219 
L 33.841468 -20.002407 
L 34.251336 -20.033589 
L 34.661205 -20.065636 
L 35.071074 -20.098449 
L 35.480943 -20.13193 
L 35.890811 -20.165981 
L 36.30068 -20.200501 
L 36.710549 -20.235387 
L 37.120418 -20.270526 
L 37.530286 -20.305791 
L 37.940155 -20.341033 
L 38.350024 -20.376077 
L 38.759892 -20.410709 
L 39.169761 -20.444674 
L 39.57963 -20.477672 
L 39.989499 -20.509349 
L 40.399367 -20.539303 
L 40.809236 -20.567085 
L 41.219105 -20.592207 
L 41.628974 -20.614153 
L 42.038842 -20.632395 
L 42.448711 -20.64641 
L 42.85858 -20.6557 
L 43.268449 -20.659819 
L 43.678317 -20.65839 
L 44.088186 -20.651129 
L 44.498055 -20.637864 
L 44.907924 -20.618548 
L 45.317792 -20.593271 
L 45.727661 -20.562265 
L 46.13753 -20.525898 
L 46.547398 -20.48467 
L 46.957267 -20.439195 
L 47.367136 -20.390185 
L 47.777005 -20.338424 
L 47.777005 -18.865576 
L 47.777005 -18.865576 
L 47.367136 -18.813815 
L 46.957267 -18.764805 
L 46.547398 -18.71933 
L 46.13753 -18.678102 
L 45.727661 -18.641735 
L 45.317792 -18.610729 
L 44.907924 -18.585452 
L 44.498055 -18.566136 
L 44.088186 -18.552871 
L 43.678317 -18.54561 
L 43.268449 -18.544181 
L 42.85858 -18.5483 
L 42.448711 -18.55759 
L 42.038842 -18.571605 
L 41.628974 -18.589847 
L 41.219105 -18.611793 
L 40.809236 -18.636915 
L 40.399367 -18.664697 
L 39.989499 -18.694651 
L 39.57963 -18.726328 
L 39.169761 -18.759326 
L 38.759892 -18.793291 
L 38.350024 -18.827923 
L 37.940155 -18.862967 
L 37.530286 -18.898209 
L 37.120418 -18.933474 
L 36.710549 -18.968613 
L 36.30068 -19.003499 
L 35.890811 -19.038019 
L 35.480943 -19.07207 
L 35.071074 -19.105551 
L 34.661205 -19.138364 
L 34.251336 -19.170411 
L 33.841468 -19.201593 
L 33.431599 -19.23181 
L 33.02173 -19.260966 
L 32.611861 -19.288969 
L 32.201993 -19.315732 
L 31.792124 -19.341178 
L 31.382255 -19.365243 
L 30.972387 -19.387875 
L 30.562518 -19.409038 
L 30.152649 -19.428709 
L 29.74278 -19.446886 
L 29.332912 -19.463578 
L 28.923043 -19.478813 
L 28.513174 -19.492631 
L 28.103305 -19.505087 
L 27.693437 -19.516245 
L 27.283568 -19.52618 
L 26.873699 -19.534971 
L 26.46383 -19.542705 
L 26.053962 -19.549468 
L 25.644093 -19.555347 
L 25.234224 -19.560427 
L 24.824356 -19.564786 
L 24.414487 -19.568493 
L 24.004618 -19.571607 
L 23.594749 -19.57417 
L 23.184881 -19.576207 
L 22.775012 -19.577715 
L 22.365143 -19.578665 
L 21.955274 -19.578987 
L 21.545406 -19.578567 
L 21.135537 -19.577236 
L 20.725668 -19.574756 
L 20.315799 -19.570813 
L 19.905931 -19.564995 
L 19.496062 -19.556787 
L 19.086193 -19.545549 
L 18.676325 -19.530512 
L 18.266456 -19.510763 
L 17.856587 -19.485245 
L 17.446718 -19.452761 
L 17.03685 -19.411988 
L 16.626981 -19.361497 
L 16.217112 -19.299799 
L 15.807243 -19.225391 
L 15.397375 -19.136829 
L 14.987506 -19.032808 
L 14.577637 -18.912254 
L 14.167768 -18.774432 
L 13.7579 -18.619047 
L 13.348031 -18.446351 
L 12.938162 -18.257232 
L 12.528294 -18.053285 
L 12.118425 -17.836862 
L 11.708556 -17.611075 
L 11.298687 -17.379769 
L 10.888819 -17.14744 
L 10.47895 -16.919119 
L 10.069081 -16.700201 
L 9.659212 -16.496243 
L 9.249344 -16.312739 
L 8.839475 -16.154875 
L 8.429606 -16.027287 
L 8.019737 -15.933836 
L 7.609869 -15.877415 
L 7.2 -15.8598 
z
"/>
    </defs>
    <g clip-path="url(#p153b0da84d)">
     <use xlink:href="#mbf001a456a" x="0" y="64.8" style="fill: #e76f58; fill-opacity: 0.5"/>
    </g>
   </g>
   <g id="FillBetweenPolyCollection_6">
    <defs>
     <path id="madef6833c0" d="M 7.2 -11.014307 
L 7.2 -11.557693 
L 7.61027 -11.584929 
L 8.02054 -11.612671 
L 8.430811 -11.640812 
L 8.841081 -11.669249 
L 9.251351 -11.697874 
L 9.661621 -11.726559 
L 10.071891 -11.755151 
L 10.482161 -11.783463 
L 10.892432 -11.811275 
L 11.302702 -11.838345 
L 11.712972 -11.864414 
L 12.123242 -11.88923 
L 12.533512 -11.912567 
L 12.943782 -11.934245 
L 13.354053 -11.954151 
L 13.764323 -11.972253 
L 14.174593 -11.988613 
L 14.584863 -12.003386 
L 14.995133 -12.016818 
L 15.405403 -12.029229 
L 15.815674 -12.040997 
L 16.225944 -12.052529 
L 16.636214 -12.064234 
L 17.046484 -12.076491 
L 17.456754 -12.089622 
L 17.867024 -12.103869 
L 18.277295 -12.11938 
L 18.687565 -12.136195 
L 19.097835 -12.154253 
L 19.508105 -12.173399 
L 19.918375 -12.193398 
L 20.328645 -12.213959 
L 20.738916 -12.234756 
L 21.149186 -12.255455 
L 21.559456 -12.275731 
L 21.969726 -12.295289 
L 22.379996 -12.313876 
L 22.790266 -12.331285 
L 23.200537 -12.347363 
L 23.610807 -12.362004 
L 24.021077 -12.375152 
L 24.431347 -12.386787 
L 24.841617 -12.396925 
L 25.251887 -12.405609 
L 25.662158 -12.4129 
L 26.072428 -12.418872 
L 26.482698 -12.423603 
L 26.892968 -12.427174 
L 27.303238 -12.429656 
L 27.713508 -12.431112 
L 28.123779 -12.431589 
L 28.534049 -12.431123 
L 28.944319 -12.429735 
L 29.354589 -12.427446 
L 29.764859 -12.424275 
L 30.175129 -12.420258 
L 30.5854 -12.415454 
L 30.99567 -12.409959 
L 31.40594 -12.403911 
L 31.81621 -12.3975 
L 32.22648 -12.390965 
L 32.63675 -12.384591 
L 33.047021 -12.378709 
L 33.457291 -12.373684 
L 33.867561 -12.369915 
L 34.277831 -12.36783 
L 34.688101 -12.36789 
L 35.098371 -12.370602 
L 35.508642 -12.376535 
L 35.918912 -12.386341 
L 36.329182 -12.400786 
L 36.739452 -12.420767 
L 37.149722 -12.44734 
L 37.559992 -12.481723 
L 37.970263 -12.525294 
L 38.380533 -12.579559 
L 38.790803 -12.646095 
L 39.201073 -12.726468 
L 39.611343 -12.822114 
L 40.021613 -12.934191 
L 40.431884 -13.06341 
L 40.842154 -13.209844 
L 41.252424 -13.372748 
L 41.662694 -13.550384 
L 42.072964 -13.739891 
L 42.483234 -13.937227 
L 42.893505 -14.137175 
L 43.303775 -14.333472 
L 43.714045 -14.519027 
L 44.124315 -14.686259 
L 44.534585 -14.827519 
L 44.944855 -14.935571 
L 45.355126 -15.004102 
L 45.765396 -15.0282 
L 46.175666 -15.004762 
L 46.585936 -14.932781 
L 46.996206 -14.813483 
L 47.406476 -14.650291 
L 47.816747 -14.448614 
L 47.816747 -8.123386 
L 47.816747 -8.123386 
L 47.406476 -7.921709 
L 46.996206 -7.758517 
L 46.585936 -7.639219 
L 46.175666 -7.567238 
L 45.765396 -7.5438 
L 45.355126 -7.567898 
L 44.944855 -7.636429 
L 44.534585 -7.744481 
L 44.124315 -7.885741 
L 43.714045 -8.052973 
L 43.303775 -8.238528 
L 42.893505 -8.434825 
L 42.483234 -8.634773 
L 42.072964 -8.832109 
L 41.662694 -9.021616 
L 41.252424 -9.199252 
L 40.842154 -9.362156 
L 40.431884 -9.50859 
L 40.021613 -9.637809 
L 39.611343 -9.749886 
L 39.201073 -9.845532 
L 38.790803 -9.925905 
L 38.380533 -9.992441 
L 37.970263 -10.046706 
L 37.559992 -10.090277 
L 37.149722 -10.12466 
L 36.739452 -10.151233 
L 36.329182 -10.171214 
L 35.918912 -10.185659 
L 35.508642 -10.195465 
L 35.098371 -10.201398 
L 34.688101 -10.20411 
L 34.277831 -10.20417 
L 33.867561 -10.202085 
L 33.457291 -10.198316 
L 33.047021 -10.193291 
L 32.63675 -10.187409 
L 32.22648 -10.181035 
L 31.81621 -10.1745 
L 31.40594 -10.168089 
L 30.99567 -10.162041 
L 30.5854 -10.156546 
L 30.175129 -10.151742 
L 29.764859 -10.147725 
L 29.354589 -10.144554 
L 28.944319 -10.142265 
L 28.534049 -10.140877 
L 28.123779 -10.140411 
L 27.713508 -10.140888 
L 27.303238 -10.142344 
L 26.892968 -10.144826 
L 26.482698 -10.148397 
L 26.072428 -10.153128 
L 25.662158 -10.1591 
L 25.251887 -10.166391 
L 24.841617 -10.175075 
L 24.431347 -10.185213 
L 24.021077 -10.196848 
L 23.610807 -10.209996 
L 23.200537 -10.224637 
L 22.790266 -10.240715 
L 22.379996 -10.258124 
L 21.969726 -10.276711 
L 21.559456 -10.296269 
L 21.149186 -10.316545 
L 20.738916 -10.337244 
L 20.328645 -10.358041 
L 19.918375 -10.378602 
L 19.508105 -10.398601 
L 19.097835 -10.417747 
L 18.687565 -10.435805 
L 18.277295 -10.45262 
L 17.867024 -10.468131 
L 17.456754 -10.482378 
L 17.046484 -10.495509 
L 16.636214 -10.507766 
L 16.225944 -10.519471 
L 15.815674 -10.531003 
L 15.405403 -10.542771 
L 14.995133 -10.555182 
L 14.584863 -10.568614 
L 14.174593 -10.583387 
L 13.764323 -10.599747 
L 13.354053 -10.617849 
L 12.943782 -10.637755 
L 12.533512 -10.659433 
L 12.123242 -10.68277 
L 11.712972 -10.707586 
L 11.302702 -10.733655 
L 10.892432 -10.760725 
L 10.482161 -10.788537 
L 10.071891 -10.816849 
L 9.661621 -10.845441 
L 9.251351 -10.874126 
L 8.841081 -10.902751 
L 8.430811 -10.931188 
L 8.02054 -10.959329 
L 7.61027 -10.987071 
L 7.2 -11.014307 
z
"/>
    </defs>
    <g clip-path="url(#p153b0da84d)">
     <use xlink:href="#madef6833c0" x="0" y="64.8" style="fill: #126175; fill-opacity: 0.5"/>
    </g>
   </g>
   <g id="matplotlib.axis_1">
    <g id="xtick_1">
     <g id="line2d_1">
      <defs>
       <path id="md0b1e41698" d="M 0 0 
L 0 1.7 
" style="stroke: #000000; stroke-width: 0.25"/>
      </defs>
      <g>
       <use xlink:href="#md0b1e41698" x="7.2" y="58.672" style="stroke: #000000; stroke-width: 0.25"/>
      </g>
     </g>
     <g id="text_1">
      <text style="font-size: 6px; font-family: 'Arial'; text-anchor: middle" x="7.2" y="66.166687" transform="rotate(-0 7.2 66.166687)">0.0</text>
     </g>
    </g>
    <g id="xtick_2">
     <g id="line2d_2">
      <g>
       <use xlink:href="#md0b1e41698" x="27.490909" y="58.672" style="stroke: #000000; stroke-width: 0.25"/>
      </g>
     </g>
     <g id="text_2">
      <text style="font-size: 6px; font-family: 'Arial'; text-anchor: middle" x="27.490909" y="66.166687" transform="rotate(-0 27.490909 66.166687)">0.5</text>
     </g>
    </g>
    <g id="xtick_3">
     <g id="line2d_3">
      <g>
       <use xlink:href="#md0b1e41698" x="47.781818" y="58.672" style="stroke: #000000; stroke-width: 0.25"/>
      </g>
     </g>
     <g id="text_3">
      <text style="font-size: 6px; font-family: 'Arial'; text-anchor: middle" x="47.781818" y="66.166687" transform="rotate(-0 47.781818 66.166687)">1.0</text>
     </g>
    </g>
    <g id="text_4">
     <text style="font-size: 8px; font-family: 'Arial'" transform="translate(-0.9275 74.585437)">motor rhythmicity</text>
     <text style="font-size: 8px; font-family: 'Arial'" transform="translate(19.739375 83.140687)">score</text>
    </g>
   </g>
   <g id="matplotlib.axis_2">
    <g id="ytick_1">
     <g id="line2d_4">
      <defs>
       <path id="m49ce5ebe45" d="M 0 0 
L -1.7 0 
" style="stroke: #000000; stroke-width: 0.25"/>
      </defs>
      <g>
       <use xlink:href="#m49ce5ebe45" x="5.2" y="11.934" style="stroke: #000000; stroke-width: 0.25"/>
      </g>
     </g>
     <g id="text_5">
      <text style="font-size: 6px; font-family: 'Arial'; text-anchor: end" x="2" y="14.081344" transform="rotate(-0 2 14.081344)">none</text>
     </g>
    </g>
    <g id="ytick_2">
     <g id="line2d_5">
      <g>
       <use xlink:href="#m49ce5ebe45" x="5.2" y="20.25" style="stroke: #000000; stroke-width: 0.25"/>
      </g>
     </g>
     <g id="text_6">
      <text style="font-size: 6px; font-family: 'Arial'; text-anchor: end" x="2" y="22.397344" transform="rotate(-0 2 22.397344)">E1</text>
     </g>
    </g>
    <g id="ytick_3">
     <g id="line2d_6">
      <g>
       <use xlink:href="#m49ce5ebe45" x="5.2" y="28.566" style="stroke: #000000; stroke-width: 0.25"/>
      </g>
     </g>
     <g id="text_7">
      <text style="font-size: 6px; font-family: 'Arial'; text-anchor: end" x="2" y="30.713344" transform="rotate(-0 2 30.713344)">E2</text>
     </g>
    </g>
    <g id="ytick_4">
     <g id="line2d_7">
      <g>
       <use xlink:href="#m49ce5ebe45" x="5.2" y="36.882" style="stroke: #000000; stroke-width: 0.25"/>
      </g>
     </g>
     <g id="text_8">
      <text style="font-size: 6px; font-family: 'Arial'; text-anchor: end" x="2" y="39.029344" transform="rotate(-0 2 39.029344)">E3</text>
     </g>
    </g>
    <g id="ytick_5">
     <g id="line2d_8">
      <g>
       <use xlink:href="#m49ce5ebe45" x="5.2" y="45.198" style="stroke: #000000; stroke-width: 0.25"/>
      </g>
     </g>
     <g id="text_9">
      <text style="font-size: 6px; font-family: 'Arial'; text-anchor: end" x="2" y="47.345344" transform="rotate(-0 2 47.345344)">E4</text>
     </g>
    </g>
    <g id="ytick_6">
     <g id="line2d_9">
      <g>
       <use xlink:href="#m49ce5ebe45" x="5.2" y="53.514" style="stroke: #000000; stroke-width: 0.25"/>
      </g>
     </g>
     <g id="text_10">
      <text style="font-size: 6px; font-family: 'Arial'; text-anchor: end" x="2" y="55.661344" transform="rotate(-0 2 55.661344)">I2</text>
     </g>
    </g>
    <g id="text_11">
     <text style="font-size: 8px; font-family: 'Arial'; text-anchor: middle" x="-14.43625" y="32.724" transform="rotate(-90 -14.43625 32.724)">silenced neuron</text>
    </g>
   </g>
   <g id="patch_3">
    <path d="M 44.751947 11.1024 
L 44.751947 12.7656 
L 47.722843 12.7656 
L 47.722843 11.1024 
L 44.751947 11.1024 
z
" clip-path="url(#p153b0da84d)" style="fill: #306c53; stroke: #282828; stroke-width: 0.75; stroke-linejoin: miter"/>
   </g>
   <g id="line2d_10">
    <path d="M 44.751947 11.934 
L 40.327897 11.934 
" clip-path="url(#p153b0da84d)" style="fill: none; stroke: #282828; stroke-width: 0.75"/>
   </g>
   <g id="line2d_11">
    <path d="M 47.722843 11.934 
L 47.90802 11.934 
" clip-path="url(#p153b0da84d)" style="fill: none; stroke: #282828; stroke-width: 0.75"/>
   </g>
   <g id="line2d_12">
    <path d="M 40.327897 11.5182 
L 40.327897 12.3498 
" clip-path="url(#p153b0da84d)" style="fill: none; stroke: #282828; stroke-width: 0.75; stroke-linecap: square"/>
   </g>
   <g id="line2d_13">
    <path d="M 47.90802 11.5182 
L 47.90802 12.3498 
" clip-path="url(#p153b0da84d)" style="fill: none; stroke: #282828; stroke-width: 0.75; stroke-linecap: square"/>
   </g>
   <g id="patch_4">
    <path d="M 7.2 19.4184 
L 7.2 21.0816 
L 26.245428 21.0816 
L 26.245428 19.4184 
L 7.2 19.4184 
z
" clip-path="url(#p153b0da84d)" style="fill: #c35843; stroke: #282828; stroke-width: 0.75; stroke-linejoin: miter"/>
   </g>
   <g id="line2d_14">
    <path d="M 7.2 20.25 
L 7.2 20.25 
" clip-path="url(#p153b0da84d)" style="fill: none; stroke: #282828; stroke-width: 0.75"/>
   </g>
   <g id="line2d_15">
    <path d="M 26.245428 20.25 
L 47.791915 20.25 
" clip-path="url(#p153b0da84d)" style="fill: none; stroke: #282828; stroke-width: 0.75"/>
   </g>
   <g id="line2d_16">
    <path d="M 7.2 19.8342 
L 7.2 20.6658 
" clip-path="url(#p153b0da84d)" style="fill: none; stroke: #282828; stroke-width: 0.75; stroke-linecap: square"/>
   </g>
   <g id="line2d_17">
    <path d="M 47.791915 19.8342 
L 47.791915 20.6658 
" clip-path="url(#p153b0da84d)" style="fill: none; stroke: #282828; stroke-width: 0.75; stroke-linecap: square"/>
   </g>
   <g id="patch_5">
    <path d="M 7.2 27.7344 
L 7.2 29.3976 
L 47.175854 29.3976 
L 47.175854 27.7344 
L 7.2 27.7344 
z
" clip-path="url(#p153b0da84d)" style="fill: #f0a394; stroke: #282828; stroke-width: 0.75; stroke-linejoin: miter"/>
   </g>
   <g id="line2d_18">
    <path d="M 7.2 28.566 
L 7.2 28.566 
" clip-path="url(#p153b0da84d)" style="fill: none; stroke: #282828; stroke-width: 0.75"/>
   </g>
   <g id="line2d_19">
    <path d="M 47.175854 28.566 
L 48.143482 28.566 
" clip-path="url(#p153b0da84d)" style="fill: none; stroke: #282828; stroke-width: 0.75"/>
   </g>
   <g id="line2d_20">
    <path d="M 7.2 28.1502 
L 7.2 28.9818 
" clip-path="url(#p153b0da84d)" style="fill: none; stroke: #282828; stroke-width: 0.75; stroke-linecap: square"/>
   </g>
   <g id="line2d_21">
    <path d="M 48.143482 28.1502 
L 48.143482 28.9818 
" clip-path="url(#p153b0da84d)" style="fill: none; stroke: #282828; stroke-width: 0.75; stroke-linecap: square"/>
   </g>
   <g id="patch_6">
    <path d="M 7.2 36.0504 
L 7.2 37.7136 
L 7.2 37.7136 
L 7.2 36.0504 
L 7.2 36.0504 
z
" clip-path="url(#p153b0da84d)" style="fill: #8d3d2d; stroke: #282828; stroke-width: 0.75; stroke-linejoin: miter"/>
   </g>
   <g id="line2d_22">
    <path d="M 7.2 36.882 
L 7.2 36.882 
" clip-path="url(#p153b0da84d)" style="fill: none; stroke: #282828; stroke-width: 0.75"/>
   </g>
   <g id="line2d_23">
    <path d="M 7.2 36.882 
L 7.2 36.882 
" clip-path="url(#p153b0da84d)" style="fill: none; stroke: #282828; stroke-width: 0.75"/>
   </g>
   <g id="line2d_24">
    <path d="M 7.2 36.4662 
L 7.2 37.2978 
" clip-path="url(#p153b0da84d)" style="fill: none; stroke: #282828; stroke-width: 0.75; stroke-linecap: square"/>
   </g>
   <g id="line2d_25">
    <path d="M 7.2 36.4662 
L 7.2 37.2978 
" clip-path="url(#p153b0da84d)" style="fill: none; stroke: #282828; stroke-width: 0.75; stroke-linecap: square"/>
   </g>
   <g id="patch_7">
    <path d="M 7.2 44.3664 
L 7.2 46.0296 
L 36.634877 46.0296 
L 36.634877 44.3664 
L 7.2 44.3664 
z
" clip-path="url(#p153b0da84d)" style="fill: #e76f58; stroke: #282828; stroke-width: 0.75; stroke-linejoin: miter"/>
   </g>
   <g id="line2d_26">
    <path d="M 7.2 45.198 
L 7.2 45.198 
" clip-path="url(#p153b0da84d)" style="fill: none; stroke: #282828; stroke-width: 0.75"/>
   </g>
   <g id="line2d_27">
    <path d="M 36.634877 45.198 
L 47.777005 45.198 
" clip-path="url(#p153b0da84d)" style="fill: none; stroke: #282828; stroke-width: 0.75"/>
   </g>
   <g id="line2d_28">
    <path d="M 7.2 44.7822 
L 7.2 45.6138 
" clip-path="url(#p153b0da84d)" style="fill: none; stroke: #282828; stroke-width: 0.75; stroke-linecap: square"/>
   </g>
   <g id="line2d_29">
    <path d="M 47.777005 44.7822 
L 47.777005 45.6138 
" clip-path="url(#p153b0da84d)" style="fill: none; stroke: #282828; stroke-width: 0.75; stroke-linecap: square"/>
   </g>
   <g id="patch_8">
    <path d="M 26.85055 52.6824 
L 26.85055 54.3456 
L 46.02458 54.3456 
L 46.02458 52.6824 
L 26.85055 52.6824 
z
" clip-path="url(#p153b0da84d)" style="fill: #126175; stroke: #282828; stroke-width: 0.75; stroke-linejoin: miter"/>
   </g>
   <g id="line2d_30">
    <path d="M 26.85055 53.514 
L 7.2 53.514 
" clip-path="url(#p153b0da84d)" style="fill: none; stroke: #282828; stroke-width: 0.75"/>
   </g>
   <g id="line2d_31">
    <path d="M 46.02458 53.514 
L 47.816747 53.514 
" clip-path="url(#p153b0da84d)" style="fill: none; stroke: #282828; stroke-width: 0.75"/>
   </g>
   <g id="line2d_32">
    <path d="M 7.2 53.0982 
L 7.2 53.9298 
" clip-path="url(#p153b0da84d)" style="fill: none; stroke: #282828; stroke-width: 0.75; stroke-linecap: square"/>
   </g>
   <g id="line2d_33">
    <path d="M 47.816747 53.0982 
L 47.816747 53.9298 
" clip-path="url(#p153b0da84d)" style="fill: none; stroke: #282828; stroke-width: 0.75; stroke-linecap: square"/>
   </g>
   <g id="line2d_34">
    <path d="M 47.217509 11.1024 
L 47.217509 12.7656 
" clip-path="url(#p153b0da84d)" style="fill: none; stroke: #282828; stroke-width: 0.75"/>
   </g>
   <g id="line2d_35">
    <path d="M 8.890882 19.4184 
L 8.890882 21.0816 
" clip-path="url(#p153b0da84d)" style="fill: none; stroke: #282828; stroke-width: 0.75"/>
   </g>
   <g id="line2d_36">
    <path d="M 21.378597 27.7344 
L 21.378597 29.3976 
" clip-path="url(#p153b0da84d)" style="fill: none; stroke: #282828; stroke-width: 0.75"/>
   </g>
   <g id="line2d_37">
    <path d="M 7.2 36.0504 
L 7.2 37.7136 
" clip-path="url(#p153b0da84d)" style="fill: none; stroke: #282828; stroke-width: 0.75"/>
   </g>
   <g id="line2d_38">
    <path d="M 7.2 44.3664 
L 7.2 46.0296 
" clip-path="url(#p153b0da84d)" style="fill: none; stroke: #282828; stroke-width: 0.75"/>
   </g>
   <g id="line2d_39">
    <path d="M 41.031854 52.6824 
L 41.031854 54.3456 
" clip-path="url(#p153b0da84d)" style="fill: none; stroke: #282828; stroke-width: 0.75"/>
   </g>
   <g id="patch_9">
    <path d="M 5.2 57.672 
L 5.2 7.776 
" style="fill: none; stroke: #000000; stroke-width: 0.25; stroke-linejoin: miter; stroke-linecap: square"/>
   </g>
   <g id="patch_10">
    <path d="M 7.2 58.672 
L 51.84 58.672 
" style="fill: none; stroke: #000000; stroke-width: 0.25; stroke-linejoin: miter; stroke-linecap: square"/>
   </g>
  </g>
 </g>
 <defs>
  <clipPath id="p153b0da84d">
   <rect x="7.2" y="7.776" width="44.64" height="49.896"/>
  </clipPath>
 </defs>
</svg>
