<?xml version="1.0" encoding="utf-8" standalone="no"?>
<!DOCTYPE svg PUBLIC "-//W3C//DTD SVG 1.1//EN"
  "http://www.w3.org/Graphics/SVG/1.1/DTD/svg11.dtd">
<svg xmlns:xlink="http://www.w3.org/1999/xlink" width="72pt" height="50.4pt" viewBox="0 0 72 50.4" xmlns="http://www.w3.org/2000/svg" version="1.1">
 <metadata>
  <rdf:RDF xmlns:dc="http://purl.org/dc/elements/1.1/" xmlns:cc="http://creativecommons.org/ns#" xmlns:rdf="http://www.w3.org/1999/02/22-rdf-syntax-ns#">
   <cc:Work>
    <dc:type rdf:resource="http://purl.org/dc/dcmitype/StillImage"/>
    <dc:date>2025-09-09T22:57:34.017982</dc:date>
    <dc:format>image/svg+xml</dc:format>
    <dc:creator>
     <cc:Agent>
      <dc:title>Matplotlib v3.10.3, https://matplotlib.org/</dc:title>
     </cc:Agent>
    </dc:creator>
   </cc:Work>
  </rdf:RDF>
 </metadata>
 <defs>
  <style type="text/css">*{stroke-linejoin: round; stroke-linecap: butt}</style>
 </defs>
 <g id="figure_1">
  <g id="patch_1">
   <path d="M 0 50.4 
L 72 50.4 
L 72 0 
L 0 0 
L 0 50.4 
z
" style="fill: none; opacity: 0"/>
  </g>
  <g id="axes_1">
   <g id="patch_2">
    <path d="M 9 12.25728 
L 64.8 12.25728 
L 64.8 6.048 
L 9 6.048 
L 9 12.25728 
z
" style="fill: none; opacity: 0"/>
   </g>
   <g id="patch_3">
    <path d="M 9 12.251228 
L 14.072727 12.251228 
L 14.072727 12.093878 
L 9 12.093878 
z
" clip-path="url(#pbb62743b9e)" style="fill: #267655; fill-opacity: 0.5"/>
   </g>
   <g id="patch_4">
    <path d="M 14.072727 12.251228 
L 19.145455 12.251228 
L 19.145455 12.245176 
L 14.072727 12.245176 
z
" clip-path="url(#pbb62743b9e)" style="fill: #267655; fill-opacity: 0.5"/>
   </g>
   <g id="patch_5">
    <path d="M 19.145455 12.251228 
L 24.218182 12.251228 
L 24.218182 12.245176 
L 19.145455 12.245176 
z
" clip-path="url(#pbb62743b9e)" style="fill: #267655; fill-opacity: 0.5"/>
   </g>
   <g id="patch_6">
    <path d="M 24.218182 12.251228 
L 29.290909 12.251228 
L 29.290909 12.239124 
L 24.218182 12.239124 
z
" clip-path="url(#pbb62743b9e)" style="fill: #267655; fill-opacity: 0.5"/>
   </g>
   <g id="patch_7">
    <path d="M 29.290909 12.251228 
L 34.363636 12.251228 
L 34.363636 12.184657 
L 29.290909 12.184657 
z
" clip-path="url(#pbb62743b9e)" style="fill: #267655; fill-opacity: 0.5"/>
   </g>
   <g id="patch_8">
    <path d="M 34.363636 12.251228 
L 39.436364 12.251228 
L 39.436364 12.202813 
L 34.363636 12.202813 
z
" clip-path="url(#pbb62743b9e)" style="fill: #267655; fill-opacity: 0.5"/>
   </g>
   <g id="patch_9">
    <path d="M 39.436364 12.251228 
L 44.509091 12.251228 
L 44.509091 12.087826 
L 39.436364 12.087826 
z
" clip-path="url(#pbb62743b9e)" style="fill: #267655; fill-opacity: 0.5"/>
   </g>
   <g id="patch_10">
    <path d="M 44.509091 12.251228 
L 49.581818 12.251228 
L 49.581818 11.857853 
L 44.509091 11.857853 
z
" clip-path="url(#pbb62743b9e)" style="fill: #267655; fill-opacity: 0.5"/>
   </g>
   <g id="patch_11">
    <path d="M 49.581818 12.251228 
L 54.654545 12.251228 
L 54.654545 11.827593 
L 49.581818 11.827593 
z
" clip-path="url(#pbb62743b9e)" style="fill: #267655; fill-opacity: 0.5"/>
   </g>
   <g id="patch_12">
    <path d="M 54.654545 12.251228 
L 59.727273 12.251228 
L 59.727273 7.609398 
L 54.654545 7.609398 
z
" clip-path="url(#pbb62743b9e)" style="fill: #267655; fill-opacity: 0.5"/>
   </g>
   <g id="patch_13">
    <path d="M 59.727273 12.251228 
L 64.8 12.251228 
L 64.8 11.972839 
L 59.727273 11.972839 
z
" clip-path="url(#pbb62743b9e)" style="fill: #267655; fill-opacity: 0.5"/>
   </g>
   <g id="patch_14">
    <path d="M 64.8 12.251228 
L 69.872727 12.251228 
L 69.872727 12.251228 
L 64.8 12.251228 
z
" clip-path="url(#pbb62743b9e)" style="fill: #267655; fill-opacity: 0.5"/>
   </g>
   <g id="patch_15">
    <path d="M 69.872727 12.251228 
L 74.945455 12.251228 
L 74.945455 12.251228 
L 69.872727 12.251228 
z
" clip-path="url(#pbb62743b9e)" style="fill: #267655; fill-opacity: 0.5"/>
   </g>
   <g id="patch_16">
    <path d="M 74.945455 12.251228 
L 80.018182 12.251228 
L 80.018182 12.251228 
L 74.945455 12.251228 
z
" clip-path="url(#pbb62743b9e)" style="fill: #267655; fill-opacity: 0.5"/>
   </g>
   <g id="matplotlib.axis_1">
    <g id="xtick_1">
     <g id="line2d_1">
      <defs>
       <path id="m6005de6377" d="M 0 0 
L 0 1.7 
" style="stroke: #000000; stroke-opacity: 0; stroke-width: 0.25"/>
      </defs>
      <g>
       <use xlink:href="#m6005de6377" x="9" y="13.25728" style="fill-opacity: 0; stroke: #000000; stroke-opacity: 0; stroke-width: 0.25"/>
      </g>
     </g>
    </g>
    <g id="xtick_2">
     <g id="line2d_2">
      <g>
       <use xlink:href="#m6005de6377" x="34.363636" y="13.25728" style="fill-opacity: 0; stroke: #000000; stroke-opacity: 0; stroke-width: 0.25"/>
      </g>
     </g>
    </g>
    <g id="xtick_3">
     <g id="line2d_3">
      <g>
       <use xlink:href="#m6005de6377" x="59.727273" y="13.25728" style="fill-opacity: 0; stroke: #000000; stroke-opacity: 0; stroke-width: 0.25"/>
      </g>
     </g>
    </g>
   </g>
   <g id="matplotlib.axis_2">
    <g id="ytick_1">
     <g id="line2d_4">
      <defs>
       <path id="me3111d8a86" d="M 0 0 
L -1.7 0 
" style="stroke: #000000; stroke-width: 0.25"/>
      </defs>
      <g>
       <use xlink:href="#me3111d8a86" x="8" y="12.251228" style="stroke: #000000; stroke-width: 0.25"/>
      </g>
     </g>
     <g id="text_1">
      <text style="font-size: 6px; font-family: 'Arial'; text-anchor: end" x="4.8" y="14.398572" transform="rotate(-0 4.8 14.398572)">0</text>
     </g>
    </g>
   </g>
   <g id="line2d_5">
    <path d="M 9 12.118651 
L 41.730066 12.088559 
L 52.725323 11.57288 
L 54.003841 11.229255 
L 55.026656 10.75398 
L 56.305174 9.887981 
L 58.0951 8.651613 
L 58.86221 8.428472 
L 59.373618 8.455902 
L 59.885025 8.631172 
L 59.885025 8.631172 
" clip-path="url(#pbb62743b9e)" style="fill: none; stroke: #267655; stroke-width: 0.5; stroke-linecap: square"/>
   </g>
   <g id="patch_17">
    <path d="M 8 12.25728 
L 8 6.048 
" style="fill: none; stroke: #000000; stroke-width: 0.25; stroke-linejoin: miter; stroke-linecap: square"/>
   </g>
  </g>
  <g id="axes_2">
   <g id="patch_18">
    <path d="M 9 18.777024 
L 64.8 18.777024 
L 64.8 12.567744 
L 9 12.567744 
L 9 18.777024 
z
" style="fill: none; opacity: 0"/>
   </g>
   <g id="patch_19">
    <path d="M 9 18.770972 
L 14.072727 18.770972 
L 14.072727 15.527138 
L 9 15.527138 
z
" clip-path="url(#p647da2be5c)" style="fill: #d84a2e; fill-opacity: 0.5"/>
   </g>
   <g id="patch_20">
    <path d="M 14.072727 18.770972 
L 19.145455 18.770972 
L 19.145455 18.528895 
L 14.072727 18.528895 
z
" clip-path="url(#p647da2be5c)" style="fill: #d84a2e; fill-opacity: 0.5"/>
   </g>
   <g id="patch_21">
    <path d="M 19.145455 18.770972 
L 24.218182 18.770972 
L 24.218182 18.462324 
L 19.145455 18.462324 
z
" clip-path="url(#p647da2be5c)" style="fill: #d84a2e; fill-opacity: 0.5"/>
   </g>
   <g id="patch_22">
    <path d="M 24.218182 18.770972 
L 29.290909 18.770972 
L 29.290909 18.335233 
L 24.218182 18.335233 
z
" clip-path="url(#p647da2be5c)" style="fill: #d84a2e; fill-opacity: 0.5"/>
   </g>
   <g id="patch_23">
    <path d="M 29.290909 18.770972 
L 34.363636 18.770972 
L 34.363636 18.050792 
L 29.290909 18.050792 
z
" clip-path="url(#p647da2be5c)" style="fill: #d84a2e; fill-opacity: 0.5"/>
   </g>
   <g id="patch_24">
    <path d="M 34.363636 18.770972 
L 39.436364 18.770972 
L 39.436364 18.244454 
L 34.363636 18.244454 
z
" clip-path="url(#p647da2be5c)" style="fill: #d84a2e; fill-opacity: 0.5"/>
   </g>
   <g id="patch_25">
    <path d="M 39.436364 18.770972 
L 44.509091 18.770972 
L 44.509091 18.426012 
L 39.436364 18.426012 
z
" clip-path="url(#p647da2be5c)" style="fill: #d84a2e; fill-opacity: 0.5"/>
   </g>
   <g id="patch_26">
    <path d="M 44.509091 18.770972 
L 49.581818 18.770972 
L 49.581818 18.534947 
L 44.509091 18.534947 
z
" clip-path="url(#p647da2be5c)" style="fill: #d84a2e; fill-opacity: 0.5"/>
   </g>
   <g id="patch_27">
    <path d="M 49.581818 18.770972 
L 54.654545 18.770972 
L 54.654545 18.716505 
L 49.581818 18.716505 
z
" clip-path="url(#p647da2be5c)" style="fill: #d84a2e; fill-opacity: 0.5"/>
   </g>
   <g id="patch_28">
    <path d="M 54.654545 18.770972 
L 59.727273 18.770972 
L 59.727273 18.692297 
L 54.654545 18.692297 
z
" clip-path="url(#p647da2be5c)" style="fill: #d84a2e; fill-opacity: 0.5"/>
   </g>
   <g id="patch_29">
    <path d="M 59.727273 18.770972 
L 64.8 18.770972 
L 64.8 18.76492 
L 59.727273 18.76492 
z
" clip-path="url(#p647da2be5c)" style="fill: #d84a2e; fill-opacity: 0.5"/>
   </g>
   <g id="patch_30">
    <path d="M 64.8 18.770972 
L 69.872727 18.770972 
L 69.872727 18.770972 
L 64.8 18.770972 
z
" clip-path="url(#p647da2be5c)" style="fill: #d84a2e; fill-opacity: 0.5"/>
   </g>
   <g id="patch_31">
    <path d="M 69.872727 18.770972 
L 74.945455 18.770972 
L 74.945455 18.770972 
L 69.872727 18.770972 
z
" clip-path="url(#p647da2be5c)" style="fill: #d84a2e; fill-opacity: 0.5"/>
   </g>
   <g id="patch_32">
    <path d="M 74.945455 18.770972 
L 80.018182 18.770972 
L 80.018182 18.770972 
L 74.945455 18.770972 
z
" clip-path="url(#p647da2be5c)" style="fill: #d84a2e; fill-opacity: 0.5"/>
   </g>
   <g id="matplotlib.axis_3">
    <g id="xtick_4">
     <g id="line2d_6">
      <g>
       <use xlink:href="#m6005de6377" x="9" y="19.777024" style="fill-opacity: 0; stroke: #000000; stroke-opacity: 0; stroke-width: 0.25"/>
      </g>
     </g>
    </g>
    <g id="xtick_5">
     <g id="line2d_7">
      <g>
       <use xlink:href="#m6005de6377" x="34.363636" y="19.777024" style="fill-opacity: 0; stroke: #000000; stroke-opacity: 0; stroke-width: 0.25"/>
      </g>
     </g>
    </g>
    <g id="xtick_6">
     <g id="line2d_8">
      <g>
       <use xlink:href="#m6005de6377" x="59.727273" y="19.777024" style="fill-opacity: 0; stroke: #000000; stroke-opacity: 0; stroke-width: 0.25"/>
      </g>
     </g>
    </g>
   </g>
   <g id="matplotlib.axis_4">
    <g id="ytick_2">
     <g id="line2d_9">
      <g>
       <use xlink:href="#me3111d8a86" x="8" y="18.770972" style="stroke: #000000; stroke-width: 0.25"/>
      </g>
     </g>
     <g id="text_2">
      <text style="font-size: 6px; font-family: 'Arial'; text-anchor: end" x="4.8" y="20.918316" transform="rotate(-0 4.8 20.918316)">0</text>
     </g>
    </g>
   </g>
   <g id="line2d_10">
    <path d="M 9 16.90687 
L 10.274872 16.977664 
L 11.804718 17.304251 
L 15.629333 18.230853 
L 17.669127 18.427346 
L 20.72882 18.460496 
L 38.831997 18.29188 
L 56.170252 18.711242 
L 59.739893 18.726959 
L 59.739893 18.726959 
" clip-path="url(#p647da2be5c)" style="fill: none; stroke: #d84a2e; stroke-width: 0.5; stroke-linecap: square"/>
   </g>
   <g id="patch_33">
    <path d="M 8 18.777024 
L 8 12.567744 
" style="fill: none; stroke: #000000; stroke-width: 0.25; stroke-linejoin: miter; stroke-linecap: square"/>
   </g>
  </g>
  <g id="axes_3">
   <g id="patch_34">
    <path d="M 9 25.296768 
L 64.8 25.296768 
L 64.8 19.087488 
L 9 19.087488 
L 9 25.296768 
z
" style="fill: none; opacity: 0"/>
   </g>
   <g id="patch_35">
    <path d="M 9 25.290716 
L 14.072727 25.290716 
L 14.072727 22.639971 
L 9 22.639971 
z
" clip-path="url(#p3aebedeb4d)" style="fill: #ff9985; fill-opacity: 0.5"/>
   </g>
   <g id="patch_36">
    <path d="M 14.072727 25.290716 
L 19.145455 25.290716 
L 19.145455 25.08495 
L 14.072727 25.08495 
z
" clip-path="url(#p3aebedeb4d)" style="fill: #ff9985; fill-opacity: 0.5"/>
   </g>
   <g id="patch_37">
    <path d="M 19.145455 25.290716 
L 24.218182 25.290716 
L 24.218182 25.139418 
L 19.145455 25.139418 
z
" clip-path="url(#p3aebedeb4d)" style="fill: #ff9985; fill-opacity: 0.5"/>
   </g>
   <g id="patch_38">
    <path d="M 24.218182 25.290716 
L 29.290909 25.290716 
L 29.290909 25.121262 
L 24.218182 25.121262 
z
" clip-path="url(#p3aebedeb4d)" style="fill: #ff9985; fill-opacity: 0.5"/>
   </g>
   <g id="patch_39">
    <path d="M 29.290909 25.290716 
L 34.363636 25.290716 
L 34.363636 25.127314 
L 29.290909 25.127314 
z
" clip-path="url(#p3aebedeb4d)" style="fill: #ff9985; fill-opacity: 0.5"/>
   </g>
   <g id="patch_40">
    <path d="M 34.363636 25.290716 
L 39.436364 25.290716 
L 39.436364 25.193885 
L 34.363636 25.193885 
z
" clip-path="url(#p3aebedeb4d)" style="fill: #ff9985; fill-opacity: 0.5"/>
   </g>
   <g id="patch_41">
    <path d="M 39.436364 25.290716 
L 44.509091 25.290716 
L 44.509091 25.163626 
L 39.436364 25.163626 
z
" clip-path="url(#p3aebedeb4d)" style="fill: #ff9985; fill-opacity: 0.5"/>
   </g>
   <g id="patch_42">
    <path d="M 44.509091 25.290716 
L 49.581818 25.290716 
L 49.581818 25.175729 
L 44.509091 25.175729 
z
" clip-path="url(#p3aebedeb4d)" style="fill: #ff9985; fill-opacity: 0.5"/>
   </g>
   <g id="patch_43">
    <path d="M 49.581818 25.290716 
L 54.654545 25.290716 
L 54.654545 25.193885 
L 49.581818 25.193885 
z
" clip-path="url(#p3aebedeb4d)" style="fill: #ff9985; fill-opacity: 0.5"/>
   </g>
   <g id="patch_44">
    <path d="M 54.654545 25.290716 
L 59.727273 25.290716 
L 59.727273 23.329891 
L 54.654545 23.329891 
z
" clip-path="url(#p3aebedeb4d)" style="fill: #ff9985; fill-opacity: 0.5"/>
   </g>
   <g id="patch_45">
    <path d="M 59.727273 25.290716 
L 64.8 25.290716 
L 64.8 24.830769 
L 59.727273 24.830769 
z
" clip-path="url(#p3aebedeb4d)" style="fill: #ff9985; fill-opacity: 0.5"/>
   </g>
   <g id="patch_46">
    <path d="M 64.8 25.290716 
L 69.872727 25.290716 
L 69.872727 25.290716 
L 64.8 25.290716 
z
" clip-path="url(#p3aebedeb4d)" style="fill: #ff9985; fill-opacity: 0.5"/>
   </g>
   <g id="patch_47">
    <path d="M 69.872727 25.290716 
L 74.945455 25.290716 
L 74.945455 25.290716 
L 69.872727 25.290716 
z
" clip-path="url(#p3aebedeb4d)" style="fill: #ff9985; fill-opacity: 0.5"/>
   </g>
   <g id="patch_48">
    <path d="M 74.945455 25.290716 
L 80.018182 25.290716 
L 80.018182 25.290716 
L 74.945455 25.290716 
z
" clip-path="url(#p3aebedeb4d)" style="fill: #ff9985; fill-opacity: 0.5"/>
   </g>
   <g id="matplotlib.axis_5">
    <g id="xtick_7">
     <g id="line2d_11">
      <g>
       <use xlink:href="#m6005de6377" x="9" y="26.296768" style="fill-opacity: 0; stroke: #000000; stroke-opacity: 0; stroke-width: 0.25"/>
      </g>
     </g>
    </g>
    <g id="xtick_8">
     <g id="line2d_12">
      <g>
       <use xlink:href="#m6005de6377" x="34.363636" y="26.296768" style="fill-opacity: 0; stroke: #000000; stroke-opacity: 0; stroke-width: 0.25"/>
      </g>
     </g>
    </g>
    <g id="xtick_9">
     <g id="line2d_13">
      <g>
       <use xlink:href="#m6005de6377" x="59.727273" y="26.296768" style="fill-opacity: 0; stroke: #000000; stroke-opacity: 0; stroke-width: 0.25"/>
      </g>
     </g>
    </g>
   </g>
   <g id="matplotlib.axis_6">
    <g id="ytick_3">
     <g id="line2d_14">
      <g>
       <use xlink:href="#me3111d8a86" x="8" y="25.290716" style="stroke: #000000; stroke-width: 0.25"/>
      </g>
     </g>
     <g id="text_3">
      <text style="font-size: 6px; font-family: 'Arial'; text-anchor: end" x="4.8" y="27.43806" transform="rotate(-0 4.8 27.43806)">0</text>
     </g>
    </g>
   </g>
   <g id="line2d_15">
    <path d="M 9 24.335918 
L 12.086192 24.400184 
L 17.744211 24.832773 
L 22.630682 25.065218 
L 30.088979 25.140435 
L 46.805853 25.090347 
L 51.692324 24.831728 
L 58.379074 24.430733 
L 60.179353 24.452522 
L 60.179353 24.452522 
" clip-path="url(#p3aebedeb4d)" style="fill: none; stroke: #ff9985; stroke-width: 0.5; stroke-linecap: square"/>
   </g>
   <g id="patch_49">
    <path d="M 8 25.296768 
L 8 19.087488 
" style="fill: none; stroke: #000000; stroke-width: 0.25; stroke-linejoin: miter; stroke-linecap: square"/>
   </g>
  </g>
  <g id="axes_4">
   <g id="patch_50">
    <path d="M 9 31.816512 
L 64.8 31.816512 
L 64.8 25.607232 
L 9 25.607232 
L 9 31.816512 
z
" style="fill: none; opacity: 0"/>
   </g>
   <g id="patch_51">
    <path d="M 9 31.81046 
L 14.072727 31.81046 
L 14.072727 26.678424 
L 9 26.678424 
z
" clip-path="url(#pcec23ffad8)" style="fill: #9d321d; fill-opacity: 0.5"/>
   </g>
   <g id="patch_52">
    <path d="M 14.072727 31.81046 
L 19.145455 31.81046 
L 19.145455 31.671266 
L 14.072727 31.671266 
z
" clip-path="url(#pcec23ffad8)" style="fill: #9d321d; fill-opacity: 0.5"/>
   </g>
   <g id="patch_53">
    <path d="M 19.145455 31.81046 
L 24.218182 31.81046 
L 24.218182 31.743889 
L 19.145455 31.743889 
z
" clip-path="url(#pcec23ffad8)" style="fill: #9d321d; fill-opacity: 0.5"/>
   </g>
   <g id="patch_54">
    <path d="M 24.218182 31.81046 
L 29.290909 31.81046 
L 29.290909 31.713629 
L 24.218182 31.713629 
z
" clip-path="url(#pcec23ffad8)" style="fill: #9d321d; fill-opacity: 0.5"/>
   </g>
   <g id="patch_55">
    <path d="M 29.290909 31.81046 
L 34.363636 31.81046 
L 34.363636 31.689421 
L 29.290909 31.689421 
z
" clip-path="url(#pcec23ffad8)" style="fill: #9d321d; fill-opacity: 0.5"/>
   </g>
   <g id="patch_56">
    <path d="M 34.363636 31.81046 
L 39.436364 31.81046 
L 39.436364 31.762045 
L 34.363636 31.762045 
z
" clip-path="url(#pcec23ffad8)" style="fill: #9d321d; fill-opacity: 0.5"/>
   </g>
   <g id="patch_57">
    <path d="M 39.436364 31.81046 
L 44.509091 31.81046 
L 44.509091 31.743889 
L 39.436364 31.743889 
z
" clip-path="url(#pcec23ffad8)" style="fill: #9d321d; fill-opacity: 0.5"/>
   </g>
   <g id="patch_58">
    <path d="M 44.509091 31.81046 
L 49.581818 31.81046 
L 49.581818 31.743889 
L 44.509091 31.743889 
z
" clip-path="url(#pcec23ffad8)" style="fill: #9d321d; fill-opacity: 0.5"/>
   </g>
   <g id="patch_59">
    <path d="M 49.581818 31.81046 
L 54.654545 31.81046 
L 54.654545 31.755993 
L 49.581818 31.755993 
z
" clip-path="url(#pcec23ffad8)" style="fill: #9d321d; fill-opacity: 0.5"/>
   </g>
   <g id="patch_60">
    <path d="M 54.654545 31.81046 
L 59.727273 31.81046 
L 59.727273 31.429188 
L 54.654545 31.429188 
z
" clip-path="url(#pcec23ffad8)" style="fill: #9d321d; fill-opacity: 0.5"/>
   </g>
   <g id="patch_61">
    <path d="M 59.727273 31.81046 
L 64.8 31.81046 
L 64.8 31.786252 
L 59.727273 31.786252 
z
" clip-path="url(#pcec23ffad8)" style="fill: #9d321d; fill-opacity: 0.5"/>
   </g>
   <g id="patch_62">
    <path d="M 64.8 31.81046 
L 69.872727 31.81046 
L 69.872727 31.81046 
L 64.8 31.81046 
z
" clip-path="url(#pcec23ffad8)" style="fill: #9d321d; fill-opacity: 0.5"/>
   </g>
   <g id="patch_63">
    <path d="M 69.872727 31.81046 
L 74.945455 31.81046 
L 74.945455 31.81046 
L 69.872727 31.81046 
z
" clip-path="url(#pcec23ffad8)" style="fill: #9d321d; fill-opacity: 0.5"/>
   </g>
   <g id="patch_64">
    <path d="M 74.945455 31.81046 
L 80.018182 31.81046 
L 80.018182 31.81046 
L 74.945455 31.81046 
z
" clip-path="url(#pcec23ffad8)" style="fill: #9d321d; fill-opacity: 0.5"/>
   </g>
   <g id="matplotlib.axis_7">
    <g id="xtick_10">
     <g id="line2d_16">
      <g>
       <use xlink:href="#m6005de6377" x="9" y="32.816512" style="fill-opacity: 0; stroke: #000000; stroke-opacity: 0; stroke-width: 0.25"/>
      </g>
     </g>
    </g>
    <g id="xtick_11">
     <g id="line2d_17">
      <g>
       <use xlink:href="#m6005de6377" x="34.363636" y="32.816512" style="fill-opacity: 0; stroke: #000000; stroke-opacity: 0; stroke-width: 0.25"/>
      </g>
     </g>
    </g>
    <g id="xtick_12">
     <g id="line2d_18">
      <g>
       <use xlink:href="#m6005de6377" x="59.727273" y="32.816512" style="fill-opacity: 0; stroke: #000000; stroke-opacity: 0; stroke-width: 0.25"/>
      </g>
     </g>
    </g>
   </g>
   <g id="matplotlib.axis_8">
    <g id="ytick_4">
     <g id="line2d_19">
      <g>
       <use xlink:href="#me3111d8a86" x="8" y="31.81046" style="stroke: #000000; stroke-width: 0.25"/>
      </g>
     </g>
     <g id="text_4">
      <text style="font-size: 6px; font-family: 'Arial'; text-anchor: end" x="4.8" y="33.957804" transform="rotate(-0 4.8 33.957804)">0</text>
     </g>
    </g>
   </g>
   <g id="line2d_20">
    <path d="M 9 28.880756 
L 10.02457 28.971927 
L 11.305282 29.374972 
L 16.171989 31.313488 
L 17.964987 31.580795 
L 20.526411 31.702264 
L 27.186116 31.711569 
L 41.530094 31.74642 
L 56.130215 31.630697 
L 59.972352 31.59047 
L 59.972352 31.59047 
" clip-path="url(#pcec23ffad8)" style="fill: none; stroke: #9d321d; stroke-width: 0.5; stroke-linecap: square"/>
   </g>
   <g id="patch_65">
    <path d="M 8 31.816512 
L 8 25.607232 
" style="fill: none; stroke: #000000; stroke-width: 0.25; stroke-linejoin: miter; stroke-linecap: square"/>
   </g>
  </g>
  <g id="axes_5">
   <g id="patch_66">
    <path d="M 9 38.336256 
L 64.8 38.336256 
L 64.8 32.126976 
L 9 32.126976 
L 9 38.336256 
z
" style="fill: none; opacity: 0"/>
   </g>
   <g id="patch_67">
    <path d="M 9 38.330204 
L 14.072727 38.330204 
L 14.072727 33.966763 
L 9 33.966763 
z
" clip-path="url(#pff52c5c25e)" style="fill: #ff5f40; fill-opacity: 0.5"/>
   </g>
   <g id="patch_68">
    <path d="M 14.072727 38.330204 
L 19.145455 38.330204 
L 19.145455 38.324152 
L 14.072727 38.324152 
z
" clip-path="url(#pff52c5c25e)" style="fill: #ff5f40; fill-opacity: 0.5"/>
   </g>
   <g id="patch_69">
    <path d="M 19.145455 38.330204 
L 24.218182 38.330204 
L 24.218182 38.330204 
L 19.145455 38.330204 
z
" clip-path="url(#pff52c5c25e)" style="fill: #ff5f40; fill-opacity: 0.5"/>
   </g>
   <g id="patch_70">
    <path d="M 24.218182 38.330204 
L 29.290909 38.330204 
L 29.290909 38.324152 
L 24.218182 38.324152 
z
" clip-path="url(#pff52c5c25e)" style="fill: #ff5f40; fill-opacity: 0.5"/>
   </g>
   <g id="patch_71">
    <path d="M 29.290909 38.330204 
L 34.363636 38.330204 
L 34.363636 38.312048 
L 29.290909 38.312048 
z
" clip-path="url(#pff52c5c25e)" style="fill: #ff5f40; fill-opacity: 0.5"/>
   </g>
   <g id="patch_72">
    <path d="M 34.363636 38.330204 
L 39.436364 38.330204 
L 39.436364 38.312048 
L 34.363636 38.312048 
z
" clip-path="url(#pff52c5c25e)" style="fill: #ff5f40; fill-opacity: 0.5"/>
   </g>
   <g id="patch_73">
    <path d="M 39.436364 38.330204 
L 44.509091 38.330204 
L 44.509091 38.166802 
L 39.436364 38.166802 
z
" clip-path="url(#pff52c5c25e)" style="fill: #ff5f40; fill-opacity: 0.5"/>
   </g>
   <g id="patch_74">
    <path d="M 44.509091 38.330204 
L 49.581818 38.330204 
L 49.581818 37.991296 
L 44.509091 37.991296 
z
" clip-path="url(#pff52c5c25e)" style="fill: #ff5f40; fill-opacity: 0.5"/>
   </g>
   <g id="patch_75">
    <path d="M 49.581818 38.330204 
L 54.654545 38.330204 
L 54.654545 37.821842 
L 49.581818 37.821842 
z
" clip-path="url(#pff52c5c25e)" style="fill: #ff5f40; fill-opacity: 0.5"/>
   </g>
   <g id="patch_76">
    <path d="M 54.654545 38.330204 
L 59.727273 38.330204 
L 59.727273 37.555557 
L 54.654545 37.555557 
z
" clip-path="url(#pff52c5c25e)" style="fill: #ff5f40; fill-opacity: 0.5"/>
   </g>
   <g id="patch_77">
    <path d="M 59.727273 38.330204 
L 64.8 38.330204 
L 64.8 38.330204 
L 59.727273 38.330204 
z
" clip-path="url(#pff52c5c25e)" style="fill: #ff5f40; fill-opacity: 0.5"/>
   </g>
   <g id="patch_78">
    <path d="M 64.8 38.330204 
L 69.872727 38.330204 
L 69.872727 38.330204 
L 64.8 38.330204 
z
" clip-path="url(#pff52c5c25e)" style="fill: #ff5f40; fill-opacity: 0.5"/>
   </g>
   <g id="patch_79">
    <path d="M 69.872727 38.330204 
L 74.945455 38.330204 
L 74.945455 38.330204 
L 69.872727 38.330204 
z
" clip-path="url(#pff52c5c25e)" style="fill: #ff5f40; fill-opacity: 0.5"/>
   </g>
   <g id="patch_80">
    <path d="M 74.945455 38.330204 
L 80.018182 38.330204 
L 80.018182 38.330204 
L 74.945455 38.330204 
z
" clip-path="url(#pff52c5c25e)" style="fill: #ff5f40; fill-opacity: 0.5"/>
   </g>
   <g id="matplotlib.axis_9">
    <g id="xtick_13">
     <g id="line2d_21">
      <g>
       <use xlink:href="#m6005de6377" x="9" y="39.336256" style="fill-opacity: 0; stroke: #000000; stroke-opacity: 0; stroke-width: 0.25"/>
      </g>
     </g>
    </g>
    <g id="xtick_14">
     <g id="line2d_22">
      <g>
       <use xlink:href="#m6005de6377" x="34.363636" y="39.336256" style="fill-opacity: 0; stroke: #000000; stroke-opacity: 0; stroke-width: 0.25"/>
      </g>
     </g>
    </g>
    <g id="xtick_15">
     <g id="line2d_23">
      <g>
       <use xlink:href="#m6005de6377" x="59.727273" y="39.336256" style="fill-opacity: 0; stroke: #000000; stroke-opacity: 0; stroke-width: 0.25"/>
      </g>
     </g>
    </g>
   </g>
   <g id="matplotlib.axis_10">
    <g id="ytick_5">
     <g id="line2d_24">
      <g>
       <use xlink:href="#me3111d8a86" x="8" y="38.330204" style="stroke: #000000; stroke-width: 0.25"/>
      </g>
     </g>
     <g id="text_5">
      <text style="font-size: 6px; font-family: 'Arial'; text-anchor: end" x="4.8" y="40.477548" transform="rotate(-0 4.8 40.477548)">0</text>
     </g>
    </g>
   </g>
   <g id="line2d_25">
    <path d="M 9 36.55803 
L 10.784165 36.664578 
L 13.078091 37.055415 
L 17.920824 37.966196 
L 20.724511 38.213218 
L 24.802602 38.312156 
L 36.017352 38.273674 
L 45.702818 38.036248 
L 55.133404 37.833596 
L 59.721256 37.981459 
L 59.721256 37.981459 
" clip-path="url(#pff52c5c25e)" style="fill: none; stroke: #ff5f40; stroke-width: 0.5; stroke-linecap: square"/>
   </g>
   <g id="patch_81">
    <path d="M 8 38.336256 
L 8 32.126976 
" style="fill: none; stroke: #000000; stroke-width: 0.25; stroke-linejoin: miter; stroke-linecap: square"/>
   </g>
  </g>
  <g id="axes_6">
   <g id="patch_82">
    <path d="M 9 44.856 
L 64.8 44.856 
L 64.8 38.64672 
L 9 38.64672 
L 9 44.856 
z
" style="fill: none; opacity: 0"/>
   </g>
   <g id="patch_83">
    <path d="M 9 44.849948 
L 14.072727 44.849948 
L 14.072727 44.347638 
L 9 44.347638 
z
" clip-path="url(#p8df125381c)" style="fill: #026b85; fill-opacity: 0.5"/>
   </g>
   <g id="patch_84">
    <path d="M 14.072727 44.849948 
L 19.145455 44.849948 
L 19.145455 44.365794 
L 14.072727 44.365794 
z
" clip-path="url(#p8df125381c)" style="fill: #026b85; fill-opacity: 0.5"/>
   </g>
   <g id="patch_85">
    <path d="M 19.145455 44.849948 
L 24.218182 44.849948 
L 24.218182 44.523144 
L 19.145455 44.523144 
z
" clip-path="url(#p8df125381c)" style="fill: #026b85; fill-opacity: 0.5"/>
   </g>
   <g id="patch_86">
    <path d="M 24.218182 44.849948 
L 29.290909 44.849948 
L 29.290909 44.426313 
L 24.218182 44.426313 
z
" clip-path="url(#p8df125381c)" style="fill: #026b85; fill-opacity: 0.5"/>
   </g>
   <g id="patch_87">
    <path d="M 29.290909 44.849948 
L 34.363636 44.849948 
L 34.363636 44.414209 
L 29.290909 44.414209 
z
" clip-path="url(#p8df125381c)" style="fill: #026b85; fill-opacity: 0.5"/>
   </g>
   <g id="patch_88">
    <path d="M 34.363636 44.849948 
L 39.436364 44.849948 
L 39.436364 44.450521 
L 34.363636 44.450521 
z
" clip-path="url(#p8df125381c)" style="fill: #026b85; fill-opacity: 0.5"/>
   </g>
   <g id="patch_89">
    <path d="M 39.436364 44.849948 
L 44.509091 44.849948 
L 44.509091 44.48078 
L 39.436364 44.48078 
z
" clip-path="url(#p8df125381c)" style="fill: #026b85; fill-opacity: 0.5"/>
   </g>
   <g id="patch_90">
    <path d="M 44.509091 44.849948 
L 49.581818 44.849948 
L 49.581818 44.498936 
L 44.509091 44.498936 
z
" clip-path="url(#p8df125381c)" style="fill: #026b85; fill-opacity: 0.5"/>
   </g>
   <g id="patch_91">
    <path d="M 49.581818 44.849948 
L 54.654545 44.849948 
L 54.654545 44.317378 
L 49.581818 44.317378 
z
" clip-path="url(#p8df125381c)" style="fill: #026b85; fill-opacity: 0.5"/>
   </g>
   <g id="patch_92">
    <path d="M 54.654545 44.849948 
L 59.727273 44.849948 
L 59.727273 42.604682 
L 54.654545 42.604682 
z
" clip-path="url(#p8df125381c)" style="fill: #026b85; fill-opacity: 0.5"/>
   </g>
   <g id="patch_93">
    <path d="M 59.727273 44.849948 
L 64.8 44.849948 
L 64.8 44.722858 
L 59.727273 44.722858 
z
" clip-path="url(#p8df125381c)" style="fill: #026b85; fill-opacity: 0.5"/>
   </g>
   <g id="patch_94">
    <path d="M 64.8 44.849948 
L 69.872727 44.849948 
L 69.872727 44.849948 
L 64.8 44.849948 
z
" clip-path="url(#p8df125381c)" style="fill: #026b85; fill-opacity: 0.5"/>
   </g>
   <g id="patch_95">
    <path d="M 69.872727 44.849948 
L 74.945455 44.849948 
L 74.945455 44.849948 
L 69.872727 44.849948 
z
" clip-path="url(#p8df125381c)" style="fill: #026b85; fill-opacity: 0.5"/>
   </g>
   <g id="patch_96">
    <path d="M 74.945455 44.849948 
L 80.018182 44.849948 
L 80.018182 44.849948 
L 74.945455 44.849948 
z
" clip-path="url(#p8df125381c)" style="fill: #026b85; fill-opacity: 0.5"/>
   </g>
   <g id="matplotlib.axis_11">
    <g id="xtick_16">
     <g id="line2d_26">
      <defs>
       <path id="m53abebda13" d="M 0 0 
L 0 1.7 
" style="stroke: #000000; stroke-width: 0.25"/>
      </defs>
      <g>
       <use xlink:href="#m53abebda13" x="9" y="45.856" style="stroke: #000000; stroke-width: 0.25"/>
      </g>
     </g>
     <g id="text_6">
      <text style="font-size: 6px; font-family: 'Arial'; text-anchor: middle" x="9" y="53.350688" transform="rotate(-0 9 53.350688)">0.0</text>
     </g>
    </g>
    <g id="xtick_17">
     <g id="line2d_27">
      <g>
       <use xlink:href="#m53abebda13" x="34.363636" y="45.856" style="stroke: #000000; stroke-width: 0.25"/>
      </g>
     </g>
     <g id="text_7">
      <text style="font-size: 6px; font-family: 'Arial'; text-anchor: middle" x="34.363636" y="53.350688" transform="rotate(-0 34.363636 53.350688)">0.5</text>
     </g>
    </g>
    <g id="xtick_18">
     <g id="line2d_28">
      <g>
       <use xlink:href="#m53abebda13" x="59.727273" y="45.856" style="stroke: #000000; stroke-width: 0.25"/>
      </g>
     </g>
     <g id="text_8">
      <text style="font-size: 6px; font-family: 'Arial'; text-anchor: middle" x="59.727273" y="53.350688" transform="rotate(-0 59.727273 53.350688)">1.0</text>
     </g>
    </g>
    <g id="text_9">
     <text style="font-size: 8px; font-family: 'Arial'; text-anchor: middle" x="36.9" y="61.769438" transform="rotate(-0 36.9 61.769438)">motor rhythmicity score</text>
    </g>
   </g>
   <g id="matplotlib.axis_12">
    <g id="ytick_6">
     <g id="line2d_29">
      <g>
       <use xlink:href="#me3111d8a86" x="8" y="44.849948" style="stroke: #000000; stroke-width: 0.25"/>
      </g>
     </g>
     <g id="text_10">
      <text style="font-size: 6px; font-family: 'Arial'; text-anchor: end" x="4.8" y="46.997292" transform="rotate(-0 4.8 46.997292)">0</text>
     </g>
    </g>
   </g>
   <g id="line2d_30">
    <path d="M 9 44.604384 
L 15.378258 44.407227 
L 37.574596 44.450449 
L 47.779808 44.381916 
L 51.351633 44.119915 
L 56.9645 43.635849 
L 59.005542 43.72617 
L 59.770933 43.808623 
L 59.770933 43.808623 
" clip-path="url(#p8df125381c)" style="fill: none; stroke: #026b85; stroke-width: 0.5; stroke-linecap: square"/>
   </g>
   <g id="patch_97">
    <path d="M 8 44.856 
L 8 38.64672 
" style="fill: none; stroke: #000000; stroke-width: 0.25; stroke-linejoin: miter; stroke-linecap: square"/>
   </g>
   <g id="patch_98">
    <path d="M 9 45.856 
L 64.8 45.856 
" style="fill: none; stroke: #000000; stroke-width: 0.25; stroke-linejoin: miter; stroke-linecap: square"/>
   </g>
  </g>
 </g>
 <defs>
  <clipPath id="pbb62743b9e">
   <rect x="9" y="6.048" width="55.8" height="6.20928"/>
  </clipPath>
  <clipPath id="p647da2be5c">
   <rect x="9" y="12.567744" width="55.8" height="6.20928"/>
  </clipPath>
  <clipPath id="p3aebedeb4d">
   <rect x="9" y="19.087488" width="55.8" height="6.20928"/>
  </clipPath>
  <clipPath id="pcec23ffad8">
   <rect x="9" y="25.607232" width="55.8" height="6.20928"/>
  </clipPath>
  <clipPath id="pff52c5c25e">
   <rect x="9" y="32.126976" width="55.8" height="6.20928"/>
  </clipPath>
  <clipPath id="p8df125381c">
   <rect x="9" y="38.64672" width="55.8" height="6.20928"/>
  </clipPath>
 </defs>
</svg>
