<?xml version="1.0" encoding="utf-8" standalone="no"?>
<!DOCTYPE svg PUBLIC "-//W3C//DTD SVG 1.1//EN"
  "http://www.w3.org/Graphics/SVG/1.1/DTD/svg11.dtd">
<svg xmlns:xlink="http://www.w3.org/1999/xlink" width="72pt" height="50.4pt" viewBox="0 0 72 50.4" xmlns="http://www.w3.org/2000/svg" version="1.1">
 <metadata>
  <rdf:RDF xmlns:dc="http://purl.org/dc/elements/1.1/" xmlns:cc="http://creativecommons.org/ns#" xmlns:rdf="http://www.w3.org/1999/02/22-rdf-syntax-ns#">
   <cc:Work>
    <dc:type rdf:resource="http://purl.org/dc/dcmitype/StillImage"/>
    <dc:date>2025-09-05T12:11:46.714332</dc:date>
    <dc:format>image/svg+xml</dc:format>
    <dc:creator>
     <cc:Agent>
      <dc:title>Matplotlib v3.10.3, https://matplotlib.org/</dc:title>
     </cc:Agent>
    </dc:creator>
   </cc:Work>
  </rdf:RDF>
 </metadata>
 <defs>
  <style type="text/css">*{stroke-linejoin: round; stroke-linecap: butt}</style>
 </defs>
 <g id="figure_1">
  <g id="patch_1">
   <path d="M 0 50.4 
L 72 50.4 
L 72 0 
L 0 0 
L 0 50.4 
z
" style="fill: none"/>
  </g>
  <g id="axes_1">
   <g id="patch_2">
    <path d="M 9 44.856 
L 64.8 44.856 
L 64.8 6.048 
L 9 6.048 
L 9 44.856 
z
" style="fill: none"/>
   </g>
   <g id="FillBetweenPolyCollection_1">
    <defs>
     <path id="m96645b5f74" d="M 11.536364 -41.017045 
L 11.536364 -41.218955 
L 12.045814 -41.216873 
L 12.555264 -41.210404 
L 13.064713 -41.200506 
L 13.574163 -41.188519 
L 14.083613 -41.175876 
L 14.593063 -41.163837 
L 15.102513 -41.1533 
L 15.611963 -41.144739 
L 16.121413 -41.138235 
L 16.630863 -41.133586 
L 17.140313 -41.130435 
L 17.649763 -41.128387 
L 18.159213 -41.127086 
L 18.668663 -41.126254 
L 19.178113 -41.125698 
L 19.687563 -41.125296 
L 20.197013 -41.124972 
L 20.706463 -41.124684 
L 21.215913 -41.124405 
L 21.725363 -41.124122 
L 22.234813 -41.123834 
L 22.744263 -41.123552 
L 23.253713 -41.123298 
L 23.763162 -41.123099 
L 24.272612 -41.122977 
L 24.782062 -41.122938 
L 25.291512 -41.122974 
L 25.800962 -41.123062 
L 26.310412 -41.123175 
L 26.819862 -41.123289 
L 27.329312 -41.1234 
L 27.838762 -41.123523 
L 28.348212 -41.123692 
L 28.857662 -41.123955 
L 29.367112 -41.124373 
L 29.876562 -41.125014 
L 30.386012 -41.125965 
L 30.895462 -41.127338 
L 31.404912 -41.129274 
L 31.914362 -41.131943 
L 32.423812 -41.135512 
L 32.933262 -41.140103 
L 33.442712 -41.145737 
L 33.952161 -41.152273 
L 34.461611 -41.159383 
L 34.971061 -41.166558 
L 35.480511 -41.173168 
L 35.989961 -41.178578 
L 36.499411 -41.18227 
L 37.008861 -41.183967 
L 37.518311 -41.183708 
L 38.027761 -41.181861 
L 38.537211 -41.179066 
L 39.046661 -41.176135 
L 39.556111 -41.173927 
L 40.065561 -41.173229 
L 40.575011 -41.174656 
L 41.084461 -41.178594 
L 41.593911 -41.185164 
L 42.103361 -41.194228 
L 42.612811 -41.20543 
L 43.122261 -41.218256 
L 43.631711 -41.232134 
L 44.14116 -41.246527 
L 44.65061 -41.261024 
L 45.16006 -41.275393 
L 45.66951 -41.289569 
L 46.17896 -41.30361 
L 46.68841 -41.317601 
L 47.19786 -41.331565 
L 47.70731 -41.345404 
L 48.21676 -41.358891 
L 48.72621 -41.371731 
L 49.23566 -41.38365 
L 49.74511 -41.394518 
L 50.25456 -41.404444 
L 50.76401 -41.413842 
L 51.27346 -41.423448 
L 51.78291 -41.434321 
L 52.29236 -41.447821 
L 52.80181 -41.465623 
L 53.31126 -41.489783 
L 53.82071 -41.522859 
L 54.330159 -41.568079 
L 54.839609 -41.629497 
L 55.349059 -41.712055 
L 55.858509 -41.821406 
L 56.367959 -41.963366 
L 56.877409 -42.142862 
L 57.386859 -42.362351 
L 57.896309 -42.619866 
L 58.405759 -42.907101 
L 58.915209 -43.20816 
L 59.424659 -43.499695 
L 59.934109 -43.752977 
L 60.443559 -43.937945 
L 60.953009 -44.0286 
L 61.462459 -44.00847 
L 61.971909 -43.874613 
L 61.971909 -38.361387 
L 61.971909 -38.361387 
L 61.462459 -38.22753 
L 60.953009 -38.2074 
L 60.443559 -38.298055 
L 59.934109 -38.483023 
L 59.424659 -38.736305 
L 58.915209 -39.02784 
L 58.405759 -39.328899 
L 57.896309 -39.616134 
L 57.386859 -39.873649 
L 56.877409 -40.093138 
L 56.367959 -40.272634 
L 55.858509 -40.414594 
L 55.349059 -40.523945 
L 54.839609 -40.606503 
L 54.330159 -40.667921 
L 53.82071 -40.713141 
L 53.31126 -40.746217 
L 52.80181 -40.770377 
L 52.29236 -40.788179 
L 51.78291 -40.801679 
L 51.27346 -40.812552 
L 50.76401 -40.822158 
L 50.25456 -40.831556 
L 49.74511 -40.841482 
L 49.23566 -40.85235 
L 48.72621 -40.864269 
L 48.21676 -40.877109 
L 47.70731 -40.890596 
L 47.19786 -40.904435 
L 46.68841 -40.918399 
L 46.17896 -40.93239 
L 45.66951 -40.946431 
L 45.16006 -40.960607 
L 44.65061 -40.974976 
L 44.14116 -40.989473 
L 43.631711 -41.003866 
L 43.122261 -41.017744 
L 42.612811 -41.03057 
L 42.103361 -41.041772 
L 41.593911 -41.050836 
L 41.084461 -41.057406 
L 40.575011 -41.061344 
L 40.065561 -41.062771 
L 39.556111 -41.062073 
L 39.046661 -41.059865 
L 38.537211 -41.056934 
L 38.027761 -41.054139 
L 37.518311 -41.052292 
L 37.008861 -41.052033 
L 36.499411 -41.05373 
L 35.989961 -41.057422 
L 35.480511 -41.062832 
L 34.971061 -41.069442 
L 34.461611 -41.076617 
L 33.952161 -41.083727 
L 33.442712 -41.090263 
L 32.933262 -41.095897 
L 32.423812 -41.100488 
L 31.914362 -41.104057 
L 31.404912 -41.106726 
L 30.895462 -41.108662 
L 30.386012 -41.110035 
L 29.876562 -41.110986 
L 29.367112 -41.111627 
L 28.857662 -41.112045 
L 28.348212 -41.112308 
L 27.838762 -41.112477 
L 27.329312 -41.1126 
L 26.819862 -41.112711 
L 26.310412 -41.112825 
L 25.800962 -41.112938 
L 25.291512 -41.113026 
L 24.782062 -41.113062 
L 24.272612 -41.113023 
L 23.763162 -41.112901 
L 23.253713 -41.112702 
L 22.744263 -41.112448 
L 22.234813 -41.112166 
L 21.725363 -41.111878 
L 21.215913 -41.111595 
L 20.706463 -41.111316 
L 20.197013 -41.111028 
L 19.687563 -41.110704 
L 19.178113 -41.110302 
L 18.668663 -41.109746 
L 18.159213 -41.108914 
L 17.649763 -41.107613 
L 17.140313 -41.105565 
L 16.630863 -41.102414 
L 16.121413 -41.097765 
L 15.611963 -41.091261 
L 15.102513 -41.0827 
L 14.593063 -41.072163 
L 14.083613 -41.060124 
L 13.574163 -41.047481 
L 13.064713 -41.035494 
L 12.555264 -41.025596 
L 12.045814 -41.019127 
L 11.536364 -41.017045 
z
"/>
    </defs>
    <g clip-path="url(#p8bfe9dce51)">
     <use xlink:href="#m96645b5f74" x="0" y="50.4" style="fill: #306c53"/>
    </g>
   </g>
   <g id="FillBetweenPolyCollection_2">
    <defs>
     <path id="ma1d80ae70d" d="M 11.536364 -31.7394 
L 11.536364 -37.5606 
L 12.044361 -37.554829 
L 12.552357 -37.49201 
L 13.060354 -37.376962 
L 13.568351 -37.21754 
L 14.076348 -37.023818 
L 14.584345 -36.807114 
L 15.092342 -36.57897 
L 15.600339 -36.350211 
L 16.108336 -36.130203 
L 16.616333 -35.926354 
L 17.12433 -35.743884 
L 17.632327 -35.585854 
L 18.140324 -35.453379 
L 18.648321 -35.345987 
L 19.156317 -35.262032 
L 19.664314 -35.199112 
L 20.172311 -35.154437 
L 20.680308 -35.125131 
L 21.188305 -35.108442 
L 21.696302 -35.101876 
L 22.204299 -35.103271 
L 22.712296 -35.110808 
L 23.220293 -35.123 
L 23.72829 -35.13866 
L 24.236287 -35.156859 
L 24.744284 -35.176886 
L 25.252281 -35.198214 
L 25.760277 -35.220462 
L 26.268274 -35.243365 
L 26.776271 -35.266745 
L 27.284268 -35.290483 
L 27.792265 -35.314489 
L 28.300262 -35.33868 
L 28.808259 -35.362951 
L 29.316256 -35.387161 
L 29.824253 -35.411115 
L 30.33225 -35.434562 
L 30.840247 -35.457196 
L 31.348244 -35.478672 
L 31.85624 -35.498618 
L 32.364237 -35.516659 
L 32.872234 -35.532444 
L 33.380231 -35.545666 
L 33.888228 -35.556076 
L 34.396225 -35.563502 
L 34.904222 -35.567844 
L 35.412219 -35.569079 
L 35.920216 -35.567247 
L 36.428213 -35.562442 
L 36.93621 -35.554797 
L 37.444207 -35.544471 
L 37.952204 -35.531641 
L 38.4602 -35.516491 
L 38.968197 -35.499213 
L 39.476194 -35.480005 
L 39.984191 -35.459076 
L 40.492188 -35.436645 
L 41.000185 -35.412949 
L 41.508182 -35.388238 
L 42.016179 -35.362774 
L 42.524176 -35.336824 
L 43.032173 -35.310653 
L 43.54017 -35.284505 
L 44.048167 -35.258599 
L 44.556164 -35.23311 
L 45.06416 -35.208163 
L 45.572157 -35.183826 
L 46.080154 -35.160108 
L 46.588151 -35.136961 
L 47.096148 -35.114291 
L 47.604145 -35.09197 
L 48.112142 -35.069851 
L 48.620139 -35.047794 
L 49.128136 -35.02568 
L 49.636133 -35.003437 
L 50.14413 -34.981052 
L 50.652127 -34.958581 
L 51.160124 -34.936153 
L 51.66812 -34.913965 
L 52.176117 -34.892269 
L 52.684114 -34.871351 
L 53.192111 -34.851509 
L 53.700108 -34.833029 
L 54.208105 -34.816158 
L 54.716102 -34.801084 
L 55.224099 -34.78792 
L 55.732096 -34.776694 
L 56.240093 -34.767345 
L 56.74809 -34.75973 
L 57.256087 -34.753632 
L 57.764083 -34.748775 
L 58.27208 -34.74485 
L 58.780077 -34.741529 
L 59.288074 -34.738494 
L 59.796071 -34.735458 
L 60.304068 -34.732181 
L 60.812065 -34.728485 
L 61.320062 -34.724264 
L 61.828059 -34.719483 
L 61.828059 -34.580517 
L 61.828059 -34.580517 
L 61.320062 -34.575736 
L 60.812065 -34.571515 
L 60.304068 -34.567819 
L 59.796071 -34.564542 
L 59.288074 -34.561506 
L 58.780077 -34.558471 
L 58.27208 -34.55515 
L 57.764083 -34.551225 
L 57.256087 -34.546368 
L 56.74809 -34.54027 
L 56.240093 -34.532655 
L 55.732096 -34.523306 
L 55.224099 -34.51208 
L 54.716102 -34.498916 
L 54.208105 -34.483842 
L 53.700108 -34.466971 
L 53.192111 -34.448491 
L 52.684114 -34.428649 
L 52.176117 -34.407731 
L 51.66812 -34.386035 
L 51.160124 -34.363847 
L 50.652127 -34.341419 
L 50.14413 -34.318948 
L 49.636133 -34.296563 
L 49.128136 -34.27432 
L 48.620139 -34.252206 
L 48.112142 -34.230149 
L 47.604145 -34.20803 
L 47.096148 -34.185709 
L 46.588151 -34.163039 
L 46.080154 -34.139892 
L 45.572157 -34.116174 
L 45.06416 -34.091837 
L 44.556164 -34.06689 
L 44.048167 -34.041401 
L 43.54017 -34.015495 
L 43.032173 -33.989347 
L 42.524176 -33.963176 
L 42.016179 -33.937226 
L 41.508182 -33.911762 
L 41.000185 -33.887051 
L 40.492188 -33.863355 
L 39.984191 -33.840924 
L 39.476194 -33.819995 
L 38.968197 -33.800787 
L 38.4602 -33.783509 
L 37.952204 -33.768359 
L 37.444207 -33.755529 
L 36.93621 -33.745203 
L 36.428213 -33.737558 
L 35.920216 -33.732753 
L 35.412219 -33.730921 
L 34.904222 -33.732156 
L 34.396225 -33.736498 
L 33.888228 -33.743924 
L 33.380231 -33.754334 
L 32.872234 -33.767556 
L 32.364237 -33.783341 
L 31.85624 -33.801382 
L 31.348244 -33.821328 
L 30.840247 -33.842804 
L 30.33225 -33.865438 
L 29.824253 -33.888885 
L 29.316256 -33.912839 
L 28.808259 -33.937049 
L 28.300262 -33.96132 
L 27.792265 -33.985511 
L 27.284268 -34.009517 
L 26.776271 -34.033255 
L 26.268274 -34.056635 
L 25.760277 -34.079538 
L 25.252281 -34.101786 
L 24.744284 -34.123114 
L 24.236287 -34.143141 
L 23.72829 -34.16134 
L 23.220293 -34.177 
L 22.712296 -34.189192 
L 22.204299 -34.196729 
L 21.696302 -34.198124 
L 21.188305 -34.191558 
L 20.680308 -34.174869 
L 20.172311 -34.145563 
L 19.664314 -34.100888 
L 19.156317 -34.037968 
L 18.648321 -33.954013 
L 18.140324 -33.846621 
L 17.632327 -33.714146 
L 17.12433 -33.556116 
L 16.616333 -33.373646 
L 16.108336 -33.169797 
L 15.600339 -32.949789 
L 15.092342 -32.72103 
L 14.584345 -32.492886 
L 14.076348 -32.276182 
L 13.568351 -32.08246 
L 13.060354 -31.923038 
L 12.552357 -31.80799 
L 12.044361 -31.745171 
L 11.536364 -31.7394 
z
"/>
    </defs>
    <g clip-path="url(#p8bfe9dce51)">
     <use xlink:href="#ma1d80ae70d" x="0" y="50.4" style="fill: #c35843"/>
    </g>
   </g>
   <g id="FillBetweenPolyCollection_3">
    <defs>
     <path id="m3669333169" d="M 11.536364 -25.287734 
L 11.536364 -31.076266 
L 12.04876 -31.0926 
L 12.561157 -31.088117 
L 13.073554 -31.063234 
L 13.58595 -31.018838 
L 14.098347 -30.956244 
L 14.610744 -30.877147 
L 15.12314 -30.78355 
L 15.635537 -30.677694 
L 16.147934 -30.56197 
L 16.660331 -30.438844 
L 17.172727 -30.310772 
L 17.685124 -30.180129 
L 18.197521 -30.049141 
L 18.709917 -29.919837 
L 19.222314 -29.794002 
L 19.734711 -29.67315 
L 20.247107 -29.558512 
L 20.759504 -29.45103 
L 21.271901 -29.351365 
L 21.784298 -29.259919 
L 22.296694 -29.176851 
L 22.809091 -29.102114 
L 23.321488 -29.035484 
L 23.833884 -28.976595 
L 24.346281 -28.924972 
L 24.858678 -28.880063 
L 25.371074 -28.841268 
L 25.883471 -28.807965 
L 26.395868 -28.779528 
L 26.908264 -28.755349 
L 27.420661 -28.73485 
L 27.933058 -28.717491 
L 28.445455 -28.702778 
L 28.957851 -28.690265 
L 29.470248 -28.679559 
L 29.982645 -28.670315 
L 30.495041 -28.662239 
L 31.007438 -28.655079 
L 31.519835 -28.648628 
L 32.032231 -28.642716 
L 32.544628 -28.637207 
L 33.057025 -28.631995 
L 33.569421 -28.627003 
L 34.081818 -28.622173 
L 34.594215 -28.617471 
L 35.106612 -28.612876 
L 35.619008 -28.608383 
L 36.131405 -28.603997 
L 36.643802 -28.599734 
L 37.156198 -28.595615 
L 37.668595 -28.59167 
L 38.180992 -28.587933 
L 38.693388 -28.584445 
L 39.205785 -28.581252 
L 39.718182 -28.578409 
L 40.230579 -28.575978 
L 40.742975 -28.574036 
L 41.255372 -28.572675 
L 41.767769 -28.572006 
L 42.280165 -28.572167 
L 42.792562 -28.573324 
L 43.304959 -28.57568 
L 43.817355 -28.579478 
L 44.329752 -28.585008 
L 44.842149 -28.592607 
L 45.354545 -28.602667 
L 45.866942 -28.615632 
L 46.379339 -28.631996 
L 46.891736 -28.652302 
L 47.404132 -28.677128 
L 47.916529 -28.707083 
L 48.428926 -28.742784 
L 48.941322 -28.784838 
L 49.453719 -28.833821 
L 49.966116 -28.890243 
L 50.478512 -28.954526 
L 50.990909 -29.026963 
L 51.503306 -29.107689 
L 52.015702 -29.196646 
L 52.528099 -29.293555 
L 53.040496 -29.397889 
L 53.552893 -29.508853 
L 54.065289 -29.625377 
L 54.577686 -29.746114 
L 55.090083 -29.86945 
L 55.602479 -29.993533 
L 56.114876 -30.116301 
L 56.627273 -30.235541 
L 57.139669 -30.348939 
L 57.652066 -30.454153 
L 58.164463 -30.548888 
L 58.67686 -30.630969 
L 59.189256 -30.698423 
L 59.701653 -30.749549 
L 60.21405 -30.782982 
L 60.726446 -30.797747 
L 61.238843 -30.793301 
L 61.75124 -30.769551 
L 62.263636 -30.726861 
L 62.263636 -25.637139 
L 62.263636 -25.637139 
L 61.75124 -25.594449 
L 61.238843 -25.570699 
L 60.726446 -25.566253 
L 60.21405 -25.581018 
L 59.701653 -25.614451 
L 59.189256 -25.665577 
L 58.67686 -25.733031 
L 58.164463 -25.815112 
L 57.652066 -25.909847 
L 57.139669 -26.015061 
L 56.627273 -26.128459 
L 56.114876 -26.247699 
L 55.602479 -26.370467 
L 55.090083 -26.49455 
L 54.577686 -26.617886 
L 54.065289 -26.738623 
L 53.552893 -26.855147 
L 53.040496 -26.966111 
L 52.528099 -27.070445 
L 52.015702 -27.167354 
L 51.503306 -27.256311 
L 50.990909 -27.337037 
L 50.478512 -27.409474 
L 49.966116 -27.473757 
L 49.453719 -27.530179 
L 48.941322 -27.579162 
L 48.428926 -27.621216 
L 47.916529 -27.656917 
L 47.404132 -27.686872 
L 46.891736 -27.711698 
L 46.379339 -27.732004 
L 45.866942 -27.748368 
L 45.354545 -27.761333 
L 44.842149 -27.771393 
L 44.329752 -27.778992 
L 43.817355 -27.784522 
L 43.304959 -27.78832 
L 42.792562 -27.790676 
L 42.280165 -27.791833 
L 41.767769 -27.791994 
L 41.255372 -27.791325 
L 40.742975 -27.789964 
L 40.230579 -27.788022 
L 39.718182 -27.785591 
L 39.205785 -27.782748 
L 38.693388 -27.779555 
L 38.180992 -27.776067 
L 37.668595 -27.77233 
L 37.156198 -27.768385 
L 36.643802 -27.764266 
L 36.131405 -27.760003 
L 35.619008 -27.755617 
L 35.106612 -27.751124 
L 34.594215 -27.746529 
L 34.081818 -27.741827 
L 33.569421 -27.736997 
L 33.057025 -27.732005 
L 32.544628 -27.726793 
L 32.032231 -27.721284 
L 31.519835 -27.715372 
L 31.007438 -27.708921 
L 30.495041 -27.701761 
L 29.982645 -27.693685 
L 29.470248 -27.684441 
L 28.957851 -27.673735 
L 28.445455 -27.661222 
L 27.933058 -27.646509 
L 27.420661 -27.62915 
L 26.908264 -27.608651 
L 26.395868 -27.584472 
L 25.883471 -27.556035 
L 25.371074 -27.522732 
L 24.858678 -27.483937 
L 24.346281 -27.439028 
L 23.833884 -27.387405 
L 23.321488 -27.328516 
L 22.809091 -27.261886 
L 22.296694 -27.187149 
L 21.784298 -27.104081 
L 21.271901 -27.012635 
L 20.759504 -26.91297 
L 20.247107 -26.805488 
L 19.734711 -26.69085 
L 19.222314 -26.569998 
L 18.709917 -26.444163 
L 18.197521 -26.314859 
L 17.685124 -26.183871 
L 17.172727 -26.053228 
L 16.660331 -25.925156 
L 16.147934 -25.80203 
L 15.635537 -25.686306 
L 15.12314 -25.58045 
L 14.610744 -25.486853 
L 14.098347 -25.407756 
L 13.58595 -25.345162 
L 13.073554 -25.300766 
L 12.561157 -25.275883 
L 12.04876 -25.2714 
L 11.536364 -25.287734 
z
"/>
    </defs>
    <g clip-path="url(#p8bfe9dce51)">
     <use xlink:href="#m3669333169" x="0" y="50.4" style="fill: #f0a394"/>
    </g>
   </g>
   <g id="FillBetweenPolyCollection_4">
    <defs>
     <path id="md8cb68c1c5" d="M 11.536364 -18.8034 
L 11.536364 -24.6246 
L 12.046688 -24.608115 
L 12.557012 -24.53299 
L 13.067336 -24.40423 
L 13.577661 -24.229925 
L 14.087985 -24.020426 
L 14.598309 -23.787353 
L 15.108633 -23.542546 
L 15.618958 -23.29711 
L 16.129282 -23.06064 
L 16.639606 -22.840705 
L 17.14993 -22.642603 
L 17.660255 -22.469377 
L 18.170579 -22.322038 
L 18.680903 -22.199932 
L 19.191227 -22.101176 
L 19.701552 -22.023104 
L 20.211876 -21.962669 
L 20.7222 -21.916768 
L 21.232524 -21.882482 
L 21.742849 -21.857229 
L 22.253173 -21.838835 
L 22.763497 -21.825556 
L 23.273821 -21.816044 
L 23.784146 -21.809305 
L 24.29447 -21.80463 
L 24.804794 -21.801531 
L 25.315118 -21.799685 
L 25.825443 -21.798876 
L 26.335767 -21.798956 
L 26.846091 -21.799808 
L 27.356415 -21.801322 
L 27.86674 -21.803378 
L 28.377064 -21.805842 
L 28.887388 -21.808558 
L 29.397712 -21.811357 
L 29.908037 -21.814063 
L 30.418361 -21.816503 
L 30.928685 -21.818521 
L 31.439009 -21.819984 
L 31.949334 -21.820792 
L 32.459658 -21.820885 
L 32.969982 -21.820242 
L 33.480306 -21.818879 
L 33.990631 -21.81685 
L 34.500955 -21.814236 
L 35.011279 -21.811142 
L 35.521603 -21.807689 
L 36.031928 -21.804007 
L 36.542252 -21.800229 
L 37.052576 -21.796484 
L 37.5629 -21.792892 
L 38.073225 -21.789556 
L 38.583549 -21.786561 
L 39.093873 -21.783968 
L 39.604197 -21.781814 
L 40.114522 -21.780109 
L 40.624846 -21.778839 
L 41.13517 -21.777969 
L 41.645494 -21.777449 
L 42.155819 -21.777216 
L 42.666143 -21.777204 
L 43.176467 -21.777344 
L 43.686791 -21.777575 
L 44.197116 -21.77784 
L 44.70744 -21.778093 
L 45.217764 -21.778297 
L 45.728088 -21.778427 
L 46.238413 -21.778469 
L 46.748737 -21.778415 
L 47.259061 -21.778271 
L 47.769385 -21.778051 
L 48.27971 -21.777776 
L 48.790034 -21.777479 
L 49.300358 -21.777203 
L 49.810682 -21.777006 
L 50.321007 -21.776958 
L 50.831331 -21.77715 
L 51.341655 -21.777695 
L 51.851979 -21.778732 
L 52.362304 -21.780425 
L 52.872628 -21.782963 
L 53.382952 -21.786552 
L 53.893276 -21.791404 
L 54.403601 -21.797718 
L 54.913925 -21.805653 
L 55.424249 -21.815303 
L 55.934573 -21.826664 
L 56.444898 -21.839609 
L 56.955222 -21.853861 
L 57.465546 -21.86899 
L 57.97587 -21.884416 
L 58.486195 -21.899434 
L 58.996519 -21.913256 
L 59.506843 -21.925073 
L 60.017167 -21.934119 
L 60.527492 -21.939743 
L 61.037816 -21.941476 
L 61.54814 -21.939076 
L 62.058464 -21.932556 
L 62.058464 -21.495444 
L 62.058464 -21.495444 
L 61.54814 -21.488924 
L 61.037816 -21.486524 
L 60.527492 -21.488257 
L 60.017167 -21.493881 
L 59.506843 -21.502927 
L 58.996519 -21.514744 
L 58.486195 -21.528566 
L 57.97587 -21.543584 
L 57.465546 -21.55901 
L 56.955222 -21.574139 
L 56.444898 -21.588391 
L 55.934573 -21.601336 
L 55.424249 -21.612697 
L 54.913925 -21.622347 
L 54.403601 -21.630282 
L 53.893276 -21.636596 
L 53.382952 -21.641448 
L 52.872628 -21.645037 
L 52.362304 -21.647575 
L 51.851979 -21.649268 
L 51.341655 -21.650305 
L 50.831331 -21.65085 
L 50.321007 -21.651042 
L 49.810682 -21.650994 
L 49.300358 -21.650797 
L 48.790034 -21.650521 
L 48.27971 -21.650224 
L 47.769385 -21.649949 
L 47.259061 -21.649729 
L 46.748737 -21.649585 
L 46.238413 -21.649531 
L 45.728088 -21.649573 
L 45.217764 -21.649703 
L 44.70744 -21.649907 
L 44.197116 -21.65016 
L 43.686791 -21.650425 
L 43.176467 -21.650656 
L 42.666143 -21.650796 
L 42.155819 -21.650784 
L 41.645494 -21.650551 
L 41.13517 -21.650031 
L 40.624846 -21.649161 
L 40.114522 -21.647891 
L 39.604197 -21.646186 
L 39.093873 -21.644032 
L 38.583549 -21.641439 
L 38.073225 -21.638444 
L 37.5629 -21.635108 
L 37.052576 -21.631516 
L 36.542252 -21.627771 
L 36.031928 -21.623993 
L 35.521603 -21.620311 
L 35.011279 -21.616858 
L 34.500955 -21.613764 
L 33.990631 -21.61115 
L 33.480306 -21.609121 
L 32.969982 -21.607758 
L 32.459658 -21.607115 
L 31.949334 -21.607208 
L 31.439009 -21.608016 
L 30.928685 -21.609479 
L 30.418361 -21.611497 
L 29.908037 -21.613937 
L 29.397712 -21.616643 
L 28.887388 -21.619442 
L 28.377064 -21.622158 
L 27.86674 -21.624622 
L 27.356415 -21.626678 
L 26.846091 -21.628192 
L 26.335767 -21.629044 
L 25.825443 -21.629124 
L 25.315118 -21.628315 
L 24.804794 -21.626469 
L 24.29447 -21.62337 
L 23.784146 -21.618695 
L 23.273821 -21.611956 
L 22.763497 -21.602444 
L 22.253173 -21.589165 
L 21.742849 -21.570771 
L 21.232524 -21.545518 
L 20.7222 -21.511232 
L 20.211876 -21.465331 
L 19.701552 -21.404896 
L 19.191227 -21.326824 
L 18.680903 -21.228068 
L 18.170579 -21.105962 
L 17.660255 -20.958623 
L 17.14993 -20.785397 
L 16.639606 -20.587295 
L 16.129282 -20.36736 
L 15.618958 -20.13089 
L 15.108633 -19.885454 
L 14.598309 -19.640647 
L 14.087985 -19.407574 
L 13.577661 -19.198075 
L 13.067336 -19.02377 
L 12.557012 -18.89501 
L 12.046688 -18.819885 
L 11.536364 -18.8034 
z
"/>
    </defs>
    <g clip-path="url(#p8bfe9dce51)">
     <use xlink:href="#md8cb68c1c5" x="0" y="50.4" style="fill: #8d3d2d"/>
    </g>
   </g>
   <g id="FillBetweenPolyCollection_5">
    <defs>
     <path id="m06c8078f83" d="M 11.536364 -12.3354 
L 11.536364 -18.1566 
L 12.044174 -18.142899 
L 12.551984 -18.099016 
L 13.059795 -18.026333 
L 13.567605 -17.927097 
L 14.075415 -17.804314 
L 14.583226 -17.661589 
L 15.091036 -17.502955 
L 15.598846 -17.332685 
L 16.106657 -17.155102 
L 16.614467 -16.974402 
L 17.122277 -16.794497 
L 17.630088 -16.618885 
L 18.137898 -16.450556 
L 18.645708 -16.291931 
L 19.153519 -16.144838 
L 19.661329 -16.010519 
L 20.169139 -15.889664 
L 20.67695 -15.782469 
L 21.18476 -15.688705 
L 21.69257 -15.607799 
L 22.200381 -15.538918 
L 22.708191 -15.481045 
L 23.216001 -15.433058 
L 23.723812 -15.393787 
L 24.231622 -15.362075 
L 24.739432 -15.33681 
L 25.247242 -15.316962 
L 25.755053 -15.301602 
L 26.262863 -15.289906 
L 26.770673 -15.281166 
L 27.278484 -15.274781 
L 27.786294 -15.270257 
L 28.294104 -15.267189 
L 28.801915 -15.265261 
L 29.309725 -15.264226 
L 29.817535 -15.263899 
L 30.325346 -15.26415 
L 30.833156 -15.264888 
L 31.340966 -15.266061 
L 31.848777 -15.267645 
L 32.356587 -15.269639 
L 32.864397 -15.272061 
L 33.372208 -15.274945 
L 33.880018 -15.278335 
L 34.387828 -15.282286 
L 34.895639 -15.286859 
L 35.403449 -15.292119 
L 35.911259 -15.298134 
L 36.41907 -15.304971 
L 36.92688 -15.312698 
L 37.43469 -15.321377 
L 37.942501 -15.331065 
L 38.450311 -15.341812 
L 38.958121 -15.353662 
L 39.465932 -15.366644 
L 39.973742 -15.380782 
L 40.481552 -15.396082 
L 40.989363 -15.412541 
L 41.497173 -15.430144 
L 42.004983 -15.448861 
L 42.512794 -15.468653 
L 43.020604 -15.489469 
L 43.528414 -15.511248 
L 44.036225 -15.533925 
L 44.544035 -15.557428 
L 45.051845 -15.58168 
L 45.559656 -15.606606 
L 46.067466 -15.632127 
L 46.575276 -15.658168 
L 47.083087 -15.684652 
L 47.590897 -15.711501 
L 48.098707 -15.738634 
L 48.606518 -15.765965 
L 49.114328 -15.793393 
L 49.622138 -15.820804 
L 50.129949 -15.84806 
L 50.637759 -15.874996 
L 51.145569 -15.901413 
L 51.65338 -15.927078 
L 52.16119 -15.951716 
L 52.669 -15.975013 
L 53.176811 -15.996622 
L 53.684621 -16.016161 
L 54.192431 -16.03323 
L 54.700242 -16.047419 
L 55.208052 -16.058319 
L 55.715862 -16.065545 
L 56.223673 -16.068748 
L 56.731483 -16.067637 
L 57.239293 -16.061989 
L 57.747103 -16.051672 
L 58.254914 -16.036648 
L 58.762724 -16.016989 
L 59.270534 -15.992873 
L 59.778345 -15.964587 
L 60.286155 -15.932521 
L 60.793965 -15.897152 
L 61.301776 -15.859033 
L 61.809586 -15.818775 
L 61.809586 -14.673225 
L 61.809586 -14.673225 
L 61.301776 -14.632967 
L 60.793965 -14.594848 
L 60.286155 -14.559479 
L 59.778345 -14.527413 
L 59.270534 -14.499127 
L 58.762724 -14.475011 
L 58.254914 -14.455352 
L 57.747103 -14.440328 
L 57.239293 -14.430011 
L 56.731483 -14.424363 
L 56.223673 -14.423252 
L 55.715862 -14.426455 
L 55.208052 -14.433681 
L 54.700242 -14.444581 
L 54.192431 -14.45877 
L 53.684621 -14.475839 
L 53.176811 -14.495378 
L 52.669 -14.516987 
L 52.16119 -14.540284 
L 51.65338 -14.564922 
L 51.145569 -14.590587 
L 50.637759 -14.617004 
L 50.129949 -14.64394 
L 49.622138 -14.671196 
L 49.114328 -14.698607 
L 48.606518 -14.726035 
L 48.098707 -14.753366 
L 47.590897 -14.780499 
L 47.083087 -14.807348 
L 46.575276 -14.833832 
L 46.067466 -14.859873 
L 45.559656 -14.885394 
L 45.051845 -14.91032 
L 44.544035 -14.934572 
L 44.036225 -14.958075 
L 43.528414 -14.980752 
L 43.020604 -15.002531 
L 42.512794 -15.023347 
L 42.004983 -15.043139 
L 41.497173 -15.061856 
L 40.989363 -15.079459 
L 40.481552 -15.095918 
L 39.973742 -15.111218 
L 39.465932 -15.125356 
L 38.958121 -15.138338 
L 38.450311 -15.150188 
L 37.942501 -15.160935 
L 37.43469 -15.170623 
L 36.92688 -15.179302 
L 36.41907 -15.187029 
L 35.911259 -15.193866 
L 35.403449 -15.199881 
L 34.895639 -15.205141 
L 34.387828 -15.209714 
L 33.880018 -15.213665 
L 33.372208 -15.217055 
L 32.864397 -15.219939 
L 32.356587 -15.222361 
L 31.848777 -15.224355 
L 31.340966 -15.225939 
L 30.833156 -15.227112 
L 30.325346 -15.22785 
L 29.817535 -15.228101 
L 29.309725 -15.227774 
L 28.801915 -15.226739 
L 28.294104 -15.224811 
L 27.786294 -15.221743 
L 27.278484 -15.217219 
L 26.770673 -15.210834 
L 26.262863 -15.202094 
L 25.755053 -15.190398 
L 25.247242 -15.175038 
L 24.739432 -15.15519 
L 24.231622 -15.129925 
L 23.723812 -15.098213 
L 23.216001 -15.058942 
L 22.708191 -15.010955 
L 22.200381 -14.953082 
L 21.69257 -14.884201 
L 21.18476 -14.803295 
L 20.67695 -14.709531 
L 20.169139 -14.602336 
L 19.661329 -14.481481 
L 19.153519 -14.347162 
L 18.645708 -14.200069 
L 18.137898 -14.041444 
L 17.630088 -13.873115 
L 17.122277 -13.697503 
L 16.614467 -13.517598 
L 16.106657 -13.336898 
L 15.598846 -13.159315 
L 15.091036 -12.989045 
L 14.583226 -12.830411 
L 14.075415 -12.687686 
L 13.567605 -12.564903 
L 13.059795 -12.465667 
L 12.551984 -12.392984 
L 12.044174 -12.349101 
L 11.536364 -12.3354 
z
"/>
    </defs>
    <g clip-path="url(#p8bfe9dce51)">
     <use xlink:href="#m06c8078f83" x="0" y="50.4" style="fill: #e76f58"/>
    </g>
   </g>
   <g id="FillBetweenPolyCollection_6">
    <defs>
     <path id="mae5a618c80" d="M 11.536364 -8.566683 
L 11.536364 -8.989317 
L 12.044671 -9.0105 
L 12.552979 -9.032078 
L 13.061287 -9.053965 
L 13.569594 -9.076083 
L 14.077902 -9.098346 
L 14.58621 -9.120657 
L 15.094517 -9.142895 
L 15.602825 -9.164915 
L 16.111133 -9.186548 
L 16.619441 -9.207602 
L 17.127748 -9.227877 
L 17.636056 -9.247179 
L 18.144364 -9.26533 
L 18.652671 -9.282191 
L 19.160979 -9.297673 
L 19.669287 -9.311753 
L 20.177594 -9.324477 
L 20.685902 -9.335967 
L 21.19421 -9.346414 
L 21.702517 -9.356067 
L 22.210825 -9.36522 
L 22.719133 -9.37419 
L 23.22744 -9.383293 
L 23.735748 -9.392826 
L 24.244056 -9.403039 
L 24.752364 -9.41412 
L 25.260671 -9.426184 
L 25.768979 -9.439263 
L 26.277287 -9.453308 
L 26.785594 -9.468199 
L 27.293902 -9.483754 
L 27.80221 -9.499746 
L 28.310517 -9.515921 
L 28.818825 -9.53202 
L 29.327133 -9.547791 
L 29.83544 -9.563003 
L 30.343748 -9.577459 
L 30.852056 -9.591 
L 31.360363 -9.603504 
L 31.868671 -9.614892 
L 32.376979 -9.625118 
L 32.885287 -9.634168 
L 33.393594 -9.642053 
L 33.901902 -9.648807 
L 34.41021 -9.654478 
L 34.918517 -9.659122 
L 35.426825 -9.662803 
L 35.935133 -9.66558 
L 36.44344 -9.66751 
L 36.951748 -9.668643 
L 37.460056 -9.669014 
L 37.968363 -9.668651 
L 38.476671 -9.667572 
L 38.984979 -9.665791 
L 39.493286 -9.663325 
L 40.001594 -9.660201 
L 40.509902 -9.656464 
L 41.01821 -9.65219 
L 41.526517 -9.647487 
L 42.034825 -9.6425 
L 42.543133 -9.637417 
L 43.05144 -9.63246 
L 43.559748 -9.627885 
L 44.068056 -9.623977 
L 44.576363 -9.621045 
L 45.084671 -9.619423 
L 45.592979 -9.61947 
L 46.101286 -9.621579 
L 46.609594 -9.626194 
L 47.117902 -9.633821 
L 47.626209 -9.645056 
L 48.134517 -9.660597 
L 48.642825 -9.681264 
L 49.151133 -9.708007 
L 49.65944 -9.741896 
L 50.167748 -9.784101 
L 50.676056 -9.835852 
L 51.184363 -9.898364 
L 51.692671 -9.972755 
L 52.200979 -10.059926 
L 52.709286 -10.16043 
L 53.217594 -10.274323 
L 53.725902 -10.401027 
L 54.234209 -10.539187 
L 54.742517 -10.686582 
L 55.250825 -10.840065 
L 55.759132 -10.995581 
L 56.26744 -11.148256 
L 56.775748 -11.292576 
L 57.284056 -11.422646 
L 57.792363 -11.532515 
L 58.300671 -11.616555 
L 58.808979 -11.669857 
L 59.317286 -11.6886 
L 59.825594 -11.67037 
L 60.333902 -11.614385 
L 60.842209 -11.521598 
L 61.350517 -11.394671 
L 61.858825 -11.237811 
L 61.858825 -6.318189 
L 61.858825 -6.318189 
L 61.350517 -6.161329 
L 60.842209 -6.034402 
L 60.333902 -5.941615 
L 59.825594 -5.88563 
L 59.317286 -5.8674 
L 58.808979 -5.886143 
L 58.300671 -5.939445 
L 57.792363 -6.023485 
L 57.284056 -6.133354 
L 56.775748 -6.263424 
L 56.26744 -6.407744 
L 55.759132 -6.560419 
L 55.250825 -6.715935 
L 54.742517 -6.869418 
L 54.234209 -7.016813 
L 53.725902 -7.154973 
L 53.217594 -7.281677 
L 52.709286 -7.39557 
L 52.200979 -7.496074 
L 51.692671 -7.583245 
L 51.184363 -7.657636 
L 50.676056 -7.720148 
L 50.167748 -7.771899 
L 49.65944 -7.814104 
L 49.151133 -7.847993 
L 48.642825 -7.874736 
L 48.134517 -7.895403 
L 47.626209 -7.910944 
L 47.117902 -7.922179 
L 46.609594 -7.929806 
L 46.101286 -7.934421 
L 45.592979 -7.93653 
L 45.084671 -7.936577 
L 44.576363 -7.934955 
L 44.068056 -7.932023 
L 43.559748 -7.928115 
L 43.05144 -7.92354 
L 42.543133 -7.918583 
L 42.034825 -7.9135 
L 41.526517 -7.908513 
L 41.01821 -7.90381 
L 40.509902 -7.899536 
L 40.001594 -7.895799 
L 39.493286 -7.892675 
L 38.984979 -7.890209 
L 38.476671 -7.888428 
L 37.968363 -7.887349 
L 37.460056 -7.886986 
L 36.951748 -7.887357 
L 36.44344 -7.88849 
L 35.935133 -7.89042 
L 35.426825 -7.893197 
L 34.918517 -7.896878 
L 34.41021 -7.901522 
L 33.901902 -7.907193 
L 33.393594 -7.913947 
L 32.885287 -7.921832 
L 32.376979 -7.930882 
L 31.868671 -7.941108 
L 31.360363 -7.952496 
L 30.852056 -7.965 
L 30.343748 -7.978541 
L 29.83544 -7.992997 
L 29.327133 -8.008209 
L 28.818825 -8.02398 
L 28.310517 -8.040079 
L 27.80221 -8.056254 
L 27.293902 -8.072246 
L 26.785594 -8.087801 
L 26.277287 -8.102692 
L 25.768979 -8.116737 
L 25.260671 -8.129816 
L 24.752364 -8.14188 
L 24.244056 -8.152961 
L 23.735748 -8.163174 
L 23.22744 -8.172707 
L 22.719133 -8.18181 
L 22.210825 -8.19078 
L 21.702517 -8.199933 
L 21.19421 -8.209586 
L 20.685902 -8.220033 
L 20.177594 -8.231523 
L 19.669287 -8.244247 
L 19.160979 -8.258327 
L 18.652671 -8.273809 
L 18.144364 -8.29067 
L 17.636056 -8.308821 
L 17.127748 -8.328123 
L 16.619441 -8.348398 
L 16.111133 -8.369452 
L 15.602825 -8.391085 
L 15.094517 -8.413105 
L 14.58621 -8.435343 
L 14.077902 -8.457654 
L 13.569594 -8.479917 
L 13.061287 -8.502035 
L 12.552979 -8.523922 
L 12.044671 -8.5455 
L 11.536364 -8.566683 
z
"/>
    </defs>
    <g clip-path="url(#p8bfe9dce51)">
     <use xlink:href="#mae5a618c80" x="0" y="50.4" style="fill: #126175"/>
    </g>
   </g>
   <g id="matplotlib.axis_1">
    <g id="xtick_1">
     <g id="line2d_1">
      <defs>
       <path id="m2c4a20d397" d="M 0 0 
L 0 1.7 
" style="stroke: #000000; stroke-width: 0.25"/>
      </defs>
      <g>
       <use xlink:href="#m2c4a20d397" x="11.536364" y="45.856" style="stroke: #000000; stroke-width: 0.25"/>
      </g>
     </g>
     <g id="text_1">
      <text style="font-size: 6px; font-family: 'Arial'; text-anchor: middle" x="11.536364" y="53.350687" transform="rotate(-0 11.536364 53.350687)">0.0</text>
     </g>
    </g>
    <g id="xtick_2">
     <g id="line2d_2">
      <g>
       <use xlink:href="#m2c4a20d397" x="36.675957" y="45.856" style="stroke: #000000; stroke-width: 0.25"/>
      </g>
     </g>
     <g id="text_2">
      <text style="font-size: 6px; font-family: 'Arial'; text-anchor: middle" x="36.675957" y="53.350687" transform="rotate(-0 36.675957 53.350687)">0.5</text>
     </g>
    </g>
    <g id="xtick_3">
     <g id="line2d_3">
      <g>
       <use xlink:href="#m2c4a20d397" x="61.81555" y="45.856" style="stroke: #000000; stroke-width: 0.25"/>
      </g>
     </g>
     <g id="text_3">
      <text style="font-size: 6px; font-family: 'Arial'; text-anchor: middle" x="61.81555" y="53.350687" transform="rotate(-0 61.81555 53.350687)">1.0</text>
     </g>
    </g>
    <g id="text_4">
     <text style="font-size: 8px; font-family: 'Arial'" transform="translate(6.4525 61.769437)">motor rhythmicity</text>
     <text style="font-size: 8px; font-family: 'Arial'" transform="translate(27.119375 70.324687)">score</text>
    </g>
   </g>
   <g id="matplotlib.axis_2">
    <g id="ytick_1">
     <g id="line2d_4">
      <defs>
       <path id="m95a7444fc5" d="M 0 0 
L -1.7 0 
" style="stroke: #000000; stroke-width: 0.25"/>
      </defs>
      <g>
       <use xlink:href="#m95a7444fc5" x="7" y="9.282" style="stroke: #000000; stroke-width: 0.25"/>
      </g>
     </g>
     <g id="text_5">
      <text style="font-size: 6px; font-family: 'Arial'; text-anchor: end" x="3.8" y="11.429344" transform="rotate(-0 3.8 11.429344)">none</text>
     </g>
    </g>
    <g id="ytick_2">
     <g id="line2d_5">
      <g>
       <use xlink:href="#m95a7444fc5" x="7" y="15.75" style="stroke: #000000; stroke-width: 0.25"/>
      </g>
     </g>
     <g id="text_6">
      <text style="font-size: 6px; font-family: 'Arial'; text-anchor: end" x="3.8" y="17.897344" transform="rotate(-0 3.8 17.897344)">E1</text>
     </g>
    </g>
    <g id="ytick_3">
     <g id="line2d_6">
      <g>
       <use xlink:href="#m95a7444fc5" x="7" y="22.218" style="stroke: #000000; stroke-width: 0.25"/>
      </g>
     </g>
     <g id="text_7">
      <text style="font-size: 6px; font-family: 'Arial'; text-anchor: end" x="3.8" y="24.365344" transform="rotate(-0 3.8 24.365344)">E2</text>
     </g>
    </g>
    <g id="ytick_4">
     <g id="line2d_7">
      <g>
       <use xlink:href="#m95a7444fc5" x="7" y="28.686" style="stroke: #000000; stroke-width: 0.25"/>
      </g>
     </g>
     <g id="text_8">
      <text style="font-size: 6px; font-family: 'Arial'; text-anchor: end" x="3.8" y="30.833344" transform="rotate(-0 3.8 30.833344)">E3</text>
     </g>
    </g>
    <g id="ytick_5">
     <g id="line2d_8">
      <g>
       <use xlink:href="#m95a7444fc5" x="7" y="35.154" style="stroke: #000000; stroke-width: 0.25"/>
      </g>
     </g>
     <g id="text_9">
      <text style="font-size: 6px; font-family: 'Arial'; text-anchor: end" x="3.8" y="37.301344" transform="rotate(-0 3.8 37.301344)">E4</text>
     </g>
    </g>
    <g id="ytick_6">
     <g id="line2d_9">
      <g>
       <use xlink:href="#m95a7444fc5" x="7" y="41.622" style="stroke: #000000; stroke-width: 0.25"/>
      </g>
     </g>
     <g id="text_10">
      <text style="font-size: 6px; font-family: 'Arial'; text-anchor: end" x="3.8" y="43.769344" transform="rotate(-0 3.8 43.769344)">I2</text>
     </g>
    </g>
    <g id="text_11">
     <text style="font-size: 8px; font-family: 'Arial'; text-anchor: middle" x="-12.63625" y="25.452" transform="rotate(-90 -12.63625 25.452)">silenced neuron</text>
    </g>
   </g>
   <g id="patch_3">
    <path d="M 7 44.856 
L 7 6.048 
" style="fill: none; stroke: #000000; stroke-width: 0.25; stroke-linejoin: miter; stroke-linecap: square"/>
   </g>
   <g id="patch_4">
    <path d="M 9 45.856 
L 64.8 45.856 
" style="fill: none; stroke: #000000; stroke-width: 0.25; stroke-linejoin: miter; stroke-linecap: square"/>
   </g>
  </g>
 </g>
 <defs>
  <clipPath id="p8bfe9dce51">
   <rect x="9" y="6.048" width="55.8" height="38.808"/>
  </clipPath>
 </defs>
</svg>
