<?xml version="1.0" encoding="utf-8" standalone="no"?>
<!DOCTYPE svg PUBLIC "-//W3C//DTD SVG 1.1//EN"
  "http://www.w3.org/Graphics/SVG/1.1/DTD/svg11.dtd">
<svg xmlns:xlink="http://www.w3.org/1999/xlink" width="72pt" height="139.248pt" viewBox="0 0 72 139.248" xmlns="http://www.w3.org/2000/svg" version="1.1">
 <metadata>
  <rdf:RDF xmlns:dc="http://purl.org/dc/elements/1.1/" xmlns:cc="http://creativecommons.org/ns#" xmlns:rdf="http://www.w3.org/1999/02/22-rdf-syntax-ns#">
   <cc:Work>
    <dc:type rdf:resource="http://purl.org/dc/dcmitype/StillImage"/>
    <dc:date>2025-09-09T23:12:29.153618</dc:date>
    <dc:format>image/svg+xml</dc:format>
    <dc:creator>
     <cc:Agent>
      <dc:title>Matplotlib v3.10.3, https://matplotlib.org/</dc:title>
     </cc:Agent>
    </dc:creator>
   </cc:Work>
  </rdf:RDF>
 </metadata>
 <defs>
  <style type="text/css">*{stroke-linejoin: round; stroke-linecap: butt}</style>
 </defs>
 <g id="figure_1">
  <g id="patch_1">
   <path d="M 0 139.248 
L 72 139.248 
L 72 0 
L 0 0 
L 0 139.248 
z
" style="fill: none; opacity: 0"/>
  </g>
  <g id="axes_1">
   <g id="patch_2">
    <path d="M 9 33.865114 
L 64.8 33.865114 
L 64.8 16.70976 
L 9 16.70976 
L 9 33.865114 
z
" style="fill: none; opacity: 0"/>
   </g>
   <g id="patch_3">
    <path d="M 9 33.848393 
L 14.072727 33.848393 
L 14.072727 33.413657 
L 9 33.413657 
z
" clip-path="url(#p787262c201)" style="fill: #267655; fill-opacity: 0.5"/>
   </g>
   <g id="patch_4">
    <path d="M 14.072727 33.848393 
L 19.145455 33.848393 
L 19.145455 33.831672 
L 14.072727 33.831672 
z
" clip-path="url(#p787262c201)" style="fill: #267655; fill-opacity: 0.5"/>
   </g>
   <g id="patch_5">
    <path d="M 19.145455 33.848393 
L 24.218182 33.848393 
L 24.218182 33.831672 
L 19.145455 33.831672 
z
" clip-path="url(#p787262c201)" style="fill: #267655; fill-opacity: 0.5"/>
   </g>
   <g id="patch_6">
    <path d="M 24.218182 33.848393 
L 29.290909 33.848393 
L 29.290909 33.814952 
L 24.218182 33.814952 
z
" clip-path="url(#p787262c201)" style="fill: #267655; fill-opacity: 0.5"/>
   </g>
   <g id="patch_7">
    <path d="M 29.290909 33.848393 
L 34.363636 33.848393 
L 34.363636 33.664466 
L 29.290909 33.664466 
z
" clip-path="url(#p787262c201)" style="fill: #267655; fill-opacity: 0.5"/>
   </g>
   <g id="patch_8">
    <path d="M 34.363636 33.848393 
L 39.436364 33.848393 
L 39.436364 33.714628 
L 34.363636 33.714628 
z
" clip-path="url(#p787262c201)" style="fill: #267655; fill-opacity: 0.5"/>
   </g>
   <g id="patch_9">
    <path d="M 39.436364 33.848393 
L 44.509091 33.848393 
L 44.509091 33.396936 
L 39.436364 33.396936 
z
" clip-path="url(#p787262c201)" style="fill: #267655; fill-opacity: 0.5"/>
   </g>
   <g id="patch_10">
    <path d="M 44.509091 33.848393 
L 49.581818 33.848393 
L 49.581818 32.761553 
L 44.509091 32.761553 
z
" clip-path="url(#p787262c201)" style="fill: #267655; fill-opacity: 0.5"/>
   </g>
   <g id="patch_11">
    <path d="M 49.581818 33.848393 
L 54.654545 33.848393 
L 54.654545 32.67795 
L 49.581818 32.67795 
z
" clip-path="url(#p787262c201)" style="fill: #267655; fill-opacity: 0.5"/>
   </g>
   <g id="patch_12">
    <path d="M 54.654545 33.848393 
L 59.727273 33.848393 
L 59.727273 21.023679 
L 54.654545 21.023679 
z
" clip-path="url(#p787262c201)" style="fill: #267655; fill-opacity: 0.5"/>
   </g>
   <g id="patch_13">
    <path d="M 59.727273 33.848393 
L 64.8 33.848393 
L 64.8 33.079245 
L 59.727273 33.079245 
z
" clip-path="url(#p787262c201)" style="fill: #267655; fill-opacity: 0.5"/>
   </g>
   <g id="patch_14">
    <path d="M 64.8 33.848393 
L 69.872727 33.848393 
L 69.872727 33.848393 
L 64.8 33.848393 
z
" clip-path="url(#p787262c201)" style="fill: #267655; fill-opacity: 0.5"/>
   </g>
   <g id="patch_15">
    <path d="M 69.872727 33.848393 
L 74.945455 33.848393 
L 74.945455 33.848393 
L 69.872727 33.848393 
z
" clip-path="url(#p787262c201)" style="fill: #267655; fill-opacity: 0.5"/>
   </g>
   <g id="patch_16">
    <path d="M 74.945455 33.848393 
L 80.018182 33.848393 
L 80.018182 33.848393 
L 74.945455 33.848393 
z
" clip-path="url(#p787262c201)" style="fill: #267655; fill-opacity: 0.5"/>
   </g>
   <g id="matplotlib.axis_1">
    <g id="xtick_1">
     <g id="line2d_1">
      <defs>
       <path id="m3c9890bc71" d="M 0 0 
L 0 1.7 
" style="stroke: #000000; stroke-opacity: 0; stroke-width: 0.25"/>
      </defs>
      <g>
       <use xlink:href="#m3c9890bc71" x="9" y="34.865114" style="fill-opacity: 0; stroke: #000000; stroke-opacity: 0; stroke-width: 0.25"/>
      </g>
     </g>
    </g>
    <g id="xtick_2">
     <g id="line2d_2">
      <g>
       <use xlink:href="#m3c9890bc71" x="34.363636" y="34.865114" style="fill-opacity: 0; stroke: #000000; stroke-opacity: 0; stroke-width: 0.25"/>
      </g>
     </g>
    </g>
    <g id="xtick_3">
     <g id="line2d_3">
      <g>
       <use xlink:href="#m3c9890bc71" x="59.727273" y="34.865114" style="fill-opacity: 0; stroke: #000000; stroke-opacity: 0; stroke-width: 0.25"/>
      </g>
     </g>
    </g>
   </g>
   <g id="matplotlib.axis_2">
    <g id="ytick_1">
     <g id="line2d_4">
      <defs>
       <path id="m99a4b2dfc0" d="M 0 0 
L -1.7 0 
" style="stroke: #000000; stroke-width: 0.25"/>
      </defs>
      <g>
       <use xlink:href="#m99a4b2dfc0" x="8" y="33.848393" style="stroke: #000000; stroke-width: 0.25"/>
      </g>
     </g>
     <g id="text_1">
      <text style="font-size: 6px; font-family: 'Arial'; text-anchor: end" x="4.8" y="35.995737" transform="rotate(-0 4.8 35.995737)">0</text>
     </g>
    </g>
   </g>
   <g id="line2d_5">
    <path d="M 9 33.482103 
L 11.045629 33.591617 
L 14.62548 33.80276 
L 22.807997 33.830377 
L 31.757624 33.717051 
L 35.848883 33.618876 
L 39.428734 33.598791 
L 43.008585 33.268757 
L 51.958212 32.29089 
L 52.981027 31.833144 
L 53.748138 31.268754 
L 54.515249 30.438887 
L 55.282359 29.29416 
L 56.305174 27.31908 
L 57.839396 24.271738 
L 58.350803 23.609208 
L 58.86221 23.286663 
L 59.373618 23.36245 
L 59.885025 23.846694 
L 59.885025 23.846694 
" clip-path="url(#p787262c201)" style="fill: none; stroke: #267655; stroke-width: 0.5; stroke-linecap: square"/>
   </g>
   <g id="patch_17">
    <path d="M 8 33.865114 
L 8 16.70976 
" style="fill: none; stroke: #000000; stroke-width: 0.25; stroke-linejoin: miter; stroke-linecap: square"/>
   </g>
   <g id="patch_18">
    <path d="M 9 34.865114 
L 64.8 34.865114 
" style="fill: none; stroke: #000000; stroke-width: 0.25; stroke-linejoin: miter; stroke-linecap: square"/>
   </g>
  </g>
  <g id="axes_2">
   <g id="patch_19">
    <path d="M 9 51.878235 
L 64.8 51.878235 
L 64.8 34.722881 
L 9 34.722881 
L 9 51.878235 
z
" style="fill: none; opacity: 0"/>
   </g>
   <g id="patch_20">
    <path d="M 9 51.861514 
L 14.072727 51.861514 
L 14.072727 42.899263 
L 9 42.899263 
z
" clip-path="url(#pde106fa933)" style="fill: #d84a2e; fill-opacity: 0.5"/>
   </g>
   <g id="patch_21">
    <path d="M 14.072727 51.861514 
L 19.145455 51.861514 
L 19.145455 51.19269 
L 14.072727 51.19269 
z
" clip-path="url(#pde106fa933)" style="fill: #d84a2e; fill-opacity: 0.5"/>
   </g>
   <g id="patch_22">
    <path d="M 19.145455 51.861514 
L 24.218182 51.861514 
L 24.218182 51.008763 
L 19.145455 51.008763 
z
" clip-path="url(#pde106fa933)" style="fill: #d84a2e; fill-opacity: 0.5"/>
   </g>
   <g id="patch_23">
    <path d="M 24.218182 51.861514 
L 29.290909 51.861514 
L 29.290909 50.65763 
L 24.218182 50.65763 
z
" clip-path="url(#pde106fa933)" style="fill: #d84a2e; fill-opacity: 0.5"/>
   </g>
   <g id="patch_24">
    <path d="M 29.290909 51.861514 
L 34.363636 51.861514 
L 34.363636 49.871761 
L 29.290909 49.871761 
z
" clip-path="url(#pde106fa933)" style="fill: #d84a2e; fill-opacity: 0.5"/>
   </g>
   <g id="patch_25">
    <path d="M 34.363636 51.861514 
L 39.436364 51.861514 
L 39.436364 50.406821 
L 34.363636 50.406821 
z
" clip-path="url(#pde106fa933)" style="fill: #d84a2e; fill-opacity: 0.5"/>
   </g>
   <g id="patch_26">
    <path d="M 39.436364 51.861514 
L 44.509091 51.861514 
L 44.509091 50.908439 
L 39.436364 50.908439 
z
" clip-path="url(#pde106fa933)" style="fill: #d84a2e; fill-opacity: 0.5"/>
   </g>
   <g id="patch_27">
    <path d="M 44.509091 51.861514 
L 49.581818 51.861514 
L 49.581818 51.20941 
L 44.509091 51.20941 
z
" clip-path="url(#pde106fa933)" style="fill: #d84a2e; fill-opacity: 0.5"/>
   </g>
   <g id="patch_28">
    <path d="M 49.581818 51.861514 
L 54.654545 51.861514 
L 54.654545 51.711029 
L 49.581818 51.711029 
z
" clip-path="url(#pde106fa933)" style="fill: #d84a2e; fill-opacity: 0.5"/>
   </g>
   <g id="patch_29">
    <path d="M 54.654545 51.861514 
L 59.727273 51.861514 
L 59.727273 51.644146 
L 54.654545 51.644146 
z
" clip-path="url(#pde106fa933)" style="fill: #d84a2e; fill-opacity: 0.5"/>
   </g>
   <g id="patch_30">
    <path d="M 59.727273 51.861514 
L 64.8 51.861514 
L 64.8 51.844794 
L 59.727273 51.844794 
z
" clip-path="url(#pde106fa933)" style="fill: #d84a2e; fill-opacity: 0.5"/>
   </g>
   <g id="patch_31">
    <path d="M 64.8 51.861514 
L 69.872727 51.861514 
L 69.872727 51.861514 
L 64.8 51.861514 
z
" clip-path="url(#pde106fa933)" style="fill: #d84a2e; fill-opacity: 0.5"/>
   </g>
   <g id="patch_32">
    <path d="M 69.872727 51.861514 
L 74.945455 51.861514 
L 74.945455 51.861514 
L 69.872727 51.861514 
z
" clip-path="url(#pde106fa933)" style="fill: #d84a2e; fill-opacity: 0.5"/>
   </g>
   <g id="patch_33">
    <path d="M 74.945455 51.861514 
L 80.018182 51.861514 
L 80.018182 51.861514 
L 74.945455 51.861514 
z
" clip-path="url(#pde106fa933)" style="fill: #d84a2e; fill-opacity: 0.5"/>
   </g>
   <g id="matplotlib.axis_3">
    <g id="xtick_4">
     <g id="line2d_6">
      <g>
       <use xlink:href="#m3c9890bc71" x="9" y="52.878235" style="fill-opacity: 0; stroke: #000000; stroke-opacity: 0; stroke-width: 0.25"/>
      </g>
     </g>
    </g>
    <g id="xtick_5">
     <g id="line2d_7">
      <g>
       <use xlink:href="#m3c9890bc71" x="34.363636" y="52.878235" style="fill-opacity: 0; stroke: #000000; stroke-opacity: 0; stroke-width: 0.25"/>
      </g>
     </g>
    </g>
    <g id="xtick_6">
     <g id="line2d_8">
      <g>
       <use xlink:href="#m3c9890bc71" x="59.727273" y="52.878235" style="fill-opacity: 0; stroke: #000000; stroke-opacity: 0; stroke-width: 0.25"/>
      </g>
     </g>
    </g>
   </g>
   <g id="matplotlib.axis_4">
    <g id="ytick_2">
     <g id="line2d_9">
      <g>
       <use xlink:href="#m99a4b2dfc0" x="8" y="51.861514" style="stroke: #000000; stroke-width: 0.25"/>
      </g>
     </g>
     <g id="text_2">
      <text style="font-size: 6px; font-family: 'Arial'; text-anchor: end" x="4.8" y="54.008858" transform="rotate(-0 4.8 54.008858)">0</text>
     </g>
    </g>
   </g>
   <g id="line2d_10">
    <path d="M 9 46.711266 
L 9.764923 46.755231 
L 10.529846 47.015693 
L 11.549743 47.625086 
L 15.374358 50.257401 
L 16.64923 50.712513 
L 17.924102 50.943933 
L 19.708922 51.02698 
L 22.768614 50.889014 
L 33.477536 50.257243 
L 37.047177 50.401985 
L 44.696407 51.037394 
L 54.130458 51.658464 
L 59.739893 51.739912 
L 59.739893 51.739912 
" clip-path="url(#pde106fa933)" style="fill: none; stroke: #d84a2e; stroke-width: 0.5; stroke-linecap: square"/>
   </g>
   <g id="patch_34">
    <path d="M 8 51.878235 
L 8 34.722881 
" style="fill: none; stroke: #000000; stroke-width: 0.25; stroke-linejoin: miter; stroke-linecap: square"/>
   </g>
   <g id="patch_35">
    <path d="M 9 52.878235 
L 64.8 52.878235 
" style="fill: none; stroke: #000000; stroke-width: 0.25; stroke-linejoin: miter; stroke-linecap: square"/>
   </g>
  </g>
  <g id="axes_3">
   <g id="patch_36">
    <path d="M 9 69.891356 
L 64.8 69.891356 
L 64.8 52.736003 
L 9 52.736003 
L 9 69.891356 
z
" style="fill: none; opacity: 0"/>
   </g>
   <g id="patch_37">
    <path d="M 9 69.874636 
L 14.072727 69.874636 
L 14.072727 62.551005 
L 9 62.551005 
z
" clip-path="url(#pe173a16c4f)" style="fill: #ff9985; fill-opacity: 0.5"/>
   </g>
   <g id="patch_38">
    <path d="M 14.072727 69.874636 
L 19.145455 69.874636 
L 19.145455 69.306135 
L 14.072727 69.306135 
z
" clip-path="url(#pe173a16c4f)" style="fill: #ff9985; fill-opacity: 0.5"/>
   </g>
   <g id="patch_39">
    <path d="M 19.145455 69.874636 
L 24.218182 69.874636 
L 24.218182 69.45662 
L 19.145455 69.45662 
z
" clip-path="url(#pe173a16c4f)" style="fill: #ff9985; fill-opacity: 0.5"/>
   </g>
   <g id="patch_40">
    <path d="M 24.218182 69.874636 
L 29.290909 69.874636 
L 29.290909 69.406458 
L 24.218182 69.406458 
z
" clip-path="url(#pe173a16c4f)" style="fill: #ff9985; fill-opacity: 0.5"/>
   </g>
   <g id="patch_41">
    <path d="M 29.290909 69.874636 
L 34.363636 69.874636 
L 34.363636 69.423179 
L 29.290909 69.423179 
z
" clip-path="url(#pe173a16c4f)" style="fill: #ff9985; fill-opacity: 0.5"/>
   </g>
   <g id="patch_42">
    <path d="M 34.363636 69.874636 
L 39.436364 69.874636 
L 39.436364 69.607106 
L 34.363636 69.607106 
z
" clip-path="url(#pe173a16c4f)" style="fill: #ff9985; fill-opacity: 0.5"/>
   </g>
   <g id="patch_43">
    <path d="M 39.436364 69.874636 
L 44.509091 69.874636 
L 44.509091 69.523503 
L 39.436364 69.523503 
z
" clip-path="url(#pe173a16c4f)" style="fill: #ff9985; fill-opacity: 0.5"/>
   </g>
   <g id="patch_44">
    <path d="M 44.509091 69.874636 
L 49.581818 69.874636 
L 49.581818 69.556944 
L 44.509091 69.556944 
z
" clip-path="url(#pe173a16c4f)" style="fill: #ff9985; fill-opacity: 0.5"/>
   </g>
   <g id="patch_45">
    <path d="M 49.581818 69.874636 
L 54.654545 69.874636 
L 54.654545 69.607106 
L 49.581818 69.607106 
z
" clip-path="url(#pe173a16c4f)" style="fill: #ff9985; fill-opacity: 0.5"/>
   </g>
   <g id="patch_46">
    <path d="M 54.654545 69.874636 
L 59.727273 69.874636 
L 59.727273 64.457155 
L 54.654545 64.457155 
z
" clip-path="url(#pe173a16c4f)" style="fill: #ff9985; fill-opacity: 0.5"/>
   </g>
   <g id="patch_47">
    <path d="M 59.727273 69.874636 
L 64.8 69.874636 
L 64.8 68.603869 
L 59.727273 68.603869 
z
" clip-path="url(#pe173a16c4f)" style="fill: #ff9985; fill-opacity: 0.5"/>
   </g>
   <g id="patch_48">
    <path d="M 64.8 69.874636 
L 69.872727 69.874636 
L 69.872727 69.874636 
L 64.8 69.874636 
z
" clip-path="url(#pe173a16c4f)" style="fill: #ff9985; fill-opacity: 0.5"/>
   </g>
   <g id="patch_49">
    <path d="M 69.872727 69.874636 
L 74.945455 69.874636 
L 74.945455 69.874636 
L 69.872727 69.874636 
z
" clip-path="url(#pe173a16c4f)" style="fill: #ff9985; fill-opacity: 0.5"/>
   </g>
   <g id="patch_50">
    <path d="M 74.945455 69.874636 
L 80.018182 69.874636 
L 80.018182 69.874636 
L 74.945455 69.874636 
z
" clip-path="url(#pe173a16c4f)" style="fill: #ff9985; fill-opacity: 0.5"/>
   </g>
   <g id="matplotlib.axis_5">
    <g id="xtick_7">
     <g id="line2d_11">
      <g>
       <use xlink:href="#m3c9890bc71" x="9" y="70.891356" style="fill-opacity: 0; stroke: #000000; stroke-opacity: 0; stroke-width: 0.25"/>
      </g>
     </g>
    </g>
    <g id="xtick_8">
     <g id="line2d_12">
      <g>
       <use xlink:href="#m3c9890bc71" x="34.363636" y="70.891356" style="fill-opacity: 0; stroke: #000000; stroke-opacity: 0; stroke-width: 0.25"/>
      </g>
     </g>
    </g>
    <g id="xtick_9">
     <g id="line2d_13">
      <g>
       <use xlink:href="#m3c9890bc71" x="59.727273" y="70.891356" style="fill-opacity: 0; stroke: #000000; stroke-opacity: 0; stroke-width: 0.25"/>
      </g>
     </g>
    </g>
   </g>
   <g id="matplotlib.axis_6">
    <g id="ytick_3">
     <g id="line2d_14">
      <g>
       <use xlink:href="#m99a4b2dfc0" x="8" y="69.874636" style="stroke: #000000; stroke-width: 0.25"/>
      </g>
     </g>
     <g id="text_3">
      <text style="font-size: 6px; font-family: 'Arial'; text-anchor: end" x="4.8" y="72.021979" transform="rotate(-0 4.8 72.021979)">0</text>
     </g>
    </g>
   </g>
   <g id="line2d_15">
    <path d="M 9 67.236665 
L 10.800279 67.264951 
L 12.85774 67.544971 
L 16.458298 68.337972 
L 19.54449 68.921751 
L 22.373499 69.232932 
L 26.231239 69.404383 
L 35.746998 69.504489 
L 44.491209 69.453807 
L 47.834584 69.223978 
L 50.663594 68.808204 
L 58.121891 67.507311 
L 59.92217 67.537371 
L 60.179353 67.558826 
L 60.179353 67.558826 
" clip-path="url(#pe173a16c4f)" style="fill: none; stroke: #ff9985; stroke-width: 0.5; stroke-linecap: square"/>
   </g>
   <g id="patch_51">
    <path d="M 8 69.891356 
L 8 52.736003 
" style="fill: none; stroke: #000000; stroke-width: 0.25; stroke-linejoin: miter; stroke-linecap: square"/>
   </g>
   <g id="patch_52">
    <path d="M 9 70.891356 
L 64.8 70.891356 
" style="fill: none; stroke: #000000; stroke-width: 0.25; stroke-linejoin: miter; stroke-linecap: square"/>
   </g>
  </g>
  <g id="axes_4">
   <g id="patch_53">
    <path d="M 9 87.904477 
L 64.8 87.904477 
L 64.8 70.749124 
L 9 70.749124 
L 9 87.904477 
z
" style="fill: none; opacity: 0"/>
   </g>
   <g id="patch_54">
    <path d="M 9 87.887757 
L 14.072727 87.887757 
L 14.072727 73.708673 
L 9 73.708673 
z
" clip-path="url(#pff45943083)" style="fill: #9d321d; fill-opacity: 0.5"/>
   </g>
   <g id="patch_55">
    <path d="M 14.072727 87.887757 
L 19.145455 87.887757 
L 19.145455 87.503183 
L 14.072727 87.503183 
z
" clip-path="url(#pff45943083)" style="fill: #9d321d; fill-opacity: 0.5"/>
   </g>
   <g id="patch_56">
    <path d="M 19.145455 87.887757 
L 24.218182 87.887757 
L 24.218182 87.70383 
L 19.145455 87.70383 
z
" clip-path="url(#pff45943083)" style="fill: #9d321d; fill-opacity: 0.5"/>
   </g>
   <g id="patch_57">
    <path d="M 24.218182 87.887757 
L 29.290909 87.887757 
L 29.290909 87.620227 
L 24.218182 87.620227 
z
" clip-path="url(#pff45943083)" style="fill: #9d321d; fill-opacity: 0.5"/>
   </g>
   <g id="patch_58">
    <path d="M 29.290909 87.887757 
L 34.363636 87.887757 
L 34.363636 87.553344 
L 29.290909 87.553344 
z
" clip-path="url(#pff45943083)" style="fill: #9d321d; fill-opacity: 0.5"/>
   </g>
   <g id="patch_59">
    <path d="M 34.363636 87.887757 
L 39.436364 87.887757 
L 39.436364 87.753992 
L 34.363636 87.753992 
z
" clip-path="url(#pff45943083)" style="fill: #9d321d; fill-opacity: 0.5"/>
   </g>
   <g id="patch_60">
    <path d="M 39.436364 87.887757 
L 44.509091 87.887757 
L 44.509091 87.70383 
L 39.436364 87.70383 
z
" clip-path="url(#pff45943083)" style="fill: #9d321d; fill-opacity: 0.5"/>
   </g>
   <g id="patch_61">
    <path d="M 44.509091 87.887757 
L 49.581818 87.887757 
L 49.581818 87.70383 
L 44.509091 87.70383 
z
" clip-path="url(#pff45943083)" style="fill: #9d321d; fill-opacity: 0.5"/>
   </g>
   <g id="patch_62">
    <path d="M 49.581818 87.887757 
L 54.654545 87.887757 
L 54.654545 87.737271 
L 49.581818 87.737271 
z
" clip-path="url(#pff45943083)" style="fill: #9d321d; fill-opacity: 0.5"/>
   </g>
   <g id="patch_63">
    <path d="M 54.654545 87.887757 
L 59.727273 87.887757 
L 59.727273 86.834358 
L 54.654545 86.834358 
z
" clip-path="url(#pff45943083)" style="fill: #9d321d; fill-opacity: 0.5"/>
   </g>
   <g id="patch_64">
    <path d="M 59.727273 87.887757 
L 64.8 87.887757 
L 64.8 87.820874 
L 59.727273 87.820874 
z
" clip-path="url(#pff45943083)" style="fill: #9d321d; fill-opacity: 0.5"/>
   </g>
   <g id="patch_65">
    <path d="M 64.8 87.887757 
L 69.872727 87.887757 
L 69.872727 87.887757 
L 64.8 87.887757 
z
" clip-path="url(#pff45943083)" style="fill: #9d321d; fill-opacity: 0.5"/>
   </g>
   <g id="patch_66">
    <path d="M 69.872727 87.887757 
L 74.945455 87.887757 
L 74.945455 87.887757 
L 69.872727 87.887757 
z
" clip-path="url(#pff45943083)" style="fill: #9d321d; fill-opacity: 0.5"/>
   </g>
   <g id="patch_67">
    <path d="M 74.945455 87.887757 
L 80.018182 87.887757 
L 80.018182 87.887757 
L 74.945455 87.887757 
z
" clip-path="url(#pff45943083)" style="fill: #9d321d; fill-opacity: 0.5"/>
   </g>
   <g id="matplotlib.axis_7">
    <g id="xtick_10">
     <g id="line2d_16">
      <g>
       <use xlink:href="#m3c9890bc71" x="9" y="88.904477" style="fill-opacity: 0; stroke: #000000; stroke-opacity: 0; stroke-width: 0.25"/>
      </g>
     </g>
    </g>
    <g id="xtick_11">
     <g id="line2d_17">
      <g>
       <use xlink:href="#m3c9890bc71" x="34.363636" y="88.904477" style="fill-opacity: 0; stroke: #000000; stroke-opacity: 0; stroke-width: 0.25"/>
      </g>
     </g>
    </g>
    <g id="xtick_12">
     <g id="line2d_18">
      <g>
       <use xlink:href="#m3c9890bc71" x="59.727273" y="88.904477" style="fill-opacity: 0; stroke: #000000; stroke-opacity: 0; stroke-width: 0.25"/>
      </g>
     </g>
    </g>
   </g>
   <g id="matplotlib.axis_8">
    <g id="ytick_4">
     <g id="line2d_19">
      <g>
       <use xlink:href="#m99a4b2dfc0" x="8" y="87.887757" style="stroke: #000000; stroke-width: 0.25"/>
      </g>
     </g>
     <g id="text_4">
      <text style="font-size: 6px; font-family: 'Arial'; text-anchor: end" x="4.8" y="90.035101" transform="rotate(-0 4.8 90.035101)">0</text>
     </g>
    </g>
   </g>
   <g id="line2d_20">
    <path d="M 9 79.793403 
L 9.512285 79.838602 
L 10.280712 80.205294 
L 11.04914 80.880181 
L 12.07371 82.101598 
L 14.378992 85.008943 
L 15.403562 85.975039 
L 16.428132 86.661242 
L 17.452702 87.103702 
L 18.733414 87.411296 
L 20.526411 87.588828 
L 23.856263 87.651667 
L 40.505524 87.711941 
L 53.312648 87.604115 
L 59.972352 87.279955 
L 59.972352 87.279955 
" clip-path="url(#pff45943083)" style="fill: none; stroke: #9d321d; stroke-width: 0.5; stroke-linecap: square"/>
   </g>
   <g id="patch_68">
    <path d="M 8 87.904477 
L 8 70.749124 
" style="fill: none; stroke: #000000; stroke-width: 0.25; stroke-linejoin: miter; stroke-linecap: square"/>
   </g>
   <g id="patch_69">
    <path d="M 9 88.904477 
L 64.8 88.904477 
" style="fill: none; stroke: #000000; stroke-width: 0.25; stroke-linejoin: miter; stroke-linecap: square"/>
   </g>
  </g>
  <g id="axes_5">
   <g id="patch_70">
    <path d="M 9 105.917599 
L 64.8 105.917599 
L 64.8 88.762245 
L 9 88.762245 
L 9 105.917599 
z
" style="fill: none; opacity: 0"/>
   </g>
   <g id="patch_71">
    <path d="M 9 105.900878 
L 14.072727 105.900878 
L 14.072727 93.845313 
L 9 93.845313 
z
" clip-path="url(#p2b9b3127b4)" style="fill: #ff5f40; fill-opacity: 0.5"/>
   </g>
   <g id="patch_72">
    <path d="M 14.072727 105.900878 
L 19.145455 105.900878 
L 19.145455 105.884157 
L 14.072727 105.884157 
z
" clip-path="url(#p2b9b3127b4)" style="fill: #ff5f40; fill-opacity: 0.5"/>
   </g>
   <g id="patch_73">
    <path d="M 19.145455 105.900878 
L 24.218182 105.900878 
L 24.218182 105.900878 
L 19.145455 105.900878 
z
" clip-path="url(#p2b9b3127b4)" style="fill: #ff5f40; fill-opacity: 0.5"/>
   </g>
   <g id="patch_74">
    <path d="M 24.218182 105.900878 
L 29.290909 105.900878 
L 29.290909 105.884157 
L 24.218182 105.884157 
z
" clip-path="url(#p2b9b3127b4)" style="fill: #ff5f40; fill-opacity: 0.5"/>
   </g>
   <g id="patch_75">
    <path d="M 29.290909 105.900878 
L 34.363636 105.900878 
L 34.363636 105.850716 
L 29.290909 105.850716 
z
" clip-path="url(#p2b9b3127b4)" style="fill: #ff5f40; fill-opacity: 0.5"/>
   </g>
   <g id="patch_76">
    <path d="M 34.363636 105.900878 
L 39.436364 105.900878 
L 39.436364 105.850716 
L 34.363636 105.850716 
z
" clip-path="url(#p2b9b3127b4)" style="fill: #ff5f40; fill-opacity: 0.5"/>
   </g>
   <g id="patch_77">
    <path d="M 39.436364 105.900878 
L 44.509091 105.900878 
L 44.509091 105.449421 
L 39.436364 105.449421 
z
" clip-path="url(#p2b9b3127b4)" style="fill: #ff5f40; fill-opacity: 0.5"/>
   </g>
   <g id="patch_78">
    <path d="M 44.509091 105.900878 
L 49.581818 105.900878 
L 49.581818 104.964524 
L 44.509091 104.964524 
z
" clip-path="url(#p2b9b3127b4)" style="fill: #ff5f40; fill-opacity: 0.5"/>
   </g>
   <g id="patch_79">
    <path d="M 49.581818 105.900878 
L 54.654545 105.900878 
L 54.654545 104.496346 
L 49.581818 104.496346 
z
" clip-path="url(#p2b9b3127b4)" style="fill: #ff5f40; fill-opacity: 0.5"/>
   </g>
   <g id="patch_80">
    <path d="M 54.654545 105.900878 
L 59.727273 105.900878 
L 59.727273 103.760639 
L 54.654545 103.760639 
z
" clip-path="url(#p2b9b3127b4)" style="fill: #ff5f40; fill-opacity: 0.5"/>
   </g>
   <g id="patch_81">
    <path d="M 59.727273 105.900878 
L 64.8 105.900878 
L 64.8 105.900878 
L 59.727273 105.900878 
z
" clip-path="url(#p2b9b3127b4)" style="fill: #ff5f40; fill-opacity: 0.5"/>
   </g>
   <g id="patch_82">
    <path d="M 64.8 105.900878 
L 69.872727 105.900878 
L 69.872727 105.900878 
L 64.8 105.900878 
z
" clip-path="url(#p2b9b3127b4)" style="fill: #ff5f40; fill-opacity: 0.5"/>
   </g>
   <g id="patch_83">
    <path d="M 69.872727 105.900878 
L 74.945455 105.900878 
L 74.945455 105.900878 
L 69.872727 105.900878 
z
" clip-path="url(#p2b9b3127b4)" style="fill: #ff5f40; fill-opacity: 0.5"/>
   </g>
   <g id="patch_84">
    <path d="M 74.945455 105.900878 
L 80.018182 105.900878 
L 80.018182 105.900878 
L 74.945455 105.900878 
z
" clip-path="url(#p2b9b3127b4)" style="fill: #ff5f40; fill-opacity: 0.5"/>
   </g>
   <g id="matplotlib.axis_9">
    <g id="xtick_13">
     <g id="line2d_21">
      <g>
       <use xlink:href="#m3c9890bc71" x="9" y="106.917599" style="fill-opacity: 0; stroke: #000000; stroke-opacity: 0; stroke-width: 0.25"/>
      </g>
     </g>
    </g>
    <g id="xtick_14">
     <g id="line2d_22">
      <g>
       <use xlink:href="#m3c9890bc71" x="34.363636" y="106.917599" style="fill-opacity: 0; stroke: #000000; stroke-opacity: 0; stroke-width: 0.25"/>
      </g>
     </g>
    </g>
    <g id="xtick_15">
     <g id="line2d_23">
      <g>
       <use xlink:href="#m3c9890bc71" x="59.727273" y="106.917599" style="fill-opacity: 0; stroke: #000000; stroke-opacity: 0; stroke-width: 0.25"/>
      </g>
     </g>
    </g>
   </g>
   <g id="matplotlib.axis_10">
    <g id="ytick_5">
     <g id="line2d_24">
      <g>
       <use xlink:href="#m99a4b2dfc0" x="8" y="105.900878" style="stroke: #000000; stroke-width: 0.25"/>
      </g>
     </g>
     <g id="text_5">
      <text style="font-size: 6px; font-family: 'Arial'; text-anchor: end" x="4.8" y="108.048222" transform="rotate(-0 4.8 108.048222)">0</text>
     </g>
    </g>
   </g>
   <g id="line2d_25">
    <path d="M 9 101.004614 
L 10.019523 101.100494 
L 11.293926 101.484702 
L 12.82321 102.234617 
L 17.156182 104.597451 
L 18.940347 105.213395 
L 20.724511 105.577663 
L 23.018438 105.791648 
L 26.841648 105.870006 
L 34.99783 105.777978 
L 40.605205 105.502399 
L 48.251625 104.860219 
L 53.094358 104.533391 
L 55.898046 104.558171 
L 58.701733 104.806122 
L 59.721256 104.937346 
L 59.721256 104.937346 
" clip-path="url(#p2b9b3127b4)" style="fill: none; stroke: #ff5f40; stroke-width: 0.5; stroke-linecap: square"/>
   </g>
   <g id="patch_85">
    <path d="M 8 105.917599 
L 8 88.762245 
" style="fill: none; stroke: #000000; stroke-width: 0.25; stroke-linejoin: miter; stroke-linecap: square"/>
   </g>
   <g id="patch_86">
    <path d="M 9 106.917599 
L 64.8 106.917599 
" style="fill: none; stroke: #000000; stroke-width: 0.25; stroke-linejoin: miter; stroke-linecap: square"/>
   </g>
  </g>
  <g id="axes_6">
   <g id="patch_87">
    <path d="M 9 123.93072 
L 64.8 123.93072 
L 64.8 106.775366 
L 9 106.775366 
L 9 123.93072 
z
" style="fill: none; opacity: 0"/>
   </g>
   <g id="patch_88">
    <path d="M 9 123.913999 
L 14.072727 123.913999 
L 14.072727 122.526188 
L 9 122.526188 
z
" clip-path="url(#p0ec8d58645)" style="fill: #026b85; fill-opacity: 0.5"/>
   </g>
   <g id="patch_89">
    <path d="M 14.072727 123.913999 
L 19.145455 123.913999 
L 19.145455 122.57635 
L 14.072727 122.57635 
z
" clip-path="url(#p0ec8d58645)" style="fill: #026b85; fill-opacity: 0.5"/>
   </g>
   <g id="patch_90">
    <path d="M 19.145455 123.913999 
L 24.218182 123.913999 
L 24.218182 123.011086 
L 19.145455 123.011086 
z
" clip-path="url(#p0ec8d58645)" style="fill: #026b85; fill-opacity: 0.5"/>
   </g>
   <g id="patch_91">
    <path d="M 24.218182 123.913999 
L 29.290909 123.913999 
L 29.290909 122.743556 
L 24.218182 122.743556 
z
" clip-path="url(#p0ec8d58645)" style="fill: #026b85; fill-opacity: 0.5"/>
   </g>
   <g id="patch_92">
    <path d="M 29.290909 123.913999 
L 34.363636 123.913999 
L 34.363636 122.710115 
L 29.290909 122.710115 
z
" clip-path="url(#p0ec8d58645)" style="fill: #026b85; fill-opacity: 0.5"/>
   </g>
   <g id="patch_93">
    <path d="M 34.363636 123.913999 
L 39.436364 123.913999 
L 39.436364 122.810439 
L 34.363636 122.810439 
z
" clip-path="url(#p0ec8d58645)" style="fill: #026b85; fill-opacity: 0.5"/>
   </g>
   <g id="patch_94">
    <path d="M 39.436364 123.913999 
L 44.509091 123.913999 
L 44.509091 122.894042 
L 39.436364 122.894042 
z
" clip-path="url(#p0ec8d58645)" style="fill: #026b85; fill-opacity: 0.5"/>
   </g>
   <g id="patch_95">
    <path d="M 44.509091 123.913999 
L 49.581818 123.913999 
L 49.581818 122.944204 
L 44.509091 122.944204 
z
" clip-path="url(#p0ec8d58645)" style="fill: #026b85; fill-opacity: 0.5"/>
   </g>
   <g id="patch_96">
    <path d="M 49.581818 123.913999 
L 54.654545 123.913999 
L 54.654545 122.442585 
L 49.581818 122.442585 
z
" clip-path="url(#p0ec8d58645)" style="fill: #026b85; fill-opacity: 0.5"/>
   </g>
   <g id="patch_97">
    <path d="M 54.654545 123.913999 
L 59.727273 123.913999 
L 59.727273 117.71065 
L 54.654545 117.71065 
z
" clip-path="url(#p0ec8d58645)" style="fill: #026b85; fill-opacity: 0.5"/>
   </g>
   <g id="patch_98">
    <path d="M 59.727273 123.913999 
L 64.8 123.913999 
L 64.8 123.562866 
L 59.727273 123.562866 
z
" clip-path="url(#p0ec8d58645)" style="fill: #026b85; fill-opacity: 0.5"/>
   </g>
   <g id="patch_99">
    <path d="M 64.8 123.913999 
L 69.872727 123.913999 
L 69.872727 123.913999 
L 64.8 123.913999 
z
" clip-path="url(#p0ec8d58645)" style="fill: #026b85; fill-opacity: 0.5"/>
   </g>
   <g id="patch_100">
    <path d="M 69.872727 123.913999 
L 74.945455 123.913999 
L 74.945455 123.913999 
L 69.872727 123.913999 
z
" clip-path="url(#p0ec8d58645)" style="fill: #026b85; fill-opacity: 0.5"/>
   </g>
   <g id="patch_101">
    <path d="M 74.945455 123.913999 
L 80.018182 123.913999 
L 80.018182 123.913999 
L 74.945455 123.913999 
z
" clip-path="url(#p0ec8d58645)" style="fill: #026b85; fill-opacity: 0.5"/>
   </g>
   <g id="matplotlib.axis_11">
    <g id="xtick_16">
     <g id="line2d_26">
      <defs>
       <path id="mbf137b4389" d="M 0 0 
L 0 1.7 
" style="stroke: #000000; stroke-width: 0.25"/>
      </defs>
      <g>
       <use xlink:href="#mbf137b4389" x="9" y="124.93072" style="stroke: #000000; stroke-width: 0.25"/>
      </g>
     </g>
     <g id="text_6">
      <text style="font-size: 6px; font-family: 'Arial'; text-anchor: middle" x="9" y="132.425408" transform="rotate(-0 9 132.425408)">0.0</text>
     </g>
    </g>
    <g id="xtick_17">
     <g id="line2d_27">
      <g>
       <use xlink:href="#mbf137b4389" x="34.363636" y="124.93072" style="stroke: #000000; stroke-width: 0.25"/>
      </g>
     </g>
     <g id="text_7">
      <text style="font-size: 6px; font-family: 'Arial'; text-anchor: middle" x="34.363636" y="132.425408" transform="rotate(-0 34.363636 132.425408)">0.5</text>
     </g>
    </g>
    <g id="xtick_18">
     <g id="line2d_28">
      <g>
       <use xlink:href="#mbf137b4389" x="59.727273" y="124.93072" style="stroke: #000000; stroke-width: 0.25"/>
      </g>
     </g>
     <g id="text_8">
      <text style="font-size: 6px; font-family: 'Arial'; text-anchor: middle" x="59.727273" y="132.425408" transform="rotate(-0 59.727273 132.425408)">1.0</text>
     </g>
    </g>
    <g id="text_9">
     <text style="font-size: 8px; font-family: 'Arial'; text-anchor: middle" x="36.9" y="140.844157" transform="rotate(-0 36.9 140.844157)">motor rhythmicity score</text>
    </g>
   </g>
   <g id="matplotlib.axis_12">
    <g id="ytick_6">
     <g id="line2d_29">
      <g>
       <use xlink:href="#m99a4b2dfc0" x="8" y="123.913999" style="stroke: #000000; stroke-width: 0.25"/>
      </g>
     </g>
     <g id="text_10">
      <text style="font-size: 6px; font-family: 'Arial'; text-anchor: end" x="4.8" y="126.061343" transform="rotate(-0 4.8 126.061343)">0</text>
     </g>
    </g>
   </g>
   <g id="line2d_30">
    <path d="M 9 123.235541 
L 13.337215 122.765893 
L 16.398779 122.690272 
L 34.513032 122.784377 
L 46.249026 122.759426 
L 48.80033 122.476254 
L 50.841372 122.037016 
L 56.709369 120.567931 
L 57.985021 120.614368 
L 59.260673 120.878047 
L 59.770933 121.036967 
L 59.770933 121.036967 
" clip-path="url(#p0ec8d58645)" style="fill: none; stroke: #026b85; stroke-width: 0.5; stroke-linecap: square"/>
   </g>
   <g id="patch_102">
    <path d="M 8 123.93072 
L 8 106.775366 
" style="fill: none; stroke: #000000; stroke-width: 0.25; stroke-linejoin: miter; stroke-linecap: square"/>
   </g>
   <g id="patch_103">
    <path d="M 9 124.93072 
L 64.8 124.93072 
" style="fill: none; stroke: #000000; stroke-width: 0.25; stroke-linejoin: miter; stroke-linecap: square"/>
   </g>
  </g>
 </g>
 <defs>
  <clipPath id="p787262c201">
   <rect x="9" y="16.70976" width="55.8" height="17.155354"/>
  </clipPath>
  <clipPath id="pde106fa933">
   <rect x="9" y="34.722881" width="55.8" height="17.155354"/>
  </clipPath>
  <clipPath id="pe173a16c4f">
   <rect x="9" y="52.736003" width="55.8" height="17.155354"/>
  </clipPath>
  <clipPath id="pff45943083">
   <rect x="9" y="70.749124" width="55.8" height="17.155354"/>
  </clipPath>
  <clipPath id="p2b9b3127b4">
   <rect x="9" y="88.762245" width="55.8" height="17.155354"/>
  </clipPath>
  <clipPath id="p0ec8d58645">
   <rect x="9" y="106.775366" width="55.8" height="17.155354"/>
  </clipPath>
 </defs>
</svg>
