<?xml version="1.0" encoding="utf-8" standalone="no"?>
<!DOCTYPE svg PUBLIC "-//W3C//DTD SVG 1.1//EN"
  "http://www.w3.org/Graphics/SVG/1.1/DTD/svg11.dtd">
<svg xmlns:xlink="http://www.w3.org/1999/xlink" width="43.2pt" height="41.04pt" viewBox="0 0 43.2 41.04" xmlns="http://www.w3.org/2000/svg" version="1.1">
 <metadata>
  <rdf:RDF xmlns:dc="http://purl.org/dc/elements/1.1/" xmlns:cc="http://creativecommons.org/ns#" xmlns:rdf="http://www.w3.org/1999/02/22-rdf-syntax-ns#">
   <cc:Work>
    <dc:type rdf:resource="http://purl.org/dc/dcmitype/StillImage"/>
    <dc:date>2025-09-09T00:53:48.646320</dc:date>
    <dc:format>image/svg+xml</dc:format>
    <dc:creator>
     <cc:Agent>
      <dc:title>Matplotlib v3.10.3, https://matplotlib.org/</dc:title>
     </cc:Agent>
    </dc:creator>
   </cc:Work>
  </rdf:RDF>
 </metadata>
 <defs>
  <style type="text/css">*{stroke-linejoin: round; stroke-linecap: butt}</style>
 </defs>
 <g id="figure_1">
  <g id="patch_1">
   <path d="M 0 41.04 
L 43.2 41.04 
L 43.2 0 
L 0 0 
L 0 41.04 
z
" style="fill: none"/>
  </g>
  <g id="axes_1">
   <g id="patch_2">
    <path d="M 5.4 36.5256 
L 38.88 36.5256 
L 38.88 4.9248 
L 5.4 4.9248 
L 5.4 36.5256 
z
" style="fill: none"/>
   </g>
   <g id="patch_3">
    <path d="M 17.045217 36.5256 
L 18.50087 36.5256 
L 18.50087 35.669745 
L 17.045217 35.669745 
z
" clip-path="url(#pe059e366d1)" style="fill: #267655"/>
   </g>
   <g id="patch_4">
    <path d="M 18.50087 36.5256 
L 19.956522 36.5256 
L 19.956522 23.424435 
L 18.50087 23.424435 
z
" clip-path="url(#pe059e366d1)" style="fill: #267655"/>
   </g>
   <g id="patch_5">
    <path d="M 19.956522 36.5256 
L 21.412174 36.5256 
L 21.412174 23.292765 
L 19.956522 23.292765 
z
" clip-path="url(#pe059e366d1)" style="fill: #267655"/>
   </g>
   <g id="patch_6">
    <path d="M 21.412174 36.5256 
L 22.867826 36.5256 
L 22.867826 27.96705 
L 21.412174 27.96705 
z
" clip-path="url(#pe059e366d1)" style="fill: #267655"/>
   </g>
   <g id="patch_7">
    <path d="M 22.867826 36.5256 
L 24.323478 36.5256 
L 24.323478 29.349585 
L 22.867826 29.349585 
z
" clip-path="url(#pe059e366d1)" style="fill: #267655"/>
   </g>
   <g id="patch_8">
    <path d="M 24.323478 36.5256 
L 25.77913 36.5256 
L 25.77913 31.2588 
L 24.323478 31.2588 
z
" clip-path="url(#pe059e366d1)" style="fill: #267655"/>
   </g>
   <g id="patch_9">
    <path d="M 25.77913 36.5256 
L 27.234783 36.5256 
L 27.234783 31.719645 
L 25.77913 31.719645 
z
" clip-path="url(#pe059e366d1)" style="fill: #267655"/>
   </g>
   <g id="patch_10">
    <path d="M 27.234783 36.5256 
L 28.690435 36.5256 
L 28.690435 32.114655 
L 27.234783 32.114655 
z
" clip-path="url(#pe059e366d1)" style="fill: #267655"/>
   </g>
   <g id="patch_11">
    <path d="M 28.690435 36.5256 
L 30.146087 36.5256 
L 30.146087 32.509665 
L 28.690435 32.509665 
z
" clip-path="url(#pe059e366d1)" style="fill: #267655"/>
   </g>
   <g id="patch_12">
    <path d="M 30.146087 36.5256 
L 31.601739 36.5256 
L 31.601739 33.76053 
L 30.146087 33.76053 
z
" clip-path="url(#pe059e366d1)" style="fill: #267655"/>
   </g>
   <g id="patch_13">
    <path d="M 31.601739 36.5256 
L 33.057391 36.5256 
L 33.057391 34.748055 
L 31.601739 34.748055 
z
" clip-path="url(#pe059e366d1)" style="fill: #267655"/>
   </g>
   <g id="patch_14">
    <path d="M 33.057391 36.5256 
L 34.513043 36.5256 
L 34.513043 35.801415 
L 33.057391 35.801415 
z
" clip-path="url(#pe059e366d1)" style="fill: #267655"/>
   </g>
   <g id="patch_15">
    <path d="M 34.513043 36.5256 
L 35.968696 36.5256 
L 35.968696 35.86725 
L 34.513043 35.86725 
z
" clip-path="url(#pe059e366d1)" style="fill: #267655"/>
   </g>
   <g id="patch_16">
    <path d="M 35.968696 36.5256 
L 37.424348 36.5256 
L 37.424348 36.459765 
L 35.968696 36.459765 
z
" clip-path="url(#pe059e366d1)" style="fill: #267655"/>
   </g>
   <g id="matplotlib.axis_1">
    <g id="xtick_1">
     <g id="line2d_1">
      <defs>
       <path id="m7fa740b9b2" d="M 0 0 
L 0 1.7 
" style="stroke: #000000; stroke-width: 0.25"/>
      </defs>
      <g>
       <use xlink:href="#m7fa740b9b2" x="6.127826" y="37.5256" style="stroke: #000000; stroke-width: 0.25"/>
      </g>
     </g>
     <g id="text_1">
      <text style="font-size: 6px; font-family: 'Arial'; text-anchor: middle" x="6.127826" y="45.020288" transform="rotate(-0 6.127826 45.020288)">0</text>
     </g>
    </g>
    <g id="xtick_2">
     <g id="line2d_2">
      <g>
       <use xlink:href="#m7fa740b9b2" x="20.684348" y="37.5256" style="stroke: #000000; stroke-width: 0.25"/>
      </g>
     </g>
     <g id="text_2">
      <text style="font-size: 6px; font-family: 'Arial'; text-anchor: middle" x="20.684348" y="45.020288" transform="rotate(-0 20.684348 45.020288)">10</text>
     </g>
    </g>
    <g id="xtick_3">
     <g id="line2d_3">
      <g>
       <use xlink:href="#m7fa740b9b2" x="35.24087" y="37.5256" style="stroke: #000000; stroke-width: 0.25"/>
      </g>
     </g>
     <g id="text_3">
      <text style="font-size: 6px; font-family: 'Arial'; text-anchor: middle" x="35.24087" y="45.020288" transform="rotate(-0 35.24087 45.020288)">20</text>
     </g>
    </g>
    <g id="text_4">
     <text style="font-size: 8px; font-family: 'Arial'; text-anchor: middle" x="22.14" y="53.439037" transform="rotate(-0 22.14 53.439037)"># MNs active</text>
    </g>
   </g>
   <g id="matplotlib.axis_2">
    <g id="ytick_1">
     <g id="line2d_4">
      <defs>
       <path id="mca11f195d9" d="M 0 0 
L -1.7 0 
" style="stroke: #000000; stroke-width: 0.25"/>
      </defs>
      <g>
       <use xlink:href="#mca11f195d9" x="4.4" y="36.5256" style="stroke: #000000; stroke-width: 0.25"/>
      </g>
     </g>
     <g id="text_5">
      <text style="font-size: 6px; font-family: 'Arial'; text-anchor: end" x="1.2" y="38.672944" transform="rotate(-0 1.2 38.672944)">0</text>
     </g>
    </g>
    <g id="ytick_2">
     <g id="line2d_5">
      <g>
       <use xlink:href="#mca11f195d9" x="4.4" y="20.06685" style="stroke: #000000; stroke-width: 0.25"/>
      </g>
     </g>
     <g id="text_6">
      <text style="font-size: 6px; font-family: 'Arial'; text-anchor: end" x="1.2" y="22.214194" transform="rotate(-0 1.2 22.214194)">250</text>
     </g>
    </g>
    <g id="text_7">
     <text style="font-size: 8px; font-family: 'Arial'; text-anchor: middle" x="-11.899688" y="20.7252" transform="rotate(-90 -11.899688 20.7252)"># replicates</text>
    </g>
   </g>
   <g id="patch_17">
    <path d="M 4.4 36.5256 
L 4.4 4.9248 
" style="fill: none; stroke: #000000; stroke-width: 0.25; stroke-linejoin: miter; stroke-linecap: square"/>
   </g>
   <g id="patch_18">
    <path d="M 5.4 37.5256 
L 38.88 37.5256 
" style="fill: none; stroke: #000000; stroke-width: 0.25; stroke-linejoin: miter; stroke-linecap: square"/>
   </g>
  </g>
 </g>
 <defs>
  <clipPath id="pe059e366d1">
   <rect x="5.4" y="4.9248" width="33.48" height="31.6008"/>
  </clipPath>
 </defs>
</svg>
