<?xml version="1.0" encoding="utf-8" standalone="no"?>
<!DOCTYPE svg PUBLIC "-//W3C//DTD SVG 1.1//EN"
  "http://www.w3.org/Graphics/SVG/1.1/DTD/svg11.dtd">
<svg xmlns:xlink="http://www.w3.org/1999/xlink" width="60.48pt" height="102.672pt" viewBox="0 0 60.48 102.672" xmlns="http://www.w3.org/2000/svg" version="1.1">
 <metadata>
  <rdf:RDF xmlns:dc="http://purl.org/dc/elements/1.1/" xmlns:cc="http://creativecommons.org/ns#" xmlns:rdf="http://www.w3.org/1999/02/22-rdf-syntax-ns#">
   <cc:Work>
    <dc:type rdf:resource="http://purl.org/dc/dcmitype/StillImage"/>
    <dc:date>2025-09-12T14:23:08.515594</dc:date>
    <dc:format>image/svg+xml</dc:format>
    <dc:creator>
     <cc:Agent>
      <dc:title>Matplotlib v3.10.3, https://matplotlib.org/</dc:title>
     </cc:Agent>
    </dc:creator>
   </cc:Work>
  </rdf:RDF>
 </metadata>
 <defs>
  <style type="text/css">*{stroke-linejoin: round; stroke-linecap: butt}</style>
 </defs>
 <g id="figure_1">
  <g id="patch_1">
   <path d="M 0 102.672 
L 60.48 102.672 
L 60.48 0 
L 0 0 
L 0 102.672 
z
" style="fill: none"/>
  </g>
  <g id="axes_1">
   <g id="patch_2">
    <path d="M 7.56 91.37808 
L 54.432 91.37808 
L 54.432 12.32064 
L 7.56 12.32064 
L 7.56 91.37808 
z
" style="fill: none"/>
   </g>
   <g id="FillBetweenPolyCollection_1">
    <path d="M 13.688653 42.817002 
L 13.149347 42.817002 
L 13.09051 42.581555 
L 13.025834 42.346107 
L 12.956043 42.110659 
L 12.881916 41.875212 
L 12.804177 41.639764 
L 12.72339 41.404316 
L 12.639895 41.168869 
L 12.553778 40.933421 
L 12.464895 40.697973 
L 12.372923 40.462526 
L 12.277431 40.227078 
L 12.177944 39.991631 
L 12.073985 39.756183 
L 11.965079 39.520735 
L 11.850745 39.285288 
L 11.730472 39.04984 
L 11.603715 38.814392 
L 11.469933 38.578945 
L 11.328673 38.343497 
L 11.179714 38.10805 
L 11.023238 37.872602 
L 10.860008 37.637154 
L 10.691508 37.401707 
L 10.519999 37.166259 
L 10.348456 36.930811 
L 10.180352 36.695364 
L 10.019298 36.459916 
L 9.868573 36.224469 
L 9.730614 35.989021 
L 9.606558 35.753573 
L 9.495981 35.518126 
L 9.396903 35.282678 
L 9.306127 35.04723 
L 9.219886 34.811783 
L 9.134674 34.576335 
L 9.048116 34.340888 
L 8.959649 34.10544 
L 8.870877 33.869992 
L 8.785491 33.634545 
L 8.708793 33.399097 
L 8.646913 33.163649 
L 8.605912 32.928202 
L 8.590941 32.692754 
L 8.605604 32.457306 
L 8.651615 32.221859 
L 8.728726 31.986411 
L 8.834888 31.750964 
L 8.966564 31.515516 
L 9.119093 31.280068 
L 9.287067 31.044621 
L 9.464696 30.809173 
L 9.646153 30.573725 
L 9.82592 30.338278 
L 9.99914 30.10283 
L 10.161952 29.867383 
L 10.31178 29.631935 
L 10.447518 29.396487 
L 10.56958 29.16104 
L 10.679768 28.925592 
L 10.780977 28.690144 
L 10.87677 28.454697 
L 10.970876 28.219249 
L 11.066682 27.983802 
L 11.166802 27.748354 
L 11.272766 27.512906 
L 11.384876 27.277459 
L 11.502238 27.042011 
L 11.622955 26.806563 
L 11.744455 26.571116 
L 11.863882 26.335668 
L 11.978499 26.10022 
L 12.086033 25.864773 
L 12.184916 25.629325 
L 12.274392 25.393878 
L 12.354502 25.15843 
L 12.425967 24.922982 
L 12.490002 24.687535 
L 12.548106 24.452087 
L 12.601868 24.216639 
L 12.652787 23.981192 
L 12.702151 23.745744 
L 12.750939 23.510297 
L 12.799779 23.274849 
L 12.848933 23.039401 
L 12.898313 22.803954 
L 12.947527 22.568506 
L 12.995936 22.333058 
L 13.042736 22.097611 
L 13.087054 21.862163 
L 13.128046 21.626716 
L 13.165002 21.391268 
L 13.197442 21.15582 
L 13.225185 20.920373 
L 13.248384 20.684925 
L 13.267503 20.449477 
L 13.283262 20.21403 
L 13.296521 19.978582 
L 13.30816 19.743134 
L 13.31895 19.507687 
L 13.51905 19.507687 
L 13.51905 19.507687 
L 13.52984 19.743134 
L 13.541479 19.978582 
L 13.554738 20.21403 
L 13.570497 20.449477 
L 13.589616 20.684925 
L 13.612815 20.920373 
L 13.640558 21.15582 
L 13.672998 21.391268 
L 13.709954 21.626716 
L 13.750946 21.862163 
L 13.795264 22.097611 
L 13.842064 22.333058 
L 13.890473 22.568506 
L 13.939687 22.803954 
L 13.989067 23.039401 
L 14.038221 23.274849 
L 14.087061 23.510297 
L 14.135849 23.745744 
L 14.185213 23.981192 
L 14.236132 24.216639 
L 14.289894 24.452087 
L 14.347998 24.687535 
L 14.412033 24.922982 
L 14.483498 25.15843 
L 14.563608 25.393878 
L 14.653084 25.629325 
L 14.751967 25.864773 
L 14.859501 26.10022 
L 14.974118 26.335668 
L 15.093545 26.571116 
L 15.215045 26.806563 
L 15.335762 27.042011 
L 15.453124 27.277459 
L 15.565234 27.512906 
L 15.671198 27.748354 
L 15.771318 27.983802 
L 15.867124 28.219249 
L 15.96123 28.454697 
L 16.057023 28.690144 
L 16.158232 28.925592 
L 16.26842 29.16104 
L 16.390482 29.396487 
L 16.52622 29.631935 
L 16.676048 29.867383 
L 16.83886 30.10283 
L 17.01208 30.338278 
L 17.191847 30.573725 
L 17.373304 30.809173 
L 17.550933 31.044621 
L 17.718907 31.280068 
L 17.871436 31.515516 
L 18.003112 31.750964 
L 18.109274 31.986411 
L 18.186385 32.221859 
L 18.232396 32.457306 
L 18.247059 32.692754 
L 18.232088 32.928202 
L 18.191087 33.163649 
L 18.129207 33.399097 
L 18.052509 33.634545 
L 17.967123 33.869992 
L 17.878351 34.10544 
L 17.789884 34.340888 
L 17.703326 34.576335 
L 17.618114 34.811783 
L 17.531873 35.04723 
L 17.441097 35.282678 
L 17.342019 35.518126 
L 17.231442 35.753573 
L 17.107386 35.989021 
L 16.969427 36.224469 
L 16.818702 36.459916 
L 16.657648 36.695364 
L 16.489544 36.930811 
L 16.318001 37.166259 
L 16.146492 37.401707 
L 15.977992 37.637154 
L 15.814762 37.872602 
L 15.658286 38.10805 
L 15.509327 38.343497 
L 15.368067 38.578945 
L 15.234285 38.814392 
L 15.107528 39.04984 
L 14.987255 39.285288 
L 14.872921 39.520735 
L 14.764015 39.756183 
L 14.660056 39.991631 
L 14.560569 40.227078 
L 14.465077 40.462526 
L 14.373105 40.697973 
L 14.284222 40.933421 
L 14.198105 41.168869 
L 14.11461 41.404316 
L 14.033823 41.639764 
L 13.956084 41.875212 
L 13.881957 42.110659 
L 13.812166 42.346107 
L 13.74749 42.581555 
L 13.688653 42.817002 
z
" clip-path="url(#p9c7b3f30a9)" style="fill: #306c53; fill-opacity: 0.5"/>
   </g>
   <g id="FillBetweenPolyCollection_2">
    <path d="M 25.187351 42.151778 
L 25.086649 42.151778 
L 25.078395 41.92305 
L 25.067503 41.694322 
L 25.052624 41.465593 
L 25.032244 41.236865 
L 25.004834 41.008137 
L 24.969013 40.779409 
L 24.923684 40.550681 
L 24.868128 40.321952 
L 24.802022 40.093224 
L 24.72539 39.864496 
L 24.638498 39.635768 
L 24.541733 39.40704 
L 24.435492 39.178311 
L 24.320131 38.949583 
L 24.19597 38.720855 
L 24.063363 38.492127 
L 23.922777 38.263399 
L 23.774851 38.03467 
L 23.620383 37.805942 
L 23.460239 37.577214 
L 23.295197 37.348486 
L 23.12579 37.119758 
L 22.952215 36.891029 
L 22.774362 36.662301 
L 22.591988 36.433573 
L 22.405002 36.204845 
L 22.213771 35.976117 
L 22.019359 35.747389 
L 21.82361 35.51866 
L 21.629029 35.289932 
L 21.438497 35.061204 
L 21.254878 34.832476 
L 21.080642 34.603748 
L 20.917596 34.375019 
L 20.7668 34.146291 
L 20.628687 33.917563 
L 20.503367 33.688835 
L 20.391023 33.460107 
L 20.292305 33.231378 
L 20.208634 33.00265 
L 20.142315 32.773922 
L 20.096421 32.545194 
L 20.074453 32.316466 
L 20.079802 32.087737 
L 20.115098 31.859009 
L 20.181545 31.630281 
L 20.278354 31.401553 
L 20.402391 31.172825 
L 20.548132 30.944096 
L 20.707985 30.715368 
L 20.872982 30.48664 
L 21.033791 30.257912 
L 21.181901 30.029184 
L 21.310812 29.800456 
L 21.41698 29.571727 
L 21.500334 29.342999 
L 21.564208 29.114271 
L 21.61468 28.885543 
L 21.659438 28.656815 
L 21.706419 28.428086 
L 21.762517 28.199358 
L 21.832658 27.97063 
L 21.919392 27.741902 
L 22.023044 27.513174 
L 22.142269 27.284445 
L 22.274799 27.055717 
L 22.418112 26.826989 
L 22.569857 26.598261 
L 22.727947 26.369533 
L 22.890396 26.140804 
L 23.055029 25.912076 
L 23.219252 25.683348 
L 23.380007 25.45462 
L 23.53397 25.225892 
L 23.677937 24.997163 
L 23.809282 24.768435 
L 23.926356 24.539707 
L 24.028709 24.310979 
L 24.117079 24.082251 
L 24.19318 23.853523 
L 24.259352 23.624794 
L 24.318159 23.396066 
L 24.372034 23.167338 
L 24.423016 22.93861 
L 24.472583 22.709882 
L 24.521602 22.481153 
L 24.570345 22.252425 
L 24.618575 22.023697 
L 24.665667 21.794969 
L 24.710781 21.566241 
L 24.753039 21.337512 
L 24.791706 21.108784 
L 24.826344 20.880056 
L 24.856899 20.651328 
L 24.883717 20.4226 
L 24.907475 20.193871 
L 24.929046 19.965143 
L 24.949324 19.736415 
L 24.96906 19.507687 
L 25.30494 19.507687 
L 25.30494 19.507687 
L 25.324676 19.736415 
L 25.344954 19.965143 
L 25.366525 20.193871 
L 25.390283 20.4226 
L 25.417101 20.651328 
L 25.447656 20.880056 
L 25.482294 21.108784 
L 25.520961 21.337512 
L 25.563219 21.566241 
L 25.608333 21.794969 
L 25.655425 22.023697 
L 25.703655 22.252425 
L 25.752398 22.481153 
L 25.801417 22.709882 
L 25.850984 22.93861 
L 25.901966 23.167338 
L 25.955841 23.396066 
L 26.014648 23.624794 
L 26.08082 23.853523 
L 26.156921 24.082251 
L 26.245291 24.310979 
L 26.347644 24.539707 
L 26.464718 24.768435 
L 26.596063 24.997163 
L 26.74003 25.225892 
L 26.893993 25.45462 
L 27.054748 25.683348 
L 27.218971 25.912076 
L 27.383604 26.140804 
L 27.546053 26.369533 
L 27.704143 26.598261 
L 27.855888 26.826989 
L 27.999201 27.055717 
L 28.131731 27.284445 
L 28.250956 27.513174 
L 28.354608 27.741902 
L 28.441342 27.97063 
L 28.511483 28.199358 
L 28.567581 28.428086 
L 28.614562 28.656815 
L 28.65932 28.885543 
L 28.709792 29.114271 
L 28.773666 29.342999 
L 28.85702 29.571727 
L 28.963188 29.800456 
L 29.092099 30.029184 
L 29.240209 30.257912 
L 29.401018 30.48664 
L 29.566015 30.715368 
L 29.725868 30.944096 
L 29.871609 31.172825 
L 29.995646 31.401553 
L 30.092455 31.630281 
L 30.158902 31.859009 
L 30.194198 32.087737 
L 30.199547 32.316466 
L 30.177579 32.545194 
L 30.131685 32.773922 
L 30.065366 33.00265 
L 29.981695 33.231378 
L 29.882977 33.460107 
L 29.770633 33.688835 
L 29.645313 33.917563 
L 29.5072 34.146291 
L 29.356404 34.375019 
L 29.193358 34.603748 
L 29.019122 34.832476 
L 28.835503 35.061204 
L 28.644971 35.289932 
L 28.45039 35.51866 
L 28.254641 35.747389 
L 28.060229 35.976117 
L 27.868998 36.204845 
L 27.682012 36.433573 
L 27.499638 36.662301 
L 27.321785 36.891029 
L 27.14821 37.119758 
L 26.978803 37.348486 
L 26.813761 37.577214 
L 26.653617 37.805942 
L 26.499149 38.03467 
L 26.351223 38.263399 
L 26.210637 38.492127 
L 26.07803 38.720855 
L 25.953869 38.949583 
L 25.838508 39.178311 
L 25.732267 39.40704 
L 25.635502 39.635768 
L 25.54861 39.864496 
L 25.471978 40.093224 
L 25.405872 40.321952 
L 25.350316 40.550681 
L 25.304987 40.779409 
L 25.269166 41.008137 
L 25.241756 41.236865 
L 25.221376 41.465593 
L 25.206497 41.694322 
L 25.195605 41.92305 
L 25.187351 42.151778 
z
" clip-path="url(#p9c7b3f30a9)" style="fill: #306c53; fill-opacity: 0.5"/>
   </g>
   <g id="FillBetweenPolyCollection_3">
    <path d="M 36.950904 40.042087 
L 36.759096 40.042087 
L 36.737298 39.819854 
L 36.711577 39.59762 
L 36.681406 39.375386 
L 36.646262 39.153152 
L 36.605612 38.930919 
L 36.558878 38.708685 
L 36.505374 38.486451 
L 36.444248 38.264217 
L 36.374447 38.041983 
L 36.294695 37.81975 
L 36.203517 37.597516 
L 36.099276 37.375282 
L 35.980256 37.153048 
L 35.844771 36.930815 
L 35.691347 36.708581 
L 35.518973 36.486347 
L 35.327441 36.264113 
L 35.11773 36.04188 
L 34.892363 35.819646 
L 34.655603 35.597412 
L 34.413354 35.375178 
L 34.172674 35.152945 
L 33.940885 34.930711 
L 33.724404 34.708477 
L 33.527544 34.486243 
L 33.351605 34.264009 
L 33.19454 34.041776 
L 33.051365 33.819542 
L 32.915296 33.597308 
L 32.77936 33.375074 
L 32.638114 33.152841 
L 32.489044 32.930607 
L 32.333319 32.708373 
L 32.175709 32.486139 
L 32.023724 32.263906 
L 31.886193 32.041672 
L 31.77161 31.819438 
L 31.686649 31.597204 
L 31.635139 31.374971 
L 31.617698 31.152737 
L 31.632031 30.930503 
L 31.67377 30.708269 
L 31.737576 30.486035 
L 31.818235 30.263802 
L 31.911478 30.041568 
L 32.014387 29.819334 
L 32.125367 29.5971 
L 32.243772 29.374867 
L 32.369344 29.152633 
L 32.501644 28.930399 
L 32.639618 28.708165 
L 32.781379 28.485932 
L 32.924257 28.263698 
L 33.065077 28.041464 
L 33.200619 27.81923 
L 33.328164 27.596997 
L 33.446021 27.374763 
L 33.553905 27.152529 
L 33.653077 26.930295 
L 33.746197 26.708061 
L 33.836893 26.485828 
L 33.929154 26.263594 
L 34.02666 26.04136 
L 34.132215 25.819126 
L 34.247383 25.596893 
L 34.372388 25.374659 
L 34.506244 25.152425 
L 34.647042 24.930191 
L 34.792299 24.707958 
L 34.939295 24.485724 
L 35.085329 24.26349 
L 35.227906 24.041256 
L 35.364849 23.819023 
L 35.494357 23.596789 
L 35.615036 23.374555 
L 35.725907 23.152321 
L 35.826411 22.930088 
L 35.916389 22.707854 
L 35.996061 22.48562 
L 36.065982 22.263386 
L 36.126988 22.041152 
L 36.180126 21.818919 
L 36.226578 21.596685 
L 36.267581 21.374451 
L 36.304357 21.152217 
L 36.338049 20.929984 
L 36.369687 20.70775 
L 36.400156 20.485516 
L 36.43019 20.263282 
L 36.460365 20.041049 
L 36.491077 19.818815 
L 36.522524 19.596581 
L 36.554675 19.374347 
L 36.587262 19.152114 
L 36.619797 18.92988 
L 36.651641 18.707646 
L 36.68209 18.485412 
L 36.710487 18.263178 
L 36.736305 18.040945 
L 36.973695 18.040945 
L 36.973695 18.040945 
L 36.999513 18.263178 
L 37.02791 18.485412 
L 37.058359 18.707646 
L 37.090203 18.92988 
L 37.122738 19.152114 
L 37.155325 19.374347 
L 37.187476 19.596581 
L 37.218923 19.818815 
L 37.249635 20.041049 
L 37.27981 20.263282 
L 37.309844 20.485516 
L 37.340313 20.70775 
L 37.371951 20.929984 
L 37.405643 21.152217 
L 37.442419 21.374451 
L 37.483422 21.596685 
L 37.529874 21.818919 
L 37.583012 22.041152 
L 37.644018 22.263386 
L 37.713939 22.48562 
L 37.793611 22.707854 
L 37.883589 22.930088 
L 37.984093 23.152321 
L 38.094964 23.374555 
L 38.215643 23.596789 
L 38.345151 23.819023 
L 38.482094 24.041256 
L 38.624671 24.26349 
L 38.770705 24.485724 
L 38.917701 24.707958 
L 39.062958 24.930191 
L 39.203756 25.152425 
L 39.337612 25.374659 
L 39.462617 25.596893 
L 39.577785 25.819126 
L 39.68334 26.04136 
L 39.780846 26.263594 
L 39.873107 26.485828 
L 39.963803 26.708061 
L 40.056923 26.930295 
L 40.156095 27.152529 
L 40.263979 27.374763 
L 40.381836 27.596997 
L 40.509381 27.81923 
L 40.644923 28.041464 
L 40.785743 28.263698 
L 40.928621 28.485932 
L 41.070382 28.708165 
L 41.208356 28.930399 
L 41.340656 29.152633 
L 41.466228 29.374867 
L 41.584633 29.5971 
L 41.695613 29.819334 
L 41.798522 30.041568 
L 41.891765 30.263802 
L 41.972424 30.486035 
L 42.03623 30.708269 
L 42.077969 30.930503 
L 42.092302 31.152737 
L 42.074861 31.374971 
L 42.023351 31.597204 
L 41.93839 31.819438 
L 41.823807 32.041672 
L 41.686276 32.263906 
L 41.534291 32.486139 
L 41.376681 32.708373 
L 41.220956 32.930607 
L 41.071886 33.152841 
L 40.93064 33.375074 
L 40.794704 33.597308 
L 40.658635 33.819542 
L 40.51546 34.041776 
L 40.358395 34.264009 
L 40.182456 34.486243 
L 39.985596 34.708477 
L 39.769115 34.930711 
L 39.537326 35.152945 
L 39.296646 35.375178 
L 39.054397 35.597412 
L 38.817637 35.819646 
L 38.59227 36.04188 
L 38.382559 36.264113 
L 38.191027 36.486347 
L 38.018653 36.708581 
L 37.865229 36.930815 
L 37.729744 37.153048 
L 37.610724 37.375282 
L 37.506483 37.597516 
L 37.415305 37.81975 
L 37.335553 38.041983 
L 37.265752 38.264217 
L 37.204626 38.486451 
L 37.151122 38.708685 
L 37.104388 38.930919 
L 37.063738 39.153152 
L 37.028594 39.375386 
L 36.998423 39.59762 
L 36.972702 39.819854 
L 36.950904 40.042087 
z
" clip-path="url(#p9c7b3f30a9)" style="fill: #306c53; fill-opacity: 0.5"/>
   </g>
   <g id="FillBetweenPolyCollection_4">
    <path d="M 48.678386 39.298082 
L 48.467614 39.298082 
L 48.44743 39.067931 
L 48.424877 38.837779 
L 48.399398 38.607628 
L 48.370183 38.377476 
L 48.336142 38.147325 
L 48.295899 37.917173 
L 48.247795 37.687022 
L 48.189929 37.45687 
L 48.120222 37.226719 
L 48.036538 36.996567 
L 47.936836 36.766416 
L 47.81937 36.536264 
L 47.682888 36.306113 
L 47.526824 36.075961 
L 47.351438 35.84581 
L 47.157905 35.615658 
L 46.94832 35.385507 
L 46.725631 35.155355 
L 46.493504 34.925204 
L 46.256101 34.695052 
L 46.017795 34.464901 
L 45.782815 34.234749 
L 45.554845 34.004598 
L 45.33664 33.774446 
L 45.129739 33.544295 
L 44.934351 33.314143 
L 44.749485 33.083992 
L 44.573338 32.85384 
L 44.403877 32.623689 
L 44.23951 32.393537 
L 44.079692 32.163386 
L 43.925323 31.933234 
L 43.778859 31.703083 
L 43.644096 31.472931 
L 43.525669 31.24278 
L 43.42838 31.012628 
L 43.356489 30.782477 
L 43.313117 30.552325 
L 43.2999 30.322174 
L 43.316952 30.092023 
L 43.363118 29.861871 
L 43.436404 29.63172 
L 43.534423 29.401568 
L 43.654656 29.171417 
L 43.794455 28.941265 
L 43.950756 28.711114 
L 44.119664 28.480962 
L 44.29612 28.250811 
L 44.47388 28.020659 
L 44.645942 27.790508 
L 44.805397 27.560356 
L 44.946537 27.330205 
L 45.065891 27.100053 
L 45.162932 26.869902 
L 45.240203 26.63975 
L 45.302863 26.409599 
L 45.35776 26.179447 
L 45.412297 25.949296 
L 45.473342 25.719144 
L 45.546398 25.488993 
L 45.635125 25.258841 
L 45.741203 25.02869 
L 45.864472 24.798538 
L 46.003248 24.568387 
L 46.154732 24.338235 
L 46.315449 24.108084 
L 46.481658 23.877932 
L 46.649691 23.647781 
L 46.816195 23.417629 
L 46.978275 23.187478 
L 47.133537 22.957326 
L 47.280044 22.727175 
L 47.416244 22.497023 
L 47.54086 22.266872 
L 47.652815 22.03672 
L 47.751197 21.806569 
L 47.835321 21.576417 
L 47.904867 21.346266 
L 47.960079 21.116114 
L 48.001962 20.885963 
L 48.032405 20.655811 
L 48.054145 20.42566 
L 48.070548 20.195508 
L 48.085209 19.965357 
L 48.101451 19.735205 
L 48.121831 19.505054 
L 48.147777 19.274902 
L 48.179449 19.044751 
L 48.215858 18.814599 
L 48.255203 18.584448 
L 48.295316 18.354296 
L 48.334113 18.124145 
L 48.369937 17.893994 
L 48.401745 17.663842 
L 48.429126 17.433691 
L 48.452204 17.203539 
L 48.471469 16.973388 
L 48.48759 16.743236 
L 48.501257 16.513085 
L 48.644743 16.513085 
L 48.644743 16.513085 
L 48.65841 16.743236 
L 48.674531 16.973388 
L 48.693796 17.203539 
L 48.716874 17.433691 
L 48.744255 17.663842 
L 48.776063 17.893994 
L 48.811887 18.124145 
L 48.850684 18.354296 
L 48.890797 18.584448 
L 48.930142 18.814599 
L 48.966551 19.044751 
L 48.998223 19.274902 
L 49.024169 19.505054 
L 49.044549 19.735205 
L 49.060791 19.965357 
L 49.075452 20.195508 
L 49.091855 20.42566 
L 49.113595 20.655811 
L 49.144038 20.885963 
L 49.185921 21.116114 
L 49.241133 21.346266 
L 49.310679 21.576417 
L 49.394803 21.806569 
L 49.493185 22.03672 
L 49.60514 22.266872 
L 49.729756 22.497023 
L 49.865956 22.727175 
L 50.012463 22.957326 
L 50.167725 23.187478 
L 50.329805 23.417629 
L 50.496309 23.647781 
L 50.664342 23.877932 
L 50.830551 24.108084 
L 50.991268 24.338235 
L 51.142752 24.568387 
L 51.281528 24.798538 
L 51.404797 25.02869 
L 51.510875 25.258841 
L 51.599602 25.488993 
L 51.672658 25.719144 
L 51.733703 25.949296 
L 51.78824 26.179447 
L 51.843137 26.409599 
L 51.905797 26.63975 
L 51.983068 26.869902 
L 52.080109 27.100053 
L 52.199463 27.330205 
L 52.340603 27.560356 
L 52.500058 27.790508 
L 52.67212 28.020659 
L 52.84988 28.250811 
L 53.026336 28.480962 
L 53.195244 28.711114 
L 53.351545 28.941265 
L 53.491344 29.171417 
L 53.611577 29.401568 
L 53.709596 29.63172 
L 53.782882 29.861871 
L 53.829048 30.092023 
L 53.8461 30.322174 
L 53.832883 30.552325 
L 53.789511 30.782477 
L 53.71762 31.012628 
L 53.620331 31.24278 
L 53.501904 31.472931 
L 53.367141 31.703083 
L 53.220677 31.933234 
L 53.066308 32.163386 
L 52.90649 32.393537 
L 52.742123 32.623689 
L 52.572662 32.85384 
L 52.396515 33.083992 
L 52.211649 33.314143 
L 52.016261 33.544295 
L 51.80936 33.774446 
L 51.591155 34.004598 
L 51.363185 34.234749 
L 51.128205 34.464901 
L 50.889899 34.695052 
L 50.652496 34.925204 
L 50.420369 35.155355 
L 50.19768 35.385507 
L 49.988095 35.615658 
L 49.794562 35.84581 
L 49.619176 36.075961 
L 49.463112 36.306113 
L 49.32663 36.536264 
L 49.209164 36.766416 
L 49.109462 36.996567 
L 49.025778 37.226719 
L 48.956071 37.45687 
L 48.898205 37.687022 
L 48.850101 37.917173 
L 48.809858 38.147325 
L 48.775817 38.377476 
L 48.746602 38.607628 
L 48.721123 38.837779 
L 48.69857 39.067931 
L 48.678386 39.298082 
z
" clip-path="url(#p9c7b3f30a9)" style="fill: #306c53; fill-opacity: 0.5"/>
   </g>
   <g id="matplotlib.axis_1">
    <g id="xtick_1">
     <g id="line2d_1">
      <defs>
       <path id="m631a469d0b" d="M 0 0 
L 0 1.7 
" style="stroke: #000000; stroke-width: 0.25"/>
      </defs>
      <g>
       <use xlink:href="#m631a469d0b" x="13.419" y="93.37808" style="stroke: #000000; stroke-width: 0.25"/>
      </g>
     </g>
     <g id="text_1">
      <text style="font-size: 6px; font-family: 'Arial'" transform="translate(10.97683 106.692801) rotate(-45)">220</text>
     </g>
    </g>
    <g id="xtick_2">
     <g id="line2d_2">
      <g>
       <use xlink:href="#m631a469d0b" x="25.137" y="93.37808" style="stroke: #000000; stroke-width: 0.25"/>
      </g>
     </g>
     <g id="text_2">
      <text style="font-size: 6px; font-family: 'Arial'" transform="translate(22.69483 106.692801) rotate(-45)">260</text>
     </g>
    </g>
    <g id="xtick_3">
     <g id="line2d_3">
      <g>
       <use xlink:href="#m631a469d0b" x="36.855" y="93.37808" style="stroke: #000000; stroke-width: 0.25"/>
      </g>
     </g>
     <g id="text_3">
      <text style="font-size: 6px; font-family: 'Arial'" transform="translate(34.41283 106.692801) rotate(-45)">300</text>
     </g>
    </g>
    <g id="xtick_4">
     <g id="line2d_4">
      <g>
       <use xlink:href="#m631a469d0b" x="48.573" y="93.37808" style="stroke: #000000; stroke-width: 0.25"/>
      </g>
     </g>
     <g id="text_4">
      <text style="font-size: 6px; font-family: 'Arial'" transform="translate(46.13083 106.692801) rotate(-45)">340</text>
     </g>
    </g>
    <g id="text_5">
     <text style="font-size: 8px; font-family: 'Arial'; text-anchor: middle" x="30.996" y="114.859775" transform="rotate(-0 30.996 114.859775)">|input to DNg100|</text>
    </g>
   </g>
   <g id="matplotlib.axis_2">
    <g id="ytick_1">
     <g id="line2d_5">
      <defs>
       <path id="m57acb75f23" d="M 0 0 
L -1.7 0 
" style="stroke: #000000; stroke-width: 0.25"/>
      </defs>
      <g>
       <use xlink:href="#m57acb75f23" x="5.56" y="91.37808" style="stroke: #000000; stroke-width: 0.25"/>
      </g>
     </g>
     <g id="text_6">
      <text style="font-size: 6px; font-family: 'Arial'; text-anchor: end" x="2.36" y="93.525424" transform="rotate(-0 2.36 93.525424)">0</text>
     </g>
    </g>
    <g id="ytick_2">
     <g id="line2d_6">
      <g>
       <use xlink:href="#m57acb75f23" x="5.56" y="73.41048" style="stroke: #000000; stroke-width: 0.25"/>
      </g>
     </g>
     <g id="text_7">
      <text style="font-size: 6px; font-family: 'Arial'; text-anchor: end" x="2.36" y="75.557824" transform="rotate(-0 2.36 75.557824)">5</text>
     </g>
    </g>
    <g id="ytick_3">
     <g id="line2d_7">
      <g>
       <use xlink:href="#m57acb75f23" x="5.56" y="55.44288" style="stroke: #000000; stroke-width: 0.25"/>
      </g>
     </g>
     <g id="text_8">
      <text style="font-size: 6px; font-family: 'Arial'; text-anchor: end" x="2.36" y="57.590224" transform="rotate(-0 2.36 57.590224)">10</text>
     </g>
    </g>
    <g id="ytick_4">
     <g id="line2d_8">
      <g>
       <use xlink:href="#m57acb75f23" x="5.56" y="37.47528" style="stroke: #000000; stroke-width: 0.25"/>
      </g>
     </g>
     <g id="text_9">
      <text style="font-size: 6px; font-family: 'Arial'; text-anchor: end" x="2.36" y="39.622624" transform="rotate(-0 2.36 39.622624)">15</text>
     </g>
    </g>
    <g id="ytick_5">
     <g id="line2d_9">
      <g>
       <use xlink:href="#m57acb75f23" x="5.56" y="19.50768" style="stroke: #000000; stroke-width: 0.25"/>
      </g>
     </g>
     <g id="text_10">
      <text style="font-size: 6px; font-family: 'Arial'; text-anchor: end" x="2.36" y="21.655024" transform="rotate(-0 2.36 21.655024)">20</text>
     </g>
    </g>
    <g id="text_11">
     <text style="font-size: 8px; font-family: 'Arial'" transform="translate(-16.075375 75.63811) rotate(-90)">motor neuron</text>
     <text style="font-size: 8px; font-family: 'Arial'" transform="translate(-7.496875 78.07811) rotate(-90)">frequency (Hz)</text>
    </g>
   </g>
   <g id="patch_3">
    <path d="M 12.2472 35.229333 
L 14.5908 35.229333 
L 14.5908 30.470963 
L 12.2472 30.470963 
L 12.2472 35.229333 
z
" clip-path="url(#p9c7b3f30a9)" style="fill: #306c53; stroke: #2f2f2f; stroke-width: 0.5; stroke-linejoin: miter"/>
   </g>
   <g id="line2d_10">
    <path d="M 13.419 35.229333 
L 13.419 42.151778 
" clip-path="url(#p9c7b3f30a9)" style="fill: none; stroke: #2f2f2f; stroke-width: 0.5"/>
   </g>
   <g id="line2d_11">
    <path d="M 13.419 30.470963 
L 13.419 23.575819 
" clip-path="url(#p9c7b3f30a9)" style="fill: none; stroke: #2f2f2f; stroke-width: 0.5"/>
   </g>
   <g id="line2d_12">
    <path d="M 12.8331 42.151778 
L 14.0049 42.151778 
" clip-path="url(#p9c7b3f30a9)" style="fill: none; stroke: #2f2f2f; stroke-width: 0.5; stroke-linecap: square"/>
   </g>
   <g id="line2d_13">
    <path d="M 12.8331 23.575819 
L 14.0049 23.575819 
" clip-path="url(#p9c7b3f30a9)" style="fill: none; stroke: #2f2f2f; stroke-width: 0.5; stroke-linecap: square"/>
   </g>
   <g id="patch_4">
    <path d="M 23.9652 34.338082 
L 26.3088 34.338082 
L 26.3088 28.33387 
L 23.9652 28.33387 
L 23.9652 34.338082 
z
" clip-path="url(#p9c7b3f30a9)" style="fill: #306c53; stroke: #2f2f2f; stroke-width: 0.5; stroke-linejoin: miter"/>
   </g>
   <g id="line2d_14">
    <path d="M 25.137 34.338082 
L 25.137 42.151778 
" clip-path="url(#p9c7b3f30a9)" style="fill: none; stroke: #2f2f2f; stroke-width: 0.5"/>
   </g>
   <g id="line2d_15">
    <path d="M 25.137 28.33387 
L 25.137 19.507687 
" clip-path="url(#p9c7b3f30a9)" style="fill: none; stroke: #2f2f2f; stroke-width: 0.5"/>
   </g>
   <g id="line2d_16">
    <path d="M 24.5511 42.151778 
L 25.7229 42.151778 
" clip-path="url(#p9c7b3f30a9)" style="fill: none; stroke: #2f2f2f; stroke-width: 0.5; stroke-linecap: square"/>
   </g>
   <g id="line2d_17">
    <path d="M 24.5511 19.507687 
L 25.7229 19.507687 
" clip-path="url(#p9c7b3f30a9)" style="fill: none; stroke: #2f2f2f; stroke-width: 0.5; stroke-linecap: square"/>
   </g>
   <g id="patch_5">
    <path d="M 35.6832 32.467918 
L 38.0268 32.467918 
L 38.0268 27.208078 
L 35.6832 27.208078 
L 35.6832 32.467918 
z
" clip-path="url(#p9c7b3f30a9)" style="fill: #306c53; stroke: #2f2f2f; stroke-width: 0.5; stroke-linejoin: miter"/>
   </g>
   <g id="line2d_18">
    <path d="M 36.855 32.467918 
L 36.855 40.042087 
" clip-path="url(#p9c7b3f30a9)" style="fill: none; stroke: #2f2f2f; stroke-width: 0.5"/>
   </g>
   <g id="line2d_19">
    <path d="M 36.855 27.208078 
L 36.855 19.507687 
" clip-path="url(#p9c7b3f30a9)" style="fill: none; stroke: #2f2f2f; stroke-width: 0.5"/>
   </g>
   <g id="line2d_20">
    <path d="M 36.2691 40.042087 
L 37.4409 40.042087 
" clip-path="url(#p9c7b3f30a9)" style="fill: none; stroke: #2f2f2f; stroke-width: 0.5; stroke-linecap: square"/>
   </g>
   <g id="line2d_21">
    <path d="M 36.2691 19.507687 
L 37.4409 19.507687 
" clip-path="url(#p9c7b3f30a9)" style="fill: none; stroke: #2f2f2f; stroke-width: 0.5; stroke-linecap: square"/>
   </g>
   <g id="patch_6">
    <path d="M 47.4012 32.099729 
L 49.7448 32.099729 
L 49.7448 26.04136 
L 47.4012 26.04136 
L 47.4012 32.099729 
z
" clip-path="url(#p9c7b3f30a9)" style="fill: #306c53; stroke: #2f2f2f; stroke-width: 0.5; stroke-linejoin: miter"/>
   </g>
   <g id="line2d_22">
    <path d="M 48.573 32.099729 
L 48.573 39.298082 
" clip-path="url(#p9c7b3f30a9)" style="fill: none; stroke: #2f2f2f; stroke-width: 0.5"/>
   </g>
   <g id="line2d_23">
    <path d="M 48.573 26.04136 
L 48.573 18.040938 
" clip-path="url(#p9c7b3f30a9)" style="fill: none; stroke: #2f2f2f; stroke-width: 0.5"/>
   </g>
   <g id="line2d_24">
    <path d="M 47.9871 39.298082 
L 49.1589 39.298082 
" clip-path="url(#p9c7b3f30a9)" style="fill: none; stroke: #2f2f2f; stroke-width: 0.5; stroke-linecap: square"/>
   </g>
   <g id="line2d_25">
    <path d="M 47.9871 18.040938 
L 49.1589 18.040938 
" clip-path="url(#p9c7b3f30a9)" style="fill: none; stroke: #2f2f2f; stroke-width: 0.5; stroke-linecap: square"/>
   </g>
   <g id="line2d_26">
    <path d="M 12.2472 32.467918 
L 14.5908 32.467918 
" clip-path="url(#p9c7b3f30a9)" style="fill: none; stroke: #2f2f2f; stroke-width: 0.5"/>
   </g>
   <g id="line2d_27">
    <path d="M 23.9652 31.486082 
L 26.3088 31.486082 
" clip-path="url(#p9c7b3f30a9)" style="fill: none; stroke: #2f2f2f; stroke-width: 0.5"/>
   </g>
   <g id="line2d_28">
    <path d="M 35.6832 30.470963 
L 38.0268 30.470963 
" clip-path="url(#p9c7b3f30a9)" style="fill: none; stroke: #2f2f2f; stroke-width: 0.5"/>
   </g>
   <g id="line2d_29">
    <path d="M 47.4012 29.420841 
L 49.7448 29.420841 
" clip-path="url(#p9c7b3f30a9)" style="fill: none; stroke: #2f2f2f; stroke-width: 0.5"/>
   </g>
   <g id="patch_7">
    <path d="M 5.56 91.37808 
L 5.56 12.32064 
" style="fill: none; stroke: #000000; stroke-width: 0.25; stroke-linejoin: miter; stroke-linecap: square"/>
   </g>
   <g id="patch_8">
    <path d="M 7.56 93.37808 
L 54.432 93.37808 
" style="fill: none; stroke: #000000; stroke-width: 0.25; stroke-linejoin: miter; stroke-linecap: square"/>
   </g>
  </g>
 </g>
 <defs>
  <clipPath id="p9c7b3f30a9">
   <rect x="7.56" y="12.32064" width="46.872" height="79.05744"/>
  </clipPath>
 </defs>
</svg>
