<?xml version="1.0" encoding="utf-8" standalone="no"?>
<!DOCTYPE svg PUBLIC "-//W3C//DTD SVG 1.1//EN"
  "http://www.w3.org/Graphics/SVG/1.1/DTD/svg11.dtd">
<svg xmlns:xlink="http://www.w3.org/1999/xlink" width="60.48pt" height="102.672pt" viewBox="0 0 60.48 102.672" xmlns="http://www.w3.org/2000/svg" version="1.1">
 <metadata>
  <rdf:RDF xmlns:dc="http://purl.org/dc/elements/1.1/" xmlns:cc="http://creativecommons.org/ns#" xmlns:rdf="http://www.w3.org/1999/02/22-rdf-syntax-ns#">
   <cc:Work>
    <dc:type rdf:resource="http://purl.org/dc/dcmitype/StillImage"/>
    <dc:date>2025-09-12T14:06:56.047660</dc:date>
    <dc:format>image/svg+xml</dc:format>
    <dc:creator>
     <cc:Agent>
      <dc:title>Matplotlib v3.10.3, https://matplotlib.org/</dc:title>
     </cc:Agent>
    </dc:creator>
   </cc:Work>
  </rdf:RDF>
 </metadata>
 <defs>
  <style type="text/css">*{stroke-linejoin: round; stroke-linecap: butt}</style>
 </defs>
 <g id="figure_1">
  <g id="patch_1">
   <path d="M 0 102.672 
L 60.48 102.672 
L 60.48 0 
L 0 0 
L 0 102.672 
z
" style="fill: none"/>
  </g>
  <g id="axes_1">
   <g id="patch_2">
    <path d="M 7.56 91.37808 
L 54.432 91.37808 
L 54.432 12.32064 
L 7.56 12.32064 
L 7.56 91.37808 
z
" style="fill: none"/>
   </g>
   <g id="FillBetweenPolyCollection_1">
    <path d="M 13.588776 87.78456 
L 13.249224 87.78456 
L 13.254573 87.087635 
L 13.26963 86.39071 
L 13.291724 85.693785 
L 13.317276 84.99686 
L 13.34274 84.299935 
L 13.365376 83.60301 
L 13.383631 82.906085 
L 13.397119 82.209159 
L 13.406303 81.512234 
L 13.412089 80.815309 
L 13.415472 80.118384 
L 13.41731 79.421459 
L 13.418241 78.724534 
L 13.41868 78.027609 
L 13.418874 77.330684 
L 13.418953 76.633759 
L 13.418984 75.936834 
L 13.418995 75.239909 
L 13.418998 74.542984 
L 13.419 73.846059 
L 13.419 73.149134 
L 13.419 72.452209 
L 13.419 71.755283 
L 13.419 71.058358 
L 13.419 70.361433 
L 13.419 69.664508 
L 13.419 68.967583 
L 13.419 68.270658 
L 13.419 67.573733 
L 13.419 66.876808 
L 13.419 66.179883 
L 13.419 65.482958 
L 13.419 64.786033 
L 13.419 64.089108 
L 13.419 63.392183 
L 13.419 62.695258 
L 13.419 61.998333 
L 13.419 61.301407 
L 13.419 60.604482 
L 13.419 59.907557 
L 13.419 59.210632 
L 13.419 58.513707 
L 13.419 57.816782 
L 13.419 57.119857 
L 13.419 56.422932 
L 13.419 55.726007 
L 13.419 55.029082 
L 13.419 54.332157 
L 13.418999 53.635232 
L 13.418996 52.938307 
L 13.418987 52.241382 
L 13.418963 51.544457 
L 13.4189 50.847531 
L 13.418741 50.150606 
L 13.418369 49.453681 
L 13.417541 48.756756 
L 13.415809 48.059831 
L 13.412386 47.362906 
L 13.405991 46.665981 
L 13.394686 45.969056 
L 13.375748 45.272131 
L 13.345635 44.575206 
L 13.300081 43.878281 
L 13.234359 43.181356 
L 13.143665 42.484431 
L 13.023567 41.787506 
L 12.870442 41.090581 
L 12.681856 40.393655 
L 12.456889 39.69673 
L 12.196446 38.999805 
L 11.903609 38.30288 
L 11.583998 37.605955 
L 11.246059 36.90903 
L 10.901135 36.212105 
L 10.563198 35.51518 
L 10.248178 34.818255 
L 9.972892 34.12133 
L 9.753627 33.424405 
L 9.604448 32.72748 
L 9.535422 32.030555 
L 9.55105 31.33363 
L 9.649332 30.636705 
L 9.821834 29.939779 
L 10.054904 29.242854 
L 10.331788 28.545929 
L 10.635076 27.849004 
L 10.94882 27.152079 
L 11.25987 26.455154 
L 11.558326 25.758229 
L 11.837336 25.061304 
L 12.092586 24.364379 
L 12.321741 23.667454 
L 12.523978 22.970529 
L 12.699607 22.273604 
L 12.849743 21.576679 
L 12.976047 20.879754 
L 13.080519 20.182829 
L 13.16537 19.485903 
L 13.232932 18.788978 
L 13.605068 18.788978 
L 13.605068 18.788978 
L 13.67263 19.485903 
L 13.757481 20.182829 
L 13.861953 20.879754 
L 13.988257 21.576679 
L 14.138393 22.273604 
L 14.314022 22.970529 
L 14.516259 23.667454 
L 14.745414 24.364379 
L 15.000664 25.061304 
L 15.279674 25.758229 
L 15.57813 26.455154 
L 15.88918 27.152079 
L 16.202924 27.849004 
L 16.506212 28.545929 
L 16.783096 29.242854 
L 17.016166 29.939779 
L 17.188668 30.636705 
L 17.28695 31.33363 
L 17.302578 32.030555 
L 17.233552 32.72748 
L 17.084373 33.424405 
L 16.865108 34.12133 
L 16.589822 34.818255 
L 16.274802 35.51518 
L 15.936865 36.212105 
L 15.591941 36.90903 
L 15.254002 37.605955 
L 14.934391 38.30288 
L 14.641554 38.999805 
L 14.381111 39.69673 
L 14.156144 40.393655 
L 13.967558 41.090581 
L 13.814433 41.787506 
L 13.694335 42.484431 
L 13.603641 43.181356 
L 13.537919 43.878281 
L 13.492365 44.575206 
L 13.462252 45.272131 
L 13.443314 45.969056 
L 13.432009 46.665981 
L 13.425614 47.362906 
L 13.422191 48.059831 
L 13.420459 48.756756 
L 13.419631 49.453681 
L 13.419259 50.150606 
L 13.4191 50.847531 
L 13.419037 51.544457 
L 13.419013 52.241382 
L 13.419004 52.938307 
L 13.419001 53.635232 
L 13.419 54.332157 
L 13.419 55.029082 
L 13.419 55.726007 
L 13.419 56.422932 
L 13.419 57.119857 
L 13.419 57.816782 
L 13.419 58.513707 
L 13.419 59.210632 
L 13.419 59.907557 
L 13.419 60.604482 
L 13.419 61.301407 
L 13.419 61.998333 
L 13.419 62.695258 
L 13.419 63.392183 
L 13.419 64.089108 
L 13.419 64.786033 
L 13.419 65.482958 
L 13.419 66.179883 
L 13.419 66.876808 
L 13.419 67.573733 
L 13.419 68.270658 
L 13.419 68.967583 
L 13.419 69.664508 
L 13.419 70.361433 
L 13.419 71.058358 
L 13.419 71.755283 
L 13.419 72.452209 
L 13.419 73.149134 
L 13.419 73.846059 
L 13.419002 74.542984 
L 13.419005 75.239909 
L 13.419016 75.936834 
L 13.419047 76.633759 
L 13.419126 77.330684 
L 13.41932 78.027609 
L 13.419759 78.724534 
L 13.42069 79.421459 
L 13.422528 80.118384 
L 13.425911 80.815309 
L 13.431697 81.512234 
L 13.440881 82.209159 
L 13.454369 82.906085 
L 13.472624 83.60301 
L 13.49526 84.299935 
L 13.520724 84.99686 
L 13.546276 85.693785 
L 13.56837 86.39071 
L 13.583427 87.087635 
L 13.588776 87.78456 
z
" clip-path="url(#pff95b13d88)" style="fill: #306c53; fill-opacity: 0.5"/>
   </g>
   <g id="FillBetweenPolyCollection_2">
    <path d="M 25.187351 40.527307 
L 25.086649 40.527307 
L 25.078395 40.307728 
L 25.067503 40.088149 
L 25.052624 39.86857 
L 25.032244 39.648991 
L 25.004834 39.429412 
L 24.969013 39.209833 
L 24.923684 38.990254 
L 24.868128 38.770674 
L 24.802022 38.551095 
L 24.72539 38.331516 
L 24.638498 38.111937 
L 24.541733 37.892358 
L 24.435492 37.672779 
L 24.320131 37.4532 
L 24.19597 37.233621 
L 24.063363 37.014042 
L 23.922777 36.794463 
L 23.774851 36.574884 
L 23.620383 36.355305 
L 23.460239 36.135726 
L 23.295197 35.916146 
L 23.12579 35.696567 
L 22.952215 35.476988 
L 22.774362 35.257409 
L 22.591988 35.03783 
L 22.405002 34.818251 
L 22.213771 34.598672 
L 22.019359 34.379093 
L 21.82361 34.159514 
L 21.629029 33.939935 
L 21.438497 33.720356 
L 21.254878 33.500777 
L 21.080642 33.281198 
L 20.917596 33.061618 
L 20.7668 32.842039 
L 20.628687 32.62246 
L 20.503367 32.402881 
L 20.391023 32.183302 
L 20.292305 31.963723 
L 20.208634 31.744144 
L 20.142315 31.524565 
L 20.096421 31.304986 
L 20.074453 31.085407 
L 20.079802 30.865828 
L 20.115098 30.646249 
L 20.181545 30.42667 
L 20.278354 30.20709 
L 20.402391 29.987511 
L 20.548132 29.767932 
L 20.707985 29.548353 
L 20.872982 29.328774 
L 21.033791 29.109195 
L 21.181901 28.889616 
L 21.310812 28.670037 
L 21.41698 28.450458 
L 21.500334 28.230879 
L 21.564208 28.0113 
L 21.61468 27.791721 
L 21.659438 27.572142 
L 21.706419 27.352562 
L 21.762517 27.132983 
L 21.832658 26.913404 
L 21.919392 26.693825 
L 22.023044 26.474246 
L 22.142269 26.254667 
L 22.274799 26.035088 
L 22.418112 25.815509 
L 22.569857 25.59593 
L 22.727947 25.376351 
L 22.890396 25.156772 
L 23.055029 24.937193 
L 23.219252 24.717613 
L 23.380007 24.498034 
L 23.53397 24.278455 
L 23.677937 24.058876 
L 23.809282 23.839297 
L 23.926356 23.619718 
L 24.028709 23.400139 
L 24.117079 23.18056 
L 24.19318 22.960981 
L 24.259352 22.741402 
L 24.318159 22.521823 
L 24.372034 22.302244 
L 24.423016 22.082665 
L 24.472583 21.863085 
L 24.521602 21.643506 
L 24.570345 21.423927 
L 24.618575 21.204348 
L 24.665667 20.984769 
L 24.710781 20.76519 
L 24.753039 20.545611 
L 24.791706 20.326032 
L 24.826344 20.106453 
L 24.856899 19.886874 
L 24.883717 19.667295 
L 24.907475 19.447716 
L 24.929046 19.228137 
L 24.949324 19.008557 
L 24.96906 18.788978 
L 25.30494 18.788978 
L 25.30494 18.788978 
L 25.324676 19.008557 
L 25.344954 19.228137 
L 25.366525 19.447716 
L 25.390283 19.667295 
L 25.417101 19.886874 
L 25.447656 20.106453 
L 25.482294 20.326032 
L 25.520961 20.545611 
L 25.563219 20.76519 
L 25.608333 20.984769 
L 25.655425 21.204348 
L 25.703655 21.423927 
L 25.752398 21.643506 
L 25.801417 21.863085 
L 25.850984 22.082665 
L 25.901966 22.302244 
L 25.955841 22.521823 
L 26.014648 22.741402 
L 26.08082 22.960981 
L 26.156921 23.18056 
L 26.245291 23.400139 
L 26.347644 23.619718 
L 26.464718 23.839297 
L 26.596063 24.058876 
L 26.74003 24.278455 
L 26.893993 24.498034 
L 27.054748 24.717613 
L 27.218971 24.937193 
L 27.383604 25.156772 
L 27.546053 25.376351 
L 27.704143 25.59593 
L 27.855888 25.815509 
L 27.999201 26.035088 
L 28.131731 26.254667 
L 28.250956 26.474246 
L 28.354608 26.693825 
L 28.441342 26.913404 
L 28.511483 27.132983 
L 28.567581 27.352562 
L 28.614562 27.572142 
L 28.65932 27.791721 
L 28.709792 28.0113 
L 28.773666 28.230879 
L 28.85702 28.450458 
L 28.963188 28.670037 
L 29.092099 28.889616 
L 29.240209 29.109195 
L 29.401018 29.328774 
L 29.566015 29.548353 
L 29.725868 29.767932 
L 29.871609 29.987511 
L 29.995646 30.20709 
L 30.092455 30.42667 
L 30.158902 30.646249 
L 30.194198 30.865828 
L 30.199547 31.085407 
L 30.177579 31.304986 
L 30.131685 31.524565 
L 30.065366 31.744144 
L 29.981695 31.963723 
L 29.882977 32.183302 
L 29.770633 32.402881 
L 29.645313 32.62246 
L 29.5072 32.842039 
L 29.356404 33.061618 
L 29.193358 33.281198 
L 29.019122 33.500777 
L 28.835503 33.720356 
L 28.644971 33.939935 
L 28.45039 34.159514 
L 28.254641 34.379093 
L 28.060229 34.598672 
L 27.868998 34.818251 
L 27.682012 35.03783 
L 27.499638 35.257409 
L 27.321785 35.476988 
L 27.14821 35.696567 
L 26.978803 35.916146 
L 26.813761 36.135726 
L 26.653617 36.355305 
L 26.499149 36.574884 
L 26.351223 36.794463 
L 26.210637 37.014042 
L 26.07803 37.233621 
L 25.953869 37.4532 
L 25.838508 37.672779 
L 25.732267 37.892358 
L 25.635502 38.111937 
L 25.54861 38.331516 
L 25.471978 38.551095 
L 25.405872 38.770674 
L 25.350316 38.990254 
L 25.304987 39.209833 
L 25.269166 39.429412 
L 25.241756 39.648991 
L 25.221376 39.86857 
L 25.206497 40.088149 
L 25.195605 40.307728 
L 25.187351 40.527307 
z
" clip-path="url(#pff95b13d88)" style="fill: #306c53; fill-opacity: 0.5"/>
   </g>
   <g id="FillBetweenPolyCollection_3">
    <path d="M 36.950904 38.502004 
L 36.759096 38.502004 
L 36.737298 38.28866 
L 36.711577 38.075315 
L 36.681406 37.861971 
L 36.646262 37.648626 
L 36.605612 37.435282 
L 36.558878 37.221937 
L 36.505374 37.008593 
L 36.444248 36.795249 
L 36.374447 36.581904 
L 36.294695 36.36856 
L 36.203517 36.155215 
L 36.099276 35.941871 
L 35.980256 35.728526 
L 35.844771 35.515182 
L 35.691347 35.301838 
L 35.518973 35.088493 
L 35.327441 34.875149 
L 35.11773 34.661804 
L 34.892363 34.44846 
L 34.655603 34.235116 
L 34.413354 34.021771 
L 34.172674 33.808427 
L 33.940885 33.595082 
L 33.724404 33.381738 
L 33.527544 33.168393 
L 33.351605 32.955049 
L 33.19454 32.741705 
L 33.051365 32.52836 
L 32.915296 32.315016 
L 32.77936 32.101671 
L 32.638114 31.888327 
L 32.489044 31.674982 
L 32.333319 31.461638 
L 32.175709 31.248294 
L 32.023724 31.034949 
L 31.886193 30.821605 
L 31.77161 30.60826 
L 31.686649 30.394916 
L 31.635139 30.181571 
L 31.617698 29.968227 
L 31.632031 29.754883 
L 31.67377 29.541538 
L 31.737576 29.328194 
L 31.818235 29.114849 
L 31.911478 28.901505 
L 32.014387 28.68816 
L 32.125367 28.474816 
L 32.243772 28.261472 
L 32.369344 28.048127 
L 32.501644 27.834783 
L 32.639618 27.621438 
L 32.781379 27.408094 
L 32.924257 27.194749 
L 33.065077 26.981405 
L 33.200619 26.768061 
L 33.328164 26.554716 
L 33.446021 26.341372 
L 33.553905 26.128027 
L 33.653077 25.914683 
L 33.746197 25.701338 
L 33.836893 25.487994 
L 33.929154 25.27465 
L 34.02666 25.061305 
L 34.132215 24.847961 
L 34.247383 24.634616 
L 34.372388 24.421272 
L 34.506244 24.207927 
L 34.647042 23.994583 
L 34.792299 23.781239 
L 34.939295 23.567894 
L 35.085329 23.35455 
L 35.227906 23.141205 
L 35.364849 22.927861 
L 35.494357 22.714516 
L 35.615036 22.501172 
L 35.725907 22.287828 
L 35.826411 22.074483 
L 35.916389 21.861139 
L 35.996061 21.647794 
L 36.065982 21.43445 
L 36.126988 21.221105 
L 36.180126 21.007761 
L 36.226578 20.794417 
L 36.267581 20.581072 
L 36.304357 20.367728 
L 36.338049 20.154383 
L 36.369687 19.941039 
L 36.400156 19.727695 
L 36.43019 19.51435 
L 36.460365 19.301006 
L 36.491077 19.087661 
L 36.522524 18.874317 
L 36.554675 18.660972 
L 36.587262 18.447628 
L 36.619797 18.234284 
L 36.651641 18.020939 
L 36.68209 17.807595 
L 36.710487 17.59425 
L 36.736305 17.380906 
L 36.973695 17.380906 
L 36.973695 17.380906 
L 36.999513 17.59425 
L 37.02791 17.807595 
L 37.058359 18.020939 
L 37.090203 18.234284 
L 37.122738 18.447628 
L 37.155325 18.660972 
L 37.187476 18.874317 
L 37.218923 19.087661 
L 37.249635 19.301006 
L 37.27981 19.51435 
L 37.309844 19.727695 
L 37.340313 19.941039 
L 37.371951 20.154383 
L 37.405643 20.367728 
L 37.442419 20.581072 
L 37.483422 20.794417 
L 37.529874 21.007761 
L 37.583012 21.221105 
L 37.644018 21.43445 
L 37.713939 21.647794 
L 37.793611 21.861139 
L 37.883589 22.074483 
L 37.984093 22.287828 
L 38.094964 22.501172 
L 38.215643 22.714516 
L 38.345151 22.927861 
L 38.482094 23.141205 
L 38.624671 23.35455 
L 38.770705 23.567894 
L 38.917701 23.781239 
L 39.062958 23.994583 
L 39.203756 24.207927 
L 39.337612 24.421272 
L 39.462617 24.634616 
L 39.577785 24.847961 
L 39.68334 25.061305 
L 39.780846 25.27465 
L 39.873107 25.487994 
L 39.963803 25.701338 
L 40.056923 25.914683 
L 40.156095 26.128027 
L 40.263979 26.341372 
L 40.381836 26.554716 
L 40.509381 26.768061 
L 40.644923 26.981405 
L 40.785743 27.194749 
L 40.928621 27.408094 
L 41.070382 27.621438 
L 41.208356 27.834783 
L 41.340656 28.048127 
L 41.466228 28.261472 
L 41.584633 28.474816 
L 41.695613 28.68816 
L 41.798522 28.901505 
L 41.891765 29.114849 
L 41.972424 29.328194 
L 42.03623 29.541538 
L 42.077969 29.754883 
L 42.092302 29.968227 
L 42.074861 30.181571 
L 42.023351 30.394916 
L 41.93839 30.60826 
L 41.823807 30.821605 
L 41.686276 31.034949 
L 41.534291 31.248294 
L 41.376681 31.461638 
L 41.220956 31.674982 
L 41.071886 31.888327 
L 40.93064 32.101671 
L 40.794704 32.315016 
L 40.658635 32.52836 
L 40.51546 32.741705 
L 40.358395 32.955049 
L 40.182456 33.168393 
L 39.985596 33.381738 
L 39.769115 33.595082 
L 39.537326 33.808427 
L 39.296646 34.021771 
L 39.054397 34.235116 
L 38.817637 34.44846 
L 38.59227 34.661804 
L 38.382559 34.875149 
L 38.191027 35.088493 
L 38.018653 35.301838 
L 37.865229 35.515182 
L 37.729744 35.728526 
L 37.610724 35.941871 
L 37.506483 36.155215 
L 37.415305 36.36856 
L 37.335553 36.581904 
L 37.265752 36.795249 
L 37.204626 37.008593 
L 37.151122 37.221937 
L 37.104388 37.435282 
L 37.063738 37.648626 
L 37.028594 37.861971 
L 36.998423 38.075315 
L 36.972702 38.28866 
L 36.950904 38.502004 
z
" clip-path="url(#pff95b13d88)" style="fill: #306c53; fill-opacity: 0.5"/>
   </g>
   <g id="FillBetweenPolyCollection_4">
    <path d="M 48.678386 37.787759 
L 48.467614 37.787759 
L 48.44743 37.566814 
L 48.424877 37.345868 
L 48.399398 37.124923 
L 48.370183 36.903977 
L 48.336142 36.683032 
L 48.295899 36.462086 
L 48.247795 36.241141 
L 48.189929 36.020195 
L 48.120222 35.79925 
L 48.036538 35.578305 
L 47.936836 35.357359 
L 47.81937 35.136414 
L 47.682888 34.915468 
L 47.526824 34.694523 
L 47.351438 34.473577 
L 47.157905 34.252632 
L 46.94832 34.031686 
L 46.725631 33.810741 
L 46.493504 33.589796 
L 46.256101 33.36885 
L 46.017795 33.147905 
L 45.782815 32.926959 
L 45.554845 32.706014 
L 45.33664 32.485068 
L 45.129739 32.264123 
L 44.934351 32.043177 
L 44.749485 31.822232 
L 44.573338 31.601287 
L 44.403877 31.380341 
L 44.23951 31.159396 
L 44.079692 30.93845 
L 43.925323 30.717505 
L 43.778859 30.496559 
L 43.644096 30.275614 
L 43.525669 30.054668 
L 43.42838 29.833723 
L 43.356489 29.612778 
L 43.313117 29.391832 
L 43.2999 29.170887 
L 43.316952 28.949941 
L 43.363118 28.728996 
L 43.436404 28.50805 
L 43.534423 28.287105 
L 43.654656 28.066159 
L 43.794455 27.845214 
L 43.950756 27.624269 
L 44.119664 27.403323 
L 44.29612 27.182378 
L 44.47388 26.961432 
L 44.645942 26.740487 
L 44.805397 26.519541 
L 44.946537 26.298596 
L 45.065891 26.07765 
L 45.162932 25.856705 
L 45.240203 25.63576 
L 45.302863 25.414814 
L 45.35776 25.193869 
L 45.412297 24.972923 
L 45.473342 24.751978 
L 45.546398 24.531032 
L 45.635125 24.310087 
L 45.741203 24.089141 
L 45.864472 23.868196 
L 46.003248 23.647251 
L 46.154732 23.426305 
L 46.315449 23.20536 
L 46.481658 22.984414 
L 46.649691 22.763469 
L 46.816195 22.542523 
L 46.978275 22.321578 
L 47.133537 22.100632 
L 47.280044 21.879687 
L 47.416244 21.658742 
L 47.54086 21.437796 
L 47.652815 21.216851 
L 47.751197 20.995905 
L 47.835321 20.77496 
L 47.904867 20.554014 
L 47.960079 20.333069 
L 48.001962 20.112123 
L 48.032405 19.891178 
L 48.054145 19.670233 
L 48.070548 19.449287 
L 48.085209 19.228342 
L 48.101451 19.007396 
L 48.121831 18.786451 
L 48.147777 18.565505 
L 48.179449 18.34456 
L 48.215858 18.123614 
L 48.255203 17.902669 
L 48.295316 17.681724 
L 48.334113 17.460778 
L 48.369937 17.239833 
L 48.401745 17.018887 
L 48.429126 16.797942 
L 48.452204 16.576996 
L 48.471469 16.356051 
L 48.48759 16.135105 
L 48.501257 15.91416 
L 48.644743 15.91416 
L 48.644743 15.91416 
L 48.65841 16.135105 
L 48.674531 16.356051 
L 48.693796 16.576996 
L 48.716874 16.797942 
L 48.744255 17.018887 
L 48.776063 17.239833 
L 48.811887 17.460778 
L 48.850684 17.681724 
L 48.890797 17.902669 
L 48.930142 18.123614 
L 48.966551 18.34456 
L 48.998223 18.565505 
L 49.024169 18.786451 
L 49.044549 19.007396 
L 49.060791 19.228342 
L 49.075452 19.449287 
L 49.091855 19.670233 
L 49.113595 19.891178 
L 49.144038 20.112123 
L 49.185921 20.333069 
L 49.241133 20.554014 
L 49.310679 20.77496 
L 49.394803 20.995905 
L 49.493185 21.216851 
L 49.60514 21.437796 
L 49.729756 21.658742 
L 49.865956 21.879687 
L 50.012463 22.100632 
L 50.167725 22.321578 
L 50.329805 22.542523 
L 50.496309 22.763469 
L 50.664342 22.984414 
L 50.830551 23.20536 
L 50.991268 23.426305 
L 51.142752 23.647251 
L 51.281528 23.868196 
L 51.404797 24.089141 
L 51.510875 24.310087 
L 51.599602 24.531032 
L 51.672658 24.751978 
L 51.733703 24.972923 
L 51.78824 25.193869 
L 51.843137 25.414814 
L 51.905797 25.63576 
L 51.983068 25.856705 
L 52.080109 26.07765 
L 52.199463 26.298596 
L 52.340603 26.519541 
L 52.500058 26.740487 
L 52.67212 26.961432 
L 52.84988 27.182378 
L 53.026336 27.403323 
L 53.195244 27.624269 
L 53.351545 27.845214 
L 53.491344 28.066159 
L 53.611577 28.287105 
L 53.709596 28.50805 
L 53.782882 28.728996 
L 53.829048 28.949941 
L 53.8461 29.170887 
L 53.832883 29.391832 
L 53.789511 29.612778 
L 53.71762 29.833723 
L 53.620331 30.054668 
L 53.501904 30.275614 
L 53.367141 30.496559 
L 53.220677 30.717505 
L 53.066308 30.93845 
L 52.90649 31.159396 
L 52.742123 31.380341 
L 52.572662 31.601287 
L 52.396515 31.822232 
L 52.211649 32.043177 
L 52.016261 32.264123 
L 51.80936 32.485068 
L 51.591155 32.706014 
L 51.363185 32.926959 
L 51.128205 33.147905 
L 50.889899 33.36885 
L 50.652496 33.589796 
L 50.420369 33.810741 
L 50.19768 34.031686 
L 49.988095 34.252632 
L 49.794562 34.473577 
L 49.619176 34.694523 
L 49.463112 34.915468 
L 49.32663 35.136414 
L 49.209164 35.357359 
L 49.109462 35.578305 
L 49.025778 35.79925 
L 48.956071 36.020195 
L 48.898205 36.241141 
L 48.850101 36.462086 
L 48.809858 36.683032 
L 48.775817 36.903977 
L 48.746602 37.124923 
L 48.721123 37.345868 
L 48.69857 37.566814 
L 48.678386 37.787759 
z
" clip-path="url(#pff95b13d88)" style="fill: #306c53; fill-opacity: 0.5"/>
   </g>
   <g id="matplotlib.axis_1">
    <g id="xtick_1">
     <g id="line2d_1">
      <defs>
       <path id="m25bdf9cfbb" d="M 0 0 
L 0 1.7 
" style="stroke: #000000; stroke-width: 0.25"/>
      </defs>
      <g>
       <use xlink:href="#m25bdf9cfbb" x="13.419" y="93.37808" style="stroke: #000000; stroke-width: 0.25"/>
      </g>
     </g>
     <g id="text_1">
      <text style="font-size: 6px; font-family: 'Arial'" transform="translate(10.97683 106.692801) rotate(-45)">220</text>
     </g>
    </g>
    <g id="xtick_2">
     <g id="line2d_2">
      <g>
       <use xlink:href="#m25bdf9cfbb" x="25.137" y="93.37808" style="stroke: #000000; stroke-width: 0.25"/>
      </g>
     </g>
     <g id="text_2">
      <text style="font-size: 6px; font-family: 'Arial'" transform="translate(22.69483 106.692801) rotate(-45)">260</text>
     </g>
    </g>
    <g id="xtick_3">
     <g id="line2d_3">
      <g>
       <use xlink:href="#m25bdf9cfbb" x="36.855" y="93.37808" style="stroke: #000000; stroke-width: 0.25"/>
      </g>
     </g>
     <g id="text_3">
      <text style="font-size: 6px; font-family: 'Arial'" transform="translate(34.41283 106.692801) rotate(-45)">300</text>
     </g>
    </g>
    <g id="xtick_4">
     <g id="line2d_4">
      <g>
       <use xlink:href="#m25bdf9cfbb" x="48.573" y="93.37808" style="stroke: #000000; stroke-width: 0.25"/>
      </g>
     </g>
     <g id="text_4">
      <text style="font-size: 6px; font-family: 'Arial'" transform="translate(46.13083 106.692801) rotate(-45)">340</text>
     </g>
    </g>
    <g id="text_5">
     <text style="font-size: 8px; font-family: 'Arial'; text-anchor: middle" x="30.996" y="114.859775" transform="rotate(-0 30.996 114.859775)">|input to DNg100|</text>
    </g>
   </g>
   <g id="matplotlib.axis_2">
    <g id="ytick_1">
     <g id="line2d_5">
      <defs>
       <path id="mc57469fc43" d="M 0 0 
L -1.7 0 
" style="stroke: #000000; stroke-width: 0.25"/>
      </defs>
      <g>
       <use xlink:href="#mc57469fc43" x="5.56" y="87.78456" style="stroke: #000000; stroke-width: 0.25"/>
      </g>
     </g>
     <g id="text_6">
      <text style="font-size: 6px; font-family: 'Arial'; text-anchor: end" x="2.36" y="89.931904" transform="rotate(-0 2.36 89.931904)">0</text>
     </g>
    </g>
    <g id="ytick_2">
     <g id="line2d_6">
      <g>
       <use xlink:href="#mc57469fc43" x="5.56" y="70.535663" style="stroke: #000000; stroke-width: 0.25"/>
      </g>
     </g>
     <g id="text_7">
      <text style="font-size: 6px; font-family: 'Arial'; text-anchor: end" x="2.36" y="72.683007" transform="rotate(-0 2.36 72.683007)">5</text>
     </g>
    </g>
    <g id="ytick_3">
     <g id="line2d_7">
      <g>
       <use xlink:href="#mc57469fc43" x="5.56" y="53.286766" style="stroke: #000000; stroke-width: 0.25"/>
      </g>
     </g>
     <g id="text_8">
      <text style="font-size: 6px; font-family: 'Arial'; text-anchor: end" x="2.36" y="55.43411" transform="rotate(-0 2.36 55.43411)">10</text>
     </g>
    </g>
    <g id="ytick_4">
     <g id="line2d_8">
      <g>
       <use xlink:href="#mc57469fc43" x="5.56" y="36.037869" style="stroke: #000000; stroke-width: 0.25"/>
      </g>
     </g>
     <g id="text_9">
      <text style="font-size: 6px; font-family: 'Arial'; text-anchor: end" x="2.36" y="38.185213" transform="rotate(-0 2.36 38.185213)">15</text>
     </g>
    </g>
    <g id="ytick_5">
     <g id="line2d_9">
      <g>
       <use xlink:href="#mc57469fc43" x="5.56" y="18.788972" style="stroke: #000000; stroke-width: 0.25"/>
      </g>
     </g>
     <g id="text_10">
      <text style="font-size: 6px; font-family: 'Arial'; text-anchor: end" x="2.36" y="20.936316" transform="rotate(-0 2.36 20.936316)">20</text>
     </g>
    </g>
    <g id="text_11">
     <text style="font-size: 8px; font-family: 'Arial'" transform="translate(-16.075375 75.63811) rotate(-90)">motor neuron</text>
     <text style="font-size: 8px; font-family: 'Arial'" transform="translate(-7.496875 78.07811) rotate(-90)">frequency (Hz)</text>
    </g>
   </g>
   <g id="patch_3">
    <path d="M 12.2472 34.711032 
L 14.5908 34.711032 
L 14.5908 29.313724 
L 12.2472 29.313724 
L 12.2472 34.711032 
z
" clip-path="url(#pff95b13d88)" style="fill: #306c53; stroke: #2f2f2f; stroke-width: 0.5; stroke-linejoin: miter"/>
   </g>
   <g id="line2d_10">
    <path d="M 13.419 34.711032 
L 13.419 41.165922 
" clip-path="url(#pff95b13d88)" style="fill: none; stroke: #2f2f2f; stroke-width: 0.5"/>
   </g>
   <g id="line2d_11">
    <path d="M 13.419 29.313724 
L 13.419 21.442652 
" clip-path="url(#pff95b13d88)" style="fill: none; stroke: #2f2f2f; stroke-width: 0.5"/>
   </g>
   <g id="line2d_12">
    <path d="M 12.8331 41.165922 
L 14.0049 41.165922 
" clip-path="url(#pff95b13d88)" style="fill: none; stroke: #2f2f2f; stroke-width: 0.5; stroke-linecap: square"/>
   </g>
   <g id="line2d_13">
    <path d="M 12.8331 21.442652 
L 14.0049 21.442652 
" clip-path="url(#pff95b13d88)" style="fill: none; stroke: #2f2f2f; stroke-width: 0.5; stroke-linecap: square"/>
   </g>
   <g id="patch_4">
    <path d="M 23.9652 33.026158 
L 26.3088 33.026158 
L 26.3088 27.262115 
L 23.9652 27.262115 
L 23.9652 33.026158 
z
" clip-path="url(#pff95b13d88)" style="fill: #306c53; stroke: #2f2f2f; stroke-width: 0.5; stroke-linejoin: miter"/>
   </g>
   <g id="line2d_14">
    <path d="M 25.137 33.026158 
L 25.137 40.527307 
" clip-path="url(#pff95b13d88)" style="fill: none; stroke: #2f2f2f; stroke-width: 0.5"/>
   </g>
   <g id="line2d_15">
    <path d="M 25.137 27.262115 
L 25.137 18.788978 
" clip-path="url(#pff95b13d88)" style="fill: none; stroke: #2f2f2f; stroke-width: 0.5"/>
   </g>
   <g id="line2d_16">
    <path d="M 24.5511 40.527307 
L 25.7229 40.527307 
" clip-path="url(#pff95b13d88)" style="fill: none; stroke: #2f2f2f; stroke-width: 0.5; stroke-linecap: square"/>
   </g>
   <g id="line2d_17">
    <path d="M 24.5511 18.788978 
L 25.7229 18.788978 
" clip-path="url(#pff95b13d88)" style="fill: none; stroke: #2f2f2f; stroke-width: 0.5; stroke-linecap: square"/>
   </g>
   <g id="patch_5">
    <path d="M 35.6832 31.230801 
L 38.0268 31.230801 
L 38.0268 26.181354 
L 35.6832 26.181354 
L 35.6832 31.230801 
z
" clip-path="url(#pff95b13d88)" style="fill: #306c53; stroke: #2f2f2f; stroke-width: 0.5; stroke-linejoin: miter"/>
   </g>
   <g id="line2d_18">
    <path d="M 36.855 31.230801 
L 36.855 38.502004 
" clip-path="url(#pff95b13d88)" style="fill: none; stroke: #2f2f2f; stroke-width: 0.5"/>
   </g>
   <g id="line2d_19">
    <path d="M 36.855 26.181354 
L 36.855 18.788978 
" clip-path="url(#pff95b13d88)" style="fill: none; stroke: #2f2f2f; stroke-width: 0.5"/>
   </g>
   <g id="line2d_20">
    <path d="M 36.2691 38.502004 
L 37.4409 38.502004 
" clip-path="url(#pff95b13d88)" style="fill: none; stroke: #2f2f2f; stroke-width: 0.5; stroke-linecap: square"/>
   </g>
   <g id="line2d_21">
    <path d="M 36.2691 18.788978 
L 37.4409 18.788978 
" clip-path="url(#pff95b13d88)" style="fill: none; stroke: #2f2f2f; stroke-width: 0.5; stroke-linecap: square"/>
   </g>
   <g id="patch_6">
    <path d="M 47.4012 30.87734 
L 49.7448 30.87734 
L 49.7448 25.061305 
L 47.4012 25.061305 
L 47.4012 30.87734 
z
" clip-path="url(#pff95b13d88)" style="fill: #306c53; stroke: #2f2f2f; stroke-width: 0.5; stroke-linejoin: miter"/>
   </g>
   <g id="line2d_22">
    <path d="M 48.573 30.87734 
L 48.573 37.787759 
" clip-path="url(#pff95b13d88)" style="fill: none; stroke: #2f2f2f; stroke-width: 0.5"/>
   </g>
   <g id="line2d_23">
    <path d="M 48.573 25.061305 
L 48.573 17.380899 
" clip-path="url(#pff95b13d88)" style="fill: none; stroke: #2f2f2f; stroke-width: 0.5"/>
   </g>
   <g id="line2d_24">
    <path d="M 47.9871 37.787759 
L 49.1589 37.787759 
" clip-path="url(#pff95b13d88)" style="fill: none; stroke: #2f2f2f; stroke-width: 0.5; stroke-linecap: square"/>
   </g>
   <g id="line2d_25">
    <path d="M 47.9871 17.380899 
L 49.1589 17.380899 
" clip-path="url(#pff95b13d88)" style="fill: none; stroke: #2f2f2f; stroke-width: 0.5; stroke-linecap: square"/>
   </g>
   <g id="line2d_26">
    <path d="M 12.2472 31.686876 
L 14.5908 31.686876 
" clip-path="url(#pff95b13d88)" style="fill: none; stroke: #2f2f2f; stroke-width: 0.5"/>
   </g>
   <g id="line2d_27">
    <path d="M 23.9652 30.288239 
L 26.3088 30.288239 
" clip-path="url(#pff95b13d88)" style="fill: none; stroke: #2f2f2f; stroke-width: 0.5"/>
   </g>
   <g id="line2d_28">
    <path d="M 35.6832 29.313724 
L 38.0268 29.313724 
" clip-path="url(#pff95b13d88)" style="fill: none; stroke: #2f2f2f; stroke-width: 0.5"/>
   </g>
   <g id="line2d_29">
    <path d="M 47.4012 28.305606 
L 49.7448 28.305606 
" clip-path="url(#pff95b13d88)" style="fill: none; stroke: #2f2f2f; stroke-width: 0.5"/>
   </g>
   <g id="patch_7">
    <path d="M 5.56 91.37808 
L 5.56 12.32064 
" style="fill: none; stroke: #000000; stroke-width: 0.25; stroke-linejoin: miter; stroke-linecap: square"/>
   </g>
   <g id="patch_8">
    <path d="M 7.56 93.37808 
L 54.432 93.37808 
" style="fill: none; stroke: #000000; stroke-width: 0.25; stroke-linejoin: miter; stroke-linecap: square"/>
   </g>
  </g>
 </g>
 <defs>
  <clipPath id="pff95b13d88">
   <rect x="7.56" y="12.32064" width="46.872" height="79.05744"/>
  </clipPath>
 </defs>
</svg>
