<?xml version="1.0" encoding="utf-8" standalone="no"?>
<!DOCTYPE svg PUBLIC "-//W3C//DTD SVG 1.1//EN"
  "http://www.w3.org/Graphics/SVG/1.1/DTD/svg11.dtd">
<svg xmlns:xlink="http://www.w3.org/1999/xlink" width="43.2pt" height="41.04pt" viewBox="0 0 43.2 41.04" xmlns="http://www.w3.org/2000/svg" version="1.1">
 <metadata>
  <rdf:RDF xmlns:dc="http://purl.org/dc/elements/1.1/" xmlns:cc="http://creativecommons.org/ns#" xmlns:rdf="http://www.w3.org/1999/02/22-rdf-syntax-ns#">
   <cc:Work>
    <dc:type rdf:resource="http://purl.org/dc/dcmitype/StillImage"/>
    <dc:date>2025-08-27T13:22:23.695931</dc:date>
    <dc:format>image/svg+xml</dc:format>
    <dc:creator>
     <cc:Agent>
      <dc:title>Matplotlib v3.10.3, https://matplotlib.org/</dc:title>
     </cc:Agent>
    </dc:creator>
   </cc:Work>
  </rdf:RDF>
 </metadata>
 <defs>
  <style type="text/css">*{stroke-linejoin: round; stroke-linecap: butt}</style>
 </defs>
 <g id="figure_1">
  <g id="patch_1">
   <path d="M 0 41.04 
L 43.2 41.04 
L 43.2 0 
L 0 0 
L 0 41.04 
z
" style="fill: none"/>
  </g>
  <g id="axes_1">
   <g id="patch_2">
    <path d="M 5.4 36.5256 
L 38.88 36.5256 
L 38.88 4.9248 
L 5.4 4.9248 
L 5.4 36.5256 
z
" style="fill: none"/>
   </g>
   <g id="patch_3">
    <path d="M 8.19 36.5256 
L 10.98 36.5256 
L 10.98 32.246325 
L 8.19 32.246325 
z
" clip-path="url(#pc46a6314a5)" style="fill: #267655"/>
   </g>
   <g id="patch_4">
    <path d="M 10.98 36.5256 
L 13.77 36.5256 
L 13.77 30.86379 
L 10.98 30.86379 
z
" clip-path="url(#pc46a6314a5)" style="fill: #267655"/>
   </g>
   <g id="patch_5">
    <path d="M 13.77 36.5256 
L 16.56 36.5256 
L 16.56 27.3087 
L 13.77 27.3087 
z
" clip-path="url(#pc46a6314a5)" style="fill: #267655"/>
   </g>
   <g id="patch_6">
    <path d="M 16.56 36.5256 
L 19.35 36.5256 
L 19.35 15.4584 
L 16.56 15.4584 
z
" clip-path="url(#pc46a6314a5)" style="fill: #267655"/>
   </g>
   <g id="patch_7">
    <path d="M 19.35 36.5256 
L 22.14 36.5256 
L 22.14 15.19506 
L 19.35 15.19506 
z
" clip-path="url(#pc46a6314a5)" style="fill: #267655"/>
   </g>
   <g id="patch_8">
    <path d="M 22.14 36.5256 
L 24.93 36.5256 
L 24.93 33.8922 
L 22.14 33.8922 
z
" clip-path="url(#pc46a6314a5)" style="fill: #267655"/>
   </g>
   <g id="patch_9">
    <path d="M 24.93 36.5256 
L 27.72 36.5256 
L 27.72 35.07723 
L 24.93 35.07723 
z
" clip-path="url(#pc46a6314a5)" style="fill: #267655"/>
   </g>
   <g id="patch_10">
    <path d="M 27.72 36.5256 
L 30.51 36.5256 
L 30.51 35.538075 
L 27.72 35.538075 
z
" clip-path="url(#pc46a6314a5)" style="fill: #267655"/>
   </g>
   <g id="patch_11">
    <path d="M 30.51 36.5256 
L 33.3 36.5256 
L 33.3 36.196425 
L 30.51 36.196425 
z
" clip-path="url(#pc46a6314a5)" style="fill: #267655"/>
   </g>
   <g id="patch_12">
    <path d="M 33.3 36.5256 
L 36.09 36.5256 
L 36.09 36.26226 
L 33.3 36.26226 
z
" clip-path="url(#pc46a6314a5)" style="fill: #267655"/>
   </g>
   <g id="patch_13">
    <path d="M 36.09 36.5256 
L 38.88 36.5256 
L 38.88 36.5256 
L 36.09 36.5256 
z
" clip-path="url(#pc46a6314a5)" style="fill: #267655"/>
   </g>
   <g id="patch_14">
    <path d="M 38.88 36.5256 
L 41.67 36.5256 
L 41.67 36.5256 
L 38.88 36.5256 
z
" clip-path="url(#pc46a6314a5)" style="fill: #267655"/>
   </g>
   <g id="patch_15">
    <path d="M 41.67 36.5256 
L 44.46 36.5256 
L 44.46 36.328095 
L 41.67 36.328095 
z
" clip-path="url(#pc46a6314a5)" style="fill: #267655"/>
   </g>
   <g id="matplotlib.axis_1">
    <g id="xtick_1">
     <g id="line2d_1">
      <defs>
       <path id="ma0ae8f38c6" d="M 0 0 
L 0 1.7 
" style="stroke: #000000; stroke-width: 0.25"/>
      </defs>
      <g>
       <use xlink:href="#ma0ae8f38c6" x="5.4" y="36.5256" style="stroke: #000000; stroke-width: 0.25"/>
      </g>
     </g>
     <g id="text_1">
      <text style="font-size: 6px; font-family: 'Arial'; text-anchor: middle" x="5.4" y="46.020288" transform="rotate(-0 5.4 46.020288)">0</text>
     </g>
    </g>
    <g id="xtick_2">
     <g id="line2d_2">
      <g>
       <use xlink:href="#ma0ae8f38c6" x="19.35" y="36.5256" style="stroke: #000000; stroke-width: 0.25"/>
      </g>
     </g>
     <g id="text_2">
      <text style="font-size: 6px; font-family: 'Arial'; text-anchor: middle" x="19.35" y="46.020288" transform="rotate(-0 19.35 46.020288)">5</text>
     </g>
    </g>
    <g id="xtick_3">
     <g id="line2d_3">
      <g>
       <use xlink:href="#ma0ae8f38c6" x="33.3" y="36.5256" style="stroke: #000000; stroke-width: 0.25"/>
      </g>
     </g>
     <g id="text_3">
      <text style="font-size: 6px; font-family: 'Arial'; text-anchor: middle" x="33.3" y="46.020288" transform="rotate(-0 33.3 46.020288)">10</text>
     </g>
    </g>
    <g id="text_4">
     <text style="font-size: 8px; font-family: 'Arial'; text-anchor: middle" x="22.14" y="56.939037" transform="rotate(-0 22.14 56.939037)"># MNs active</text>
    </g>
   </g>
   <g id="matplotlib.axis_2">
    <g id="ytick_1">
     <g id="line2d_4">
      <defs>
       <path id="m34d62dfebd" d="M 0 0 
L -1.7 0 
" style="stroke: #000000; stroke-width: 0.25"/>
      </defs>
      <g>
       <use xlink:href="#m34d62dfebd" x="5.4" y="36.5256" style="stroke: #000000; stroke-width: 0.25"/>
      </g>
     </g>
     <g id="text_5">
      <text style="font-size: 6px; font-family: 'Arial'; text-anchor: end" x="0.2" y="38.672944" transform="rotate(-0 0.2 38.672944)">0</text>
     </g>
    </g>
    <g id="ytick_2">
     <g id="line2d_5">
      <g>
       <use xlink:href="#m34d62dfebd" x="5.4" y="20.06685" style="stroke: #000000; stroke-width: 0.25"/>
      </g>
     </g>
     <g id="text_6">
      <text style="font-size: 6px; font-family: 'Arial'; text-anchor: end" x="0.2" y="22.214194" transform="rotate(-0 0.2 22.214194)">250</text>
     </g>
    </g>
    <g id="text_7">
     <text style="font-size: 8px; font-family: 'Arial'; text-anchor: middle" x="-15.399688" y="20.7252" transform="rotate(-90 -15.399688 20.7252)"># replicates</text>
    </g>
   </g>
   <g id="patch_16">
    <path d="M 5.4 36.5256 
L 5.4 4.9248 
" style="fill: none; stroke: #000000; stroke-width: 0.25; stroke-linejoin: miter; stroke-linecap: square"/>
   </g>
   <g id="patch_17">
    <path d="M 5.4 36.5256 
L 38.88 36.5256 
" style="fill: none; stroke: #000000; stroke-width: 0.25; stroke-linejoin: miter; stroke-linecap: square"/>
   </g>
  </g>
 </g>
 <defs>
  <clipPath id="pc46a6314a5">
   <rect x="5.4" y="4.9248" width="33.48" height="31.6008"/>
  </clipPath>
 </defs>
</svg>
