<?xml version="1.0" encoding="utf-8" standalone="no"?>
<!DOCTYPE svg PUBLIC "-//W3C//DTD SVG 1.1//EN"
  "http://www.w3.org/Graphics/SVG/1.1/DTD/svg11.dtd">
<svg xmlns:xlink="http://www.w3.org/1999/xlink" width="117.072pt" height="27.144pt" viewBox="0 0 117.072 27.144" xmlns="http://www.w3.org/2000/svg" version="1.1">
 <metadata>
  <rdf:RDF xmlns:dc="http://purl.org/dc/elements/1.1/" xmlns:cc="http://creativecommons.org/ns#" xmlns:rdf="http://www.w3.org/1999/02/22-rdf-syntax-ns#">
   <cc:Work>
    <dc:type rdf:resource="http://purl.org/dc/dcmitype/StillImage"/>
    <dc:date>2025-09-03T12:58:41.184153</dc:date>
    <dc:format>image/svg+xml</dc:format>
    <dc:creator>
     <cc:Agent>
      <dc:title>Matplotlib v3.10.3, https://matplotlib.org/</dc:title>
     </cc:Agent>
    </dc:creator>
   </cc:Work>
  </rdf:RDF>
 </metadata>
 <defs>
  <style type="text/css">*{stroke-linejoin: round; stroke-linecap: butt}</style>
 </defs>
 <g id="figure_1">
  <g id="patch_1">
   <path d="M 0 27.144 
L 117.072 27.144 
L 117.072 0 
L 0 0 
L 0 27.144 
z
" style="fill: none"/>
  </g>
  <g id="axes_1">
   <g id="patch_2">
    <path d="M 14.634 24.15816 
L 105.3648 24.15816 
L 105.3648 3.25728 
L 14.634 3.25728 
L 14.634 24.15816 
z
" style="fill: none"/>
   </g>
   <g id="matplotlib.axis_1">
    <g id="xtick_1">
     <g id="line2d_1">
      <defs>
       <path id="m7d9ff6d944" d="M 0 0 
L 0 1.7 
" style="stroke: #000000; stroke-width: 0.25"/>
      </defs>
      <g>
       <use xlink:href="#m7d9ff6d944" x="18.758127" y="24.15816" style="stroke: #000000; stroke-width: 0.25"/>
      </g>
     </g>
     <g id="text_1">
      <text style="font-size: 6px; font-family: 'Arial'; text-anchor: middle" x="18.758127" y="31.652848" transform="rotate(-0 18.758127 31.652848)">0.0</text>
     </g>
    </g>
    <g id="xtick_2">
     <g id="line2d_2">
      <g>
       <use xlink:href="#m7d9ff6d944" x="46.178893" y="24.15816" style="stroke: #000000; stroke-width: 0.25"/>
      </g>
     </g>
     <g id="text_2">
      <text style="font-size: 6px; font-family: 'Arial'; text-anchor: middle" x="46.178893" y="31.652848" transform="rotate(-0 46.178893 31.652848)">0.25</text>
     </g>
    </g>
    <g id="xtick_3">
     <g id="line2d_3">
      <g>
       <use xlink:href="#m7d9ff6d944" x="73.599659" y="24.15816" style="stroke: #000000; stroke-width: 0.25"/>
      </g>
     </g>
     <g id="text_3">
      <text style="font-size: 6px; font-family: 'Arial'; text-anchor: middle" x="73.599659" y="31.652848" transform="rotate(-0 73.599659 31.652848)">0.5</text>
     </g>
    </g>
    <g id="xtick_4">
     <g id="line2d_4">
      <g>
       <use xlink:href="#m7d9ff6d944" x="101.020426" y="24.15816" style="stroke: #000000; stroke-width: 0.25"/>
      </g>
     </g>
     <g id="text_4">
      <text style="font-size: 6px; font-family: 'Arial'; text-anchor: middle" x="101.020426" y="31.652848" transform="rotate(-0 101.020426 31.652848)">0.75</text>
     </g>
    </g>
    <g id="text_5">
     <text style="font-size: 8px; font-family: 'Arial'; text-anchor: middle" x="59.9994" y="40.169097" transform="rotate(-0 59.9994 40.169097)">Time (s)</text>
    </g>
   </g>
   <g id="matplotlib.axis_2">
    <g id="ytick_1">
     <g id="line2d_5">
      <defs>
       <path id="mec5589ef0a" d="M 0 0 
L -1.7 0 
" style="stroke: #000000; stroke-width: 0.25"/>
      </defs>
      <g>
       <use xlink:href="#mec5589ef0a" x="14.634" y="23.20812" style="stroke: #000000; stroke-width: 0.25"/>
      </g>
     </g>
     <g id="text_6">
      <text style="font-size: 6px; font-family: 'Arial'; text-anchor: end" x="11.434" y="25.355464" transform="rotate(-0 11.434 25.355464)">0</text>
     </g>
    </g>
    <g id="ytick_2">
     <g id="line2d_6">
      <g>
       <use xlink:href="#mec5589ef0a" x="14.634" y="16.39617" style="stroke: #000000; stroke-width: 0.25"/>
      </g>
     </g>
     <g id="text_7">
      <text style="font-size: 6px; font-family: 'Arial'; text-anchor: end" x="11.434" y="18.543514" transform="rotate(-0 11.434 18.543514)">10</text>
     </g>
    </g>
    <g id="text_8">
     <text style="font-size: 8px; font-family: 'Arial'; text-anchor: middle" x="1.577125" y="13.70772" transform="rotate(-90 1.577125 13.70772)">firing rate (Hz)</text>
    </g>
   </g>
   <g id="line2d_7">
    <path d="M 18.758127 23.20812 
L 20.960598 23.208114 
L 21.731463 17.745041 
L 22.502328 13.852697 
L 23.273193 11.079487 
L 24.044058 9.103608 
L 24.814923 7.695838 
L 25.695911 6.575328 
L 26.5769 5.814709 
L 27.568012 5.246831 
L 28.779371 4.81753 
L 30.321101 4.517028 
L 32.633696 4.319327 
L 36.928514 4.224259 
L 54.43816 4.207346 
L 101.240673 4.207329 
L 101.240673 4.207329 
" clip-path="url(#p708ea502ee)" style="fill: none; stroke: #51bbad; stroke-width: 0.75; stroke-linecap: square"/>
   </g>
   <g id="LineCollection_1">
    <path d="M 14.634 23.20812 
L 14.634 16.39617 
" clip-path="url(#p708ea502ee)" style="fill: none; stroke: #000000; stroke-width: 0.25"/>
   </g>
   <g id="patch_3">
    <path d="M 14.634 24.15816 
L 105.3648 24.15816 
" style="fill: none; stroke: #000000; stroke-width: 0.25; stroke-linejoin: miter; stroke-linecap: square"/>
   </g>
   <g id="legend_1">
    <g id="patch_4">
     <path d="M 110.2648 18.926343 
L 118.072 18.926343 
Q 187.497769 18.926343 187.497769 17.526342 
Q 187.497769 6.75728 186.097769 6.75728 
M 118.072 6.75728 
L 110.2648 6.75728 
Q 108.8648 6.75728 108.8648 8.15728 
L 108.8648 17.526342 
Q 108.8648 18.926343 110.2648 18.926343 
L 110.2648 18.926343 
" style="fill: none; opacity: 0.8"/>
    </g>
    <g id="line2d_8">
     <path d="M 111.6648 12.203061 
L 118.072 12.203061 
" style="fill: none; stroke: #51bbad; stroke-width: 0.75; stroke-linecap: square"/>
    </g>
    <g id="text_9">
     <text style="font-size: 7px; font-family: 'Arial'; text-anchor: start" x="131.2648" y="14.653061" transform="rotate(-0 131.2648 14.653061)">L DNb08 (14061)</text>
    </g>
   </g>
  </g>
 </g>
 <defs>
  <clipPath id="p708ea502ee">
   <rect x="14.634" y="3.25728" width="90.7308" height="20.90088"/>
  </clipPath>
 </defs>
</svg>
