<?xml version="1.0" encoding="utf-8" standalone="no"?>
<!DOCTYPE svg PUBLIC "-//W3C//DTD SVG 1.1//EN"
  "http://www.w3.org/Graphics/SVG/1.1/DTD/svg11.dtd">
<svg xmlns:xlink="http://www.w3.org/1999/xlink" width="53.496pt" height="51.12pt" viewBox="0 0 53.496 51.12" xmlns="http://www.w3.org/2000/svg" version="1.1">
 <metadata>
  <rdf:RDF xmlns:dc="http://purl.org/dc/elements/1.1/" xmlns:cc="http://creativecommons.org/ns#" xmlns:rdf="http://www.w3.org/1999/02/22-rdf-syntax-ns#">
   <cc:Work>
    <dc:type rdf:resource="http://purl.org/dc/dcmitype/StillImage"/>
    <dc:date>2025-09-03T12:38:44.729491</dc:date>
    <dc:format>image/svg+xml</dc:format>
    <dc:creator>
     <cc:Agent>
      <dc:title>Matplotlib v3.10.3, https://matplotlib.org/</dc:title>
     </cc:Agent>
    </dc:creator>
   </cc:Work>
  </rdf:RDF>
 </metadata>
 <defs>
  <style type="text/css">*{stroke-linejoin: round; stroke-linecap: butt}</style>
 </defs>
 <g id="figure_1">
  <g id="patch_1">
   <path d="M 0 51.12 
L 53.496 51.12 
L 53.496 0 
L 0 0 
L 0 51.12 
z
" style="fill: none"/>
  </g>
  <g id="axes_1">
   <g id="patch_2">
    <path d="M 6.687 45.4968 
L 48.1464 45.4968 
L 48.1464 6.1344 
L 6.687 6.1344 
L 6.687 45.4968 
z
" style="fill: none"/>
   </g>
   <g id="patch_3">
    <path d="M 6.687 45.4968 
L 10.456036 45.4968 
L 10.456036 44.497364 
L 6.687 44.497364 
z
" clip-path="url(#p7cf2657765)" style="fill: #267655"/>
   </g>
   <g id="patch_4">
    <path d="M 10.456036 45.4968 
L 14.225073 45.4968 
L 14.225073 45.45836 
L 10.456036 45.45836 
z
" clip-path="url(#p7cf2657765)" style="fill: #267655"/>
   </g>
   <g id="patch_5">
    <path d="M 14.225073 45.4968 
L 17.994109 45.4968 
L 17.994109 45.45836 
L 14.225073 45.45836 
z
" clip-path="url(#p7cf2657765)" style="fill: #267655"/>
   </g>
   <g id="patch_6">
    <path d="M 17.994109 45.4968 
L 21.763145 45.4968 
L 21.763145 45.41992 
L 17.994109 45.41992 
z
" clip-path="url(#p7cf2657765)" style="fill: #267655"/>
   </g>
   <g id="patch_7">
    <path d="M 21.763145 45.4968 
L 25.532182 45.4968 
L 25.532182 45.073962 
L 21.763145 45.073962 
z
" clip-path="url(#p7cf2657765)" style="fill: #267655"/>
   </g>
   <g id="patch_8">
    <path d="M 25.532182 45.4968 
L 29.301218 45.4968 
L 29.301218 45.189281 
L 25.532182 45.189281 
z
" clip-path="url(#p7cf2657765)" style="fill: #267655"/>
   </g>
   <g id="patch_9">
    <path d="M 29.301218 45.4968 
L 33.070255 45.4968 
L 33.070255 44.458924 
L 29.301218 44.458924 
z
" clip-path="url(#p7cf2657765)" style="fill: #267655"/>
   </g>
   <g id="patch_10">
    <path d="M 33.070255 45.4968 
L 36.839291 45.4968 
L 36.839291 42.99821 
L 33.070255 42.99821 
z
" clip-path="url(#p7cf2657765)" style="fill: #267655"/>
   </g>
   <g id="patch_11">
    <path d="M 36.839291 45.4968 
L 40.608327 45.4968 
L 40.608327 42.806011 
L 36.839291 42.806011 
z
" clip-path="url(#p7cf2657765)" style="fill: #267655"/>
   </g>
   <g id="patch_12">
    <path d="M 40.608327 45.4968 
L 44.377364 45.4968 
L 44.377364 16.01344 
L 40.608327 16.01344 
z
" clip-path="url(#p7cf2657765)" style="fill: #267655"/>
   </g>
   <g id="patch_13">
    <path d="M 44.377364 45.4968 
L 48.1464 45.4968 
L 48.1464 43.728567 
L 44.377364 43.728567 
z
" clip-path="url(#p7cf2657765)" style="fill: #267655"/>
   </g>
   <g id="patch_14">
    <path d="M 48.1464 45.4968 
L 51.915436 45.4968 
L 51.915436 45.4968 
L 48.1464 45.4968 
z
" clip-path="url(#p7cf2657765)" style="fill: #267655"/>
   </g>
   <g id="patch_15">
    <path d="M 51.915436 45.4968 
L 55.684473 45.4968 
L 55.684473 45.4968 
L 51.915436 45.4968 
z
" clip-path="url(#p7cf2657765)" style="fill: #267655"/>
   </g>
   <g id="patch_16">
    <path d="M 55.684473 45.4968 
L 59.453509 45.4968 
L 59.453509 45.4968 
L 55.684473 45.4968 
z
" clip-path="url(#p7cf2657765)" style="fill: #267655"/>
   </g>
   <g id="matplotlib.axis_1">
    <g id="xtick_1">
     <g id="line2d_1">
      <defs>
       <path id="m672568bb02" d="M 0 0 
L 0 1.7 
" style="stroke: #000000; stroke-width: 0.25"/>
      </defs>
      <g>
       <use xlink:href="#m672568bb02" x="6.687" y="46.4968" style="stroke: #000000; stroke-width: 0.25"/>
      </g>
     </g>
     <g id="text_1">
      <text style="font-size: 6px; font-family: 'Arial'; text-anchor: middle" x="6.687" y="53.991487" transform="rotate(-0 6.687 53.991487)">0.0</text>
     </g>
    </g>
    <g id="xtick_2">
     <g id="line2d_2">
      <g>
       <use xlink:href="#m672568bb02" x="25.532182" y="46.4968" style="stroke: #000000; stroke-width: 0.25"/>
      </g>
     </g>
     <g id="text_2">
      <text style="font-size: 6px; font-family: 'Arial'; text-anchor: middle" x="25.532182" y="53.991487" transform="rotate(-0 25.532182 53.991487)">0.5</text>
     </g>
    </g>
    <g id="xtick_3">
     <g id="line2d_3">
      <g>
       <use xlink:href="#m672568bb02" x="44.377364" y="46.4968" style="stroke: #000000; stroke-width: 0.25"/>
      </g>
     </g>
     <g id="text_3">
      <text style="font-size: 6px; font-family: 'Arial'; text-anchor: middle" x="44.377364" y="53.991487" transform="rotate(-0 44.377364 53.991487)">1.0</text>
     </g>
    </g>
    <g id="text_4">
     <text style="font-size: 8px; font-family: 'Arial'; text-anchor: middle" x="27.4167" y="62.410238" transform="rotate(-0 27.4167 62.410238)">motor rhythmicity score</text>
    </g>
   </g>
   <g id="matplotlib.axis_2">
    <g id="ytick_1">
     <g id="line2d_4">
      <defs>
       <path id="ma05ace8203" d="M 0 0 
L -1.7 0 
" style="stroke: #000000; stroke-width: 0.25"/>
      </defs>
      <g>
       <use xlink:href="#ma05ace8203" x="5.687" y="45.4968" style="stroke: #000000; stroke-width: 0.25"/>
      </g>
     </g>
     <g id="text_5">
      <text style="font-size: 6px; font-family: 'Arial'; text-anchor: end" x="2.487" y="47.644144" transform="rotate(-0 2.487 47.644144)">0</text>
     </g>
    </g>
    <g id="ytick_2">
     <g id="line2d_5">
      <g>
       <use xlink:href="#ma05ace8203" x="5.687" y="26.276878" style="stroke: #000000; stroke-width: 0.25"/>
      </g>
     </g>
     <g id="text_6">
      <text style="font-size: 6px; font-family: 'Arial'; text-anchor: end" x="2.487" y="28.424222" transform="rotate(-0 2.487 28.424222)">500</text>
     </g>
    </g>
    <g id="ytick_3">
     <g id="line2d_6">
      <g>
       <use xlink:href="#ma05ace8203" x="5.687" y="7.056956" style="stroke: #000000; stroke-width: 0.25"/>
      </g>
     </g>
     <g id="text_7">
      <text style="font-size: 6px; font-family: 'Arial'; text-anchor: end" x="2.487" y="9.2043" transform="rotate(-0 2.487 9.2043)">1000</text>
     </g>
    </g>
    <g id="text_8">
     <text style="font-size: 8px; font-family: 'Arial'; text-anchor: middle" x="-13.94925" y="25.8156" transform="rotate(-90 -13.94925 25.8156)"># replicates</text>
    </g>
   </g>
   <g id="patch_17">
    <path d="M 5.687 45.4968 
L 5.687 6.1344 
" style="fill: none; stroke: #000000; stroke-width: 0.25; stroke-linejoin: miter; stroke-linecap: square"/>
   </g>
   <g id="patch_18">
    <path d="M 6.687 46.4968 
L 48.1464 46.4968 
" style="fill: none; stroke: #000000; stroke-width: 0.25; stroke-linejoin: miter; stroke-linecap: square"/>
   </g>
  </g>
 </g>
 <defs>
  <clipPath id="p7cf2657765">
   <rect x="6.687" y="6.1344" width="41.4594" height="39.3624"/>
  </clipPath>
 </defs>
</svg>
