<?xml version="1.0" encoding="utf-8" standalone="no"?>
<!DOCTYPE svg PUBLIC "-//W3C//DTD SVG 1.1//EN"
  "http://www.w3.org/Graphics/SVG/1.1/DTD/svg11.dtd">
<svg xmlns:xlink="http://www.w3.org/1999/xlink" width="117.072pt" height="66.204pt" viewBox="0 0 117.072 66.204" xmlns="http://www.w3.org/2000/svg" version="1.1">
 <metadata>
  <rdf:RDF xmlns:dc="http://purl.org/dc/elements/1.1/" xmlns:cc="http://creativecommons.org/ns#" xmlns:rdf="http://www.w3.org/1999/02/22-rdf-syntax-ns#">
   <cc:Work>
    <dc:type rdf:resource="http://purl.org/dc/dcmitype/StillImage"/>
    <dc:date>2025-09-03T13:02:41.325621</dc:date>
    <dc:format>image/svg+xml</dc:format>
    <dc:creator>
     <cc:Agent>
      <dc:title>Matplotlib v3.10.3, https://matplotlib.org/</dc:title>
     </cc:Agent>
    </dc:creator>
   </cc:Work>
  </rdf:RDF>
 </metadata>
 <defs>
  <style type="text/css">*{stroke-linejoin: round; stroke-linecap: butt}</style>
 </defs>
 <g id="figure_1">
  <g id="patch_1">
   <path d="M 0 66.204 
L 117.072 66.204 
L 117.072 0 
L 0 0 
L 0 66.204 
z
" style="fill: none"/>
  </g>
  <g id="axes_1">
   <g id="patch_2">
    <path d="M 14.634 58.92156 
L 105.3648 58.92156 
L 105.3648 7.94448 
L 14.634 7.94448 
L 14.634 58.92156 
z
" style="fill: none"/>
   </g>
   <g id="matplotlib.axis_1">
    <g id="xtick_1">
     <g id="line2d_1">
      <defs>
       <path id="ma53ef8a18e" d="M 0 0 
L 0 1.7 
" style="stroke: #000000; stroke-width: 0.25"/>
      </defs>
      <g>
       <use xlink:href="#ma53ef8a18e" x="18.758127" y="58.92156" style="stroke: #000000; stroke-width: 0.25"/>
      </g>
     </g>
     <g id="text_1">
      <text style="font-size: 6px; font-family: 'Arial'; text-anchor: middle" x="18.758127" y="66.416247" transform="rotate(-0 18.758127 66.416247)">0.0</text>
     </g>
    </g>
    <g id="xtick_2">
     <g id="line2d_2">
      <g>
       <use xlink:href="#ma53ef8a18e" x="46.178893" y="58.92156" style="stroke: #000000; stroke-width: 0.25"/>
      </g>
     </g>
     <g id="text_2">
      <text style="font-size: 6px; font-family: 'Arial'; text-anchor: middle" x="46.178893" y="66.416247" transform="rotate(-0 46.178893 66.416247)">0.25</text>
     </g>
    </g>
    <g id="xtick_3">
     <g id="line2d_3">
      <g>
       <use xlink:href="#ma53ef8a18e" x="73.599659" y="58.92156" style="stroke: #000000; stroke-width: 0.25"/>
      </g>
     </g>
     <g id="text_3">
      <text style="font-size: 6px; font-family: 'Arial'; text-anchor: middle" x="73.599659" y="66.416247" transform="rotate(-0 73.599659 66.416247)">0.5</text>
     </g>
    </g>
    <g id="xtick_4">
     <g id="line2d_4">
      <g>
       <use xlink:href="#ma53ef8a18e" x="101.020426" y="58.92156" style="stroke: #000000; stroke-width: 0.25"/>
      </g>
     </g>
     <g id="text_4">
      <text style="font-size: 6px; font-family: 'Arial'; text-anchor: middle" x="101.020426" y="66.416247" transform="rotate(-0 101.020426 66.416247)">0.75</text>
     </g>
    </g>
    <g id="text_5">
     <text style="font-size: 8px; font-family: 'Arial'; text-anchor: middle" x="59.9994" y="74.932497" transform="rotate(-0 59.9994 74.932497)">time (s)</text>
    </g>
   </g>
   <g id="matplotlib.axis_2">
    <g id="ytick_1">
     <g id="line2d_5">
      <defs>
       <path id="m6849157fd7" d="M 0 0 
L -1.7 0 
" style="stroke: #000000; stroke-width: 0.25"/>
      </defs>
      <g>
       <use xlink:href="#m6849157fd7" x="14.634" y="56.60442" style="stroke: #000000; stroke-width: 0.25"/>
      </g>
     </g>
     <g id="text_6">
      <text style="font-size: 6px; font-family: 'Arial'; text-anchor: end" x="11.434" y="58.751764" transform="rotate(-0 11.434 58.751764)">0</text>
     </g>
    </g>
    <g id="ytick_2">
     <g id="line2d_6">
      <g>
       <use xlink:href="#m6849157fd7" x="14.634" y="48.058068" style="stroke: #000000; stroke-width: 0.25"/>
      </g>
     </g>
     <g id="text_7">
      <text style="font-size: 6px; font-family: 'Arial'; text-anchor: end" x="11.434" y="50.205411" transform="rotate(-0 11.434 50.205411)">5</text>
     </g>
    </g>
    <g id="text_8">
     <text style="font-size: 8px; font-family: 'Arial'; text-anchor: middle" x="4.913687" y="33.43302" transform="rotate(-90 4.913687 33.43302)">firing rate (Hz)</text>
    </g>
   </g>
   <g id="line2d_7">
    <path d="M 18.758127 33.529269 
L 28.008506 33.459964 
L 28.338877 33.144403 
L 28.779371 32.36283 
L 30.431224 28.882835 
L 30.871719 28.558294 
L 31.422337 28.426267 
L 32.303325 28.465731 
L 33.955178 28.80048 
L 34.94629 29.004358 
L 35.276661 28.798465 
L 35.607032 28.325873 
L 36.047526 27.288166 
L 37.258885 24.073024 
L 37.699379 23.576108 
L 38.139874 23.488237 
L 38.690491 23.65819 
L 39.461356 24.170402 
L 43.866299 27.547676 
L 44.196669 27.362166 
L 44.52704 26.888707 
L 45.187781 25.361801 
L 45.848523 23.920262 
L 46.289017 23.446767 
L 46.619388 23.383018 
L 47.170005 23.559749 
L 47.94087 24.106043 
L 52.235689 27.620668 
L 52.56606 27.688822 
L 52.89643 27.499856 
L 53.226801 27.021973 
L 53.887542 25.473328 
L 54.658407 23.821994 
L 54.988778 23.493522 
L 55.319149 23.412099 
L 55.759643 23.516659 
L 56.420384 23.921142 
L 57.962114 25.256442 
L 59.944338 26.837215 
L 61.155697 27.677995 
L 61.486068 27.593954 
L 61.816439 27.22606 
L 62.256933 26.331165 
L 63.358169 23.834585 
L 63.688539 23.492084 
L 64.01891 23.401145 
L 64.459404 23.499484 
L 65.120145 23.899381 
L 66.661875 25.234576 
L 68.644099 26.820768 
L 69.855459 27.672149 
L 70.185829 27.599845 
L 70.5162 27.244773 
L 70.956694 26.362488 
L 72.168053 23.702939 
L 72.498424 23.442927 
L 72.938918 23.423242 
L 73.489536 23.661362 
L 74.370524 24.341956 
L 77.34386 26.81011 
L 78.665343 27.678233 
L 78.995714 27.52731 
L 79.326085 27.088278 
L 79.876702 25.854165 
L 80.757691 23.876638 
L 81.088061 23.509291 
L 81.418432 23.401079 
L 81.858926 23.487611 
L 82.519668 23.877997 
L 83.951274 25.113467 
L 85.933498 26.716488 
L 87.365104 27.678784 
L 87.695475 27.539708 
L 88.025846 27.112997 
L 88.576463 25.890053 
L 89.457452 23.898693 
L 89.897946 23.455267 
L 90.33844 23.417768 
L 90.889058 23.644911 
L 91.770047 24.317629 
L 94.853506 26.871933 
L 96.064865 27.678487 
L 96.395236 27.551376 
L 96.725607 27.137161 
L 97.276225 25.925993 
L 98.157213 23.921511 
L 98.597707 23.461728 
L 99.038202 23.414798 
L 99.588819 23.636053 
L 100.469808 24.305149 
L 101.240673 24.990105 
L 101.240673 24.990105 
" clip-path="url(#p8d9f31ddb2)" style="fill: none; stroke: #b33b24; stroke-width: 0.75; stroke-linecap: square"/>
   </g>
   <g id="line2d_8">
    <path d="M 18.758127 41.220986 
L 25.475664 41.157114 
L 25.806035 40.838942 
L 26.246529 40.064489 
L 26.907271 38.306714 
L 27.678136 35.595784 
L 28.559124 31.543979 
L 30.871719 19.67916 
L 31.422337 18.353729 
L 31.972954 17.560424 
L 32.523572 17.141658 
L 33.07419 16.977303 
L 33.734931 16.99837 
L 34.505796 17.233706 
L 35.056414 17.325222 
L 35.386785 17.113428 
L 35.717155 16.580934 
L 36.15765 15.34775 
L 37.589256 10.647279 
L 37.919626 10.300149 
L 38.249997 10.290717 
L 38.580368 10.537356 
L 39.130986 11.330387 
L 41.663827 15.596162 
L 42.65494 16.625393 
L 43.646052 17.397265 
L 43.976422 17.389611 
L 44.306793 17.073217 
L 44.637164 16.397402 
L 45.187781 14.64751 
L 46.06877 11.785641 
L 46.399141 11.240106 
L 46.729511 11.073772 
L 47.059882 11.20159 
L 47.500376 11.700808 
L 48.271241 13.067535 
L 49.592724 15.425042 
L 50.473712 16.557001 
L 51.464824 17.439406 
L 52.345813 18.000033 
L 52.676183 17.957406 
L 53.006554 17.610161 
L 53.336925 16.904849 
L 53.887542 15.100766 
L 54.768531 12.134134 
L 55.098902 11.546217 
L 55.429272 11.342107 
L 55.759643 11.435971 
L 56.200137 11.896448 
L 56.860879 13.005536 
L 58.402608 15.671231 
L 59.283597 16.730853 
L 60.274709 17.555276 
L 61.045574 18.025641 
L 61.375944 17.989776 
L 61.706315 17.654451 
L 62.036686 16.962564 
L 62.587304 15.169738 
L 63.468292 12.174045 
L 63.908786 11.448754 
L 64.239157 11.335013 
L 64.569528 11.497096 
L 65.010022 12.020015 
L 65.89101 13.580986 
L 67.10237 15.631936 
L 67.983358 16.699308 
L 68.97447 17.531128 
L 69.855459 18.029335 
L 70.185829 17.916875 
L 70.5162 17.481336 
L 70.956694 16.355979 
L 72.498424 11.574887 
L 72.828795 11.336007 
L 73.159165 11.403812 
L 73.599659 11.840027 
L 74.260401 12.931745 
L 75.802131 15.609692 
L 76.683119 16.683515 
L 77.674231 17.519796 
L 78.55522 18.027474 
L 78.88559 17.927272 
L 79.215961 17.507228 
L 79.656455 16.400568 
L 81.198185 11.594057 
L 81.528556 11.33974 
L 81.858926 11.396171 
L 82.299421 11.821685 
L 82.960162 12.90615 
L 84.612015 15.7454 
L 85.493004 16.779854 
L 86.484116 17.589055 
L 87.254981 18.026378 
L 87.585351 17.938014 
L 87.915722 17.532993 
L 88.356216 16.444913 
L 90.00807 11.482617 
L 90.33844 11.32772 
L 90.668811 11.459219 
L 91.109305 11.954146 
L 91.88017 13.290707 
L 93.201653 15.568581 
L 94.082641 16.654246 
L 95.073753 17.499218 
L 95.954742 18.023904 
L 96.285113 17.947237 
L 96.615483 17.55747 
L 97.055977 16.488492 
L 98.707831 11.496711 
L 99.038202 11.327436 
L 99.368572 11.447971 
L 99.809066 11.932978 
L 100.579931 13.263784 
L 101.240673 14.482219 
L 101.240673 14.482219 
" clip-path="url(#p8d9f31ddb2)" style="fill: none; stroke: #b33b24; stroke-width: 0.75; stroke-linecap: square"/>
   </g>
   <g id="line2d_9">
    <path d="M 18.758127 48.912703 
L 35.827279 48.88026 
L 36.15765 48.514909 
L 37.038638 47.236117 
L 37.258885 47.265579 
L 38.360121 47.851728 
L 39.681603 48.286839 
L 41.333457 48.589148 
L 43.756175 48.789761 
L 44.637164 48.722466 
L 45.077658 48.110243 
L 45.628276 47.372313 
L 45.848523 47.339611 
L 47.280129 48.02062 
L 48.711735 48.409113 
L 50.583836 48.674284 
L 53.116678 48.826008 
L 53.336925 48.741515 
L 53.667295 48.323888 
L 54.328037 47.404693 
L 54.548284 47.366411 
L 56.090014 48.072932 
L 57.52162 48.438643 
L 59.503844 48.697923 
L 61.926562 48.817266 
L 62.256933 48.519324 
L 63.137921 47.372811 
L 63.358169 47.425178 
L 64.459404 47.954532 
L 65.780887 48.347482 
L 67.542864 48.633073 
L 70.185829 48.815398 
L 70.736447 48.768988 
L 71.066818 48.379076 
L 71.727559 47.435696 
L 71.947806 47.368193 
L 74.370524 48.318394 
L 76.132501 48.618682 
L 78.665343 48.80579 
L 79.436208 48.778477 
L 79.766579 48.400978 
L 80.537444 47.381281 
L 80.757691 47.40738 
L 81.858926 47.943067 
L 83.180409 48.340721 
L 84.942386 48.629727 
L 87.585351 48.814234 
L 88.135969 48.787179 
L 88.46634 48.42233 
L 89.237205 47.38693 
L 89.457452 47.398803 
L 90.558688 47.937499 
L 91.88017 48.337435 
L 93.642147 48.628102 
L 96.285113 48.813669 
L 96.83573 48.795131 
L 97.166101 48.443546 
L 97.936966 47.393488 
L 98.157213 47.390999 
L 99.368572 47.974078 
L 100.800178 48.382839 
L 101.240673 48.468321 
L 101.240673 48.468321 
" clip-path="url(#p8d9f31ddb2)" style="fill: none; stroke: #6359ac; stroke-width: 0.75; stroke-linecap: square"/>
   </g>
   <g id="line2d_10">
    <path d="M 18.758127 56.60442 
L 31.091966 56.518448 
L 31.642584 56.139572 
L 32.413449 55.272254 
L 34.285549 53.020904 
L 34.726043 52.860382 
L 35.056414 52.932616 
L 35.496908 53.287543 
L 36.818391 54.701779 
L 37.369009 55.050034 
L 37.809503 55.030589 
L 38.360121 54.753902 
L 39.241109 54.013159 
L 42.765063 50.691555 
L 43.205557 50.576331 
L 43.535928 50.668682 
L 43.976422 51.057286 
L 44.52704 51.92646 
L 45.408028 53.389337 
L 45.958646 53.999144 
L 46.399141 54.149603 
L 46.949758 54.063529 
L 47.720623 53.658274 
L 48.821859 52.773865 
L 50.914206 51.034657 
L 51.685071 50.625957 
L 52.125566 50.6506 
L 52.56606 50.965676 
L 53.116678 51.756524 
L 54.217913 53.558181 
L 54.768531 54.090645 
L 55.209025 54.18699 
L 55.759643 54.060312 
L 56.530508 53.623748 
L 57.631743 52.714269 
L 59.503844 51.137854 
L 60.384832 50.642342 
L 60.825327 50.655615 
L 61.265821 50.958246 
L 61.706315 51.54902 
L 63.137921 53.815713 
L 63.578416 54.135828 
L 64.01891 54.185685 
L 64.569528 54.023381 
L 65.340393 53.558892 
L 66.551752 52.527895 
L 68.313729 51.070397 
L 69.084594 50.645079 
L 69.525088 50.649616 
L 69.965582 50.942631 
L 70.406076 51.524774 
L 71.947806 53.915216 
L 72.3883 54.164078 
L 72.828795 54.171329 
L 73.489536 53.919325 
L 74.370524 53.314683 
L 77.784355 50.64866 
L 78.224849 50.644566 
L 78.665343 50.92783 
L 79.105837 51.501302 
L 80.647567 53.901093 
L 81.088061 54.160279 
L 81.528556 54.173559 
L 82.189297 53.927066 
L 83.070286 53.326311 
L 86.484116 50.653163 
L 86.92461 50.640589 
L 87.365104 50.914208 
L 87.805599 51.478836 
L 89.457452 53.986266 
L 89.897946 54.179724 
L 90.448564 54.12388 
L 91.109305 53.808485 
L 92.100417 53.060725 
L 94.743383 50.880944 
L 95.294001 50.628145 
L 95.734495 50.674195 
L 96.174989 51.01305 
L 96.725607 51.828858 
L 97.716719 53.465485 
L 98.267337 54.053371 
L 98.707831 54.189099 
L 99.258449 54.090983 
L 100.029314 53.675412 
L 101.130549 52.779738 
L 101.240673 52.679709 
L 101.240673 52.679709 
" clip-path="url(#p8d9f31ddb2)" style="fill: none; stroke: #fb9d3a; stroke-width: 0.75; stroke-linecap: square"/>
   </g>
   <g id="LineCollection_1">
    <path d="M 14.634 56.60442 
L 14.634 48.058068 
" clip-path="url(#p8d9f31ddb2)" style="fill: none; stroke: #000000; stroke-width: 1.5"/>
   </g>
   <g id="patch_3">
    <path d="M 14.634 58.92156 
L 105.3648 58.92156 
" style="fill: none; stroke: #000000; stroke-width: 0.25; stroke-linejoin: miter; stroke-linecap: square"/>
   </g>
   <g id="legend_1">
    <g id="patch_4">
     <path d="M 110.2648 53.82073 
L 118.072 53.82073 
Q 270.620581 53.82073 270.620581 52.42073 
Q 270.620581 11.44448 269.220581 11.44448 
M 118.072 11.44448 
L 110.2648 11.44448 
Q 108.8648 11.44448 108.8648 12.84448 
L 108.8648 52.42073 
Q 108.8648 53.82073 110.2648 53.82073 
L 110.2648 53.82073 
" style="fill: none; opacity: 0.8"/>
    </g>
    <g id="line2d_11">
     <path d="M 111.6648 16.890261 
L 118.072 16.890261 
" style="fill: none; stroke: #b33b24; stroke-width: 0.75; stroke-linecap: square"/>
    </g>
    <g id="text_9">
     <text style="font-size: 7px; font-family: 'Arial'; text-anchor: start" x="131.2648" y="19.340261" transform="rotate(-0 131.2648 19.340261)">L Tergopleural/Pleural promotor MN (19319)</text>
    </g>
    <g id="line2d_12">
     <path d="M 111.6648 26.959324 
L 118.072 26.959324 
" style="fill: none; stroke: #b33b24; stroke-width: 0.75; stroke-linecap: square"/>
    </g>
    <g id="text_10">
     <text style="font-size: 7px; font-family: 'Arial'; text-anchor: start" x="131.2648" y="29.409324" transform="rotate(-0 131.2648 29.409324)">L Tergopleural/Pleural promotor MN (12686)</text>
    </g>
    <g id="line2d_13">
     <path d="M 111.6648 37.028386 
L 118.072 37.028386 
" style="fill: none; stroke: #6359ac; stroke-width: 0.75; stroke-linecap: square"/>
    </g>
    <g id="text_11">
     <text style="font-size: 7px; font-family: 'Arial'; text-anchor: start" x="131.2648" y="39.478386" transform="rotate(-0 131.2648 39.478386)">L Tr flexor MN (19771)</text>
    </g>
    <g id="line2d_14">
     <path d="M 111.6648 47.097449 
L 118.072 47.097449 
" style="fill: none; stroke: #fb9d3a; stroke-width: 0.75; stroke-linecap: square"/>
    </g>
    <g id="text_12">
     <text style="font-size: 7px; font-family: 'Arial'; text-anchor: start" x="131.2648" y="49.547449" transform="rotate(-0 131.2648 49.547449)">L Ti extensor MN (12704)</text>
    </g>
   </g>
  </g>
 </g>
 <defs>
  <clipPath id="p8d9f31ddb2">
   <rect x="14.634" y="7.94448" width="90.7308" height="50.97708"/>
  </clipPath>
 </defs>
</svg>
