<?xml version="1.0" encoding="utf-8" standalone="no"?>
<!DOCTYPE svg PUBLIC "-//W3C//DTD SVG 1.1//EN"
  "http://www.w3.org/Graphics/SVG/1.1/DTD/svg11.dtd">
<svg xmlns:xlink="http://www.w3.org/1999/xlink" width="50.4pt" height="64.8pt" viewBox="0 0 50.4 64.8" xmlns="http://www.w3.org/2000/svg" version="1.1">
 <metadata>
  <rdf:RDF xmlns:dc="http://purl.org/dc/elements/1.1/" xmlns:cc="http://creativecommons.org/ns#" xmlns:rdf="http://www.w3.org/1999/02/22-rdf-syntax-ns#">
   <cc:Work>
    <dc:type rdf:resource="http://purl.org/dc/dcmitype/StillImage"/>
    <dc:date>2025-09-04T00:45:17.887551</dc:date>
    <dc:format>image/svg+xml</dc:format>
    <dc:creator>
     <cc:Agent>
      <dc:title>Matplotlib v3.10.3, https://matplotlib.org/</dc:title>
     </cc:Agent>
    </dc:creator>
   </cc:Work>
  </rdf:RDF>
 </metadata>
 <defs>
  <style type="text/css">*{stroke-linejoin: round; stroke-linecap: butt}</style>
 </defs>
 <g id="figure_1">
  <g id="patch_1">
   <path d="M 0 64.8 
L 50.4 64.8 
L 50.4 0 
L 0 0 
L 0 64.8 
z
" style="fill: none"/>
  </g>
  <g id="axes_1">
   <g id="patch_2">
    <path d="M 6.3 57.672 
L 45.36 57.672 
L 45.36 7.776 
L 6.3 7.776 
L 6.3 57.672 
z
" style="fill: none"/>
   </g>
   <g id="FillBetweenPolyCollection_1">
    <path d="M 16.952727 14.02577 
L 16.952727 14.00023 
L 17.203802 13.999915 
L 17.454876 13.999731 
L 17.70595 13.999632 
L 17.957025 13.999558 
L 18.208099 13.999437 
L 18.459174 13.999185 
L 18.710248 13.998715 
L 18.961322 13.997925 
L 19.212397 13.996698 
L 19.463471 13.994895 
L 19.714545 13.992348 
L 19.96562 13.98885 
L 20.216694 13.984157 
L 20.467769 13.977995 
L 20.718843 13.970069 
L 20.969917 13.960094 
L 21.220992 13.947821 
L 21.472066 13.933071 
L 21.72314 13.915766 
L 21.974215 13.895947 
L 22.225289 13.873759 
L 22.476364 13.849427 
L 22.727438 13.823181 
L 22.978512 13.79517 
L 23.229587 13.765351 
L 23.480661 13.733383 
L 23.731736 13.698554 
L 23.98281 13.659755 
L 24.233884 13.615527 
L 24.484959 13.564196 
L 24.736033 13.504085 
L 24.987107 13.433777 
L 25.238182 13.352403 
L 25.489256 13.259877 
L 25.740331 13.157042 
L 25.991405 13.045657 
L 26.242479 12.928201 
L 26.493554 12.807495 
L 26.744628 12.686179 
L 26.995702 12.566117 
L 27.246777 12.447855 
L 27.497851 12.330228 
L 27.748926 12.210261 
L 28 12.0834 
L 28.251074 11.944124 
L 28.502149 11.786868 
L 28.753223 11.607128 
L 29.004298 11.402566 
L 29.255372 11.173905 
L 29.506446 10.925404 
L 29.757521 10.66476 
L 30.008595 10.40239 
L 30.259669 10.150136 
L 30.510744 9.919577 
L 30.761818 9.720221 
L 31.012893 9.557883 
L 31.263967 9.433593 
L 31.515041 9.343264 
L 31.766116 9.27824 
L 32.01719 9.226711 
L 32.268264 9.175766 
L 32.519339 9.11378 
L 32.770413 9.032698 
L 33.021488 8.929819 
L 33.272562 8.80873 
L 33.523636 8.679194 
L 33.774711 8.555975 
L 34.025785 8.456789 
L 34.27686 8.3997 
L 34.527934 8.40041 
L 34.779008 8.469889 
L 35.030083 8.612743 
L 35.281157 8.826551 
L 35.532231 9.102271 
L 35.783306 9.425582 
L 36.03438 9.778911 
L 36.285455 10.143768 
L 36.536529 10.503015 
L 36.787603 10.84271 
L 37.038678 11.153293 
L 37.289752 11.430006 
L 37.540826 11.672579 
L 37.791901 11.884334 
L 38.042975 12.070925 
L 38.29405 12.238978 
L 38.545124 12.394844 
L 38.796198 12.54366 
L 39.047273 12.688788 
L 39.298347 12.831663 
L 39.549421 12.971994 
L 39.800496 13.108197 
L 40.05157 13.237965 
L 40.302645 13.358826 
L 40.553719 13.468625 
L 40.804793 13.565849 
L 41.055868 13.649786 
L 41.306942 13.720531 
L 41.558017 13.778872 
L 41.809091 13.826098 
L 41.809091 14.199902 
L 41.809091 14.199902 
L 41.558017 14.247128 
L 41.306942 14.305469 
L 41.055868 14.376214 
L 40.804793 14.460151 
L 40.553719 14.557375 
L 40.302645 14.667174 
L 40.05157 14.788035 
L 39.800496 14.917803 
L 39.549421 15.054006 
L 39.298347 15.194337 
L 39.047273 15.337212 
L 38.796198 15.48234 
L 38.545124 15.631156 
L 38.29405 15.787022 
L 38.042975 15.955075 
L 37.791901 16.141666 
L 37.540826 16.353421 
L 37.289752 16.595994 
L 37.038678 16.872707 
L 36.787603 17.18329 
L 36.536529 17.522985 
L 36.285455 17.882232 
L 36.03438 18.247089 
L 35.783306 18.600418 
L 35.532231 18.923729 
L 35.281157 19.199449 
L 35.030083 19.413257 
L 34.779008 19.556111 
L 34.527934 19.62559 
L 34.27686 19.6263 
L 34.025785 19.569211 
L 33.774711 19.470025 
L 33.523636 19.346806 
L 33.272562 19.21727 
L 33.021488 19.096181 
L 32.770413 18.993302 
L 32.519339 18.91222 
L 32.268264 18.850234 
L 32.01719 18.799289 
L 31.766116 18.74776 
L 31.515041 18.682736 
L 31.263967 18.592407 
L 31.012893 18.468117 
L 30.761818 18.305779 
L 30.510744 18.106423 
L 30.259669 17.875864 
L 30.008595 17.62361 
L 29.757521 17.36124 
L 29.506446 17.100596 
L 29.255372 16.852095 
L 29.004298 16.623434 
L 28.753223 16.418872 
L 28.502149 16.239132 
L 28.251074 16.081876 
L 28 15.9426 
L 27.748926 15.815739 
L 27.497851 15.695772 
L 27.246777 15.578145 
L 26.995702 15.459883 
L 26.744628 15.339821 
L 26.493554 15.218505 
L 26.242479 15.097799 
L 25.991405 14.980343 
L 25.740331 14.868958 
L 25.489256 14.766123 
L 25.238182 14.673597 
L 24.987107 14.592223 
L 24.736033 14.521915 
L 24.484959 14.461804 
L 24.233884 14.410473 
L 23.98281 14.366245 
L 23.731736 14.327446 
L 23.480661 14.292617 
L 23.229587 14.260649 
L 22.978512 14.23083 
L 22.727438 14.202819 
L 22.476364 14.176573 
L 22.225289 14.152241 
L 21.974215 14.130053 
L 21.72314 14.110234 
L 21.472066 14.092929 
L 21.220992 14.078179 
L 20.969917 14.065906 
L 20.718843 14.055931 
L 20.467769 14.048005 
L 20.216694 14.041843 
L 19.96562 14.03715 
L 19.714545 14.033652 
L 19.463471 14.031105 
L 19.212397 14.029302 
L 18.961322 14.028075 
L 18.710248 14.027285 
L 18.459174 14.026815 
L 18.208099 14.026563 
L 17.957025 14.026442 
L 17.70595 14.026368 
L 17.454876 14.026269 
L 17.203802 14.026085 
L 16.952727 14.02577 
z
" clip-path="url(#p1cd0fc7a01)" style="fill: #306c53; fill-opacity: 0.5"/>
   </g>
   <g id="FillBetweenPolyCollection_2">
    <path d="M 6.3 27.12013 
L 6.3 25.85387 
L 6.371736 25.857862 
L 6.443471 25.869687 
L 6.515207 25.888904 
L 6.586942 25.914805 
L 6.658678 25.946462 
L 6.730413 25.98278 
L 6.802149 26.022558 
L 6.873884 26.064553 
L 6.94562 26.107544 
L 7.017355 26.150382 
L 7.089091 26.192035 
L 7.160826 26.231617 
L 7.232562 26.268401 
L 7.304298 26.30182 
L 7.376033 26.331452 
L 7.447769 26.35699 
L 7.519504 26.378205 
L 7.59124 26.394895 
L 7.662975 26.406837 
L 7.734711 26.413724 
L 7.806446 26.415109 
L 7.878182 26.410348 
L 7.949917 26.398544 
L 8.021653 26.378507 
L 8.093388 26.348718 
L 8.165124 26.307316 
L 8.23686 26.252104 
L 8.308595 26.180585 
L 8.380331 26.090032 
L 8.452066 25.97759 
L 8.523802 25.840427 
L 8.595537 25.675914 
L 8.667273 25.481847 
L 8.739008 25.256686 
L 8.810744 24.999813 
L 8.882479 24.711777 
L 8.954215 24.394513 
L 9.02595 24.051505 
L 9.097686 23.687876 
L 9.169421 23.310382 
L 9.241157 22.927289 
L 9.312893 22.548139 
L 9.384628 22.183396 
L 9.456364 21.84399 
L 9.528099 21.540791 
L 9.599835 21.284037 
L 9.67157 21.082762 
L 9.743306 20.944271 
L 9.815041 20.8737 
L 9.886777 20.8737 
L 9.958512 20.944271 
L 10.030248 21.082762 
L 10.101983 21.284037 
L 10.173719 21.540792 
L 10.245455 21.843992 
L 10.31719 22.183399 
L 10.388926 22.548145 
L 10.460661 22.927299 
L 10.532397 23.310398 
L 10.604132 23.687903 
L 10.675868 24.051549 
L 10.747603 24.394584 
L 10.819339 24.711889 
L 10.891074 24.999988 
L 10.96281 25.256956 
L 11.034545 25.48226 
L 11.106281 25.676537 
L 11.178017 25.841355 
L 11.249752 25.978955 
L 11.321488 26.092014 
L 11.393223 26.183429 
L 11.464959 26.25613 
L 11.536694 26.312946 
L 11.60843 26.356491 
L 11.680165 26.389105 
L 11.751901 26.412811 
L 11.823636 26.429314 
L 11.895372 26.440004 
L 11.967107 26.44599 
L 12.038843 26.448132 
L 12.110579 26.44708 
L 12.182314 26.443323 
L 12.25405 26.437225 
L 12.325785 26.42907 
L 12.397521 26.419094 
L 12.469256 26.407517 
L 12.540992 26.394569 
L 12.612727 26.380508 
L 12.684463 26.365631 
L 12.756198 26.350284 
L 12.827934 26.334852 
L 12.899669 26.319761 
L 12.971405 26.305458 
L 13.04314 26.292393 
L 13.114876 26.281002 
L 13.186612 26.271681 
L 13.258347 26.264765 
L 13.330083 26.260509 
L 13.401818 26.259073 
L 13.401818 26.714927 
L 13.401818 26.714927 
L 13.330083 26.713491 
L 13.258347 26.709235 
L 13.186612 26.702319 
L 13.114876 26.692998 
L 13.04314 26.681607 
L 12.971405 26.668542 
L 12.899669 26.654239 
L 12.827934 26.639148 
L 12.756198 26.623716 
L 12.684463 26.608369 
L 12.612727 26.593492 
L 12.540992 26.579431 
L 12.469256 26.566483 
L 12.397521 26.554906 
L 12.325785 26.54493 
L 12.25405 26.536775 
L 12.182314 26.530677 
L 12.110579 26.52692 
L 12.038843 26.525868 
L 11.967107 26.52801 
L 11.895372 26.533996 
L 11.823636 26.544686 
L 11.751901 26.561189 
L 11.680165 26.584895 
L 11.60843 26.617509 
L 11.536694 26.661054 
L 11.464959 26.71787 
L 11.393223 26.790571 
L 11.321488 26.881986 
L 11.249752 26.995045 
L 11.178017 27.132645 
L 11.106281 27.297463 
L 11.034545 27.49174 
L 10.96281 27.717044 
L 10.891074 27.974012 
L 10.819339 28.262111 
L 10.747603 28.579416 
L 10.675868 28.922451 
L 10.604132 29.286097 
L 10.532397 29.663602 
L 10.460661 30.046701 
L 10.388926 30.425855 
L 10.31719 30.790601 
L 10.245455 31.130008 
L 10.173719 31.433208 
L 10.101983 31.689963 
L 10.030248 31.891238 
L 9.958512 32.029729 
L 9.886777 32.1003 
L 9.815041 32.1003 
L 9.743306 32.029729 
L 9.67157 31.891238 
L 9.599835 31.689963 
L 9.528099 31.433209 
L 9.456364 31.13001 
L 9.384628 30.790604 
L 9.312893 30.425861 
L 9.241157 30.046711 
L 9.169421 29.663618 
L 9.097686 29.286124 
L 9.02595 28.922495 
L 8.954215 28.579487 
L 8.882479 28.262223 
L 8.810744 27.974187 
L 8.739008 27.717314 
L 8.667273 27.492153 
L 8.595537 27.298086 
L 8.523802 27.133573 
L 8.452066 26.99641 
L 8.380331 26.883968 
L 8.308595 26.793415 
L 8.23686 26.721896 
L 8.165124 26.666684 
L 8.093388 26.625282 
L 8.021653 26.595493 
L 7.949917 26.575456 
L 7.878182 26.563652 
L 7.806446 26.558891 
L 7.734711 26.560276 
L 7.662975 26.567163 
L 7.59124 26.579105 
L 7.519504 26.595795 
L 7.447769 26.61701 
L 7.376033 26.642548 
L 7.304298 26.67218 
L 7.232562 26.705599 
L 7.160826 26.742383 
L 7.089091 26.781965 
L 7.017355 26.823618 
L 6.94562 26.866456 
L 6.873884 26.909447 
L 6.802149 26.951442 
L 6.730413 26.99122 
L 6.658678 27.027538 
L 6.586942 27.059195 
L 6.515207 27.085096 
L 6.443471 27.104313 
L 6.371736 27.116138 
L 6.3 27.12013 
z
" clip-path="url(#p1cd0fc7a01)" style="fill: #c35843; fill-opacity: 0.5"/>
   </g>
   <g id="FillBetweenPolyCollection_3">
    <path d="M 6.3 42.254179 
L 6.3 35.667821 
L 6.371736 35.67879 
L 6.443471 35.7122 
L 6.515207 35.767291 
L 6.586942 35.842845 
L 6.658678 35.937216 
L 6.730413 36.048387 
L 6.802149 36.174016 
L 6.873884 36.311512 
L 6.94562 36.45809 
L 7.017355 36.610853 
L 7.089091 36.766847 
L 7.160826 36.92313 
L 7.232562 37.076824 
L 7.304298 37.225161 
L 7.376033 37.365519 
L 7.447769 37.49545 
L 7.519504 37.612696 
L 7.59124 37.715199 
L 7.662975 37.801106 
L 7.734711 37.868761 
L 7.806446 37.916708 
L 7.878182 37.943684 
L 7.949917 37.948612 
L 8.021653 37.930613 
L 8.093388 37.889003 
L 8.165124 37.823313 
L 8.23686 37.733306 
L 8.308595 37.619002 
L 8.380331 37.480716 
L 8.452066 37.319081 
L 8.523802 37.135094 
L 8.595537 36.930143 
L 8.667273 36.706035 
L 8.739008 36.465017 
L 8.810744 36.209782 
L 8.882479 35.943466 
L 8.954215 35.669618 
L 9.02595 35.392166 
L 9.097686 35.115353 
L 9.169421 34.84366 
L 9.241157 34.581712 
L 9.312893 34.334167 
L 9.384628 34.105603 
L 9.456364 33.900388 
L 9.528099 33.722557 
L 9.599835 33.575693 
L 9.67157 33.462812 
L 9.743306 33.386274 
L 9.815041 33.3477 
L 9.886777 33.347927 
L 9.958512 33.386976 
L 10.030248 33.464059 
L 10.101983 33.577602 
L 10.173719 33.725305 
L 10.245455 33.90422 
L 10.31719 34.110849 
L 10.388926 34.341257 
L 10.460661 34.5912 
L 10.532397 34.856253 
L 10.604132 35.131937 
L 10.675868 35.413848 
L 10.747603 35.697763 
L 10.819339 35.979744 
L 10.891074 36.256219 
L 10.96281 36.524043 
L 11.034545 36.780543 
L 11.106281 37.023541 
L 11.178017 37.251361 
L 11.249752 37.462811 
L 11.321488 37.657166 
L 11.393223 37.834122 
L 11.464959 37.99375 
L 11.536694 38.136448 
L 11.60843 38.26288 
L 11.680165 38.373921 
L 11.751901 38.470604 
L 11.823636 38.554066 
L 11.895372 38.625503 
L 11.967107 38.686134 
L 12.038843 38.737158 
L 12.110579 38.779736 
L 12.182314 38.814964 
L 12.25405 38.843863 
L 12.325785 38.867363 
L 12.397521 38.886305 
L 12.469256 38.901436 
L 12.540992 38.913409 
L 12.612727 38.922793 
L 12.684463 38.930076 
L 12.756198 38.93567 
L 12.827934 38.939923 
L 12.899669 38.943122 
L 12.971405 38.945504 
L 13.04314 38.947263 
L 13.114876 38.948555 
L 13.186612 38.949504 
L 13.258347 38.950207 
L 13.330083 38.950743 
L 13.401818 38.951168 
L 13.401818 38.970832 
L 13.401818 38.970832 
L 13.330083 38.971257 
L 13.258347 38.971793 
L 13.186612 38.972496 
L 13.114876 38.973445 
L 13.04314 38.974737 
L 12.971405 38.976496 
L 12.899669 38.978878 
L 12.827934 38.982077 
L 12.756198 38.98633 
L 12.684463 38.991924 
L 12.612727 38.999207 
L 12.540992 39.008591 
L 12.469256 39.020564 
L 12.397521 39.035695 
L 12.325785 39.054637 
L 12.25405 39.078137 
L 12.182314 39.107036 
L 12.110579 39.142264 
L 12.038843 39.184842 
L 11.967107 39.235866 
L 11.895372 39.296497 
L 11.823636 39.367934 
L 11.751901 39.451396 
L 11.680165 39.548079 
L 11.60843 39.65912 
L 11.536694 39.785552 
L 11.464959 39.92825 
L 11.393223 40.087878 
L 11.321488 40.264834 
L 11.249752 40.459189 
L 11.178017 40.670639 
L 11.106281 40.898459 
L 11.034545 41.141457 
L 10.96281 41.397957 
L 10.891074 41.665781 
L 10.819339 41.942256 
L 10.747603 42.224237 
L 10.675868 42.508152 
L 10.604132 42.790063 
L 10.532397 43.065747 
L 10.460661 43.3308 
L 10.388926 43.580743 
L 10.31719 43.811151 
L 10.245455 44.01778 
L 10.173719 44.196695 
L 10.101983 44.344398 
L 10.030248 44.457941 
L 9.958512 44.535024 
L 9.886777 44.574073 
L 9.815041 44.5743 
L 9.743306 44.535726 
L 9.67157 44.459188 
L 9.599835 44.346307 
L 9.528099 44.199443 
L 9.456364 44.021612 
L 9.384628 43.816397 
L 9.312893 43.587833 
L 9.241157 43.340288 
L 9.169421 43.07834 
L 9.097686 42.806647 
L 9.02595 42.529834 
L 8.954215 42.252382 
L 8.882479 41.978534 
L 8.810744 41.712218 
L 8.739008 41.456983 
L 8.667273 41.215965 
L 8.595537 40.991857 
L 8.523802 40.786906 
L 8.452066 40.602919 
L 8.380331 40.441284 
L 8.308595 40.302998 
L 8.23686 40.188694 
L 8.165124 40.098687 
L 8.093388 40.032997 
L 8.021653 39.991387 
L 7.949917 39.973388 
L 7.878182 39.978316 
L 7.806446 40.005292 
L 7.734711 40.053239 
L 7.662975 40.120894 
L 7.59124 40.206801 
L 7.519504 40.309304 
L 7.447769 40.42655 
L 7.376033 40.556481 
L 7.304298 40.696839 
L 7.232562 40.845176 
L 7.160826 40.99887 
L 7.089091 41.155153 
L 7.017355 41.311147 
L 6.94562 41.46391 
L 6.873884 41.610488 
L 6.802149 41.747984 
L 6.730413 41.873613 
L 6.658678 41.984784 
L 6.586942 42.079155 
L 6.515207 42.154709 
L 6.443471 42.2098 
L 6.371736 42.24321 
L 6.3 42.254179 
z
" clip-path="url(#p1cd0fc7a01)" style="fill: #f0a394; fill-opacity: 0.5"/>
   </g>
   <g id="FillBetweenPolyCollection_4">
    <path d="M 24.054545 51.772028 
L 24.054545 51.097972 
L 24.233884 51.072616 
L 24.413223 51.044848 
L 24.592562 51.014039 
L 24.771901 50.979572 
L 24.95124 50.940893 
L 25.130579 50.897568 
L 25.309917 50.849331 
L 25.489256 50.796126 
L 25.668595 50.738123 
L 25.847934 50.675728 
L 26.027273 50.609551 
L 26.206612 50.540361 
L 26.38595 50.46901 
L 26.565289 50.396336 
L 26.744628 50.323059 
L 26.923967 50.249666 
L 27.103306 50.17631 
L 27.282645 50.10273 
L 27.461983 50.028197 
L 27.641322 49.951509 
L 27.820661 49.871037 
L 28 49.784815 
L 28.179339 49.690687 
L 28.358678 49.586498 
L 28.538017 49.470303 
L 28.717355 49.340598 
L 28.896694 49.196533 
L 29.076033 49.038097 
L 29.255372 48.866241 
L 29.434711 48.682933 
L 29.61405 48.491124 
L 29.793388 48.29462 
L 29.972727 48.097863 
L 30.152066 47.90564 
L 30.331405 47.722729 
L 30.510744 47.553521 
L 30.690083 47.401648 
L 30.869421 47.269649 
L 31.04876 47.158724 
L 31.228099 47.068578 
L 31.407438 46.997407 
L 31.586777 46.942013 
L 31.766116 46.898053 
L 31.945455 46.860409 
L 32.124793 46.823648 
L 32.304132 46.782527 
L 32.483471 46.732508 
L 32.66281 46.670237 
L 32.842149 46.59392 
L 33.021488 46.503593 
L 33.200826 46.401223 
L 33.380165 46.29065 
L 33.559504 46.17736 
L 33.738843 46.06811 
L 33.918182 45.970432 
L 34.097521 45.892065 
L 34.27686 45.840358 
L 34.456198 45.8217 
L 34.635537 45.841024 
L 34.814876 45.901429 
L 34.994215 46.00395 
L 35.173554 46.147491 
L 35.352893 46.328923 
L 35.532231 46.543341 
L 35.71157 46.784432 
L 35.890909 47.044947 
L 36.070248 47.317204 
L 36.249587 47.593597 
L 36.428926 47.867069 
L 36.608264 48.131497 
L 36.787603 48.38198 
L 36.966942 48.615011 
L 37.146281 48.828526 
L 37.32562 49.021837 
L 37.504959 49.195478 
L 37.684298 49.350966 
L 37.863636 49.490528 
L 38.042975 49.616808 
L 38.222314 49.73258 
L 38.401653 49.840502 
L 38.580992 49.942909 
L 38.760331 50.041677 
L 38.939669 50.138141 
L 39.119008 50.233076 
L 39.298347 50.326736 
L 39.477686 50.418928 
L 39.657025 50.509116 
L 39.836364 50.596544 
L 40.015702 50.680352 
L 40.195041 50.759689 
L 40.37438 50.833805 
L 40.553719 50.902119 
L 40.733058 50.964258 
L 40.912397 51.020076 
L 41.091736 51.069648 
L 41.271074 51.113243 
L 41.450413 51.151286 
L 41.629752 51.184317 
L 41.809091 51.212936 
L 41.809091 51.657064 
L 41.809091 51.657064 
L 41.629752 51.685683 
L 41.450413 51.718714 
L 41.271074 51.756757 
L 41.091736 51.800352 
L 40.912397 51.849924 
L 40.733058 51.905742 
L 40.553719 51.967881 
L 40.37438 52.036195 
L 40.195041 52.110311 
L 40.015702 52.189648 
L 39.836364 52.273456 
L 39.657025 52.360884 
L 39.477686 52.451072 
L 39.298347 52.543264 
L 39.119008 52.636924 
L 38.939669 52.731859 
L 38.760331 52.828323 
L 38.580992 52.927091 
L 38.401653 53.029498 
L 38.222314 53.13742 
L 38.042975 53.253192 
L 37.863636 53.379472 
L 37.684298 53.519034 
L 37.504959 53.674522 
L 37.32562 53.848163 
L 37.146281 54.041474 
L 36.966942 54.254989 
L 36.787603 54.48802 
L 36.608264 54.738503 
L 36.428926 55.002931 
L 36.249587 55.276403 
L 36.070248 55.552796 
L 35.890909 55.825053 
L 35.71157 56.085568 
L 35.532231 56.326659 
L 35.352893 56.541077 
L 35.173554 56.722509 
L 34.994215 56.86605 
L 34.814876 56.968571 
L 34.635537 57.028976 
L 34.456198 57.0483 
L 34.27686 57.029642 
L 34.097521 56.977935 
L 33.918182 56.899568 
L 33.738843 56.80189 
L 33.559504 56.69264 
L 33.380165 56.57935 
L 33.200826 56.468777 
L 33.021488 56.366407 
L 32.842149 56.27608 
L 32.66281 56.199763 
L 32.483471 56.137492 
L 32.304132 56.087473 
L 32.124793 56.046352 
L 31.945455 56.009591 
L 31.766116 55.971947 
L 31.586777 55.927987 
L 31.407438 55.872593 
L 31.228099 55.801422 
L 31.04876 55.711276 
L 30.869421 55.600351 
L 30.690083 55.468352 
L 30.510744 55.316479 
L 30.331405 55.147271 
L 30.152066 54.96436 
L 29.972727 54.772137 
L 29.793388 54.57538 
L 29.61405 54.378876 
L 29.434711 54.187067 
L 29.255372 54.003759 
L 29.076033 53.831903 
L 28.896694 53.673467 
L 28.717355 53.529402 
L 28.538017 53.399697 
L 28.358678 53.283502 
L 28.179339 53.179313 
L 28 53.085185 
L 27.820661 52.998963 
L 27.641322 52.918491 
L 27.461983 52.841803 
L 27.282645 52.76727 
L 27.103306 52.69369 
L 26.923967 52.620334 
L 26.744628 52.546941 
L 26.565289 52.473664 
L 26.38595 52.40099 
L 26.206612 52.329639 
L 26.027273 52.260449 
L 25.847934 52.194272 
L 25.668595 52.131877 
L 25.489256 52.073874 
L 25.309917 52.020669 
L 25.130579 51.972432 
L 24.95124 51.929107 
L 24.771901 51.890428 
L 24.592562 51.855961 
L 24.413223 51.825152 
L 24.233884 51.797384 
L 24.054545 51.772028 
z
" clip-path="url(#p1cd0fc7a01)" style="fill: #126175; fill-opacity: 0.5"/>
   </g>
   <g id="matplotlib.axis_1">
    <g id="xtick_1">
     <g id="line2d_1">
      <defs>
       <path id="m134bccf561" d="M 0 0 
L 0 1.7 
" style="stroke: #000000; stroke-width: 0.25"/>
      </defs>
      <g>
       <use xlink:href="#m134bccf561" x="6.3" y="58.672" style="stroke: #000000; stroke-width: 0.25"/>
      </g>
     </g>
     <g id="text_1">
      <text style="font-size: 6px; font-family: 'Arial'; text-anchor: middle" x="6.3" y="66.166687" transform="rotate(-0 6.3 66.166687)">0</text>
     </g>
    </g>
    <g id="xtick_2">
     <g id="line2d_2">
      <g>
       <use xlink:href="#m134bccf561" x="24.054545" y="58.672" style="stroke: #000000; stroke-width: 0.25"/>
      </g>
     </g>
     <g id="text_2">
      <text style="font-size: 6px; font-family: 'Arial'; text-anchor: middle" x="24.054545" y="66.166687" transform="rotate(-0 24.054545 66.166687)">5</text>
     </g>
    </g>
    <g id="xtick_3">
     <g id="line2d_3">
      <g>
       <use xlink:href="#m134bccf561" x="41.809091" y="58.672" style="stroke: #000000; stroke-width: 0.25"/>
      </g>
     </g>
     <g id="text_3">
      <text style="font-size: 6px; font-family: 'Arial'; text-anchor: middle" x="41.809091" y="66.166687" transform="rotate(-0 41.809091 66.166687)">10</text>
     </g>
    </g>
    <g id="text_4">
     <text style="font-size: 8px; font-family: 'Arial'; text-anchor: middle" x="25.83" y="74.585437" transform="rotate(-0 25.83 74.585437)"># MNs active</text>
    </g>
   </g>
   <g id="matplotlib.axis_2">
    <g id="ytick_1">
     <g id="line2d_4">
      <defs>
       <path id="m9f250dedff" d="M 0 0 
L -1.7 0 
" style="stroke: #000000; stroke-width: 0.25"/>
      </defs>
      <g>
       <use xlink:href="#m9f250dedff" x="4.3" y="14.013" style="stroke: #000000; stroke-width: 0.25"/>
      </g>
     </g>
     <g id="text_5">
      <text style="font-size: 6px; font-family: 'Arial'; text-anchor: end" x="1.1" y="16.160344" transform="rotate(-0 1.1 16.160344)">none</text>
     </g>
    </g>
    <g id="ytick_2">
     <g id="line2d_5">
      <g>
       <use xlink:href="#m9f250dedff" x="4.3" y="26.487" style="stroke: #000000; stroke-width: 0.25"/>
      </g>
     </g>
     <g id="text_6">
      <text style="font-size: 6px; font-family: 'Arial'; text-anchor: end" x="1.1" y="28.634344" transform="rotate(-0 1.1 28.634344)">E1</text>
     </g>
    </g>
    <g id="ytick_3">
     <g id="line2d_6">
      <g>
       <use xlink:href="#m9f250dedff" x="4.3" y="38.961" style="stroke: #000000; stroke-width: 0.25"/>
      </g>
     </g>
     <g id="text_7">
      <text style="font-size: 6px; font-family: 'Arial'; text-anchor: end" x="1.1" y="41.108344" transform="rotate(-0 1.1 41.108344)">E2</text>
     </g>
    </g>
    <g id="ytick_4">
     <g id="line2d_7">
      <g>
       <use xlink:href="#m9f250dedff" x="4.3" y="51.435" style="stroke: #000000; stroke-width: 0.25"/>
      </g>
     </g>
     <g id="text_8">
      <text style="font-size: 6px; font-family: 'Arial'; text-anchor: end" x="1.1" y="53.582344" transform="rotate(-0 1.1 53.582344)">I1</text>
     </g>
    </g>
    <g id="text_9">
     <text style="font-size: 8px; font-family: 'Arial'; text-anchor: middle" x="-15.33625" y="32.724" transform="rotate(-90 -15.33625 32.724)">silenced neuron</text>
    </g>
   </g>
   <g id="patch_3">
    <path d="M 31.156364 12.7656 
L 31.156364 15.2604 
L 34.707273 15.2604 
L 34.707273 12.7656 
L 31.156364 12.7656 
z
" clip-path="url(#p1cd0fc7a01)" style="fill: #306c53; stroke: #282828; stroke-width: 0.75; stroke-linejoin: miter"/>
   </g>
   <g id="line2d_8">
    <path d="M 31.156364 14.013 
L 27.605455 14.013 
" clip-path="url(#p1cd0fc7a01)" style="fill: none; stroke: #282828; stroke-width: 0.75"/>
   </g>
   <g id="line2d_9">
    <path d="M 34.707273 14.013 
L 38.258182 14.013 
" clip-path="url(#p1cd0fc7a01)" style="fill: none; stroke: #282828; stroke-width: 0.75"/>
   </g>
   <g id="line2d_10">
    <path d="M 27.605455 13.3893 
L 27.605455 14.6367 
" clip-path="url(#p1cd0fc7a01)" style="fill: none; stroke: #282828; stroke-width: 0.75; stroke-linecap: square"/>
   </g>
   <g id="line2d_11">
    <path d="M 38.258182 13.3893 
L 38.258182 14.6367 
" clip-path="url(#p1cd0fc7a01)" style="fill: none; stroke: #282828; stroke-width: 0.75; stroke-linecap: square"/>
   </g>
   <g id="patch_4">
    <path d="M 9.850909 25.2396 
L 9.850909 27.7344 
L 9.850909 27.7344 
L 9.850909 25.2396 
L 9.850909 25.2396 
z
" clip-path="url(#p1cd0fc7a01)" style="fill: #c35843; stroke: #282828; stroke-width: 0.75; stroke-linejoin: miter"/>
   </g>
   <g id="line2d_12">
    <path d="M 9.850909 26.487 
L 9.850909 26.487 
" clip-path="url(#p1cd0fc7a01)" style="fill: none; stroke: #282828; stroke-width: 0.75"/>
   </g>
   <g id="line2d_13">
    <path d="M 9.850909 26.487 
L 9.850909 26.487 
" clip-path="url(#p1cd0fc7a01)" style="fill: none; stroke: #282828; stroke-width: 0.75"/>
   </g>
   <g id="line2d_14">
    <path d="M 9.850909 25.8633 
L 9.850909 27.1107 
" clip-path="url(#p1cd0fc7a01)" style="fill: none; stroke: #282828; stroke-width: 0.75; stroke-linecap: square"/>
   </g>
   <g id="line2d_15">
    <path d="M 9.850909 25.8633 
L 9.850909 27.1107 
" clip-path="url(#p1cd0fc7a01)" style="fill: none; stroke: #282828; stroke-width: 0.75; stroke-linecap: square"/>
   </g>
   <g id="patch_5">
    <path d="M 6.3 37.7136 
L 6.3 40.2084 
L 9.850909 40.2084 
L 9.850909 37.7136 
L 6.3 37.7136 
z
" clip-path="url(#p1cd0fc7a01)" style="fill: #f0a394; stroke: #282828; stroke-width: 0.75; stroke-linejoin: miter"/>
   </g>
   <g id="line2d_16">
    <path d="M 6.3 38.961 
L 6.3 38.961 
" clip-path="url(#p1cd0fc7a01)" style="fill: none; stroke: #282828; stroke-width: 0.75"/>
   </g>
   <g id="line2d_17">
    <path d="M 9.850909 38.961 
L 13.401818 38.961 
" clip-path="url(#p1cd0fc7a01)" style="fill: none; stroke: #282828; stroke-width: 0.75"/>
   </g>
   <g id="line2d_18">
    <path d="M 6.3 38.3373 
L 6.3 39.5847 
" clip-path="url(#p1cd0fc7a01)" style="fill: none; stroke: #282828; stroke-width: 0.75; stroke-linecap: square"/>
   </g>
   <g id="line2d_19">
    <path d="M 13.401818 38.3373 
L 13.401818 39.5847 
" clip-path="url(#p1cd0fc7a01)" style="fill: none; stroke: #282828; stroke-width: 0.75; stroke-linecap: square"/>
   </g>
   <g id="patch_6">
    <path d="M 31.156364 50.1876 
L 31.156364 52.6824 
L 34.707273 52.6824 
L 34.707273 50.1876 
L 31.156364 50.1876 
z
" clip-path="url(#p1cd0fc7a01)" style="fill: #126175; stroke: #282828; stroke-width: 0.75; stroke-linejoin: miter"/>
   </g>
   <g id="line2d_20">
    <path d="M 31.156364 51.435 
L 27.605455 51.435 
" clip-path="url(#p1cd0fc7a01)" style="fill: none; stroke: #282828; stroke-width: 0.75"/>
   </g>
   <g id="line2d_21">
    <path d="M 34.707273 51.435 
L 38.258182 51.435 
" clip-path="url(#p1cd0fc7a01)" style="fill: none; stroke: #282828; stroke-width: 0.75"/>
   </g>
   <g id="line2d_22">
    <path d="M 27.605455 50.8113 
L 27.605455 52.0587 
" clip-path="url(#p1cd0fc7a01)" style="fill: none; stroke: #282828; stroke-width: 0.75; stroke-linecap: square"/>
   </g>
   <g id="line2d_23">
    <path d="M 38.258182 50.8113 
L 38.258182 52.0587 
" clip-path="url(#p1cd0fc7a01)" style="fill: none; stroke: #282828; stroke-width: 0.75; stroke-linecap: square"/>
   </g>
   <g id="line2d_24">
    <path d="M 34.707273 12.7656 
L 34.707273 15.2604 
" clip-path="url(#p1cd0fc7a01)" style="fill: none; stroke: #282828; stroke-width: 0.75"/>
   </g>
   <g id="line2d_25">
    <path d="M 9.850909 25.2396 
L 9.850909 27.7344 
" clip-path="url(#p1cd0fc7a01)" style="fill: none; stroke: #282828; stroke-width: 0.75"/>
   </g>
   <g id="line2d_26">
    <path d="M 9.850909 37.7136 
L 9.850909 40.2084 
" clip-path="url(#p1cd0fc7a01)" style="fill: none; stroke: #282828; stroke-width: 0.75"/>
   </g>
   <g id="line2d_27">
    <path d="M 34.707273 50.1876 
L 34.707273 52.6824 
" clip-path="url(#p1cd0fc7a01)" style="fill: none; stroke: #282828; stroke-width: 0.75"/>
   </g>
   <g id="patch_7">
    <path d="M 4.3 57.672 
L 4.3 7.776 
" style="fill: none; stroke: #000000; stroke-width: 0.25; stroke-linejoin: miter; stroke-linecap: square"/>
   </g>
   <g id="patch_8">
    <path d="M 6.3 58.672 
L 45.36 58.672 
" style="fill: none; stroke: #000000; stroke-width: 0.25; stroke-linejoin: miter; stroke-linecap: square"/>
   </g>
  </g>
 </g>
 <defs>
  <clipPath id="p1cd0fc7a01">
   <rect x="6.3" y="7.776" width="39.06" height="49.896"/>
  </clipPath>
 </defs>
</svg>
