<?xml version="1.0" encoding="utf-8" standalone="no"?>
<!DOCTYPE svg PUBLIC "-//W3C//DTD SVG 1.1//EN"
  "http://www.w3.org/Graphics/SVG/1.1/DTD/svg11.dtd">
<svg xmlns:xlink="http://www.w3.org/1999/xlink" width="43.2pt" height="54pt" viewBox="0 0 43.2 54" xmlns="http://www.w3.org/2000/svg" version="1.1">
 <metadata>
  <rdf:RDF xmlns:dc="http://purl.org/dc/elements/1.1/" xmlns:cc="http://creativecommons.org/ns#" xmlns:rdf="http://www.w3.org/1999/02/22-rdf-syntax-ns#">
   <cc:Work>
    <dc:type rdf:resource="http://purl.org/dc/dcmitype/StillImage"/>
    <dc:date>2025-09-08T16:42:12.604025</dc:date>
    <dc:format>image/svg+xml</dc:format>
    <dc:creator>
     <cc:Agent>
      <dc:title>Matplotlib v3.10.3, https://matplotlib.org/</dc:title>
     </cc:Agent>
    </dc:creator>
   </cc:Work>
  </rdf:RDF>
 </metadata>
 <defs>
  <style type="text/css">*{stroke-linejoin: round; stroke-linecap: butt}</style>
 </defs>
 <g id="figure_1">
  <g id="patch_1">
   <path d="M 0 54 
L 43.2 54 
L 43.2 0 
L 0 0 
L 0 54 
z
" style="fill: none"/>
  </g>
  <g id="axes_1">
   <g id="patch_2">
    <path d="M 5.4 48.06 
L 38.88 48.06 
L 38.88 6.48 
L 5.4 6.48 
L 5.4 48.06 
z
" style="fill: none"/>
   </g>
   <g id="FillBetweenPolyCollection_1">
    <defs>
     <path id="m1e762019c8" d="M 23.023979 -42.314887 
L 23.023979 -42.330113 
L 23.153477 -42.329473 
L 23.282975 -42.327859 
L 23.412473 -42.325956 
L 23.541971 -42.32437 
L 23.671469 -42.323349 
L 23.800967 -42.322823 
L 23.930465 -42.322603 
L 24.059963 -42.322528 
L 24.189461 -42.322506 
L 24.318959 -42.322501 
L 24.448457 -42.322502 
L 24.577955 -42.322508 
L 24.707453 -42.322534 
L 24.836951 -42.322624 
L 24.966449 -42.322878 
L 25.095947 -42.323466 
L 25.225445 -42.324573 
L 25.354943 -42.326233 
L 25.484441 -42.328145 
L 25.613939 -42.329679 
L 25.743437 -42.330222 
L 25.872936 -42.329663 
L 26.002434 -42.328577 
L 26.131932 -42.327906 
L 26.26143 -42.328373 
L 26.390928 -42.33008 
L 26.520426 -42.332528 
L 26.649924 -42.334991 
L 26.779422 -42.336902 
L 26.90892 -42.337996 
L 27.038418 -42.338188 
L 27.167916 -42.337442 
L 27.297414 -42.335848 
L 27.426912 -42.333874 
L 27.55641 -42.332494 
L 27.685908 -42.332897 
L 27.815406 -42.335762 
L 27.944904 -42.340543 
L 28.074402 -42.345485 
L 28.2039 -42.348642 
L 28.333398 -42.349165 
L 28.462896 -42.34764 
L 28.592394 -42.345187 
L 28.721892 -42.342383 
L 28.85139 -42.339181 
L 28.980888 -42.335663 
L 29.110386 -42.33262 
L 29.239884 -42.331375 
L 29.369382 -42.33312 
L 29.498881 -42.33823 
L 29.628379 -42.345897 
L 29.757877 -42.354326 
L 29.887375 -42.361606 
L 30.016873 -42.366799 
L 30.146371 -42.370288 
L 30.275869 -42.372953 
L 30.405367 -42.374943 
L 30.534865 -42.375356 
L 30.664363 -42.373213 
L 30.793861 -42.368627 
L 30.923359 -42.362948 
L 31.052857 -42.357895 
L 31.182355 -42.354747 
L 31.311853 -42.354322 
L 31.441351 -42.357314 
L 31.570849 -42.364099 
L 31.700347 -42.373986 
L 31.829845 -42.384995 
L 31.959343 -42.394864 
L 32.088841 -42.402531 
L 32.218339 -42.408801 
L 32.347837 -42.415821 
L 32.477335 -42.425953 
L 32.606833 -42.44067 
L 32.736331 -42.459998 
L 32.865829 -42.482928 
L 32.995327 -42.50862 
L 33.124825 -42.537234 
L 33.254324 -42.569361 
L 33.383822 -42.604782 
L 33.51332 -42.642475 
L 33.642818 -42.682355 
L 33.772316 -42.726825 
L 33.901814 -42.780376 
L 34.031312 -42.848038 
L 34.16081 -42.934839 
L 34.290308 -43.046468 
L 34.419806 -43.188854 
L 34.549304 -43.365136 
L 34.678802 -43.572684 
L 34.8083 -43.806195 
L 34.937798 -44.070111 
L 35.067296 -44.393524 
L 35.196794 -44.829098 
L 35.326292 -45.415903 
L 35.45579 -46.109104 
L 35.585288 -46.727838 
L 35.714786 -47.00025 
L 35.844284 -46.722204 
L 35.844284 -37.922796 
L 35.844284 -37.922796 
L 35.714786 -37.64475 
L 35.585288 -37.917162 
L 35.45579 -38.535896 
L 35.326292 -39.229097 
L 35.196794 -39.815902 
L 35.067296 -40.251476 
L 34.937798 -40.574889 
L 34.8083 -40.838805 
L 34.678802 -41.072316 
L 34.549304 -41.279864 
L 34.419806 -41.456146 
L 34.290308 -41.598532 
L 34.16081 -41.710161 
L 34.031312 -41.796962 
L 33.901814 -41.864624 
L 33.772316 -41.918175 
L 33.642818 -41.962645 
L 33.51332 -42.002525 
L 33.383822 -42.040218 
L 33.254324 -42.075639 
L 33.124825 -42.107766 
L 32.995327 -42.13638 
L 32.865829 -42.162072 
L 32.736331 -42.185002 
L 32.606833 -42.20433 
L 32.477335 -42.219047 
L 32.347837 -42.229179 
L 32.218339 -42.236199 
L 32.088841 -42.242469 
L 31.959343 -42.250136 
L 31.829845 -42.260005 
L 31.700347 -42.271014 
L 31.570849 -42.280901 
L 31.441351 -42.287686 
L 31.311853 -42.290678 
L 31.182355 -42.290253 
L 31.052857 -42.287105 
L 30.923359 -42.282052 
L 30.793861 -42.276373 
L 30.664363 -42.271787 
L 30.534865 -42.269644 
L 30.405367 -42.270057 
L 30.275869 -42.272047 
L 30.146371 -42.274712 
L 30.016873 -42.278201 
L 29.887375 -42.283394 
L 29.757877 -42.290674 
L 29.628379 -42.299103 
L 29.498881 -42.30677 
L 29.369382 -42.31188 
L 29.239884 -42.313625 
L 29.110386 -42.31238 
L 28.980888 -42.309337 
L 28.85139 -42.305819 
L 28.721892 -42.302617 
L 28.592394 -42.299813 
L 28.462896 -42.29736 
L 28.333398 -42.295835 
L 28.2039 -42.296358 
L 28.074402 -42.299515 
L 27.944904 -42.304457 
L 27.815406 -42.309238 
L 27.685908 -42.312103 
L 27.55641 -42.312506 
L 27.426912 -42.311126 
L 27.297414 -42.309152 
L 27.167916 -42.307558 
L 27.038418 -42.306812 
L 26.90892 -42.307004 
L 26.779422 -42.308098 
L 26.649924 -42.310009 
L 26.520426 -42.312472 
L 26.390928 -42.31492 
L 26.26143 -42.316627 
L 26.131932 -42.317094 
L 26.002434 -42.316423 
L 25.872936 -42.315337 
L 25.743437 -42.314778 
L 25.613939 -42.315321 
L 25.484441 -42.316855 
L 25.354943 -42.318767 
L 25.225445 -42.320427 
L 25.095947 -42.321534 
L 24.966449 -42.322122 
L 24.836951 -42.322376 
L 24.707453 -42.322466 
L 24.577955 -42.322492 
L 24.448457 -42.322498 
L 24.318959 -42.322499 
L 24.189461 -42.322494 
L 24.059963 -42.322472 
L 23.930465 -42.322397 
L 23.800967 -42.322177 
L 23.671469 -42.321651 
L 23.541971 -42.32063 
L 23.412473 -42.319044 
L 23.282975 -42.317141 
L 23.153477 -42.315527 
L 23.023979 -42.314887 
z
"/>
    </defs>
    <g clip-path="url(#p0168553dd6)">
     <use xlink:href="#m1e762019c8" x="0" y="54" style="fill: #306c53"/>
    </g>
   </g>
   <g id="FillBetweenPolyCollection_2">
    <defs>
     <path id="m13a414e0cc" d="M 5.4 -16.85475 
L 5.4 -26.21025 
L 5.534547 -25.549953 
L 5.669095 -24.076256 
L 5.803642 -22.720389 
L 5.93819 -21.941916 
L 6.072737 -21.636788 
L 6.207285 -21.552183 
L 6.341832 -21.535266 
L 6.47638 -21.532799 
L 6.610927 -21.532567 
L 6.745475 -21.532704 
L 6.880022 -21.533193 
L 7.014569 -21.534252 
L 7.149117 -21.535767 
L 7.283664 -21.537024 
L 7.418212 -21.537297 
L 7.552759 -21.536973 
L 7.687307 -21.537642 
L 7.821854 -21.540517 
L 7.956402 -21.544662 
L 8.090949 -21.547362 
L 8.225496 -21.546996 
L 8.360044 -21.544834 
L 8.494591 -21.543052 
L 8.629139 -21.542098 
L 8.763686 -21.541072 
L 8.898234 -21.539756 
L 9.032781 -21.539209 
L 9.167329 -21.540346 
L 9.301876 -21.542447 
L 9.436424 -21.543798 
L 9.570971 -21.543812 
L 9.705518 -21.543599 
L 9.840066 -21.544434 
L 9.974613 -21.546387 
L 10.109161 -21.548241 
L 10.243708 -21.548462 
L 10.378256 -21.54658 
L 10.512803 -21.543556 
L 10.647351 -21.54081 
L 10.781898 -21.539183 
L 10.916446 -21.538494 
L 11.050993 -21.537913 
L 11.18554 -21.537165 
L 11.320088 -21.537104 
L 11.454635 -21.538549 
L 11.589183 -21.540771 
L 11.72373 -21.54179 
L 11.858278 -21.540429 
L 11.992825 -21.537554 
L 12.127373 -21.534907 
L 12.26192 -21.533417 
L 12.396467 -21.533048 
L 12.531015 -21.533639 
L 12.665562 -21.535328 
L 12.80011 -21.538249 
L 12.934657 -21.542055 
L 13.069205 -21.545757 
L 13.203752 -21.547878 
L 13.3383 -21.547131 
L 13.472847 -21.543603 
L 13.607395 -21.539056 
L 13.741942 -21.535459 
L 13.876489 -21.533509 
L 14.011037 -21.532758 
L 14.145584 -21.532549 
L 14.280132 -21.532508 
L 14.414679 -21.53251 
L 14.549227 -21.532555 
L 14.683774 -21.532747 
L 14.818322 -21.533308 
L 14.952869 -21.534454 
L 15.087417 -21.53598 
L 15.221964 -21.537068 
L 15.356511 -21.536918 
L 15.491059 -21.535649 
L 15.625606 -21.534154 
L 15.760154 -21.53314 
L 15.894701 -21.532683 
L 16.029249 -21.532538 
L 16.163796 -21.532506 
L 16.298344 -21.532501 
L 16.432891 -21.5325 
L 16.567439 -21.5325 
L 16.701986 -21.5325 
L 16.836533 -21.5325 
L 16.971081 -21.5325 
L 17.105628 -21.5325 
L 17.240176 -21.532502 
L 17.374723 -21.532513 
L 17.509271 -21.532574 
L 17.643818 -21.532813 
L 17.778366 -21.533472 
L 17.912913 -21.534737 
L 18.04746 -21.536342 
L 18.182008 -21.537551 
L 18.316555 -21.537935 
L 18.451103 -21.537907 
L 18.58565 -21.537939 
L 18.720198 -21.537698 
L 18.720198 -21.527302 
L 18.720198 -21.527302 
L 18.58565 -21.527061 
L 18.451103 -21.527093 
L 18.316555 -21.527065 
L 18.182008 -21.527449 
L 18.04746 -21.528658 
L 17.912913 -21.530263 
L 17.778366 -21.531528 
L 17.643818 -21.532187 
L 17.509271 -21.532426 
L 17.374723 -21.532487 
L 17.240176 -21.532498 
L 17.105628 -21.5325 
L 16.971081 -21.5325 
L 16.836533 -21.5325 
L 16.701986 -21.5325 
L 16.567439 -21.5325 
L 16.432891 -21.5325 
L 16.298344 -21.532499 
L 16.163796 -21.532494 
L 16.029249 -21.532462 
L 15.894701 -21.532317 
L 15.760154 -21.53186 
L 15.625606 -21.530846 
L 15.491059 -21.529351 
L 15.356511 -21.528082 
L 15.221964 -21.527932 
L 15.087417 -21.52902 
L 14.952869 -21.530546 
L 14.818322 -21.531692 
L 14.683774 -21.532253 
L 14.549227 -21.532445 
L 14.414679 -21.53249 
L 14.280132 -21.532492 
L 14.145584 -21.532451 
L 14.011037 -21.532242 
L 13.876489 -21.531491 
L 13.741942 -21.529541 
L 13.607395 -21.525944 
L 13.472847 -21.521397 
L 13.3383 -21.517869 
L 13.203752 -21.517122 
L 13.069205 -21.519243 
L 12.934657 -21.522945 
L 12.80011 -21.526751 
L 12.665562 -21.529672 
L 12.531015 -21.531361 
L 12.396467 -21.531952 
L 12.26192 -21.531583 
L 12.127373 -21.530093 
L 11.992825 -21.527446 
L 11.858278 -21.524571 
L 11.72373 -21.52321 
L 11.589183 -21.524229 
L 11.454635 -21.526451 
L 11.320088 -21.527896 
L 11.18554 -21.527835 
L 11.050993 -21.527087 
L 10.916446 -21.526506 
L 10.781898 -21.525817 
L 10.647351 -21.52419 
L 10.512803 -21.521444 
L 10.378256 -21.51842 
L 10.243708 -21.516538 
L 10.109161 -21.516759 
L 9.974613 -21.518613 
L 9.840066 -21.520566 
L 9.705518 -21.521401 
L 9.570971 -21.521188 
L 9.436424 -21.521202 
L 9.301876 -21.522553 
L 9.167329 -21.524654 
L 9.032781 -21.525791 
L 8.898234 -21.525244 
L 8.763686 -21.523928 
L 8.629139 -21.522902 
L 8.494591 -21.521948 
L 8.360044 -21.520166 
L 8.225496 -21.518004 
L 8.090949 -21.517638 
L 7.956402 -21.520338 
L 7.821854 -21.524483 
L 7.687307 -21.527358 
L 7.552759 -21.528027 
L 7.418212 -21.527703 
L 7.283664 -21.527976 
L 7.149117 -21.529233 
L 7.014569 -21.530748 
L 6.880022 -21.531807 
L 6.745475 -21.532296 
L 6.610927 -21.532433 
L 6.47638 -21.532201 
L 6.341832 -21.529734 
L 6.207285 -21.512817 
L 6.072737 -21.428212 
L 5.93819 -21.123084 
L 5.803642 -20.344611 
L 5.669095 -18.988744 
L 5.534547 -17.515047 
L 5.4 -16.85475 
z
"/>
    </defs>
    <g clip-path="url(#p0168553dd6)">
     <use xlink:href="#m13a414e0cc" x="0" y="54" style="fill: #f0a394"/>
    </g>
   </g>
   <g id="FillBetweenPolyCollection_3">
    <defs>
     <path id="m0a4f16a60c" d="M 24.846908 -11.118918 
L 24.846908 -11.156082 
L 24.958022 -11.156664 
L 25.069137 -11.155506 
L 25.180251 -11.153185 
L 25.291365 -11.150278 
L 25.40248 -11.147205 
L 25.513594 -11.144326 
L 25.624708 -11.142035 
L 25.735823 -11.140694 
L 25.846937 -11.140498 
L 25.958051 -11.141377 
L 26.069166 -11.142947 
L 26.18028 -11.14455 
L 26.291394 -11.145468 
L 26.402509 -11.145255 
L 26.513623 -11.143981 
L 26.624737 -11.142146 
L 26.735852 -11.140357 
L 26.846966 -11.139007 
L 26.95808 -11.138185 
L 27.069195 -11.13778 
L 27.180309 -11.137656 
L 27.291423 -11.137779 
L 27.402538 -11.13832 
L 27.513652 -11.139738 
L 27.624766 -11.142782 
L 27.735881 -11.148213 
L 27.846995 -11.156165 
L 27.958109 -11.165442 
L 28.069224 -11.173447 
L 28.180338 -11.177243 
L 28.291452 -11.175269 
L 28.402567 -11.168356 
L 28.513681 -11.159174 
L 28.624795 -11.150591 
L 28.73591 -11.1443 
L 28.847024 -11.140538 
L 28.958138 -11.138668 
L 29.069253 -11.13789 
L 29.180367 -11.137626 
L 29.291481 -11.137588 
L 29.402595 -11.137697 
L 29.51371 -11.138019 
L 29.624824 -11.138703 
L 29.735938 -11.139904 
L 29.847053 -11.141651 
L 29.958167 -11.14374 
L 30.069281 -11.145822 
L 30.180396 -11.147699 
L 30.29151 -11.149636 
L 30.402624 -11.152313 
L 30.513739 -11.156327 
L 30.624853 -11.161656 
L 30.735967 -11.167628 
L 30.847082 -11.173426 
L 30.958196 -11.178547 
L 31.06931 -11.18273 
L 31.180425 -11.185549 
L 31.291539 -11.186343 
L 31.402653 -11.184779 
L 31.513768 -11.181598 
L 31.624882 -11.178815 
L 31.735996 -11.178981 
L 31.847111 -11.183789 
L 31.958225 -11.192841 
L 32.069339 -11.203547 
L 32.180454 -11.212565 
L 32.291568 -11.217933 
L 32.402682 -11.220282 
L 32.513797 -11.222179 
L 32.624911 -11.226368 
L 32.736025 -11.234592 
L 32.84714 -11.247687 
L 32.958254 -11.266076 
L 33.069368 -11.289603 
L 33.180483 -11.316969 
L 33.291597 -11.345955 
L 33.402711 -11.374927 
L 33.513826 -11.404654 
L 33.62494 -11.439002 
L 33.736054 -11.483839 
L 33.847169 -11.544569 
L 33.958283 -11.623352 
L 34.069397 -11.717661 
L 34.180512 -11.821721 
L 34.291626 -11.93072 
L 34.40274 -12.045114 
L 34.513855 -12.171817 
L 34.624969 -12.321474 
L 34.736083 -12.503826 
L 34.847198 -12.723959 
L 34.958312 -12.982358 
L 35.069426 -13.281385 
L 35.180541 -13.635752 
L 35.291655 -14.07342 
L 35.402769 -14.608564 
L 35.513884 -15.189008 
L 35.624998 -15.661813 
L 35.736112 -15.81525 
L 35.847227 -15.499658 
L 35.847227 -6.775342 
L 35.847227 -6.775342 
L 35.736112 -6.45975 
L 35.624998 -6.613187 
L 35.513884 -7.085992 
L 35.402769 -7.666436 
L 35.291655 -8.20158 
L 35.180541 -8.639248 
L 35.069426 -8.993615 
L 34.958312 -9.292642 
L 34.847198 -9.551041 
L 34.736083 -9.771174 
L 34.624969 -9.953526 
L 34.513855 -10.103183 
L 34.40274 -10.229886 
L 34.291626 -10.34428 
L 34.180512 -10.453279 
L 34.069397 -10.557339 
L 33.958283 -10.651648 
L 33.847169 -10.730431 
L 33.736054 -10.791161 
L 33.62494 -10.835998 
L 33.513826 -10.870346 
L 33.402711 -10.900073 
L 33.291597 -10.929045 
L 33.180483 -10.958031 
L 33.069368 -10.985397 
L 32.958254 -11.008924 
L 32.84714 -11.027313 
L 32.736025 -11.040408 
L 32.624911 -11.048632 
L 32.513797 -11.052821 
L 32.402682 -11.054718 
L 32.291568 -11.057067 
L 32.180454 -11.062435 
L 32.069339 -11.071453 
L 31.958225 -11.082159 
L 31.847111 -11.091211 
L 31.735996 -11.096019 
L 31.624882 -11.096185 
L 31.513768 -11.093402 
L 31.402653 -11.090221 
L 31.291539 -11.088657 
L 31.180425 -11.089451 
L 31.06931 -11.09227 
L 30.958196 -11.096453 
L 30.847082 -11.101574 
L 30.735967 -11.107372 
L 30.624853 -11.113344 
L 30.513739 -11.118673 
L 30.402624 -11.122687 
L 30.29151 -11.125364 
L 30.180396 -11.127301 
L 30.069281 -11.129178 
L 29.958167 -11.13126 
L 29.847053 -11.133349 
L 29.735938 -11.135096 
L 29.624824 -11.136297 
L 29.51371 -11.136981 
L 29.402595 -11.137303 
L 29.291481 -11.137412 
L 29.180367 -11.137374 
L 29.069253 -11.13711 
L 28.958138 -11.136332 
L 28.847024 -11.134462 
L 28.73591 -11.1307 
L 28.624795 -11.124409 
L 28.513681 -11.115826 
L 28.402567 -11.106644 
L 28.291452 -11.099731 
L 28.180338 -11.097757 
L 28.069224 -11.101553 
L 27.958109 -11.109558 
L 27.846995 -11.118835 
L 27.735881 -11.126787 
L 27.624766 -11.132218 
L 27.513652 -11.135262 
L 27.402538 -11.13668 
L 27.291423 -11.137221 
L 27.180309 -11.137344 
L 27.069195 -11.13722 
L 26.95808 -11.136815 
L 26.846966 -11.135993 
L 26.735852 -11.134643 
L 26.624737 -11.132854 
L 26.513623 -11.131019 
L 26.402509 -11.129745 
L 26.291394 -11.129532 
L 26.18028 -11.13045 
L 26.069166 -11.132053 
L 25.958051 -11.133623 
L 25.846937 -11.134502 
L 25.735823 -11.134306 
L 25.624708 -11.132965 
L 25.513594 -11.130674 
L 25.40248 -11.127795 
L 25.291365 -11.124722 
L 25.180251 -11.121815 
L 25.069137 -11.119494 
L 24.958022 -11.118336 
L 24.846908 -11.118918 
z
"/>
    </defs>
    <g clip-path="url(#p0168553dd6)">
     <use xlink:href="#m0a4f16a60c" x="0" y="54" style="fill: #126175"/>
    </g>
   </g>
   <g id="matplotlib.axis_1">
    <g id="xtick_1">
     <g id="line2d_1">
      <defs>
       <path id="mb6b74bd07d" d="M 0 0 
L 0 1.7 
" style="stroke: #000000; stroke-width: 0.25"/>
      </defs>
      <g>
       <use xlink:href="#mb6b74bd07d" x="5.4" y="49.06" style="stroke: #000000; stroke-width: 0.25"/>
      </g>
     </g>
     <g id="text_1">
      <text style="font-size: 6px; font-family: 'Arial'; text-anchor: middle" x="5.4" y="56.554688" transform="rotate(-0 5.4 56.554688)">0.0</text>
     </g>
    </g>
    <g id="xtick_2">
     <g id="line2d_2">
      <g>
       <use xlink:href="#mb6b74bd07d" x="20.618182" y="49.06" style="stroke: #000000; stroke-width: 0.25"/>
      </g>
     </g>
     <g id="text_2">
      <text style="font-size: 6px; font-family: 'Arial'; text-anchor: middle" x="20.618182" y="56.554688" transform="rotate(-0 20.618182 56.554688)">0.5</text>
     </g>
    </g>
    <g id="xtick_3">
     <g id="line2d_3">
      <g>
       <use xlink:href="#mb6b74bd07d" x="35.836364" y="49.06" style="stroke: #000000; stroke-width: 0.25"/>
      </g>
     </g>
     <g id="text_3">
      <text style="font-size: 6px; font-family: 'Arial'; text-anchor: middle" x="35.836364" y="56.554688" transform="rotate(-0 35.836364 56.554688)">1.0</text>
     </g>
    </g>
    <g id="text_4">
     <text style="font-size: 8px; font-family: 'Arial'; text-anchor: middle" x="22.14" y="64.973438" transform="rotate(-0 22.14 64.973438)">motor rhythmicity score</text>
    </g>
   </g>
   <g id="matplotlib.axis_2">
    <g id="ytick_1">
     <g id="line2d_4">
      <defs>
       <path id="mc849c2637c" d="M 0 0 
L -1.7 0 
" style="stroke: #000000; stroke-width: 0.25"/>
      </defs>
      <g>
       <use xlink:href="#mc849c2637c" x="3.4" y="11.6775" style="stroke: #000000; stroke-width: 0.25"/>
      </g>
     </g>
     <g id="text_5">
      <text style="font-size: 6px; font-family: 'Arial'; text-anchor: end" x="0.2" y="13.824844" transform="rotate(-0 0.2 13.824844)">none</text>
     </g>
    </g>
    <g id="ytick_2">
     <g id="line2d_5">
      <g>
       <use xlink:href="#mc849c2637c" x="3.4" y="22.0725" style="stroke: #000000; stroke-width: 0.25"/>
      </g>
     </g>
     <g id="text_6">
      <text style="font-size: 6px; font-family: 'Arial'; text-anchor: end" x="0.2" y="24.219844" transform="rotate(-0 0.2 24.219844)">E1</text>
     </g>
    </g>
    <g id="ytick_3">
     <g id="line2d_6">
      <g>
       <use xlink:href="#mc849c2637c" x="3.4" y="32.4675" style="stroke: #000000; stroke-width: 0.25"/>
      </g>
     </g>
     <g id="text_7">
      <text style="font-size: 6px; font-family: 'Arial'; text-anchor: end" x="0.2" y="34.614844" transform="rotate(-0 0.2 34.614844)">E2</text>
     </g>
    </g>
    <g id="ytick_4">
     <g id="line2d_7">
      <g>
       <use xlink:href="#mc849c2637c" x="3.4" y="42.8625" style="stroke: #000000; stroke-width: 0.25"/>
      </g>
     </g>
     <g id="text_8">
      <text style="font-size: 6px; font-family: 'Arial'; text-anchor: end" x="0.2" y="45.009844" transform="rotate(-0 0.2 45.009844)">I1</text>
     </g>
    </g>
    <g id="text_9">
     <text style="font-size: 8px; font-family: 'Arial'; text-anchor: middle" x="-16.23625" y="27.27" transform="rotate(-90 -16.23625 27.27)">silenced neuron</text>
    </g>
   </g>
   <g id="line2d_8">
    <path d="M 5.4 17.39475 
L 5.4 26.75025 
" clip-path="url(#p0168553dd6)" style="fill: none"/>
   </g>
   <g id="patch_3">
    <path d="M 3.4 48.06 
L 3.4 6.48 
" style="fill: none; stroke: #000000; stroke-width: 0.25; stroke-linejoin: miter; stroke-linecap: square"/>
   </g>
   <g id="patch_4">
    <path d="M 5.4 49.06 
L 38.88 49.06 
" style="fill: none; stroke: #000000; stroke-width: 0.25; stroke-linejoin: miter; stroke-linecap: square"/>
   </g>
  </g>
 </g>
 <defs>
  <clipPath id="p0168553dd6">
   <rect x="5.4" y="6.48" width="33.48" height="41.58"/>
  </clipPath>
 </defs>
</svg>
