<?xml version="1.0" encoding="utf-8" standalone="no"?>
<!DOCTYPE svg PUBLIC "-//W3C//DTD SVG 1.1//EN"
  "http://www.w3.org/Graphics/SVG/1.1/DTD/svg11.dtd">
<svg xmlns:xlink="http://www.w3.org/1999/xlink" width="72pt" height="50.4pt" viewBox="0 0 72 50.4" xmlns="http://www.w3.org/2000/svg" version="1.1">
 <metadata>
  <rdf:RDF xmlns:dc="http://purl.org/dc/elements/1.1/" xmlns:cc="http://creativecommons.org/ns#" xmlns:rdf="http://www.w3.org/1999/02/22-rdf-syntax-ns#">
   <cc:Work>
    <dc:type rdf:resource="http://purl.org/dc/dcmitype/StillImage"/>
    <dc:date>2025-09-10T16:41:04.721823</dc:date>
    <dc:format>image/svg+xml</dc:format>
    <dc:creator>
     <cc:Agent>
      <dc:title>Matplotlib v3.10.3, https://matplotlib.org/</dc:title>
     </cc:Agent>
    </dc:creator>
   </cc:Work>
  </rdf:RDF>
 </metadata>
 <defs>
  <style type="text/css">*{stroke-linejoin: round; stroke-linecap: butt}</style>
 </defs>
 <g id="figure_1">
  <g id="patch_1">
   <path d="M 0 50.4 
L 72 50.4 
L 72 0 
L 0 0 
L 0 50.4 
z
" style="fill: none"/>
  </g>
  <g id="axes_1">
   <g id="patch_2">
    <path d="M 9 44.856 
L 64.8 44.856 
L 64.8 6.048 
L 9 6.048 
L 9 44.856 
z
" style="fill: none"/>
   </g>
   <g id="patch_3">
    <path d="M 14.314286 44.856 
L 16.971429 44.856 
L 16.971429 44.780203 
L 14.314286 44.780203 
z
" clip-path="url(#pe46db680e8)" style="fill: #d84a2e"/>
   </g>
   <g id="patch_4">
    <path d="M 16.971429 44.856 
L 19.628571 44.856 
L 19.628571 44.780203 
L 16.971429 44.780203 
z
" clip-path="url(#pe46db680e8)" style="fill: #d84a2e"/>
   </g>
   <g id="patch_5">
    <path d="M 19.628571 44.856 
L 22.285714 44.856 
L 22.285714 44.211727 
L 19.628571 44.211727 
z
" clip-path="url(#pe46db680e8)" style="fill: #d84a2e"/>
   </g>
   <g id="patch_6">
    <path d="M 22.285714 44.856 
L 24.942857 44.856 
L 24.942857 19.539844 
L 22.285714 19.539844 
z
" clip-path="url(#pe46db680e8)" style="fill: #d84a2e"/>
   </g>
   <g id="patch_7">
    <path d="M 24.942857 44.856 
L 27.6 44.856 
L 27.6 38.79225 
L 24.942857 38.79225 
z
" clip-path="url(#pe46db680e8)" style="fill: #d84a2e"/>
   </g>
   <g id="patch_8">
    <path d="M 27.6 44.856 
L 30.257143 44.856 
L 30.257143 43.074773 
L 27.6 43.074773 
z
" clip-path="url(#pe46db680e8)" style="fill: #d84a2e"/>
   </g>
   <g id="patch_9">
    <path d="M 30.257143 44.856 
L 32.914286 44.856 
L 32.914286 43.794844 
L 30.257143 43.794844 
z
" clip-path="url(#pe46db680e8)" style="fill: #d84a2e"/>
   </g>
   <g id="patch_10">
    <path d="M 32.914286 44.856 
L 35.571429 44.856 
L 35.571429 44.173828 
L 32.914286 44.173828 
z
" clip-path="url(#pe46db680e8)" style="fill: #d84a2e"/>
   </g>
   <g id="patch_11">
    <path d="M 35.571429 44.856 
L 38.228571 44.856 
L 38.228571 44.249625 
L 35.571429 44.249625 
z
" clip-path="url(#pe46db680e8)" style="fill: #d84a2e"/>
   </g>
   <g id="patch_12">
    <path d="M 38.228571 44.856 
L 40.885714 44.856 
L 40.885714 44.552813 
L 38.228571 44.552813 
z
" clip-path="url(#pe46db680e8)" style="fill: #d84a2e"/>
   </g>
   <g id="patch_13">
    <path d="M 40.885714 44.856 
L 43.542857 44.856 
L 43.542857 44.514914 
L 40.885714 44.514914 
z
" clip-path="url(#pe46db680e8)" style="fill: #d84a2e"/>
   </g>
   <g id="patch_14">
    <path d="M 43.542857 44.856 
L 46.2 44.856 
L 46.2 44.780203 
L 43.542857 44.780203 
z
" clip-path="url(#pe46db680e8)" style="fill: #d84a2e"/>
   </g>
   <g id="patch_15">
    <path d="M 46.2 44.856 
L 48.857143 44.856 
L 48.857143 44.590711 
L 46.2 44.590711 
z
" clip-path="url(#pe46db680e8)" style="fill: #d84a2e"/>
   </g>
   <g id="patch_16">
    <path d="M 48.857143 44.856 
L 51.514286 44.856 
L 51.514286 44.742305 
L 48.857143 44.742305 
z
" clip-path="url(#pe46db680e8)" style="fill: #d84a2e"/>
   </g>
   <g id="patch_17">
    <path d="M 51.514286 44.856 
L 54.171429 44.856 
L 54.171429 44.818102 
L 51.514286 44.818102 
z
" clip-path="url(#pe46db680e8)" style="fill: #d84a2e"/>
   </g>
   <g id="patch_18">
    <path d="M 54.171429 44.856 
L 56.828571 44.856 
L 56.828571 44.856 
L 54.171429 44.856 
z
" clip-path="url(#pe46db680e8)" style="fill: #d84a2e"/>
   </g>
   <g id="patch_19">
    <path d="M 56.828571 44.856 
L 59.485714 44.856 
L 59.485714 44.856 
L 56.828571 44.856 
z
" clip-path="url(#pe46db680e8)" style="fill: #d84a2e"/>
   </g>
   <g id="patch_20">
    <path d="M 59.485714 44.856 
L 62.142857 44.856 
L 62.142857 44.780203 
L 59.485714 44.780203 
z
" clip-path="url(#pe46db680e8)" style="fill: #d84a2e"/>
   </g>
   <g id="patch_21">
    <path d="M 62.142857 44.856 
L 64.8 44.856 
L 64.8 44.780203 
L 62.142857 44.780203 
z
" clip-path="url(#pe46db680e8)" style="fill: #d84a2e"/>
   </g>
   <g id="patch_22">
    <path d="M 64.8 44.856 
L 67.457143 44.856 
L 67.457143 44.780203 
L 64.8 44.780203 
z
" clip-path="url(#pe46db680e8)" style="fill: #d84a2e"/>
   </g>
   <g id="patch_23">
    <path d="M 67.457143 44.856 
L 70.114286 44.856 
L 70.114286 44.818102 
L 67.457143 44.818102 
z
" clip-path="url(#pe46db680e8)" style="fill: #d84a2e"/>
   </g>
   <g id="patch_24">
    <path d="M 70.114286 44.856 
L 72.771429 44.856 
L 72.771429 44.742305 
L 70.114286 44.742305 
z
" clip-path="url(#pe46db680e8)" style="fill: #d84a2e"/>
   </g>
   <g id="patch_25">
    <path d="M 72.771429 44.856 
L 75.428571 44.856 
L 75.428571 44.856 
L 72.771429 44.856 
z
" clip-path="url(#pe46db680e8)" style="fill: #d84a2e"/>
   </g>
   <g id="patch_26">
    <path d="M 75.428571 44.856 
L 78.085714 44.856 
L 78.085714 44.856 
L 75.428571 44.856 
z
" clip-path="url(#pe46db680e8)" style="fill: #d84a2e"/>
   </g>
   <g id="patch_27">
    <path d="M 78.085714 44.856 
L 80.742857 44.856 
L 80.742857 44.818102 
L 78.085714 44.818102 
z
" clip-path="url(#pe46db680e8)" style="fill: #d84a2e"/>
   </g>
   <g id="patch_28">
    <path d="M 80.742857 44.856 
L 83.4 44.856 
L 83.4 44.856 
L 80.742857 44.856 
z
" clip-path="url(#pe46db680e8)" style="fill: #d84a2e"/>
   </g>
   <g id="patch_29">
    <path d="M 83.4 44.856 
L 86.057143 44.856 
L 86.057143 44.818102 
L 83.4 44.818102 
z
" clip-path="url(#pe46db680e8)" style="fill: #d84a2e"/>
   </g>
   <g id="patch_30">
    <path d="M 86.057143 44.856 
L 88.714286 44.856 
L 88.714286 44.856 
L 86.057143 44.856 
z
" clip-path="url(#pe46db680e8)" style="fill: #d84a2e"/>
   </g>
   <g id="patch_31">
    <path d="M 88.714286 44.856 
L 91.371429 44.856 
L 91.371429 44.856 
L 88.714286 44.856 
z
" clip-path="url(#pe46db680e8)" style="fill: #d84a2e"/>
   </g>
   <g id="patch_32">
    <path d="M 91.371429 44.856 
L 94.028571 44.856 
L 94.028571 44.818102 
L 91.371429 44.818102 
z
" clip-path="url(#pe46db680e8)" style="fill: #d84a2e"/>
   </g>
   <g id="patch_33">
    <path d="M 94.028571 44.856 
L 96.685714 44.856 
L 96.685714 44.780203 
L 94.028571 44.780203 
z
" clip-path="url(#pe46db680e8)" style="fill: #d84a2e"/>
   </g>
   <g id="patch_34">
    <path d="M 96.685714 44.856 
L 99.342857 44.856 
L 99.342857 44.818102 
L 96.685714 44.818102 
z
" clip-path="url(#pe46db680e8)" style="fill: #d84a2e"/>
   </g>
   <g id="patch_35">
    <path d="M 99.342857 44.856 
L 102 44.856 
L 102 44.742305 
L 99.342857 44.742305 
z
" clip-path="url(#pe46db680e8)" style="fill: #d84a2e"/>
   </g>
   <g id="patch_36">
    <path d="M 102 44.856 
L 104.657143 44.856 
L 104.657143 44.818102 
L 102 44.818102 
z
" clip-path="url(#pe46db680e8)" style="fill: #d84a2e"/>
   </g>
   <g id="patch_37">
    <path d="M 104.657143 44.856 
L 107.314286 44.856 
L 107.314286 44.856 
L 104.657143 44.856 
z
" clip-path="url(#pe46db680e8)" style="fill: #d84a2e"/>
   </g>
   <g id="patch_38">
    <path d="M 107.314286 44.856 
L 109.971429 44.856 
L 109.971429 44.856 
L 107.314286 44.856 
z
" clip-path="url(#pe46db680e8)" style="fill: #d84a2e"/>
   </g>
   <g id="patch_39">
    <path d="M 109.971429 44.856 
L 112.628571 44.856 
L 112.628571 44.856 
L 109.971429 44.856 
z
" clip-path="url(#pe46db680e8)" style="fill: #d84a2e"/>
   </g>
   <g id="patch_40">
    <path d="M 112.628571 44.856 
L 115.285714 44.856 
L 115.285714 44.856 
L 112.628571 44.856 
z
" clip-path="url(#pe46db680e8)" style="fill: #d84a2e"/>
   </g>
   <g id="patch_41">
    <path d="M 115.285714 44.856 
L 117.942857 44.856 
L 117.942857 44.856 
L 115.285714 44.856 
z
" clip-path="url(#pe46db680e8)" style="fill: #d84a2e"/>
   </g>
   <g id="patch_42">
    <path d="M 117.942857 44.856 
L 120.6 44.856 
L 120.6 44.856 
L 117.942857 44.856 
z
" clip-path="url(#pe46db680e8)" style="fill: #d84a2e"/>
   </g>
   <g id="patch_43">
    <path d="M 120.6 44.856 
L 123.257143 44.856 
L 123.257143 44.856 
L 120.6 44.856 
z
" clip-path="url(#pe46db680e8)" style="fill: #d84a2e"/>
   </g>
   <g id="patch_44">
    <path d="M 123.257143 44.856 
L 125.914286 44.856 
L 125.914286 44.780203 
L 123.257143 44.780203 
z
" clip-path="url(#pe46db680e8)" style="fill: #d84a2e"/>
   </g>
   <g id="patch_45">
    <path d="M 125.914286 44.856 
L 128.571429 44.856 
L 128.571429 44.856 
L 125.914286 44.856 
z
" clip-path="url(#pe46db680e8)" style="fill: #d84a2e"/>
   </g>
   <g id="patch_46">
    <path d="M 128.571429 44.856 
L 131.228571 44.856 
L 131.228571 44.856 
L 128.571429 44.856 
z
" clip-path="url(#pe46db680e8)" style="fill: #d84a2e"/>
   </g>
   <g id="patch_47">
    <path d="M 131.228571 44.856 
L 133.885714 44.856 
L 133.885714 44.818102 
L 131.228571 44.818102 
z
" clip-path="url(#pe46db680e8)" style="fill: #d84a2e"/>
   </g>
   <g id="patch_48">
    <path d="M 133.885714 44.856 
L 136.542857 44.856 
L 136.542857 44.856 
L 133.885714 44.856 
z
" clip-path="url(#pe46db680e8)" style="fill: #d84a2e"/>
   </g>
   <g id="patch_49">
    <path d="M 136.542857 44.856 
L 139.2 44.856 
L 139.2 44.818102 
L 136.542857 44.818102 
z
" clip-path="url(#pe46db680e8)" style="fill: #d84a2e"/>
   </g>
   <g id="patch_50">
    <path d="M 139.2 44.856 
L 141.857143 44.856 
L 141.857143 44.856 
L 139.2 44.856 
z
" clip-path="url(#pe46db680e8)" style="fill: #d84a2e"/>
   </g>
   <g id="patch_51">
    <path d="M 141.857143 44.856 
L 144.514286 44.856 
L 144.514286 44.818102 
L 141.857143 44.818102 
z
" clip-path="url(#pe46db680e8)" style="fill: #d84a2e"/>
   </g>
   <g id="patch_52">
    <path d="M 144.514286 44.856 
L 147.171429 44.856 
L 147.171429 44.856 
L 144.514286 44.856 
z
" clip-path="url(#pe46db680e8)" style="fill: #d84a2e"/>
   </g>
   <g id="patch_53">
    <path d="M 147.171429 44.856 
L 149.828571 44.856 
L 149.828571 44.818102 
L 147.171429 44.818102 
z
" clip-path="url(#pe46db680e8)" style="fill: #d84a2e"/>
   </g>
   <g id="patch_54">
    <path d="M 149.828571 44.856 
L 152.485714 44.856 
L 152.485714 44.818102 
L 149.828571 44.818102 
z
" clip-path="url(#pe46db680e8)" style="fill: #d84a2e"/>
   </g>
   <g id="patch_55">
    <path d="M 152.485714 44.856 
L 155.142857 44.856 
L 155.142857 44.856 
L 152.485714 44.856 
z
" clip-path="url(#pe46db680e8)" style="fill: #d84a2e"/>
   </g>
   <g id="patch_56">
    <path d="M 155.142857 44.856 
L 157.8 44.856 
L 157.8 44.856 
L 155.142857 44.856 
z
" clip-path="url(#pe46db680e8)" style="fill: #d84a2e"/>
   </g>
   <g id="patch_57">
    <path d="M 157.8 44.856 
L 160.457143 44.856 
L 160.457143 44.856 
L 157.8 44.856 
z
" clip-path="url(#pe46db680e8)" style="fill: #d84a2e"/>
   </g>
   <g id="patch_58">
    <path d="M 160.457143 44.856 
L 163.114286 44.856 
L 163.114286 44.856 
L 160.457143 44.856 
z
" clip-path="url(#pe46db680e8)" style="fill: #d84a2e"/>
   </g>
   <g id="patch_59">
    <path d="M 163.114286 44.856 
L 165.771429 44.856 
L 165.771429 44.856 
L 163.114286 44.856 
z
" clip-path="url(#pe46db680e8)" style="fill: #d84a2e"/>
   </g>
   <g id="patch_60">
    <path d="M 165.771429 44.856 
L 168.428571 44.856 
L 168.428571 44.818102 
L 165.771429 44.818102 
z
" clip-path="url(#pe46db680e8)" style="fill: #d84a2e"/>
   </g>
   <g id="patch_61">
    <path d="M 168.428571 44.856 
L 171.085714 44.856 
L 171.085714 44.856 
L 168.428571 44.856 
z
" clip-path="url(#pe46db680e8)" style="fill: #d84a2e"/>
   </g>
   <g id="patch_62">
    <path d="M 171.085714 44.856 
L 173.742857 44.856 
L 173.742857 44.818102 
L 171.085714 44.818102 
z
" clip-path="url(#pe46db680e8)" style="fill: #d84a2e"/>
   </g>
   <g id="patch_63">
    <path d="M 173.742857 44.856 
L 176.4 44.856 
L 176.4 44.856 
L 173.742857 44.856 
z
" clip-path="url(#pe46db680e8)" style="fill: #d84a2e"/>
   </g>
   <g id="patch_64">
    <path d="M 176.4 44.856 
L 179.057143 44.856 
L 179.057143 44.818102 
L 176.4 44.818102 
z
" clip-path="url(#pe46db680e8)" style="fill: #d84a2e"/>
   </g>
   <g id="patch_65">
    <path d="M 179.057143 44.856 
L 181.714286 44.856 
L 181.714286 44.818102 
L 179.057143 44.818102 
z
" clip-path="url(#pe46db680e8)" style="fill: #d84a2e"/>
   </g>
   <g id="patch_66">
    <path d="M 181.714286 44.856 
L 184.371429 44.856 
L 184.371429 44.856 
L 181.714286 44.856 
z
" clip-path="url(#pe46db680e8)" style="fill: #d84a2e"/>
   </g>
   <g id="patch_67">
    <path d="M 184.371429 44.856 
L 187.028571 44.856 
L 187.028571 44.818102 
L 184.371429 44.818102 
z
" clip-path="url(#pe46db680e8)" style="fill: #d84a2e"/>
   </g>
   <g id="patch_68">
    <path d="M 187.028571 44.856 
L 189.685714 44.856 
L 189.685714 44.856 
L 187.028571 44.856 
z
" clip-path="url(#pe46db680e8)" style="fill: #d84a2e"/>
   </g>
   <g id="patch_69">
    <path d="M 189.685714 44.856 
L 192.342857 44.856 
L 192.342857 44.856 
L 189.685714 44.856 
z
" clip-path="url(#pe46db680e8)" style="fill: #d84a2e"/>
   </g>
   <g id="patch_70">
    <path d="M 192.342857 44.856 
L 195 44.856 
L 195 44.856 
L 192.342857 44.856 
z
" clip-path="url(#pe46db680e8)" style="fill: #d84a2e"/>
   </g>
   <g id="patch_71">
    <path d="M 195 44.856 
L 197.657143 44.856 
L 197.657143 44.818102 
L 195 44.818102 
z
" clip-path="url(#pe46db680e8)" style="fill: #d84a2e"/>
   </g>
   <g id="patch_72">
    <path d="M 197.657143 44.856 
L 200.314286 44.856 
L 200.314286 44.856 
L 197.657143 44.856 
z
" clip-path="url(#pe46db680e8)" style="fill: #d84a2e"/>
   </g>
   <g id="patch_73">
    <path d="M 200.314286 44.856 
L 202.971429 44.856 
L 202.971429 44.856 
L 200.314286 44.856 
z
" clip-path="url(#pe46db680e8)" style="fill: #d84a2e"/>
   </g>
   <g id="patch_74">
    <path d="M 202.971429 44.856 
L 205.628571 44.856 
L 205.628571 44.856 
L 202.971429 44.856 
z
" clip-path="url(#pe46db680e8)" style="fill: #d84a2e"/>
   </g>
   <g id="patch_75">
    <path d="M 205.628571 44.856 
L 208.285714 44.856 
L 208.285714 44.856 
L 205.628571 44.856 
z
" clip-path="url(#pe46db680e8)" style="fill: #d84a2e"/>
   </g>
   <g id="patch_76">
    <path d="M 208.285714 44.856 
L 210.942857 44.856 
L 210.942857 44.856 
L 208.285714 44.856 
z
" clip-path="url(#pe46db680e8)" style="fill: #d84a2e"/>
   </g>
   <g id="patch_77">
    <path d="M 210.942857 44.856 
L 213.6 44.856 
L 213.6 44.818102 
L 210.942857 44.818102 
z
" clip-path="url(#pe46db680e8)" style="fill: #d84a2e"/>
   </g>
   <g id="patch_78">
    <path d="M 213.6 44.856 
L 216.257143 44.856 
L 216.257143 44.856 
L 213.6 44.856 
z
" clip-path="url(#pe46db680e8)" style="fill: #d84a2e"/>
   </g>
   <g id="patch_79">
    <path d="M 216.257143 44.856 
L 218.914286 44.856 
L 218.914286 44.856 
L 216.257143 44.856 
z
" clip-path="url(#pe46db680e8)" style="fill: #d84a2e"/>
   </g>
   <g id="patch_80">
    <path d="M 218.914286 44.856 
L 221.571429 44.856 
L 221.571429 44.856 
L 218.914286 44.856 
z
" clip-path="url(#pe46db680e8)" style="fill: #d84a2e"/>
   </g>
   <g id="patch_81">
    <path d="M 221.571429 44.856 
L 224.228571 44.856 
L 224.228571 44.856 
L 221.571429 44.856 
z
" clip-path="url(#pe46db680e8)" style="fill: #d84a2e"/>
   </g>
   <g id="patch_82">
    <path d="M 224.228571 44.856 
L 226.885714 44.856 
L 226.885714 44.856 
L 224.228571 44.856 
z
" clip-path="url(#pe46db680e8)" style="fill: #d84a2e"/>
   </g>
   <g id="patch_83">
    <path d="M 226.885714 44.856 
L 229.542857 44.856 
L 229.542857 44.856 
L 226.885714 44.856 
z
" clip-path="url(#pe46db680e8)" style="fill: #d84a2e"/>
   </g>
   <g id="patch_84">
    <path d="M 229.542857 44.856 
L 232.2 44.856 
L 232.2 44.818102 
L 229.542857 44.818102 
z
" clip-path="url(#pe46db680e8)" style="fill: #d84a2e"/>
   </g>
   <g id="patch_85">
    <path d="M 232.2 44.856 
L 234.857143 44.856 
L 234.857143 44.856 
L 232.2 44.856 
z
" clip-path="url(#pe46db680e8)" style="fill: #d84a2e"/>
   </g>
   <g id="patch_86">
    <path d="M 234.857143 44.856 
L 237.514286 44.856 
L 237.514286 44.856 
L 234.857143 44.856 
z
" clip-path="url(#pe46db680e8)" style="fill: #d84a2e"/>
   </g>
   <g id="patch_87">
    <path d="M 237.514286 44.856 
L 240.171429 44.856 
L 240.171429 44.856 
L 237.514286 44.856 
z
" clip-path="url(#pe46db680e8)" style="fill: #d84a2e"/>
   </g>
   <g id="patch_88">
    <path d="M 240.171429 44.856 
L 242.828571 44.856 
L 242.828571 44.856 
L 240.171429 44.856 
z
" clip-path="url(#pe46db680e8)" style="fill: #d84a2e"/>
   </g>
   <g id="patch_89">
    <path d="M 242.828571 44.856 
L 245.485714 44.856 
L 245.485714 44.856 
L 242.828571 44.856 
z
" clip-path="url(#pe46db680e8)" style="fill: #d84a2e"/>
   </g>
   <g id="patch_90">
    <path d="M 245.485714 44.856 
L 248.142857 44.856 
L 248.142857 44.856 
L 245.485714 44.856 
z
" clip-path="url(#pe46db680e8)" style="fill: #d84a2e"/>
   </g>
   <g id="patch_91">
    <path d="M 248.142857 44.856 
L 250.8 44.856 
L 250.8 44.856 
L 248.142857 44.856 
z
" clip-path="url(#pe46db680e8)" style="fill: #d84a2e"/>
   </g>
   <g id="patch_92">
    <path d="M 250.8 44.856 
L 253.457143 44.856 
L 253.457143 44.818102 
L 250.8 44.818102 
z
" clip-path="url(#pe46db680e8)" style="fill: #d84a2e"/>
   </g>
   <g id="matplotlib.axis_1">
    <g id="xtick_1">
     <g id="line2d_1">
      <defs>
       <path id="ma38e048236" d="M 0 0 
L 0 1.7 
" style="stroke: #000000; stroke-width: 0.25"/>
      </defs>
      <g>
       <use xlink:href="#ma38e048236" x="10.328571" y="45.856" style="stroke: #000000; stroke-width: 0.25"/>
      </g>
     </g>
     <g id="text_1">
      <text style="font-size: 6px; font-family: 'Arial'; text-anchor: middle" x="10.328571" y="53.350687" transform="rotate(-0 10.328571 53.350687)">0</text>
     </g>
    </g>
    <g id="xtick_2">
     <g id="line2d_2">
      <g>
       <use xlink:href="#ma38e048236" x="23.614286" y="45.856" style="stroke: #000000; stroke-width: 0.25"/>
      </g>
     </g>
     <g id="text_2">
      <text style="font-size: 6px; font-family: 'Arial'; text-anchor: middle" x="23.614286" y="53.350687" transform="rotate(-0 23.614286 53.350687)">5</text>
     </g>
    </g>
    <g id="xtick_3">
     <g id="line2d_3">
      <g>
       <use xlink:href="#ma38e048236" x="36.9" y="45.856" style="stroke: #000000; stroke-width: 0.25"/>
      </g>
     </g>
     <g id="text_3">
      <text style="font-size: 6px; font-family: 'Arial'; text-anchor: middle" x="36.9" y="53.350687" transform="rotate(-0 36.9 53.350687)">10</text>
     </g>
    </g>
    <g id="xtick_4">
     <g id="line2d_4">
      <g>
       <use xlink:href="#ma38e048236" x="50.185714" y="45.856" style="stroke: #000000; stroke-width: 0.25"/>
      </g>
     </g>
     <g id="text_4">
      <text style="font-size: 6px; font-family: 'Arial'; text-anchor: middle" x="50.185714" y="53.350687" transform="rotate(-0 50.185714 53.350687)">15</text>
     </g>
    </g>
    <g id="xtick_5">
     <g id="line2d_5">
      <g>
       <use xlink:href="#ma38e048236" x="63.471429" y="45.856" style="stroke: #000000; stroke-width: 0.25"/>
      </g>
     </g>
     <g id="text_5">
      <text style="font-size: 6px; font-family: 'Arial'; text-anchor: middle" x="63.471429" y="53.350687" transform="rotate(-0 63.471429 53.350687)">20</text>
     </g>
    </g>
    <g id="text_6">
     <text style="font-size: 8px; font-family: 'Arial'; text-anchor: middle" x="36.9" y="61.769437" transform="rotate(-0 36.9 61.769437)"># interneurons</text>
    </g>
   </g>
   <g id="matplotlib.axis_2">
    <g id="ytick_1">
     <g id="line2d_6">
      <defs>
       <path id="m2a4637e930" d="M 0 0 
L -1.7 0 
" style="stroke: #000000; stroke-width: 0.25"/>
      </defs>
      <g>
       <use xlink:href="#m2a4637e930" x="8" y="44.856" style="stroke: #000000; stroke-width: 0.25"/>
      </g>
     </g>
     <g id="text_7">
      <text style="font-size: 6px; font-family: 'Arial'; text-anchor: end" x="4.8" y="47.003344" transform="rotate(-0 4.8 47.003344)">0</text>
     </g>
    </g>
    <g id="ytick_2">
     <g id="line2d_7">
      <g>
       <use xlink:href="#m2a4637e930" x="8" y="25.452" style="stroke: #000000; stroke-width: 0.25"/>
      </g>
     </g>
     <g id="text_8">
      <text style="font-size: 6px; font-family: 'Arial'; text-anchor: end" x="4.8" y="27.599344" transform="rotate(-0 4.8 27.599344)">50</text>
     </g>
    </g>
    <g id="ytick_3">
     <g id="line2d_8">
      <g>
       <use xlink:href="#m2a4637e930" x="8" y="6.048" style="stroke: #000000; stroke-width: 0.25"/>
      </g>
     </g>
     <g id="text_9">
      <text style="font-size: 6px; font-family: 'Arial'; text-anchor: end" x="4.8" y="8.195344" transform="rotate(-0 4.8 8.195344)">100</text>
     </g>
    </g>
    <g id="text_10">
     <text style="font-size: 8px; font-family: 'Arial'; text-anchor: middle" x="-8.299687" y="25.452" transform="rotate(-90 -8.299687 25.452)">% of runs</text>
    </g>
   </g>
   <g id="patch_93">
    <path d="M 8 44.856 
L 8 6.048 
" style="fill: none; stroke: #000000; stroke-width: 0.25; stroke-linejoin: miter; stroke-linecap: square"/>
   </g>
   <g id="patch_94">
    <path d="M 9 45.856 
L 64.8 45.856 
" style="fill: none; stroke: #000000; stroke-width: 0.25; stroke-linejoin: miter; stroke-linecap: square"/>
   </g>
  </g>
 </g>
 <defs>
  <clipPath id="pe46db680e8">
   <rect x="9" y="6.048" width="55.8" height="38.808"/>
  </clipPath>
 </defs>
</svg>
